<?xml version="1.0" encoding="UTF-8" standalone="no"?>
<!-- Created with Inkscape (http://www.inkscape.org/) -->

<svg
   xmlns:dc="http://purl.org/dc/elements/1.1/"
   xmlns:cc="http://creativecommons.org/ns#"
   xmlns:rdf="http://www.w3.org/1999/02/22-rdf-syntax-ns#"
   xmlns:svg="http://www.w3.org/2000/svg"
   xmlns="http://www.w3.org/2000/svg"
   xmlns:sodipodi="http://sodipodi.sourceforge.net/DTD/sodipodi-0.dtd"
   xmlns:inkscape="http://www.inkscape.org/namespaces/inkscape"
   width="64px"
   height="64px"
   id="svg2985"
   version="1.1"
   inkscape:version="0.48.1 "
   sodipodi:docname="wn.svg">
  <defs
     id="defs2987" />
  <sodipodi:namedview
     id="base"
     pagecolor="#ffffff"
     bordercolor="#666666"
     borderopacity="1.0"
     inkscape:pageopacity="0.0"
     inkscape:pageshadow="2"
     inkscape:zoom="5.5"
     inkscape:cx="32"
     inkscape:cy="17.590577"
     inkscape:current-layer="layer1"
     showgrid="true"
     inkscape:document-units="px"
     inkscape:grid-bbox="true"
     inkscape:window-width="1365"
     inkscape:window-height="878"
     inkscape:window-x="-8"
     inkscape:window-y="-8"
     inkscape:window-maximized="1" />
  <metadata
     id="metadata2990">
    <rdf:RDF>
      <cc:Work
         rdf:about="">
        <dc:format>image/svg+xml</dc:format>
        <dc:type
           rdf:resource="http://purl.org/dc/dcmitype/StillImage" />
        <dc:title></dc:title>
      </cc:Work>
    </rdf:RDF>
  </metadata>
  <g
     id="layer1"
     inkscape:label="Layer 1"
     inkscape:groupmode="layer">
    <path
       style="fill:#000000"
       d="m 19.415203,54.270003 0,-2.142093 17.136747,0 17.136746,0 0,2.142093 0,2.142093 -17.136746,0 -17.136747,0 0,-2.142093 z m 0.01897,-4.953591 c 0.03062,-1.944327 1.174003,-3.498824 5.018781,-6.823341 3.352611,-2.898946 6.208235,-6.125215 6.208235,-7.014028 0,-0.206297 -0.903695,-0.168736 -2.008212,0.08347 -1.104517,0.252205 -2.88715,0.320478 -3.961407,0.151719 -1.642178,-0.257977 -2.008232,-0.133424 -2.29884,0.782201 -0.190106,0.598971 -1.299993,1.951232 -2.466416,3.005025 -2.242735,2.026175 -4.805594,2.52137 -6.992344,1.351056 -1.742854,-0.932746 -4.695679,-4.423448 -5.0448643,-5.963819 -0.3890411,-1.716188 0.109544,-2.72547 3.7853253,-7.662617 1.535016,-2.061764 3.066771,-4.612609 3.4039,-5.668543 0.337129,-1.055934 1.330349,-2.60718 2.207154,-3.447212 1.879358,-1.800539 1.968293,-2.77841 0.51226,-5.632469 l -1.08193,-2.120759 1.644048,0 c 0.904226,0 2.355037,0.367666 3.224024,0.817037 1.436749,0.742972 1.579976,0.738118 1.579976,-0.05355 0,-0.478825 -0.855296,-1.7258854 -1.900657,-2.7712467 L 19.362552,6.448674 23.122101,6.763861 c 2.067751,0.1733532 4.549699,0.6698813 5.515439,1.1033965 0.96574,0.4335157 2.841077,0.893782 4.167414,1.0228147 4.25789,0.4142283 11.612177,3.5614738 13.685905,5.8568428 1.013432,1.121749 1.842604,2.503329 1.842604,3.070178 0,0.56685 0.66271,1.550338 1.472689,2.18553 1.910969,1.498598 2.76898,3.07582 2.792521,5.133301 0.01044,0.912181 0.500948,2.214227 1.090023,2.893437 1.159291,1.336674 1.198052,1.50183 1.382582,5.890757 0.06811,1.619958 0.289231,3.81483 0.491381,4.877493 0.274562,1.443337 0.08402,2.487867 -0.753209,4.128972 -0.698472,1.369113 -1.120754,3.213779 -1.120754,4.895806 l 0,2.698951 -17.136746,0 -17.136747,0 0.01898,-1.204928 z M 35.899623,31.778024 c 1.627488,-3.209488 1.534899,-8.300611 -0.150958,-8.300611 -0.910091,0 -1.111285,0.44627 -1.338808,2.969608 -0.147269,1.633284 -0.70224,3.632399 -1.233268,4.442478 -1.114793,1.700607 -0.760115,3.715233 0.609617,3.462716 0.490277,-0.09038 1.441314,-1.24877 2.113417,-2.574191 z M 23.592285,24.709117 c 0.353446,-0.353445 0.642628,-1.148697 0.642628,-1.767227 0,-1.535951 -0.998832,-2.409855 -2.754355,-2.409855 -2.479351,0 -3.765832,3.08888 -1.836655,4.409867 0.898367,0.615149 3.238411,0.477187 3.948382,-0.232785 z"
       id="path3179"
       inkscape:connector-curvature="0" />
    <path
       style="fill:#ffffff"
       d="m 20.272727,25.162006 c -0.914817,-0.2496 -1.638434,-1.418134 -1.461668,-2.360377 0.159345,-0.849383 1.072689,-1.837796 1.905416,-2.062026 0.770165,-0.207384 2.202336,-0.0084 2.657267,0.369116 0.414933,0.344364 0.808076,1.174448 0.808076,1.706177 0,0.797325 -0.533352,1.857755 -1.055317,2.098219 -0.544406,0.250803 -2.289077,0.402963 -2.853774,0.248891 z"
       id="path3181"
       inkscape:connector-curvature="0" />
    <path
       style="fill:#ffffff"
       d="m 33.163583,34.233911 c -0.781006,-0.521491 -0.743865,-1.807414 0.100514,-3.480118 0.62012,-1.228451 1.031724,-2.73466 1.197131,-4.380734 0.18331,-1.824246 0.412951,-2.543833 0.866489,-2.715174 0.99946,-0.377584 1.614816,0.765005 1.608624,2.986882 -0.0075,2.695239 -0.966827,5.52596 -2.374041,7.005249 -0.676826,0.711492 -1.003432,0.847834 -1.398717,0.583895 l 0,0 z"
       id="path3183"
       inkscape:connector-curvature="0" />
  </g>
</svg>
