<?xml version="1.0" encoding="UTF-8" standalone="no"?>
<!-- Created with Inkscape (http://www.inkscape.org/) -->

<svg
   xmlns:dc="http://purl.org/dc/elements/1.1/"
   xmlns:cc="http://creativecommons.org/ns#"
   xmlns:rdf="http://www.w3.org/1999/02/22-rdf-syntax-ns#"
   xmlns:svg="http://www.w3.org/2000/svg"
   xmlns="http://www.w3.org/2000/svg"
   xmlns:sodipodi="http://sodipodi.sourceforge.net/DTD/sodipodi-0.dtd"
   xmlns:inkscape="http://www.inkscape.org/namespaces/inkscape"
   width="64px"
   height="64px"
   id="svg2985"
   version="1.1"
   inkscape:version="0.48.1 "
   sodipodi:docname="bb.svg">
  <defs
     id="defs2987" />
  <sodipodi:namedview
     id="base"
     pagecolor="#ffffff"
     bordercolor="#666666"
     borderopacity="1.0"
     inkscape:pageopacity="0.0"
     inkscape:pageshadow="2"
     inkscape:zoom="5.5"
     inkscape:cx="32"
     inkscape:cy="17.590577"
     inkscape:current-layer="layer1"
     showgrid="true"
     inkscape:document-units="px"
     inkscape:grid-bbox="true"
     inkscape:window-width="1365"
     inkscape:window-height="878"
     inkscape:window-x="-8"
     inkscape:window-y="-8"
     inkscape:window-maximized="1" />
  <metadata
     id="metadata2990">
    <rdf:RDF>
      <cc:Work
         rdf:about="">
        <dc:format>image/svg+xml</dc:format>
        <dc:type
           rdf:resource="http://purl.org/dc/dcmitype/StillImage" />
        <dc:title></dc:title>
      </cc:Work>
    </rdf:RDF>
  </metadata>
  <g
     id="layer1"
     inkscape:label="Layer 1"
     inkscape:groupmode="layer">
    <path
       style="fill:#000000"
       d="m 13.380823,54.378534 0,-2.148205 19.065318,0 19.065317,0 0,2.148205 0,2.148205 -19.065317,0 -19.065318,0 0,-2.148205 z m -0.364469,-6.578877 c -2.05587,-3.979336 -2.079798,-9.670115 -0.05711,-13.582103 2.292985,-4.434758 6.955395,-8.082496 12.90802,-10.098869 1.294159,-0.43838 1.177608,-1.565153 -0.402788,-3.893996 -1.64517,-2.424294 -1.678113,-3.405439 -0.178355,-5.312072 3.128741,-3.977549 11.1913,-3.977549 14.320041,0 1.504632,1.91283 1.46723,2.887168 -0.205451,5.352001 -0.753348,1.110121 -1.297113,2.365863 -1.208365,2.790539 0.08875,0.424675 1.588909,1.351104 3.333692,2.05873 5.700555,2.311957 9.855194,6.664556 11.385238,11.927724 1.052713,3.621205 0.73596,6.696061 -1.103739,10.714494 l -1.310757,2.86307 -18.011879,0 -18.01188,0 -1.456666,-2.819518 z m 36.431705,-1.879679 c 1.969495,-4.886384 0.56692,-10.802273 -3.413686,-14.398512 l -2.12637,-1.921048 -4.028646,5.675918 c -3.961139,5.580807 -5.095516,6.45617 -6.520229,5.031457 -1.114321,-1.114322 -0.742407,-2.013522 3.069315,-7.420869 l 3.713777,-5.2684 -1.583775,-0.656021 c -1.971997,-0.816828 -3.695574,-2.948105 -3.695574,-4.569736 0,-0.675948 0.604183,-1.947027 1.342628,-2.824619 0.738445,-0.877592 1.342628,-1.995996 1.342628,-2.48534 0,-1.008218 -2.99905,-2.446063 -5.101986,-2.446063 -2.102937,0 -5.101987,1.437845 -5.101987,2.446063 0,0.489344 0.604183,1.607748 1.342628,2.48534 2.606611,3.09778 1.367632,5.672166 -3.873587,8.048648 -8.434046,3.824179 -12.222094,11.224492 -9.368973,18.303182 l 0.595272,1.47689 16.406647,0 16.406646,0 0.595272,-1.47689 z"
       id="path3149"
       inkscape:connector-curvature="0" />
    <path
       style="fill:#ffffff"
       d="m 15.663311,46.312437 c -0.869877,-2.324954 -1.015473,-3.081414 -1.003173,-5.212105 0.01006,-1.742924 0.09143,-2.333624 0.48891,-3.549287 1.311634,-4.011537 4.183403,-7.011272 9.214588,-9.625193 3.910187,-2.031514 5.310927,-3.254167 5.572117,-4.863691 0.18059,-1.112846 -0.06768,-1.813279 -1.301275,-3.671231 -0.648963,-0.97742 -1.179933,-1.959169 -1.179933,-2.181664 0,-0.583616 0.838793,-1.301654 2.188705,-1.873613 0.988055,-0.41864 1.4352,-0.49782 2.811295,-0.49782 1.376095,0 1.82324,0.07918 2.811297,0.49782 1.356707,0.574839 2.188703,1.290467 2.188703,1.88258 0,0.227427 -0.4623,1.091665 -1.027334,1.920529 -1.18544,1.738955 -1.554484,2.532131 -1.554484,3.341013 0,1.588823 1.654413,3.570742 3.814791,4.569965 0.892969,0.413018 1.280375,0.683651 1.190218,0.831458 -0.07352,0.120524 -1.001151,1.446407 -2.061414,2.946407 -5.33508,7.547772 -5.740403,8.448425 -4.33446,9.631449 1.479213,1.244674 2.51784,0.322776 7.471116,-6.631449 1.317698,-1.85 2.533555,-3.547599 2.701906,-3.772441 l 0.306091,-0.408804 1.886678,1.86335 c 2.066245,2.040695 2.843878,3.203602 3.657534,5.469625 0.426177,1.186897 0.5525,1.89342 0.629906,3.52301 0.107662,2.266601 -0.08508,3.588107 -0.80766,5.537516 l -0.460473,1.242289 -16.420416,0 -16.420417,0 -0.362816,-0.969713 0,0 z"
       id="path3151"
       inkscape:connector-curvature="0" />
  </g>
</svg>
