<?xml version="1.0" encoding="UTF-8" standalone="no"?>
<!-- Created with Inkscape (http://www.inkscape.org/) -->

<svg
   xmlns:dc="http://purl.org/dc/elements/1.1/"
   xmlns:cc="http://creativecommons.org/ns#"
   xmlns:rdf="http://www.w3.org/1999/02/22-rdf-syntax-ns#"
   xmlns:svg="http://www.w3.org/2000/svg"
   xmlns="http://www.w3.org/2000/svg"
   xmlns:sodipodi="http://sodipodi.sourceforge.net/DTD/sodipodi-0.dtd"
   xmlns:inkscape="http://www.inkscape.org/namespaces/inkscape"
   width="64px"
   height="64px"
   id="svg2985"
   version="1.1"
   inkscape:version="0.48.1 "
   sodipodi:docname="New document 2">
  <defs
     id="defs2987" />
  <sodipodi:namedview
     id="base"
     pagecolor="#ffffff"
     bordercolor="#666666"
     borderopacity="1.0"
     inkscape:pageopacity="0.0"
     inkscape:pageshadow="2"
     inkscape:zoom="5.5"
     inkscape:cx="32"
     inkscape:cy="32"
     inkscape:current-layer="layer1"
     showgrid="true"
     inkscape:document-units="px"
     inkscape:grid-bbox="true"
     inkscape:window-width="1365"
     inkscape:window-height="878"
     inkscape:window-x="-8"
     inkscape:window-y="-8"
     inkscape:window-maximized="1" />
  <metadata
     id="metadata2990">
    <rdf:RDF>
      <cc:Work
         rdf:about="">
        <dc:format>image/svg+xml</dc:format>
        <dc:type
           rdf:resource="http://purl.org/dc/dcmitype/StillImage" />
        <dc:title></dc:title>
      </cc:Work>
    </rdf:RDF>
  </metadata>
  <g
     id="layer1"
     inkscape:label="Layer 1"
     inkscape:groupmode="layer">
    <path
       style="fill:#000000"
       d="m 18.205884,54.22422 0,-2.142094 14.768909,0 14.768908,0 0,2.142094 0,2.142093 -14.768908,0 -14.768909,0 0,-2.142093 z m -5.2428,-19.15071 C 9.9318562,26.608711 7.4547074,19.502226 7.4583094,19.281323 c 0.017062,-1.046341 1.7264264,-0.119982 5.4349556,2.945378 2.227108,1.840861 4.422693,3.651542 4.879077,4.023735 0.729576,0.594987 0.897015,0.151614 1.386438,-3.671227 0.306156,-2.391367 0.784526,-4.575171 1.063044,-4.852896 0.317161,-0.316259 1.649287,0.905553 3.564786,3.269584 1.682114,2.075997 3.156037,3.77454 3.275385,3.77454 0.119347,0 1.353758,-2.409855 2.743135,-5.355234 1.389376,-2.945378 2.797188,-5.355233 3.12847,-5.355233 0.331282,0 1.823518,2.449053 3.316079,5.44234 l 2.713747,5.44234 3.12897,-3.861646 c 1.935147,-2.38828 3.320057,-3.671102 3.629806,-3.362235 0.27546,0.274676 0.759105,2.334698 1.074765,4.577825 0.315661,2.243127 0.735386,4.078413 0.932723,4.078413 0.197337,0 2.361674,-1.686899 4.809637,-3.748664 4.674333,-3.936894 6.279208,-4.656776 5.670907,-2.543735 -0.190782,0.66271 -2.68422,7.76906 -5.540968,15.791888 l -5.19409,14.586962 -14.500383,2.99e-4 -14.500384,2.99e-4 -5.511325,-15.390546 z m 35.9776,2.173725 c 1.987542,-5.500215 3.546581,-10.067332 3.46453,-10.149148 -0.08205,-0.08182 -1.466548,0.931175 -3.076662,2.251094 -3.561077,2.919255 -5.770869,3.637081 -8.480997,2.754955 -1.774674,-0.577644 -2.254083,-1.199326 -4.944941,-6.412452 l -2.979742,-5.772795 -2.624597,5.423858 c -2.664696,5.506724 -3.777474,6.761376 -6.184828,6.973362 -2.775852,0.244435 -3.721191,-0.116735 -7.043163,-2.690861 -1.875627,-1.453384 -3.477779,-2.575158 -3.56034,-2.492833 -0.08256,0.08233 1.484016,4.644367 3.48128,10.137868 l 3.63139,9.988185 12.352179,-0.0054 12.352178,-0.0054 3.613713,-10.00039 z m -17.546592,4.540791 c -0.991482,-1.411511 -1.103779,-5.670753 -0.201571,-7.645251 0.432417,-0.946351 0.98396,-1.338082 1.731973,-1.230125 2.284026,0.329642 3.262904,5.370954 1.647661,8.485604 -0.976742,1.883437 -2.037492,2.013532 -3.178063,0.389772 z m -6.5876,-12.867283 c 0.816241,-0.60823 0.733614,-0.863778 -0.904138,-2.796323 l -1.802476,-2.126919 -0.379719,2.241147 c -0.208846,1.23263 -0.224876,2.490976 -0.03562,2.796323 0.468629,0.756098 2.030682,0.698945 3.121956,-0.114228 z m 19.458557,0.114228 c 0.189253,-0.305347 0.173223,-1.563693 -0.03562,-2.796323 l -0.37972,-2.241147 -1.802475,2.126919 c -1.637752,1.932545 -1.720379,2.188093 -0.904138,2.796323 1.091274,0.813173 2.653328,0.870326 3.121956,0.114228 z"
       id="path3004"
       inkscape:connector-curvature="0" />
    <path
       style="fill:#ffffff"
       d="m 20.653212,47.081805 c -0.320142,-0.518 -7.016848,-19.375695 -7.016848,-19.759202 0,-0.135439 0.527064,0.228627 3.473828,2.399522 3.146266,2.31787 3.798061,2.60113 5.990473,2.603372 3.384438,0.0035 4.048935,-0.672905 7.569084,-7.704276 l 2.264989,-4.524233 2.334895,4.462277 c 3.446443,6.586585 3.828922,7.0793 5.98108,7.704949 1.361545,0.395812 2.935545,0.233425 4.417132,-0.455707 1.243033,-0.578174 1.912891,-1.030235 4.593595,-3.100041 0.958855,-0.740343 1.795024,-1.294427 1.858155,-1.231297 0.133229,0.133231 -1.571468,5.152818 -4.641875,13.668286 l -2.163407,6 -12.282008,0.04672 c -6.761714,0.02572 -12.325643,-0.02388 -12.379093,-0.110371 z m 13.269252,-4.660467 c 1.952121,-1.952122 1.93518,-7.267915 -0.02866,-8.992188 -1.133625,-0.995336 -2.09728,-0.675373 -2.818679,0.935888 -0.384415,0.8586 -0.430815,1.226595 -0.430815,3.41678 0,2.189495 0.04647,2.558342 0.430378,3.415766 0.7378,1.647821 1.916984,2.154545 2.847775,1.223754 l 0,0 z"
       id="path3006"
       inkscape:connector-curvature="0" />
    <path
       style="fill:#ffffff"
       d="m 21.954545,29.2218 c -0.231552,-0.134867 -0.318245,-0.418001 -0.318413,-1.039925 -3.19e-4,-1.172646 0.387614,-3.854602 0.55755,-3.854602 0.140146,0 2.210038,2.438747 2.773491,3.267728 0.447013,0.657668 0.385359,0.85915 -0.418105,1.366354 -0.767881,0.484742 -1.997506,0.608175 -2.594523,0.260445 z"
       id="path3008"
       inkscape:connector-curvature="0" />
    <path
       style="fill:#ffffff"
       d="m 41.493894,29.052825 c -0.328358,-0.200198 -0.641096,-0.478872 -0.694973,-0.619273 -0.148085,-0.385904 0.311499,-1.133108 1.716165,-2.790187 1.445786,-1.705589 1.304527,-1.771425 1.662444,0.774817 0.251128,1.786539 0.229147,2.385531 -0.09961,2.714285 -0.414079,0.41408 -1.846663,0.369926 -2.584028,-0.07964 z"
       id="path3010"
       inkscape:connector-curvature="0" />
  </g>
</svg>
