<?xml version="1.0" encoding="UTF-8" standalone="no"?>
<!-- Created with Inkscape (http://www.inkscape.org/) -->

<svg
   xmlns:dc="http://purl.org/dc/elements/1.1/"
   xmlns:cc="http://creativecommons.org/ns#"
   xmlns:rdf="http://www.w3.org/1999/02/22-rdf-syntax-ns#"
   xmlns:svg="http://www.w3.org/2000/svg"
   xmlns="http://www.w3.org/2000/svg"
   xmlns:xlink="http://www.w3.org/1999/xlink"
   xmlns:sodipodi="http://sodipodi.sourceforge.net/DTD/sodipodi-0.dtd"
   xmlns:inkscape="http://www.inkscape.org/namespaces/inkscape"
   width="148"
   height="148"
   id="svg4313"
   version="1.1"
   inkscape:version="0.47 r22583"
   sodipodi:docname="bq.svg">
  <defs
     id="defs4315">
    <inkscape:perspective
       sodipodi:type="inkscape:persp3d"
       inkscape:vp_x="0 : 526.18109 : 1"
       inkscape:vp_y="0 : 1000 : 0"
       inkscape:vp_z="744.09448 : 526.18109 : 1"
       inkscape:persp3d-origin="372.04724 : 350.78739 : 1"
       id="perspective4321" />
    <inkscape:perspective
       id="perspective4242"
       inkscape:persp3d-origin="0.5 : 0.33333333 : 1"
       inkscape:vp_z="1 : 0.5 : 1"
       inkscape:vp_y="0 : 1000 : 0"
       inkscape:vp_x="0 : 0.5 : 1"
       sodipodi:type="inkscape:persp3d" />
    <linearGradient
       inkscape:collect="always"
       xlink:href="#linearGradient3673"
       id="linearGradient3746"
       x1="632"
       y1="355"
       x2="788"
       y2="355"
       gradientUnits="userSpaceOnUse" />
    <linearGradient
       id="linearGradient3673">
      <stop
         id="stop3681"
         offset="0"
         style="stop-color:#000000;stop-opacity:1;" />
      <stop
         style="stop-color:#6e14a0;stop-opacity:1;"
         offset="1"
         id="stop3677" />
    </linearGradient>
    <linearGradient
       gradientTransform="matrix(0.17172897,0,0,0.17172897,-1.5607513,903.66007)"
       inkscape:collect="always"
       xlink:href="#linearGradient3673"
       id="linearGradient3754"
       x1="532"
       y1="355"
       x2="868"
       y2="355"
       gradientUnits="userSpaceOnUse" />
    <linearGradient
       id="linearGradient4251">
      <stop
         id="stop4253"
         offset="0"
         style="stop-color:#000000;stop-opacity:1;" />
      <stop
         style="stop-color:#6e14a0;stop-opacity:1;"
         offset="1"
         id="stop4255" />
    </linearGradient>
    <linearGradient
       gradientTransform="matrix(0.17172897,0,0,0.17172897,-1.5607513,903.66007)"
       inkscape:collect="always"
       xlink:href="#linearGradient3673"
       id="linearGradient3730"
       x1="92"
       y1="355"
       x2="248"
       y2="355"
       gradientUnits="userSpaceOnUse" />
    <linearGradient
       id="linearGradient4258">
      <stop
         id="stop4260"
         offset="0"
         style="stop-color:#000000;stop-opacity:1;" />
      <stop
         style="stop-color:#6e14a0;stop-opacity:1;"
         offset="1"
         id="stop4262" />
    </linearGradient>
    <linearGradient
       gradientTransform="matrix(0.17172897,0,0,0.17172897,-1.5607513,903.66007)"
       inkscape:collect="always"
       xlink:href="#linearGradient3673"
       id="linearGradient3738"
       x1="12"
       y1="355"
       x2="348"
       y2="355"
       gradientUnits="userSpaceOnUse" />
    <linearGradient
       id="linearGradient4265">
      <stop
         id="stop4267"
         offset="0"
         style="stop-color:#000000;stop-opacity:1;" />
      <stop
         style="stop-color:#6e14a0;stop-opacity:1;"
         offset="1"
         id="stop4269" />
    </linearGradient>
    <linearGradient
       gradientTransform="matrix(0.17172897,0,0,0.17172897,-1.5607513,903.66007)"
       inkscape:collect="always"
       xlink:href="#linearGradient3673"
       id="linearGradient3768"
       x1="110.80314"
       y1="733.52069"
       x2="430.77362"
       y2="733.52069"
       gradientUnits="userSpaceOnUse" />
    <linearGradient
       id="linearGradient4272">
      <stop
         id="stop4274"
         offset="0"
         style="stop-color:#000000;stop-opacity:1;" />
      <stop
         style="stop-color:#6e14a0;stop-opacity:1;"
         offset="1"
         id="stop4276" />
    </linearGradient>
    <linearGradient
       gradientTransform="matrix(0.17172897,0,0,0.17172897,-1.5607513,903.66007)"
       inkscape:collect="always"
       xlink:href="#linearGradient3673"
       id="linearGradient3778"
       x1="448.73547"
       y1="710.88916"
       x2="772.97772"
       y2="710.88916"
       gradientUnits="userSpaceOnUse" />
    <linearGradient
       id="linearGradient4279">
      <stop
         id="stop4281"
         offset="0"
         style="stop-color:#000000;stop-opacity:1;" />
      <stop
         style="stop-color:#6e14a0;stop-opacity:1;"
         offset="1"
         id="stop4283" />
    </linearGradient>
    <linearGradient
       inkscape:collect="always"
       xlink:href="#linearGradient3673"
       id="linearGradient3788"
       x1="305.8031"
       y1="803.10114"
       x2="573.8031"
       y2="803.10114"
       gradientUnits="userSpaceOnUse"
       gradientTransform="matrix(0.17172897,0,0,0.17172897,-1.5607513,903.66008)" />
    <linearGradient
       id="linearGradient4286">
      <stop
         id="stop4288"
         offset="0"
         style="stop-color:#000000;stop-opacity:1;" />
      <stop
         style="stop-color:#6e14a0;stop-opacity:1;"
         offset="1"
         id="stop4290" />
    </linearGradient>
    <linearGradient
       gradientTransform="matrix(0.17172897,0,0,0.17172897,-1.5607513,903.66007)"
       inkscape:collect="always"
       xlink:href="#linearGradient3673"
       id="linearGradient3798"
       x1="232.83846"
       y1="364.74335"
       x2="646.85376"
       y2="364.74335"
       gradientUnits="userSpaceOnUse" />
    <linearGradient
       id="linearGradient4293">
      <stop
         id="stop4295"
         offset="0"
         style="stop-color:#000000;stop-opacity:1;" />
      <stop
         style="stop-color:#6e14a0;stop-opacity:1;"
         offset="1"
         id="stop4297" />
    </linearGradient>
    <linearGradient
       gradientTransform="matrix(0.17172897,0,0,0.17172897,-1.5607513,903.66007)"
       y2="355"
       x2="788"
       y1="355"
       x1="632"
       gradientUnits="userSpaceOnUse"
       id="linearGradient4311"
       xlink:href="#linearGradient3673"
       inkscape:collect="always" />
  </defs>
  <sodipodi:namedview
     id="base"
     pagecolor="#ffffff"
     bordercolor="#666666"
     borderopacity="1.0"
     inkscape:pageopacity="0.0"
     inkscape:pageshadow="2"
     inkscape:zoom="2.7401642"
     inkscape:cx="50.002635"
     inkscape:cy="77.850826"
     inkscape:document-units="px"
     inkscape:current-layer="layer1"
     showgrid="false"
     inkscape:window-width="1018"
     inkscape:window-height="730"
     inkscape:window-x="0"
     inkscape:window-y="6"
     inkscape:window-maximized="1" />
  <metadata
     id="metadata4318">
    <rdf:RDF>
      <cc:Work
         rdf:about="">
        <dc:format>image/svg+xml</dc:format>
        <dc:type
           rdf:resource="http://purl.org/dc/dcmitype/StillImage" />
        <dc:title></dc:title>
      </cc:Work>
    </rdf:RDF>
  </metadata>
  <g
     inkscape:label="Camada 1"
     inkscape:groupmode="layer"
     id="layer1"
     transform="translate(0,-904.36218)">
    <path
       style="fill:url(#linearGradient4311);fill-opacity:1;stroke:#999999;stroke-width:2.7476635;stroke-linecap:round;stroke-linejoin:round;stroke-miterlimit:4;stroke-opacity:1;stroke-dasharray:none"
       d="m 108.34579,998.96967 c 0,0 20.60748,-17.17291 20.60748,-75.56076 -3.43458,78.99529 3.43458,82.42989 3.43458,82.42989"
       id="path3680" />
    <path
       style="fill:url(#linearGradient3754);fill-opacity:1;stroke:#999999;stroke-width:2.7476635;stroke-linecap:round;stroke-linejoin:round;stroke-miterlimit:4;stroke-opacity:1;stroke-dasharray:none"
       d="m 91.172899,1023.0117 c 0,0 41.214951,-17.1729 54.953271,-116.77569 C 132.38785,1012.708 132.38785,1012.708 132.38785,1012.708"
       id="path2892" />
    <path
       style="fill:url(#linearGradient3730);fill-opacity:1;stroke:#999999;stroke-width:2.7476635;stroke-linecap:round;stroke-linejoin:round;stroke-miterlimit:4;stroke-opacity:1;stroke-dasharray:none"
       d="m 39.654209,998.96967 c 0,0 -20.60748,-17.17291 -20.60748,-75.56076 0,82.42989 -3.43458,82.42989 -3.43458,82.42989"
       id="path3674" />
    <path
       style="fill:url(#linearGradient3738);fill-opacity:1;stroke:#999999;stroke-width:2.7476635;stroke-linecap:round;stroke-linejoin:round;stroke-miterlimit:4;stroke-opacity:1;stroke-dasharray:none"
       d="m 56.827099,1023.0117 c 0,0 -41.21495,-17.1729 -54.9532703,-116.77569 L 15.612149,1016.1425"
       id="path2884" />
    <path
       style="fill:none;stroke:#999999;stroke-width:2.7476635;stroke-linecap:round;stroke-linejoin:round;stroke-miterlimit:4;stroke-opacity:1;stroke-dasharray:none"
       d="m 43.088789,1043.6192 c 0,0 30.91121,6.8691 30.91121,-18.2033 0,25.0724 30.911211,18.2033 30.911211,18.2033"
       id="path5419" />
    <path
       style="fill:none;stroke:#999999;stroke-width:2.7476635;stroke-linecap:round;stroke-linejoin:round;stroke-miterlimit:4;stroke-opacity:1;stroke-dasharray:none"
       d="m 15.612149,1005.8388 c 58.38785,44.6495 116.775701,0 116.775701,0"
       id="path5391" />
    <path
       style="fill:none;stroke:#999999;stroke-width:2.7476635;stroke-linecap:round;stroke-linejoin:round;stroke-miterlimit:4;stroke-opacity:1;stroke-dasharray:none"
       d="m 56.827099,1023.0117 c 0,0 -54.9532703,-41.21494 17.1729,-116.77569 72.126171,75.56075 17.1729,116.77569 17.1729,116.77569"
       id="path3666" />
    <path
       sodipodi:type="arc"
       style="fill:none;stroke:#999999;stroke-width:17.78216743;stroke-linecap:round;stroke-linejoin:round;stroke-miterlimit:4;stroke-opacity:1;stroke-dasharray:none;stroke-dashoffset:0"
       id="path2899"
       sodipodi:cx="440"
       sodipodi:cy="645"
       sodipodi:rx="420"
       sodipodi:ry="210"
       d="M 860,645 A 420,210 0 0 1 20.079156,649.07691"
       transform="matrix(0.13903179,0,0,0.17172897,12.820509,903.66008)"
       sodipodi:start="0"
       sodipodi:end="3.1221776"
       sodipodi:open="true" />
    <path
       style="fill:url(#linearGradient3768);fill-opacity:1;stroke:#000000;stroke-width:0;stroke-linecap:round;stroke-linejoin:round;stroke-miterlimit:4;stroke-opacity:0;stroke-dasharray:none;stroke-dashoffset:0"
       d="m 38.426559,1041.2289 c -8.86343,-4.3139 -15.62287,-10.407 -18.78574,-16.9338 -1.28278,-2.6472 -2.16251,-5.4614 -2.16939,-6.9398 l -0.004,-0.8762 8.84404,1.4469 c 7.24949,1.1861 9.40137,1.6711 11.93517,2.6899 9.58437,3.8538 19.00343,5.8821 30.48189,6.564 2.43862,0.1449 3.69045,0.3538 3.6871,0.6156 -0.0147,1.1446 -1.13221,4.9233 -1.91002,6.4582 -2.00002,3.9469 -6.52371,6.9838 -11.94905,8.0218 -3.12679,0.5983 -9.87641,0.6728 -13.26829,0.1465 -1.63913,-0.2543 -2.56767,-0.2573 -3.0302,-0.01 -0.53411,0.2859 -1.29695,0.05 -3.83143,-1.1833 l 0,0 z"
       id="path3760" />
    <path
       style="fill:url(#linearGradient3778);fill-opacity:1;stroke:#000000;stroke-width:0;stroke-linecap:round;stroke-linejoin:round;stroke-miterlimit:4;stroke-opacity:0;stroke-dasharray:none;stroke-dashoffset:0"
       d="m 89.078339,1042.2292 c -3.51473,-0.736 -6.9446,-2.468 -9.04332,-4.5668 -2.47351,-2.4735 -3.65923,-5.0234 -4.33972,-9.3328 l -0.19516,-1.2359 3.46475,-0.2271 c 11.05943,-0.7248 24.731441,-4.2905 36.044521,-9.4006 1.22786,-0.5546 4.89816,-1.6911 8.15621,-2.5257 l 5.92374,-1.5173 0.001,-1.729 c 6.9e-4,-1.5621 0.1019,-1.7888 1.04622,-2.3466 l 1.04531,-0.6175 -0.20164,3.8921 c -0.26904,5.1932 -0.90475,8.0362 -2.56294,11.462 -3.26851,6.7527 -9.68301,12.5888 -18.85186,17.152 -2.61024,1.2991 -3.27606,1.5053 -3.85641,1.1948 -0.50392,-0.2697 -1.36697,-0.2722 -3.06477,-0.01 -3.306641,0.513 -10.697031,0.408 -13.565961,-0.1928 z"
       id="path3770" />
    <path
       style="fill:url(#linearGradient3788);fill-opacity:1;stroke:#000000;stroke-width:0;stroke-linecap:round;stroke-linejoin:round;stroke-miterlimit:4;stroke-opacity:0;stroke-dasharray:none;stroke-dashoffset:0"
       d="m 66.066649,1048.589 c -3.95161,-0.3696 -9.24624,-1.2041 -12.53621,-1.976 l -2.57594,-0.6043 3.77804,-0.2148 c 4.39427,-0.2498 8.77787,-1.3986 11.76048,-3.0818 2.52402,-1.4245 5.57334,-4.5284 6.6251,-6.7437 l 0.8253,-1.7383 1.02113,1.903 c 3.03455,5.6553 9.63368,9.1501 18.23528,9.6573 l 3.77804,0.2228 -1.88902,0.4459 c -9.27122,2.1888 -19.98567,2.9751 -29.0222,2.1299 l 0,0 z"
       id="path3780" />
    <path
       style="fill:url(#linearGradient3798);fill-opacity:1;stroke:#000000;stroke-width:0;stroke-linecap:round;stroke-linejoin:round;stroke-miterlimit:4;stroke-opacity:0;stroke-dasharray:none;stroke-dashoffset:0"
       d="m 66.753569,1024.0285 c -3.894,-0.2824 -8.41472,-0.9123 -8.41472,-1.1725 0,-0.1532 -1.51252,-1.7994 -3.36115,-3.6584 -10.83028,-10.8911 -16.53264,-24.4784 -16.55325,-39.4424 -0.007,-4.94061 0.3709,-8.63036 1.38784,-13.55759 3.53761,-17.14034 14.74536,-36.5295 31.90776,-55.19974 l 2.27874,-2.47896 2.74043,2.99414 c 16.50962,18.03811 27.245531,36.44263 31.197931,53.48245 1.63264,7.03876 2.0497,16.30507 1.03993,23.10552 -1.74038,11.72085 -8.00008,23.64678 -16.737731,31.88858 l -2.59211,2.445 -3.71903,0.5405 c -2.04547,0.2973 -4.41454,0.6204 -5.26459,0.7181 -2.18545,0.2511 -11.85699,0.4842 -13.91005,0.3353 l 0,0 z"
       id="path3790" />
  </g>
</svg>
