<?xml version="1.0" encoding="UTF-8" standalone="no"?>
<!-- Created with Inkscape (http://www.inkscape.org/) -->

<svg
   xmlns:dc="http://purl.org/dc/elements/1.1/"
   xmlns:cc="http://creativecommons.org/ns#"
   xmlns:rdf="http://www.w3.org/1999/02/22-rdf-syntax-ns#"
   xmlns:svg="http://www.w3.org/2000/svg"
   xmlns="http://www.w3.org/2000/svg"
   xmlns:xlink="http://www.w3.org/1999/xlink"
   xmlns:sodipodi="http://sodipodi.sourceforge.net/DTD/sodipodi-0.dtd"
   xmlns:inkscape="http://www.inkscape.org/namespaces/inkscape"
   width="148"
   height="148"
   id="svg6661"
   version="1.1"
   inkscape:version="0.47 r22583"
   sodipodi:docname="wb.svg">
  <defs
     id="defs6663">
    <inkscape:perspective
       sodipodi:type="inkscape:persp3d"
       inkscape:vp_x="0 : 526.18109 : 1"
       inkscape:vp_y="0 : 1000 : 0"
       inkscape:vp_z="744.09448 : 526.18109 : 1"
       inkscape:persp3d-origin="372.04724 : 350.78739 : 1"
       id="perspective6669" />
    <inkscape:perspective
       id="perspective6620"
       inkscape:persp3d-origin="0.5 : 0.33333333 : 1"
       inkscape:vp_z="1 : 0.5 : 1"
       inkscape:vp_y="0 : 1000 : 0"
       inkscape:vp_x="0 : 0.5 : 1"
       sodipodi:type="inkscape:persp3d" />
    <linearGradient
       gradientTransform="matrix(0.13008372,0,0,0.15610046,19.364846,908.89745)"
       inkscape:collect="always"
       xlink:href="#linearGradient6437"
       id="linearGradient6443"
       x1="292.9035"
       y1="83.118973"
       x2="555.31616"
       y2="83.118973"
       gradientUnits="userSpaceOnUse" />
    <linearGradient
       id="linearGradient6437">
      <stop
         style="stop-color:#f4d7d7;stop-opacity:1;"
         offset="0"
         id="stop6439" />
      <stop
         style="stop-color:#ffffff;stop-opacity:1;"
         offset="1"
         id="stop6441" />
    </linearGradient>
    <linearGradient
       gradientTransform="matrix(0.13008372,0,0,0.15610046,19.364846,908.89745)"
       inkscape:collect="always"
       xlink:href="#linearGradient6437"
       id="linearGradient6453"
       x1="107.07918"
       y1="428.36047"
       x2="733.44598"
       y2="428.36047"
       gradientUnits="userSpaceOnUse" />
    <linearGradient
       id="linearGradient6629">
      <stop
         style="stop-color:#f4d7d7;stop-opacity:1;"
         offset="0"
         id="stop6631" />
      <stop
         style="stop-color:#ffffff;stop-opacity:1;"
         offset="1"
         id="stop6633" />
    </linearGradient>
    <linearGradient
       gradientTransform="matrix(0.13008372,0,0,0.15610046,19.364846,908.89745)"
       inkscape:collect="always"
       xlink:href="#linearGradient6437"
       id="linearGradient6483"
       x1="64.415253"
       y1="808.65967"
       x2="776.71869"
       y2="808.65967"
       gradientUnits="userSpaceOnUse" />
    <linearGradient
       id="linearGradient6636">
      <stop
         style="stop-color:#f4d7d7;stop-opacity:1;"
         offset="0"
         id="stop6638" />
      <stop
         style="stop-color:#ffffff;stop-opacity:1;"
         offset="1"
         id="stop6640" />
    </linearGradient>
    <linearGradient
       gradientTransform="matrix(0.13008372,0,0,0.15610046,19.364846,908.89745)"
       inkscape:collect="always"
       xlink:href="#linearGradient6437"
       id="linearGradient6519"
       x1="83.67379"
       y1="628.08112"
       x2="754.914"
       y2="628.08112"
       gradientUnits="userSpaceOnUse" />
    <linearGradient
       id="linearGradient6643">
      <stop
         style="stop-color:#f4d7d7;stop-opacity:1;"
         offset="0"
         id="stop6645" />
      <stop
         style="stop-color:#ffffff;stop-opacity:1;"
         offset="1"
         id="stop6647" />
    </linearGradient>
  </defs>
  <sodipodi:namedview
     id="base"
     pagecolor="#ffffff"
     bordercolor="#666666"
     borderopacity="1.0"
     inkscape:pageopacity="0.0"
     inkscape:pageshadow="2"
     inkscape:zoom="2.8008057"
     inkscape:cx="103.7339"
     inkscape:cy="73.7063"
     inkscape:document-units="px"
     inkscape:current-layer="layer1"
     showgrid="true"
     inkscape:window-width="1018"
     inkscape:window-height="730"
     inkscape:window-x="0"
     inkscape:window-y="6"
     inkscape:window-maximized="1">
    <inkscape:grid
       type="xygrid"
       id="grid3490" />
  </sodipodi:namedview>
  <metadata
     id="metadata6666">
    <rdf:RDF>
      <cc:Work
         rdf:about="">
        <dc:format>image/svg+xml</dc:format>
        <dc:type
           rdf:resource="http://purl.org/dc/dcmitype/StillImage" />
        <dc:title></dc:title>
      </cc:Work>
    </rdf:RDF>
  </metadata>
  <g
     inkscape:label="Camada 1"
     inkscape:groupmode="layer"
     id="layer1"
     transform="translate(0,-904.36218)">
    <path
       style="fill:none;stroke:#000000;stroke-width:2.27999306;stroke-linecap:round;stroke-linejoin:round;stroke-miterlimit:4;stroke-opacity:1;stroke-dasharray:none"
       d="m 34.97489,983.04518 c 0,59.31822 -13.008373,59.31822 -13.008373,59.31822"
       id="path6279" />
    <path
       style="fill:none;stroke:#000000;stroke-width:2.27999306;stroke-linecap:round;stroke-linejoin:round;stroke-miterlimit:4;stroke-opacity:1;stroke-dasharray:none"
       d="m 113.02512,983.04518 c 0,59.31822 13.00836,59.31822 13.00836,59.31822"
       id="path6281" />
    <path
       style="fill:none;stroke:#000000;stroke-width:2.27999306;stroke-linecap:round;stroke-linejoin:round;stroke-miterlimit:4;stroke-opacity:1;stroke-dasharray:none"
       d="m 21.966517,1042.3634 c 52.033489,-15.6101 104.066963,0 104.066963,0"
       id="path6285" />
    <path
       style="fill:none;stroke:#000000;stroke-width:2.27999306;stroke-linecap:round;stroke-linejoin:round;stroke-miterlimit:4;stroke-opacity:1;stroke-dasharray:none"
       d="m 34.97489,983.04518 c 0,-56.19618 39.025116,-68.68422 39.025116,-68.68422"
       id="path6293" />
    <path
       style="fill:none;stroke:#000000;stroke-width:2.27999306;stroke-linecap:round;stroke-linejoin:round;stroke-miterlimit:4;stroke-opacity:1;stroke-dasharray:none"
       d="m 113.02512,983.04518 c 0,-56.19618 -39.025114,-68.68422 -39.025114,-68.68422"
       id="path6295" />
    <path
       style="fill:none;stroke:#000000;stroke-width:2.27999306;stroke-linecap:round;stroke-linejoin:round;stroke-miterlimit:4;stroke-opacity:1;stroke-dasharray:none"
       d="m 118.22847,1036.1193 c 0,0 -41.626789,-15.61 -88.456929,0 44.228465,-37.4641 88.193279,-0.4705 88.193279,-0.4705"
       id="path6357" />
    <path
       style="fill:none;stroke:#000000;stroke-width:2.27999306;stroke-linecap:round;stroke-linejoin:round;stroke-miterlimit:4;stroke-opacity:1;stroke-dasharray:none"
       d="m 92.211723,929.97101 c 0,0 -18.211717,-15.61005 -36.423435,0 18.211718,-6.24402 35.71146,-0.27622 35.71146,-0.27622"
       id="path6361" />
    <path
       style="fill:none;stroke:#000000;stroke-width:2.27999306;stroke-linecap:round;stroke-linejoin:round;stroke-miterlimit:4;stroke-opacity:1;stroke-dasharray:none"
       d="m 115.62679,1029.8753 c 0,0 -41.626784,-115.51434 -83.253575,0 41.626791,-131.12438 83.483765,0.1526 83.483765,0.1526"
       id="path6433" />
    <path
       style="fill:url(#linearGradient6443);fill-opacity:1;stroke:#999999;stroke-width:0;stroke-linecap:round;stroke-linejoin:round;stroke-miterlimit:4;stroke-opacity:1;stroke-dasharray:none;stroke-dashoffset:0"
       d="m 89.253423,926.42034 c -4.865347,-2.98514 -9.20691,-4.31373 -14.802262,-4.52973 -5.817038,-0.22456 -9.729698,0.74594 -14.559533,3.6114 -1.27839,0.75845 -2.366475,1.32844 -2.417962,1.26665 -0.194025,-0.23283 3.780127,-3.5977 6.602805,-5.59053 2.110275,-1.48987 4.891755,-3.10263 7.362525,-4.26895 2.635515,-1.24409 2.713477,-1.2356 6.561232,0.71443 4.634918,2.34894 9.930083,6.22622 13.466423,9.86047 0.4695,0.4825 -0.280965,0.12181 -2.213228,-1.06374 z"
       id="path6435" />
    <path
       style="fill:url(#linearGradient6453);fill-opacity:1;stroke:#999999;stroke-width:0;stroke-linecap:round;stroke-linejoin:round;stroke-miterlimit:4;stroke-opacity:1;stroke-dasharray:none;stroke-dashoffset:0"
       d="m 33.294462,1022.6541 c -0.0087,-0.2604 0.141566,-1.3714 0.333965,-2.469 1.436659,-8.1956 2.140021,-17.8047 2.458955,-33.5934 0.118654,-5.87385 0.327079,-11.81796 0.463169,-13.20914 1.649347,-16.86039 6.512115,-29.77557 15.403227,-40.90989 l 2.49066,-3.11905 0.372143,0.93609 c 0.453952,1.14188 0.600675,1.14706 4.224495,0.1491 9.306397,-2.56292 20.754705,-2.4829 30.734265,0.21477 2.847787,0.76981 3.371722,0.67699 3.511722,-0.6221 0.07937,-0.7365 0.195967,-0.63644 2.46963,2.11943 8.413477,10.1979 13.605017,23.1577 15.391077,38.4212 0.44363,3.79127 0.81772,11.96103 0.8236,17.9869 0.01,10.15339 1.03719,23.80379 2.35262,31.26129 0.25173,1.4272 0.4543,2.7551 0.45016,2.951 -0.005,0.196 -1.10109,-2.2996 -2.43768,-5.5457 -8.33458,-20.2416 -17.093497,-34.09014 -26.201697,-41.427 -7.101112,-5.72008 -14.549902,-6.97244 -21.472792,-3.61021 -10.384163,5.04328 -20.257367,20.29052 -29.254418,45.17771 -2.289345,6.3327 -2.094453,5.845 -2.113101,5.288 z"
       id="path6445" />
    <path
       style="fill:url(#linearGradient6483);fill-opacity:1;stroke:#999999;stroke-width:0;stroke-linecap:round;stroke-linejoin:round;stroke-miterlimit:4;stroke-opacity:1;stroke-dasharray:none;stroke-dashoffset:0"
       d="m 117.24082,1038.8457 c -3.27689,-0.7585 -11.27359,-2.1604 -15.80878,-2.7714 -9.971952,-1.3433 -18.240829,-1.8741 -29.509729,-1.8943 -14.540265,-0.026 -26.948683,1.2708 -39.787331,4.1583 -2.367965,0.5325 -4.341271,0.9252 -4.385127,0.8725 -0.04385,-0.052 0.173129,-0.5422 0.482184,-1.088 0.47778,-0.8437 0.668007,-0.9736 1.27037,-0.8675 0.389646,0.068 2.426263,-0.3879 4.525816,-1.0145 7.923984,-2.3646 16.303045,-3.9937 25.728698,-5.0023 6.356985,-0.6802 21.697972,-0.6838 27.974175,-0.01 10.389517,1.1211 18.168904,2.6044 26.230864,5.0013 2.061,0.6129 4.08441,1.0802 4.49647,1.0387 0.64295,-0.065 0.85077,0.093 1.46525,1.1107 0.39382,0.6523 0.58364,1.1698 0.42181,1.15 -0.16182,-0.02 -1.55892,-0.3291 -3.10467,-0.6868 z"
       id="path6475" />
    <path
       style="fill:url(#linearGradient6519);fill-opacity:1;stroke:#999999;stroke-width:0;stroke-linecap:round;stroke-linejoin:round;stroke-miterlimit:4;stroke-opacity:1;stroke-dasharray:none;stroke-dashoffset:0"
       d="m 30.256049,1033.7901 c 0.05225,-0.1538 0.300265,-0.94 0.551132,-1.7472 0.410701,-1.3215 0.832001,-1.9223 0.832001,-1.1866 0,0.4049 1.305466,0.3467 1.574754,-0.07 0.124786,-0.1932 1.254255,-3.0279 2.509932,-6.2992 5.533962,-14.4172 11.177889,-25.0476 17.340278,-32.6606 4.631527,-5.72184 9.338565,-9.43887 13.939875,-11.00802 2.514772,-0.8576 6.788355,-1.05222 9.383557,-0.42733 12.300105,2.96174 25.487952,19.49965 36.385512,45.62835 2.12325,5.0908 2.60748,5.7863 3.58936,5.1558 0.41954,-0.2695 0.51172,-0.167 0.87414,0.9718 0.22283,0.7002 0.36764,1.3155 0.32179,1.3673 -0.0458,0.052 -0.8738,-0.4703 -1.83989,-1.1603 -9.87279,-7.0509 -23.064259,-12.2556 -35.247724,-13.9068 -3.31032,-0.4486 -12.661905,-0.4463 -15.691688,0 -12.43392,1.8476 -23.294658,6.674 -33.937518,15.0812 -0.374286,0.2957 -0.637767,0.4118 -0.585511,0.258 l 0,0 z"
       id="path6511" />
  </g>
</svg>
