<?xml version="1.0" encoding="UTF-8" standalone="no"?>
<!-- Created with Inkscape (http://www.inkscape.org/) -->
<svg
   xmlns:dc="http://purl.org/dc/elements/1.1/"
   xmlns:cc="http://creativecommons.org/ns#"
   xmlns:rdf="http://www.w3.org/1999/02/22-rdf-syntax-ns#"
   xmlns:svg="http://www.w3.org/2000/svg"
   xmlns="http://www.w3.org/2000/svg"
   xmlns:xlink="http://www.w3.org/1999/xlink"
   xmlns:sodipodi="http://sodipodi.sourceforge.net/DTD/sodipodi-0.dtd"
   xmlns:inkscape="http://www.inkscape.org/namespaces/inkscape"
   width="100"
   height="100"
   id="svg36220"
   sodipodi:version="0.32"
   inkscape:version="0.46"
   version="1.0"
   inkscape:export-filename="/home/maurizio/out/wr.png"
   inkscape:export-xdpi="90"
   inkscape:export-ydpi="90"
   sodipodi:docbase="/home/monge/chess_pieces/chess_set"
   sodipodi:docname="br.svg"
   inkscape:output_extension="org.inkscape.output.svg.inkscape">
  <defs
     id="defs36222">
    <inkscape:perspective
       sodipodi:type="inkscape:persp3d"
       inkscape:vp_x="0 : 437.5 : 1"
       inkscape:vp_y="0 : 1000 : 0"
       inkscape:vp_z="875 : 437.5 : 1"
       inkscape:persp3d-origin="437.5 : 291.66667 : 1"
       id="perspective3263" />
    <linearGradient
       id="linearGradient2392">
      <stop
         style="stop-color:#000000;stop-opacity:1"
         offset="0"
         id="stop2394" />
      <stop
         style="stop-color:#505070;stop-opacity:1"
         offset="1"
         id="stop2396" />
    </linearGradient>
    <linearGradient
       inkscape:collect="always"
       xlink:href="#linearGradient2392"
       id="linearGradient4315"
       x1="13.155726"
       y1="426.90005"
       x2="759.8902"
       y2="674.65308"
       gradientUnits="userSpaceOnUse"
       gradientTransform="matrix(0.1070582,0,0,0.1189636,3.2002098,-0.1336406)" />
    <linearGradient
       inkscape:collect="always"
       xlink:href="#linearGradient2392"
       id="linearGradient2440"
       x1="458.29816"
       y1="411.12521"
       x2="667.42706"
       y2="514.29163"
       gradientUnits="userSpaceOnUse"
       gradientTransform="matrix(0.112016,0,0,0.1041612,1.4907146,1.4969068)" />
    <linearGradient
       inkscape:collect="always"
       xlink:href="#linearGradient2392"
       id="linearGradient2446"
       gradientUnits="userSpaceOnUse"
       x1="442.08737"
       y1="413.31122"
       x2="667.427"
       y2="504.29163"
       gradientTransform="matrix(0.112016,0,0,0.1079273,-24.870328,-1.552202)" />
    <linearGradient
       inkscape:collect="always"
       xlink:href="#linearGradient2392"
       id="linearGradient5753"
       gradientUnits="userSpaceOnUse"
       gradientTransform="matrix(0.1189636,0,0,0.1048495,-1.3937392,9.4312492)"
       x1="102"
       y1="801.66663"
       x2="769.66669"
       y2="801.66663" />
    <linearGradient
       inkscape:collect="always"
       xlink:href="#linearGradient2392"
       id="linearGradient13034"
       gradientUnits="userSpaceOnUse"
       gradientTransform="matrix(0.1189636,0,0,9.4331928e-2,-0.3939206,9.4811272)"
       x1="296.44843"
       y1="-160.70204"
       x2="739.72266"
       y2="253.50563" />
  </defs>
  <sodipodi:namedview
     id="base"
     pagecolor="#ffffff"
     bordercolor="#666666"
     borderopacity="1.0"
     inkscape:pageopacity="0.0"
     inkscape:pageshadow="2"
     inkscape:zoom="0.42426406"
     inkscape:cx="-363.89236"
     inkscape:cy="425.79927"
     inkscape:current-layer="layer1"
     inkscape:document-units="px"
     inkscape:window-width="970"
     inkscape:window-height="746"
     inkscape:window-x="66"
     inkscape:window-y="135"
     showgrid="false" />
  <metadata
     id="metadata36225">
    <rdf:RDF>
      <cc:Work
         rdf:about="">
        <dc:format>image/svg+xml</dc:format>
        <dc:type
           rdf:resource="http://purl.org/dc/dcmitype/StillImage" />
        <dc:creator>
          <cc:Agent>
            <dc:title>Maurizio Monge</dc:title>
          </cc:Agent>
        </dc:creator>
        <dc:rights>
          <cc:Agent>
            <dc:title>Maurizio Monge</dc:title>
          </cc:Agent>
        </dc:rights>
        <cc:license
           rdf:resource="http://creativecommons.org/licenses/GPL/2.0/" />
      </cc:Work>
      <cc:License
         rdf:about="http://creativecommons.org/licenses/GPL/2.0/">
        <cc:permits
           rdf:resource="http://web.resource.org/cc/Reproduction" />
        <cc:permits
           rdf:resource="http://web.resource.org/cc/Distribution" />
        <cc:requires
           rdf:resource="http://web.resource.org/cc/Notice" />
        <cc:permits
           rdf:resource="http://web.resource.org/cc/DerivativeWorks" />
        <cc:requires
           rdf:resource="http://web.resource.org/cc/ShareAlike" />
        <cc:requires
           rdf:resource="http://web.resource.org/cc/SourceCode" />
      </cc:License>
    </rdf:RDF>
  </metadata>
  <g
     id="layer1"
     inkscape:label="Layer 1"
     inkscape:groupmode="layer">
    <path
       style="fill:url(#linearGradient4315);fill-opacity:1;stroke:#808080;stroke-width:1.90341675;stroke-linecap:round;stroke-linejoin:round;stroke-miterlimit:4;stroke-dasharray:none;stroke-opacity:1"
       d="M 22.448646,24.324515 C 22.354218,47.324644 24.022178,71.243898 22.448646,93.866145 L 79.037328,93.866145 C 76.573156,71.463372 78.633741,46.704095 79.037328,24.324515 L 22.448646,24.324515 z"
       id="rect2553"
       sodipodi:nodetypes="ccccc" />
    <path
       style="fill:url(#linearGradient2440);fill-opacity:1;stroke:#808080;stroke-width:1.90341675;stroke-linecap:round;stroke-linejoin:round;stroke-miterlimit:4;stroke-dasharray:none;stroke-opacity:1"
       d="M 57.959805,38.779193 C 54.855526,41.311791 52.212219,44.473526 52.212219,49.32465 C 52.212219,53.637988 53.575132,54.652549 56.114869,57.236204 L 71.20203,57.5931 C 73.741757,55.009443 74.643341,52.019843 74.643341,47.706505 C 74.643341,42.855381 73.315661,38.576306 70.211383,36.043706 L 57.959805,38.779193 z"
       id="path1327"
       sodipodi:nodetypes="csccscc" />
    <path
       id="path2442"
       d="M 30.747965,34.243689 C 27.643687,36.867854 26.197045,41.301649 26.197045,46.328173 C 26.197045,50.797473 27.214081,53.926663 29.753826,56.603739 L 44.840978,56.490285 C 47.380715,53.813209 48.996079,50.797473 48.996079,46.328173 C 48.996079,41.301649 46.914631,40.370347 43.810343,37.746182 L 30.747965,34.243689 z"
       style="fill:url(#linearGradient2446);fill-opacity:1;stroke:#808080;stroke-width:1.90341675;stroke-linecap:round;stroke-linejoin:round;stroke-miterlimit:4;stroke-dasharray:none;stroke-opacity:1"
       sodipodi:nodetypes="csccscc" />
    <path
       style="opacity:0.98999999;fill:url(#linearGradient5753);fill-opacity:1;fill-rule:evenodd;stroke:#808080;stroke-width:1.90341675;stroke-linecap:round;stroke-linejoin:round;stroke-miterlimit:4;stroke-dasharray:none;stroke-dashoffset:0;stroke-opacity:1"
       d="M 15.70727,88.943191 C 13.468423,89.003555 11.692255,90.310912 11.692255,91.924845 L 11.692255,95.571644 C 11.692255,97.224313 13.556343,98.553297 15.870846,98.553297 C 37.362206,99.045597 59.152494,99.362253 82.858475,98.553297 C 85.172985,98.553297 87.037073,97.224313 87.037073,95.571644 L 87.037073,91.924845 C 87.037073,90.272176 85.172985,88.943191 82.858475,88.943191 C 60.876361,89.86093 38.599922,90.000457 15.870846,88.943191 C 15.816602,88.943191 15.76101,88.941743 15.70727,88.943191 z"
       id="rect4830"
       sodipodi:nodetypes="cccccccccc" />
    <path
       style="opacity:0.98999999;fill:url(#linearGradient13034);fill-opacity:1;fill-rule:evenodd;stroke:#808080;stroke-width:1.90341675;stroke-linecap:round;stroke-linejoin:round;stroke-miterlimit:4;stroke-dasharray:none;stroke-dashoffset:0;stroke-opacity:1"
       d="M 31.479854,12.643222 L 31.479854,19.011493 C 31.479854,21.106314 29.706684,22.792302 27.502009,22.792302 L 25.546553,22.792302 C 23.341886,22.792302 21.56499,21.106314 21.56499,19.011493 L 21.56499,10.951709 C 18.276365,11.067125 16.092372,11.220062 15.561048,11.408981 C 12.54478,12.48142 9.6398331,12.020278 8.8581924,15.423995 C 7.9532158,19.364779 7.7692199,24.516485 8.8581924,28.417047 C 9.4449292,30.518663 11.853535,32.611756 15.561048,32.432062 C 37.357752,31.375652 58.691252,31.712764 84.314538,32.432062 C 88.025381,32.537389 90.430657,30.518663 91.017393,28.417047 C 92.106366,24.516485 92.106366,19.324558 91.017393,15.423995 C 90.430657,13.32238 87.98768,11.891776 84.314538,11.408981 C 83.148805,11.255756 80.498172,11.121125 76.883035,11.01119 L 76.883035,19.606312 C 76.883035,21.701133 75.109864,23.38712 72.905189,23.38712 L 70.949734,23.38712 C 68.745067,23.38712 66.971888,21.701133 66.971888,19.606312 L 66.971888,12.702703 C 62.9064,12.641458 58.438902,12.123391 53.885894,12.10045 L 53.885894,18.814456 C 53.885894,20.909286 52.109007,22.595264 49.904332,22.595264 L 47.948875,22.595264 C 45.744209,22.595264 43.971029,20.909277 43.971029,18.814456 L 43.971029,12.081865 C 43.951229,12.081892 35.054509,12.59779 31.479854,12.643222 z"
       id="rect5730"
       sodipodi:nodetypes="ccccccssssssssccccccccccccc" />
    <path
       transform="matrix(0.1208095,0,0,0.1084626,-9.7177002,13.240354)"
       d="M 422.05436,340.25049 A 23.201941,22.097088 0 1 1 375.65048,340.25049 A 23.201941,22.097088 0 1 1 422.05436,340.25049 z"
       sodipodi:ry="22.097088"
       sodipodi:rx="23.201941"
       sodipodi:cy="340.25049"
       sodipodi:cx="398.85242"
       id="path5797"
       style="opacity:0.98999999;fill:#808080;fill-opacity:1;fill-rule:evenodd;stroke:#808080;stroke-width:16.62813377;stroke-linecap:round;stroke-linejoin:round;stroke-miterlimit:4;stroke-dasharray:none;stroke-dashoffset:0;stroke-opacity:1"
       sodipodi:type="arc" />
    <path
       sodipodi:type="arc"
       style="opacity:0.98999999;fill:#808080;fill-opacity:1;fill-rule:evenodd;stroke:#808080;stroke-width:16.62813377;stroke-linecap:round;stroke-linejoin:round;stroke-miterlimit:4;stroke-dasharray:none;stroke-dashoffset:0;stroke-opacity:1"
       id="path5758"
       sodipodi:cx="398.85242"
       sodipodi:cy="340.25049"
       sodipodi:rx="23.201941"
       sodipodi:ry="22.097088"
       d="M 422.05436,340.25049 A 23.201941,22.097088 0 1 1 375.65048,340.25049 A 23.201941,22.097088 0 1 1 422.05436,340.25049 z"
       transform="matrix(0.1208095,0,0,0.1084626,13.432215,14.319624)" />
    <path
       style="fill:none;fill-opacity:0.75;fill-rule:evenodd;stroke:#808080;stroke-width:1.90341675;stroke-linecap:round;stroke-linejoin:round;stroke-miterlimit:4;stroke-dasharray:none;stroke-opacity:1"
       d="M 40.824847,89.659069 C 40.824847,87.415874 40.367386,80.922961 41.385646,73.395887 C 42.584913,64.530837 58.818926,65.965328 59.331233,73.395887 C 59.65355,78.070773 59.331233,89.098271 59.331233,89.098271"
       id="path5000"
       sodipodi:nodetypes="cssc" />
    <path
       style="fill:none;fill-opacity:0.75;fill-rule:evenodd;stroke:#808080;stroke-width:1.90341675;stroke-linecap:round;stroke-linejoin:round;stroke-miterlimit:4;stroke-dasharray:none;stroke-opacity:1"
       d="M 42.372072,70.756143 C 46.858463,65.895884 55.2361,66.943133 55.831261,74.681734 C 56.262459,80.28857 55.797241,89.262521 55.797241,89.262521"
       id="path5903"
       sodipodi:nodetypes="csc" />
  </g>
</svg>
