<?xml version="1.0" encoding="UTF-8" standalone="no"?>
<!-- Created with Inkscape (http://www.inkscape.org/) -->

<svg
   xmlns:dc="http://purl.org/dc/elements/1.1/"
   xmlns:cc="http://creativecommons.org/ns#"
   xmlns:rdf="http://www.w3.org/1999/02/22-rdf-syntax-ns#"
   xmlns:svg="http://www.w3.org/2000/svg"
   xmlns="http://www.w3.org/2000/svg"
   xmlns:sodipodi="http://sodipodi.sourceforge.net/DTD/sodipodi-0.dtd"
   xmlns:inkscape="http://www.inkscape.org/namespaces/inkscape"
   width="64px"
   height="64px"
   id="svg2985"
   version="1.1"
   inkscape:version="0.48.1 "
   sodipodi:docname="wq.svg">
  <defs
     id="defs2987" />
  <sodipodi:namedview
     id="base"
     pagecolor="#ffffff"
     bordercolor="#666666"
     borderopacity="1.0"
     inkscape:pageopacity="0.0"
     inkscape:pageshadow="2"
     inkscape:zoom="5.5"
     inkscape:cx="10.272727"
     inkscape:cy="32"
     inkscape:current-layer="layer1"
     showgrid="true"
     inkscape:document-units="px"
     inkscape:grid-bbox="true"
     inkscape:window-width="1365"
     inkscape:window-height="878"
     inkscape:window-x="-8"
     inkscape:window-y="-8"
     inkscape:window-maximized="1" />
  <metadata
     id="metadata2990">
    <rdf:RDF>
      <cc:Work
         rdf:about="">
        <dc:format>image/svg+xml</dc:format>
        <dc:type
           rdf:resource="http://purl.org/dc/dcmitype/StillImage" />
        <dc:title></dc:title>
      </cc:Work>
    </rdf:RDF>
  </metadata>
  <g
     id="layer1"
     inkscape:label="Layer 1"
     inkscape:groupmode="layer">
    <text
       xml:space="preserve"
       style="font-size:64px;font-style:normal;font-variant:normal;font-weight:normal;font-stretch:normal;line-height:125%;letter-spacing:0px;word-spacing:0px;fill:#000000;fill-opacity:1;stroke:none;font-family:WeirdChessFont;-inkscape-font-specification:WeirdChessFont"
       x="-0.032226563"
       y="60.09668"
       id="text3023"
       sodipodi:linespacing="125%"><tspan
         sodipodi:role="line"
         id="tspan3025"
         x="-0.032226563"
         y="60.09668">5</tspan></text>
    <path
       style="fill:#ffffff;fill-opacity:1;fill-rule:evenodd"
       d="m 16.490909,53.6 0,-1.272727 6.341534,0 6.341535,0 0.195122,-1.318182 c 0.107316,-0.725 0.249793,-1.855844 0.316611,-2.512987 L 29.8072,47.301296 27.869672,46.618055 c -4.8605,-1.713988 -11.250338,-5.011629 -15.094275,-7.789791 -1.191462,-0.861116 -1.193579,-0.864231 -1.193579,-1.756733 0,-1.890043 0.820495,-4.939575 1.761756,-6.547912 0.644775,-1.101731 2.076533,-2.600124 3.131134,-3.276859 1.124081,-0.721321 2.188714,-1.083629 3.781417,-1.286864 1.64313,-0.20967 2.00476,-0.09055 5.507511,1.814163 5.402508,2.937756 6.721373,2.974627 11.397757,0.318642 2.63454,-1.496305 3.767536,-1.830488 5.784062,-1.706035 3.658454,0.225786 6.460812,1.994077 8.012285,5.05576 0.609471,1.202732 1.30012,3.679293 1.449867,5.199003 l 0.125808,1.27674 -2.066708,1.373963 c -4.017049,2.670566 -9.984102,5.613495 -14.63004,7.215483 -1.179343,0.406654 -2.170994,0.766105 -2.203667,0.79878 -0.05282,0.05281 0.322324,2.864138 0.591127,4.429969 l 0.101442,0.590909 6.355396,0 6.355399,0 0,1.272727 0,1.272727 -15.272728,0 -15.272727,0 0,-1.272727 0,0 z M 25.025246,42.240174 C 26.908997,41.98343 28.992179,40.330419 29.916289,38.359117 30.338987,37.457423 30.4,37.097938 30.4,35.509091 c 0,-1.593489 -0.0604,-1.947061 -0.488758,-2.861053 -0.624464,-1.332427 -2.045035,-2.752998 -3.377462,-3.377461 -0.924367,-0.43322 -1.259806,-0.488759 -2.951962,-0.488759 -1.720929,0 -2.010834,0.04996 -2.941377,0.50693 -1.373922,0.674699 -2.900956,2.329097 -3.428126,3.714056 -0.551809,1.449685 -0.551809,3.562889 0,5.012574 0.518608,1.362463 2.05642,3.041063 3.378652,3.687971 0.956234,0.467842 2.52832,0.804565 3.263578,0.699022 0.2,-0.02871 0.726816,-0.101698 1.170701,-0.162197 z m 17.520352,-0.219677 c 0.891029,-0.279738 2.183595,-1.159266 2.979337,-2.027293 0.244089,-0.266262 0.704061,-1.015931 1.022163,-1.665931 0.520313,-1.063198 0.578167,-1.346062 0.576409,-2.818182 -0.0016,-1.390895 -0.07505,-1.793263 -0.489254,-2.682299 -0.637482,-1.368276 -2.057335,-2.84981 -3.367273,-3.513551 -0.961167,-0.48702 -1.208311,-0.531423 -2.957889,-0.531423 -1.692156,0 -2.027595,0.05554 -2.951962,0.488759 -1.333222,0.624836 -2.656071,1.949355 -3.329182,3.333388 -0.474542,0.975738 -0.529056,1.272964 -0.532832,2.905126 -0.0037,1.621911 0.04997,1.928509 0.497705,2.840208 1.631111,3.321388 5.025753,4.778506 8.552778,3.671198 l 0,0 z"
       id="path3027"
       inkscape:connector-curvature="0" />
    <path
       style="fill:#ffffff;fill-opacity:1;fill-rule:evenodd"
       d="m 22.68899,39.756716 c -1.566489,-0.288561 -2.912384,-1.658043 -3.29134,-3.349021 -0.338625,-1.511014 0.170802,-2.987793 1.419964,-4.116336 0.928139,-0.838518 1.796137,-1.11269 3.232994,-1.021198 1.427368,0.09089 2.436722,0.726267 3.254181,2.048477 0.478506,0.773965 0.549057,1.056007 0.544357,2.176195 -0.004,0.963226 -0.104949,1.475622 -0.401119,2.036841 -0.906038,1.716874 -2.774738,2.590567 -4.759037,2.225042 z"
       id="path3029"
       inkscape:connector-curvature="0" />
    <path
       style="fill:#ffffff;fill-opacity:1;fill-rule:evenodd"
       d="m 39.41556,39.756596 c -2.395737,-0.441287 -3.935402,-3.028757 -3.230699,-5.429323 0.577502,-1.96726 2.054418,-3.094284 4.045271,-3.086916 2.519125,0.0093 4.260777,1.791961 4.260777,4.361046 0,2.735588 -2.347666,4.657623 -5.075349,4.155193 z"
       id="path3031"
       inkscape:connector-curvature="0" />
    <path
       style="fill:#ffffff;fill-opacity:1;fill-rule:evenodd"
       d="m 31.303273,23.547468 c -1.877925,-4.101929 -1.827448,-11.493182 0.0942,-13.7927652 l 0.509118,-0.6092483 0.620153,0.6569696 c 0.783392,0.8299009 1.19771,2.1071879 1.459097,4.4982019 0.248717,2.27512 -0.01634,5.69619 -0.580442,7.491733 -0.414357,1.318901 -1.072174,2.559715 -1.417195,2.673197 -0.136701,0.04496 -0.414506,-0.327411 -0.684927,-0.918088 l 0,0 z"
       id="path3033"
       inkscape:connector-curvature="0" />
  </g>
</svg>
