<?xml version="1.0" encoding="UTF-8" standalone="no"?>
<!-- Created with Inkscape (http://www.inkscape.org/) -->
<svg
   xmlns:dc="http://purl.org/dc/elements/1.1/"
   xmlns:cc="http://creativecommons.org/ns#"
   xmlns:rdf="http://www.w3.org/1999/02/22-rdf-syntax-ns#"
   xmlns:svg="http://www.w3.org/2000/svg"
   xmlns="http://www.w3.org/2000/svg"
   xmlns:sodipodi="http://sodipodi.sourceforge.net/DTD/sodipodi-0.dtd"
   xmlns:inkscape="http://www.inkscape.org/namespaces/inkscape"
   height="76.039841"
   id="svg1"
   inkscape:version="0.46"
   sodipodi:docbase="/home/vector"
   sodipodi:docname="chess_set_symbols_11_black_knight.svg"
   sodipodi:version="0.32"
   width="77.589058"
   inkscape:output_extension="org.inkscape.output.svg.inkscape"
   version="1.0"
   inkscape:export-filename="C:\joanna\Gfx\drawings_vector\admin\thumbs\Igor Krizanovskij\chess_set_symbols_igor_k_01_ok.png"
   inkscape:export-xdpi="51.457458"
   inkscape:export-ydpi="51.457458">
  <metadata
     id="metadata3">
    <rdf:RDF>
      <cc:Work
         rdf:about="">
        <dc:title>Chess Set Symbols</dc:title>
        <dc:description />
        <dc:subject>
          <rdf:Bag>
            <rdf:li />
            <rdf:li>game</rdf:li>
            <rdf:li>chess</rdf:li>
            <rdf:li>symbols</rdf:li>
            <rdf:li>board</rdf:li>
            <rdf:li>recreation</rdf:li>
            <rdf:li>fonts</rdf:li>
          </rdf:Bag>
        </dc:subject>
        <dc:publisher>
          <cc:Agent
             rdf:about="http://www.openclipart.org">
            <dc:title>Igor Krizanovskij</dc:title>
          </cc:Agent>
        </dc:publisher>
        <dc:creator>
          <cc:Agent>
            <dc:title>Igor Krizanovskij</dc:title>
          </cc:Agent>
        </dc:creator>
        <dc:rights>
          <cc:Agent>
            <dc:title>Igor Krizanovskij</dc:title>
          </cc:Agent>
        </dc:rights>
        <dc:date />
        <dc:format>image/svg+xml</dc:format>
        <dc:type
           rdf:resource="http://purl.org/dc/dcmitype/StillImage" />
        <cc:license
           rdf:resource="http://web.resource.org/cc/PublicDomain" />
        <dc:language>en</dc:language>
      </cc:Work>
      <cc:License
         rdf:about="http://web.resource.org/cc/PublicDomain">
        <cc:permits
           rdf:resource="http://web.resource.org/cc/Reproduction" />
        <cc:permits
           rdf:resource="http://web.resource.org/cc/Distribution" />
        <cc:permits
           rdf:resource="http://web.resource.org/cc/DerivativeWorks" />
      </cc:License>
    </rdf:RDF>
  </metadata>
  <defs
     id="defs3">
    <inkscape:perspective
       sodipodi:type="inkscape:persp3d"
       inkscape:vp_x="0 : 187.5 : 1"
       inkscape:vp_y="0 : 1000 : 0"
       inkscape:vp_z="1052.3622 : 187.5 : 1"
       inkscape:persp3d-origin="526.18109 : 125 : 1"
       id="perspective20" />
  </defs>
  <sodipodi:namedview
     bordercolor="#666666"
     borderopacity="1.0"
     id="base"
     inkscape:current-layer="layer1"
     inkscape:cx="702.38575"
     inkscape:cy="44.73312"
     inkscape:pageopacity="0.0"
     inkscape:pageshadow="2"
     inkscape:window-height="778"
     inkscape:window-width="1270"
     inkscape:window-x="2"
     inkscape:window-y="0"
     inkscape:zoom="0.80058132"
     pagecolor="#ffffff"
     showgrid="false" />
  <g
     id="layer1"
     inkscape:groupmode="layer"
     inkscape:label="Layer 1"
     transform="translate(-740.92061,-80.280773)">
    <path
       d="M 758.73642,110.36105 C 760.88807,110.36105 763.16884,109.11307 765.5787,106.61715 C 766.8697,105.32616 767.5152,104.20728 767.5152,103.26055 C 767.5152,102.14167 766.4824,101.58224 764.4168,101.58224 C 762.00695,101.58224 759.98438,102.65808 758.34912,104.80974 C 757.48843,105.84255 757.05812,106.91838 757.05812,108.03726 C 757.05812,109.58645 757.61754,110.36105 758.73642,110.36105 M 756.54171,82.088173 C 756.71385,82.088173 757.14417,82.045133 757.83271,81.959063 C 761.70572,81.959063 765.8369,83.250083 770.2263,85.832073 C 770.74269,86.176343 771.00091,86.348463 771.00091,86.348463 C 773.49683,82.303333 775.39029,80.280773 776.68129,80.280773 C 779.43542,81.829973 781.24284,83.508273 782.10349,85.315663 C 782.53383,86.176343 783.17933,87.983723 784.03999,90.737863 C 784.72852,90.565713 785.41705,90.479673 786.10559,90.479673 C 793.33518,90.479673 800.2205,94.912093 806.76158,103.77696 C 814.59364,114.01889 818.50967,127.96165 818.50967,145.60531 C 818.50967,149.56438 818.33754,153.13613 817.99328,156.32061 L 763.5131,156.32061 C 763.68525,150.55414 765.79386,145.08892 769.839,139.92491 C 770.26934,139.23638 770.8718,138.46179 771.6464,137.60112 C 774.83087,133.556 776.76736,130.4576 777.4559,128.30592 C 777.80016,127.18707 778.05836,126.02516 778.2305,124.82023 C 772.5501,127.05796 768.2898,130.37153 765.4496,134.76093 C 764.1586,136.91258 762.73852,139.15033 761.1893,141.47412 C 760.75896,142.16266 760.11346,142.50693 759.25281,142.50693 C 757.10115,142.50693 756.02532,141.1729 756.02532,138.50483 C 755.16463,139.62369 754.17487,140.18313 753.05602,140.18313 C 753.05602,140.18313 752.19534,139.96795 750.47402,139.53763 C 746.77316,138.59088 744.14813,136.95562 742.59891,134.63182 C 742.08252,133.85723 741.52309,132.82443 740.92061,131.53344 C 741.52309,127.83256 744.49239,120.47387 749.82852,109.45734 C 753.70152,101.53921 756.11139,95.858813 757.05812,92.416163 C 757.14417,91.641563 757.18721,90.522713 757.18721,89.059563 C 757.18721,87.854633 756.97204,85.530843 756.54171,82.088173 M 748.79572,127.40223 C 746.73012,127.40223 745.35305,128.30592 744.66452,130.11333 C 744.49239,130.54366 744.40632,130.97399 744.40632,131.40433 C 744.40632,131.74859 744.53541,132.17893 744.79362,132.69532 C 747.03135,132.69532 748.40842,131.74859 748.92481,129.85514 C 749.01089,129.59694 749.05392,129.29569 749.05392,128.95144 C 749.05392,128.7793 748.96785,128.26291 748.79572,127.40223 M 812.18376,147.28362 L 812.18376,142.50693 C 812.18376,128.47806 808.61201,116.98818 801.46849,108.03726 C 795.27167,100.29125 789.63431,96.418263 784.5564,96.418263 C 784.5564,96.418263 784.03999,96.332193 783.00719,96.160063 C 782.83506,96.246123 782.70595,96.332193 782.61988,96.418263 C 781.50103,96.418263 780.9416,96.891623 780.9416,97.838343 C 780.9416,98.182623 781.1998,98.612953 781.71619,99.129363 C 786.36378,99.559683 791.44172,102.87324 796.94998,109.07006 C 803.92137,117.1603 807.40708,128.86537 807.40708,144.1852 C 807.40708,144.1852 807.40708,144.44342 807.40708,144.95981 C 807.40708,148.74675 808.2247,150.64022 809.85996,150.64022 C 811.23704,150.64022 812.01165,149.52134 812.18376,147.28362"
       id="path1726"
       style="font-size:12px;font-style:normal;font-weight:normal;fill:#000000;fill-opacity:1;stroke:none;stroke-width:1pt;stroke-linecap:butt;stroke-linejoin:miter;stroke-opacity:1;font-family:Bitstream Vera Sans" />
  </g>
</svg>
