<?xml version="1.0" encoding="UTF-8" standalone="no"?>
<!-- Created with Inkscape (http://www.inkscape.org/) -->

<svg
   xmlns:dc="http://purl.org/dc/elements/1.1/"
   xmlns:cc="http://creativecommons.org/ns#"
   xmlns:rdf="http://www.w3.org/1999/02/22-rdf-syntax-ns#"
   xmlns:svg="http://www.w3.org/2000/svg"
   xmlns="http://www.w3.org/2000/svg"
   xmlns:sodipodi="http://sodipodi.sourceforge.net/DTD/sodipodi-0.dtd"
   xmlns:inkscape="http://www.inkscape.org/namespaces/inkscape"
   width="64px"
   height="64px"
   id="svg2816"
   version="1.1"
   inkscape:version="0.47 r22583"
   sodipodi:docname="bk.svg">
  <defs
     id="defs2818">
    <inkscape:perspective
       sodipodi:type="inkscape:persp3d"
       inkscape:vp_x="0 : 32 : 1"
       inkscape:vp_y="0 : 1000 : 0"
       inkscape:vp_z="64 : 32 : 1"
       inkscape:persp3d-origin="32 : 21.333333 : 1"
       id="perspective2824" />
  </defs>
  <sodipodi:namedview
     id="base"
     pagecolor="#ffffff"
     bordercolor="#666666"
     borderopacity="1.0"
     inkscape:pageopacity="0.0"
     inkscape:pageshadow="2"
     inkscape:zoom="5.5"
     inkscape:cx="32"
     inkscape:cy="32"
     inkscape:current-layer="layer1"
     showgrid="true"
     inkscape:document-units="px"
     inkscape:grid-bbox="true"
     inkscape:window-width="1365"
     inkscape:window-height="878"
     inkscape:window-x="-8"
     inkscape:window-y="-8"
     inkscape:window-maximized="1" />
  <metadata
     id="metadata2821">
    <rdf:RDF>
      <cc:Work
         rdf:about="">
        <dc:format>image/svg+xml</dc:format>
        <dc:type
           rdf:resource="http://purl.org/dc/dcmitype/StillImage" />
        <dc:title />
      </cc:Work>
    </rdf:RDF>
  </metadata>
  <g
     id="layer1"
     inkscape:label="Layer 1"
     inkscape:groupmode="layer">
    <text
       xml:space="preserve"
       style="font-size:64px;font-style:normal;font-weight:normal;fill:#000000;fill-opacity:1;stroke:none;font-family:Chess Alpha;-inkscape-font-specification:Chess Alpha"
       x="0.54545456"
       y="63.272728"
       id="text2826"><tspan
         sodipodi:role="line"
         id="tspan2828"
         x="0.54545456"
         y="63.272728">l</tspan></text>
    <path
       style="fill:#ffffff"
       d="m 17.472532,53.718182 c 0.07818,-0.475 0.147032,-0.965909 0.152993,-1.090909 C 17.634104,52.44739 20.745174,52.4 32.545455,52.4 c 11.80028,0 14.91135,0.04739 14.919929,0.227273 0.006,0.125 0.07481,0.615909 0.152994,1.090909 l 0.142155,0.863636 -15.215078,0 -15.215079,0 0.142156,-0.863636 z"
       id="path3104" />
    <path
       style="fill:#ffffff"
       d="m 17.874736,51.200083 c 0.05413,-0.190046 0.236615,-1.204628 0.405517,-2.254628 0.168902,-1.05 0.332391,-1.936996 0.363311,-1.971103 0.03092,-0.03411 0.841958,0.406883 1.802309,0.979975 l 1.746093,1.041986 -0.959619,0.577329 c -2.618215,1.575176 -3.459022,1.982466 -3.357611,1.626441 z"
       id="path3106" />
    <path
       style="fill:#ffffff"
       d="m 30.397884,48.923351 c -1.828819,-1.148511 -2.020171,-1.316347 -1.727273,-1.515005 0.181164,-0.122874 1.127921,-0.696943 2.103904,-1.275709 l 1.774516,-1.052301 1.589121,0.964033 c 0.874016,0.530219 1.819459,1.122879 2.100983,1.317023 l 0.511862,0.35299 -1.966408,1.182762 c -1.081524,0.65052 -2.048225,1.213147 -2.148225,1.250284 -0.1,0.03714 -1.107316,-0.513698 -2.23848,-1.224077 z"
       id="path3108" />
    <path
       style="fill:#ffffff"
       d="m 45.079579,50.283211 c -1.143768,-0.66003 -2.10226,-1.219628 -2.129982,-1.243551 -0.02772,-0.02392 0.735282,-0.512357 1.695564,-1.085408 0.960282,-0.573051 1.771167,-1.014006 1.801966,-0.9799 0.07236,0.08013 0.799321,4.412271 0.749635,4.467281 -0.02068,0.0229 -0.973414,-0.498392 -2.117183,-1.158422 z"
       id="path3110" />
    <path
       style="fill:#ffffff"
       d="m 16.817559,42.548124 c -4.43971,-4.287482 -7.0007555,-7.896111 -7.8014181,-10.99255 -0.3514,-1.358986 -0.3715764,-3.830278 -0.041349,-5.064665 0.7798767,-2.915176 3.6326726,-5.887893 6.7524816,-7.036329 1.403449,-0.516626 3.589471,-0.554905 4.943065,-0.08656 1.997131,0.691013 4.624758,2.802 6.150338,4.941069 2.442411,3.424588 5.143293,11.195665 5.479875,15.766887 0.06419,0.871787 0.174111,1.549593 0.244269,1.506233 0.07016,-0.04336 0.179342,-0.756642 0.242629,-1.585069 0.337253,-4.414666 2.750233,-11.586435 5.072695,-15.07688 2.548123,-3.829593 6.385727,-6.228956 9.450421,-5.908632 3.823382,0.399622 7.819651,3.793981 8.805553,7.479279 0.330227,1.234387 0.310051,3.705679 -0.04135,5.064665 -0.290689,1.124201 -1.118331,2.927887 -1.942742,4.233839 -1.2844,2.03462 -4.927734,6.084818 -7.447656,8.279362 l -1.042905,0.908241 -1.41164,-0.462325 c -4.032466,-1.320666 -7.220875,-1.818151 -11.684369,-1.823109 -4.39435,-0.0049 -8.142856,0.588693 -11.8921,1.883105 -0.590656,0.203922 -1.13679,0.370768 -1.213633,0.370768 -0.07684,0 -1.256816,-1.078799 -2.622163,-2.397331 z m 5.93862,-1.419628 c 1.165898,-0.285243 3.16996,-0.653998 4.453468,-0.819454 1.283511,-0.165457 2.354073,-0.321247 2.379029,-0.346204 0.113749,-0.113747 -0.358003,-3.109454 -0.688167,-4.369983 -0.4655,-1.777227 -1.948167,-5.586419 -2.890282,-7.425555 -1.984258,-3.873547 -5.11487,-6.494088 -7.758526,-6.494429 -1.47511,-1.91e-4 -3.234743,0.861176 -4.621797,2.262439 -1.97495,1.995181 -2.627811,3.979783 -2.111089,6.417397 0.592366,2.794458 2.240434,5.284135 6.036287,9.1188 1.907329,1.926831 2.480505,2.408057 2.745879,2.30538 0.184461,-0.07137 1.2893,-0.363147 2.455198,-0.648391 l 0,0 z M 47.56168,39.445455 c 3.772984,-3.811697 5.425067,-6.31252 6.006815,-9.092748 0.497027,-2.37534 -0.07147,-4.231744 -1.884466,-6.153612 -0.866802,-0.918856 -1.543118,-1.433713 -2.512967,-1.913038 -1.211493,-0.598753 -1.434913,-0.649579 -2.567202,-0.584021 -1.761476,0.101988 -2.754987,0.640069 -4.62024,2.502298 -1.663613,1.660916 -2.628498,3.131132 -3.733269,5.688462 -1.558747,3.608191 -2.448246,6.575581 -2.695776,8.993191 l -0.114915,1.122351 1.052896,0.119502 c 2.254528,0.255887 4.408749,0.647582 6.325626,1.150165 1.1,0.28841 2.080747,0.536117 2.179436,0.55046 0.09869,0.01435 1.252518,-1.05801 2.564062,-2.38301 l 0,0 z"
       id="path3112" />
    <path
       style="fill:#ffffff"
       d="M 16.303282,42.009149 C 13.089115,38.815758 11.060242,36.265588 9.9602672,34.036364 8.947389,31.983651 8.6694156,30.670563 8.7636367,28.383736 8.83613,26.624261 8.9018103,26.330318 9.5074028,25.055112 10.624108,22.703648 13.396675,20.225094 15.86556,19.371197 c 1.271732,-0.439846 3.542602,-0.439846 4.814335,0 1.93423,0.668979 4.784924,2.955444 6.19179,4.966267 2.41087,3.445835 5.038615,10.981662 5.424864,15.557376 0.06518,0.772162 0.17652,1.368078 0.247424,1.324258 0.0709,-0.04382 0.180547,-0.690487 0.243652,-1.437036 0.251866,-2.979561 1.809286,-8.42821 3.382286,-11.832963 2.571816,-5.566686 7.130056,-9.278461 10.998776,-8.956305 3.275024,0.272717 6.918584,2.91167 8.438242,6.11164 0.579366,1.219978 0.648455,1.534503 0.720344,3.279302 0.131212,3.184637 -0.674908,5.400581 -3.213806,8.834446 -1.702882,2.303151 -7.160956,7.807643 -7.614818,7.679578 C 45.324393,44.848591 44.2,44.520691 43,44.169093 38.956175,42.984256 34.749231,42.524465 30.272727,42.778084 c -3.664089,0.207589 -5.26158,0.524031 -10.670477,2.113672 -0.214612,0.06307 -1.206207,-0.803374 -3.298968,-2.882607 l 0,0 z m 6.5149,-0.888276 c 1.2,-0.28906 3.122727,-0.655891 4.272727,-0.81518 1.15,-0.159288 2.178476,-0.317748 2.285506,-0.352135 C 29.871667,39.794438 29.0743,35.820647 27.913889,32.664859 25.76346,26.816681 23.058232,23.17661 20,22.016178 c -1.896176,-0.719496 -4.061508,-0.142702 -5.996982,1.597456 -1.79893,1.617393 -2.570467,3.169788 -2.576759,5.184651 -0.01,3.191227 1.730617,6.185196 6.25328,10.756239 1.775712,1.794709 2.39065,2.311663 2.636363,2.216296 0.176254,-0.06841 1.30228,-0.360885 2.50228,-0.649947 z m 24.622049,-1.584509 c 4.527644,-4.587616 6.227713,-7.538052 6.217434,-10.79023 -0.0056,-1.786909 -0.703323,-3.260989 -2.270854,-4.797961 -1.625447,-1.593761 -2.89994,-2.18801 -4.659538,-2.172574 -1.998728,0.01753 -3.525526,0.927464 -5.563033,3.31541 -2.381511,2.791116 -4.994745,9.145734 -5.509329,13.397073 -0.09665,0.798443 -0.160809,1.459033 -0.142587,1.467973 0.01822,0.0089 1.260403,0.194874 2.760403,0.413189 1.5,0.218312 3.586364,0.631449 4.636364,0.91808 1.05,0.286631 1.98428,0.531514 2.076176,0.544183 0.0919,0.01267 1.196631,-1.020143 2.454964,-2.295143 l 0,0 z"
       id="path3114" />
    <path
       style="fill:#ffffff"
       d="m 31.949258,29.354151 c -0.626403,-1.971756 -1.84815,-4.557477 -2.85154,-6.035033 l -0.760199,-1.119443 1.032541,-1.262072 c 2.709305,-3.311578 3.845002,-3.173847 7.045172,0.854396 0.317131,0.399192 0.309949,0.428253 -0.323917,1.310548 -0.986696,1.373409 -2.19868,3.90645 -2.860219,5.977847 -0.327103,1.024217 -0.635641,1.862676 -0.685641,1.863243 -0.05,5.63e-4 -0.318289,-0.714702 -0.596197,-1.589486 l 0,0 z m 1.275128,-4.817787 c 0.316338,-0.625 0.746334,-1.394865 0.955547,-1.710811 l 0.380385,-0.574448 -1.007432,-1.061916 -1.007431,-1.061916 -1.0032,1.05737 -1.0032,1.057369 0.468481,0.760812 c 0.257665,0.418447 0.68524,1.190358 0.950167,1.715358 0.264927,0.525 0.528899,0.954545 0.586604,0.954545 0.0577,0 0.36374,-0.511363 0.680079,-1.136363 z"
       id="path3116" />
  </g>
</svg>
