<?xml version="1.0" encoding="UTF-8" standalone="no"?>
<!-- Created with Inkscape (http://www.inkscape.org/) -->

<svg
   xmlns:dc="http://purl.org/dc/elements/1.1/"
   xmlns:cc="http://creativecommons.org/ns#"
   xmlns:rdf="http://www.w3.org/1999/02/22-rdf-syntax-ns#"
   xmlns:svg="http://www.w3.org/2000/svg"
   xmlns="http://www.w3.org/2000/svg"
   xmlns:sodipodi="http://sodipodi.sourceforge.net/DTD/sodipodi-0.dtd"
   xmlns:inkscape="http://www.inkscape.org/namespaces/inkscape"
   width="64px"
   height="64px"
   id="svg2816"
   version="1.1"
   inkscape:version="0.47 r22583"
   sodipodi:docname="bq.svg">
  <defs
     id="defs2818">
    <inkscape:perspective
       sodipodi:type="inkscape:persp3d"
       inkscape:vp_x="0 : 32 : 1"
       inkscape:vp_y="0 : 1000 : 0"
       inkscape:vp_z="64 : 32 : 1"
       inkscape:persp3d-origin="32 : 21.333333 : 1"
       id="perspective2824" />
  </defs>
  <sodipodi:namedview
     id="base"
     pagecolor="#ffffff"
     bordercolor="#666666"
     borderopacity="1.0"
     inkscape:pageopacity="0.0"
     inkscape:pageshadow="2"
     inkscape:zoom="5.5"
     inkscape:cx="32"
     inkscape:cy="32"
     inkscape:current-layer="layer1"
     showgrid="true"
     inkscape:document-units="px"
     inkscape:grid-bbox="true"
     inkscape:window-width="1365"
     inkscape:window-height="878"
     inkscape:window-x="-8"
     inkscape:window-y="-8"
     inkscape:window-maximized="1" />
  <metadata
     id="metadata2821">
    <rdf:RDF>
      <cc:Work
         rdf:about="">
        <dc:format>image/svg+xml</dc:format>
        <dc:type
           rdf:resource="http://purl.org/dc/dcmitype/StillImage" />
        <dc:title />
      </cc:Work>
    </rdf:RDF>
  </metadata>
  <g
     id="layer1"
     inkscape:label="Layer 1"
     inkscape:groupmode="layer">
    <text
       xml:space="preserve"
       style="font-size:64px;font-style:normal;font-weight:normal;fill:#000000;fill-opacity:1;stroke:none;font-family:Chess Alpha;-inkscape-font-specification:Chess Alpha"
       x="0.54545456"
       y="63.272728"
       id="text2826"><tspan
         sodipodi:role="line"
         id="tspan2828"
         x="0.54545456"
         y="63.272728">w</tspan></text>
    <path
       style="fill:#ffffff"
       d="M 18.043041,53.490909 18.415532,52.4 l 14.110498,0 14.110497,0 0.382173,1.090909 0.382171,1.090909 -14.86516,0 -14.86516,0 0.37249,-1.090909 z"
       id="path3186" />
    <path
       style="fill:#ffffff"
       d="m 18.749962,50.718182 c 0.08823,-0.425 0.221497,-1.446936 0.29614,-2.270969 l 0.135716,-1.498242 1.603633,0.980663 c 0.881999,0.539364 1.639561,1.01659 1.683472,1.060501 0.07614,0.07614 -3.595987,2.500774 -3.787436,2.500774 -0.05057,0 -0.01976,-0.347727 0.06847,-0.772727 z"
       id="path3188" />
    <path
       style="fill:#ffffff"
       d="m 30.33418,49.532115 c -1.066202,-0.670235 -1.904557,-1.273608 -1.863012,-1.34083 0.128732,-0.208292 3.851161,-2.33674 4.086711,-2.33674 0.17549,0 2.367179,1.293683 3.961064,2.338087 0.177944,0.116599 -0.308271,0.49542 -1.753469,1.36617 -1.099827,0.662659 -2.110625,1.201929 -2.246216,1.198379 -0.135592,-0.0036 -1.118877,-0.55483 -2.185078,-1.225066 l 0,0 z"
       id="path3190" />
    <path
       style="fill:#ffffff"
       d="m 44.529351,50.350095 c -0.958857,-0.622552 -1.777039,-1.192188 -1.818182,-1.265858 -0.04114,-0.07367 0.661558,-0.584241 1.561558,-1.134602 l 1.636364,-1.000657 0.141671,1.680057 c 0.07792,0.92403 0.214506,1.945965 0.303526,2.270965 0.08902,0.325 0.107086,0.588906 0.04015,0.586458 -0.06694,-0.0024 -0.906227,-0.513811 -1.865084,-1.136363 z"
       id="path3192" />
    <path
       style="fill:#ffffff"
       d="m 18.849008,44.46621 c -0.06197,-0.663585 -0.07022,-1.275199 -0.01834,-1.359144 0.165965,-0.268537 5.166246,-1.79443 7.525538,-2.296504 2.06768,-0.440016 2.644423,-0.485233 6.189247,-0.485233 3.557378,0 4.117138,0.04424 6.221429,0.49175 1.271785,0.270462 3.480876,0.880444 4.909091,1.355517 l 2.596752,0.863768 -0.06367,1.272727 c -0.03502,0.7 -0.09073,1.301164 -0.123798,1.33592 -0.03307,0.03476 -1.190785,-0.310162 -2.572695,-0.766484 -8.474748,-2.798459 -13.780988,-2.78397 -22.199353,0.06062 -1.194041,0.40347 -2.211608,0.733581 -2.26126,0.733581 -0.04965,0 -0.140977,-0.542932 -0.202944,-1.206517 z"
       id="path3194" />
    <path
       style="fill:#ffffff"
       d="M 18.028614,53.490909 18.39702,52.4 l 14.139179,0 14.139179,0 0.372489,1.090909 0.372491,1.090909 -14.880075,0 -14.880075,0 0.368406,-1.090909 0,0 z"
       id="path3315" />
    <path
       style="fill:#ffffff"
       d="m 18.662139,51.172727 c 0.04545,-0.175 0.180974,-1.197632 0.30116,-2.272515 l 0.218519,-1.954334 1.545455,0.924904 c 0.85,0.508697 1.612557,0.988886 1.694572,1.067088 0.12645,0.12057 -3.434549,2.553039 -3.737508,2.553039 -0.05766,0 -0.06765,-0.143182 -0.0222,-0.318182 z"
       id="path3317" />
    <path
       style="fill:#ffffff"
       d="m 30.330102,49.541945 c -1.068444,-0.668383 -1.908015,-1.271244 -1.865713,-1.33969 0.136535,-0.220919 3.82531,-2.34771 4.071944,-2.34771 0.392006,0 4.220204,2.407827 4.063101,2.555574 -0.401251,0.377357 -3.801905,2.353083 -4.045363,2.350293 -0.154739,-0.0018 -1.155525,-0.550083 -2.223969,-1.218467 z"
       id="path3319" />
    <path
       style="fill:#ffffff"
       d="m 44.545455,50.380188 c -0.95,-0.608541 -1.796086,-1.171391 -1.880191,-1.250777 -0.08411,-0.07939 0.611115,-0.602373 1.544933,-1.162193 l 1.69785,-1.017856 0.214859,1.938761 c 0.118172,1.066318 0.253929,2.088167 0.301682,2.270774 0.04775,0.182606 0.03312,0.331048 -0.03252,0.32987 -0.06564,-0.0012 -0.896614,-0.500038 -1.846614,-1.108579 z"
       id="path3321" />
    <path
       style="fill:#ffffff"
       d="m 18.835318,44.462518 c -0.0686,-0.669611 -0.05032,-1.283884 0.04094,-1.37514 0.254363,-0.254363 3.139426,-1.189058 5.760105,-1.866142 2.750373,-0.710592 5.075778,-1.003649 7.947379,-1.001562 3.852423,0.0028 6.361152,0.441692 11.10573,1.942905 l 2.689472,0.850965 -0.122234,1.284137 c -0.06723,0.706275 -0.143949,1.309685 -0.170487,1.34091 -0.02654,0.03122 -1.222706,-0.316342 -2.658148,-0.772369 -8.646513,-2.746925 -13.853882,-2.708956 -22.327437,0.162797 -1.044648,0.35404 -1.953804,0.643708 -2.020346,0.643708 -0.06654,0 -0.176781,-0.544594 -0.244975,-1.210209 z"
       id="path3323" />
  </g>
</svg>
