<?xml version="1.0" encoding="UTF-8" standalone="no"?>
<!-- Created with Inkscape (http://www.inkscape.org/) -->

<svg
   xmlns:dc="http://purl.org/dc/elements/1.1/"
   xmlns:cc="http://creativecommons.org/ns#"
   xmlns:rdf="http://www.w3.org/1999/02/22-rdf-syntax-ns#"
   xmlns:svg="http://www.w3.org/2000/svg"
   xmlns="http://www.w3.org/2000/svg"
   xmlns:sodipodi="http://sodipodi.sourceforge.net/DTD/sodipodi-0.dtd"
   xmlns:inkscape="http://www.inkscape.org/namespaces/inkscape"
   width="64px"
   height="64px"
   id="svg2816"
   version="1.1"
   inkscape:version="0.47 r22583"
   sodipodi:docname="wn.svg">
  <defs
     id="defs2818">
    <inkscape:perspective
       sodipodi:type="inkscape:persp3d"
       inkscape:vp_x="0 : 32 : 1"
       inkscape:vp_y="0 : 1000 : 0"
       inkscape:vp_z="64 : 32 : 1"
       inkscape:persp3d-origin="32 : 21.333333 : 1"
       id="perspective2824" />
  </defs>
  <sodipodi:namedview
     id="base"
     pagecolor="#ffffff"
     bordercolor="#666666"
     borderopacity="1.0"
     inkscape:pageopacity="0.0"
     inkscape:pageshadow="2"
     inkscape:zoom="5.5"
     inkscape:cx="32"
     inkscape:cy="32"
     inkscape:current-layer="layer1"
     showgrid="true"
     inkscape:document-units="px"
     inkscape:grid-bbox="true"
     inkscape:window-width="1365"
     inkscape:window-height="878"
     inkscape:window-x="-8"
     inkscape:window-y="-8"
     inkscape:window-maximized="1" />
  <metadata
     id="metadata2821">
    <rdf:RDF>
      <cc:Work
         rdf:about="">
        <dc:format>image/svg+xml</dc:format>
        <dc:type
           rdf:resource="http://purl.org/dc/dcmitype/StillImage" />
        <dc:title />
      </cc:Work>
    </rdf:RDF>
  </metadata>
  <g
     id="layer1"
     inkscape:label="Layer 1"
     inkscape:groupmode="layer">
    <text
       xml:space="preserve"
       style="font-size:64px;font-style:normal;font-weight:normal;fill:#000000;fill-opacity:1;stroke:none;font-family:Chess Alpha;-inkscape-font-specification:Chess Alpha"
       x="0.54545456"
       y="63.272728"
       id="text2826"><tspan
         sodipodi:role="line"
         id="tspan2828"
         x="0.54545456"
         y="63.272728">h</tspan></text>
    <path
       style="fill:#ffffff"
       d="m 20.055702,52.898902 c 0.175947,-2.678538 0.953749,-4.779626 2.641409,-7.135266 0.871485,-1.216421 3.304103,-3.727272 3.611138,-3.727272 0.525231,0 2.586287,-1.078706 3.309567,-1.732146 0.418828,-0.378385 1.052815,-1.186629 1.408859,-1.796096 0.939429,-1.608087 2.172549,-3.296638 2.724592,-3.730877 C 34.06892,34.52738 34.496698,34.4 35.018165,34.4 c 1.032999,0 2.338011,-0.453891 3.310659,-1.151465 1.449956,-1.039897 2.861856,-3.665288 3.077576,-5.72267 0.09432,-0.899501 -0.225751,-2.867124 -0.49328,-3.032466 -0.0636,-0.03931 -0.260707,0.475867 -0.438007,1.144837 -0.459249,1.732801 -1.568309,3.98394 -2.450426,4.973809 -0.924445,1.037366 -1.900842,1.526746 -3.570142,1.789391 -0.7,0.110137 -1.551216,0.364079 -1.891592,0.564315 l -0.618868,0.364065 -0.926587,-0.402989 c -0.57652,-0.250738 -1.442206,-0.434238 -2.291363,-0.485703 -1.593035,-0.09655 -5.102577,0.372507 -6.358924,0.849881 -1.297258,0.49292 -2.726796,1.51993 -3.651603,2.623386 L 17.885762,36.904544 17.20595,36.49426 16.526138,36.083976 17.67216,35.126384 c 0.630312,-0.526677 1.146022,-1.023891 1.146022,-1.104924 0,-0.08103 -0.96854,-1.127947 -2.152311,-2.32648 l -2.152311,-2.179151 -0.984053,0.629491 -0.984052,0.629491 0.01048,-1.960133 0.01048,-1.960133 5.713755,-3.727272 c 3.142565,-2.05 5.760397,-3.866835 5.817404,-4.03741 0.249612,-0.746892 2.808492,-2.735133 6.494972,-5.046574 3.41736,-2.142701 3.987615,-2.567744 4.577509,-3.411877 0.370611,-0.530342 0.738675,-0.9241875 0.817918,-0.8752118 0.07925,0.048976 0.503008,0.9178418 0.941693,1.9308138 L 37.727273,13.52878 39,14.168107 c 3.619725,1.818289 6.122942,3.956544 8.115004,6.931866 3.853832,5.756041 4.84614,10.855016 3.96826,20.390936 -0.395533,4.29646 -0.33178,8.7623 0.156798,10.983509 0.217965,0.990929 0.396302,1.870475 0.396302,1.954546 0,0.08407 -7.130522,0.152854 -15.845604,0.152854 l -15.845605,0 0.110547,-1.682916 z m -3.28531,-24.668666 0.679483,-0.881547 -0.621897,-0.474345 c -0.916957,-0.699397 -1.453372,-0.628505 -2.018532,0.266767 -0.733065,1.161251 -0.729987,1.198789 0.130697,1.594045 0.432921,0.198811 0.868948,0.364886 0.968948,0.369051 0.1,0.0042 0.487586,-0.38912 0.861301,-0.873971 l 0,0 z m 16.617543,-8.10072 c 0.273512,-0.712765 -1.875735,-3.184061 -2.769131,-3.184061 -0.327722,0 -1.043175,0.48409 -2.351255,1.590909 -1.034109,0.875 -1.885534,1.652272 -1.892055,1.727272 -0.0065,0.075 1.545256,0.136364 3.448394,0.136364 2.895297,0 3.477199,-0.04416 3.564047,-0.270484 z"
       id="path3156" />
  </g>
</svg>
