<?xml version="1.0" encoding="UTF-8" standalone="no"?>
<!-- Created with Inkscape (http://www.inkscape.org/) -->
<svg
   xmlns:dc="http://purl.org/dc/elements/1.1/"
   xmlns:cc="http://creativecommons.org/ns#"
   xmlns:rdf="http://www.w3.org/1999/02/22-rdf-syntax-ns#"
   xmlns:svg="http://www.w3.org/2000/svg"
   xmlns="http://www.w3.org/2000/svg"
   xmlns:sodipodi="http://sodipodi.sourceforge.net/DTD/sodipodi-0.dtd"
   xmlns:inkscape="http://www.inkscape.org/namespaces/inkscape"
   height="83.398521"
   id="svg1"
   inkscape:version="0.46"
   sodipodi:docbase="/home/vector"
   sodipodi:docname="chess_set_symbols_02_white_queen.svg"
   sodipodi:version="0.32"
   width="89.466225"
   inkscape:output_extension="org.inkscape.output.svg.inkscape"
   version="1.0"
   inkscape:export-filename="C:\joanna\Gfx\drawings_vector\admin\thumbs\Igor Krizanovskij\chess_set_symbols_igor_k_01_ok.png"
   inkscape:export-xdpi="51.457458"
   inkscape:export-ydpi="51.457458">
  <metadata
     id="metadata3">
    <rdf:RDF>
      <cc:Work
         rdf:about="">
        <dc:title>Chess Set Symbols</dc:title>
        <dc:description />
        <dc:subject>
          <rdf:Bag>
            <rdf:li />
            <rdf:li>game</rdf:li>
            <rdf:li>chess</rdf:li>
            <rdf:li>symbols</rdf:li>
            <rdf:li>board</rdf:li>
            <rdf:li>recreation</rdf:li>
            <rdf:li>fonts</rdf:li>
          </rdf:Bag>
        </dc:subject>
        <dc:publisher>
          <cc:Agent
             rdf:about="http://www.openclipart.org">
            <dc:title>Igor Krizanovskij</dc:title>
          </cc:Agent>
        </dc:publisher>
        <dc:creator>
          <cc:Agent>
            <dc:title>Igor Krizanovskij</dc:title>
          </cc:Agent>
        </dc:creator>
        <dc:rights>
          <cc:Agent>
            <dc:title>Igor Krizanovskij</dc:title>
          </cc:Agent>
        </dc:rights>
        <dc:date />
        <dc:format>image/svg+xml</dc:format>
        <dc:type
           rdf:resource="http://purl.org/dc/dcmitype/StillImage" />
        <cc:license
           rdf:resource="http://web.resource.org/cc/PublicDomain" />
        <dc:language>en</dc:language>
      </cc:Work>
      <cc:License
         rdf:about="http://web.resource.org/cc/PublicDomain">
        <cc:permits
           rdf:resource="http://web.resource.org/cc/Reproduction" />
        <cc:permits
           rdf:resource="http://web.resource.org/cc/Distribution" />
        <cc:permits
           rdf:resource="http://web.resource.org/cc/DerivativeWorks" />
      </cc:License>
    </rdf:RDF>
  </metadata>
  <defs
     id="defs3">
    <inkscape:perspective
       sodipodi:type="inkscape:persp3d"
       inkscape:vp_x="0 : 187.5 : 1"
       inkscape:vp_y="0 : 1000 : 0"
       inkscape:vp_z="1052.3622 : 187.5 : 1"
       inkscape:persp3d-origin="526.18109 : 125 : 1"
       id="perspective20" />
  </defs>
  <sodipodi:namedview
     bordercolor="#666666"
     borderopacity="1.0"
     id="base"
     inkscape:current-layer="layer1"
     inkscape:cx="408.97908"
     inkscape:cy="239.13405"
     inkscape:pageopacity="0.0"
     inkscape:pageshadow="2"
     inkscape:window-height="778"
     inkscape:window-width="1270"
     inkscape:window-x="2"
     inkscape:window-y="0"
     inkscape:zoom="1.3674339"
     pagecolor="#ffffff"
     showgrid="false" />
  <g
     id="layer1"
     inkscape:groupmode="layer"
     inkscape:label="Layer 1"
     transform="translate(-232.78988,-215.75111)">
    <path
       d="M 274.61825,270.10217 L 280.29865,270.10217 C 281.58954,270.10217 283.13873,270.14518 284.94624,270.23125 L 297.72713,271.00586 L 297.85624,271.00586 C 299.40533,271.00586 300.17991,270.79068 300.18003,270.36036 L 300.18003,269.84395 C 300.17991,267.26196 294.4565,265.58366 283.00973,264.80907 C 280.94402,264.63692 279.13664,264.55086 277.58755,264.55086 C 269.15291,264.55086 262.65499,265.41153 258.09346,267.13287 C 256.02786,267.90745 254.99506,268.81115 254.99506,269.84395 L 254.99506,270.36036 C 254.99506,270.79068 255.76967,271.00586 257.31886,271.00586 L 274.61825,270.10217 M 298.50173,275.91165 C 291.70236,275.05099 284.73096,274.62065 277.58755,274.62065 C 270.09964,274.62065 263.12834,275.05099 256.67336,275.91165 C 257.70616,276.77231 258.22255,278.45061 258.22255,280.94656 C 258.22255,282.58182 257.96436,283.57158 257.44797,283.91585 C 262.61195,282.96912 269.32506,282.49575 277.58755,282.49575 C 285.84983,282.49575 292.56302,282.96912 297.72713,283.91585 C 297.21062,283.57158 296.95242,282.58182 296.95252,280.94656 C 296.95242,278.45061 297.46883,276.77231 298.50173,275.91165 M 277.58755,287.01424 C 273.19804,287.01424 268.29224,287.22941 262.87015,287.65975 C 258.65289,288.004 256.54425,288.99379 256.54425,290.62905 C 256.54425,292.7807 263.55868,293.85654 277.58755,293.85654 C 291.61629,293.85654 298.63072,292.7807 298.63082,290.62905 C 298.63072,289.94051 298.07129,289.29501 296.95252,288.69254 C 293.68189,287.57368 287.22689,287.01424 277.58755,287.01424 M 277.58755,219.49499 C 275.43576,219.49499 274.35993,220.52779 274.36006,222.59339 C 274.35993,224.83112 275.43576,225.94999 277.58755,225.94999 C 279.65303,225.94999 280.68583,224.83112 280.68593,222.59339 C 280.68583,220.52779 279.65303,219.49499 277.58755,219.49499 M 277.58755,215.75111 C 280.68583,215.75111 282.8375,217.17119 284.04253,220.0114 L 284.68803,222.59339 L 284.68803,222.9807 C 284.68792,223.49709 284.34366,224.57293 283.65523,226.20819 C 282.4502,229.73693 281.84774,232.79228 281.84784,235.37427 C 281.84774,239.59155 282.79447,245.83138 284.68803,254.09377 C 289.33552,244.28219 291.65933,236.88045 291.65943,231.88858 L 290.88484,226.33729 C 290.88471,223.32496 292.21875,221.17329 294.88694,219.88229 C 295.83354,219.3659 296.86634,219.10771 297.98532,219.10771 C 301.08362,219.10771 303.27831,220.48475 304.56941,223.23889 C 305.08572,224.27169 305.34392,225.30449 305.34402,226.33729 C 305.34392,228.57502 304.56931,230.33939 303.02022,231.63039 C 300.69632,233.95419 299.49137,237.74111 299.40543,242.99117 C 299.40533,245.22892 299.62048,248.84371 300.05093,253.83557 C 305.64515,248.06911 308.4423,243.37847 308.44242,239.76368 L 307.79693,234.72877 C 307.7968,231.88858 309.0878,229.77995 311.66992,228.4029 C 312.70261,227.80042 313.77843,227.49918 314.89742,227.49918 C 317.82357,227.49918 320.01826,228.83322 321.4815,231.50128 L 322.25611,233.95419 L 322.25611,234.72877 C 322.25601,238.25752 320.27647,240.92559 316.31752,242.73297 C 316.14527,246.43384 314.72517,253.70646 312.05723,264.55086 C 311.88498,265.06727 311.75587,265.54062 311.66992,265.97096 C 311.66981,267.17589 310.29275,269.24149 307.53871,272.16775 C 303.83774,275.86862 301.98732,278.75184 301.98742,280.81745 C 301.98732,281.76417 303.02012,284.30316 305.08582,288.43434 C 305.43,289.20895 305.60211,290.37083 305.60221,291.92005 L 305.60221,292.82374 C 305.51604,293.08193 305.473,293.38317 305.47313,293.72743 L 305.47313,293.85654 L 305.60221,293.98563 C 305.60211,297.08403 297.29668,298.80537 280.68593,299.14963 C 279.56698,299.14963 278.49114,299.14963 277.45844,299.14963 L 272.03626,299.02053 L 271.90715,299.02053 C 263.81678,298.76233 257.66312,298.0738 253.44587,296.95492 C 250.7778,296.18034 249.44377,295.19058 249.44377,293.98563 C 249.52984,293.89958 249.52984,293.38317 249.44377,292.43644 C 249.35769,292.26431 249.35769,292.09217 249.44377,291.92005 C 249.44377,289.94051 250.08927,287.65975 251.38027,285.07774 C 252.41307,283.01216 252.92946,281.59206 252.92946,280.81745 C 252.92946,279.44037 252.1979,277.80511 250.73477,275.91165 L 244.40886,268.68206 C 243.72034,267.73533 243.37606,266.83161 243.37606,265.97096 C 240.708,255.0405 239.20185,247.94002 238.85757,244.66947 C 238.77151,243.98093 238.72847,243.33543 238.72847,242.73297 C 234.76941,240.92559 232.78988,238.25752 232.78988,234.72877 C 232.78988,231.88858 234.08087,229.77995 236.66286,228.4029 C 237.78173,227.80042 238.90061,227.49918 240.01946,227.49918 C 243.0318,227.49918 245.18347,228.87625 246.47448,231.63039 C 246.99087,232.57712 247.24906,233.60992 247.24906,234.72877 L 246.60356,239.76368 C 246.60356,243.55061 249.35769,248.24124 254.86595,253.83557 C 255.29629,250.04863 255.51145,246.43384 255.51145,242.99117 C 255.51145,238.25752 254.95202,235.11607 253.83317,233.56688 C 253.40283,232.96442 252.75733,232.27589 251.89666,231.50128 C 250.34746,230.46848 249.57286,228.74716 249.57286,226.33729 C 249.57286,223.32496 250.99296,221.13027 253.83317,219.75321 C 254.7799,219.32286 255.81271,219.10771 256.93155,219.10771 C 259.94389,219.10771 262.09556,220.48475 263.38656,223.23889 C 263.90284,224.18562 264.16104,225.21843 264.16114,226.33729 L 263.38656,231.75948 L 263.38656,231.88858 C 263.38656,236.79437 265.71023,244.19612 270.35796,254.09377 C 272.16524,246.26172 273.06894,240.02187 273.06904,235.37427 C 273.06894,231.93162 272.42344,228.66109 271.13254,225.56269 C 270.61605,224.35776 270.35784,223.49709 270.35796,222.9807 C 270.35784,219.96836 271.7349,217.81671 274.48914,216.52569 C 275.43576,216.0093 276.46856,215.75111 277.58755,215.75111 M 314.89742,231.63039 C 313.52024,231.63039 312.53048,232.31893 311.92812,233.69599 C 311.84194,234.04026 311.7989,234.38451 311.79901,234.72877 C 311.7989,236.45011 312.5735,237.52595 314.12281,237.95629 C 314.3809,238.04234 314.63912,238.08538 314.89742,238.08538 C 317.04896,238.08538 318.1248,236.96652 318.12491,234.72877 C 318.1248,232.66319 317.04896,231.63039 314.89742,231.63039 M 297.98532,223.368 C 296.52208,223.368 295.53232,224.09957 295.01603,225.56269 L 294.88694,226.59549 C 294.88682,228.14468 295.61838,229.17748 297.08163,229.69389 C 297.33972,229.77995 297.64095,229.82298 297.98532,229.82298 C 300.22295,229.82298 301.34182,228.74716 301.34192,226.59549 C 301.34182,224.44384 300.22295,223.368 297.98532,223.368 M 256.93155,223.368 C 254.7799,223.368 253.70406,224.44384 253.70406,226.59549 C 253.70406,228.74716 254.7799,229.82298 256.93155,229.82298 C 258.99716,229.82298 260.02996,228.74716 260.02996,226.59549 C 260.02996,224.44384 258.99716,223.368 256.93155,223.368 M 240.01946,231.63039 C 237.86781,231.63039 236.79197,232.66319 236.79197,234.72877 C 236.79197,236.96652 237.86781,238.08538 240.01946,238.08538 C 242.08507,238.08538 243.11787,236.96652 243.11787,234.72877 C 243.11787,233.26566 242.3863,232.27589 240.92318,231.75948 C 240.66496,231.67343 240.36374,231.63039 240.01946,231.63039 M 277.58755,239.89279 C 276.3825,247.46664 274.8333,252.93186 272.93995,256.28846 L 271.00346,259.38687 L 271.00346,259.51598 C 270.74514,259.25776 269.62628,257.96676 267.64686,255.64296 C 265.15081,252.7167 262.52588,247.16541 259.77176,238.98909 C 259.94389,240.19401 260.02996,241.44198 260.02996,242.73297 C 260.02996,246.77811 259.29839,253.01794 257.83525,261.45247 C 253.18767,258.69833 248.66917,254.30893 244.27976,248.28426 C 245.7429,255.686 246.86178,260.54876 247.63636,262.87256 C 248.15277,264.59389 248.79827,265.58366 249.57286,265.84185 C 256.63032,261.79674 265.96845,259.77417 277.58755,259.77417 C 289.29249,259.77417 298.63072,261.79674 305.60221,265.84185 C 307.1513,265.32546 308.87264,259.47294 310.76622,248.28426 C 306.29065,254.48107 301.81517,258.87048 297.33983,261.45247 C 295.87658,253.96466 295.14503,248.06911 295.14514,243.76578 C 295.14503,242.64692 295.23108,241.05468 295.40333,238.98909 C 293.68189,244.15308 291.70236,248.75763 289.46474,252.80277 C 288.25969,254.61016 286.92565,256.3315 285.46263,257.96676 C 284.774,258.65529 284.34366,259.1717 284.17164,259.51598 L 281.33143,254.48107 C 281.24528,254.13681 281.11617,253.79254 280.94415,253.44827 C 280.25551,251.55481 279.13664,247.03631 277.58755,239.89279"
       id="path1715"
       style="font-size:12px;font-style:normal;font-weight:normal;fill:#000000;fill-opacity:1;stroke:none;stroke-width:1pt;stroke-linecap:butt;stroke-linejoin:miter;stroke-opacity:1;font-family:Bitstream Vera Sans" />
  </g>
</svg>
