<?xml version="1.0" encoding="UTF-8" standalone="no"?>
<!-- Created with Inkscape (http://www.inkscape.org/) -->

<svg
   xmlns:dc="http://purl.org/dc/elements/1.1/"
   xmlns:cc="http://creativecommons.org/ns#"
   xmlns:rdf="http://www.w3.org/1999/02/22-rdf-syntax-ns#"
   xmlns:svg="http://www.w3.org/2000/svg"
   xmlns="http://www.w3.org/2000/svg"
   xmlns:sodipodi="http://sodipodi.sourceforge.net/DTD/sodipodi-0.dtd"
   xmlns:inkscape="http://www.inkscape.org/namespaces/inkscape"
   width="64px"
   height="64px"
   id="svg2816"
   version="1.1"
   inkscape:version="0.47 r22583"
   sodipodi:docname="bk.svg">
  <defs
     id="defs2818">
    <inkscape:perspective
       sodipodi:type="inkscape:persp3d"
       inkscape:vp_x="0 : 32 : 1"
       inkscape:vp_y="0 : 1000 : 0"
       inkscape:vp_z="64 : 32 : 1"
       inkscape:persp3d-origin="32 : 21.333333 : 1"
       id="perspective2824" />
  </defs>
  <sodipodi:namedview
     id="base"
     pagecolor="#ffffff"
     bordercolor="#666666"
     borderopacity="1.0"
     inkscape:pageopacity="0.0"
     inkscape:pageshadow="2"
     inkscape:zoom="5.5"
     inkscape:cx="49.921749"
     inkscape:cy="19.20522"
     inkscape:current-layer="layer1"
     showgrid="true"
     inkscape:document-units="px"
     inkscape:grid-bbox="true"
     inkscape:window-width="1365"
     inkscape:window-height="878"
     inkscape:window-x="-8"
     inkscape:window-y="-8"
     inkscape:window-maximized="1" />
  <metadata
     id="metadata2821">
    <rdf:RDF>
      <cc:Work
         rdf:about="">
        <dc:format>image/svg+xml</dc:format>
        <dc:type
           rdf:resource="http://purl.org/dc/dcmitype/StillImage" />
        <dc:title />
      </cc:Work>
    </rdf:RDF>
  </metadata>
  <g
     id="layer1"
     inkscape:label="Layer 1"
     inkscape:groupmode="layer">
    <text
       xml:space="preserve"
       style="font-size:144px;font-style:normal;font-weight:normal;fill:#000000;fill-opacity:1;stroke:none;font-family:Smart;-inkscape-font-specification:Smart;font-stretch:normal;font-variant:normal"
       x="0.90909094"
       y="47.272728"
       id="text2830"><tspan
         sodipodi:role="line"
         id="tspan2832"
         x="0.90909094"
         y="47.272728" /></text>
    <text
       xml:space="preserve"
       style="font-size:64px;font-style:normal;font-weight:normal;fill:#000000;fill-opacity:1;stroke:none;font-family:Smart;-inkscape-font-specification:Smart"
       x="0.36363634"
       y="50.909084"
       id="text2834"><tspan
         sodipodi:role="line"
         id="tspan2836"
         x="0.36363634"
         y="50.909084">f</tspan></text>
    <path
       style="fill:#ffffff"
       d="m 17.386242,53.176192 c 0.112508,-0.210223 0.166995,-0.525875 0.121081,-0.701448 -0.123074,-0.470636 0.194547,-0.919066 0.842085,-1.188888 0.314788,-0.131168 2.367756,-0.538887 4.562153,-0.906041 l 3.989812,-0.667552 6.373824,0.0749 c 6.236919,0.07329 6.444121,0.0876 9.646552,0.666096 1.8,0.325157 3.63006,0.747393 4.0668,0.938303 0.708595,0.309743 0.783956,0.400024 0.700102,0.838687 -0.05169,0.270369 -0.02241,0.679811 0.06506,0.909873 0.08966,0.235809 0.09014,0.418293 0.0011,0.418293 -0.08686,0 -1.128012,-0.247022 -2.313681,-0.548939 -3.308048,-0.842355 -5.013308,-0.945307 -14.221731,-0.858609 l -8.297644,0.07812 -2.720383,0.664712 c -1.49621,0.365593 -2.787725,0.664713 -2.870033,0.664713 -0.08231,0 -0.0576,-0.172001 0.05491,-0.382224 z"
       id="path2920" />
    <path
       style="fill:#ffffff"
       d="m 18.777565,48.512962 c -0.052,-0.275 -0.152692,-0.68426 -0.223758,-0.909467 -0.108942,-0.345235 -0.03317,-0.44933 0.483002,-0.663581 2.497037,-1.036457 13.990713,-1.740963 19.456585,-1.192594 1.855346,0.18614 5.942235,0.814455 6.566713,1.009561 0.419767,0.131149 0.861642,1.003776 0.861642,1.701597 0,0.304966 -0.03436,0.554484 -0.07636,0.554484 -0.042,0 -1.003363,-0.200058 -2.136363,-0.444573 -3.26436,-0.704487 -4.982335,-0.854095 -10.605455,-0.923566 -5.838304,-0.07213 -7.159168,0.02528 -11.150746,0.822375 -1.50316,0.30017 -2.811248,0.545764 -2.906863,0.545764 -0.09561,0 -0.216392,-0.225 -0.268393,-0.5 z"
       id="path2922" />
    <path
       style="fill:#ffffff"
       d="M 14.698107,41.491042 C 11.860413,38.457538 10.027973,34.549419 9.6219654,30.664945 9.4976408,29.475471 9.9274365,27.17051 10.47452,26.092759 c 0.485584,-0.956595 1.660132,-2.011721 3.138438,-2.819336 l 1.308791,-0.715007 2.636364,0 2.636363,0 1.285039,0.686924 c 2.839249,1.517733 4.75258,2.91481 6.333652,4.624707 1.691789,1.829633 2.055844,2.423836 2.633553,4.29843 0.331353,1.075203 0.38412,1.702003 0.38412,4.562851 l 0,3.316426 -2.227273,0.113559 c -2.765653,0.141008 -7.072531,0.857674 -10.00337,1.664567 -1.223146,0.336745 -2.354156,0.663573 -2.513354,0.726282 -0.201282,0.07929 -0.624304,-0.243938 -1.388736,-1.06112 l 0,0 z m 5.041824,-1.668718 c 2.918844,-0.763198 5.531072,-1.165103 7.602386,-1.169668 l 1.511477,-0.0033 -0.05693,-3.227272 c -0.05641,-3.197485 -0.06222,-3.238181 -0.630298,-4.409091 -0.813091,-1.675933 -2.75744,-3.57166 -5.061373,-4.934805 -2.237457,-1.323813 -2.819963,-1.486332 -5.001624,-1.395448 -1.542722,0.06427 -1.850164,0.137813 -2.877457,0.688347 -1.456684,0.780649 -2.267677,1.721582 -2.646015,3.069971 -0.95295,3.396288 0.56203,7.845194 3.863183,11.344662 0.353748,0.375 0.687938,0.681056 0.742643,0.680125 0.0547,-9.31e-4 1.20401,-0.290502 2.55401,-0.64349 z"
       id="path2924" />
    <path
       style="fill:#ffffff"
       d="M 48.131401,42.354055 C 46.149009,41.488795 40.111088,40.39246 36.045479,40.159558 l -1.96718,-0.112692 0.06159,-3.835134 c 0.05949,-3.704062 0.07864,-3.875524 0.56021,-5.016952 0.354741,-0.840809 0.970361,-1.716851 2.133521,-3.036053 1.685254,-1.911336 3.47118,-3.267756 6.45176,-4.900145 1.223796,-0.670243 1.350151,-0.699565 3.286542,-0.762677 2.414309,-0.07869 3.822343,0.225526 5.356057,1.157207 2.137336,1.298364 3.071485,2.964678 3.223409,5.749843 0.103051,1.889207 -0.434464,4.703599 -1.235913,6.471155 -1.031864,2.275726 -4.358628,6.80365 -4.967001,6.760385 -0.114701,-0.0082 -0.482387,-0.134357 -0.817078,-0.28044 l 0,0 z m 0.727869,-3.142766 c 2.280684,-2.484017 3.635934,-5.673975 3.676163,-8.652873 0.03585,-2.654935 -0.860793,-4.200693 -3.061156,-5.27723 -0.881653,-0.431353 -1.33405,-0.523735 -2.889819,-0.590119 -2.16966,-0.09258 -2.722745,0.05962 -4.904165,1.34956 -0.950165,0.561861 -2.081981,1.471119 -3.139485,2.522144 -1.555458,1.545928 -1.682635,1.730513 -2.141395,3.108044 -0.454995,1.366228 -0.484338,1.646474 -0.43724,4.176055 l 0.05049,2.711546 2.181818,0.11546 c 2.57195,0.136105 4.737806,0.497212 7.363637,1.227719 1.05,0.29211 1.962793,0.53894 2.02843,0.548511 0.06564,0.0096 0.638364,-0.547897 1.272727,-1.238817 l 0,0 z"
       id="path2926" />
    <path
       style="fill:#ffffff"
       d="m 30.990903,29.035749 c -1.653613,-2.305904 -2.253313,-3.447338 -2.613219,-4.97385 -0.38272,-1.623275 -0.340278,-2.626501 0.156223,-3.692731 0.733351,-1.574861 1.902072,-2.263269 3.842387,-2.263269 1.45858,0 2.279865,0.319003 3.208111,1.246095 1.157086,1.155646 1.337427,1.884252 0.994177,4.016653 -0.340637,2.116174 -0.815398,3.111477 -2.64898,5.553406 -0.825962,1.1 -1.51335,2.010254 -1.527528,2.022786 -0.01418,0.01253 -0.649206,-0.846558 -1.411171,-1.90909 z m 2.496435,-2.077476 c 1.258097,-1.772209 1.487208,-2.261766 1.735137,-3.707575 0.186559,-1.087926 0.173829,-1.322431 -0.103508,-1.906876 -0.432313,-0.911032 -1.196814,-1.239951 -2.881994,-1.239951 -1.52667,0 -2.088485,0.286383 -2.49711,1.272891 -0.330058,0.796831 -0.128279,2.579959 0.408595,3.610766 0.469882,0.902181 2.161847,3.304287 2.316612,3.288927 0.05117,-0.0051 0.511194,-0.598261 1.022268,-1.318182 l 0,0 z"
       id="path2928" />
  </g>
</svg>
