<?xml version="1.0" encoding="UTF-8" standalone="no"?>
<!-- Created with Inkscape (http://www.inkscape.org/) -->

<svg
   xmlns:dc="http://purl.org/dc/elements/1.1/"
   xmlns:cc="http://creativecommons.org/ns#"
   xmlns:rdf="http://www.w3.org/1999/02/22-rdf-syntax-ns#"
   xmlns:svg="http://www.w3.org/2000/svg"
   xmlns="http://www.w3.org/2000/svg"
   xmlns:sodipodi="http://sodipodi.sourceforge.net/DTD/sodipodi-0.dtd"
   xmlns:inkscape="http://www.inkscape.org/namespaces/inkscape"
   width="64px"
   height="64px"
   id="svg2816"
   version="1.1"
   inkscape:version="0.47 r22583"
   sodipodi:docname="wb.svg">
  <defs
     id="defs2818">
    <inkscape:perspective
       sodipodi:type="inkscape:persp3d"
       inkscape:vp_x="0 : 32 : 1"
       inkscape:vp_y="0 : 1000 : 0"
       inkscape:vp_z="64 : 32 : 1"
       inkscape:persp3d-origin="32 : 21.333333 : 1"
       id="perspective2824" />
  </defs>
  <sodipodi:namedview
     id="base"
     pagecolor="#ffffff"
     bordercolor="#666666"
     borderopacity="1.0"
     inkscape:pageopacity="0.0"
     inkscape:pageshadow="2"
     inkscape:zoom="5.5"
     inkscape:cx="49.921749"
     inkscape:cy="29.909092"
     inkscape:current-layer="layer1"
     showgrid="true"
     inkscape:document-units="px"
     inkscape:grid-bbox="true"
     inkscape:window-width="1365"
     inkscape:window-height="878"
     inkscape:window-x="-8"
     inkscape:window-y="-8"
     inkscape:window-maximized="1" />
  <metadata
     id="metadata2821">
    <rdf:RDF>
      <cc:Work
         rdf:about="">
        <dc:format>image/svg+xml</dc:format>
        <dc:type
           rdf:resource="http://purl.org/dc/dcmitype/StillImage" />
        <dc:title />
      </cc:Work>
    </rdf:RDF>
  </metadata>
  <g
     id="layer1"
     inkscape:label="Layer 1"
     inkscape:groupmode="layer">
    <text
       xml:space="preserve"
       style="font-size:144px;font-style:normal;font-weight:normal;fill:#000000;fill-opacity:1;stroke:none;font-family:Smart;-inkscape-font-specification:Smart;font-stretch:normal;font-variant:normal"
       x="0.90909094"
       y="47.272728"
       id="text2830"><tspan
         sodipodi:role="line"
         id="tspan2832"
         x="0.90909094"
         y="47.272728" /></text>
    <text
       xml:space="preserve"
       style="font-size:64px;font-style:normal;font-weight:normal;fill:#000000;fill-opacity:1;stroke:none;font-family:Smart;-inkscape-font-specification:Smart"
       x="0.36363634"
       y="50.909084"
       id="text2834"><tspan
         sodipodi:role="line"
         id="tspan2836"
         x="0.36363634"
         y="50.909084">C</tspan></text>
    <path
       style="fill:#ffffff"
       d="M 12.215473,56.041399 C 11.82702,55.902947 11.19293,55.480843 10.806382,55.103389 9.9981232,54.314146 9.8748916,53.640119 10.512658,53.49684 c 0.225,-0.05055 3.354546,-0.11347 6.954546,-0.139827 l 6.545454,-0.04792 0.964282,-0.534196 c 0.922701,-0.51116 1.548392,-1.110608 2.613561,-2.503944 0.478828,-0.626351 0.508657,-0.636754 1.792086,-0.625002 l 1.305155,0.01195 -0.07716,0.916504 c -0.107494,1.276909 -0.467111,1.916396 -1.434805,2.551443 -0.45834,0.300784 -1.398454,1.006912 -2.089142,1.569173 -2.096753,1.70688 -1.62317,1.615153 -8.292224,1.60609 -4.524694,-0.0061 -6.034779,-0.06576 -6.578941,-0.25971 z"
       id="path2860" />
    <path
       style="fill:#ffffff"
       d="m 39.276285,56.053309 c -0.305005,-0.132851 -1.042837,-0.693612 -1.639628,-1.246134 -0.59679,-0.552523 -1.484583,-1.239313 -1.972873,-1.526201 -1.253251,-0.736328 -1.56655,-1.226796 -1.61264,-2.524578 l -0.03849,-1.08367 0.818182,-0.01099 c 0.45,-0.006 0.960167,-0.0757 1.133704,-0.154795 0.338328,-0.154199 0.52695,0.02163 1.640673,1.529423 0.757668,1.025751 2.109208,1.925404 3.264844,2.173244 0.515011,0.11045 3.360159,0.190392 6.776074,0.190392 3.385886,0 6.086509,0.07536 6.354687,0.177318 0.27446,0.10435 0.466382,0.319281 0.466382,0.522298 0,0.49402 -1.472753,1.783376 -2.299146,2.01284 -1.083088,0.300742 -12.182438,0.249819 -12.891773,-0.05915 l 0,0 z"
       id="path2862" />
    <path
       style="fill:#ffffff"
       d="m 28.113394,47.026205 c -1.772492,-0.221121 -3.285986,-0.616669 -4.577779,-1.196391 -0.938565,-0.421203 -1.024631,-0.504852 -0.833816,-0.810397 0.617763,-0.989195 3.135426,-1.337178 9.674495,-1.337178 6.58078,0 9.201655,0.371996 9.742637,1.38283 0.165974,0.310128 0.05152,0.409849 -1.03678,0.903308 -0.672844,0.305082 -1.761461,0.675507 -2.419149,0.823168 -1.453581,0.32635 -8.549422,0.484186 -10.549608,0.23466 l 0,0 z"
       id="path2864" />
    <path
       style="fill:#ffffff"
       d="m 24.684959,41.553903 c 0.230234,-0.339662 0.568454,-0.950465 0.751599,-1.35734 0.297707,-0.661387 0.461461,-0.786128 1.545454,-1.177259 1.161226,-0.418999 1.394306,-0.436423 5.515458,-0.412314 4.189834,0.02451 4.329388,0.03726 5.306665,0.484668 0.807659,0.369759 1.081574,0.6134 1.402567,1.247555 0.219393,0.433432 0.55742,1.013059 0.75117,1.288059 0.419019,0.594732 0.31677,0.611956 -1.217941,0.205157 -0.801075,-0.212337 -2.298553,-0.312855 -5.636364,-0.378339 -4.392624,-0.08618 -6.142459,0.04104 -8.417153,0.611951 l -0.420064,0.105429 0.418609,-0.617567 0,0 z"
       id="path2866" />
    <path
       style="fill:#ffffff"
       d="m 37.285385,36.885063 c -1.210865,-0.455873 -1.440638,-0.479255 -4.727272,-0.481037 -3.021152,-0.0016 -3.640828,0.04931 -4.939385,0.40614 -2.187796,0.601178 -2.468568,0.5644 -3.478364,-0.455622 -1.000692,-1.010825 -2.393367,-3.075523 -2.828813,-4.19383 -0.789075,-2.026496 -0.536044,-5.095394 0.616647,-7.479013 1.372168,-2.837467 2.796828,-4.655835 4.946864,-6.313939 1.282053,-0.988716 2.175015,-1.387094 4.008885,-1.788487 l 1.416743,-0.310092 1.815266,0.49785 c 1.406508,0.385745 2.092654,0.692652 3.047122,1.362949 2.396466,1.682972 4.633551,4.605335 5.794018,7.568874 0.433864,1.107979 0.489366,1.499319 0.499126,3.519325 0.0095,1.959414 -0.04312,2.389778 -0.381442,3.121795 -0.869624,1.881566 -2.731493,4.275523 -3.734911,4.802281 -0.599522,0.314727 -0.503425,0.326756 -2.054484,-0.257194 l 0,0 z m -3.727272,-6.8487 0,-1.909091 1.826489,0 1.826489,0 -0.05376,-1.227273 -0.05376,-1.227273 -1.772727,-0.05204 -1.772727,-0.05204 0,-1.902507 0,-1.902507 -1.181819,0 -1.181818,0 0,1.909091 0,1.909091 -1.909091,0 -1.909091,0 0,1.272727 0,1.272728 1.909091,0 1.909091,0 0,1.909091 0,1.90909 1.181818,0 1.181819,0 0,-1.90909 z"
       id="path2868" />
    <path
       style="fill:#ffffff"
       d="M 31.012658,13.162464 C 30.582373,13.01573 30.27128,12.739375 30.052015,12.30909 c -0.928993,-1.823052 0.88977,-3.5212877 3.135409,-2.9276269 1.168448,0.3088931 1.672577,0.8649989 1.687644,1.8616459 0.0067,0.441514 -0.08895,0.991632 -0.212499,1.222486 -0.448766,0.838526 -2.234641,1.179499 -3.649911,0.696869 z"
       id="path2870" />
  </g>
</svg>
