<?xml version="1.0" encoding="UTF-8" standalone="no"?>
<!-- Created with Inkscape (http://www.inkscape.org/) -->

<svg
   xmlns:dc="http://purl.org/dc/elements/1.1/"
   xmlns:cc="http://creativecommons.org/ns#"
   xmlns:rdf="http://www.w3.org/1999/02/22-rdf-syntax-ns#"
   xmlns:svg="http://www.w3.org/2000/svg"
   xmlns="http://www.w3.org/2000/svg"
   xmlns:sodipodi="http://sodipodi.sourceforge.net/DTD/sodipodi-0.dtd"
   xmlns:inkscape="http://www.inkscape.org/namespaces/inkscape"
   width="64px"
   height="64px"
   id="svg2816"
   version="1.1"
   inkscape:version="0.47 r22583"
   sodipodi:docname="wk.svg">
  <defs
     id="defs2818">
    <inkscape:perspective
       sodipodi:type="inkscape:persp3d"
       inkscape:vp_x="0 : 32 : 1"
       inkscape:vp_y="0 : 1000 : 0"
       inkscape:vp_z="64 : 32 : 1"
       inkscape:persp3d-origin="32 : 21.333333 : 1"
       id="perspective2824" />
  </defs>
  <sodipodi:namedview
     id="base"
     pagecolor="#ffffff"
     bordercolor="#666666"
     borderopacity="1.0"
     inkscape:pageopacity="0.0"
     inkscape:pageshadow="2"
     inkscape:zoom="5.5"
     inkscape:cx="49.921749"
     inkscape:cy="19.20522"
     inkscape:current-layer="layer1"
     showgrid="true"
     inkscape:document-units="px"
     inkscape:grid-bbox="true"
     inkscape:window-width="1365"
     inkscape:window-height="878"
     inkscape:window-x="-8"
     inkscape:window-y="-8"
     inkscape:window-maximized="1" />
  <metadata
     id="metadata2821">
    <rdf:RDF>
      <cc:Work
         rdf:about="">
        <dc:format>image/svg+xml</dc:format>
        <dc:type
           rdf:resource="http://purl.org/dc/dcmitype/StillImage" />
        <dc:title />
      </cc:Work>
    </rdf:RDF>
  </metadata>
  <g
     id="layer1"
     inkscape:label="Layer 1"
     inkscape:groupmode="layer">
    <text
       xml:space="preserve"
       style="font-size:144px;font-style:normal;font-weight:normal;fill:#000000;fill-opacity:1;stroke:none;font-family:Smart;-inkscape-font-specification:Smart;font-stretch:normal;font-variant:normal"
       x="0.90909094"
       y="47.272728"
       id="text2830"><tspan
         sodipodi:role="line"
         id="tspan2832"
         x="0.90909094"
         y="47.272728" /></text>
    <text
       xml:space="preserve"
       style="font-size:64px;font-style:normal;font-weight:normal;fill:#000000;fill-opacity:1;stroke:none;font-family:Smart;-inkscape-font-specification:Smart"
       x="0.36363634"
       y="50.909084"
       id="text2834"><tspan
         sodipodi:role="line"
         id="tspan2836"
         x="0.36363634"
         y="50.909084">F</tspan></text>
    <path
       style="fill:#ffffff"
       d="m 25.731159,56.013749 c -1.054825,-0.127876 -2.404825,-0.3325 -3,-0.454718 -1.336011,-0.274349 -3.935357,-1.073846 -4.149224,-1.276204 -0.286302,-0.270895 1.240516,-0.87276 2.712261,-1.069162 3.261439,-0.435233 10.333772,-0.800367 13.161385,-0.679503 9.309201,0.397916 11.241444,0.618858 11.793072,1.348477 0.207094,0.273918 0.162565,0.342621 -0.363637,0.561046 -1.247367,0.517778 -4.737927,1.286463 -7.078331,1.558778 -2.961637,0.344598 -10.274058,0.35091 -13.075526,0.01129 l 0,-1e-6 z"
       id="path2898" />
    <path
       style="fill:#ffffff"
       d="m 19.012658,50.891297 c 0,-0.09308 0.0894,-0.258642 0.198662,-0.367906 0.143671,-0.143671 0.143671,-0.301415 0,-0.569865 -0.109264,-0.204162 -0.198662,-0.449517 -0.198662,-0.545233 0,-0.303715 1.301815,-0.709761 3.272727,-1.020787 1.05,-0.165698 2.415767,-0.417765 3.035037,-0.560147 1.41158,-0.32455 12.474722,-0.39239 14.692236,-0.09009 2.403238,0.327615 4.337786,0.745792 4.79208,1.03587 0.350091,0.223541 0.408027,0.375653 0.316804,0.831769 -0.07773,0.388642 -0.01982,0.659659 0.190645,0.892219 0.283307,0.313051 0.28054,0.333889 -0.04408,0.331922 -0.1905,-0.0012 -1.77818,-0.248052 -3.52818,-0.548662 -6.672238,-1.146138 -13.50566,-1.142353 -18.909091,0.01047 -3.519281,0.750842 -3.818182,0.797847 -3.818182,0.600439 z"
       id="path2900" />
    <path
       style="fill:#ffffff"
       d="m 17.577066,46.315226 c -0.641368,-0.999486 -0.704039,-1.483177 -0.245893,-1.897793 0.496254,-0.449104 1.184931,-0.6575 4.408758,-1.334105 4.964285,-1.041887 5.448404,-1.123554 8.016351,-1.35229 3.152444,-0.280799 5.348354,-0.07444 10.89274,1.023659 4.386718,0.868812 5.506182,1.175002 6.030383,1.649397 0.429375,0.388579 0.419711,0.665971 -0.06384,1.832627 -0.3816,0.920676 -0.424307,0.958059 -1.094521,0.958059 -0.383588,0 -1.207168,-0.207329 -1.83018,-0.460731 -2.090822,-0.850412 -3.749717,-0.992403 -11.587297,-0.991798 -7.871629,6.08e-4 -9.580479,0.143338 -11.650629,0.973108 -1.793598,0.71892 -2.193479,0.663283 -2.875872,-0.400133 z"
       id="path2902" />
    <path
       style="fill:#ffffff"
       d="M 48.131401,42.354055 C 46.149009,41.488795 40.111088,40.39246 36.045479,40.159558 l -1.96718,-0.112692 0.06159,-3.835134 c 0.05949,-3.704062 0.07864,-3.875524 0.56021,-5.016952 0.354741,-0.840809 0.970361,-1.716851 2.133521,-3.036053 1.685254,-1.911336 3.47118,-3.267756 6.45176,-4.900145 1.223796,-0.670243 1.350151,-0.699565 3.286542,-0.762677 2.414309,-0.07869 3.822343,0.225526 5.356057,1.157207 2.137336,1.298364 3.071485,2.964678 3.223409,5.749843 0.103051,1.889207 -0.434464,4.703599 -1.235913,6.471155 -1.031864,2.275726 -4.358628,6.80365 -4.967001,6.760385 -0.114701,-0.0082 -0.482387,-0.134357 -0.817078,-0.28044 l 0,0 z"
       id="path2904" />
    <path
       style="fill:#ffffff"
       d="M 14.698107,41.491042 C 11.860413,38.457538 10.027973,34.549419 9.6219654,30.664945 9.4976408,29.475471 9.9274365,27.17051 10.47452,26.092759 c 0.485584,-0.956595 1.660132,-2.011721 3.138438,-2.819336 l 1.308791,-0.715007 2.636364,0 2.636363,0 1.285039,0.686924 c 2.839249,1.517733 4.75258,2.91481 6.333652,4.624707 1.691789,1.829633 2.055844,2.423836 2.633553,4.29843 0.331353,1.075203 0.38412,1.702003 0.38412,4.562851 l 0,3.316426 -2.227273,0.113559 c -2.765653,0.141008 -7.072531,0.857674 -10.00337,1.664567 -1.223146,0.336745 -2.354156,0.663573 -2.513354,0.726282 -0.201282,0.07929 -0.624304,-0.243938 -1.388736,-1.06112 l 0,0 z"
       id="path2906" />
    <path
       style="fill:#ffffff"
       d="m 30.862576,28.591743 c -1.669097,-2.324804 -2.036966,-3.072673 -2.501965,-5.086438 -0.31681,-1.372 -0.316457,-1.448183 0.01117,-2.412033 0.437871,-1.288195 1.369223,-2.376624 2.240765,-2.618682 0.370064,-0.10278 1.281103,-0.187329 2.024531,-0.187887 1.919449,-0.0014 2.700354,0.407264 3.444005,1.802496 0.31237,0.586065 0.567833,1.299575 0.567696,1.585577 -5.27e-4,1.094452 -0.548631,3.564923 -0.982637,4.429008 -0.38666,0.769824 -3.102252,4.545541 -3.269268,4.545541 -0.03138,0 -0.721808,-0.925912 -1.534292,-2.057582 z"
       id="path2908" />
  </g>
</svg>
