<?xml version="1.0" encoding="UTF-8" standalone="no"?>
<!-- Created with Inkscape (http://www.inkscape.org/) -->

<svg
   xmlns:dc="http://purl.org/dc/elements/1.1/"
   xmlns:cc="http://creativecommons.org/ns#"
   xmlns:rdf="http://www.w3.org/1999/02/22-rdf-syntax-ns#"
   xmlns:svg="http://www.w3.org/2000/svg"
   xmlns="http://www.w3.org/2000/svg"
   xmlns:sodipodi="http://sodipodi.sourceforge.net/DTD/sodipodi-0.dtd"
   xmlns:inkscape="http://www.inkscape.org/namespaces/inkscape"
   width="64px"
   height="64px"
   id="svg2816"
   version="1.1"
   inkscape:version="0.47 r22583"
   sodipodi:docname="wq.svg">
  <defs
     id="defs2818">
    <inkscape:perspective
       sodipodi:type="inkscape:persp3d"
       inkscape:vp_x="0 : 32 : 1"
       inkscape:vp_y="0 : 1000 : 0"
       inkscape:vp_z="64 : 32 : 1"
       inkscape:persp3d-origin="32 : 21.333333 : 1"
       id="perspective2824" />
  </defs>
  <sodipodi:namedview
     id="base"
     pagecolor="#ffffff"
     bordercolor="#666666"
     borderopacity="1.0"
     inkscape:pageopacity="0.0"
     inkscape:pageshadow="2"
     inkscape:zoom="5.5"
     inkscape:cx="49.921749"
     inkscape:cy="21.466403"
     inkscape:current-layer="layer1"
     showgrid="true"
     inkscape:document-units="px"
     inkscape:grid-bbox="true"
     inkscape:window-width="1365"
     inkscape:window-height="878"
     inkscape:window-x="-8"
     inkscape:window-y="-8"
     inkscape:window-maximized="1" />
  <metadata
     id="metadata2821">
    <rdf:RDF>
      <cc:Work
         rdf:about="">
        <dc:format>image/svg+xml</dc:format>
        <dc:type
           rdf:resource="http://purl.org/dc/dcmitype/StillImage" />
        <dc:title />
      </cc:Work>
    </rdf:RDF>
  </metadata>
  <g
     id="layer1"
     inkscape:label="Layer 1"
     inkscape:groupmode="layer">
    <text
       xml:space="preserve"
       style="font-size:64px;font-style:normal;font-weight:normal;fill:#000000;fill-opacity:1;stroke:none;font-family:Smart;-inkscape-font-specification:Smart"
       x="0.72727281"
       y="49.818184"
       id="text2826"><tspan
         sodipodi:role="line"
         id="tspan2828"
         x="0.72727281"
         y="49.818184">E</tspan></text>
    <path
       style="fill:#ffffff"
       d="m 25.760892,55.0901 c -1.338471,-0.08499 -3.138471,-0.268072 -4,-0.406855 -1.866386,-0.300653 -4.566416,-1.007784 -4.566416,-1.195932 0,-0.828526 2.791999,-1.365819 8.610449,-1.657 4.38489,-0.219439 6.937867,-0.190306 15.753188,0.179764 4.471554,0.187717 6.727272,0.677954 6.727272,1.462043 0,0.19782 -2.41456,0.837045 -4.454545,1.179287 -3.555449,0.596487 -12.257593,0.807753 -18.069948,0.438693 l 0,0 z"
       id="path2992" />
    <path
       style="fill:#ffffff"
       d="m 17.831508,50.205586 c 0.26414,-0.291871 0.291215,-0.448962 0.136069,-0.789471 -0.384631,-0.844173 0.136861,-1.080999 3.266341,-1.483343 1.228307,-0.157918 3.117143,-0.454242 4.197414,-0.658496 1.811418,-0.342498 2.482891,-0.365241 8.636363,-0.292512 5.735679,0.06779 7.029532,0.135291 9.21769,0.480891 3.112329,0.491563 3.798619,0.664206 4.104246,1.032465 0.1823,0.219659 0.189009,0.363855 0.02886,0.620299 -0.168027,0.269055 -0.136776,0.425495 0.160498,0.803418 0.203037,0.258118 0.301855,0.468503 0.219597,0.467522 -0.08226,-9.8e-4 -2.072288,-0.294705 -4.422288,-0.652721 -3.897498,-0.593773 -4.7214,-0.659375 -9.381735,-0.747011 -5.895098,-0.110854 -7.806606,0.03282 -12.59067,0.946323 -3.990867,0.762048 -4.017105,0.764051 -3.572381,0.272636 z"
       id="path2994" />
    <path
       style="fill:#ffffff"
       d="m 18.403602,46.251779 c -0.363918,-1.735026 -0.376145,-1.633122 0.233798,-1.948536 0.314006,-0.162379 2.020078,-0.555507 3.791271,-0.873619 l 3.220351,-0.578384 7.636363,0.0059 c 7.361708,0.0057 7.736153,0.0228 10.410844,0.475962 1.577247,0.267227 2.978882,0.603998 3.248162,0.780437 0.419294,0.274733 0.458431,0.386597 0.340862,0.974308 -0.07305,0.365167 -0.143815,0.848031 -0.157253,1.073031 -0.03114,0.521343 0.04947,0.524349 -4.260086,-0.158864 -3.503218,-0.555381 -3.709321,-0.567303 -9.309801,-0.538547 -6.190753,0.03179 -7.76029,0.148041 -11.31937,0.838418 -1.275654,0.247446 -2.636822,0.449902 -3.024819,0.449902 -0.622943,0 -0.717713,-0.05848 -0.810322,-0.5 z"
       id="path2996" />
    <path
       style="fill:#ffffff"
       d="m 16.952877,41.979052 c -0.728903,-1.192833 -1.212946,-2.139211 -1.212946,-2.371493 0,-0.459966 0.737875,-1.218826 1.608846,-1.654599 0.78479,-0.392656 3.889631,-1.464279 5.572972,-1.923489 2.004846,-0.546916 4.306665,-0.912795 7.041987,-1.119339 2.64631,-0.199823 3.416545,-0.189625 6.186886,0.08192 4.668391,0.457591 10.644105,2.023637 12.300609,3.223603 1.039754,0.753194 1.112589,1.251824 0.381147,2.609374 -0.864058,1.603685 -0.918933,1.646861 -1.755574,1.3813 -0.38528,-0.122293 -0.880419,-0.335107 -1.10031,-0.472919 -0.646043,-0.404896 -3.282509,-1.103981 -5.145654,-1.364421 -1.152784,-0.161141 -3.722869,-0.241137 -7.727273,-0.240517 -8.170456,0.0013 -11.324187,0.372299 -13.979096,1.64463 -1.510632,0.723951 -1.836193,0.754826 -2.171594,0.205949 z"
       id="path2998" />
    <path
       style="fill:#ffffff"
       d="m 28.919368,32.500935 c -0.29752,-0.454073 -0.289952,-0.588221 0.167886,-2.975968 0.287531,-1.499548 0.542785,-3.664945 0.63767,-5.409552 0.131115,-2.410724 0.238059,-3.127126 0.624259,-4.181818 0.582802,-1.591598 1.272056,-2.272727 2.299839,-2.272727 1.750588,0 2.670469,2.244395 2.906256,7.090909 0.07541,1.55 0.283887,3.814434 0.463284,5.032076 0.312462,2.120805 0.312608,2.234603 0.0035,2.706375 l -0.322685,0.492479 -1.661537,-0.145757 c -2.08136,-0.182586 -2.31698,-0.182925 -3.688763,-0.0053 -1.077192,0.139483 -1.129544,0.127373 -1.4297,-0.330722 z"
       id="path3000" />
    <path
       style="fill:#ffffff"
       d="m 20.346108,34.284131 c -0.06033,-0.157206 0.02657,-1.118569 0.193097,-2.136363 0.255343,-1.560609 0.283127,-2.612526 0.177338,-6.714171 -0.112783,-4.372795 -0.09633,-4.863636 0.163041,-4.863636 0.474181,0 1.210495,1.851074 1.766535,4.441025 0.374002,1.742043 0.768481,2.96081 1.422191,4.393935 1.710653,3.750259 1.626863,4.427283 -0.548921,4.435284 -0.371298,0.0014 -1.090236,0.166119 -1.59764,0.366119 -1.112209,0.438392 -1.431227,0.454146 -1.575641,0.07781 z"
       id="path3002" />
    <path
       style="fill:#ffffff"
       d="m 13.532472,36.995807 c -0.16178,-0.184215 -0.423301,-0.590135 -0.581158,-0.902043 -0.297296,-0.587426 -1.994917,-7.216709 -2.191255,-8.556948 -0.135871,-0.927475 0.12542,-1.731519 0.514209,-1.582326 0.390868,0.14999 1.517164,1.997365 2.899106,4.755177 0.690112,1.377192 1.542277,2.775707 2.017109,3.310343 0.452196,0.509149 0.822175,1.08398 0.822175,1.277402 0,0.466595 -1.78294,1.805641 -2.575451,1.934248 -0.452835,0.07349 -0.686586,0.01255 -0.904735,-0.235853 l 0,0 z"
       id="path3004" />
    <path
       style="fill:#ffffff"
       d="m 43.376294,34.19736 c -0.45,-0.184193 -1.119673,-0.339346 -1.488163,-0.344784 -0.925344,-0.01366 -1.54948,-0.282906 -1.691255,-0.7296 -0.153564,-0.483838 0.08999,-1.231776 1.275389,-3.916652 0.706032,-1.59913 1.065287,-2.723831 1.345194,-4.211333 0.210045,-1.116233 0.501807,-2.369366 0.648359,-2.78474 0.340978,-0.966433 0.975269,-1.85971 1.215224,-1.71141 0.124307,0.07683 0.144924,1.691293 0.06214,4.865775 -0.10207,3.913904 -0.07252,5.083643 0.167758,6.640254 0.16041,1.039201 0.243405,2.041474 0.184435,2.227273 -0.133002,0.419051 -0.635141,0.408891 -1.719079,-0.03478 z"
       id="path3006" />
    <path
       style="fill:#ffffff"
       d="m 49.510717,36.65704 c -1.528323,-1.025273 -1.566232,-1.319725 -0.342886,-2.663336 0.581628,-0.638807 1.35417,-1.902045 2.266244,-3.705695 1.977466,-3.910493 2.797748,-4.927913 3.129737,-3.88191 0.178016,0.560878 -0.02396,1.669703 -1.023431,5.618407 -0.982244,3.880659 -1.315131,4.803241 -1.874472,5.195019 -0.565317,0.395963 -0.829107,0.327116 -2.155192,-0.562485 z"
       id="path3008" />
    <path
       style="fill:#ffffff"
       d="m 56.5518,18.40684 c -0.59212,-0.255829 -0.871914,-0.716052 -0.846489,-1.39236 0.0351,-0.93358 0.320338,-1.318613 1.140455,-1.539448 1.369864,-0.368866 2.550145,0.33542 2.58435,1.542107 0.02597,0.916204 -0.508963,1.403848 -1.629558,1.485503 -0.483345,0.03522 -1.045286,-0.0079 -1.248758,-0.0958 l 0,0 z"
       id="path3010" />
    <path
       style="fill:#ffffff"
       d="m 44.655807,11.759001 c -0.350212,-0.372783 -0.402848,-0.576982 -0.315875,-1.225415 0.12557,-0.9361889 0.641102,-1.4181708 1.51689,-1.4181708 1.87393,0 2.915367,1.5297248 1.800464,2.6446278 -0.372479,0.372479 -0.622811,0.446281 -1.513761,0.446281 -0.898964,0 -1.13382,-0.07062 -1.487718,-0.447323 z"
       id="path3012" />
    <path
       style="fill:#ffffff"
       d="m 31.623021,10.58139 c -0.98308,-0.421697 -1.280889,-1.817235 -0.564908,-2.6471727 0.601589,-0.6973404 1.662084,-0.8847609 2.616767,-0.4624594 0.418673,0.1851991 0.85004,0.5026792 0.958592,0.7055112 0.3239,0.6052126 0.228819,1.4267594 -0.226371,1.9559489 -0.345517,0.401687 -0.605633,0.503948 -1.409091,0.553967 -0.541943,0.03374 -1.160688,-0.01387 -1.374989,-0.105795 l 0,0 z"
       id="path3014" />
    <path
       style="fill:#ffffff"
       d="m 18.285385,12.077919 c -0.60761,-0.222115 -1.090909,-0.85308 -1.090909,-1.424223 0,-1.2449857 1.267516,-1.9900414 2.623949,-1.542378 1.050589,0.3467255 1.513023,1.432339 1.010275,2.371731 -0.278118,0.519669 -1.784923,0.872104 -2.543315,0.59487 z"
       id="path3016" />
    <path
       style="fill:#ffffff"
       d="M 6.8308399,18.440972 C 5.8383565,18.076043 5.5913124,16.792576 6.3449168,15.916458 c 0.8464231,-0.984025 2.8443475,-0.543951 3.2654177,0.719259 0.2379429,0.713829 -0.1342506,1.500248 -0.8237962,1.740625 -0.5842035,0.203654 -1.4956807,0.233776 -1.9556984,0.06463 z"
       id="path3018" />
  </g>
</svg>
