<?xml version="1.0" encoding="UTF-8" standalone="no"?>
<!-- Created with Inkscape (http://www.inkscape.org/) -->

<svg
   xmlns:dc="http://purl.org/dc/elements/1.1/"
   xmlns:cc="http://creativecommons.org/ns#"
   xmlns:rdf="http://www.w3.org/1999/02/22-rdf-syntax-ns#"
   xmlns:svg="http://www.w3.org/2000/svg"
   xmlns="http://www.w3.org/2000/svg"
   xmlns:xlink="http://www.w3.org/1999/xlink"
   xmlns:sodipodi="http://sodipodi.sourceforge.net/DTD/sodipodi-0.dtd"
   xmlns:inkscape="http://www.inkscape.org/namespaces/inkscape"
   width="148"
   height="148"
   id="svg4857"
   version="1.1"
   inkscape:version="0.47 r22583"
   sodipodi:docname="wn.svg">
  <defs
     id="defs4859">
    <inkscape:perspective
       sodipodi:type="inkscape:persp3d"
       inkscape:vp_x="0 : 526.18109 : 1"
       inkscape:vp_y="0 : 1000 : 0"
       inkscape:vp_z="744.09448 : 526.18109 : 1"
       inkscape:persp3d-origin="372.04724 : 350.78739 : 1"
       id="perspective4865" />
    <inkscape:perspective
       id="perspective4840"
       inkscape:persp3d-origin="0.5 : 0.33333333 : 1"
       inkscape:vp_z="1 : 0.5 : 1"
       inkscape:vp_y="0 : 1000 : 0"
       inkscape:vp_x="0 : 0.5 : 1"
       sodipodi:type="inkscape:persp3d" />
    <linearGradient
       inkscape:collect="always"
       xlink:href="#linearGradient7090"
       id="linearGradient5778"
       x1="37.236935"
       y1="445.30777"
       x2="765.90985"
       y2="445.30777"
       gradientUnits="userSpaceOnUse"
       gradientTransform="matrix(0.13006212,0,0,0.15607454,22.313777,908.91987)" />
    <linearGradient
       id="linearGradient7090">
      <stop
         style="stop-color:#f5d7d7;stop-opacity:1;"
         offset="0"
         id="stop7110" />
      <stop
         style="stop-color:#ffffff;stop-opacity:1;"
         offset="1"
         id="stop7094" />
    </linearGradient>
  </defs>
  <sodipodi:namedview
     id="base"
     pagecolor="#ffffff"
     bordercolor="#666666"
     borderopacity="1.0"
     inkscape:pageopacity="0.0"
     inkscape:pageshadow="2"
     inkscape:zoom="2.8008057"
     inkscape:cx="71.08066"
     inkscape:cy="78.757764"
     inkscape:document-units="px"
     inkscape:current-layer="layer1"
     showgrid="true"
     inkscape:window-width="1018"
     inkscape:window-height="730"
     inkscape:window-x="0"
     inkscape:window-y="6"
     inkscape:window-maximized="1">
    <inkscape:grid
       type="xygrid"
       id="grid3444" />
  </sodipodi:namedview>
  <metadata
     id="metadata4862">
    <rdf:RDF>
      <cc:Work
         rdf:about="">
        <dc:format>image/svg+xml</dc:format>
        <dc:type
           rdf:resource="http://purl.org/dc/dcmitype/StillImage" />
        <dc:title></dc:title>
      </cc:Work>
    </rdf:RDF>
  </metadata>
  <g
     inkscape:label="Camada 1"
     inkscape:groupmode="layer"
     id="layer1"
     transform="translate(0,-904.36218)">
    <path
       style="fill:none;stroke:#000000;stroke-width:2.27961445;stroke-linecap:round;stroke-linejoin:round;stroke-miterlimit:4;stroke-opacity:1;stroke-dasharray:none"
       d="m 24.91502,979.93379 c 31.214908,-68.67281 67.632299,-65.55131 67.632299,-65.55131 41.619881,65.55131 28.613661,96.76622 28.613661,96.76622 l -13.0062,31.2149"
       id="path6552" />
    <path
       style="fill:none;stroke:#000000;stroke-width:2.27961445;stroke-linecap:round;stroke-linejoin:round;stroke-miterlimit:4;stroke-opacity:1;stroke-dasharray:none"
       d="M 92.807442,929.67778 C 92.287197,1011.4609 24.91502,979.62163 24.91502,979.62163"
       id="path6568" />
    <path
       style="fill:none;stroke:#000000;stroke-width:2.27961445;stroke-linecap:round;stroke-linejoin:round;stroke-miterlimit:4;stroke-opacity:1;stroke-dasharray:none"
       d="m 92.807442,930.61423 c 0,0 2.86137,95.82977 -67.112049,96.14197 43.180623,0 11.185342,14.9831 11.185342,14.9831"
       id="path7086"
       sodipodi:nodetypes="cc" />
    <path
       style="fill:none;stroke:#000000;stroke-width:2.27961445;stroke-linecap:round;stroke-linejoin:round;stroke-miterlimit:4;stroke-opacity:1;stroke-dasharray:none"
       d="M 94.888437,1041.4272 C 122.20148,994.91696 108.15478,948.71887 108.15478,948.71887"
       id="path7165" />
    <path
       style="fill:none;stroke:#000000;stroke-width:2.27961445;stroke-linecap:round;stroke-linejoin:round;stroke-miterlimit:4;stroke-opacity:1;stroke-dasharray:none"
       d="m 69.396261,961.20484 c 0,0 -2.861362,-15.60745 10.144845,-31.83921 C 66.014646,946.22169 53.78881,942.4759 53.78881,942.4759"
       id="path7175" />
    <path
       style="fill:none;stroke:#000000;stroke-width:2.27961445;stroke-linecap:round;stroke-linejoin:round;stroke-miterlimit:4;stroke-opacity:1;stroke-dasharray:none"
       d="m 111.27627,967.75998 c 10.66509,40.89152 -5.72274,59.30832 -5.72274,59.30832"
       id="path7189" />
    <path
       style="fill:none;stroke:#000000;stroke-width:2.27961445;stroke-linecap:round;stroke-linejoin:round;stroke-miterlimit:4;stroke-opacity:1;stroke-dasharray:none"
       d="m 121.16098,983.36743 c 0,24.34767 -5.20248,27.78127 -5.20248,27.78127"
       id="path7197" />
    <path
       style="fill:none;stroke:#000000;stroke-width:2.27961445;stroke-linecap:round;stroke-linejoin:round;stroke-miterlimit:4;stroke-opacity:1;stroke-dasharray:none"
       d="m 37.400983,1041.7393 c 70.753797,0.6243 70.753797,0.6243 70.753797,0.6243"
       id="path4394" />
    <path
       style="fill:url(#linearGradient5778);fill-opacity:1;fill-rule:nonzero;stroke:#000000;stroke-width:0;stroke-linecap:round;stroke-linejoin:round;stroke-miterlimit:4;stroke-opacity:1;stroke-dasharray:none;stroke-dashoffset:0"
       d="m 97.942329,1040.767 -1.26152,-0.185 0.51894,-0.7881 c 1.73111,-2.6289 6.130591,-12.283 8.327261,-18.2731 3.94968,-10.7705 6.70699,-25.14194 7.36249,-38.3743 0.017,-0.34336 0.18653,0.78037 0.37671,2.4972 0.47553,4.29278 0.46211,12.17916 -0.0279,16.3949 -1.04481,8.9891 -3.87729,17.5073 -7.52559,22.6318 -1.26518,1.777 -1.51399,3.0307 -0.70467,3.5505 0.73933,0.4748 1.5562,-0.2105 3.04313,-2.5528 5.15272,-8.1169 7.93439,-19.3632 7.92857,-32.05526 -0.003,-6.95567 -0.85846,-14.04382 -2.713,-22.48407 -0.47154,-2.14604 -1.05348,-5.72795 -1.29321,-7.95981 -0.71417,-6.64887 -2.34207,-14.6516 -3.14257,-15.44883 -0.22112,-0.22022 -0.66519,-0.30031 -1.03967,-0.18753 -0.85603,0.25783 -0.84309,0.79761 0.12505,5.21547 2.94771,13.45119 3.41448,29.28108 1.30133,44.13299 -2.02611,14.24014 -6.87667,28.65844 -13.835331,41.12564 l -1.524502,2.7314 -13.714836,-0.044 c -7.54317,-0.024 -19.157947,-0.1296 -25.810623,-0.2342 l -12.095776,-0.19 1.565322,-1.0193 c 6.669982,-4.3434 7.440228,-9.3612 1.779274,-11.5912 -0.948527,-0.3737 -2.238611,-0.764 -2.866852,-0.8673 -1.536133,-0.2526 -1.632877,-0.6101 -0.233309,-0.8619 0.632257,-0.1138 2.324046,-0.6097 3.759532,-1.1021 20.327432,-6.9722 34.852187,-24.96724 42.335657,-52.45064 3.243658,-11.91247 5.295036,-26.84025 5.295036,-38.53171 0,-4.97473 -0.109133,-5.48131 -1.18083,-5.48131 -0.847125,0 -1.160018,1.24307 -1.16265,4.61889 -0.0022,3.28401 -0.532643,9.34392 -1.182463,13.51781 -3.138165,20.15711 -12.367673,32.55098 -27.16872,36.48357 -9.174924,2.43774 -22.070273,1.25141 -34.029037,-3.1306 -2.679599,-0.98188 -2.695039,-0.50156 0.203093,-6.31812 6.732025,-13.51119 12.409226,-22.37622 20.532149,-32.06129 6.42283,-7.65802 11.87721,-12.71024 18.366217,-17.01208 7.386945,-4.89712 15.170033,-8.00783 21.211095,-8.47755 l 2.482153,-0.19299 2.091803,3.3988 c 13.143688,21.35615 21.826968,41.33937 25.599718,58.91377 0.70447,3.28161 0.7986,4.09444 0.54992,4.74939 -0.16903,0.44516 -0.30106,2.31705 -0.30239,4.28715 -0.006,9.37917 -1.82241,19.07931 -4.17369,22.29291 -1.06733,1.4587 -0.99277,2.7007 0.17028,2.8367 2.31735,0.2711 4.9471,-7.2646 5.91522,-16.95034 0.24099,-2.41105 0.13754,3.5746 -0.11352,6.56794 -0.49725,5.929 -0.73928,6.6622 -7.75805,23.5047 l -6.52486,15.6572 -4.09644,-0.049 c -2.25305,-0.027 -4.664131,-0.1323 -5.357961,-0.2341 z M 70.377134,959.62355 c -0.587273,-9.10807 2.644882,-19.24624 8.832352,-27.70411 1.3959,-1.90811 1.669283,-2.78951 1.083315,-3.49267 -0.620032,-0.74404 -1.280205,-0.32991 -3.650347,2.28988 -4.509158,4.98411 -9.524205,8.41455 -14.47581,9.90191 -1.74705,0.52477 -2.987595,0.66931 -5.623185,0.65517 -3.52013,-0.0189 -3.760371,0.0679 -3.767819,1.36046 -0.0065,1.12383 0.904645,1.45664 4.027941,1.47135 4.591763,0.0216 9.361965,-1.50967 13.48383,-4.32841 1.096463,-0.74981 1.993568,-1.30359 1.993568,-1.23064 0,0.0729 -0.453165,1.21814 -1.00704,2.54486 -1.29624,3.10501 -2.291618,6.69797 -2.772728,10.00866 -0.479602,3.30028 -0.515415,10.03129 -0.05707,10.72479 0.446588,0.67571 1.013018,0.84884 1.596165,0.48789 0.437933,-0.27109 0.47412,-0.55993 0.336825,-2.68914 z"
       id="path5770" />
  </g>
</svg>
