<?xml version="1.0" encoding="UTF-8" standalone="no"?>
<!-- Created with Inkscape (http://www.inkscape.org/) -->

<svg
   xmlns:dc="http://purl.org/dc/elements/1.1/"
   xmlns:cc="http://creativecommons.org/ns#"
   xmlns:rdf="http://www.w3.org/1999/02/22-rdf-syntax-ns#"
   xmlns:svg="http://www.w3.org/2000/svg"
   xmlns="http://www.w3.org/2000/svg"
   xmlns:sodipodi="http://sodipodi.sourceforge.net/DTD/sodipodi-0.dtd"
   xmlns:inkscape="http://www.inkscape.org/namespaces/inkscape"
   version="1.0"
   width="504"
   height="504"
   id="svg2"
   inkscape:version="0.47 r22583"
   sodipodi:docname="wq.svg">
  <metadata
     id="metadata22">
    <rdf:RDF>
      <cc:Work
         rdf:about="">
        <dc:format>image/svg+xml</dc:format>
        <dc:type
           rdf:resource="http://purl.org/dc/dcmitype/StillImage" />
      </cc:Work>
    </rdf:RDF>
  </metadata>
  <sodipodi:namedview
     pagecolor="#ffffff"
     bordercolor="#666666"
     borderopacity="1"
     objecttolerance="10"
     gridtolerance="10"
     guidetolerance="10"
     inkscape:pageopacity="0"
     inkscape:pageshadow="2"
     inkscape:window-width="1365"
     inkscape:window-height="878"
     id="namedview20"
     showgrid="false"
     inkscape:zoom="0.46825397"
     inkscape:cx="252"
     inkscape:cy="252"
     inkscape:window-x="-8"
     inkscape:window-y="-8"
     inkscape:window-maximized="1"
     inkscape:current-layer="svg2" />
  <defs
     id="defs4">
    <inkscape:perspective
       sodipodi:type="inkscape:persp3d"
       inkscape:vp_x="0 : 252 : 1"
       inkscape:vp_y="0 : 1000 : 0"
       inkscape:vp_z="504 : 252 : 1"
       inkscape:persp3d-origin="252 : 168 : 1"
       id="perspective24" />
  </defs>
  <g
     transform="translate(-319.91772,-446.85651)"
     id="layer1">
    <path
       d="M 186.00002,482.89923 C 156.82102,481.36995 128.96552,474.40077 107.6543,463.29788 C 97.239303,457.87179 94.00001,454.9105 94.00001,450.81543 C 94.000012,449.43431 98.27145,438.49751 103.49211,426.51142 L 112.98421,404.71851 L 104.06072,384.23563 L 95.13723,363.75272 L 76.898453,341.4245 C 66.86712,329.14397 58.20135,318.49786 57.64117,317.76648 C 57.080999,317.03509 51.8664,278.4218 46.05318,231.95917 L 35.483681,147.48166 L 28.87129,145.25639 C 20.79136,142.53724 15.72186,138.80105 11.85461,132.71516 C 5.0284596,121.97285 4.37476,110.3712 9.95676,99.03255 C 15.67255,87.422143 26.14037,81.21356 40.00001,81.21356 C 53.859649,81.213558 64.32747,87.42214 70.04326,99.03255 C 76.667911,112.48913 74.71138,124.67715 63.61025,139.10645 C 63.032831,139.85697 72.85935,161.10459 91.60231,199.63294 L 120.48413,259.0029 L 124.67529,186.04959 C 126.98043,145.92526 128.89651,111.64292 128.93323,109.86659 C 128.9901,107.11638 128.4433,106.34995 125.25001,104.70389 C 118.51759,101.23352 113.22321,95.79509 109.79201,88.82532 C 101.38842,71.755223 108.77086,52.40804 127.00001,43.72821 C 138.27983,38.35732 152.12805,40.79492 162.70801,50.01363 C 165.20169,52.18647 168.25716,56.40447 170.20801,60.36722 C 173.0486,66.137268 173.50001,68.08841 173.50001,74.59627 C 173.5,81.104132 173.0486,83.05527 170.20801,88.82532 C 168.27356,92.754753 165.2513,96.93726 162.87914,98.96774 L 158.84225,102.42315 L 183.67114,174.49423 C 197.32702,214.13331 208.74505,246.57227 209.04454,246.58078 C 209.34403,246.5893 215.89791,210.26478 223.60871,165.85962 L 237.62834,85.122971 L 233.33586,82.279747 C 223.77022,75.94373 218.51664,66.12885 218.50657,54.57524 C 218.49483,41.130309 225.91765,29.95739 239.00001,23.72821 C 246.78597,20.02092 257.21404,20.02092 265.00001,23.72821 C 273.15085,27.60924 278.44959,32.73277 282.20801,40.36722 C 285.04946,46.139008 285.49911,48.08356 285.49345,54.57524 C 285.48339,66.128849 280.2298,75.94373 270.66416,82.27975 L 266.37167,85.122971 L 280.3913,165.85962 C 288.10211,210.26478 294.65599,246.5893 294.95548,246.58078 C 295.25498,246.57227 306.673,214.13331 320.32888,174.49423 L 345.15775,102.42315 L 341.12088,98.967743 C 338.74872,96.93726 335.72646,92.75475 333.79201,88.82532 C 325.38841,71.755223 332.77086,52.40804 351.00001,43.72821 C 358.78599,40.02092 369.21404,40.02092 377.00001,43.72821 C 385.15085,47.60924 390.44959,52.73277 394.20801,60.36722 C 397.0486,66.137268 397.50001,68.08841 397.50001,74.59627 C 397.50002,81.104132 397.0486,83.05527 394.20801,88.82532 C 390.77681,95.795093 385.48243,101.23352 378.75001,104.70389 C 375.55673,106.34995 375.00992,107.11638 375.06679,109.86659 C 375.1035,111.64292 377.01959,145.92526 379.32473,186.04959 L 383.5159,259.0029 L 412.39771,199.63293 C 431.14067,161.10459 440.96719,139.85697 440.38977,139.10645 C 429.28864,124.67715 427.33211,112.48913 433.95676,99.03255 C 439.67255,87.422143 450.14037,81.21356 464.00001,81.21356 C 477.85966,81.213558 488.32747,87.42214 494.04326,99.03255 C 499.62525,110.3712 498.97156,121.97285 492.14541,132.71516 C 488.27815,138.80105 483.20866,142.53724 475.12873,145.25639 L 468.51633,147.48166 L 457.94684,231.95917 C 452.13362,278.4218 446.91902,317.03509 446.35885,317.76648 C 445.79866,318.49786 437.1329,329.14397 427.10157,341.42449 L 408.86279,363.75272 L 399.9393,384.23563 L 391.01581,404.71851 L 400.5079,426.51141 C 405.72857,438.49751 410.00001,449.43431 410.00001,450.81543 C 410.00002,454.9105 406.76072,457.87179 396.34572,463.29788 C 379.83153,471.90157 359.73999,477.99278 337.05738,481.27249 C 328.54094,482.50389 313.45111,482.83654 259.00001,482.99324 C 221.87502,483.1001 189.02501,483.05778 186.00001,482.89924 L 186.00002,482.89923 z"
       transform="translate(319.91772,446.85651)"
       id="path2396"
       style="fill:#2B2B3C" />
    <path
       d="M 260.07834,68.322472 C 265.26111,64.8298 268.00001,60.084 268.00001,54.59627 C 268.00002,42.389538 253.73445,34.25725 243.92169,40.87007 C 238.73891,44.362739 236.00001,49.10854 236.00001,54.59627 C 236,66.802998 250.26557,74.93529 260.07833,68.32247 L 260.07834,68.322472 z"
       transform="translate(319.91772,446.85651)"
       id="path2411"
       style="fill:#ffffff" />
    <path
       d="M 372.07834,88.322472 C 377.26111,84.8298 380.00001,80.084 380.00001,74.59627 C 380.00002,69.108542 377.26111,64.36274 372.07833,60.87007 C 362.26556,54.257249 348.00001,62.38954 348.00001,74.59627 C 348.00002,86.803002 362.26557,94.93529 372.07833,88.32247 L 372.07834,88.322472 z"
       transform="translate(319.91772,446.85651)"
       id="path2409"
       style="fill:#ffffff" />
    <path
       d="M 148.07832,88.322472 C 158.71832,81.15218 158.71832,68.04036 148.07833,60.87007 C 138.26558,54.257249 124.00001,62.38954 124.00001,74.59627 C 124.00001,86.803002 138.26557,94.93529 148.07833,88.32247 L 148.07832,88.322472 z"
       transform="translate(319.91772,446.85651)"
       id="path2407"
       style="fill:#ffffff" />
    <path
       d="M 471.98007,127.84472 C 477.15516,125.24466 480.00001,120.36778 480.00001,114.09627 C 480.00002,104.86913 473.52671,98.59938 464.00001,98.59938 C 454.47332,98.59938 448.00001,104.86913 448.00001,114.09627 C 448.00002,123.32341 454.47331,129.59316 464.00001,129.59316 C 466.47502,129.59317 470.06604,128.80636 471.98008,127.84472 L 471.98007,127.84472 z"
       transform="translate(319.91772,446.85651)"
       id="path2405"
       style="fill:#ffffff" />
    <path
       d="M 47.98008,127.84472 C 58.80139,122.4079 58.80139,105.78464 47.98008,100.34782 C 43.5282,98.111124 36.47182,98.11112 32.01994,100.34782 C 21.198631,105.78464 21.19863,122.4079 32.01994,127.84472 C 33.933981,128.80636 37.52501,129.59316 40.00001,129.59316 C 42.475009,129.59317 46.06604,128.80636 47.98008,127.84472 z"
       transform="translate(319.91772,446.85651)"
       id="path2403"
       style="fill:#ffffff" />
    <path
       d="M 230.91696,268.00552 C 234.53764,266.03062 239.52501,262.72825 242.00001,260.66691 C 250.9658,253.19965 253.33375,253.1088 261.13465,259.93283 C 265.58427,263.82524 279.72613,272.26625 280.43101,271.45045 C 280.903,270.9042 252.56746,108.60402 252.00001,108.60346 C 251.725,108.60319 245.24651,144.71396 237.60334,188.84962 C 229.96019,232.98528 223.49953,269.65877 223.24636,270.34627 C 222.53679,272.27309 223.79947,271.88779 230.91696,268.00553 L 230.91696,268.00552 z"
       transform="translate(319.91772,446.85651)"
       id="path2401"
       style="fill:#ffffff" />
    <path
       d="M 366.52866,274.84628 C 366.2028,271.13377 364.15152,235.92127 361.97026,196.59627 C 359.78901,157.27127 357.89086,123.90732 357.75217,122.45417 C 357.6059,120.92159 346.41306,151.99693 331.09856,196.45417 C 316.57775,238.60733 304.46462,273.73042 304.18047,274.50549 C 303.32067,276.85073 317.16355,275.00322 326.97221,271.46364 C 339.48131,266.94957 341.30984,266.83002 345.75475,270.23563 C 349.46669,273.07966 364.76212,281.5113 366.31056,281.56707 C 366.75638,281.58312 366.85451,278.55877 366.52865,274.84627 L 366.52866,274.84628 z"
       transform="translate(319.91772,446.85651)"
       id="path2399"
       style="fill:#ffffff" />
    <path
       d="M 145.27496,277.9758 C 149.24874,275.98456 154.65033,272.78682 157.2785,270.86973 C 162.88676,266.77884 164.15093,266.81685 177.02781,271.46364 C 186.83646,275.00321 200.67934,276.85073 199.81955,274.50549 C 199.5354,273.73042 187.42226,238.60732 172.90146,196.45417 C 157.58696,151.99694 146.39412,120.92159 146.24785,122.45417 C 146.10916,123.90732 144.21102,157.27127 142.02976,196.59627 C 139.84851,235.92127 137.79722,271.13377 137.47137,274.84627 C 137.14551,278.55876 137.14239,281.59627 137.46442,281.59627 C 137.78646,281.59626 141.3012,279.96706 145.27497,277.97581 L 145.27496,277.9758 z"
       transform="translate(319.91772,446.85651)"
       id="path2397"
       style="fill:#ffffff" />
    <path
       d="M 439.93741,232.09686 C 444.33775,196.95411 447.80625,168.06918 447.6452,167.90813 C 447.39327,167.6562 391.72933,281.6383 390.21468,285.50762 C 389.74839,286.69877 391.28772,286.79191 400.08111,286.10457 C 417.81209,284.71859 416.81102,284.52602 424.55146,290.81188 C 428.36557,293.90922 431.58758,296.34203 431.71151,296.21811 C 431.83542,296.09418 435.5371,267.23962 439.93742,232.09687 L 439.93741,232.09686 z"
       transform="translate(319.91772,446.85651)"
       id="path2394"
       style="fill:#ffffff" />
    <path
       d="M 86.550072,285.77475 C 88.53614,284.73351 90.5356,284.68049 95.97695,285.52474 C 105.68202,287.03052 114.3502,286.94336 113.72343,285.34627 C 112.2351,281.55385 56.59946,167.66349 56.35474,167.90821 C 56.19364,168.06932 59.64249,196.75253 64.01884,231.64869 C 68.395203,266.54485 71.98129,295.46363 71.98793,295.91262 C 71.99458,296.3616 74.70661,294.56161 78.01468,291.91262 C 81.322741,289.26362 85.16367,286.50158 86.55007,285.77474 L 86.550072,285.77475 z"
       transform="translate(319.91772,446.85651)"
       id="path2392"
       style="fill:#ffffff" />
    <path
       d="M 113.07486,346.04248 C 203.23387,315.0335 300.7703,315.03572 390.9437,346.04879 C 395.03774,347.45683 398.70838,348.26854 399.10068,347.85258 C 401.52699,345.27994 425.9509,315.00458 425.92941,314.59627 C 425.91493,314.32126 422.70324,311.58813 418.79231,308.52263 L 411.68152,302.94901 L 406.09076,303.86786 C 388.74948,306.71801 363.24383,301.11777 344.70856,290.39027 L 337.91711,286.45963 L 330.20856,288.98962 C 305.03641,297.2513 279.76996,293.74674 257.25001,278.86997 L 252.00002,275.40179 L 246.75002,278.86996 C 233.99725,287.29449 219.30799,292.29714 204.45085,293.27558 C 194.09573,293.95755 185.09379,292.69913 173.79146,288.98963 L 166.08292,286.45963 L 159.29146,290.39026 C 140.75619,301.11777 115.25054,306.71801 97.90925,303.86786 L 92.318497,302.94901 L 85.211472,308.52264 C 81.30261,311.58813 78.19345,314.41454 78.30223,314.80354 C 78.472809,315.41356 105.21045,348.59627 105.5314,348.59627 C 105.59647,348.59626 108.99102,347.44707 113.07486,346.04249 L 113.07486,346.04248 z"
       transform="translate(319.91772,446.85651)"
       id="path2390"
       style="fill:#ffffff" />
    <path
       d="M 151.19949,384.75821 C 217.38045,363.33681 286.61957,363.33681 352.80053,384.7582 C 361.21581,387.48204 370.06725,390.55347 372.47037,391.58356 C 375.6364,392.94068 376.97697,393.13148 377.3382,392.27637 C 377.61239,391.62731 380.51518,384.96638 383.78885,377.4743 L 389.74097,363.85233 L 386.12048,362.69427 C 319.14632,341.27187 260.34025,335.73909 194.50001,344.66563 C 169.67222,348.03176 147.15734,353.32946 117.87953,362.69428 L 114.25905,363.85233 L 120.21117,377.4743 C 123.48484,384.96638 126.38763,391.62731 126.66182,392.27637 C 127.02305,393.13148 128.36362,392.94068 131.52965,391.58356 C 133.93277,390.55347 142.7842,387.48205 151.19949,384.7582 L 151.19949,384.75821 z"
       transform="translate(319.91772,446.85651)"
       id="path2388"
       style="fill:#ffffff" />
    <path
       d="M 151.50002,426.08273 C 171.05106,421.25491 192.35881,417.50658 212.00001,415.43993 C 228.28597,413.7263 275.71404,413.72631 292.00001,415.43993 C 319.31953,418.31449 357.82434,426.20064 377.75001,433.00232 C 381.73752,434.36346 385.00001,435.29559 385.00001,435.07371 C 385.00002,434.85185 382.80863,429.59115 380.13027,423.38329 C 374.33534,409.95189 375.26367,410.60134 349.77549,402.14747 C 332.43098,396.39469 312.50966,391.91254 291.00001,388.92346 C 273.47396,386.48795 230.52607,386.48795 213.00001,388.92346 C 191.49035,391.91254 171.56905,396.39468 154.22453,402.14747 C 128.73635,410.60135 129.66467,409.9519 123.86975,423.38329 C 121.19139,429.59114 119.00001,434.85184 119.00001,435.07371 C 119.00001,435.2956 122.26251,434.36346 126.25001,433.00232 C 130.23751,431.64117 141.60001,428.52735 151.50001,426.08272 L 151.50002,426.08273 z"
       transform="translate(319.91772,446.85651)"
       id="path2386"
       style="fill:#ffffff" />
    <path
       d="M 337,463.27875 C 350.85528,461.27273 359.50438,459.25623 370.86511,455.38324 L 380.23022,452.19058 L 373.36511,449.86456 C 362.1705,446.0716 335.58314,439.82021 319.50001,437.19945 C 294.5985,433.14171 281.07065,432.12467 252.00001,432.12467 C 222.92936,432.12468 209.40153,433.14172 184.50001,437.19945 C 168.41687,439.8202 141.82952,446.0716 130.63491,449.86455 L 123.76981,452.19058 L 133.1349,455.40036 C 148.2825,460.59205 166.59304,463.88211 186.00001,464.89924 C 189.025,465.05779 221.87501,465.10009 259.00001,464.99324 C 313.33395,464.83689 328.54807,464.50246 337.00001,463.27876 L 337,463.27875 z"
       transform="translate(319.91772,446.85651)"
       id="path2384"
       style="fill:#ffffff" />
  </g>
  <path
     style="fill:#000000"
     d="m 170.57785,480.99861 c -28.18323,-3.574 -65.00071,-16.39979 -73.253071,-25.51854 -3.156601,-3.488 -2.676486,-5.5657 6.354021,-27.49685 l 9.76863,-23.72375 -9.0894,-20.64401 C 97.404556,367.82257 90.914335,357.66905 76.738925,340.40717 L 58.209215,317.84292 54.723436,292.07571 C 52.806258,277.90372 47.815176,239.89793 43.632143,207.6184 39.449109,175.33886 35.726713,148.62841 35.360149,148.26184 34.993587,147.89528 30.491408,145.47531 25.355311,142.88412 8.1083447,134.18296 1.5602102,111.17045 12.255213,96.845659 22.591889,83.000804 36.711979,78.70801 52.314728,84.666753 c 18.100455,6.912627 25.073505,26.270497 16.123154,44.759457 -3.113897,6.43245 -4.179791,11.33582 -3.165359,14.56142 2.147282,6.82773 52.239377,111.19912 54.555687,113.67169 1.13426,1.21078 1.9006,-1.0568 1.9006,-5.62378 0,-8.04369 5.59505,-109.1271 7.2343,-130.69904 l 0.95483,-12.56519 -9.45098,-8.60116 c -16.03659,-14.594589 -17.79532,-33.022147 -4.49733,-47.122121 3.78945,-4.017991 10.91962,-8.508266 15.86147,-9.988881 7.73128,-2.316346 10.32637,-2.174574 18.69468,1.021313 23.44447,8.953528 29.46069,36.90256 11.75483,54.608424 -4.36316,4.363155 -6.22823,-1.663324 42.62186,137.721285 2.94089,8.39128 4.01826,9.76329 5.0309,6.40678 1.30828,-4.33643 17.10605,-92.04968 24.14202,-134.04274 l 3.85231,-22.991885 -6.85607,-6.262051 c -23.53672,-21.497479 -7.84849,-59.855716 23.36835,-57.136383 16.64206,1.449709 29.55484,14.87772 29.57984,30.760133 0.0192,11.983755 -2.87916,18.87547 -11.09145,26.37625 l -6.85607,6.262051 3.85231,22.991885 c 7.03597,41.99306 22.83374,129.70631 24.14203,134.04274 1.01263,3.35651 2.09,1.9845 5.03088,-6.40678 2.05828,-5.87288 13.39393,-38.31359 25.19032,-72.09046 l 21.448,-61.4125 -5.23523,-5.648925 c -10.7837,-11.635805 -11.96934,-30.583557 -2.65472,-42.425184 4.83289,-6.14401 19.16618,-13.703713 26.1324,-13.782809 8.73185,-0.09914 22.55842,8.793036 27.93324,17.96449 8.89577,15.179474 5.9784,28.53187 -9.17801,42.006498 -8.57782,7.62603 -8.64768,7.81013 -7.69909,20.28814 1.64014,21.57451 7.23676,122.67305 7.23676,130.72612 0,4.56698 0.76633,6.83456 1.90059,5.62378 2.31633,-2.47257 52.40842,-106.84396 54.55569,-113.67169 1.01443,-3.2256 -0.0515,-8.12897 -3.16535,-14.56142 -8.95036,-18.48896 -1.97731,-37.84683 16.12315,-44.759457 15.60275,-5.958743 29.72284,-1.665949 40.05952,12.178906 10.69501,14.324791 4.14688,37.337301 -13.10009,46.038461 -5.1361,2.59119 -9.6383,5.01116 -10.00485,5.37772 -0.36655,0.36657 -4.08896,27.07702 -8.27198,59.35656 -4.18305,32.27953 -9.17413,70.28532 -11.09131,84.45731 l -3.48578,25.76721 -18.52971,22.56425 c -14.17541,17.26188 -20.66563,27.4154 -27.6191,43.20829 l -9.0894,20.64401 9.76863,23.72375 c 9.0305,21.93115 9.51063,24.00885 6.35403,27.49685 -5.44801,6.01996 -25.94699,14.82832 -47.89557,20.58058 -19.49369,5.10888 -23.29862,5.3448 -97.16949,6.02479 -42.28475,0.38923 -83.24929,-0.0999 -91.03232,-1.08683 l 0,0 z m 160.4391,-17.10221 c 23.0117,-2.24564 51.79898,-10.13941 46.86734,-12.85151 -5.94028,-3.26679 -48.13172,-12.85424 -70.35887,-15.9881 -43.00916,-6.06399 -104.57153,-3.38177 -146.71647,6.39228 -26.7108,6.19465 -37.84397,9.98303 -34.62487,11.78209 4.87913,2.72681 29.61498,8.70978 43.53586,10.53023 18.3231,2.39611 137.10779,2.49554 161.29701,0.13501 z M 167.64407,423.35552 c 65.28984,-13.6448 141.24702,-10.54717 203.41525,8.29556 7.3411,2.22503 13.34746,3.25225 13.34746,2.28273 0,-0.96951 -1.8676,-6.11971 -4.15025,-11.44488 -4.95445,-11.55827 -12.00116,-15.71677 -39.83176,-23.50594 C 309.06143,390.20509 285.3195,386.98314 252,386.98314 c -33.3195,0 -57.06143,3.22195 -88.42476,11.99985 -27.83061,7.78917 -34.87732,11.94767 -39.83178,23.50594 -2.28263,5.32517 -4.15024,10.43443 -4.15024,11.35389 0,0.91948 6.48686,-0.16017 14.41525,-2.39934 7.92839,-2.23913 23.06441,-5.87869 33.6356,-8.08796 z m -24.7601,-35.24994 c 8.52307,-2.89889 26.71046,-7.91344 40.41643,-11.14348 22.93608,-5.40523 28.40521,-5.87275 68.6996,-5.87275 40.29439,0 45.76352,0.46752 68.6996,5.87275 13.70596,3.23004 31.88727,8.24252 40.4029,11.13887 8.51564,2.89636 15.74379,5.00528 16.06259,4.6865 0.31878,-0.3188 3.46959,-7.02083 7.00178,-14.89344 l 6.42217,-14.31379 -13.32375,-4.11529 c -84.10765,-25.97821 -169.22894,-25.27662 -256.96797,2.11798 l -6.77047,2.11393 6.55455,14.83971 c 3.60501,8.16183 6.72365,14.8397 6.93032,14.8397 0.20668,0 7.34918,-2.37181 15.87225,-5.27069 z m -14.98509,-45.77767 c 43.50298,-13.143 76.48763,-17.90082 124.10112,-17.90082 47.41019,0 78.77069,4.51067 124.67602,17.93255 11.60488,3.39305 21.39356,6.16917 21.75266,6.16917 1.53609,0 26.55437,-31.89769 26.55437,-33.85618 0,-1.18694 -3.00971,-4.30117 -6.68827,-6.92051 -5.39082,-3.83863 -9.2229,-4.6805 -19.75424,-4.33991 -14.97796,0.48439 -32.44359,-3.6278 -48.68392,-11.46239 l -11.25767,-5.43088 -15.77104,3.50871 c -21.07218,4.68812 -35.58861,2.89566 -55.52096,-6.85563 l -15.65913,-7.66074 -12.30986,6.56108 c -6.89993,3.67762 -18.97594,7.70419 -27.47803,9.16214 -13.08812,2.24436 -17.30794,2.0966 -30.77163,-1.07747 l -15.60345,-3.67852 -11.29957,5.4511 c -16.28051,7.85397 -33.7356,11.9674 -48.72583,11.4826 -10.531334,-0.34059 -14.363408,0.50128 -19.754235,4.33991 -3.678547,2.61934 -6.688266,5.73357 -6.688266,6.92051 0,2.40945 25.198561,33.85618 27.129281,33.85618 0.67529,0 10.46398,-2.79041 21.75265,-6.2009 z M 80.084746,290.8678 c 4.668908,-3.09211 10.027345,-4.24687 19.754237,-4.25712 7.341097,-0.009 13.347457,-0.82316 13.347457,-1.81205 0,-2.63297 -55.673454,-116.22799 -56.529758,-115.3422 -1.207456,1.24904 14.393857,125.68362 15.756013,125.66848 0.695901,-0.008 4.148322,-1.92344 7.672051,-4.25711 z M 440.37807,232.67288 c 4.25109,-34.35635 7.39415,-62.80376 6.98457,-63.21645 -0.87239,-0.87901 -56.54908,112.6838 -56.54908,115.3422 0,0.98889 6.14015,1.79798 13.64477,1.79798 10.43511,0 14.83072,0.98799 18.68644,4.20014 2.77292,2.31007 6.0457,4.2321 7.27285,4.27118 1.33227,0.0425 5.34524,-25.09604 9.96045,-62.39505 l 0,0 z m -262.46904,39.70777 c 19.9465,4.66488 23.72323,4.63039 21.82421,-0.19925 -0.80823,-2.05555 -6.23305,-17.67208 -12.05518,-34.70343 -18.18256,-53.18914 -38.76077,-109.8947 -40.64864,-112.01187 -1.04892,-1.17632 -1.82477,0.16972 -1.84643,3.20339 -0.0205,2.87771 -1.92577,36.94576 -4.23384,75.70678 -2.30807,38.76102 -4.2133,72.21272 -4.23384,74.3371 -0.0328,3.38765 1.55287,3.01494 12.89711,-3.03148 l 12.93445,-6.89399 15.36216,3.59275 z m 185.23595,-66.35711 c -2.40091,-41.07942 -4.36532,-76.46655 -4.36532,-78.63805 0,-2.32932 -0.74143,-3.11633 -1.80827,-1.91939 -3.5922,4.03033 -54.08279,148.66317 -52.463,150.28296 0.56202,0.56202 6.5161,-0.24288 13.2313,-1.78869 22.61251,-5.2053 24.30726,-5.12703 36.71123,1.69545 6.42852,3.53581 11.99674,6.12027 12.37382,5.74318 0.37706,-0.37708 -1.27881,-34.29604 -3.67976,-75.37546 l 0,0 z m -125.99517,58.20401 c 6.40573,-4.08097 13.23201,-7.44453 15.16948,-7.47457 1.93748,-0.0301 8.63826,3.38786 14.89066,7.5954 6.92934,4.66309 11.68768,6.69097 12.18676,5.19366 1.0558,-3.16734 -25.83696,-158.06407 -27.44265,-158.06407 -0.66649,0 -7.24235,34.35635 -14.61301,76.34745 -7.37066,41.99111 -13.87954,78.02924 -14.46418,80.08475 -1.52819,5.37275 1.13932,4.68451 14.27294,-3.68262 l 0,0 z M 52.117265,124.21379 c 5.565544,-5.34127 5.049445,-16.92 -0.971488,-21.79546 -10.147372,-8.216837 -27.654252,-1.19471 -27.654252,11.09231 0,15.13276 17.27847,21.59317 28.62574,10.70315 z m 424.653925,-0.38421 c 8.53716,-9.78241 0.80339,-25.165173 -12.65192,-25.165173 -17.90902,0 -21.90612,24.518083 -4.96673,30.465713 5.20184,1.82643 13.60523,-0.70171 17.61865,-5.30054 z M 150.95558,85.478584 c 6.64837,-6.245822 6.42794,-15.421409 -0.53782,-22.387174 -14.16023,-14.160226 -35.62979,7.483751 -21.9099,22.087898 5.95143,6.335007 15.88205,6.467403 22.44772,0.299276 l 0,0 z m 224.75383,-0.983537 c 2.4344,-3.094842 4.42618,-7.94361 4.42618,-10.775037 0,-6.790843 -9.05882,-15.631874 -16.01695,-15.631874 -7.28267,0 -16.01695,8.897421 -16.01695,16.316133 0,14.339304 18.84715,21.228042 27.60772,10.090778 z M 262.66163,65.580096 c 6.59911,-7.024432 6.66147,-17.48965 0.13561,-22.773907 -9.75494,-7.899081 -24.03162,-2.941519 -26.94121,9.355317 -1.1037,4.664577 -0.095,7.100943 5.08365,12.279661 7.86607,7.866088 15.04828,8.242666 21.72188,1.138929 l 7e-5,0 z"
     id="path2830" />
</svg>
