<?xml version="1.0" encoding="UTF-8" standalone="no"?>
<!-- Created with Inkscape (http://www.inkscape.org/) -->

<svg
   xmlns:dc="http://purl.org/dc/elements/1.1/"
   xmlns:cc="http://creativecommons.org/ns#"
   xmlns:rdf="http://www.w3.org/1999/02/22-rdf-syntax-ns#"
   xmlns:svg="http://www.w3.org/2000/svg"
   xmlns="http://www.w3.org/2000/svg"
   xmlns:sodipodi="http://sodipodi.sourceforge.net/DTD/sodipodi-0.dtd"
   xmlns:inkscape="http://www.inkscape.org/namespaces/inkscape"
   width="64px"
   height="64px"
   id="svg2985"
   version="1.1"
   inkscape:version="0.48.1 "
   sodipodi:docname="bn.svg">
  <defs
     id="defs2987" />
  <sodipodi:namedview
     id="base"
     pagecolor="#ffffff"
     bordercolor="#666666"
     borderopacity="1.0"
     inkscape:pageopacity="0.0"
     inkscape:pageshadow="2"
     inkscape:zoom="5.5"
     inkscape:cx="10.272727"
     inkscape:cy="32"
     inkscape:current-layer="layer1"
     showgrid="true"
     inkscape:document-units="px"
     inkscape:grid-bbox="true"
     inkscape:window-width="1365"
     inkscape:window-height="878"
     inkscape:window-x="-8"
     inkscape:window-y="-8"
     inkscape:window-maximized="1" />
  <metadata
     id="metadata2990">
    <rdf:RDF>
      <cc:Work
         rdf:about="">
        <dc:format>image/svg+xml</dc:format>
        <dc:type
           rdf:resource="http://purl.org/dc/dcmitype/StillImage" />
        <dc:title></dc:title>
      </cc:Work>
    </rdf:RDF>
  </metadata>
  <g
     id="layer1"
     inkscape:label="Layer 1"
     inkscape:groupmode="layer">
    <path
       style="fill:#000000"
       d="m 4.5155087,58.368774 c 0.00357,-2.738988 2.2278284,-6.590259 4.7828635,-8.281461 1.4113738,-0.9342 3.0136908,-1.170947 6.2998678,-0.930822 l 4.40708,0.322032 0.217999,-4.16164 c 0.183322,-3.499632 -0.12211,-4.724548 -1.920059,-7.700297 -1.956178,-3.237629 -2.10437,-3.969791 -1.742041,-8.606766 0.313126,-4.007291 1.032021,-6.290594 3.434558,-10.908594 2.187229,-4.20415 3.03854,-6.740281 3.03854,-9.052082 0,-2.1608625 0.44326,-3.6168332 1.354836,-4.4502131 3.068852,-2.8056055 6.79459,-0.4771846 6.79459,4.2463188 0,1.5111923 0.333385,2.7476233 0.740856,2.7476233 0.407472,0 0.740857,-0.820041 0.740857,-1.8223143 0,-3.1532175 1.335867,-5.5963336 3.337505,-6.1038376 2.812314,-0.7130464 4.81192,1.4257632 4.81192,5.1469036 0,2.0794373 1.04939,5.0321553 3.483076,9.8004963 2.98515,5.848829 3.487771,7.466359 3.515922,11.314905 0.02759,3.771576 -0.322474,5.02967 -2.186575,7.858352 -1.907493,2.894526 -2.188835,3.951082 -2.001779,7.517528 l 0.217646,4.149662 4.705252,-0.302664 c 4.498803,-0.289384 4.825646,-0.191208 7.449134,2.237567 2.17012,2.009054 2.821876,3.239096 3.116871,5.882389 l 0.37299,3.342158 -10.785229,-0.06239 C 38.199386,60.490874 37.840246,60.435534 34.987393,58.438338 l -2.929567,-2.050902 -3.035139,2.02905 c -2.931044,1.959459 -3.403399,2.031938 -13.772622,2.11329 l -10.7374827,0.08424 0.00293,-2.245244 z M 32.295028,50.136216 c 2.444827,0 5.220339,0.283326 6.167803,0.629614 1.566493,0.572537 1.700818,0.440763 1.481713,-1.453578 -0.305468,-2.641016 -3.514925,-3.629553 -9.881217,-3.043489 -5.947148,0.547478 -7.02901,1.049018 -7.02901,3.258576 0,1.716059 0.174843,1.805351 2.407785,1.229653 1.324282,-0.341427 4.408098,-0.620776 6.852926,-0.620776 z m 1.481713,-6.72548 c 0,-1.756564 -2.195312,-2.397982 -3.749009,-1.095374 -0.843099,0.706848 -0.890885,1.145588 -0.214454,1.968954 1.260598,1.53442 3.963463,0.938687 3.963463,-0.87358 z m -1.852142,-2.845768 c 2.648564,-0.02751 5.565687,0.20094 6.482498,0.507665 1.425392,0.476877 1.666927,0.291914 1.666927,-1.276497 0,-2.242924 -1.478065,-2.732904 -8.286409,-2.746953 -6.419699,-0.01325 -8.753298,0.872013 -8.753298,3.320597 0,1.739259 0.143493,1.813783 2.037357,1.058121 1.120546,-0.447104 4.204362,-0.835424 6.852925,-0.862933 z M 43.019603,25.452069 c -0.489657,-1.653952 -1.526435,-3.911098 -2.303954,-5.015879 -2.047757,-2.909672 -3.6613,-7.98213 -3.169181,-9.962888 0.233775,-0.9409353 0.06465,-1.9358018 -0.375841,-2.2108156 -0.517681,-0.3232073 -0.800887,0.459272 -0.800887,2.2127976 0,1.492052 -0.305116,3.288753 -0.678036,3.992668 -0.511273,0.965068 0.117103,2.471568 2.55489,6.125218 1.778109,2.664954 3.660818,6.529302 4.183797,8.587442 0.854528,3.362915 0.977654,3.515948 1.215184,1.510358 0.145372,-1.227442 -0.136315,-3.584948 -0.625972,-5.238901 z"
       id="path3040"
       inkscape:connector-curvature="0" />
    <path
       style="fill:#ffffff;fill-opacity:1;fill-rule:evenodd"
       d="m 23.343701,50.918182 c -0.229753,-0.402907 -0.298434,-1.585117 -0.128707,-2.215435 0.206746,-0.767797 0.759581,-1.266543 1.791764,-1.616459 1.201365,-0.40727 5.083559,-0.814047 7.938697,-0.831818 2.52628,-0.01572 3.076984,0.03472 4.184966,0.383368 1.468784,0.462176 2.349242,1.201583 2.628655,2.207541 0.227702,0.819788 0.241574,1.971775 0.02535,2.105406 -0.08856,0.05474 -0.804472,-0.07941 -1.590909,-0.298096 -1.298511,-0.361085 -1.855857,-0.397663 -6.066247,-0.398126 -4.098451,-4.52e-4 -4.850624,0.04593 -6.483106,0.399736 -2.046882,0.443623 -2.188695,0.45989 -2.300466,0.263883 z"
       id="path3042"
       inkscape:connector-curvature="0" />
    <path
       style="fill:#ffffff;fill-opacity:1;fill-rule:evenodd"
       d="m 30.357833,44.645455 c -0.734617,-0.515923 -1.06313,-1.236248 -0.79354,-1.739981 0.324414,-0.606173 1.349474,-1.123656 2.225803,-1.123656 1.403658,0 2.177802,0.921075 1.782035,2.120261 -0.376185,1.139852 -2.086532,1.535407 -3.214298,0.743376 z"
       id="path3044"
       inkscape:connector-curvature="0" />
    <path
       style="fill:#ffffff;fill-opacity:1;fill-rule:evenodd"
       d="m 23.145826,41.180409 c -0.171401,-0.913646 0.155029,-2.147938 0.690116,-2.609457 1.376466,-1.187219 5.044637,-1.66302 10.473149,-1.358478 3.729782,0.209243 4.54567,0.391937 5.194634,1.163188 0.359532,0.427279 0.44173,0.726429 0.44173,1.607631 0,0.780134 -0.07398,1.111053 -0.264745,1.184257 -0.145609,0.05588 -0.838599,-0.02893 -1.539977,-0.188454 -1.775633,-0.403859 -6.729838,-0.568554 -9.151372,-0.304224 -1.075852,0.117439 -2.589488,0.383324 -3.363637,0.590857 -2.392247,0.641312 -2.343265,0.642997 -2.479898,-0.08532 z"
       id="path3046"
       inkscape:connector-curvature="0" />
    <path
       style="fill:#ffffff;fill-opacity:1;fill-rule:evenodd"
       d="m 42.78246,30.229327 c -0.905618,-3.234087 -2.245922,-6.072119 -4.719329,-9.992963 -1.420272,-2.251417 -2.482474,-4.352692 -2.478967,-4.903962 0.0013,-0.202821 0.15542,-0.859675 0.342512,-1.459675 0.187092,-0.6 0.394856,-1.868182 0.461698,-2.818182 0.157583,-2.2396669 0.258622,-2.7272723 0.56513,-2.7272723 0.493885,0 0.662583,0.707736 0.534723,2.2433193 -0.211747,2.543049 0.792642,5.850692 2.824656,9.302135 1.374238,2.334188 2.243007,4.22495 2.720734,5.921322 0.434592,1.543202 0.671121,4.683195 0.423123,5.617096 -0.162361,0.611413 -0.181553,0.577775 -0.67428,-1.181818 l 0,0 z"
       id="path3048"
       inkscape:connector-curvature="0" />
  </g>
</svg>
