<?xml version="1.0" encoding="UTF-8" standalone="no"?>
<!-- Created with Inkscape (http://www.inkscape.org/) -->

<svg
   xmlns:dc="http://purl.org/dc/elements/1.1/"
   xmlns:cc="http://creativecommons.org/ns#"
   xmlns:rdf="http://www.w3.org/1999/02/22-rdf-syntax-ns#"
   xmlns:svg="http://www.w3.org/2000/svg"
   xmlns="http://www.w3.org/2000/svg"
   xmlns:sodipodi="http://sodipodi.sourceforge.net/DTD/sodipodi-0.dtd"
   xmlns:inkscape="http://www.inkscape.org/namespaces/inkscape"
   width="64px"
   height="64px"
   id="svg2985"
   version="1.1"
   inkscape:version="0.48.1 "
   sodipodi:docname="bq.svg">
  <defs
     id="defs2987" />
  <sodipodi:namedview
     id="base"
     pagecolor="#ffffff"
     bordercolor="#666666"
     borderopacity="1.0"
     inkscape:pageopacity="0.0"
     inkscape:pageshadow="2"
     inkscape:zoom="7.7781746"
     inkscape:cx="30.489678"
     inkscape:cy="32.812069"
     inkscape:current-layer="layer1"
     showgrid="true"
     inkscape:document-units="px"
     inkscape:grid-bbox="true"
     inkscape:window-width="1365"
     inkscape:window-height="878"
     inkscape:window-x="-8"
     inkscape:window-y="-8"
     inkscape:window-maximized="1" />
  <metadata
     id="metadata2990">
    <rdf:RDF>
      <cc:Work
         rdf:about="">
        <dc:format>image/svg+xml</dc:format>
        <dc:type
           rdf:resource="http://purl.org/dc/dcmitype/StillImage" />
        <dc:title></dc:title>
      </cc:Work>
    </rdf:RDF>
  </metadata>
  <g
     id="layer1"
     inkscape:label="Layer 1"
     inkscape:groupmode="layer">
    <path
       style="fill:#000000"
       d="M 22.374743,58.898456 C 15.844469,57.511539 13.86773,55.018438 13.038587,47.12352 12.570311,42.664693 12.250296,41.955635 9.521976,39.331766 2.6009577,32.67571 0.63727715,23.730504 4.9314935,18.420619 9.2817659,13.041421 15.065753,12.093764 22.598542,15.526025 c 5.259434,2.396424 7.186241,2.545772 7.186241,0.557011 0,-1.127588 -0.606177,-1.489234 -2.798625,-1.669662 -2.429717,-0.199954 -2.829754,-0.499313 -3.034772,-2.271011 -0.222838,-1.925689 -0.06764,-2.04819 2.753575,-2.040697 17.114465,0.04546 3.059882,10.444207 3.358928,-0.8022786 0.031,-1.1659395 -0.0012,-2.3895824 -0.0012,-2.3895824 0.201093,-2.4159505 -0.179664,-2.2228123 1.602132,-2.4266685 1.941148,-0.2220883 2.597781,-0.2531602 2.597781,2.6009515 l 0,3.017578 2.9852,0 c 2.819357,0 2.985201,0.123678 2.985201,2.226215 0,2.102537 -0.165844,2.226216 -2.985201,2.226216 -2.487667,0 -2.9852,0.247357 -2.9852,1.484143 0,2.083163 2.32286,1.915519 7.350877,-0.530524 10.338726,-5.029608 19.743788,-0.370043 19.720585,9.770202 -0.01117,4.880432 -1.590755,8.461796 -5.654909,12.821254 -3.277819,3.515989 -3.996397,5.361398 -5.367635,13.784836 -0.607535,3.732054 -3.208386,5.877228 -8.406855,6.933946 -5.004914,1.017373 -14.926109,1.058268 -19.529905,0.0805 z m -1.172412,-5.364188 c 3.938929,-1.411009 16.933463,-1.467773 21.524095,-0.09402 l 3.476961,1.040483 0,-2.191456 c 0,-3.354298 -3.568411,-4.512299 -13.995339,-4.54169 -10.318432,-0.02909 -14.364068,1.312943 -14.364068,4.764882 0,1.162433 0.08396,2.108487 0.186575,2.102342 0.102617,-0.0062 1.529916,-0.492387 3.171776,-1.080541 z m -1.149172,-6.664435 c 1.228733,-1.472145 0.331435,-3.865455 -1.641579,-4.378486 -2.151332,-0.559399 -2.327369,-0.274143 -1.742817,2.824131 0.520588,2.759253 1.863817,3.376159 3.384396,1.554355 z m 27.234746,-1.595582 c 0.593809,-3.147342 0.480896,-3.337539 -1.652117,-2.782904 -2.245628,0.583917 -2.97868,3.212769 -1.24697,4.471851 1.999138,1.453523 2.344115,1.252547 2.899087,-1.688947 z M 34.679669,44.65147 c 1.98503,-1.465679 0.601123,-3.67468 -2.495089,-3.982679 -2.935104,-0.291973 -4.569991,2.046344 -2.71816,3.887682 1.460093,1.451821 3.329511,1.485886 5.213249,0.095 z m -9.136857,-6.416561 c 5.084635,-0.707274 7.877109,-0.707274 12.961744,0 3.564481,0.495821 7.064747,1.212202 7.778372,1.591959 2.813436,1.497174 11.118374,-8.78643 11.112173,-13.759668 -0.0075,-6.028681 -6.002032,-9.669764 -12.07314,-7.333257 -1.772773,0.682264 -4.01933,1.941018 -4.992347,2.797231 -2.058997,1.811827 -4.574429,7.190332 -4.574429,9.781061 0,1.653396 -0.28667,1.793658 -3.665903,1.793658 l -3.665902,0 -0.526997,-3.153805 C 26.900049,23.989537 24.107676,20.571114 18.677231,18.665996 9.3230356,15.384342 3.6204716,24.157453 9.3526338,33.011424 c 2.3296342,3.598383 7.1933202,7.463863 8.5098132,6.763289 0.65972,-0.351071 4.115884,-1.043983 7.680365,-1.539804 z M 15.145378,33.704771 c -4.248004,-4.703606 -5.1461803,-8.258601 -2.65331,-10.501836 3.857759,-3.471444 10.718697,1.176951 11.835267,8.01858 0.367533,2.25201 0.231888,2.435571 -2.112426,2.85865 -1.377848,0.24866 -3.184272,0.651118 -4.014275,0.894351 -1.022229,0.299564 -2.00792,-0.110082 -3.055256,-1.269745 z m 28.072809,0.679962 c -1.847093,-0.423028 -3.457431,-0.843205 -3.57853,-0.933726 -0.121098,-0.09052 0.170716,-1.708173 0.648477,-3.594782 1.666188,-6.579545 8.775785,-10.283473 11.57757,-6.031636 0.805607,1.222546 1.047577,2.528608 0.713598,3.851745 -0.52416,2.076586 -4.632807,7.72318 -5.50575,7.566659 -0.273358,-0.04901 -2.008272,-0.435231 -3.855365,-0.85826 z M 32.769984,22.716887 c 0,-0.408139 -0.355655,-0.742072 -0.790344,-0.742072 -0.43469,0 -0.582788,0.333933 -0.329106,0.742072 0.253681,0.40814 0.609336,0.742072 0.790344,0.742072 0.181009,0 0.329106,-0.333932 0.329106,-0.742072 z"
       id="path3084"
       inkscape:connector-curvature="0"
       sodipodi:nodetypes="ssssssssssssscsssssssssssscssscssssssssssssssssssssscsssssssssssssssscssssss" />
    <path
       style="fill:#ffffff;fill-opacity:1;fill-rule:evenodd"
       d="m 17.970886,54.247813 c -0.151358,-0.603058 0.0075,-2.805734 0.233029,-3.231448 0.543812,-1.02644 1.925346,-1.899611 3.739814,-2.363673 4.278657,-1.094297 16.08788,-1.124727 20.391372,-0.05255 1.835653,0.457339 3.009011,1.196294 3.495599,2.201451 0.24091,0.497655 0.3032,0.879476 0.347871,2.132381 0.05158,1.446592 0.04183,1.522272 -0.186916,1.451226 -4.656831,-1.446367 -5.7824,-1.642573 -10.857951,-1.892724 -3.513489,-0.173165 -8.280436,0.0028 -11.101279,0.409704 -1.552358,0.223946 -4.179813,0.950856 -5.757455,1.592853 -0.16543,0.06732 -0.240446,0.0063 -0.304084,-0.247224 z"
       id="path3097"
       inkscape:connector-curvature="0" />
    <path
       style="fill:#ffffff;fill-opacity:1;fill-rule:evenodd"
       d="m 17.90935,47.686888 c -0.559728,-0.304463 -0.996403,-1.307112 -1.268801,-2.913292 -0.245388,-1.446923 -0.233055,-2.144872 0.04114,-2.327842 0.240394,-0.160417 1.066797,-0.108442 1.711973,0.107672 1.108574,0.371337 1.811077,1.084062 2.096688,2.127195 0.288262,1.052813 -0.415671,2.487791 -1.464556,2.985519 -0.529571,0.251298 -0.687211,0.254228 -1.116441,0.02075 l 0,0 z"
       id="path3099"
       inkscape:connector-curvature="0" />
    <path
       style="fill:#ffffff;fill-opacity:1;fill-rule:evenodd"
       d="m 30.643955,45.294256 c -1.011851,-0.457496 -1.928473,-1.573299 -1.928473,-2.34753 0,-1.38946 1.638131,-2.424042 3.50393,-2.212951 2.428332,0.274735 3.855187,1.729181 3.110024,3.170166 -0.226994,0.438959 -1.533384,1.334069 -2.229082,1.527318 -0.756117,0.210033 -1.820102,0.15069 -2.456399,-0.137003 z"
       id="path3101"
       inkscape:connector-curvature="0" />
    <path
       style="fill:#ffffff;fill-opacity:1;fill-rule:evenodd"
       d="m 45.107503,47.405816 c -1.522478,-0.985619 -1.952902,-2.03477 -1.365402,-3.328148 0.459037,-1.010567 1.49644,-1.610558 2.843898,-1.644792 l 0.835672,-0.02123 0.04072,0.642824 c 0.05397,0.851948 -0.315339,3.036581 -0.662884,3.921229 -0.258188,0.657198 -0.309555,0.70908 -0.727772,0.735073 -0.30184,0.01876 -0.619277,-0.08163 -0.964237,-0.304954 z"
       id="path3103"
       inkscape:connector-curvature="0" />
    <path
       style="fill:#ffffff;fill-opacity:1;fill-rule:evenodd"
       d="m 46.007457,39.696133 c -2.450859,-0.907308 -10.011188,-1.977107 -13.972331,-1.977107 -3.482925,0 -9.357626,0.74763 -12.769161,1.625038 -1.839963,0.473216 -1.919504,0.48113 -2.578635,0.256541 C 14.97146,39.01595 11.164275,35.62852 9.659728,33.34782 7.780584,30.499281 6.9919321,27.961741 7.1624044,25.312516 c 0.1353597,-2.103557 0.881338,-3.828015 2.234497,-5.165426 2.4361226,-2.40777 6.2092916,-2.754706 10.4476046,-0.960637 2.705478,1.145223 4.765849,2.8674 6.055964,5.061923 1.027304,1.747478 1.667028,3.873822 2.244458,7.460242 l 0.22252,1.382073 2.986375,0 c 3.266573,0 3.643911,-0.03772 4.036573,-0.403544 0.29821,-0.277824 0.320729,-0.36667 0.500555,-1.974906 0.157719,-1.410507 0.587568,-2.721443 1.564504,-4.771367 1.254765,-2.632898 2.401864,-4.119569 3.988511,-5.169218 1.081842,-0.715694 3.149784,-1.731224 4.364204,-2.143184 3.433994,-1.16489 7.01739,-0.427675 9.327393,1.918934 2.065948,2.098685 2.698316,5.026249 1.721287,7.968733 -1.292729,3.893262 -5.592245,9.409183 -8.526279,10.938506 -0.950475,0.495422 -1.486627,0.551154 -2.323114,0.241488 l 0,0 z m 1.768747,-4.813353 c 1.129115,-0.930712 3.367745,-4.052316 4.326167,-6.032518 0.559342,-1.155661 0.590083,-1.276182 0.590265,-2.314168 1.29e-4,-0.928672 -0.05404,-1.210829 -0.356848,-1.85742 -0.527557,-1.12651 -1.135409,-1.795833 -2.042594,-2.249159 -1.331882,-0.665549 -3.012105,-0.532315 -4.711824,0.373626 -2.648374,1.411569 -4.582306,4.106207 -5.445658,7.587687 -0.219189,0.883884 -0.405143,1.949511 -0.413229,2.36806 l -0.0147,0.760998 1.157084,0.31505 c 1.499616,0.408313 5.837526,1.412057 6.173962,1.428586 0.142988,0.007 0.474808,-0.16431 0.737379,-0.380742 z M 19.223972,34.773867 c 0.871624,-0.205624 2.27347,-0.52211 3.115212,-0.703301 1.09974,-0.236728 1.619497,-0.411918 1.846889,-0.622516 0.301282,-0.279034 0.313032,-0.345441 0.245214,-1.385878 -0.283883,-4.35521 -3.559984,-8.747076 -7.339179,-9.838733 -1.111288,-0.321007 -2.621356,-0.216664 -3.519755,0.243208 -2.028407,1.0383 -2.904909,3.020543 -2.282429,5.161801 0.463175,1.593264 1.793817,3.769163 3.451861,5.644566 0.882921,0.998667 1.454666,1.456231 2.113327,1.691285 0.642451,0.229267 0.562564,0.23569 2.36886,-0.190432 z"
       id="path3105"
       inkscape:connector-curvature="0" />
    <path
       style="fill:#ffffff;fill-opacity:1;fill-rule:evenodd"
       d="m 31.942923,22.993875 c -0.602649,-0.686379 -0.462816,-1.100455 0.306423,-0.907388 0.357409,0.0897 0.52666,0.531203 0.398853,1.040426 -0.107778,0.429422 -0.232005,0.405988 -0.705276,-0.133038 z"
       id="path3107"
       inkscape:connector-curvature="0" />
  </g>
</svg>
