<?xml version="1.0" encoding="UTF-8" standalone="no"?>
<!-- Created with Inkscape (http://www.inkscape.org/) -->

<svg
   xmlns:dc="http://purl.org/dc/elements/1.1/"
   xmlns:cc="http://creativecommons.org/ns#"
   xmlns:rdf="http://www.w3.org/1999/02/22-rdf-syntax-ns#"
   xmlns:svg="http://www.w3.org/2000/svg"
   xmlns="http://www.w3.org/2000/svg"
   xmlns:sodipodi="http://sodipodi.sourceforge.net/DTD/sodipodi-0.dtd"
   xmlns:inkscape="http://www.inkscape.org/namespaces/inkscape"
   width="64px"
   height="64px"
   id="svg2985"
   version="1.1"
   inkscape:version="0.48.1 "
   sodipodi:docname="wn.svg">
  <defs
     id="defs2987" />
  <sodipodi:namedview
     id="base"
     pagecolor="#ffffff"
     bordercolor="#666666"
     borderopacity="1.0"
     inkscape:pageopacity="0.0"
     inkscape:pageshadow="2"
     inkscape:zoom="7.7781746"
     inkscape:cx="50.362779"
     inkscape:cy="32.812069"
     inkscape:current-layer="layer1"
     showgrid="true"
     inkscape:document-units="px"
     inkscape:grid-bbox="true"
     inkscape:window-width="1365"
     inkscape:window-height="878"
     inkscape:window-x="-8"
     inkscape:window-y="-8"
     inkscape:window-maximized="1" />
  <metadata
     id="metadata2990">
    <rdf:RDF>
      <cc:Work
         rdf:about="">
        <dc:format>image/svg+xml</dc:format>
        <dc:type
           rdf:resource="http://purl.org/dc/dcmitype/StillImage" />
        <dc:title></dc:title>
      </cc:Work>
    </rdf:RDF>
  </metadata>
  <g
     id="layer1"
     inkscape:label="Layer 1"
     inkscape:groupmode="layer">
    <path
       style="fill:#000000"
       d="m 4.6661591,57.203822 c 0.00546,-7.083616 4.85483,-11.263117 11.9670479,-10.313983 l 3.537369,0.472066 -0.02305,-3.554221 c -0.01587,-2.447319 -0.589624,-4.479637 -1.842309,-6.525701 -3.181906,-5.197146 -2.44861,-12.300865 2.06679,-20.021754 1.383378,-2.36544 2.294339,-5.149889 2.551897,-7.8001385 0.486847,-5.009641 1.168344,-5.9787042 4.204551,-5.9787042 3.150792,0 4.118673,1.16964 4.118673,4.9772306 0,1.7568891 0.332296,3.1943421 0.738437,3.1943421 0.40614,0 0.738437,-0.981112 0.738437,-2.1802495 0,-4.1620551 1.189354,-5.9913232 3.895439,-5.9913232 3.224,0 4.226983,1.1363498 4.229158,4.7915131 0.0013,2.1253156 1.010919,4.9715356 3.438963,9.6944576 3.019508,5.873413 3.443298,7.272579 3.487598,11.514488 0.04224,4.044556 -0.276375,5.338941 -1.962088,7.971093 -1.443622,2.25414 -2.012515,4.104444 -2.012515,6.545633 l 0,3.403196 3.267595,-0.492948 c 3.970643,-0.59901 7.717247,0.5315 10.053905,3.033691 1.304569,1.396988 1.802833,2.946601 2.049202,6.37308 0.322896,4.490788 0.311364,4.522568 -1.430486,3.941931 -0.965803,-0.321947 -6.083281,-0.608774 -11.372173,-0.637394 -8.913466,-0.04823 -9.746551,-0.174179 -11.400406,-1.723495 -0.98133,-0.919302 -2.17521,-1.671458 -2.653067,-1.671458 -0.477857,0 -1.819829,0.752156 -2.982162,1.671458 -1.937985,1.532776 -2.911236,1.675057 -11.729967,1.714841 -5.28915,0.02386 -10.3643032,0.297106 -11.278119,0.607213 -1.5708628,0.533079 -1.6613297,0.368648 -1.6587199,-3.014864 z M 25.84539,55.37614 27.924164,54.527106 25.708853,53.978908 c -1.218421,-0.301509 -3.516592,-1.11714 -5.107046,-1.812513 -4.221261,-1.845605 -9.145026,-1.878905 -10.459498,-0.07074 -2.3630613,3.250587 -2.241818,3.294915 10.903241,3.986383 1.496587,0.07872 3.656515,-0.23893 4.79984,-0.705898 z m 29.645381,-0.289839 c 0.653522,-0.58717 -1.657905,-3.472089 -3.278504,-4.091939 -1.925645,-0.736524 -7.9927,0.241837 -9.546992,1.539529 -0.454555,0.379511 -2.129627,0.985595 -3.722384,1.346854 -2.857805,0.648187 -2.871622,0.667728 -1.049827,1.484656 1.59283,0.714257 16.759829,0.473708 17.597707,-0.2791 z M 33.093223,50.282212 c 0.251009,-0.408578 -0.247436,-0.74287 -1.107655,-0.74287 -0.86022,0 -1.358665,0.334292 -1.107656,0.74287 0.251009,0.408579 0.749454,0.74287 1.107656,0.74287 0.358201,0 0.856646,-0.334291 1.107655,-0.74287 z m 6.863599,-6.64286 c -0.18981,-2.229825 -0.548429,-2.643902 -2.802195,-3.235535 -1.421492,-0.373154 -4.724649,-0.509451 -7.340351,-0.302881 -5.024044,0.396764 -6.689767,1.533619 -6.690141,4.566017 -1.79e-4,1.455742 0.410787,1.529473 8.525082,1.529473 l 8.52527,0 -0.217665,-2.557074 z M 30.5857,44.402849 c -1.55599,-0.991161 -0.380239,-3.03508 1.74591,-3.03508 1.341762,0 1.869269,0.396847 1.869269,1.406262 0,0.773444 -0.525623,1.609173 -1.16805,1.857175 -1.414797,0.546168 -1.199721,0.566238 -2.447129,-0.228357 z m 2.712758,-7.672909 6.851168,0.04295 -0.479651,-2.716936 C 38.895529,29.669182 36.360248,24.149497 33.521518,20.669846 28.561774,14.590302 28.049816,13.714019 27.879472,11.012741 27.632214,7.0917959 27.623987,7.0651276 26.816509,7.5671727 c -0.406141,0.2525157 -0.738437,1.9594488 -0.738437,3.7931863 0,2.492132 -0.745895,4.701284 -2.953748,8.748258 -3.510952,6.43554 -3.930681,10.950576 -1.400813,15.068563 1.245861,2.027949 1.866432,2.427141 3.138357,2.018797 0.871982,-0.279945 4.668448,-0.489661 8.43659,-0.466037 z m 9.806929,-11.429563 c -0.474142,-2.131409 -1.329888,-4.26587 -1.901659,-4.743245 -1.429144,-1.193205 -4.178826,-8.802645 -3.718906,-10.291662 0.20599,-0.6669065 0.09818,-1.654994 -0.23957,-2.1957501 -0.383862,-0.6145765 -0.769055,0.7359631 -1.027408,3.6022351 -0.395801,4.391172 -0.289602,4.777978 2.506856,9.130616 1.606091,2.499855 3.308607,6.060369 3.78337,7.912255 1.191509,4.647676 1.719444,1.629844 0.597317,-3.414449 z"
       id="path3169"
       inkscape:connector-curvature="0" />
    <path
       style="fill:#ffffff;fill-opacity:1;fill-rule:evenodd"
       d="m 17.411603,55.83605 c -6.729348,-0.42364 -8.1694669,-0.676038 -8.3678789,-1.466575 -0.142294,-0.566944 1.0690899,-2.417156 1.8870099,-2.882132 1.469393,-0.835329 4.638379,-0.864737 7.391931,-0.0686 0.418155,0.120902 1.657021,0.566614 2.753036,0.99047 2.115823,0.81824 4.596882,1.628474 5.817561,1.899827 0.406586,0.09038 0.739038,0.198516 0.738784,0.240297 -6.43e-4,0.110491 -1.990825,0.869607 -2.892246,1.103208 -0.424264,0.109948 -1.205295,0.229491 -1.735626,0.265652 -0.53033,0.03616 -1.195653,0.08346 -1.478496,0.10511 -0.282842,0.02165 -2.134176,-0.06262 -4.114075,-0.187261 l 0,0 z"
       id="path3171"
       inkscape:connector-curvature="0" />
    <path
       style="fill:#ffffff;fill-opacity:1;fill-rule:evenodd"
       d="m 31.202213,50.582841 c -0.346125,-0.311915 -0.395186,-0.418592 -0.279351,-0.60741 0.272076,-0.443503 1.906049,-0.475738 2.17357,-0.04288 0.112112,0.181402 -0.279419,0.711159 -0.650592,0.880276 -0.507501,0.231234 -0.789743,0.179038 -1.243627,-0.229986 z"
       id="path3173"
       inkscape:connector-curvature="0" />
    <path
       style="fill:#ffffff;fill-opacity:1;fill-rule:evenodd"
       d="m 39.486615,55.584685 c -1.165591,-0.111833 -2.726,-0.635829 -2.726,-0.91541 0,-0.173309 0.434046,-0.324554 2.154236,-0.750652 1.963776,-0.486436 2.824079,-0.801772 3.888313,-1.425226 1.791561,-1.049539 4.258071,-1.596472 7.199633,-1.596472 1.850631,0 2.034017,0.02181 2.571297,0.305808 1.19475,0.631526 2.956992,2.769091 2.956992,3.586774 0,0.342992 -0.434053,0.469082 -2.314167,0.672254 -1.697031,0.183388 -12.126892,0.276763 -13.730304,0.122924 l 0,0 z"
       id="path3175"
       inkscape:connector-curvature="0" />
    <path
       style="fill:#ffffff;fill-opacity:1;fill-rule:evenodd"
       d="m 26.925403,46.066542 c -1.414214,-0.05139 -2.740942,-0.145772 -2.948285,-0.209743 -0.207343,-0.06397 -0.491526,-0.269724 -0.631519,-0.45723 -0.236822,-0.317196 -0.244155,-0.414303 -0.105387,-1.395561 0.239341,-1.69243 0.864199,-2.474878 2.46094,-3.081592 1.796879,-0.68276 5.688914,-1.030851 8.828377,-0.789582 2.817202,0.216504 4.323538,0.690253 4.883283,1.535814 0.282408,0.426609 0.47815,1.492578 0.638109,3.474999 l 0.08558,1.06066 -5.319902,-0.02217 c -2.925946,-0.01219 -6.476985,-0.06421 -7.891199,-0.115599 z m 5.978266,-1.376998 c 0.868073,-0.428971 1.280361,-1.069623 1.283534,-1.994473 0.0029,-0.835503 -0.353031,-1.193219 -1.305558,-1.312229 -1.278744,-0.159769 -2.508871,0.400157 -2.891617,1.316197 -0.330436,0.790845 0.002,1.411015 1.113733,2.077466 0.589086,0.353152 0.943986,0.336005 1.799908,-0.08696 l 0,0 z"
       id="path3177"
       inkscape:connector-curvature="0" />
    <path
       style="fill:#ffffff;fill-opacity:1;fill-rule:evenodd"
       d="m 23.711281,37.224092 c -0.51536,-0.167574 -0.858037,-0.487425 -1.466977,-1.369257 -2.159429,-3.127165 -2.610472,-6.334366 -1.437411,-10.220907 0.520715,-1.725213 1.07444,-2.993772 2.749804,-6.299678 2.087146,-4.118456 2.327677,-4.932986 2.657564,-8.999541 0.0717,-0.8838837 0.200363,-1.830306 0.285911,-2.1031609 0.16576,-0.5286901 0.675325,-0.9765754 0.879158,-0.7727422 0.141799,0.141799 0.333079,1.5460501 0.4523,3.3204931 0.186922,2.782082 0.617803,3.594993 4.445522,8.387043 2.196253,2.749562 3.07876,4.054169 4.220969,6.239843 1.878462,3.594536 2.663424,6.021127 3.535922,10.930769 l 0.06283,0.353553 -4.914392,0.0013 c -5.299279,0.0013 -8.754842,0.155251 -10.185552,0.453663 -0.494975,0.103239 -0.928881,0.181988 -0.964237,0.174997 -0.03535,-0.007 -0.17999,-0.05033 -0.321412,-0.09632 l 0,-4.3e-5 z"
       id="path3179"
       inkscape:connector-curvature="0" />
    <path
       style="fill:#ffffff;fill-opacity:1;fill-rule:evenodd"
       d="m 43.250336,30.771985 c -0.04524,-0.07321 -0.370838,-1.01178 -0.723542,-2.085717 -0.821727,-2.502053 -2.114998,-5.170247 -4.034394,-8.323499 -1.95236,-3.20741 -2.26467,-3.937821 -2.346456,-5.487753 -0.120411,-2.281883 0.464798,-6.8544749 0.877248,-6.8544749 0.308582,0 0.442875,0.648347 0.452707,2.1856029 0.0079,1.236958 0.07729,1.85873 0.301246,2.699862 0.736192,2.764951 2.275531,6.332384 3.218144,7.45808 0.793803,0.947984 1.386342,2.312227 1.925918,4.434171 0.52348,2.05865 0.887604,4.947245 0.719886,5.710863 -0.08822,0.401663 -0.241321,0.504655 -0.390757,0.262865 l 0,0 z"
       id="path3181"
       inkscape:connector-curvature="0" />
  </g>
</svg>
