<?xml version="1.0" encoding="UTF-8" standalone="no"?>
<!-- Created with Inkscape (http://www.inkscape.org/) -->

<svg
   xmlns:dc="http://purl.org/dc/elements/1.1/"
   xmlns:cc="http://creativecommons.org/ns#"
   xmlns:rdf="http://www.w3.org/1999/02/22-rdf-syntax-ns#"
   xmlns:svg="http://www.w3.org/2000/svg"
   xmlns="http://www.w3.org/2000/svg"
   xmlns:sodipodi="http://sodipodi.sourceforge.net/DTD/sodipodi-0.dtd"
   xmlns:inkscape="http://www.inkscape.org/namespaces/inkscape"
   width="64px"
   height="64px"
   id="svg2985"
   version="1.1"
   inkscape:version="0.48.1 "
   sodipodi:docname="wq.svg">
  <defs
     id="defs2987" />
  <sodipodi:namedview
     id="base"
     pagecolor="#ffffff"
     bordercolor="#666666"
     borderopacity="1.0"
     inkscape:pageopacity="0.0"
     inkscape:pageshadow="2"
     inkscape:zoom="7.7781746"
     inkscape:cx="50.362779"
     inkscape:cy="32.812069"
     inkscape:current-layer="layer1"
     showgrid="true"
     inkscape:document-units="px"
     inkscape:grid-bbox="true"
     inkscape:window-width="1365"
     inkscape:window-height="878"
     inkscape:window-x="-8"
     inkscape:window-y="-8"
     inkscape:window-maximized="1" />
  <metadata
     id="metadata2990">
    <rdf:RDF>
      <cc:Work
         rdf:about="">
        <dc:format>image/svg+xml</dc:format>
        <dc:type
           rdf:resource="http://purl.org/dc/dcmitype/StillImage" />
        <dc:title></dc:title>
      </cc:Work>
    </rdf:RDF>
  </metadata>
  <g
     id="layer1"
     inkscape:label="Layer 1"
     inkscape:groupmode="layer">
    <path
       style="fill:#000000"
       d="M 21.160268,58.951736 C 15.49407,57.587048 13.810671,55.276521 12.982869,47.727956 12.506732,43.386157 12.125393,42.547505 9.2156408,39.442968 4.5409887,34.455383 2.6146522,30.302263 2.6071672,25.19531 2.6021415,21.766282 2.9747282,20.464462 4.5517116,18.401066 8.7230965,12.943038 16.013823,11.84143 23.028656,15.609252 c 5.181715,2.783214 6.726196,2.875604 6.726196,0.402355 0,-1.678186 -0.298942,-1.864651 -2.989421,-1.864651 -2.690478,0 -2.98942,-0.186465 -2.98942,-1.86465 0,-1.678186 0.298942,-1.864651 2.98942,-1.864651 2.989421,0 2.989421,0 2.989421,-2.9834399 0,-2.817694 0.124559,-2.9834407 2.242065,-2.9834407 2.117506,0 2.242065,0.1657467 2.242065,2.9834407 0,2.9834399 0,2.9834399 2.989421,2.9834399 2.690478,0 2.98942,0.186465 2.98942,1.864651 0,1.678185 -0.298942,1.86465 -2.98942,1.86465 -2.690479,0 -2.989421,0.186465 -2.989421,1.864651 0,2.48536 1.347268,2.397751 7.17753,-0.466737 6.02126,-2.958326 11.349121,-2.832437 15.552853,0.367492 3.575655,2.72183 4.423518,4.544957 4.423518,9.511725 0,4.94512 -1.939284,9.229645 -6.205125,13.709185 -2.789751,2.929505 -3.729321,5.468061 -4.901113,13.241964 -0.545371,3.618096 -2.64429,5.504393 -7.2129,6.482225 -4.083639,0.874032 -18.419838,0.935708 -21.913477,0.09427 z m 20.956673,-4.577954 c 0.270941,-0.437515 0.262611,-1.02488 -0.01851,-1.305255 -0.66633,-0.664555 -19.538611,-0.663422 -20.204578,0.0012 -1.543684,1.540597 1.145921,2.099526 10.103066,2.099526 6.012482,0 9.812373,-0.29869 10.120024,-0.795483 z M 24.523366,48.436429 c 5.244417,-0.993093 11.981759,-0.832146 16.719489,0.399408 2.380669,0.618844 4.637341,0.934674 5.014826,0.701842 1.04231,-0.642895 0.819885,-1.827016 -0.343185,-1.827016 -0.566238,0 -1.43035,-0.482 -1.92025,-1.071113 -1.204647,-1.448608 0.246089,-4.149908 2.228712,-4.149908 2.504993,0 1.614456,-2.070801 -1.334166,-3.102393 -3.786622,-1.324771 -21.997128,-1.324771 -25.78375,0 -2.877069,1.006559 -3.861583,3.102393 -1.457343,3.102393 3.002819,0 4.355717,3.989205 1.644182,4.848091 -0.822091,0.2604 -1.494711,0.993438 -1.494711,1.628973 0,0.856477 0.435177,1.019787 1.681549,0.631042 0.924852,-0.288462 3.194943,-0.811056 5.044647,-1.161319 z m 4.900274,-3.87504 c -1.06628,-1.519281 -1.048767,-1.771881 0.209923,-3.028054 0.967577,-0.965642 1.945064,-1.227268 3.308933,-0.885644 2.685567,0.672686 3.266507,2.637476 1.259421,4.259465 -2.155749,1.742128 -3.37484,1.653912 -4.778277,-0.345767 z M 55.990107,30.92881 c 1.94208,-4.186304 1.792491,-7.271586 -0.483437,-9.970964 -3.587462,-4.254928 -10.792629,-3.719995 -15.43604,1.146016 -2.311314,2.422116 -4.336938,6.833747 -4.336938,9.445471 0,1.56736 0.436718,1.846418 3.549937,2.268377 4.847384,0.657004 10.64981,2.645881 10.64981,3.650397 0,1.511557 4.651734,-3.510854 6.056668,-6.539297 z m -39.218896,4.885553 c 2.107517,-0.799428 5.554693,-1.681592 7.66039,-1.960364 4.229417,-0.55993 4.381397,-0.858249 3.010174,-5.90863 -1.027637,-3.784914 -5.150981,-8.089345 -8.946593,-9.339504 -3.766798,-1.240669 -8.375323,-0.01337 -10.16061,2.705867 -1.4342161,2.184513 -1.5561988,7.529795 -0.2304276,10.097348 0.6721234,1.301666 4.3991276,5.862277 4.7882026,5.859165 0.02586,-2.07e-4 1.771347,-0.654454 3.878864,-1.453882 z M 32.744272,22.351418 c 0,-0.410223 -0.33631,-0.74586 -0.747355,-0.74586 -0.411045,0 -0.747355,0.335637 -0.747355,0.74586 0,0.410223 0.33631,0.74586 0.747355,0.74586 0.411045,0 0.747355,-0.335637 0.747355,-0.74586 z"
       id="path3229"
       inkscape:connector-curvature="0" />
    <path
       style="fill:#ffffff;fill-opacity:1;fill-rule:evenodd"
       d="m 25.20787,54.940348 c -2.493488,-0.236975 -3.523279,-0.56881 -3.591853,-1.157421 -0.112892,-0.96901 0.918684,-1.07585 10.387698,-1.07585 9.458505,0 10.28519,0.08268 10.28519,1.028605 0,1.06668 -1.167333,1.22345 -9.5138,1.277676 -3.500179,0.02274 -6.905434,-0.01011 -7.567235,-0.07301 z"
       id="path3231"
       inkscape:connector-curvature="0" />
    <path
       style="fill:#ffffff;fill-opacity:1;fill-rule:evenodd"
       d="m 17.914374,49.354147 c -0.1974,-0.786505 0.28949,-1.450434 1.494229,-2.037548 0.690893,-0.336698 0.881719,-0.502974 1.128968,-0.983727 0.507334,-0.986466 0.156023,-2.236568 -0.877031,-3.120824 -0.540464,-0.462617 -1.119989,-0.668398 -2.27079,-0.806323 -1.205089,-0.144431 -1.359429,-0.805167 -0.402796,-1.724386 1.073617,-1.031627 2.303355,-1.445231 5.438679,-1.829218 2.120752,-0.259731 2.905157,-0.283962 9.385235,-0.289914 7.379401,-0.0068 9.79377,0.123832 12.213663,0.660725 2.288429,0.507726 4.178881,2.095387 3.410239,2.864028 -0.133453,0.133453 -0.591641,0.278502 -1.134059,0.359008 -1.192381,0.176975 -1.93043,0.669229 -2.391929,1.595338 -0.38264,0.767858 -0.442814,1.708659 -0.145999,2.282637 0.360035,0.696232 1.489758,1.423143 2.211766,1.423143 0.342782,0 0.942691,0.521808 0.942691,0.819963 0,0.103855 -0.156315,0.374598 -0.347368,0.601651 l -0.347367,0.412823 -1.045331,-0.07377 c -0.574932,-0.04057 -2.110853,-0.307319 -3.413156,-0.592768 -2.977023,-0.652528 -4.34445,-0.866387 -6.610463,-1.033842 -4.927892,-0.364164 -9.016321,0.0216 -14.360584,1.354991 -0.968675,0.241684 -1.994485,0.439426 -2.279577,0.439426 -0.445685,0 -0.529659,-0.04506 -0.59902,-0.321412 z m 15.169695,-3.637448 c 0.35475,-0.191435 0.973969,-0.668829 1.376043,-1.060876 0.841372,-0.820393 1.087548,-1.432482 0.882457,-2.194131 -0.275252,-1.022206 -1.900271,-1.941456 -3.422922,-1.936299 -1.111559,0.0038 -1.849356,0.416648 -2.81951,1.577848 -0.580749,0.695111 -0.57478,1.135357 0.02773,2.045744 1.340615,2.025643 2.359447,2.429373 3.956197,1.567714 l 0,0 z"
       id="path3233"
       inkscape:connector-curvature="0" />
    <path
       style="fill:#ffffff;fill-opacity:1;fill-rule:evenodd"
       d="m 49.90076,37.346705 c -0.469971,-1.061739 -5.009903,-2.602435 -10.475641,-3.555071 -2.566592,-0.447336 -3.20377,-0.644394 -3.413973,-1.055827 -0.562432,-1.100858 0.01204,-3.837144 1.376392,-6.555932 1.609539,-3.207381 3.656512,-5.385933 6.301496,-6.706559 2.027819,-1.012478 3.617763,-1.360404 5.771233,-1.262914 2.321158,0.105081 3.8333,0.710781 5.350958,2.143365 1.33222,1.257542 2.162971,2.809118 2.405232,4.492197 0.221502,1.53886 -0.287207,3.978764 -1.256937,6.028606 -0.51837,1.095745 -1.957979,3.16927 -3.125376,4.501603 -0.988913,1.128631 -2.356508,2.342596 -2.639257,2.342772 -0.07113,4.5e-5 -0.203485,-0.167464 -0.294127,-0.37224 z"
       id="path3235"
       inkscape:connector-curvature="0" />
    <path
       style="fill:#ffffff;fill-opacity:1;fill-rule:evenodd"
       d="M 11.835268,36.18582 C 9.9722876,34.07165 8.3155215,31.820718 7.9125769,30.856336 7.4865579,29.836729 7.2780942,28.431444 7.2809085,26.598165 c 0.00611,-3.978712 0.9753306,-5.999577 3.5068345,-7.311877 2.124365,-1.101244 4.81039,-1.395088 7.138119,-0.780889 3.290465,0.868227 7.099514,4.23294 8.777211,7.753325 1.17429,2.464061 1.759146,5.871113 1.127627,6.568932 -0.316314,0.349524 -1.474499,0.696409 -3.219465,0.964253 -3.062405,0.470064 -5.320949,1.080212 -9.063823,2.448604 -1.449569,0.52996 -2.675783,0.96372 -2.724921,0.963909 -0.04914,1.28e-4 -0.493388,-0.458181 -0.987223,-1.018602 z"
       id="path3237"
       inkscape:connector-curvature="0" />
    <path
       style="fill:#ffffff;fill-opacity:1;fill-rule:evenodd"
       d="m 31.56224,22.891898 c -0.490155,-0.35841 -0.164973,-1.243481 0.456865,-1.243481 0.546972,0 0.830286,0.807301 0.425404,1.212183 -0.246948,0.246949 -0.571599,0.258466 -0.882269,0.0313 z"
       id="path3239"
       inkscape:connector-curvature="0" />
  </g>
</svg>
