<?xml version="1.0" encoding="UTF-8" standalone="no"?>
<!-- Created with Inkscape (http://www.inkscape.org/) -->

<svg
   xmlns:dc="http://purl.org/dc/elements/1.1/"
   xmlns:cc="http://creativecommons.org/ns#"
   xmlns:rdf="http://www.w3.org/1999/02/22-rdf-syntax-ns#"
   xmlns:svg="http://www.w3.org/2000/svg"
   xmlns="http://www.w3.org/2000/svg"
   xmlns:sodipodi="http://sodipodi.sourceforge.net/DTD/sodipodi-0.dtd"
   xmlns:inkscape="http://www.inkscape.org/namespaces/inkscape"
   width="64px"
   height="64px"
   id="svg2985"
   version="1.1"
   inkscape:version="0.47 r22583"
   sodipodi:docname="bb.svg">
  <defs
     id="defs2987">
    <inkscape:perspective
       sodipodi:type="inkscape:persp3d"
       inkscape:vp_x="0 : 32 : 1"
       inkscape:vp_y="0 : 1000 : 0"
       inkscape:vp_z="64 : 32 : 1"
       inkscape:persp3d-origin="32 : 21.333333 : 1"
       id="perspective12" />
    <filter
       id="filter2818"
       inkscape:label="Eroded metal"
       inkscape:menu="Materials"
       inkscape:menu-tooltip="Eroded metal texture with ridges, grooves, holes and bumps"
       color-interpolation-filters="sRGB">
      <feGaussianBlur
         id="feGaussianBlur2820"
         result="result0"
         in="SourceGraphic"
         stdDeviation="0.9" />
      <feTurbulence
         id="feTurbulence2822"
         type="turbulence"
         baseFrequency="0.01"
         seed="4"
         numOctaves="4"
         result="result1" />
      <feDisplacementMap
         id="feDisplacementMap2824"
         in2="result1"
         xChannelSelector="R"
         result="result91" />
      <feComposite
         id="feComposite2826"
         in2="result91"
         result="result2"
         operator="out"
         in="result0" />
      <feComposite
         id="feComposite2828"
         in2="result2"
         k1="0.1"
         k3="1.2"
         in="SourceAlpha"
         operator="arithmetic"
         result="result5" />
      <feBlend
         id="feBlend2830"
         in2="result5"
         result="fbSourceGraphic"
         mode="multiply" />
      <feGaussianBlur
         id="feGaussianBlur2832"
         stdDeviation="3"
         in="fbSourceGraphic"
         result="result0" />
      <feSpecularLighting
         id="feSpecularLighting2834"
         in="result0"
         result="result1"
         lighting-color="rgb(224,132,0)"
         surfaceScale="3"
         specularConstant="0.35"
         specularExponent="5">
        <feDistantLight
           azimuth="225"
           elevation="45"
           id="feDistantLight14" />
      </feSpecularLighting>
      <feComposite
         id="feComposite2838"
         in2="fbSourceGraphic"
         in="result1"
         result="result2"
         operator="in" />
      <feComposite
         id="feComposite2840"
         in2="result2"
         k1="-1"
         in="fbSourceGraphic"
         result="result4"
         operator="arithmetic"
         k2="2.5"
         k3="3.5" />
      <feBlend
         id="feBlend2842"
         in2="result4"
         mode="multiply" />
    </filter>
  </defs>
  <sodipodi:namedview
     id="base"
     pagecolor="#ffffff"
     bordercolor="#666666"
     borderopacity="1.0"
     inkscape:pageopacity="0.0"
     inkscape:pageshadow="2"
     inkscape:zoom="5.5"
     inkscape:cx="20.417966"
     inkscape:cy="32"
     inkscape:current-layer="layer1"
     showgrid="true"
     inkscape:document-units="px"
     inkscape:grid-bbox="true"
     inkscape:window-width="1270"
     inkscape:window-height="743"
     inkscape:window-x="0"
     inkscape:window-y="0"
     inkscape:window-maximized="1" />
  <metadata
     id="metadata2990">
    <rdf:RDF>
      <cc:Work
         rdf:about="">
        <dc:format>image/svg+xml</dc:format>
        <dc:type
           rdf:resource="http://purl.org/dc/dcmitype/StillImage" />
        <dc:title />
      </cc:Work>
    </rdf:RDF>
  </metadata>
  <g
     id="layer1"
     inkscape:label="Layer 1"
     inkscape:groupmode="layer">
    <path
       style="fill:#000000"
       d="m 2.568144,59.690505 c 0,-1.344835 0.9849523,-3.100083 2.7045489,-4.819678 2.5989191,-2.59892 2.9394941,-2.70455 8.7200821,-2.70455 l 6.015533,0 -0.46951,-5.369324 c -0.292586,-3.346014 -1.100625,-6.417125 -2.144316,-8.149901 -2.595814,-4.309667 -2.267002,-10.243105 0.946824,-17.085453 1.433186,-3.051305 3.482046,-6.696653 4.553021,-8.100774 1.579805,-2.071232 1.803902,-2.929923 1.187642,-4.5508099 -0.589879,-1.5514983 -0.433109,-2.401044 0.701685,-3.8024533 1.308011,-1.6153271 1.690071,-1.7003425 3.642842,-0.8106004 1.911695,0.8710268 2.127616,1.3264919 1.745407,3.6817737 -0.33269,2.0501299 -0.05775,3.0302459 1.158912,4.1313089 1.543827,1.397145 1.624356,1.392942 2.506333,-0.13083 0.50119,-0.865895 0.919287,-2.7837617 0.929101,-4.261926 0.02148,-3.2361351 2.034916,-4.9526338 4.193987,-3.5754812 0.885179,0.5646066 1.392048,1.8871443 1.392048,3.6321757 0,1.6843965 0.874585,4.0663925 2.26452,6.1675845 5.146558,7.78015 6.512055,16.475929 3.78058,24.075534 -0.831451,2.31329 -1.720851,6.4432 -1.976444,9.177579 l -0.464714,4.971597 6.033266,0 c 5.800754,0 6.137495,0.104225 8.737815,2.70455 1.719597,1.719595 2.704549,3.474843 2.704549,4.819678 0,1.505021 -0.286812,1.929501 -0.99432,1.471593 C 59.89066,60.808152 54.968779,60.326365 49.500023,60.09146 41.136585,59.732215 38.956519,59.362266 35.778414,57.762958 L 32,55.861558 l -3.778414,1.9014 C 25.043481,59.362266 22.863415,59.732215 14.499978,60.09146 9.031221,60.326365 4.1093391,60.808152 3.5624635,61.162098 2.8549558,61.620006 2.568144,61.195527 2.568144,59.690505 z M 23.6932,57.640034 c 1.943737,-0.489438 3.534067,-1.131107 3.534067,-1.42593 0,-1.044966 -7.259081,-2.456916 -12.631432,-2.456916 -4.308635,0 -5.888282,0.345148 -7.545411,1.648645 -1.1527527,0.906755 -2.0959133,1.980621 -2.0959133,2.386367 0,1.038501 14.4769973,0.92094 18.7386893,-0.152166 z M 59.04549,57.7922 c 0,-0.405746 -0.943161,-1.479612 -2.095914,-2.386367 -1.657129,-1.303497 -3.236776,-1.648645 -7.545412,-1.648645 -5.407505,0 -12.63143,1.413927 -12.63143,2.472328 0,1.153554 6.273103,2.139078 14.119335,2.218194 4.539015,0.04577 8.153421,-0.24482 8.153421,-0.65551 z M 39.075295,53.263898 C 40.472379,52.977687 40.74449,52.638029 40.09613,51.989669 39.577767,51.471306 36.229067,51.10567 32,51.10567 c -9.919124,0 -11.769659,1.906607 -2.784094,2.868453 2.465015,0.263864 6.536067,-0.02939 9.859389,-0.710225 z M 32,49.382183 c 2.843754,0 6.333815,0.259517 7.755691,0.576705 2.199857,0.490737 2.585231,0.355203 2.585231,-0.909214 0,-0.817256 -0.536932,-1.69196 -1.193183,-1.943787 -0.656251,-0.251828 -1.193183,-0.827058 -1.193183,-1.278289 0,-0.451231 0.536932,-0.820421 1.193183,-0.820421 2.035723,0 1.310707,-2.380656 -0.994319,-3.264945 -1.203127,-0.461561 -5.486387,-0.721168 -9.518355,-0.576903 -5.725394,0.204855 -7.640615,0.572346 -8.7453,1.678044 -1.355708,1.35695 -1.340317,1.435131 0.370615,1.88255 2.047699,0.535485 2.339617,1.709293 0.591881,2.379964 -0.656251,0.251827 -1.193183,1.126531 -1.193183,1.943787 0,1.264417 0.385374,1.399951 2.585231,0.909214 C 25.666185,49.6417 29.156246,49.382183 32,49.382183 z m -3.000633,-3.725391 c 0.405007,-1.215023 5.290009,-1.435306 5.585863,-0.251887 0.109374,0.4375 -1.18125,0.908805 -2.868056,1.047342 -2.260279,0.185638 -2.975099,-0.02357 -2.717807,-0.795455 z m 5.413593,-6.093393 c 10.058633,0.344284 9.695263,0.734949 6.839843,-7.353601 C 38.569927,24.610011 29.765298,11.598043 27.30573,11.598043 c -1.282358,0 -4.575901,4.801278 -7.328401,10.683235 -3.03308,6.481543 -3.257494,10.602218 -0.834774,15.32802 1.651123,3.220708 1.799542,3.310487 4.129831,2.498143 1.367436,-0.476691 6.205555,-0.712957 11.140574,-0.544042 z m 11.548296,-6.880474 c 0.727244,-4.849615 0.0111,-8.040583 -3.281728,-14.622554 -3.171882,-6.340217 -5.330187,-7.744962 -7.493402,-4.877123 -1.288688,1.708453 -1.215851,1.951682 2.037105,6.802692 3.229602,4.816181 6.708602,12.650948 6.708602,15.107882 0,2.699388 1.536878,0.873618 2.029423,-2.410897 z M 28.561327,7.9382114 C 29.12408,6.4717016 27.200334,4.9431498 26.133975,6.0095085 c -0.868237,0.8682358 -0.07138,3.2021677 1.093292,3.2021677 0.464962,0 1.065289,-0.5730589 1.33406,-1.2734648 z m 10.330633,0.026815 c 0.66298,-1.7276991 -1.02012,-3.352459 -2.224849,-2.1477298 -1.01821,1.0182077 -0.387429,3.3943799 0.901078,3.3943799 0.464962,0 1.06066,-0.560993 1.323771,-1.2466515 z"
       id="path2928" />
    <path
       style="fill:#000000;filter:url(#filter2818)"
       d="M 10.245002,55.669926 C 8.1265587,55.519933 7.4545455,55.383857 7.4545455,55.104887 c 0,-0.35197 2.1119254,-2.274977 2.9372615,-2.674516 1.227668,-0.594304 2.474267,-0.757752 5.769373,-0.756453 4.118081,0.0016 8.952136,0.719933 10.747911,1.597071 0.35,0.170956 0.636364,0.392647 0.636364,0.492647 0,0.29163 -2.74117,1.168796 -4.574381,1.463789 -1.652153,0.265858 -7.905998,0.643673 -9.880165,0.596893 -0.55,-0.01303 -1.830658,-0.08251 -2.845907,-0.154392 z"
       id="path2930"
       transform="matrix(1.1000014,0,0,1.1000014,-3.2000456,-2.9201557)" />
    <path
       style="fill:#000000;filter:url(#filter2818)"
       d="m 44.636364,55.547558 c -1.805514,-0.118417 -5.474829,-0.601189 -6.394633,-0.841341 -1.276774,-0.333354 -1.970266,-0.794262 -1.694684,-1.126318 0.321187,-0.387007 2.225362,-0.952719 4.72568,-1.403954 1.942937,-0.350645 2.892734,-0.409606 6.545455,-0.406329 4.813257,0.0043 5.130233,0.06729 6.841218,1.359095 0.970673,0.732864 2.016,1.929223 1.839709,2.105514 -0.359689,0.359688 -8.05635,0.562982 -11.862745,0.313333 z"
       id="path2932"
       transform="matrix(1.1000014,0,0,1.1000014,-3.2000456,-2.9201557)" />
    <path
       style="fill:#000000;filter:url(#filter2818)"
       d="m 27.545455,51.387194 c -2.29314,-0.391802 -3.09091,-0.672126 -3.09091,-1.086099 0,-0.513585 1.228012,-0.774636 4.78871,-1.017984 2.187816,-0.149521 3.720864,-0.149477 5.818182,1.69e-4 3.056234,0.218066 4.032873,0.409935 4.41202,0.86678 0.470135,0.566478 -0.45324,0.871282 -4.057436,1.339351 -1.888764,0.245289 -6.16146,0.189799 -7.870566,-0.102217 z"
       id="path2934"
       transform="matrix(1.1000014,0,0,1.1000014,-3.2000456,-2.9201557)" />
    <path
       style="fill:#000000;filter:url(#filter2818)"
       d="m 22.848485,48.09697 c -0.204229,-0.20423 -0.122155,-1.399315 0.126939,-1.848354 0.129396,-0.233262 0.556043,-0.603497 0.948103,-0.822745 0.503967,-0.281828 0.729197,-0.53865 0.768672,-0.876489 0.06895,-0.590129 -0.408556,-0.961189 -1.737654,-1.350285 C 22.429545,43.045402 22,42.81225 22,42.680983 c 0,-0.42104 1.376623,-1.498845 2.293433,-1.795607 1.539048,-0.498173 3.847836,-0.702465 8.070203,-0.714087 4.13709,-0.01139 6.542493,0.212429 7.478342,0.695837 0.263089,0.135897 0.692635,0.501757 0.954546,0.813021 0.757225,0.899911 0.5609,1.810762 -0.390295,1.810762 -1.196901,0 -1.507488,0.925713 -0.574096,1.71111 0.307671,0.25889 0.632843,0.470708 0.722603,0.470708 0.581902,0 0.973579,2.276971 0.427709,2.486441 -0.159656,0.06127 -1.284656,-0.04105 -2.5,-0.227375 -2.958696,-0.453592 -10.242952,-0.461075 -12.889579,-0.01324 -1.920414,0.324952 -2.556495,0.366305 -2.744381,0.178419 z m 10.833333,-3.570807 c 1.437098,-0.610036 0.587104,-1.299437 -1.590909,-1.290332 -1.970951,0.0082 -3.078827,0.586324 -2.752652,1.43632 0.109722,0.285934 0.3195,0.311705 1.892572,0.232508 1.01445,-0.05107 2.060032,-0.212537 2.450989,-0.378496 z"
       id="path2936"
       transform="matrix(1.1000014,0,0,1.1000014,-3.2000456,-2.9201557)" />
    <path
       style="fill:#000000;filter:url(#filter2818)"
       d="m 21.731447,39.057067 c -0.551989,-0.551989 -1.864803,-3.144367 -2.312363,-4.566158 -0.188871,-0.6 -0.391858,-1.830147 -0.451081,-2.733662 -0.189649,-2.893324 0.648812,-5.871161 2.88138,-10.233364 2.480564,-4.84676 4.892715,-8.214792 5.883351,-8.214792 1.674642,0 7.324791,7.585381 10.773659,14.463742 1.255607,2.504161 2.667596,6.162843 3.198729,8.288403 0.354873,1.420175 0.202642,2.06276 -0.557104,2.351615 -0.304911,0.115927 -3.429316,0.205991 -8.139624,0.234631 -7.229664,0.04396 -7.722847,0.06812 -9.082933,0.444956 -1.765885,0.489269 -1.667792,0.490851 -2.194014,-0.03537 l 0,0 z"
       id="path2938"
       transform="matrix(1.1000014,0,0,1.1000014,-3.2000456,-2.9201557)" />
    <path
       style="fill:#000000;filter:url(#filter2818)"
       d="m 43.022457,35.263636 c -0.04146,-0.225 -0.172648,-0.940909 -0.29153,-1.590909 -0.490167,-2.680027 -3.2767,-8.70427 -5.933916,-12.828612 -2.591798,-4.022803 -2.743774,-4.390395 -2.260985,-5.46874 0.17379,-0.388172 0.628452,-0.98012 1.010361,-1.31544 0.618909,-0.54341 0.781794,-0.599821 1.498653,-0.51902 1.456189,0.164134 2.805977,1.91154 5.042491,6.527905 2.354194,4.859266 3.065756,7.875626 2.663159,11.289303 -0.264802,2.245292 -0.98201,4.314604 -1.49541,4.314604 -0.08659,0 -0.191364,-0.184091 -0.232823,-0.409091 l 0,0 z"
       id="path2940"
       transform="matrix(1.1000014,0,0,1.1000014,-3.2000456,-2.9201557)" />
    <path
       style="fill:#000000;filter:url(#filter2818)"
       d="M 36.238657,10.464429 C 35.50397,9.3431536 36.013918,7.6727273 37.090909,7.6727273 c 1.089823,0 1.595456,1.475043 0.872563,2.5454547 -0.570835,0.845252 -1.267191,0.944669 -1.724815,0.246247 l 0,0 z"
       id="path2942"
       transform="matrix(1.1000014,0,0,1.1000014,-3.2000456,-2.9201557)" />
    <path
       style="fill:#000000;filter:url(#filter2818)"
       d="m 27.040835,10.62694 c -0.346808,-0.383219 -0.677199,-1.2093532 -0.677199,-1.6933218 0,-0.4640109 0.629781,-1.0790727 1.104895,-1.0790727 0.525924,0 1.44056,0.9634982 1.44056,1.5175184 0,0.551493 -0.818816,1.5733911 -1.26071,1.5733911 -0.175612,0 -0.449008,-0.143332 -0.607546,-0.318515 z"
       id="path2944"
       transform="matrix(1.1000014,0,0,1.1000014,-3.2000456,-2.9201557)" />
  </g>
</svg>
