<?xml version="1.0" encoding="UTF-8" standalone="no"?>
<!-- Created with Inkscape (http://www.inkscape.org/) -->

<svg
   xmlns:dc="http://purl.org/dc/elements/1.1/"
   xmlns:cc="http://creativecommons.org/ns#"
   xmlns:rdf="http://www.w3.org/1999/02/22-rdf-syntax-ns#"
   xmlns:svg="http://www.w3.org/2000/svg"
   xmlns="http://www.w3.org/2000/svg"
   xmlns:sodipodi="http://sodipodi.sourceforge.net/DTD/sodipodi-0.dtd"
   xmlns:inkscape="http://www.inkscape.org/namespaces/inkscape"
   width="64px"
   height="64px"
   id="svg2985"
   version="1.1"
   inkscape:version="0.47 r22583"
   sodipodi:docname="bk.svg">
  <defs
     id="defs2987">
    <inkscape:perspective
       sodipodi:type="inkscape:persp3d"
       inkscape:vp_x="0 : 32 : 1"
       inkscape:vp_y="0 : 1000 : 0"
       inkscape:vp_z="64 : 32 : 1"
       inkscape:persp3d-origin="32 : 21.333333 : 1"
       id="perspective14" />
    <filter
       id="filter2820"
       inkscape:label="Eroded metal"
       inkscape:menu="Materials"
       inkscape:menu-tooltip="Eroded metal texture with ridges, grooves, holes and bumps"
       color-interpolation-filters="sRGB">
      <feGaussianBlur
         id="feGaussianBlur2822"
         result="result0"
         in="SourceGraphic"
         stdDeviation="0.9" />
      <feTurbulence
         id="feTurbulence2824"
         type="turbulence"
         baseFrequency="0.01"
         seed="4"
         numOctaves="4"
         result="result1" />
      <feDisplacementMap
         id="feDisplacementMap2826"
         in2="result1"
         xChannelSelector="R"
         result="result91" />
      <feComposite
         id="feComposite2828"
         in2="result91"
         result="result2"
         operator="out"
         in="result0" />
      <feComposite
         id="feComposite2830"
         in2="result2"
         k1="0.1"
         k3="1.2"
         in="SourceAlpha"
         operator="arithmetic"
         result="result5" />
      <feBlend
         id="feBlend2832"
         in2="result5"
         result="fbSourceGraphic"
         mode="multiply" />
      <feGaussianBlur
         id="feGaussianBlur2834"
         stdDeviation="3"
         in="fbSourceGraphic"
         result="result0" />
      <feSpecularLighting
         id="feSpecularLighting2836"
         in="result0"
         result="result1"
         lighting-color="rgb(224,132,0)"
         surfaceScale="3"
         specularConstant="0.35"
         specularExponent="5">
        <feDistantLight azimuth = "225" elevation = "45"/>
      </feSpecularLighting>
      <feComposite
         id="feComposite2840"
         in2="fbSourceGraphic"
         in="result1"
         result="result2"
         operator="in" />
      <feComposite
         id="feComposite2842"
         in2="result2"
         k1="-1"
         in="fbSourceGraphic"
         result="result4"
         operator="arithmetic"
         k2="2.5"
         k3="3.5" />
      <feBlend
         id="feBlend2844"
         in2="result4"
         mode="multiply" />
    </filter>
  </defs>
  <sodipodi:namedview
     id="base"
     pagecolor="#ffffff"
     bordercolor="#666666"
     borderopacity="1.0"
     inkscape:pageopacity="0.0"
     inkscape:pageshadow="2"
     inkscape:zoom="7.7781746"
     inkscape:cx="-1.3944098"
     inkscape:cy="32.812069"
     inkscape:current-layer="layer1"
     showgrid="true"
     inkscape:document-units="px"
     inkscape:grid-bbox="true"
     inkscape:window-width="1270"
     inkscape:window-height="743"
     inkscape:window-x="0"
     inkscape:window-y="0"
     inkscape:window-maximized="1" />
  <metadata
     id="metadata2990">
    <rdf:RDF>
      <cc:Work
         rdf:about="">
        <dc:format>image/svg+xml</dc:format>
        <dc:type
           rdf:resource="http://purl.org/dc/dcmitype/StillImage" />
        <dc:title></dc:title>
      </cc:Work>
    </rdf:RDF>
  </metadata>
  <g
     id="layer1"
     inkscape:label="Layer 1"
     inkscape:groupmode="layer">
    <path
       style="fill:#000000"
       d="M 25.205736,59.170594 C 18.621325,58.510216 15.610041,57.474635 14.582431,55.517235 14.170671,54.73291 13.577388,51.299936 13.264027,47.888404 12.721435,41.981261 12.522007,41.492754 9.0799054,37.639214 4.6483322,32.677931 3.2680915,29.541606 3.2680915,24.433009 c 0,-4.499433 2.2647101,-7.908916 6.3789279,-9.60337 3.2497016,-1.338402 8.8614086,-0.614969 11.8960576,1.533578 l 2.46606,1.745985 0,-6.796101 0,-6.7961011 7.977325,0 7.977326,0 0,6.7961011 0,6.796101 2.466061,-1.745985 c 3.034647,-2.148547 8.646354,-2.87198 11.896057,-1.533578 4.114218,1.694454 6.378928,5.103937 6.378928,9.60337 0,5.130398 -1.505502,8.545245 -5.811876,13.182762 -3.364881,3.623627 -3.54909,4.079208 -4.335407,10.722173 -0.451665,3.815761 -1.242916,7.442976 -1.758334,8.060478 -1.954963,2.342164 -13.894009,3.744971 -23.593481,2.772172 z M 45.747349,56.10097 c 2.835217,-1.388858 2.764469,-1.97448 -0.398866,-3.301628 -3.601375,-1.510922 -23.144018,-1.501877 -26.754106,0.01239 -6.423778,2.694469 0.53464,4.880564 14.588684,4.583261 6.69659,-0.14166 11.147702,-0.600088 12.564288,-1.294015 z m -26.19839,-5.191113 c 2.418224,-0.729415 7.175298,-1.181196 12.437503,-1.181196 5.262205,0 10.019279,0.451781 12.437503,1.181196 2.153808,0.649656 4.005759,1.185057 4.115448,1.18978 0.109692,0.0047 0.199433,-0.842121 0.199433,-1.881872 0,-1.223383 -0.562981,-2.036841 -1.595465,-2.305303 -2.353307,-0.611897 -2.037374,-2.942923 0.398866,-2.942923 1.667304,0 1.994331,-0.375947 1.994331,-2.292668 0,-2.189914 -0.279519,-2.36766 -6.236752,-3.965935 -7.906147,-2.121152 -14.720579,-2.121152 -22.626727,0 -5.957233,1.598275 -6.236752,1.776021 -6.236752,3.965935 0,1.916721 0.327026,2.292668 1.994331,2.292668 2.436241,0 2.752174,2.331026 0.398866,2.942923 -1.032483,0.268462 -1.595464,1.08192 -1.595464,2.305303 0,1.039751 0.08975,1.886594 0.199433,1.881872 0.109693,-0.0047 1.961639,-0.540124 4.115446,-1.18978 z m 9.446007,-5.672444 c -1.403804,-0.563219 -1.240883,-2.38472 0.264677,-2.959167 1.876538,-0.715993 4.563434,-0.562095 5.91775,0.338951 2.469184,1.642782 -2.922816,3.928004 -6.182427,2.620216 z M 18.965033,37.359335 c 2.406456,-0.69559 6.051503,-1.506965 8.100102,-1.803055 3.392493,-0.490327 3.699525,-0.713167 3.442161,-2.498263 -0.379806,-2.634361 -2.992357,-7.648674 -5.897518,-11.319206 -2.651346,-3.349849 -7.437669,-6.117193 -10.580133,-6.117193 -2.692184,0 -6.3535036,1.912642 -7.9210641,4.137894 -2.6458995,3.756026 -0.7065596,11.501436 4.1772511,16.683266 2.397724,2.544038 2.874567,2.594394 8.679201,0.916557 z m 34.722059,-0.916557 c 4.883812,-5.18183 6.823152,-12.92724 4.177253,-16.683266 -1.56756,-2.225252 -5.228882,-4.137894 -7.921065,-4.137894 -2.952931,0 -7.816121,2.671424 -10.405367,5.715825 -2.772925,3.260369 -7.05443,12.195172 -6.37085,13.294926 0.279964,0.450409 1.654522,0.847488 3.054575,0.882399 1.400054,0.03491 4.699429,0.706584 7.331946,1.492609 6.652795,1.986412 7.788869,1.923115 10.133508,-0.564599 z m -18.730401,-11.316117 2.571363,-4.745921 -5.562859,0 c -5.496095,0 -6.58213,0.551033 -4.489485,2.277877 0.590355,0.487159 1.721814,2.315535 2.514352,4.063056 0.792538,1.747522 1.655693,3.171371 1.918123,3.16411 0.262428,-0.0073 1.634257,-2.148865 3.048506,-4.759122 z m 1.018434,-6.987218 c 0,-0.360208 -0.907899,-1.502989 -2.017552,-2.539515 l -2.017553,-1.884593 -2.554068,2.539516 -2.554069,2.539516 4.571622,0 c 2.514391,0 4.57162,-0.294717 4.57162,-0.654924 z M 28.817347,10.488992 C 27.774882,9.3856603 26.62555,8.482935 26.263279,8.482935 c -0.362272,0 -0.658676,2.045507 -0.658676,4.545572 l 0,4.545571 2.554068,-2.539515 2.554069,-2.539515 -1.895393,-2.006056 z M 37.990031,8.6355907 C 37.732747,8.3797719 36.561452,9.1257825 35.387152,10.293392 l -2.13509,2.122924 2.358698,2.455169 2.358697,2.455169 0.244181,-4.11297 c 0.134299,-2.262135 0.03368,-4.3222767 -0.223607,-4.5780933 z m -3.861219,0.5022677 c 2.685987,-2.508975 2.314977,-3.0344845 -2.14235,-3.0344845 -2.193764,0 -3.988662,0.2446959 -3.988662,0.5437686 0,0.6428622 3.285629,4.2153535 3.876871,4.2153535 0.224306,0 1.23867,-0.776087 2.254141,-1.7246376 z"
       id="path2844" />
    <path
       style="fill:#000000;filter:url(#filter2820)"
       d="m 28,54.641955 c -4.929099,-0.215282 -9.244547,-1.119513 -9.585693,-2.008524 -0.203362,-0.529953 0.301465,-1.113967 1.437612,-1.663118 1.984547,-0.95922 5.262904,-1.292928 12.729087,-1.29571 7.616521,-0.0028 11.225309,0.382689 13.091427,1.398556 1.258762,0.685239 1.46604,1.052426 0.873022,1.54654 -0.87102,0.72575 -2.292777,1.233792 -4.19928,1.500546 C 39.169398,54.564734 32.109919,54.821457 28,54.641955 z"
       id="path2846"
       transform="matrix(1.1000073,0,0,1.1000073,-3.9137732,-2.8148669)" />
    <path
       style="fill:#000000;filter:url(#filter2820)"
       d="m 17.568917,49.577397 c -0.209963,-0.547154 -0.117683,-1.916325 0.16615,-2.465197 0.183337,-0.354533 0.626584,-0.706322 1.279417,-1.015424 1.095307,-0.518603 1.437771,-0.955302 1.270817,-1.620502 -0.154834,-0.616907 -0.792263,-0.970922 -2.025608,-1.124983 -1.247127,-0.155783 -1.525354,-0.500262 -1.52974,-1.894 -0.0059,-1.869805 0.382577,-2.1692 4.203987,-3.240104 5.118791,-1.434481 6.950345,-1.70065 11.702424,-1.70065 4.752078,0 6.583632,0.266169 11.702423,1.70065 3.821409,1.070904 4.209871,1.370299 4.203988,3.240104 -0.0044,1.393738 -0.282613,1.738217 -1.52974,1.894 -1.233346,0.154061 -1.870775,0.508076 -2.025608,1.124983 -0.166954,0.6652 0.175509,1.101899 1.270817,1.620502 1.173847,0.555791 1.561205,1.160419 1.557154,2.430559 -0.0044,1.375274 -0.01835,1.379404 -2.364516,0.699239 -2.942271,-0.852979 -5.001351,-1.166054 -9.199978,-1.398817 -4.070885,-0.225681 -9.644483,-0.01108 -12.53583,0.48267 -1.340439,0.228903 -4.935611,1.144375 -5.806465,1.478553 -0.123927,0.04755 -0.276788,-0.04766 -0.339692,-0.211583 z m 17.188207,-6.125596 c 2.395491,-1.097762 1.508856,-2.604623 -1.660372,-2.821847 -1.89917,-0.130172 -3.333521,0.279912 -3.829042,1.094732 -0.536615,0.882393 -0.116532,1.784606 0.990229,2.126711 1.051669,0.325076 3.366461,0.119488 4.499185,-0.399596 z"
       id="path2848"
       transform="matrix(1.1000073,0,0,1.1000073,-3.9137732,-2.8148669)" />
    <path
       style="fill:#000000;filter:url(#filter2820)"
       d="m 14.762351,37.186307 c -0.83021,-0.40914 -2.966472,-2.772943 -3.993997,-4.419412 -1.8053202,-2.89278 -2.671828,-5.841808 -2.556941,-8.702162 0.088844,-2.211962 0.6145379,-3.423401 2.027178,-4.671548 1.177833,-1.040682 3.498446,-2.179611 4.974381,-2.441367 2.681183,-0.475505 6.510539,1.203206 9.49367,4.161832 2.874871,2.851254 6.566085,9.664393 6.566085,12.119492 0,0.891647 -0.453629,1.101093 -3.71656,1.71598 -1.569743,0.295813 -4.623996,0.988729 -6.787228,1.539814 -4.187173,1.066686 -5.053171,1.167229 -6.006588,0.697371 z"
       id="path2850"
       transform="matrix(1.1000073,0,0,1.1000073,-3.9137732,-2.8148669)" />
    <path
       style="fill:#000000;filter:url(#filter2820)"
       d="m 47.909091,37.294635 c -0.6,-0.07469 -1.827273,-0.342004 -2.727273,-0.594028 -3.580789,-1.002712 -6.104581,-1.56978 -8.183831,-1.838814 -3.20768,-0.415041 -3.491937,-0.582258 -3.157301,-1.857321 0.926817,-3.531447 4.200676,-9.486032 6.464393,-11.757617 2.928533,-2.93871 7.084476,-4.768594 9.754677,-4.295037 1.475935,0.261756 3.796548,1.400685 4.97438,2.441367 1.430864,1.264248 1.9438,2.462762 2.025106,4.731808 0.135542,3.782659 -1.492017,7.837544 -4.489782,11.185796 -1.648878,1.84166 -2.588726,2.241738 -4.660369,1.983846 z"
       id="path2852"
       transform="matrix(1.1000073,0,0,1.1000073,-3.9137732,-2.8148669)" />
    <path
       style="fill:#000000;filter:url(#filter2820)"
       d="m 28.212121,19.530121 c 0.03333,-0.07843 1.049747,-1.099699 2.258696,-2.269479 l 2.198091,-2.126873 1.594467,1.600242 c 1.765748,1.772144 2.047152,2.155462 1.779136,2.423478 -0.34128,0.34128 -7.971379,0.70438 -7.83039,0.372632 l 0,0 z"
       id="path2854"
       transform="matrix(1.1000073,0,0,1.1000073,-3.9137732,-2.8148669)" />
    <path
       style="fill:#000000;filter:url(#filter2820)"
       d="M 26.959182,14.759256 C 27.058866,11.038908 27.149343,10.4 27.576502,10.4 c 0.14375,0 1.075914,0.790404 2.071475,1.756454 1.757557,1.705458 1.800821,1.766764 1.490158,2.111571 -0.175974,0.195314 -1.209576,1.182484 -2.296894,2.193711 l -1.97694,1.838593 0.09488,-3.541073 z"
       id="path2856"
       transform="matrix(1.1000073,0,0,1.1000073,-3.9137732,-2.8148669)" />
    <path
       style="fill:#000000;filter:url(#filter2820)"
       d="M 31.202148,11.263636 C 29.566047,9.6151391 28.983283,8.7985354 29.251519,8.530299 29.391875,8.3899431 30.37743,8.2905736 32.052223,8.2479152 c 3.82448,-0.097413 4.50716,0.2025544 3.4915,1.5341523 C 35.025595,10.461368 32.766653,12.4 32.493243,12.4 c -0.0898,0 -0.670795,-0.511364 -1.291095,-1.136364 z"
       id="path2858"
       transform="matrix(1.1000073,0,0,1.1000073,-3.9137732,-2.8148669)" />
    <path
       style="fill:#000000;filter:url(#filter2820)"
       d="M 36.542332,16.633271 C 35.790615,15.854972 34.893927,14.910237 34.549693,14.53386 l -0.62588,-0.684322 1.265366,-1.276209 c 1.449288,-1.461707 2.521215,-2.261406 2.800145,-2.089018 0.209112,0.129238 0.238687,6.158995 0.03462,7.058051 -0.114169,0.502989 -0.122982,0.497581 -1.481611,-0.909091 l 0,0 z"
       id="path2860"
       transform="matrix(1.1000073,0,0,1.1000073,-3.9137732,-2.8148669)" />
  </g>
</svg>
