<?xml version="1.0" encoding="UTF-8" standalone="no"?>
<!-- Created with Inkscape (http://www.inkscape.org/) -->

<svg
   xmlns:dc="http://purl.org/dc/elements/1.1/"
   xmlns:cc="http://creativecommons.org/ns#"
   xmlns:rdf="http://www.w3.org/1999/02/22-rdf-syntax-ns#"
   xmlns:svg="http://www.w3.org/2000/svg"
   xmlns="http://www.w3.org/2000/svg"
   xmlns:sodipodi="http://sodipodi.sourceforge.net/DTD/sodipodi-0.dtd"
   xmlns:inkscape="http://www.inkscape.org/namespaces/inkscape"
   width="64px"
   height="64px"
   id="svg2985"
   version="1.1"
   inkscape:version="0.47 r22583"
   sodipodi:docname="bk.svg">
  <defs
     id="defs2987">
    <inkscape:perspective
       sodipodi:type="inkscape:persp3d"
       inkscape:vp_x="0 : 32 : 1"
       inkscape:vp_y="0 : 1000 : 0"
       inkscape:vp_z="64 : 32 : 1"
       inkscape:persp3d-origin="32 : 21.333333 : 1"
       id="perspective14" />
    <filter
       id="filter2820"
       inkscape:label="Eroded metal"
       inkscape:menu="Materials"
       inkscape:menu-tooltip="Eroded metal texture with ridges, grooves, holes and bumps"
       color-interpolation-filters="sRGB">
      <feGaussianBlur
         id="feGaussianBlur2822"
         result="result0"
         in="SourceGraphic"
         stdDeviation="0.9" />
      <feTurbulence
         id="feTurbulence2824"
         type="turbulence"
         baseFrequency="0.01"
         seed="4"
         numOctaves="4"
         result="result1" />
      <feDisplacementMap
         id="feDisplacementMap2826"
         in2="result1"
         xChannelSelector="R"
         result="result91" />
      <feComposite
         id="feComposite2828"
         in2="result91"
         result="result2"
         operator="out"
         in="result0" />
      <feComposite
         id="feComposite2830"
         in2="result2"
         k1="0.1"
         k3="1.2"
         in="SourceAlpha"
         operator="arithmetic"
         result="result5" />
      <feBlend
         id="feBlend2832"
         in2="result5"
         result="fbSourceGraphic"
         mode="multiply" />
      <feGaussianBlur
         id="feGaussianBlur2834"
         stdDeviation="3"
         in="fbSourceGraphic"
         result="result0" />
      <feSpecularLighting
         id="feSpecularLighting2836"
         in="result0"
         result="result1"
         lighting-color="rgb(224,132,0)"
         surfaceScale="3"
         specularConstant="0.35"
         specularExponent="5">
        <feDistantLight
           azimuth="225"
           elevation="45"
           id="feDistantLight14" />
      </feSpecularLighting>
      <feComposite
         id="feComposite2840"
         in2="fbSourceGraphic"
         in="result1"
         result="result2"
         operator="in" />
      <feComposite
         id="feComposite2842"
         in2="result2"
         k1="-1"
         in="fbSourceGraphic"
         result="result4"
         operator="arithmetic"
         k2="2.5"
         k3="3.5" />
      <feBlend
         id="feBlend2844"
         in2="result4"
         mode="multiply" />
    </filter>
  </defs>
  <sodipodi:namedview
     id="base"
     pagecolor="#ffffff"
     bordercolor="#666666"
     borderopacity="1.0"
     inkscape:pageopacity="0.0"
     inkscape:pageshadow="2"
     inkscape:zoom="5.5"
     inkscape:cx="-29.929982"
     inkscape:cy="34.794051"
     inkscape:current-layer="layer1"
     showgrid="true"
     inkscape:document-units="px"
     inkscape:grid-bbox="true"
     inkscape:window-width="1270"
     inkscape:window-height="743"
     inkscape:window-x="0"
     inkscape:window-y="0"
     inkscape:window-maximized="1" />
  <metadata
     id="metadata2990">
    <rdf:RDF>
      <cc:Work
         rdf:about="">
        <dc:format>image/svg+xml</dc:format>
        <dc:type
           rdf:resource="http://purl.org/dc/dcmitype/StillImage" />
        <dc:title />
      </cc:Work>
    </rdf:RDF>
  </metadata>
  <g
     id="layer1"
     inkscape:label="Layer 1"
     inkscape:groupmode="layer">
    <path
       style="fill:#000000"
       d="M 26.391712,60.447422 C 20.538949,60.001531 17.014275,59.022596 14.702367,57.200843 13.154423,55.981085 13.204825,56.194652 12.784616,49.074658 12.576396,45.546584 12.400268,42.307716 12.39322,41.877177 12.381417,41.156241 12.294093,41.032516 11.288184,40.31158 8.8641604,38.574275 6.0980139,35.075149 4.3264391,31.505097 1.8990828,26.613521 1.5666498,22.353734 3.3501505,18.994971 c 0.711511,-1.339946 2.819511,-3.39862 4.2554818,-4.155908 1.9244006,-1.014869 3.2531917,-1.323056 5.6742047,-1.316019 1.342606,0.0039 2.660285,0.131132 3.50154,0.338095 1.585008,0.389937 4.109643,1.536016 5.610824,2.547081 l 1.064017,0.71663 0.05156,-6.459924 0.05156,-6.4599254 8.507658,0 8.507658,0 0.05156,6.4599254 0.05156,6.459924 1.064017,-0.71663 c 1.428872,-0.962363 3.943712,-2.119603 5.447215,-2.506614 6.857001,-1.765038 13.389868,1.834145 14.546567,8.014209 0.437065,2.335177 -0.201331,5.980417 -1.57977,9.020502 -1.380284,3.044147 -4.898964,7.570603 -7.211883,9.277413 -0.991738,0.73185 -1.194774,0.979848 -1.201649,1.467747 -0.0045,0.322904 -0.182958,3.565935 -0.396464,7.206735 -0.350705,5.980424 -0.426613,6.673597 -0.786102,7.178454 -1.385706,1.946042 -5.039152,3.494111 -9.686231,4.104326 -1.698927,0.223089 -12.480569,0.428891 -14.481772,0.27643 z m 9.393582,-2.239939 c 6.152726,-0.459738 10.091149,-1.35031 11.397065,-2.577155 0.53862,-0.506007 0.590899,-1.526731 0.100291,-1.958042 -2.807979,-2.468574 -15.725563,-3.45848 -24.846349,-1.904035 -4.06142,0.692184 -5.927417,1.58056 -5.927417,2.821964 0,1.497239 2.399043,2.478505 7.925835,3.241863 3.939114,0.54407 7.511904,0.662234 11.350578,0.375405 z M 16.814069,51.360601 c 2.899055,-1.994602 8.506007,-2.875214 17.013516,-2.672089 7.038367,0.168045 10.990444,0.950735 13.492349,2.672089 0.475726,0.32731 0.915138,0.595106 0.976472,0.595106 0.06134,0 0.111514,-0.665729 0.111514,-1.479396 l 0,-1.479398 -1.556132,-1.798571 -1.55613,-1.798572 1.823427,-0.05569 1.823427,-0.05569 0.137041,-2.045828 c 0.07537,-1.125206 0.08787,-2.12539 0.02777,-2.222629 -0.199529,-0.322844 -3.658263,-1.601835 -5.883085,-2.175482 -3.876713,-0.999568 -6.185769,-1.260419 -11.15724,-1.260419 -4.971471,0 -7.280526,0.260851 -11.15724,1.260419 -2.224822,0.573647 -5.683557,1.852638 -5.883085,2.175482 -0.0601,0.09724 -0.0476,1.097423 0.02777,2.222629 l 0.137042,2.045828 1.823427,0.05569 1.823427,0.05569 -1.556131,1.798572 -1.556132,1.798571 0,1.479398 c 0,0.813667 0.05018,1.479396 0.111515,1.479396 0.06134,0 0.500745,-0.267796 0.976471,-0.595106 z m 12.711427,-6.745087 c -1.323535,-0.471304 -1.666576,-1.421255 -0.805393,-2.230295 1.080196,-1.01479 5.609327,-1.018806 6.687487,-0.006 0.904251,0.849501 0.431725,1.916271 -1.028411,2.321732 -1.059709,0.294267 -3.929142,0.243714 -4.853683,-0.08551 z M 14.31115,38.388561 c 2.719514,-1.696092 7.828092,-2.910043 13.450459,-3.196234 1.399253,-0.07122 2.740902,-0.181529 2.981447,-0.245118 l 0.43735,-0.11562 -0.796232,-2.348193 C 27.397835,23.676278 22.329625,17.820144 16.505914,16.447568 15.06916,16.108944 12.131712,16.055947 10.874413,16.345969 8.5468733,16.882861 6.7086507,18.360346 5.614947,20.573306 4.6627196,22.500008 4.5150075,24.441951 5.1321697,26.92033 c 0.4956289,1.990334 2.007667,5.09834 3.3253661,6.835314 0.8830601,1.16404 4.7479092,5.08819 5.0112972,5.08819 0.06178,0 0.440825,-0.204871 0.842317,-0.455271 z M 52.095264,37.62071 c 3.298921,-2.871162 5.618609,-6.238119 6.712475,-9.742952 0.360079,-1.153724 0.456519,-1.91343 0.458721,-3.613547 0.0026,-2.008673 -0.03793,-2.2378 -0.605907,-3.424744 -0.887424,-1.854533 -1.985679,-2.989582 -3.723888,-3.848652 -1.377316,-0.680706 -1.606406,-0.731232 -3.656586,-0.806449 -2.589641,-0.09501 -4.212976,0.221729 -6.312885,1.231745 -3.685273,1.772544 -6.857671,5.345913 -9.380735,10.566392 -0.998596,2.066203 -2.716722,6.73896 -2.542064,6.913617 0.04626,0.04626 1.254312,0.158798 2.684553,0.250078 5.540978,0.353637 10.210043,1.347419 13.035045,2.774432 0.934325,0.471962 1.749881,0.872757 1.812349,0.890658 0.06247,0.0179 0.745982,-0.517861 1.518922,-1.190578 z M 33.213408,27.774024 c 0.889198,-1.80257 2.361431,-4.189274 3.764512,-6.102833 l 0.322861,-0.440325 -5.23378,0 -5.233779,0 0.323259,0.440325 c 1.376346,1.874777 2.995956,4.512504 3.852544,6.274324 0.56087,1.153589 1.048789,2.068406 1.084267,2.032928 0.03548,-0.03547 0.539529,-1.027466 1.120116,-2.204419 z m 3.566847,-9.060616 c -0.05746,-0.09299 -1.143151,-1.140668 -2.412627,-2.328185 l -2.30814,-2.159121 -2.44249,2.319731 -2.442487,2.319731 4.855116,0.0084 c 2.679399,0.0046 4.80829,-0.06731 4.750628,-0.16061 z M 28.280322,15.29753 30.560329,12.886952 28.198656,10.502973 C 26.899737,9.191784 25.807684,8.1189926 25.771873,8.1189926 c -0.03581,0 -0.06511,2.1575884 -0.06511,4.7946394 0,2.637053 0.06605,4.794604 0.146774,4.794559 0.08073,-4.7e-5 1.17278,-1.084844 2.426784,-2.410661 z m 10.146917,-2.383898 c 0,-2.637051 -0.0293,-4.7946394 -0.06511,-4.7946394 -0.03581,0 -1.127865,1.0727914 -2.426783,2.3839804 l -2.361674,2.383979 2.280009,2.410578 c 1.254004,1.325817 2.346056,2.410614 2.426782,2.410661 0.08073,4.5e-5 0.146775,-2.157506 0.146775,-4.794559 z m -3.718293,-3.8241948 2.446245,-2.3368132 -5.08819,0 -5.08819,0 2.446245,2.3368132 c 1.345435,1.2852468 2.53431,2.3368118 2.641945,2.3368118 0.107635,0 1.29651,-1.051565 2.641945,-2.3368118 z"
       id="path3004"
       inkscape:connector-curvature="0" />
    <path
       style="fill:#000000;filter:url(#filter2820)"
       d="m 28.949802,57.112636 c -3.231124,-0.226803 -7.460385,-0.88227 -9.172214,-1.421544 -1.38222,-0.435438 -1.889205,-0.704385 -2.378656,-1.261839 -1.494682,-1.702348 1.298516,-3.066674 7.951053,-3.883659 2.693231,-0.33075 10.821784,-0.32798 13.499312,0.0046 3.413556,0.424003 5.249951,0.84945 6.754254,1.564793 0.497505,0.236579 1.017086,0.55449 1.154625,0.706469 0.355132,0.392416 0.314297,1.198686 -0.08225,1.624077 -1.350057,1.448243 -7.171883,2.552594 -14.062021,2.667447 -1.626346,0.02711 -3.27519,0.02696 -3.664099,-3.44e-4 z"
       id="path3006"
       inkscape:connector-curvature="0"
       transform="matrix(1.029998,0,0,1.029998,-0.91350949,-0.60743588)" />
    <path
       style="fill:#000000;filter:url(#filter2820)"
       d="m 16.295681,50.793001 c -0.04059,-0.04059 -0.0738,-0.639675 -0.0738,-1.331296 l 0,-1.257494 1.477762,-1.710212 c 0.812769,-0.940616 1.478092,-1.745289 1.478496,-1.788161 3.98e-4,-0.04287 -0.754399,-0.108576 -1.67734,-0.146009 -0.92294,-0.03743 -1.707599,-0.09759 -1.743687,-0.133673 -0.09613,-0.09613 -0.280685,-3.384177 -0.210549,-3.75107 0.04815,-0.251875 0.266079,-0.398851 1.123767,-0.757886 2.589167,-1.083846 6.201016,-2.051091 9.193916,-2.462108 2.085513,-0.286406 7.580464,-0.395775 10.109353,-0.201212 4.082239,0.314071 8.006079,1.235668 11.540833,2.710609 l 1.015525,0.423747 -0.07766,1.98844 c -0.04271,1.093643 -0.105569,2.016354 -0.139684,2.050469 -0.03412,0.03412 -0.850824,0.09939 -1.814907,0.145053 l -1.752878,0.08302 1.552003,1.789958 1.552003,1.789957 -0.002,1.167035 c -10e-4,0.641869 -0.04577,1.235922 -0.0993,1.320118 -0.06981,0.109798 -0.278285,0.04012 -0.73728,-0.246417 -2.997643,-1.871335 -6.325245,-2.502201 -13.88213,-2.631849 -8.181811,-0.14037 -12.558765,0.539721 -15.797734,2.454652 -0.528519,0.31247 -0.994154,0.534915 -1.034745,0.494325 l 0,0 z m 18.409805,-6.901413 c 1.413549,-0.593558 1.415543,-1.892778 0.0039,-2.526296 -0.61528,-0.276125 -0.861742,-0.305928 -2.545432,-0.307806 -2.102027,-0.0023 -2.885415,0.157773 -3.477378,0.710749 -0.298327,0.27868 -0.379569,0.464913 -0.379569,0.870102 0,0.734423 0.520116,1.149039 1.864191,1.486063 0.141421,0.03546 1.096016,0.04944 2.12132,0.03106 1.445586,-0.02592 1.987426,-0.08517 2.412998,-0.263867 l 0,0 z"
       id="path3008"
       inkscape:connector-curvature="0"
       transform="matrix(1.029998,0,0,1.029998,-0.91350949,-0.60743588)" />
    <path
       style="fill:#000000;filter:url(#filter2820)"
       d="M 11.638722,35.944952 C 9.0210802,33.286066 7.9560451,31.780964 6.8398098,29.163156 6.0717859,27.361976 5.5486174,25.279291 5.5532279,24.041392 c 0.00652,-1.75157 0.9183971,-3.983779 2.1766431,-5.328286 1.3227208,-1.413401 2.940034,-2.167328 5.020757,-2.340478 1.255972,-0.104517 3.622253,0.0983 4.643473,0.398006 5.613935,1.647544 10.308044,7.429844 13.224112,16.289729 0.228382,0.693896 0.390469,1.286401 0.360191,1.316678 -0.03028,0.03028 -1.462545,0.172835 -3.182818,0.316793 -3.840571,0.321391 -5.32915,0.533459 -7.673267,1.093156 -2.060176,0.491901 -3.695991,1.087211 -5.090431,1.852525 -0.524296,0.28775 -1.01099,0.523181 -1.081544,0.523181 -0.07055,0 -1.110784,-0.997984 -2.311622,-2.217744 z"
       id="path3010"
       inkscape:connector-curvature="0"
       transform="matrix(1.029998,0,0,1.029998,-0.91350949,-0.60743588)" />
    <path
       style="fill:#000000;filter:url(#filter2820)"
       d="M 49.005921,37.711611 C 45.885226,36.07369 42.474434,35.275403 36.086763,34.68792 c -1.62546,-0.149497 -2.984037,-0.300467 -3.01906,-0.335489 -0.09736,-0.09736 0.823508,-2.725904 1.660325,-4.739298 2.849779,-6.856611 6.959707,-11.321392 11.77029,-12.786542 1.173501,-0.357411 3.546849,-0.534922 5.167035,-0.386461 1.125213,0.103106 1.38945,0.179757 2.441092,0.708118 1.836182,0.922527 3.307088,2.56607 3.964299,4.42958 0.507508,1.439031 0.347995,4.572362 -0.330688,6.495779 -0.913014,2.587518 -2.476207,5.066579 -4.577518,7.259467 -1.300899,1.357592 -2.979761,2.835774 -3.206692,2.823384 -0.06284,-0.0034 -0.490305,-0.203612 -0.949925,-0.444847 l 0,0 z"
       id="path3012"
       inkscape:connector-curvature="0"
       transform="matrix(1.029998,0,0,1.029998,-0.91350949,-0.60743588)" />
    <path
       style="fill:#000000;filter:url(#filter2820)"
       d="m 27.588229,18.768237 c 0.0373,-0.06035 1.047325,-1.045033 2.244502,-2.188182 l 2.176686,-2.078454 2.220358,2.091759 2.220358,2.091759 -0.95388,0.07962 c -1.481722,0.123679 -7.984077,0.126556 -7.908024,0.0035 z"
       id="path3014"
       inkscape:connector-curvature="0"
       transform="matrix(1.029998,0,0,1.029998,-0.91350949,-0.60743588)" />
    <path
       style="fill:#000000;filter:url(#filter2820)"
       d="m 25.947588,15.321984 c -0.04688,-1.242733 -0.04666,-3.24088 4.92e-4,-4.440326 l 0.08573,-2.1808117 2.165101,2.1622907 c 1.190805,1.18926 2.1651,2.204275 2.1651,2.255589 0,0.101836 -3.457032,3.714048 -3.997642,4.177088 L 26.03283,17.5815 25.947588,15.321984 z"
       id="path3016"
       inkscape:connector-curvature="0"
       transform="matrix(1.029998,0,0,1.029998,-0.91350949,-0.60743588)" />
    <path
       style="fill:#000000;filter:url(#filter2820)"
       d="M 30.598607,10.334631 C 29.868541,9.6663062 28.80838,8.6850801 28.242695,8.1541292 l -1.028519,-0.9653653 4.790838,-0.0051 4.790837,-0.0051 -1.319586,1.2646611 c -1.816413,1.740809 -3.333934,3.106545 -3.451801,3.106545 -0.05416,0 -0.695791,-0.546812 -1.425857,-1.215138 z"
       id="path3018"
       inkscape:connector-curvature="0"
       transform="matrix(1.029998,0,0,1.029998,-0.91350949,-0.60743588)" />
    <path
       style="fill:#000000;filter:url(#filter2820)"
       d="m 35.720327,15.354171 c -1.107494,-1.16027 -2.013625,-2.158893 -2.013625,-2.219162 0,-0.06027 0.983521,-1.091826 2.185603,-2.292347 l 2.185603,-2.1827664 0,4.4019284 c 0,3.589705 -0.03173,4.401929 -0.171978,4.401929 -0.09459,0 -1.078109,-0.949312 -2.185603,-2.109582 l 0,0 z"
       id="path3020"
       inkscape:connector-curvature="0"
       transform="matrix(1.029998,0,0,1.029998,-0.91350949,-0.60743588)" />
  </g>
</svg>
