<?xml version="1.0" encoding="UTF-8" standalone="no"?>
<!-- Created with Inkscape (http://www.inkscape.org/) -->

<svg
   xmlns:dc="http://purl.org/dc/elements/1.1/"
   xmlns:cc="http://creativecommons.org/ns#"
   xmlns:rdf="http://www.w3.org/1999/02/22-rdf-syntax-ns#"
   xmlns:svg="http://www.w3.org/2000/svg"
   xmlns="http://www.w3.org/2000/svg"
   xmlns:sodipodi="http://sodipodi.sourceforge.net/DTD/sodipodi-0.dtd"
   xmlns:inkscape="http://www.inkscape.org/namespaces/inkscape"
   width="64px"
   height="64px"
   id="svg2985"
   version="1.1"
   inkscape:version="0.47 r22583"
   sodipodi:docname="bn.svg">
  <defs
     id="defs2987">
    <inkscape:perspective
       sodipodi:type="inkscape:persp3d"
       inkscape:vp_x="0 : 32 : 1"
       inkscape:vp_y="0 : 1000 : 0"
       inkscape:vp_z="64 : 32 : 1"
       inkscape:persp3d-origin="32 : 21.333333 : 1"
       id="perspective11" />
    <filter
       id="filter2817"
       inkscape:label="Eroded metal"
       inkscape:menu="Materials"
       inkscape:menu-tooltip="Eroded metal texture with ridges, grooves, holes and bumps"
       color-interpolation-filters="sRGB">
      <feGaussianBlur
         id="feGaussianBlur2819"
         result="result0"
         in="SourceGraphic"
         stdDeviation="0.9" />
      <feTurbulence
         id="feTurbulence2821"
         type="turbulence"
         baseFrequency="0.01"
         seed="4"
         numOctaves="4"
         result="result1" />
      <feDisplacementMap
         id="feDisplacementMap2823"
         in2="result1"
         xChannelSelector="R"
         result="result91" />
      <feComposite
         id="feComposite2825"
         in2="result91"
         result="result2"
         operator="out"
         in="result0" />
      <feComposite
         id="feComposite2827"
         in2="result2"
         k1="0.1"
         k3="1.2"
         in="SourceAlpha"
         operator="arithmetic"
         result="result5" />
      <feBlend
         id="feBlend2829"
         in2="result5"
         result="fbSourceGraphic"
         mode="multiply" />
      <feGaussianBlur
         id="feGaussianBlur2831"
         stdDeviation="3"
         in="fbSourceGraphic"
         result="result0" />
      <feSpecularLighting
         id="feSpecularLighting2833"
         in="result0"
         result="result1"
         lighting-color="rgb(224,132,0)"
         surfaceScale="3"
         specularConstant="0.35"
         specularExponent="5">
        <feDistantLight
           azimuth="225"
           elevation="45"
           id="feDistantLight14" />
      </feSpecularLighting>
      <feComposite
         id="feComposite2837"
         in2="fbSourceGraphic"
         in="result1"
         result="result2"
         operator="in" />
      <feComposite
         id="feComposite2839"
         in2="result2"
         k1="-1"
         in="fbSourceGraphic"
         result="result4"
         operator="arithmetic"
         k2="2.5"
         k3="3.5" />
      <feBlend
         id="feBlend2841"
         in2="result4"
         mode="multiply" />
    </filter>
  </defs>
  <sodipodi:namedview
     id="base"
     pagecolor="#ffffff"
     bordercolor="#666666"
     borderopacity="1.0"
     inkscape:pageopacity="0.0"
     inkscape:pageshadow="2"
     inkscape:zoom="5.5"
     inkscape:cx="-34.818183"
     inkscape:cy="32"
     inkscape:current-layer="layer1"
     showgrid="true"
     inkscape:document-units="px"
     inkscape:grid-bbox="true"
     inkscape:window-width="1270"
     inkscape:window-height="743"
     inkscape:window-x="0"
     inkscape:window-y="0"
     inkscape:window-maximized="1" />
  <metadata
     id="metadata2990">
    <rdf:RDF>
      <cc:Work
         rdf:about="">
        <dc:format>image/svg+xml</dc:format>
        <dc:type
           rdf:resource="http://purl.org/dc/dcmitype/StillImage" />
        <dc:title />
      </cc:Work>
    </rdf:RDF>
  </metadata>
  <g
     id="layer1"
     inkscape:label="Layer 1"
     inkscape:groupmode="layer">
    <path
       style="fill:#000000"
       d="m 19.46097,57.788241 c -1.494563,-2.800594 -0.886926,-3.962973 5.937839,-11.358776 3.718698,-4.029849 6.761268,-7.663517 6.761268,-8.074821 0,-0.411303 -0.805386,-0.531372 -1.789747,-0.26682 -0.984362,0.264552 -3.253577,0.485906 -5.042702,0.491897 -2.673663,0.0089 -3.410894,0.358524 -4.139856,1.962991 -1.394939,3.070306 -4.6234,4.739064 -9.039182,4.672259 C 3.8430439,45.089316 2.0635961,38.369068 8.7047208,32.208885 c 1.182495,-1.09686 2.9845122,-3.87426 4.0044822,-6.172 1.019971,-2.29774 2.743554,-5.349005 3.830187,-6.780587 1.792843,-2.361978 1.873542,-2.787451 0.871945,-4.597166 -2.111047,-3.814301 -1.001398,-8.0624885 1.708677,-6.5415213 1.227117,0.6886916 1.627052,0.4426646 2.442657,-1.50263 1.233459,-2.9419168 2.107251,-2.9280911 4.233861,0.06699 1.159704,1.6333067 2.376555,2.3961537 3.832521,2.4026161 1.173318,0.00517 4.017549,0.5124994 6.320514,1.1273162 15.46133,4.127667 24.17176,19.105796 23.044253,39.626033 -0.235647,4.288697 -0.663573,8.179154 -0.950945,8.645463 -0.344841,0.559558 -6.852847,0.847832 -19.140484,0.847832 -17.592959,0 -18.663324,-0.08495 -19.441419,-1.542991 z m 37.136928,-3.442735 c -0.209614,-1.864662 -0.631401,-4.144467 -0.937303,-5.066234 -0.365917,-1.102605 -0.100451,-2.132984 0.776001,-3.011936 1.337341,-1.341161 1.239787,-2.100951 -0.601212,-4.68253 -0.786651,-1.103099 -0.790391,-1.719508 -0.01796,-2.9599 1.110547,-1.783349 0.634917,-3.687101 -1.086704,-4.349637 -0.863947,-0.332475 -1.035995,-1.164624 -0.658264,-3.183859 0.42293,-2.260847 0.223104,-2.888466 -1.155173,-3.628204 -0.984122,-0.528192 -1.666563,-1.681792 -1.666563,-2.817163 0,-1.30217 -0.695121,-2.258558 -2.153831,-2.963368 -1.184608,-0.57237 -2.36319,-1.934309 -2.61907,-3.02653 C 45.836137,15.917141 38.644472,12.346269 31.496627,11.217544 27.001425,10.507702 25.693381,9.9735234 24.925092,8.5338603 24.397522,7.545269 23.628269,6.945669 23.215642,7.2014149 c -0.80526,0.4991004 -0.456828,5.3619561 0.548647,7.6571451 0.385042,0.878932 0.270376,1.396003 -0.309575,1.396003 -0.506625,0 -1.434371,-1.231856 -2.06166,-2.737457 -0.627289,-1.505601 -1.527712,-2.977436 -2.000942,-3.270743 -1.638177,-1.0153424 -1.792751,0.421696 -0.382675,3.557623 l 1.41627,3.1497 -3.280413,4.926494 c -1.804229,2.709574 -3.280416,5.412066 -3.280416,6.005541 0,0.593474 -1.610773,2.89787 -3.579495,5.120879 -3.8099618,4.30207 -4.6451265,7.692603 -2.3627742,9.592199 0.930353,0.774331 1.679217,0.801344 3.1817742,0.114778 1.080778,-0.493842 1.965052,-1.264563 1.965052,-1.712713 0,-0.448151 0.536924,-0.814818 1.193165,-0.814818 1.438315,0 1.537756,0.930769 0.238633,2.233604 -0.742414,0.744535 -0.645997,0.95726 0.433878,0.95726 0.763626,0 2.267014,-0.881113 3.340863,-1.95803 1.976693,-1.982342 2.615225,-4.423699 1.157008,-4.423699 -0.437494,0 -0.795444,-0.29462 -0.795444,-0.654712 0,-0.360093 2.97563,-0.498087 6.61251,-0.306655 5.352496,0.281738 6.857386,0.102486 7.897617,-0.940718 1.668591,-1.67336 2.194185,-1.626569 2.194185,0.195334 0,2.173793 -3.419216,6.925503 -9.633717,13.388042 -3.013839,3.134133 -5.479708,5.886808 -5.479708,6.117058 0,0.230248 0.217272,0.986451 0.482826,1.680452 0.420472,1.098863 2.793491,1.261817 18.375294,1.261817 l 17.892469,0 -0.381117,-3.390293 z M 9.8876618,38.71425 c 0,-0.370744 0.7158992,-1.323812 1.5908872,-2.117927 1.262866,-1.146143 1.590887,-1.204531 1.590887,-0.28318 0,1.251212 -1.509755,3.075186 -2.545419,3.075186 -0.349995,0 -0.6363552,-0.303336 -0.6363552,-0.674079 z M 20.758722,26.890777 c -0.291662,-0.292495 -0.530296,-1.369412 -0.530296,-2.393148 0,-2.059321 2.084081,-2.506616 4.824954,-1.035554 1.808823,0.970818 2.142556,3.565916 0.370902,2.884125 -0.642229,-0.247151 -1.379254,-0.106071 -1.637831,0.313511 -0.542097,0.879639 -2.250961,1.010055 -3.027729,0.231066 z"
       id="path2960" />
    <path
       style="fill:#000000;filter:url(#filter2817)"
       d="m 28.636364,55.854325 c -3.115021,-0.07049 -5.39101,-0.20142 -5.864123,-0.337354 -0.850536,-0.244375 -1.230156,-0.69364 -1.407476,-1.6657 -0.134185,-0.735595 -0.254535,-0.586395 5.440444,-6.744569 5.87696,-6.354955 8.103378,-9.548771 8.103738,-11.624884 1.82e-4,-1.433196 -0.454676,-1.497325 -1.839727,-0.25934 -1.111465,0.993449 -1.520058,1.050627 -7.642259,1.069457 -3.067847,0.0094 -5.627686,0.06681 -5.68853,0.127496 -0.233387,0.232784 0.125469,0.668307 0.681177,0.826707 0.447443,0.127538 0.593728,0.280278 0.638612,0.666784 0.144157,1.241378 -1.661524,3.578727 -3.458324,4.476598 -1.766733,0.882847 -2.361922,0.682827 -1.452113,-0.487998 0.70024,-0.901135 0.803525,-1.251513 0.467868,-1.587169 -0.576825,-0.576826 -2.070196,-0.15358 -2.070196,0.586727 0,0.350313 -1.321802,1.304178 -2.221212,1.602913 -1.146305,0.380742 -1.793386,0.216083 -2.582244,-0.657089 -0.7633869,-0.844979 -0.9162251,-1.352911 -0.7724289,-2.567044 0.1982141,-1.673609 1.2933219,-3.511573 3.9367069,-6.607133 1.324276,-1.550805 2.115796,-2.793172 2.710343,-4.254143 0.558885,-1.373343 1.983844,-3.779853 4.23346,-7.149589 0.782456,-1.172053 1.422647,-2.259403 1.422647,-2.416334 0,-0.156931 -0.171506,-0.621508 -0.381124,-1.032394 -0.777163,-1.523366 -1.638305,-4.011826 -1.583505,-4.575886 0.04728,-0.486618 0.121714,-0.564268 0.500403,-0.522004 0.691428,0.07717 0.996307,0.46343 2.203531,2.791737 1.060836,2.045978 1.799993,2.977692 2.245991,2.831091 0.347535,-0.114235 0.319254,-0.799537 -0.0854,-2.06943 -0.540074,-1.694873 -0.730006,-5.670455 -0.288413,-6.036945 0.253354,-0.210265 0.373661,-0.157919 0.886286,0.385626 0.326227,0.345904 0.747371,0.855584 0.935876,1.132622 0.526062,0.773129 1.928607,1.30093 5.111809,1.923659 4.51338,0.882953 6.660129,1.546274 9.509453,2.938316 2.56223,1.251781 4.306792,2.730524 4.675116,3.962765 0.307329,1.028187 0.993669,1.77665 2.590284,2.824744 1.025974,0.673499 1.677916,1.545233 1.679012,2.245071 0.0015,0.931808 0.436111,1.861479 1.167813,2.497829 1.586482,1.37974 1.560205,1.343778 1.558767,2.133258 -7.27e-4,0.414504 -0.08102,1.244553 -0.178362,1.844553 -0.240992,1.485407 -0.05051,2.071285 0.87632,2.695425 C 53.531204,35.38474 54,36.117671 54,36.860496 c 0,0.263204 -0.252175,1.053109 -0.560385,1.755342 -0.343108,0.78174 -0.520577,1.435406 -0.457713,1.685877 0.05647,0.225 0.485918,1.036285 0.954325,1.802856 0.478186,0.782573 0.851651,1.616385 0.851651,1.901422 0,0.303709 -0.308731,0.945432 -0.768483,1.597363 -0.876777,1.243268 -0.949495,1.784269 -0.4981,3.705735 0.152698,0.65 0.40472,2.163636 0.560047,3.363636 0.155325,1.2 0.318151,2.447728 0.361831,2.772728 l 0.07942,0.590909 -10.39766,-0.03342 C 38.40622,55.98456 31.436364,55.917684 28.636364,55.854325 z M 13.65721,38.581842 c 0.71592,-0.752587 1.20312,-1.936484 1.00711,-2.447278 -0.100371,-0.261564 -0.166925,-0.264504 -0.62503,-0.02761 -0.560129,0.289654 -1.871294,1.63941 -2.213288,2.278434 -0.165573,0.309375 -0.165154,0.461398 0.0018,0.662596 0.399088,0.480871 1.097897,0.30281 1.829383,-0.466143 l 0,0 z M 24.357658,27.922584 c 0.473898,-0.398759 0.689575,-0.461026 1.309067,-0.377935 0.998561,0.133936 1.242366,0.0078 1.242366,-0.642641 0,-1.352929 -1.731904,-2.662274 -3.741939,-2.828962 -0.88905,-0.07373 -1.015542,-0.03445 -1.522913,0.472925 C 21.048407,25.141803 20.9601,25.70811 21.260915,27.004202 21.506858,28.063869 21.907193,28.4 22.92332,28.4 c 0.67057,0 0.995489,-0.108149 1.434338,-0.477416 l 0,0 z"
       id="path2962"
       transform="matrix(1.0999846,0,0,1.0999846,-3.0394314,-3.8883348)" />
  </g>
</svg>
