<?xml version="1.0" encoding="UTF-8" standalone="no"?>
<!-- Created with Inkscape (http://www.inkscape.org/) -->

<svg
   xmlns:dc="http://purl.org/dc/elements/1.1/"
   xmlns:cc="http://creativecommons.org/ns#"
   xmlns:rdf="http://www.w3.org/1999/02/22-rdf-syntax-ns#"
   xmlns:svg="http://www.w3.org/2000/svg"
   xmlns="http://www.w3.org/2000/svg"
   xmlns:sodipodi="http://sodipodi.sourceforge.net/DTD/sodipodi-0.dtd"
   xmlns:inkscape="http://www.inkscape.org/namespaces/inkscape"
   width="64px"
   height="64px"
   id="svg2985"
   version="1.1"
   inkscape:version="0.47 r22583"
   sodipodi:docname="bp.svg">
  <defs
     id="defs2987">
    <inkscape:perspective
       sodipodi:type="inkscape:persp3d"
       inkscape:vp_x="0 : 32 : 1"
       inkscape:vp_y="0 : 1000 : 0"
       inkscape:vp_z="64 : 32 : 1"
       inkscape:persp3d-origin="32 : 21.333333 : 1"
       id="perspective8" />
    <filter
       id="filter2814"
       inkscape:label="Eroded metal"
       inkscape:menu="Materials"
       inkscape:menu-tooltip="Eroded metal texture with ridges, grooves, holes and bumps"
       color-interpolation-filters="sRGB">
      <feGaussianBlur
         id="feGaussianBlur2816"
         result="result0"
         in="SourceGraphic"
         stdDeviation="0.9" />
      <feTurbulence
         id="feTurbulence2818"
         type="turbulence"
         baseFrequency="0.01"
         seed="4"
         numOctaves="4"
         result="result1" />
      <feDisplacementMap
         id="feDisplacementMap2820"
         in2="result1"
         xChannelSelector="R"
         result="result91" />
      <feComposite
         id="feComposite2822"
         in2="result91"
         result="result2"
         operator="out"
         in="result0" />
      <feComposite
         id="feComposite2824"
         in2="result2"
         k1="0.1"
         k3="1.2"
         in="SourceAlpha"
         operator="arithmetic"
         result="result5" />
      <feBlend
         id="feBlend2826"
         in2="result5"
         result="fbSourceGraphic"
         mode="multiply" />
      <feGaussianBlur
         id="feGaussianBlur2828"
         stdDeviation="3"
         in="fbSourceGraphic"
         result="result0" />
      <feSpecularLighting
         id="feSpecularLighting2830"
         in="result0"
         result="result1"
         lighting-color="rgb(224,132,0)"
         surfaceScale="3"
         specularConstant="0.35"
         specularExponent="5">
        <feDistantLight
           azimuth="225"
           elevation="45"
           id="feDistantLight14" />
      </feSpecularLighting>
      <feComposite
         id="feComposite2834"
         in2="fbSourceGraphic"
         in="result1"
         result="result2"
         operator="in" />
      <feComposite
         id="feComposite2836"
         in2="result2"
         k1="-1"
         in="fbSourceGraphic"
         result="result4"
         operator="arithmetic"
         k2="2.5"
         k3="3.5" />
      <feBlend
         id="feBlend2838"
         in2="result4"
         mode="multiply" />
    </filter>
  </defs>
  <sodipodi:namedview
     id="base"
     pagecolor="#ffffff"
     bordercolor="#666666"
     borderopacity="1.0"
     inkscape:pageopacity="0.0"
     inkscape:pageshadow="2"
     inkscape:zoom="5.5"
     inkscape:cx="-8.1508632"
     inkscape:cy="27.676805"
     inkscape:current-layer="layer1"
     showgrid="true"
     inkscape:document-units="px"
     inkscape:grid-bbox="true"
     inkscape:window-width="1270"
     inkscape:window-height="743"
     inkscape:window-x="0"
     inkscape:window-y="0"
     inkscape:window-maximized="1" />
  <metadata
     id="metadata2990">
    <rdf:RDF>
      <cc:Work
         rdf:about="">
        <dc:format>image/svg+xml</dc:format>
        <dc:type
           rdf:resource="http://purl.org/dc/dcmitype/StillImage" />
        <dc:title />
      </cc:Work>
    </rdf:RDF>
  </metadata>
  <g
     id="layer1"
     inkscape:label="Layer 1"
     inkscape:groupmode="layer">
    <path
       style="fill:#000000"
       d="m 12.213024,59.29402 c 0,-1.161934 0.410437,-2.70482 1.03443,-3.888562 1.476129,-2.800278 4.945961,-4.466242 9.93526,-4.770203 l 1.897341,-0.115592 0.106499,-1.292899 c 0.10128,-1.229561 0.07952,-1.317813 -0.444371,-1.801464 -2.290162,-2.114285 -1.954386,-6.375238 0.983415,-12.479459 l 1.164824,-2.420298 0,-2.031846 0,-2.031848 -5.954461,0 c -6.763084,0 -6.218921,0.161399 -5.938238,-1.761287 0.234505,-1.606353 1.373449,-3.766855 2.667663,-5.060377 1.093099,-1.092516 3.082602,-2.284358 4.626119,-2.771344 0.430537,-0.135836 1.451929,-0.630879 2.269763,-1.100094 0.817835,-0.469215 1.568803,-0.853118 1.66882,-0.853118 0.100012,0 0.370886,-0.132407 0.60193,-0.294237 L 27.2521,16.327155 26.561329,15.006878 c -0.61757,-1.180368 -0.680311,-1.43804 -0.592062,-2.431559 0.349895,-3.9391746 4.920807,-6.3935705 8.651251,-4.6453748 1.308509,0.6132061 2.713896,2.0767698 3.10972,3.2384498 0.597791,1.754419 0.201435,4.374776 -0.741553,4.902498 -0.282432,0.158058 -0.282886,0.214017 -0.0049,0.610823 0.414249,0.591425 1.785159,1.258932 3.90054,1.899206 2.829736,0.856492 4.520502,1.765903 5.985309,3.219312 1.53695,1.524993 2.116559,2.833194 2.279509,5.144952 l 0.106906,1.516664 -5.996774,0 -5.996772,0 0,2.156396 0,2.156396 0.960493,2.0022 c 2.970092,6.191327 3.347947,10.741393 1.054,12.692086 -0.519639,0.441881 -0.543531,0.5353 -0.481769,1.883754 l 0.06498,1.418815 1.598455,0.0026 c 2.192198,0.0035 5.01122,0.618471 6.731345,1.468382 2.799285,1.383126 4.373165,3.579417 4.520409,6.308068 l 0.07656,1.418824 -19.786954,0 -19.786954,0 0,-0.675313 z m 36.008551,-1.876566 c 0,-0.476781 -0.828808,-1.768668 -1.427782,-2.225529 -1.497548,-1.142235 -3.645099,-1.753323 -7.282276,-2.072174 -1.277274,-0.111971 -2.354986,-0.236257 -2.394918,-0.27619 -0.03993,-0.03993 -0.257551,-1.183599 -0.483598,-2.541483 l -0.410993,-2.46888 0.715795,-0.634611 c 0.566458,-0.502212 0.781765,-0.898931 1.032005,-1.901532 0.590294,-2.365055 -0.02073,-5.03181 -2.193399,-9.572819 l -1.253739,-2.620395 0,-2.320996 0,-2.320996 -2.544083,0 -2.544082,0 0,2.351394 0,2.351391 -1.151917,2.297933 c -1.852717,3.695934 -2.432274,5.487323 -2.451945,7.578832 -0.01936,2.05905 0.37868,3.341864 1.269539,4.091472 0.671641,0.56515 0.681834,0.745115 0.206101,3.638625 l -0.337844,2.054836 -1.066426,0.131269 c -0.586535,0.0722 -1.918353,0.225249 -2.959598,0.340113 -2.333209,0.257385 -4.50046,0.926963 -5.723124,1.768178 -0.95351,0.656031 -1.677372,1.610131 -1.678659,2.212585 -6.84e-4,0.323435 0.907591,0.342472 16.340107,0.342472 11.18079,0 16.340836,-0.06426 16.340836,-0.203495 z M 45.976044,25.386359 C 45.780813,24.34569 45.421307,23.737082 44.52176,22.924394 43.582475,22.075807 41.981664,21.246629 40.100082,20.634079 37.513339,19.791964 35.45144,18.531085 34.315319,17.096616 l -0.614246,-0.775548 0.693289,-0.767387 c 0.761094,-0.842438 1.01139,-1.722478 0.86338,-3.035624 -0.350896,-3.1131496 -4.735371,-3.8807913 -6.179912,-1.081991 -0.777219,1.50586 -0.341089,3.791337 0.862892,4.52187 l 0.458151,0.27799 -0.664757,0.840052 c -1.312628,1.658765 -2.840466,2.5976 -5.802476,3.56554 -1.945719,0.635831 -3.010725,1.200098 -4.222051,2.236949 -0.842946,0.721528 -1.625606,2.073241 -1.625606,2.807537 l 0,0.427462 14.014233,0 14.014232,0 -0.136405,-0.727107 z"
       id="path3238"
       inkscape:connector-curvature="0" />
    <path
       style="fill:#000000;filter:url(#filter2814)"
       d="m 18.908285,55.111233 c -1.426189,-0.04357 -2.633611,-0.119909 -2.683161,-0.16965 -0.303906,-0.305074 0.581211,-1.497908 1.593501,-2.147492 1.586731,-1.018203 3.914548,-1.569797 8.51533,-2.017775 l 0.847088,-0.08248 0.284286,-1.825331 c 0.156357,-1.003932 0.295855,-2.14524 0.309995,-2.536239 0.02371,-0.65569 -0.0113,-0.751907 -0.450839,-1.238801 -0.972348,-1.077111 -1.355299,-2.464403 -1.20879,-4.379007 0.15164,-1.981663 0.594634,-3.2864 2.37995,-7.009593 l 1.041016,-2.170989 0,-2.232357 0,-2.232357 2.442732,0 2.442733,0 0,2.236664 0,2.236665 1.01066,2.166682 c 1.987323,4.260481 2.37534,5.521489 2.387544,7.759254 0.01124,2.060234 -0.199606,2.73984 -1.125393,3.627477 l -0.646795,0.620141 0.152475,0.993888 c 0.08386,0.54664 0.276087,1.664602 0.427165,2.48436 l 0.274689,1.49047 2.00609,0.224668 c 4.81514,0.539262 6.945957,1.270504 8.038269,2.758532 0.622826,0.848459 0.766504,1.252555 0.485148,1.364481 -0.284201,0.113057 -25.153211,0.181752 -28.523693,0.07879 l 0,0 z"
       id="path3240"
       inkscape:connector-curvature="0"
       transform="matrix(1.0299929,0,0,1.0299929,-0.9597951,0.7035068)" />
    <path
       style="fill:#000000;filter:url(#filter2814)"
       d="m 18.608647,24.23646 c 0,-0.918856 1.120458,-2.440473 2.473818,-3.359523 0.834906,-0.566974 1.363334,-0.809037 3.375883,-1.546431 2.839229,-1.040288 4.620651,-2.208377 5.663984,-3.713906 l 0.369877,-0.533734 -0.48412,-0.388375 c -1.361212,-1.092002 -1.499551,-3.634018 -0.266842,-4.9032977 0.592888,-0.6104783 1.092589,-0.856178 1.913619,-0.9409157 1.286559,-0.1327847 2.607378,0.5712878 3.141477,1.6745884 0.346202,0.715159 0.387082,2.126868 0.08268,2.855393 -0.117314,0.280773 -0.441672,0.781334 -0.720795,1.112357 -0.279122,0.331023 -0.507496,0.660501 -0.507496,0.732173 0,0.237862 1.448298,1.699135 2.240831,2.260905 1.029606,0.729815 1.838715,1.126924 3.834608,1.882018 3.856687,1.459075 5.475459,2.789633 5.811266,4.776598 l 0.08148,0.482118 -13.505138,0 -13.505136,0 0,-0.389968 z"
       id="path3242"
       inkscape:connector-curvature="0"
       transform="matrix(1.0299929,0,0,1.0299929,-0.9597951,0.7035068)" />
  </g>
</svg>
