<?xml version="1.0" encoding="UTF-8" standalone="no"?>
<!-- Created with Inkscape (http://www.inkscape.org/) -->

<svg
   xmlns:dc="http://purl.org/dc/elements/1.1/"
   xmlns:cc="http://creativecommons.org/ns#"
   xmlns:rdf="http://www.w3.org/1999/02/22-rdf-syntax-ns#"
   xmlns:svg="http://www.w3.org/2000/svg"
   xmlns="http://www.w3.org/2000/svg"
   xmlns:sodipodi="http://sodipodi.sourceforge.net/DTD/sodipodi-0.dtd"
   xmlns:inkscape="http://www.inkscape.org/namespaces/inkscape"
   width="64px"
   height="64px"
   id="svg2985"
   version="1.1"
   inkscape:version="0.47 r22583"
   sodipodi:docname="bq.svg">
  <defs
     id="defs2987">
    <inkscape:perspective
       sodipodi:type="inkscape:persp3d"
       inkscape:vp_x="0 : 32 : 1"
       inkscape:vp_y="0 : 1000 : 0"
       inkscape:vp_z="64 : 32 : 1"
       inkscape:persp3d-origin="32 : 21.333333 : 1"
       id="perspective13" />
    <filter
       id="filter2819"
       inkscape:label="Eroded metal"
       inkscape:menu="Materials"
       inkscape:menu-tooltip="Eroded metal texture with ridges, grooves, holes and bumps"
       color-interpolation-filters="sRGB">
      <feGaussianBlur
         id="feGaussianBlur2821"
         result="result0"
         in="SourceGraphic"
         stdDeviation="0.9" />
      <feTurbulence
         id="feTurbulence2823"
         type="turbulence"
         baseFrequency="0.01"
         seed="4"
         numOctaves="4"
         result="result1" />
      <feDisplacementMap
         id="feDisplacementMap2825"
         in2="result1"
         xChannelSelector="R"
         result="result91" />
      <feComposite
         id="feComposite2827"
         in2="result91"
         result="result2"
         operator="out"
         in="result0" />
      <feComposite
         id="feComposite2829"
         in2="result2"
         k1="0.1"
         k3="1.2"
         in="SourceAlpha"
         operator="arithmetic"
         result="result5" />
      <feBlend
         id="feBlend2831"
         in2="result5"
         result="fbSourceGraphic"
         mode="multiply" />
      <feGaussianBlur
         id="feGaussianBlur2833"
         stdDeviation="3"
         in="fbSourceGraphic"
         result="result0" />
      <feSpecularLighting
         id="feSpecularLighting2835"
         in="result0"
         result="result1"
         lighting-color="rgb(224,132,0)"
         surfaceScale="3"
         specularConstant="0.35"
         specularExponent="5">
        <feDistantLight azimuth = "225" elevation = "45"/>
      </feSpecularLighting>
      <feComposite
         id="feComposite2839"
         in2="fbSourceGraphic"
         in="result1"
         result="result2"
         operator="in" />
      <feComposite
         id="feComposite2841"
         in2="result2"
         k1="-1"
         in="fbSourceGraphic"
         result="result4"
         operator="arithmetic"
         k2="2.5"
         k3="3.5" />
      <feBlend
         id="feBlend2843"
         in2="result4"
         mode="multiply" />
    </filter>
  </defs>
  <sodipodi:namedview
     id="base"
     pagecolor="#ffffff"
     bordercolor="#666666"
     borderopacity="1.0"
     inkscape:pageopacity="0.0"
     inkscape:pageshadow="2"
     inkscape:zoom="5.5"
     inkscape:cx="-34.818183"
     inkscape:cy="32"
     inkscape:current-layer="layer1"
     showgrid="true"
     inkscape:document-units="px"
     inkscape:grid-bbox="true"
     inkscape:window-width="1270"
     inkscape:window-height="743"
     inkscape:window-x="0"
     inkscape:window-y="0"
     inkscape:window-maximized="1" />
  <metadata
     id="metadata2990">
    <rdf:RDF>
      <cc:Work
         rdf:about="">
        <dc:format>image/svg+xml</dc:format>
        <dc:type
           rdf:resource="http://purl.org/dc/dcmitype/StillImage" />
        <dc:title></dc:title>
      </cc:Work>
    </rdf:RDF>
  </metadata>
  <g
     id="layer1"
     inkscape:label="Layer 1"
     inkscape:groupmode="layer">
    <path
       style="fill:#000000"
       d="M 21.117725,58.098083 C 14.418864,56.774803 14.359915,56.68623 12.96121,45.843103 11.828876,37.064958 7.7060961,26.618418 4.7737857,25.097326 2.9302741,24.141033 2.5879593,23.504199 2.7908464,21.408316 c 0.2245414,-2.319577 0.4793125,-2.533185 3.021334,-2.533185 2.6354067,0 2.7885917,0.150759 3.0222897,2.974408 0.135395,1.635925 0.532477,2.974409 0.882404,2.974409 0.3499259,0 2.0216189,1.10097 3.7148719,2.446598 l 3.078643,2.446598 1.426698,-5.024419 c 0.784684,-2.76343 2.09713,-6.699542 2.916546,-8.746915 1.278777,-3.195125 1.330173,-3.855013 0.362777,-4.65788 -1.876074,-1.557003 -1.379716,-4.6259165 0.917468,-5.6725843 3.560794,-1.6224059 6.742829,2.3856478 4.264636,5.3716873 -0.715249,0.861821 -0.726493,1.41684 -0.04533,2.237589 0.498218,0.600316 1.921389,2.948541 3.162603,5.218278 l 2.256754,4.126795 2.890069,-5.257836 c 2.344398,-4.26511 2.730743,-5.555542 2.046216,-6.834591 C 36.244707,9.6100533 36.087,8.2009687 36.358367,7.3459673 36.971998,5.4125885 40.322972,4.477528 41.911973,5.796281 c 1.3831,1.1478715 1.553312,4.0593861 0.310004,5.302694 -0.630497,0.630497 -0.320015,2.472579 1.12967,6.702335 1.099523,3.208081 2.24436,7.171358 2.544085,8.807283 0.299724,1.635925 0.680606,2.974409 0.846404,2.974409 0.165799,0 1.999953,-1.296811 4.075899,-2.881802 2.600264,-1.985311 3.694758,-3.357132 3.518284,-4.40976 -0.340682,-2.03208 1.232043,-3.812897 3.36735,-3.812897 4.024548,0 4.882088,4.114697 1.287492,6.177713 -3.241762,1.860515 -7.005161,11.587293 -8.501643,21.973111 -1.312755,9.110718 -2.034739,10.113522 -8.239419,11.444188 -4.58044,0.982329 -16.215323,0.995833 -21.132375,0.02452 z M 44.933164,55.47741 c 1.667321,-0.699995 2.81227,-1.627428 2.544332,-2.060963 -2.393989,-3.873556 -29.849111,-3.44886 -31.136115,0.481637 -0.285968,0.87334 2.63487,2.117942 6.920663,2.948976 4.198172,0.814041 18.644538,-0.09899 21.67112,-1.36965 z M 25.04222,49.232468 c 4.727129,-0.719498 7.742994,-0.717765 13.087398,0.0076 3.819616,0.518356 7.644938,1.036898 8.500717,1.152318 2.399667,0.323646 2.398915,-2.135942 -9.52e-4,-3.229412 -2.542288,-1.158343 -2.181015,-2.817544 0.687429,-3.157117 1.640623,-0.194244 2.120028,-0.682319 2.120028,-2.158422 0,-1.67552 -0.699143,-2.123641 -5.750523,-3.685836 -7.70217,-2.381981 -16.397151,-2.363515 -24.256447,0.05151 -4.469997,1.373554 -5.708438,2.064881 -5.353936,2.988697 0.253647,0.660997 0.461178,1.52955 0.461178,1.930117 0,0.400567 0.692794,0.728304 1.539541,0.728304 2.370193,0 2.926604,1.720608 0.975373,3.016178 -0.946956,0.628755 -1.721738,1.855142 -1.721738,2.725305 0,1.262499 0.360532,1.479455 1.784646,1.073943 0.981554,-0.279497 4.548833,-0.9289 7.927286,-1.443122 z m 3.075554,-5.29577 c -1.901554,-1.204426 -0.131871,-2.456061 3.472615,-2.456061 3.604486,0 5.374169,1.251635 3.472613,2.456061 -0.601197,0.380793 -2.163873,0.692349 -3.472613,0.692349 -1.30874,0 -2.871417,-0.311556 -3.472615,-0.692349 z m 3.54403,-9.553539 c 3.487165,-0.0355 13.143598,1.9451 17.059778,3.499082 0.985867,0.391203 1.689419,-0.607616 3.164787,-4.492987 1.043409,-2.747808 2.019644,-5.263712 2.169414,-5.590897 0.649505,-1.418905 -1.41215,-0.37965 -4.514098,2.275503 -1.844369,1.578712 -3.530888,2.692896 -3.747819,2.475964 -0.216932,-0.216931 -1.067106,-3.204018 -1.889275,-6.63797 -0.822171,-3.43395 -2.173626,-7.837493 -3.003235,-9.785648 l -1.508381,-3.5421 -2.090296,3.566821 c -1.149663,1.961751 -2.715884,5.254742 -3.480491,7.317756 -0.764606,2.063014 -1.706585,3.645472 -2.093285,3.516572 -0.386699,-0.1289 -1.506019,-2.207919 -2.487377,-4.620041 -2.001958,-4.9207 -4.251236,-8.645725 -5.22054,-8.645725 -0.933468,0 -3.656466,7.657561 -4.823009,13.563171 -0.551517,2.792051 -1.087513,5.200717 -1.191103,5.352589 -0.103586,0.151873 -1.870312,-1.008147 -3.926051,-2.577821 -2.05574,-1.569673 -4.02367,-2.853953 -4.3731769,-2.853953 -0.349508,0 0.178723,1.873877 1.1738459,4.164172 0.995123,2.290295 2.011457,4.727273 2.258521,5.415508 0.400328,1.115177 1.212801,1.05492 7.466852,-0.553778 3.859704,-0.992813 8.834428,-1.823611 11.054939,-1.846218 z M 7.2492881,21.858648 c -0.398183,-2.0676 -3.0234589,-2.298187 -3.0234589,-0.265562 0,1.135113 0.5093971,1.644511 1.64451,1.644511 1.1351129,0 1.5622519,-0.427138 1.3789489,-1.378949 z m 52.3007739,-0.0087 c 0.433677,-1.302495 -2.051532,-2.232266 -3.117479,-1.166318 -0.456162,0.456161 -0.577356,1.237176 -0.26932,1.735587 0.700811,1.133939 2.945314,0.756671 3.386799,-0.569269 z M 25.244984,8.6190831 c 0,-1.7598499 -1.121678,-2.3063026 -2.693401,-1.3121567 -1.499721,0.948604 -0.454141,3.4277086 1.302944,3.0893246 0.764751,-0.147278 1.390457,-0.9470032 1.390457,-1.7771679 z M 41.23871,9.3037079 c 0.262358,-0.6836931 0.08782,-1.632274 -0.387866,-2.1079587 -1.145223,-1.1452229 -3.387868,0.6431155 -2.783042,2.2192657 0.580225,1.5120441 2.574837,1.4420281 3.170908,-0.111307 z"
       id="path2876" />
    <path
       style="fill:#000000;filter:url(#filter2819)"
       d="m 46.818182,38.4713 c -1.650295,-0.588471 -5.648862,-1.550018 -9.090909,-2.186118 -4.932851,-0.911606 -7.62194,-0.707266 -15.818182,1.202 -4.684202,1.091156 -5.35414,1.193169 -5.771253,0.878793 -0.17419,-0.131286 -0.973134,-1.823213 -1.775432,-3.759839 -1.441579,-3.47975 -1.962627,-5.030158 -1.758944,-5.23384 0.145051,-0.145051 1.030767,0.421835 4.368968,2.796277 1.584837,1.127285 2.949402,2.049609 3.032368,2.049609 0.08296,0 0.328984,-0.797727 0.546708,-1.772727 1.025938,-4.594294 1.883665,-7.965385 2.555148,-10.042393 0.734387,-2.27158 1.96378,-5.129304 2.29458,-5.33375 0.482946,-0.298477 1.81645,1.410369 3.095702,3.967052 0.400284,0.8 1.244737,2.6 1.87656,4 1.1447,2.536436 1.815946,3.779971 2.15274,3.988122 0.336297,0.207843 1.131999,-1.145819 2.383566,-4.054965 1.146931,-2.665928 2.955943,-6.202856 4.177098,-8.166934 l 0.484482,-0.779231 1.113762,2.779231 c 1.074416,2.681052 1.900772,5.399653 3.481396,11.453336 0.921325,3.528609 1.016184,3.780441 1.423998,3.780441 0.179746,0 1.184044,-0.65772 2.231773,-1.4616 3.093825,-2.373766 4.394925,-3.265673 4.763911,-3.265673 0.433276,0 0.478405,-0.150537 -1.319984,4.402967 -1.487262,3.765735 -2.223782,5.119178 -2.817658,5.177784 -0.19672,0.01941 -0.930398,-0.168931 -1.630398,-0.418542 l 0,0 z"
       id="path2878"
       transform="matrix(1.0999915,0,0,1.0999915,-4.1059223,-4.9235475)" />
    <path
       style="fill:#000000;filter:url(#filter2819)"
       d="m 17.939394,50.460606 c -0.249551,-0.249551 -0.108243,-1.622095 0.217929,-2.116787 0.18521,-0.280899 0.757398,-0.899478 1.271529,-1.37462 0.666965,-0.616385 0.934784,-1.000218 0.934784,-1.339714 0,-0.666434 -0.734367,-1.181489 -1.890533,-1.325942 -0.529478,-0.06615 -1.061296,-0.181223 -1.181817,-0.25571 -0.261557,-0.161651 -0.798437,-2.339403 -0.663452,-2.691168 0.262756,-0.684731 5.551593,-2.468054 9.432937,-3.180658 2.963733,-0.544133 9.733858,-0.587044 12.575593,-0.07971 3.952796,0.705693 8.90792,2.352687 9.555632,3.176119 0.483488,0.614656 0.486979,2.084972 0.0061,2.565861 -0.191052,0.191053 -0.825143,0.445845 -1.409091,0.566205 -1.32796,0.273713 -2.002583,0.613668 -2.151998,1.084432 -0.203911,0.642466 0.0837,1.062578 1.185747,1.732038 1.27764,0.776125 1.81362,1.401632 1.81362,2.116556 0,0.97203 -0.458752,1.014162 -4.78574,0.439525 -6.767834,-0.898789 -7.798498,-0.997504 -10.498549,-1.005528 -3.245566,-0.0096 -7.140806,0.471857 -11.757995,1.453443 -1.765232,0.375277 -2.453931,0.436413 -2.654687,0.235657 z m 16.969697,-5.729908 c 0.835738,-0.254347 1.483169,-0.859452 1.416653,-1.324041 -0.03177,-0.221896 -0.344477,-0.516023 -0.780289,-0.73393 -0.615386,-0.307692 -1.09091,-0.363636 -3.09091,-0.363636 -2,0 -2.475524,0.05594 -3.090909,0.363636 -2.134167,1.067084 0.294215,2.590624 3.727273,2.33845 0.65,-0.04775 1.468182,-0.173961 1.818182,-0.280479 z"
       id="path2880"
       transform="matrix(1.0999915,0,0,1.0999915,-4.1059223,-4.9235475)" />
    <path
       style="fill:#000000;filter:url(#filter2819)"
       d="M 25.818182,56.211789 C 23.492007,55.935401 20.090872,54.90076 19.196908,54.197568 18.236616,53.442202 18.806707,52.761461 21,52.044507 c 2.760324,-0.902307 6.838318,-1.318979 12.727273,-1.300418 4.523096,0.01426 7.774452,0.288637 10.015058,0.845168 1.298873,0.32262 2.866547,1.017537 3.082033,1.3662 0.338407,0.547555 -1.678549,1.814173 -3.595468,2.257896 -3.737227,0.865084 -13.716584,1.437361 -17.410714,0.998436 z"
       id="path2882"
       transform="matrix(1.0999915,0,0,1.0999915,-4.1059223,-4.9235475)" />
    <path
       style="fill:#000000;fill-opacity:1;filter:url(#filter2819)"
       d="M 8,25.127273 C 7.5357174,24.66299 7.5190051,23.653476 7.9688619,23.246361 8.151736,23.080863 8.5236368,22.945455 8.7953082,22.945455 c 0.5310974,0 1.3865098,0.714854 1.3865098,1.158683 0,0.146367 0.04561,0.384991 0.101366,0.530275 C 10.584813,25.420447 8.7000324,25.827305 8,25.127273 z"
       id="path2884"
       transform="matrix(1.0999915,0,0,1.0999915,-4.1059223,-4.9235475)" />
    <path
       style="fill:#000000;fill-opacity:1;filter:url(#filter2819)"
       d="m 24.342025,13.671507 c -0.423452,-0.247421 -0.766267,-1.187102 -0.630469,-1.728163 0.136232,-0.542792 1.084667,-1.178055 1.760264,-1.179028 0.676445,-9.74e-4 1.073635,0.528419 1.073635,1.430992 0,1.271081 -1.190011,2.068335 -2.20343,1.476199 z"
       id="path2886"
       transform="matrix(1.0999915,0,0,1.0999915,-4.1059223,-4.9235475)" />
    <path
       style="fill:#000000;fill-opacity:1;filter:url(#filter2819)"
       d="m 39.319781,13.906016 c -0.801104,-0.150085 -1.22592,-1.389478 -0.768937,-2.24336 0.219397,-0.409946 1.094568,-0.89902 1.608749,-0.89902 0.613792,0 1.162435,0.889958 1.05326,1.7085 -0.141594,1.061594 -0.882951,1.623124 -1.893072,1.43388 l 0,0 z"
       id="path2888"
       transform="matrix(1.0999915,0,0,1.0999915,-4.1059223,-4.9235475)" />
    <path
       style="fill:#000000;fill-opacity:1;filter:url(#filter2819)"
       d="m 55.02818,24.976593 c -0.729254,-0.805817 -0.0136,-2.031138 1.186291,-2.031138 0.798768,0 1.603711,0.593184 1.603711,1.181818 0,0.99977 -2.080645,1.63315 -2.790002,0.84932 z"
       id="path2890"
       transform="matrix(1.0999915,0,0,1.0999915,-4.1059223,-4.9235475)" />
  </g>
</svg>
