<?xml version="1.0" encoding="UTF-8" standalone="no"?>
<!-- Created with Inkscape (http://www.inkscape.org/) -->

<svg
   xmlns:dc="http://purl.org/dc/elements/1.1/"
   xmlns:cc="http://creativecommons.org/ns#"
   xmlns:rdf="http://www.w3.org/1999/02/22-rdf-syntax-ns#"
   xmlns:svg="http://www.w3.org/2000/svg"
   xmlns="http://www.w3.org/2000/svg"
   xmlns:sodipodi="http://sodipodi.sourceforge.net/DTD/sodipodi-0.dtd"
   xmlns:inkscape="http://www.inkscape.org/namespaces/inkscape"
   width="64px"
   height="64px"
   id="svg2985"
   version="1.1"
   inkscape:version="0.47 r22583"
   sodipodi:docname="br.svg">
  <defs
     id="defs2987">
    <inkscape:perspective
       sodipodi:type="inkscape:persp3d"
       inkscape:vp_x="0 : 32 : 1"
       inkscape:vp_y="0 : 1000 : 0"
       inkscape:vp_z="64 : 32 : 1"
       inkscape:persp3d-origin="32 : 21.333333 : 1"
       id="perspective10" />
    <filter
       id="filter2816"
       inkscape:label="Eroded metal"
       inkscape:menu="Materials"
       inkscape:menu-tooltip="Eroded metal texture with ridges, grooves, holes and bumps"
       color-interpolation-filters="sRGB">
      <feGaussianBlur
         id="feGaussianBlur2818"
         result="result0"
         in="SourceGraphic"
         stdDeviation="0.9" />
      <feTurbulence
         id="feTurbulence2820"
         type="turbulence"
         baseFrequency="0.01"
         seed="4"
         numOctaves="4"
         result="result1" />
      <feDisplacementMap
         id="feDisplacementMap2822"
         in2="result1"
         xChannelSelector="R"
         result="result91" />
      <feComposite
         id="feComposite2824"
         in2="result91"
         result="result2"
         operator="out"
         in="result0" />
      <feComposite
         id="feComposite2826"
         in2="result2"
         k1="0.1"
         k3="1.2"
         in="SourceAlpha"
         operator="arithmetic"
         result="result5" />
      <feBlend
         id="feBlend2828"
         in2="result5"
         result="fbSourceGraphic"
         mode="multiply" />
      <feGaussianBlur
         id="feGaussianBlur2830"
         stdDeviation="3"
         in="fbSourceGraphic"
         result="result0" />
      <feSpecularLighting
         id="feSpecularLighting2832"
         in="result0"
         result="result1"
         lighting-color="rgb(224,128,0)"
         surfaceScale="3"
         specularConstant="0.35"
         specularExponent="15">
        <fePointLight
           id="fePointLight2834"
           x="-5000"
           y="-10000"
           z="20000" />
      </feSpecularLighting>
      <feComposite
         id="feComposite2836"
         in2="fbSourceGraphic"
         in="result1"
         result="result2"
         operator="in" />
      <feComposite
         id="feComposite2838"
         in2="result2"
         k1="-1"
         in="fbSourceGraphic"
         result="result4"
         operator="arithmetic"
         k2="2.5"
         k3="3.5" />
      <feBlend
         id="feBlend2840"
         in2="result4"
         mode="multiply" />
    </filter>
  </defs>
  <sodipodi:namedview
     id="base"
     pagecolor="#ffffff"
     bordercolor="#666666"
     borderopacity="1.0"
     inkscape:pageopacity="0.0"
     inkscape:pageshadow="2"
     inkscape:zoom="5.5"
     inkscape:cx="-79.909093"
     inkscape:cy="32"
     inkscape:current-layer="layer1"
     showgrid="true"
     inkscape:document-units="px"
     inkscape:grid-bbox="true"
     inkscape:window-width="1270"
     inkscape:window-height="743"
     inkscape:window-x="0"
     inkscape:window-y="0"
     inkscape:window-maximized="1" />
  <metadata
     id="metadata2990">
    <rdf:RDF>
      <cc:Work
         rdf:about="">
        <dc:format>image/svg+xml</dc:format>
        <dc:type
           rdf:resource="http://purl.org/dc/dcmitype/StillImage" />
        <dc:title></dc:title>
      </cc:Work>
    </rdf:RDF>
  </metadata>
  <g
     id="layer1"
     inkscape:label="Layer 1"
     inkscape:groupmode="layer">
    <path
       style="fill:#000000"
       d="m 9.7095187,56.184455 c 0,-2.150252 0.9881073,-4.263536 3.9772793,-8.506277 l 3.97728,-5.645234 0,-10.415847 c 0,-10.390658 -0.0057,-10.422507 -2.354041,-13.169895 C 13.21668,15.998134 12.952418,15.098563 12.92367,10.323827 L 12.89134,4.9545 l 3.181824,0 c 3.005055,0 3.181823,0.1325762 3.181823,2.3863672 0,2.3333371 0.08839,2.3863682 3.977279,2.3863682 3.888896,0 3.97728,-0.053031 3.97728,-2.3863682 0,-2.3863672 0,-2.3863672 4.772735,-2.3863672 4.772736,0 4.772736,0 4.772736,2.3863672 0,2.3333371 0.08839,2.3863682 3.977279,2.3863682 3.888896,0 3.97728,-0.053031 3.97728,-2.3863682 0,-2.253791 0.176768,-2.3863672 3.181823,-2.3863672 l 3.181824,0 0,5.264315 c 0,4.714952 -0.249032,5.547946 -2.386369,7.982237 l -2.386367,2.717923 0,10.586226 0,10.586225 3.977279,5.66344 c 2.955662,4.20871 3.97728,6.386151 3.97728,8.477037 l 0,2.813597 -22.272765,0 -22.2727643,0 0,-2.861045 z m 42.9546173,-0.07038 c 0,-0.737283 -1.700287,-3.954256 -3.778416,-7.148829 l -3.778415,-5.808313 -13.125021,0.02364 -13.125022,0.02364 -3.778416,5.515152 C 8.7607267,57.941588 7.8183627,57.4546 31.982284,57.4546 c 18.863831,0 20.681852,-0.117837 20.681852,-1.340517 z m -7.954558,-24.5118 0,-9.9432 -12.727294,0 -12.727295,0 0,9.9432 0,9.943198 12.727295,0 12.727294,0 0,-9.943198 z m 2.585231,-14.27573 c 1.664703,-2.086351 2.187504,-3.607221 2.187504,-6.363623 0,-3.0917482 -0.232925,-3.6220525 -1.590912,-3.6220525 -1.237376,0 -1.590912,0.5303043 -1.590912,2.3863682 l 0,2.3863673 -5.568191,0 -5.568191,0 0,-2.3863673 c 0,-2.2537916 -0.176768,-2.3863682 -3.181823,-2.3863682 -3.005056,0 -3.181824,0.1325766 -3.181824,2.3863682 l 0,2.3863673 -5.568192,0 -5.56819,0 0,-2.3863673 c 0,-1.8560639 -0.353536,-2.3863682 -1.590912,-2.3863682 -1.357986,0 -1.590912,0.5303043 -1.590912,3.6220525 0,2.756402 0.522801,4.277272 2.187503,6.363623 l 2.187505,2.741572 13.125022,0 13.125021,0 2.187504,-2.741572 z"
       id="path2906" />
    <path
       style="fill:#000000;filter:url(#filter2816)"
       d="m 18.636364,55.679871 c -4.40788,-0.248492 -5.494499,-0.661192 -5.31255,-2.017717 0.115599,-0.861857 0.831388,-2.051225 4.130731,-6.863703 l 2.636364,-3.845443 11.92116,-0.0038 11.92116,-0.0038 0.73412,1.136363 c 3.341156,5.171866 4.248564,6.645796 5.092816,8.272421 0.53191,1.024832 0.967108,2.017086 0.967108,2.20501 0,0.524547 -0.371695,0.725058 -1.741458,0.939432 -1.53755,0.240633 -26.636958,0.39048 -30.349451,0.18119 z"
       id="path2908"
       transform="matrix(1.1000018,0,0,1.1000018,-3.2177745,-3.9955153)" />
    <path
       style="fill:#000000;filter:url(#filter2816)"
       d="m 20.545455,32.309091 0,-9 11.454545,0 11.454545,0 0,9 0,9 -11.454545,0 -11.454545,0 0,-9 z"
       id="path2910"
       transform="matrix(1.1000018,0,0,1.1000018,-3.2177745,-3.9955153)" />
    <path
       style="fill:#000000;filter:url(#filter2816)"
       d="m 18.997619,20.467408 c -2.493166,-3.177103 -2.89023,-4.231814 -2.789362,-7.409317 0.0784,-2.469743 0.20215,-2.700163 1.407847,-2.621392 1.099961,0.07186 1.286816,0.454914 1.290307,2.645119 l 0.0027,1.681818 5.063443,0 5.063444,0 L 29.148286,12.9 C 29.29656,10.439563 29.341689,10.4 32,10.4 c 2.658311,0 2.70344,0.03956 2.851715,2.5 l 0.112307,1.863636 5.063443,0 5.063444,0 0.0027,-1.681818 c 0.0035,-2.190205 0.190345,-2.573257 1.290307,-2.645119 1.205696,-0.07877 1.329447,0.151649 1.407847,2.621392 0.100868,3.177503 -0.296196,4.232214 -2.789361,7.409317 l -1.088522,1.387137 -11.913853,0 -11.913853,0 -1.088528,-1.387137 z"
       id="path2912"
       transform="matrix(1.1000018,0,0,1.1000018,-3.2177745,-3.9955153)" />
  </g>
</svg>
