<?xml version="1.0" encoding="UTF-8" standalone="no"?>
<!-- Created with Inkscape (http://www.inkscape.org/) -->

<svg
   xmlns:dc="http://purl.org/dc/elements/1.1/"
   xmlns:cc="http://creativecommons.org/ns#"
   xmlns:rdf="http://www.w3.org/1999/02/22-rdf-syntax-ns#"
   xmlns:svg="http://www.w3.org/2000/svg"
   xmlns="http://www.w3.org/2000/svg"
   xmlns:sodipodi="http://sodipodi.sourceforge.net/DTD/sodipodi-0.dtd"
   xmlns:inkscape="http://www.inkscape.org/namespaces/inkscape"
   width="64px"
   height="64px"
   id="svg2985"
   version="1.1"
   inkscape:version="0.48.1 "
   sodipodi:docname="wk.svg">
  <defs
     id="defs2987" />
  <sodipodi:namedview
     id="base"
     pagecolor="#ffffff"
     bordercolor="#666666"
     borderopacity="1.0"
     inkscape:pageopacity="0.0"
     inkscape:pageshadow="2"
     inkscape:zoom="5.5"
     inkscape:cx="32"
     inkscape:cy="17.590577"
     inkscape:current-layer="layer1"
     showgrid="true"
     inkscape:document-units="px"
     inkscape:grid-bbox="true"
     inkscape:window-width="1365"
     inkscape:window-height="878"
     inkscape:window-x="-8"
     inkscape:window-y="-8"
     inkscape:window-maximized="1" />
  <metadata
     id="metadata2990">
    <rdf:RDF>
      <cc:Work
         rdf:about="">
        <dc:format>image/svg+xml</dc:format>
        <dc:type
           rdf:resource="http://purl.org/dc/dcmitype/StillImage" />
        <dc:title></dc:title>
      </cc:Work>
    </rdf:RDF>
  </metadata>
  <g
     id="layer1"
     inkscape:label="Layer 1"
     inkscape:groupmode="layer">
    <path
       style="fill:#000000"
       d="m 17.909478,54.532852 0,-2.154317 14.810925,0 14.810925,0 0,2.154317 0,2.154316 -14.810925,0 -14.810925,0 0,-2.154316 z M 13.245863,41.463171 C 10.532766,36.358428 8.1500175,31.311558 7.9508661,30.247905 7.3521503,27.050202 8.545927,23.863067 11.365786,21.130781 c 2.69845,-2.614648 5.500664,-3.759887 9.199835,-3.759887 1.244036,0 2.791261,-0.291601 3.438278,-0.648002 0.647019,-0.356401 2.50938,-0.919441 4.138582,-1.251199 2.783488,-0.566808 2.972366,-0.706413 3.130953,-2.314183 0.156503,-1.586635 0.04886,-1.710986 -1.481093,-1.710986 -1.386356,0 -1.64986,-0.20821 -1.64986,-1.303655 0,-1.010591 0.36322,-1.3834304 1.615737,-1.6585296 1.252517,-0.2750992 1.615737,-0.6479387 1.615737,-1.6585301 0,-1.0315125 0.281076,-1.3036549 1.346448,-1.3036549 1.05826,0 1.346448,0.2737775 1.346448,1.2791253 0,0.9903872 0.364722,1.35207 1.615737,1.6022728 1.283347,0.2566696 1.615737,0.6029092 1.615737,1.6830595 0,1.158211 -0.244706,1.359912 -1.64986,1.359912 -1.529953,0 -1.637596,0.124351 -1.481093,1.710986 0.158587,1.60777 0.347464,1.747375 3.130953,2.314183 1.629202,0.331758 3.491563,0.894798 4.138581,1.251199 0.647018,0.356401 2.343542,0.65037 3.770054,0.653264 7.130554,0.01447 13.450303,6.637144 12.282981,12.871749 -0.199151,1.063653 -2.5819,6.110523 -5.294999,11.215266 l -4.932904,9.281352 -14.541635,0 -14.541636,0 -4.932904,-9.281352 z m 13.819459,-2.366377 c 1.036765,-0.42565 2.746106,-1.612874 3.798535,-2.638276 l 1.913508,-1.864367 1.587256,1.669457 c 1.963738,2.065435 3.703585,2.994906 6.980873,3.729362 3.228022,0.723415 4.570097,0.316838 4.570097,-1.384495 0,-0.998736 -0.288041,-1.310868 -1.211803,-1.313158 -2.337364,-0.0058 -5.297659,-1.147901 -7.118012,-2.746193 -4.738931,-4.160836 -3.337794,-10.830906 2.830602,-13.474989 1.745194,-0.748078 2.292679,-1.24567 2.054238,-1.867038 -0.178793,-0.465928 -0.325079,-0.948501 -0.325079,-1.072383 0,-0.123882 -0.811899,-0.22524 -1.804219,-0.22524 -1.764456,0 -5.101806,1.954831 -6.745815,3.951316 -0.67754,0.822805 -0.920823,0.736641 -2.855695,-1.0114 -1.163282,-1.050955 -2.724068,-2.142373 -3.468413,-2.425373 -1.362332,-0.517957 -3.976126,-0.708137 -3.976126,-0.289303 0,0.123882 -0.146286,0.606455 -0.32508,1.072383 -0.23844,0.621368 0.309045,1.11896 2.054239,1.867038 6.168395,2.644083 7.569533,9.314153 2.830602,13.474989 -1.820354,1.598292 -4.780648,2.7404 -7.118012,2.746193 -0.921565,0.0023 -1.211803,0.31474 -1.211803,1.30457 0,0.715861 0.302951,1.429273 0.673224,1.585358 0.960999,0.405101 4.655299,-0.180473 6.866883,-1.088451 z"
       id="path3121"
       inkscape:connector-curvature="0" />
    <path
       style="fill:#ffffff"
       d="m 19.919401,39.787148 c -0.36262,-0.517711 -0.370901,-1.842098 -0.01337,-2.138818 0.148314,-0.123091 0.864223,-0.292205 1.590909,-0.375813 2.563575,-0.294943 5.119126,-1.48185 6.791569,-3.154292 2.834487,-2.834488 3.202645,-6.372473 1.011776,-9.723128 -0.824048,-1.260276 -2.240212,-2.370726 -4.34641,-3.408128 -1.828834,-0.900788 -2.05816,-1.204341 -1.743617,-2.307985 0.14488,-0.508341 0.252588,-0.586276 0.886423,-0.641396 0.396828,-0.03451 1.272135,0.03399 1.945127,0.152223 1.396071,0.245264 2.473093,0.878775 4.761461,2.800721 1.984359,1.666617 2.070992,1.674984 3.440505,0.332307 2.103904,-2.062676 4.543245,-3.31573 6.444868,-3.310632 1.279844,0.0034 1.477298,0.122098 1.614989,0.970586 0.143858,0.886504 -0.151231,1.195419 -2.010509,2.104698 -2.799858,1.369269 -4.489045,3.153357 -5.244703,5.539354 -1.545404,4.879632 2.656752,9.89854 8.909194,10.640827 0.726686,0.08627 1.442595,0.257567 1.590909,0.380658 0.456417,0.378791 0.342122,1.577891 -0.202293,2.122305 -0.458205,0.458206 -0.520447,0.468822 -2.136363,0.364417 -2.335586,-0.150904 -4.85606,-0.928313 -6.482589,-1.999475 -0.45,-0.296351 -1.516453,-1.224436 -2.369896,-2.062411 l -1.551714,-1.523589 -1.608672,1.476688 c -0.88477,0.812178 -2.093645,1.79014 -2.686388,2.173247 -1.747674,1.129576 -4.78954,1.982602 -7.091202,1.988573 -1.053444,0.0027 -1.254994,-0.05114 -1.5,-0.400937 l 0,0 z"
       id="path3123"
       inkscape:connector-curvature="0" />
  </g>
</svg>
