<?xml version="1.0" encoding="UTF-8" standalone="no"?>
<!-- Created with Inkscape (http://www.inkscape.org/) -->

<svg
   xmlns:dc="http://purl.org/dc/elements/1.1/"
   xmlns:cc="http://creativecommons.org/ns#"
   xmlns:rdf="http://www.w3.org/1999/02/22-rdf-syntax-ns#"
   xmlns:svg="http://www.w3.org/2000/svg"
   xmlns="http://www.w3.org/2000/svg"
   xmlns:sodipodi="http://sodipodi.sourceforge.net/DTD/sodipodi-0.dtd"
   xmlns:inkscape="http://www.inkscape.org/namespaces/inkscape"
   width="64px"
   height="64px"
   id="svg2985"
   version="1.1"
   inkscape:version="0.48.1 "
   sodipodi:docname="wq.svg">
  <defs
     id="defs2987" />
  <sodipodi:namedview
     id="base"
     pagecolor="#ffffff"
     bordercolor="#666666"
     borderopacity="1.0"
     inkscape:pageopacity="0.0"
     inkscape:pageshadow="2"
     inkscape:zoom="5.5"
     inkscape:cx="32"
     inkscape:cy="45.069011"
     inkscape:current-layer="layer1"
     showgrid="true"
     inkscape:document-units="px"
     inkscape:grid-bbox="true"
     inkscape:window-width="1365"
     inkscape:window-height="878"
     inkscape:window-x="-8"
     inkscape:window-y="-8"
     inkscape:window-maximized="1" />
  <metadata
     id="metadata2990">
    <rdf:RDF>
      <cc:Work
         rdf:about="">
        <dc:format>image/svg+xml</dc:format>
        <dc:type
           rdf:resource="http://purl.org/dc/dcmitype/StillImage" />
        <dc:title></dc:title>
      </cc:Work>
    </rdf:RDF>
  </metadata>
  <g
     id="layer1"
     inkscape:label="Layer 1"
     inkscape:groupmode="layer">
    <path
       style="fill:#000000"
       d="m 17.322002,54.532851 0,-2.154316 14.768908,0 14.768907,0 0,2.154316 0,2.154317 -14.768907,0 -14.768908,0 0,-2.154317 z M 12.079203,35.272865 C 9.0479747,26.759764 6.5708261,19.612729 6.5744281,19.390565 c 0.017062,-1.052311 1.7264262,-0.120666 5.4349549,2.962186 2.227108,1.851365 4.422693,3.672378 4.879077,4.046694 0.729576,0.598383 0.897015,0.15248 1.386438,-3.692175 0.306156,-2.405013 0.784526,-4.601277 1.063044,-4.880587 0.317161,-0.318064 1.649287,0.91072 3.564785,3.28824 1.682115,2.087843 3.156038,3.796078 3.275385,3.796078 0.119348,0 1.353758,-2.423606 2.743135,-5.385791 1.389376,-2.962185 2.797188,-5.385791 3.12847,-5.385791 0.331282,0 1.823518,2.463028 3.316079,5.473395 l 2.713747,5.473395 3.128969,-3.883682 c 1.935147,-2.401907 3.320058,-3.69205 3.629806,-3.38142 0.27546,0.276244 0.759105,2.34802 1.074765,4.603947 0.315661,2.255927 0.735387,4.101684 0.932723,4.101684 0.197337,0 2.361674,-1.696524 4.809637,-3.770053 4.674332,-3.959359 6.279208,-4.683348 5.670906,-2.558251 -0.190782,0.666492 -2.684219,7.813392 -5.540967,15.882 l -5.19409,14.670196 -14.500382,3.01e-4 -14.500383,3.01e-4 -5.511324,-15.478367 z m 21.735717,6.329317 c 1.47398,-2.921623 0.437243,-8.118491 -1.702002,-8.531645 -1.557779,-0.300854 -2.438739,1.414823 -2.438739,4.749463 0,4.805263 2.481201,7.07161 4.140741,3.782182 z M 23.399134,30.223839 c 0.645183,-0.336343 1.262612,-0.688707 1.372064,-0.783032 0.109454,-0.09433 -0.584281,-1.163295 -1.541633,-2.375489 -0.957352,-1.212194 -1.870304,-2.073956 -2.028782,-1.915026 -0.158479,0.158929 -0.452015,1.371831 -0.652304,2.695338 -0.294496,1.946034 -0.201304,2.450224 0.487149,2.635583 0.46822,0.126064 0.927615,0.257321 1.020878,0.291682 0.09326,0.03436 0.697446,-0.212713 1.342628,-0.549056 z m 20.197159,0.07295 c 0.432044,0 -0.124359,-4.654207 -0.615256,-5.1465 -0.158479,-0.15893 -1.048377,0.673642 -1.977552,1.850158 l -1.68941,2.139121 1.217815,0.855418 c 0.669798,0.47048 1.5415,0.730854 1.937116,0.57861 0.395616,-0.152244 0.902895,-0.276807 1.127287,-0.276807 z"
       id="path3023"
       inkscape:connector-curvature="0" />
    <path
       style="fill:#ffffff"
       d="m 31.231599,42.719481 c -0.249593,-0.19633 -0.649263,-0.789512 -0.888156,-1.318182 -0.395898,-0.876122 -0.434352,-1.202668 -0.434352,-3.688492 0,-2.573259 0.02567,-2.772723 0.454545,-3.532099 1.148023,-2.032708 3.176281,-0.968078 3.824465,2.007457 0.319328,1.465897 0.155832,4.03823 -0.324918,5.112038 -0.740764,1.654577 -1.685026,2.163841 -2.631584,1.419278 l 0,0 z"
       id="path3025"
       inkscape:connector-curvature="0" />
    <path
       style="fill:#ffffff"
       d="m 41,30.174722 c -0.4,-0.206967 -0.927182,-0.530578 -1.171515,-0.719134 l -0.444241,-0.342829 1.016847,-1.258532 c 1.321877,-1.636061 2.232404,-2.595966 2.462429,-2.595966 0.457101,0 1.053809,4.713985 0.629873,4.975991 C 42.951884,30.568923 41.704292,30.539137 41,30.174722 z"
       id="path3027"
       inkscape:connector-curvature="0" />
    <path
       style="fill:#ffffff"
       d="m 21.272727,30.475272 c -0.621446,-0.211923 -0.637667,-0.24237 -0.691977,-1.298839 -0.05882,-1.144307 0.408105,-3.65182 0.715377,-3.841724 0.354911,-0.219347 3.573563,3.72784 3.343428,4.100206 -0.104004,0.168283 -2.361048,1.281135 -2.570958,1.26763 -0.08773,-0.0056 -0.44587,-0.107917 -0.79587,-0.227273 z"
       id="path3029"
       inkscape:connector-curvature="0" />
  </g>
</svg>
