<?xml version="1.0" encoding="UTF-8" standalone="no"?>
<!-- Created with Inkscape (http://www.inkscape.org/) -->

<svg
   xmlns:dc="http://purl.org/dc/elements/1.1/"
   xmlns:cc="http://creativecommons.org/ns#"
   xmlns:rdf="http://www.w3.org/1999/02/22-rdf-syntax-ns#"
   xmlns:svg="http://www.w3.org/2000/svg"
   xmlns="http://www.w3.org/2000/svg"
   xmlns:sodipodi="http://sodipodi.sourceforge.net/DTD/sodipodi-0.dtd"
   xmlns:inkscape="http://www.inkscape.org/namespaces/inkscape"
   width="64px"
   height="64px"
   id="svg2985"
   version="1.1"
   inkscape:version="0.48.1 "
   sodipodi:docname="wb.svg">
  <defs
     id="defs2987" />
  <sodipodi:namedview
     id="base"
     pagecolor="#ffffff"
     bordercolor="#666666"
     borderopacity="1.0"
     inkscape:pageopacity="0.0"
     inkscape:pageshadow="2"
     inkscape:zoom="5.5"
     inkscape:cx="32"
     inkscape:cy="17.590577"
     inkscape:current-layer="layer1"
     showgrid="true"
     inkscape:document-units="px"
     inkscape:grid-bbox="true"
     inkscape:window-width="1365"
     inkscape:window-height="878"
     inkscape:window-x="-8"
     inkscape:window-y="-8"
     inkscape:window-maximized="1" />
  <metadata
     id="metadata2990">
    <rdf:RDF>
      <cc:Work
         rdf:about="">
        <dc:format>image/svg+xml</dc:format>
        <dc:type
           rdf:resource="http://purl.org/dc/dcmitype/StillImage" />
        <dc:title></dc:title>
      </cc:Work>
    </rdf:RDF>
  </metadata>
  <g
     id="layer1"
     inkscape:label="Layer 1"
     inkscape:groupmode="layer">
    <path
       style="fill:#000000"
       d="m 18.933157,54.378534 0,-2.148205 17.185637,0 17.185637,0 0,2.148205 0,2.148205 -17.185637,0 -17.185637,0 0,-2.148205 z m 0.01903,-4.967724 c 0.03071,-1.949875 1.177352,-3.508807 5.033099,-6.842809 3.362176,-2.907217 6.225947,-6.142691 6.225947,-7.03404 0,-0.206885 -0.906273,-0.169217 -2.013941,0.08371 -1.107669,0.252924 -2.895387,0.321392 -3.972709,0.152152 -1.646863,-0.258713 -2.013961,-0.133805 -2.305399,0.784433 -0.190648,0.600679 -1.303702,1.956798 -2.473453,3.013598 -2.249132,2.031956 -4.819303,2.528563 -7.012292,1.354911 -1.747826,-0.935408 -4.7090758,-4.436069 -5.0592574,-5.980835 -0.390151,-1.721084 0.1098565,-2.733246 3.7961244,-7.684478 1.539396,-2.067648 3.075521,-4.62577 3.413612,-5.684717 0.338091,-1.058947 1.334144,-2.614618 2.21345,-3.457047 1.884721,-1.805676 1.973909,-2.786337 0.513722,-5.648539 l -1.085017,-2.12681 1.648739,0 c 0.906806,0 2.361756,0.368716 3.233222,0.819368 1.440848,0.745092 1.584483,0.740224 1.584483,-0.0537 0,-0.48019 -0.857736,-1.730809 -1.906079,-2.7791528 l -1.90608,-1.9060801 3.770274,0.3160863 c 2.07365,0.1738478 4.562679,0.6717925 5.531175,1.1065446 0.968495,0.4347526 2.849182,0.896332 4.179303,1.0257329 4.270038,0.4154101 11.645306,3.5716351 13.72495,5.8735531 1.016324,1.124949 1.847862,2.510471 1.847862,3.078938 0,0.568466 0.6646,1.554761 1.47689,2.191765 1.916421,1.502873 2.77688,3.084596 2.800488,5.147946 0.01047,0.914784 0.502377,2.220545 1.093133,2.901693 1.162598,1.340487 1.20147,1.506115 1.386527,5.907563 0.06831,1.62458 0.290056,3.825715 0.492782,4.89141 0.275346,1.447455 0.08426,2.494965 -0.755357,4.140752 -0.700464,1.37302 -1.123952,3.222949 -1.123952,4.909774 l 0,2.706651 -17.185637,0 -17.185637,0 0.01903,-1.208365 z m 31.66699,-3.8754 c 0,-1.023803 0.403678,-2.707981 0.897062,-3.742618 0.77828,-1.632069 0.803999,-2.163143 0.194233,-4.010751 -0.426535,-1.292414 -0.563387,-3.001613 -0.348122,-4.347812 0.285263,-1.783932 0.128092,-2.536471 -0.802782,-3.843764 -0.63662,-0.89405 -1.274702,-2.665441 -1.41796,-3.936426 -0.198019,-1.756822 -0.578153,-2.480899 -1.585473,-3.02 -1.312422,-0.702388 -2.84452,-3.02712 -2.84452,-4.316141 0,-0.896771 -2.707873,-3.681153 -3.580003,-3.681153 -0.381586,0 -2.493621,-0.604182 -4.693412,-1.342627 -2.19979,-0.738446 -4.592094,-1.342628 -5.316232,-1.342628 -0.724136,0 -2.191982,-0.365753 -3.261878,-0.812784 l -1.945266,-0.812785 0,1.821128 c 0,2.420213 -1.094183,3.312039 -3.174006,2.587009 -1.513845,-0.527729 -1.583366,-0.484922 -1.542572,0.949844 0.02623,0.922617 -0.600292,2.305907 -1.623381,3.584232 -0.916355,1.144963 -2.257693,3.410953 -2.980752,5.035533 -0.72306,1.62458 -2.204901,3.799637 -3.292983,4.833461 -2.524783,2.398884 -3.4882742,4.247541 -2.953091,5.666115 0.533227,1.413391 3.913329,4.000806 5.226502,4.000806 1.13393,0 3.252115,-2.093015 4.720436,-4.664343 0.960243,-1.681579 1.039509,-1.708878 4.67828,-1.611154 3.637587,0.09769 3.733292,0.06478 5.543834,-1.906647 1.445828,-1.574302 1.842347,-2.460467 1.842347,-4.117392 0,-2.078794 0.651755,-2.833739 2.013942,-2.332802 1.025753,0.377216 0.855899,5.536992 -0.233469,7.092283 -0.520861,0.743634 -0.856327,2.112971 -0.790589,3.227102 0.15003,2.542681 -2.17287,6.062647 -6.243175,9.460488 -1.689051,1.409999 -3.300591,2.762006 -3.581201,3.00446 -0.280609,0.242453 5.700798,0.440824 13.292017,0.440824 l 13.802214,0 0,-1.861458 z M 21.40153,24.676365 c -0.589633,-0.43115 -0.887843,-1.207129 -0.77396,-2.013942 0.161249,-1.142382 0.463756,-1.312538 2.333471,-1.312538 1.869714,0 2.172222,0.170156 2.333471,1.312538 0.182009,1.289459 -1.043348,2.715346 -2.333471,2.715346 -0.330156,0 -1.031936,-0.315632 -1.559511,-0.701404 z"
       id="path3164"
       inkscape:connector-curvature="0" />
    <path
       style="fill:#ffffff"
       d="m 25.409091,47.146774 c -0.875,-0.03333 -1.590909,-0.130949 -1.590909,-0.216931 0,-0.08598 0.961363,-0.957886 2.136363,-1.937562 2.497528,-2.082355 3.99901,-3.562849 5.148017,-5.076053 1.643907,-2.164971 2.141765,-3.363665 2.335018,-5.62204 0.106296,-1.242176 0.28404,-1.97286 0.721256,-2.965003 0.742066,-1.683913 0.989393,-3.03739 0.893813,-4.891288 -0.0942,-1.82707 -0.416482,-2.428474 -1.301389,-2.428474 -0.932971,0 -1.219513,0.46575 -1.420753,2.30932 -0.230865,2.114956 -0.614749,2.914592 -2.168472,4.516954 -1.578573,1.627989 -1.963324,1.740693 -5.714022,1.673791 -3.094969,-0.05521 -3.095222,-0.05508 -4.623031,2.217093 -1.85823,2.763585 -3.49405,4.15812 -4.614667,3.933996 -0.835341,-0.167069 -2.677269,-1.440669 -3.827378,-2.646438 -0.977218,-1.024511 -1.019239,-1.108596 -1.017817,-2.036673 0.0019,-1.267087 0.521333,-2.150056 2.613685,-4.443289 1.824993,-2.000206 2.773529,-3.390303 4.017956,-5.888391 0.473244,-0.95 1.535926,-2.75 2.361516,-4 1.635429,-2.476152 1.91445,-3.102834 1.91445,-4.299858 0,-0.909111 0.03807,-0.921086 1.68056,-0.528539 1.183652,0.282887 1.686701,0.212202 2.274262,-0.319562 0.529396,-0.479122 0.770174,-1.375442 0.771437,-2.871742 L 26,10.424566 l 1.544785,0.620263 c 0.8778,0.352455 2.388979,0.762221 3.5,0.949047 1.075368,0.180831 3.468851,0.783135 5.318851,1.338453 1.85,0.555319 3.844651,1.144742 4.432559,1.309829 1.748943,0.491111 3.70811,2.598123 4.00772,4.310155 0.173581,0.991884 1.461021,2.790907 2.59874,3.631389 1.122512,0.829249 1.33541,1.238372 1.766049,3.393794 0.298951,1.496304 0.707025,2.535834 1.689821,4.304654 0.4933,0.887833 0.503739,0.966687 0.44637,3.372213 -0.04846,2.031962 0.0072,2.721534 0.318181,3.939383 0.513659,2.0118 0.480606,2.544804 -0.283543,4.572337 -0.527955,1.400831 -0.678842,2.089863 -0.752048,3.434249 l -0.09158,1.681818 -11.747952,-0.03739 c -6.461375,-0.02056 -12.463862,-0.06466 -13.338862,-0.09799 z M 23.805553,25.197771 c 0.945644,-0.489011 1.467174,-1.299551 1.467174,-2.28022 0,-1.0275 -0.274843,-1.386338 -1.193888,-1.558752 -0.996866,-0.187014 -2.778795,-7e-5 -3.104568,0.325703 -0.158093,0.158093 -0.323735,0.643602 -0.368094,1.078909 -0.104786,1.028296 0.359419,1.783267 1.418927,2.307708 0.938945,0.464764 1.103919,0.4765 1.780449,0.126652 l 0,0 z"
       id="path3166"
       inkscape:connector-curvature="0" />
  </g>
</svg>
