<?xml version="1.0" encoding="UTF-8" standalone="no"?>
<!-- Created with Inkscape (http://www.inkscape.org/) -->

<svg
   xmlns:dc="http://purl.org/dc/elements/1.1/"
   xmlns:cc="http://creativecommons.org/ns#"
   xmlns:rdf="http://www.w3.org/1999/02/22-rdf-syntax-ns#"
   xmlns:svg="http://www.w3.org/2000/svg"
   xmlns="http://www.w3.org/2000/svg"
   xmlns:sodipodi="http://sodipodi.sourceforge.net/DTD/sodipodi-0.dtd"
   xmlns:inkscape="http://www.inkscape.org/namespaces/inkscape"
   width="45"
   height="45"
   id="svg3128"
   sodipodi:version="0.32"
   inkscape:version="0.47 r22583"
   version="1.0"
   sodipodi:docname="bn.svg">
  <defs
     id="defs3130">
    <inkscape:perspective
       sodipodi:type="inkscape:persp3d"
       inkscape:vp_x="0 : 22.5 : 1"
       inkscape:vp_y="0 : 1000 : 0"
       inkscape:vp_z="45 : 22.5 : 1"
       inkscape:persp3d-origin="22.5 : 15 : 1"
       id="perspective12" />
  </defs>
  <sodipodi:namedview
     id="base"
     pagecolor="#ffffff"
     bordercolor="#666666"
     borderopacity="1.0"
     gridtolerance="10000"
     guidetolerance="10"
     objecttolerance="10"
     inkscape:pageopacity="0.0"
     inkscape:pageshadow="2"
     inkscape:zoom="8"
     inkscape:cx="37.995338"
     inkscape:cy="23.908871"
     inkscape:document-units="px"
     inkscape:current-layer="layer1"
     height="45px"
     width="45px"
     inkscape:grid-points="true"
     showgrid="true"
     inkscape:window-width="1365"
     inkscape:window-height="878"
     inkscape:window-x="-8"
     inkscape:window-y="-8"
     inkscape:window-maximized="1">
    <inkscape:grid
       id="GridFromPre046Settings"
       type="xygrid"
       originx="0px"
       originy="0px"
       spacingx="0.05px"
       spacingy="0.05px"
       color="#0000ff"
       empcolor="#0000ff"
       opacity="0.2"
       empopacity="0.4"
       empspacing="5" />
  </sodipodi:namedview>
  <metadata
     id="metadata3133">
    <rdf:RDF>
      <cc:Work
         rdf:about="">
        <dc:format>image/svg+xml</dc:format>
        <dc:type
           rdf:resource="http://purl.org/dc/dcmitype/StillImage" />
      </cc:Work>
    </rdf:RDF>
  </metadata>
  <g
     inkscape:label="Layer 1"
     inkscape:groupmode="layer"
     id="layer1">
    <path
       style="fill:#2B2B3C;fill-opacity:1;fill-rule:evenodd;stroke:#303042;stroke-width:1px;stroke-linecap:round;stroke-linejoin:miter;stroke-opacity:1"
       d="M 22,10 C 32.5,11 38.5,18 38,39 L 15,39 C 15,30 25,32.5 23,18"
       id="path3491"
       sodipodi:nodetypes="cccc" />
    <path
       style="fill:#2B2B3C;fill-opacity:1;fill-rule:evenodd;stroke:#303042;stroke-width:1px;stroke-linecap:round;stroke-linejoin:round;stroke-opacity:1"
       d="M 24,18 C 24.384461,20.911278 18.447064,25.368624 16,27 C 13,29 13.180802,31.342892 11,31 C 9.95828,30.055984 12.413429,27.962451 11,28 C 10,28 11.187332,29.231727 10,30 C 9,30 5.9968392,30.999999 6,26 C 6,24 12,14 12,14 C 12,14 13.885866,12.097871 14,10.5 C 13.273953,9.505631 13.5,8.5 13.5,7.5 C 14.5,6.5 16.5,10 16.5,10 L 18.5,10 C 18.5,10 19.281781,8.0080745 21,7 C 22,7 22,10 22,10"
       id="path3495"
       sodipodi:nodetypes="csccccccccccc" />
    <path
       sodipodi:type="arc"
       style="opacity:1;fill:#2B2B3C;fill-opacity:1;stroke:white;stroke-width:1;stroke-linecap:round;stroke-linejoin:round;stroke-miterlimit:4;stroke-dasharray:none;stroke-opacity:1"
       id="path3499"
       sodipodi:cx="8.5"
       sodipodi:cy="23.5"
       sodipodi:rx="0.5"
       sodipodi:ry="0.5"
       d="M 9 23.5 A 0.5 0.5 0 1 1  8,23.5 A 0.5 0.5 0 1 1  9 23.5 z"
       transform="translate(0.5,2)" />
    <path
       sodipodi:type="arc"
       style="opacity:1;fill:#2B2B3C;fill-opacity:1;stroke:white;stroke-width:1;stroke-linecap:round;stroke-linejoin:round;stroke-miterlimit:4;stroke-dasharray:none;stroke-opacity:1"
       id="path3501"
       sodipodi:cx="14.5"
       sodipodi:cy="15.5"
       sodipodi:rx="0.5"
       sodipodi:ry="1.5"
       d="M 15 15.5 A 0.5 1.5 0 1 1  14,15.5 A 0.5 1.5 0 1 1  15 15.5 z"
       transform="matrix(0.866025,0.5,-0.5,0.866025,9.692632,-5.173394)" />
    <path
       style="fill:white;fill-opacity:1;fill-rule:evenodd;stroke:none;stroke-width:1;stroke-linecap:square;stroke-linejoin:miter;stroke-miterlimit:4;stroke-dasharray:none;stroke-opacity:1"
       d="M 24.55,10.4 L 24.25,11.5 L 24.8,11.6 C 27.901459,12.077147 31.123526,13.834204 33.375,18.09375 C 35.626474,22.353296 36.297157,29.05687 35.8,39 L 35.75,39.5 L 37.5,39.5 L 37.5,39 C 38.002843,28.94313 36.623526,22.146704 34.25,17.65625 C 31.876474,13.165796 28.461041,11.022853 25.0625,10.5 L 24.55,10.4 z "
       id="path8049"
       sodipodi:nodetypes="cccsccccscc" />
    <path
       style="fill:#000000"
       d="m 14.567771,38.459879 c 0.13635,-1.796208 0.558844,-3.152428 1.384569,-4.444516 0.233128,-0.364797 1.312337,-1.579372 2.398243,-2.699058 1.994197,-2.056232 2.893864,-3.226759 3.454584,-4.494646 0.446573,-1.009784 0.799401,-2.508009 0.890245,-3.78028 l 0.07945,-1.11275 -1.108514,1.075131 c -1.509002,1.46356 -2.57691,2.350841 -4.421012,3.673239 -1.700047,1.219096 -2.544384,2.006507 -3.665008,3.417912 -0.775227,0.976384 -1.421866,1.388405 -2.18696,1.393473 -0.575285,0.0038 -0.855457,-0.176834 -1.012077,-0.652545 l -0.134066,-0.40721 -1.0319639,0.04174 C 7.9615845,30.521081 7.3792222,30.361435 6.7525106,29.795239 6.1336101,29.236099 5.7610606,28.34997 5.6181745,27.09716 5.478446,25.872035 5.5914562,25.271009 6.2522413,23.724978 7.4052529,21.02729 11.111158,14.365763 12.223638,12.991129 c 0.361652,-0.446875 0.803261,-1.12024 0.981352,-1.496367 0.321358,-0.678706 0.322164,-0.68814 0.106827,-1.25 -0.119336,-0.3113731 -0.24652,-1.0767335 -0.28263,-1.7008009 -0.06502,-1.1237006 -0.06232,-1.137293 0.279605,-1.40625 0.189893,-0.1493702 0.502052,-0.2715821 0.693686,-0.2715821 0.498896,0 1.319417,0.6731881 2.100897,1.7236592 l 0.670536,0.9013408 0.733173,0 0.733173,0 0.270503,-0.53125 c 0.148777,-0.2921875 0.677944,-0.9390625 1.175928,-1.4375 0.781557,-0.7822703 0.965687,-0.90625 1.345925,-0.90625 0.33503,0 0.515317,0.088914 0.752972,0.3713508 0.304723,0.3621418 0.58282,1.3000334 0.586667,1.9785518 0.0029,0.5080395 0.12709,0.6173638 0.810586,0.7134464 6.88235,0.967487 11.352047,4.976401 13.517699,12.124151 1.123152,3.706976 1.627873,7.687946 1.755158,13.84375 l 0.07948,3.84375 -0.500364,0 -0.500362,0 0.06018,-3.126764 C 37.71967,29.867039 37.027323,24.699753 35.44664,20.333049 33.737003,15.6101 30.713269,12.258466 26.998148,10.968382 c -0.532334,-0.184853 -2.215573,-0.602253 -2.428696,-0.602253 -0.08352,0 -0.32899,1.015984 -0.268939,1.113148 0.03671,0.0594 0.33074,0.147593 0.653394,0.195978 2.43577,0.365266 5.129133,1.935823 6.703427,3.90891 3.061731,3.837315 4.212184,8.694398 4.211846,17.781964 -7.5e-5,2.028125 -0.03645,4.235937 -0.08084,4.90625 l -0.08071,1.21875 -10.609072,0 -10.609072,0 0.07828,-1.03125 z M 9.6885199,26.18431 c 0.6200241,-0.620024 0.1806775,-1.693181 -0.6931819,-1.693181 -0.5138873,0 -1,0.486112 -1,1 0,0.513887 0.4861127,1 1,1 0.2435466,0 0.4997771,-0.113414 0.6931819,-0.306819 z m 4.6625311,-9.016105 c 0.720688,-0.42992 1.519287,-1.842801 1.519287,-2.687922 0,-0.482012 -0.458393,-0.901188 -0.873776,-0.799022 -0.470815,0.115799 -1.090962,0.77835 -1.506066,1.609047 -0.434872,0.870256 -0.474443,1.471536 -0.120158,1.825821 0.301661,0.301661 0.54102,0.314371 0.980713,0.05208 z"
       id="path2818" />
  </g>
</svg>
