<?xml version="1.0" encoding="UTF-8" standalone="no"?>
<!-- Created with Inkscape (http://www.inkscape.org/) -->

<svg
   xmlns:dc="http://purl.org/dc/elements/1.1/"
   xmlns:cc="http://creativecommons.org/ns#"
   xmlns:rdf="http://www.w3.org/1999/02/22-rdf-syntax-ns#"
   xmlns:svg="http://www.w3.org/2000/svg"
   xmlns="http://www.w3.org/2000/svg"
   xmlns:sodipodi="http://sodipodi.sourceforge.net/DTD/sodipodi-0.dtd"
   xmlns:inkscape="http://www.inkscape.org/namespaces/inkscape"
   width="45"
   height="45"
   id="svg3128"
   sodipodi:version="0.32"
   inkscape:version="0.47 r22583"
   version="1.0"
   sodipodi:docname="wn.svg">
  <defs
     id="defs3130">
    <inkscape:perspective
       sodipodi:type="inkscape:persp3d"
       inkscape:vp_x="0 : 22.5 : 1"
       inkscape:vp_y="0 : 1000 : 0"
       inkscape:vp_z="45 : 22.5 : 1"
       inkscape:persp3d-origin="22.5 : 15 : 1"
       id="perspective12" />
  </defs>
  <sodipodi:namedview
     id="base"
     pagecolor="#ffffff"
     bordercolor="#666666"
     borderopacity="1.0"
     gridtolerance="10000"
     guidetolerance="10"
     objecttolerance="10"
     inkscape:pageopacity="0.0"
     inkscape:pageshadow="2"
     inkscape:zoom="16"
     inkscape:cx="24.795834"
     inkscape:cy="23.520246"
     inkscape:document-units="px"
     inkscape:current-layer="layer1"
     height="45px"
     width="45px"
     inkscape:grid-points="true"
     showgrid="true"
     inkscape:window-width="977"
     inkscape:window-height="878"
     inkscape:window-x="0"
     inkscape:window-y="31"
     inkscape:window-maximized="0">
    <inkscape:grid
       id="GridFromPre046Settings"
       type="xygrid"
       originx="0px"
       originy="0px"
       spacingx="0.5px"
       spacingy="0.5px"
       color="#0000ff"
       empcolor="#0000ff"
       opacity="0.2"
       empopacity="0.4"
       empspacing="5" />
  </sodipodi:namedview>
  <metadata
     id="metadata3133">
    <rdf:RDF>
      <cc:Work
         rdf:about="">
        <dc:format>image/svg+xml</dc:format>
        <dc:type
           rdf:resource="http://purl.org/dc/dcmitype/StillImage" />
      </cc:Work>
    </rdf:RDF>
  </metadata>
  <g
     inkscape:label="Layer 1"
     inkscape:groupmode="layer"
     id="layer1">
    <path
       style="fill:white;fill-opacity:1;fill-rule:evenodd;stroke:#303042;stroke-width:1.5;stroke-linecap:round;stroke-linejoin:miter;stroke-opacity:1;stroke-miterlimit:4;stroke-dasharray:none"
       d="M 22,10 C 32.5,11 38.5,18 38,39 L 15,39 C 15,30 25,32.5 23,18"
       id="path3491"
       sodipodi:nodetypes="cccc" />
    <path
       style="fill:white;fill-opacity:1;fill-rule:evenodd;stroke:#303042;stroke-width:1.5;stroke-linecap:round;stroke-linejoin:round;stroke-opacity:1;stroke-miterlimit:4;stroke-dasharray:none"
       d="M 24,18 C 24.384461,20.911278 18.447064,25.368624 16,27 C 13,29 13.180802,31.342892 11,31 C 9.95828,30.055984 12.413429,27.962451 11,28 C 10,28 11.187332,29.231727 10,30 C 9,30 5.9968392,30.999999 6,26 C 6,24 12,14 12,14 C 12,14 13.885866,12.097871 14,10.5 C 13.273953,9.505631 13.5,8.5 13.5,7.5 C 14.5,6.5 16.5,10 16.5,10 L 18.5,10 C 18.5,10 19.281781,8.0080745 21,7 C 22,7 22,10 22,10"
       id="path3495"
       sodipodi:nodetypes="csccccccccccc" />
    <path
       sodipodi:type="arc"
       style="opacity:1;fill:#2B2B3C;fill-opacity:1;stroke:#303042;stroke-width:1.5;stroke-linecap:round;stroke-linejoin:round;stroke-miterlimit:4;stroke-dasharray:none;stroke-opacity:1"
       id="path3499"
       sodipodi:cx="8.5"
       sodipodi:cy="23.5"
       sodipodi:rx="0.5"
       sodipodi:ry="0.5"
       d="M 9 23.5 A 0.5 0.5 0 1 1  8,23.5 A 0.5 0.5 0 1 1  9 23.5 z"
       transform="translate(0.5,2)" />
    <path
       sodipodi:type="arc"
       style="opacity:1;fill:#2B2B3C;fill-opacity:1;stroke:#303042;stroke-width:1.50000052;stroke-linecap:round;stroke-linejoin:round;stroke-miterlimit:4;stroke-dasharray:none;stroke-opacity:1"
       id="path3501"
       sodipodi:cx="14.5"
       sodipodi:cy="15.5"
       sodipodi:rx="0.5"
       sodipodi:ry="1.5"
       d="M 15 15.5 A 0.5 1.5 0 1 1  14,15.5 A 0.5 1.5 0 1 1  15 15.5 z"
       transform="matrix(0.866025,0.5,-0.5,0.866025,9.692632,-5.173394)" />
    <path
       style="fill:none;fill-opacity:0.75;fill-rule:evenodd;stroke:#303042;stroke-width:1;stroke-linecap:round;stroke-linejoin:miter;stroke-opacity:1;stroke-miterlimit:4;stroke-dasharray:none"
       d="M 37,39 C 38,19 31.5,11.5 25,10.5"
       id="path8049"
       sodipodi:nodetypes="cc" />
    <path
       style="fill:#000000"
       d="m 13.570834,17.509658 c -0.902763,-0.33922 -0.850713,-1.577785 0.126899,-3.019655 0.259022,-0.38203 0.639424,-0.75084 0.928764,-0.900463 0.26888,-0.139044 0.789946,-0.125645 1.036362,0.02665 0.597382,0.369202 0.529851,1.444693 -0.163612,2.605681 -0.560458,0.938312 -1.387915,1.490886 -1.928413,1.287789 z"
       id="path2818" />
    <path
       style="fill:#000000"
       d="M 8.6106628,26.650703 C 7.7855415,26.356556 7.5163445,25.352081 8.0881125,24.700874 c 0.248293,-0.28279 0.5118814,-0.39612 0.9213178,-0.39612 0.6951161,0 1.1864037,0.491542 1.1864037,1.187018 0,0.567964 -0.279724,0.968758 -0.8056187,1.154304 -0.3293627,0.116206 -0.4643125,0.117007 -0.7795525,0.0046 l 0,0 z"
       id="path2820" />
    <path
       style="fill:#000000"
       d="m 14.259946,39.164129 c 0.0061,-2.175316 0.467489,-3.804667 1.526174,-5.38916 0.517346,-0.774292 1.069421,-1.386038 2.879921,-3.191199 1.577588,-1.572935 2.241545,-2.445087 2.838645,-3.728749 0.474235,-1.019524 0.805064,-2.285137 0.935537,-3.578979 0.03452,-0.342354 0.05246,-0.632773 0.03986,-0.645376 -0.0126,-0.0126 -0.144428,0.108914 -0.292945,0.270037 -0.378145,0.410238 -1.895395,1.776092 -2.678801,2.4115 -0.880287,0.713987 -1.500918,1.179443 -2.665691,1.999195 -1.48269,1.043498 -1.860607,1.409752 -2.959708,2.868356 -0.862666,1.144835 -1.394058,1.499471 -2.320321,1.548517 -0.327714,0.01735 -0.627847,-6.25e-4 -0.76462,-0.04574 -0.260488,-0.08597 -0.640136,-0.498838 -0.697073,-0.758072 l -0.03913,-0.178137 -0.8861054,0.03757 C 8.4620061,30.814158 8.2105342,30.801275 7.883334,30.717688 6.6663902,30.406803 5.8657907,29.546146 5.5139862,28.170604 5.3533351,27.542464 5.2366643,26.308623 5.290438,25.806492 c 0.090143,-0.841745 0.5752779,-2.044241 1.8161799,-4.501738 0.897802,-1.778018 1.9943674,-3.782876 3.3415351,-6.10935 0.629801,-1.087628 1.003562,-1.653529 1.486059,-2.25 0.64103,-0.792453 1.261622,-1.864455 1.261622,-2.179309 0,-0.07331 -0.06665,-0.284443 -0.148108,-0.469189 -0.229468,-0.5204222 -0.289392,-0.9210441 -0.289392,-1.9347358 0,-1.0965953 0.05214,-1.2785655 0.439866,-1.5351503 0.386676,-0.2558905 0.926932,-0.2799111 1.402165,-0.062342 0.552086,0.2527534 1.411733,1.1355651 2.06262,2.1182015 l 0.238046,0.359375 0.584902,0 c 0.321695,0 0.584901,-0.023788 0.584901,-0.052863 0,-0.029075 0.195094,-0.3482588 0.433541,-0.7092984 0.486858,-0.7371631 1.209428,-1.4941701 1.815791,-1.9023301 0.338876,-0.2281061 0.45493,-0.2730086 0.705615,-0.2730086 0.840207,0 1.346119,0.7136149 1.578483,2.2265303 0.05742,0.3738458 0.113339,0.7113563 0.12427,0.7500231 0.01093,0.038667 0.183826,0.090048 0.384212,0.1141811 1.109824,0.133657 2.783989,0.5321304 3.958088,0.9420765 0.856099,0.298914 2.376217,1.043979 3.125,1.531675 2.830187,1.843352 4.892469,4.612939 6.323297,8.492011 1.2411,3.364705 1.949429,7.615837 2.177488,13.068503 0.06793,1.624124 0.08245,5.709986 0.0216,6.078125 l -0.03874,0.234375 -12.210573,0 -12.210572,0 0.0016,-0.578125 z m 22.341729,-2.75 c 0.04787,-1.938166 -0.0286,-4.583278 -0.186686,-6.45724 C 35.8658,23.446806 34.231641,18.381927 31.62328,15.105563 29.87953,12.915237 26.952257,11.464761 23.070834,10.867789 22.606771,10.796415 22.122435,10.72868 21.99453,10.717267 21.50961,10.673997 21.258645,10.337146 21.257965,9.7286364 21.257465,9.2992224 21.093221,8.213367 21.003331,8.045406 20.936751,7.9209996 20.913436,7.9341919 20.530815,8.3127732 20.06392,8.7747397 19.619212,9.3966874 19.297417,10.037747 c -0.333855,0.665086 -0.345708,0.66984 -1.723615,0.691368 -1.46866,0.02295 -1.425592,0.04193 -2.062817,-0.9093209 C 15.02649,9.0965377 14.3652,8.304754 14.245638,8.304754 c -0.04562,0 -0.05654,0.1744458 -0.03376,0.539551 0.02881,0.4617146 0.06736,0.6059349 0.267228,0.9997142 0.218087,0.4296658 0.231482,0.4881428 0.20212,0.8823238 -0.06251,0.839186 -0.628621,1.942052 -1.628297,3.172161 -1.262873,1.553975 -5.291276,8.993024 -6.0765343,11.221229 l -0.2304003,0.653771 0.035122,0.8125 c 0.063706,1.473763 0.4469433,2.317218 1.1943668,2.628646 0.3061981,0.127583 1.608565,0.146315 1.7544582,0.02524 0.063899,-0.05303 0.090998,-0.207742 0.091243,-0.520909 4.625e-4,-0.592951 0.095188,-0.902925 0.3491044,-1.142398 0.338758,-0.31949 1.016991,-0.400707 1.463047,-0.175195 0.372554,0.18835 0.608134,0.665197 0.533224,1.07932 -0.02291,0.126665 -0.180386,0.544833 -0.349942,0.92926 -0.328136,0.743975 -0.373689,0.933263 -0.20942,0.870228 0.05437,-0.02087 0.125314,-0.03794 0.157646,-0.03794 0.111508,0 0.622452,-0.51998 0.976441,-0.993707 1.018421,-1.362909 1.68749,-2.03382 2.823639,-2.831414 3.491498,-2.451083 5.782608,-4.507465 6.940862,-6.229761 0.466468,-0.693626 0.706092,-1.286565 0.735564,-1.820118 0.03155,-0.571076 0.104907,-0.777586 0.334252,-0.940894 0.374061,-0.266355 0.840001,-0.127845 1.077593,0.320336 0.219478,0.414013 0.04788,1.428673 -0.39764,2.351243 -0.241086,0.499234 -0.247223,0.528694 -0.247371,1.1875 -5.62e-4,2.498922 -0.419697,4.631699 -1.249823,6.359737 -0.668433,1.391448 -1.326059,2.227685 -3.442484,4.377459 -0.948039,0.962978 -1.89202,1.978271 -2.097734,2.256206 -0.727386,0.982755 -1.191051,2.091757 -1.369523,3.275653 -0.04925,0.326706 -0.08971,0.615104 -0.08991,0.640885 -1.88e-4,0.02578 4.679222,0.04687 10.398723,0.04687 l 10.399092,0 0.04516,-1.828125 0,0 z"
       id="path2822" />
  </g>
</svg>
