<?xml version="1.0" encoding="UTF-8" standalone="no"?>
<!-- Created with Inkscape (http://www.inkscape.org/) -->

<svg
   xmlns:dc="http://purl.org/dc/elements/1.1/"
   xmlns:cc="http://creativecommons.org/ns#"
   xmlns:rdf="http://www.w3.org/1999/02/22-rdf-syntax-ns#"
   xmlns:svg="http://www.w3.org/2000/svg"
   xmlns="http://www.w3.org/2000/svg"
   xmlns:sodipodi="http://sodipodi.sourceforge.net/DTD/sodipodi-0.dtd"
   xmlns:inkscape="http://www.inkscape.org/namespaces/inkscape"
   width="45"
   height="45"
   id="svg3128"
   sodipodi:version="0.32"
   inkscape:version="0.47 r22583"
   version="1.0"
   sodipodi:docname="wq.svg">
  <defs
     id="defs3130">
    <inkscape:perspective
       sodipodi:type="inkscape:persp3d"
       inkscape:vp_x="0 : 22.5 : 1"
       inkscape:vp_y="0 : 1000 : 0"
       inkscape:vp_z="45 : 22.5 : 1"
       inkscape:persp3d-origin="22.5 : 15 : 1"
       id="perspective17" />
  </defs>
  <sodipodi:namedview
     id="base"
     pagecolor="#ffffff"
     bordercolor="#666666"
     borderopacity="1.0"
     gridtolerance="10000"
     guidetolerance="10"
     objecttolerance="10"
     inkscape:pageopacity="0.0"
     inkscape:pageshadow="2"
     inkscape:zoom="16"
     inkscape:cx="34.028184"
     inkscape:cy="22.902797"
     inkscape:document-units="px"
     inkscape:current-layer="layer1"
     height="45px"
     width="45px"
     inkscape:grid-points="true"
     showgrid="true"
     inkscape:window-width="1272"
     inkscape:window-height="878"
     inkscape:window-x="0"
     inkscape:window-y="31"
     inkscape:window-maximized="0">
    <inkscape:grid
       id="GridFromPre046Settings"
       type="xygrid"
       originx="0px"
       originy="0px"
       spacingx="0.5px"
       spacingy="0.5px"
       color="#0000ff"
       empcolor="#0000ff"
       opacity="0.2"
       empopacity="0.4"
       empspacing="5" />
  </sodipodi:namedview>
  <metadata
     id="metadata3133">
    <rdf:RDF>
      <cc:Work
         rdf:about="">
        <dc:format>image/svg+xml</dc:format>
        <dc:type
           rdf:resource="http://purl.org/dc/dcmitype/StillImage" />
      </cc:Work>
    </rdf:RDF>
  </metadata>
  <g
     inkscape:label="Layer 1"
     inkscape:groupmode="layer"
     id="layer1">
    <path
       sodipodi:type="arc"
       style="opacity:1;fill:white;fill-opacity:1;stroke:#303042;stroke-width:1.5;stroke-linecap:round;stroke-linejoin:round;stroke-miterlimit:4;stroke-dasharray:none;stroke-opacity:1"
       id="path5571"
       sodipodi:cx="7"
       sodipodi:cy="13"
       sodipodi:rx="2"
       sodipodi:ry="2"
       d="M 9 13 A 2 2 0 1 1  5,13 A 2 2 0 1 1  9 13 z"
       transform="translate(-1,-1)" />
    <path
       sodipodi:type="arc"
       style="opacity:1;fill:white;fill-opacity:1;stroke:#303042;stroke-width:1.5;stroke-linecap:round;stroke-linejoin:round;stroke-miterlimit:4;stroke-dasharray:none;stroke-opacity:1"
       id="path5573"
       sodipodi:cx="7"
       sodipodi:cy="13"
       sodipodi:rx="2"
       sodipodi:ry="2"
       d="M 9 13 A 2 2 0 1 1  5,13 A 2 2 0 1 1  9 13 z"
       transform="translate(15.5,-5.5)" />
    <path
       sodipodi:type="arc"
       style="opacity:1;fill:white;fill-opacity:1;stroke:#303042;stroke-width:1.5;stroke-linecap:round;stroke-linejoin:round;stroke-miterlimit:4;stroke-dasharray:none;stroke-opacity:1"
       id="path5575"
       sodipodi:cx="7"
       sodipodi:cy="13"
       sodipodi:rx="2"
       sodipodi:ry="2"
       d="M 9 13 A 2 2 0 1 1  5,13 A 2 2 0 1 1  9 13 z"
       transform="translate(32,-1)" />
    <path
       sodipodi:type="arc"
       style="opacity:1;fill:white;fill-opacity:1;stroke:#303042;stroke-width:1.5;stroke-linecap:round;stroke-linejoin:round;stroke-miterlimit:4;stroke-dasharray:none;stroke-opacity:1"
       id="path5577"
       sodipodi:cx="7"
       sodipodi:cy="13"
       sodipodi:rx="2"
       sodipodi:ry="2"
       d="M 9 13 A 2 2 0 1 1  5,13 A 2 2 0 1 1  9 13 z"
       transform="translate(7,-4.5)" />
    <path
       sodipodi:type="arc"
       style="opacity:1;fill:white;fill-opacity:1;stroke:#303042;stroke-width:1.5;stroke-linecap:round;stroke-linejoin:round;stroke-miterlimit:4;stroke-dasharray:none;stroke-opacity:1"
       id="path5579"
       sodipodi:cx="7"
       sodipodi:cy="13"
       sodipodi:rx="2"
       sodipodi:ry="2"
       d="M 9 13 A 2 2 0 1 1  5,13 A 2 2 0 1 1  9 13 z"
       transform="translate(24,-4)" />
    <path
       style="fill:white;fill-opacity:1;fill-rule:evenodd;stroke:#303042;stroke-width:1.5;stroke-linecap:butt;stroke-linejoin:round;stroke-opacity:1;stroke-miterlimit:4;stroke-dasharray:none"
       d="M 9,26 C 17.5,24.5 30,24.5 36,26 L 38,14 L 31,25 L 31,11 L 25.5,24.5 L 22.5,9.5 L 19.5,24.5 L 14,10.5 L 14,25 L 7,14 L 9,26 z "
       id="path5581"
       sodipodi:nodetypes="cccccccccccc" />
    <path
       style="fill:white;fill-opacity:1;fill-rule:evenodd;stroke:#303042;stroke-width:1.5;stroke-linecap:butt;stroke-linejoin:round;stroke-opacity:1;stroke-miterlimit:4;stroke-dasharray:none"
       d="M 9,26 C 9,28 10.5,28 11.5,30 C 12.5,31.5 12.5,31 12,33.5 C 10.5,34.5 10.5,36 10.5,36 C 9,37.5 11,38.5 11,38.5 C 17.5,39.5 27.5,39.5 34,38.5 C 34,38.5 35.5,37.5 34,36 C 34,36 34.5,34.5 33,33.5 C 32.5,31 32.5,31.5 33.5,30 C 34.5,28 36,28 36,26 C 27.5,24.5 17.5,24.5 9,26 z "
       id="path5583"
       sodipodi:nodetypes="ccccccccccc" />
    <path
       style="fill:none;fill-opacity:0.75;fill-rule:evenodd;stroke:#303042;stroke-width:1px;stroke-linecap:round;stroke-linejoin:round;stroke-opacity:1"
       d="M 11.5,30 C 15,29 30,29 33.5,30"
       id="path5585"
       sodipodi:nodetypes="cc" />
    <path
       style="fill:none;fill-opacity:0.75;fill-rule:evenodd;stroke:#303042;stroke-width:1px;stroke-linecap:round;stroke-linejoin:round;stroke-opacity:1"
       d="M 12,33.5 C 18,32.5 27,32.5 33,33.5"
       id="path5587"
       sodipodi:nodetypes="cc" />
    <path
       style="fill:none;fill-opacity:0.75;fill-rule:evenodd;stroke:#303042;stroke-width:1px;stroke-linecap:round;stroke-linejoin:round;stroke-opacity:1"
       d="M 10.5,36 C 15.5,35 29,35 34,36"
       id="path5589"
       sodipodi:nodetypes="cc" />
    <path
       style="fill:#000000"
       d="M 19.928184,39.947704 C 16.986518,39.844275 14.984779,39.711129 12.865684,39.477938 10.766338,39.24692 10.47364,39.158448 9.895289,38.580098 9.4642184,38.149027 9.2878821,37.789484 9.2551971,37.274971 9.2204733,36.728367 9.3029946,36.40292 9.5811084,35.989645 9.7004121,35.81236 9.825829,35.520434 9.8661659,35.326132 c 0.1209056,-0.5824 0.5273201,-1.306211 1.0307751,-1.835773 l 0.451017,-0.474406 0.132565,-0.702469 c 0.1546,-0.81923 0.159312,-0.798363 -0.352978,-1.563379 C 10.926211,30.449446 10.680683,30.06451 10.581928,29.89469 10.483172,29.72487 10.046543,29.21611 9.6116402,28.76411 8.7546063,27.873386 8.4800948,27.439695 8.3666564,26.797203 8.3332755,26.60814 7.8815641,23.865953 7.3628533,20.703453 6.8441424,17.540953 6.4056842,14.904234 6.3885016,14.844078 c -0.023521,-0.08235 -0.097595,-0.109375 -0.2997487,-0.109375 -1.5588413,0 -2.7899767,-1.190183 -2.7959098,-2.702907 -0.00317,-0.809437 0.2482747,-1.425582 0.8026732,-1.966848 0.5939715,-0.5799018 1.1941004,-0.7986244 2.0756177,-0.7564785 0.488487,0.023355 0.6170071,0.055679 1.0269601,0.2582884 1.3355694,0.6600741 1.8880431,2.2228561 1.2660887,3.5813821 -0.085758,0.18732 -0.2523237,0.459209 -0.3701466,0.604197 l -0.2142233,0.263616 2.5710601,4.036464 c 1.414083,2.220055 2.618805,4.10443 2.677158,4.1875 0.100138,0.142553 0.10628,-0.165098 0.109375,-5.478088 l 0.0033,-5.629124 -0.348986,-0.144647 c -0.198637,-0.08233 -0.506875,-0.290824 -0.715474,-0.48395 -0.595589,-0.55141 -0.880301,-1.1870834 -0.883381,-1.9723119 -0.0032,-0.8094372 0.248275,-1.425582 0.802673,-1.9668482 0.593972,-0.5799017 1.1941,-0.7986243 2.075618,-0.7564784 0.488487,0.023355 0.617007,0.055679 1.02696,0.2582884 1.358967,0.6716379 1.893639,2.2383301 1.240332,3.6344146 -0.214748,0.4589065 -0.705918,0.9722255 -1.141455,1.1929285 -0.171003,0.08665 -0.298295,0.177969 -0.282872,0.202924 0.01542,0.02496 0.960822,2.42161 2.100887,5.3259 1.781787,4.53906 2.188198,5.536458 2.188198,5.370195 0,-0.016 0.520312,-2.629783 1.15625,-5.808417 0.635937,-3.178634 1.156144,-5.80789 1.156016,-5.842792 -1.25e-4,-0.0349 -0.129233,-0.116514 -0.286898,-0.1813598 -0.157664,-0.064846 -0.451397,-0.2704168 -0.652739,-0.4568241 -0.595168,-0.5510198 -0.879891,-1.1868907 -0.88297,-1.971931 -0.0032,-0.8094372 0.248275,-1.425582 0.802673,-1.9668482 0.593972,-0.5799017 1.1941,-0.7986243 2.075618,-0.7564784 0.488487,0.023355 0.617007,0.055679 1.02696,0.2582884 0.812651,0.4016337 1.339867,1.1182412 1.486173,2.0200497 0.185146,1.1412025 -0.415531,2.3164365 -1.451161,2.8392204 -0.281533,0.142117 -0.366502,0.215329 -0.343144,0.295658 0.01708,0.05872 0.543074,2.680204 1.168884,5.825517 0.625812,3.145312 1.15732,5.740987 1.18113,5.768166 0.03817,0.04357 0.616822,-1.352439 3.5376,-8.534436 l 0.705599,-1.73502 -0.257285,-0.131257 C 29.584384,11.342465 29.31915,11.14205 29.136481,10.969289 28.5746,10.437886 28.295847,9.7977029 28.292843,9.0317961 c -0.0032,-0.8094372 0.248275,-1.425582 0.802673,-1.9668482 0.593972,-0.5799017 1.1941,-0.7986243 2.075618,-0.7564784 0.488487,0.023355 0.617007,0.055679 1.02696,0.2582884 1.683556,0.8320584 2.042811,3.0559385 0.706174,4.3713901 -0.228633,0.225009 -0.492454,0.406994 -0.757232,0.522344 l -0.406352,0.177027 0,5.402758 c 0,2.971518 0.01061,5.39104 0.02358,5.376718 0.03292,-0.03636 5.092321,-7.978935 5.244449,-8.233071 l 0.123929,-0.207029 -0.185714,-0.199221 c -0.416694,-0.447002 -0.651444,-1.073597 -0.654081,-1.745878 -0.0032,-0.809437 0.248275,-1.425582 0.802673,-1.966848 0.593972,-0.5799018 1.1941,-0.7986244 2.075618,-0.7564785 0.488487,0.023355 0.617007,0.055679 1.02696,0.2582884 0.812651,0.4016337 1.339867,1.1182411 1.486173,2.0200491 0.266298,1.641414 -1.044004,3.147896 -2.737964,3.147896 -0.18184,0 -0.330619,0.01464 -0.330619,0.03253 0,0.01789 -0.419539,2.556175 -0.93231,5.640625 -0.51277,3.08445 -0.952104,5.78934 -0.976297,6.010867 -0.09682,0.886511 -0.386331,1.396964 -1.351228,2.382394 -0.355528,0.363094 -0.71969,0.770906 -0.809248,0.90625 -0.08956,0.135344 -0.37784,0.577491 -0.640625,0.982549 -0.544392,0.839127 -0.552767,0.881314 -0.358973,1.80834 0.106771,0.51075 0.13526,0.56789 0.455706,0.91401 0.52885,0.571221 0.798317,1.244598 0.799733,1.998476 6.25e-4,0.327149 0.0283,0.430929 0.161593,0.605682 0.875333,1.14762 0.252843,3.037042 -1.067101,3.238936 -1.475612,0.225704 -4.325214,0.488057 -6.5625,0.604186 -1.271554,0.066 -6.325417,0.126155 -7.40625,0.08815 l 0,0 z m 6.625,-1.527184 c 2.289107,-0.09312 5.878236,-0.401186 6.973841,-0.598578 0.213839,-0.03853 0.401159,-0.290347 0.401159,-0.539292 0,-0.155028 -0.28445,-0.634211 -0.483061,-0.813761 -0.18164,-0.164209 -2.228887,-0.406065 -4.610689,-0.544695 -5.768057,-0.335723 -12.982659,-0.188761 -16.96875,0.345655 -0.765921,0.102686 -0.775508,0.10771 -1.066166,0.558604 -0.169995,0.263713 -0.152968,0.370874 0.10415,0.655474 0.275137,0.304543 0.374893,0.332497 1.774516,0.497267 4.080481,0.480371 9.020864,0.6368 13.875,0.439326 l 0,0 z m -13.9375,-3.213538 c 2.537691,-0.280256 5.563327,-0.40814 9.65625,-0.40814 4.328117,0 7.709582,0.157895 10.202881,0.476418 0.455335,0.05817 0.841958,0.09169 0.859163,0.07448 0.0172,-0.0172 -0.01376,-0.182965 -0.06882,-0.368357 -0.08068,-0.271676 -0.177387,-0.411014 -0.498442,-0.718159 l -0.398341,-0.381082 -0.79822,-0.103842 c -2.761345,-0.359227 -5.400071,-0.5064 -9.079471,-0.5064 -3.645114,0 -6.340169,0.14868 -8.953438,0.493938 -0.386546,0.05107 -0.736366,0.09308 -0.777377,0.09336 -0.135976,9.18e-4 -0.940231,0.745169 -1.13757,1.052696 -0.243486,0.379439 -0.248177,0.468666 -0.02224,0.423004 0.09453,-0.01911 0.551562,-0.07667 1.015625,-0.127917 z m 0.899749,-2.412055 c 2.083846,-0.301215 5.6226,-0.497017 8.975251,-0.496608 3.425579,4.37e-4 6.146722,0.147169 8.770459,0.472991 0.44094,0.05476 0.812133,0.08913 0.824873,0.07639 0.01274,-0.01274 -0.02043,-0.298686 -0.0737,-0.635435 -0.114727,-0.725157 -0.08089,-1.030683 0.16865,-1.522712 0.100725,-0.198607 0.183494,-0.378203 0.183929,-0.399103 0.0016,-0.07743 -1.806496,-0.272302 -3.405458,-0.36702 -4.02938,-0.23869 -8.841109,-0.238568 -12.9375,3.13e-4 -1.013326,0.0591 -3.343338,0.289694 -3.389054,0.33541 -0.01007,0.01007 0.06855,0.186729 0.174713,0.392575 0.232392,0.4506 0.292292,0.946501 0.188284,1.558778 -0.04021,0.236734 -0.08785,0.479645 -0.105867,0.539801 -0.03864,0.129058 0.01477,0.132867 0.625423,0.0446 l 0,1.7e-5 z m -0.305999,-3.586412 c 4.1052,-0.552186 14.308302,-0.555517 18.53125,-0.006 0.360937,0.04696 0.796875,0.103034 0.96875,0.1246 l 0.3125,0.03921 0.244612,-0.388131 c 0.134536,-0.213472 0.573779,-0.729456 0.976096,-1.146632 0.65616,-0.680395 0.994125,-1.121562 0.917724,-1.197963 -0.04527,-0.04527 -1.010249,-0.198414 -2.294682,-0.364173 -6.512251,-0.840422 -13.470329,-0.87355 -20,-0.09522 -0.958909,0.114301 -2.778393,0.377814 -2.9190444,0.422761 -0.1351425,0.04319 -0.1357544,0.04824 -0.03178,0.262785 0.058307,0.120312 0.4475804,0.574954 0.8650504,1.010315 0.41747,0.43536 0.853646,0.950246 0.96928,1.14419 l 0.210244,0.352626 0.28125,-0.03292 c 0.154687,-0.01811 0.590625,-0.07454 0.96875,-0.125397 l 0,10e-7 z m -2.09375,-4.287931 c 0.773437,-0.104985 1.49529,-0.20465 1.604117,-0.221477 l 0.197867,-0.0306 -2.260367,-3.554297 C 9.414099,19.159351 8.3875293,17.585271 8.3760347,17.616258 c -0.019438,0.0524 1.154168,7.242999 1.2102849,7.41532 0.032623,0.100177 -0.094109,0.109374 1.5293644,-0.110994 z m 24.900412,-3.482756 c 0.334584,-2.019531 0.623447,-3.728125 0.641919,-3.796875 0.0298,-0.110924 0.02313,-0.114443 -0.05926,-0.03125 -0.103144,0.104154 -4.342886,6.762696 -4.39874,6.908251 -0.02028,0.05284 7.56e-4,0.09186 0.0496,0.092 0.150324,4.37e-4 2.196489,0.313902 2.616062,0.400752 0.223437,0.04625 0.436811,0.08744 0.474163,0.09154 0.04218,0.0046 0.298469,-1.384173 0.676249,-3.664425 l 0,0 z m -19.087912,2.89072 c 0.842187,-0.05401 1.562011,-0.104256 1.599607,-0.11165 0.04824,-0.0095 -3.429757,-9.010663 -3.748389,-9.700945 -0.01587,-0.03437 -0.03107,2.198404 -0.03378,4.96173 l -0.0049,5.02423 0.328125,-0.03758 c 0.180469,-0.02067 1.017187,-0.08177 1.859375,-0.135785 z m 13.31078,-4.70322 -0.0017,-4.796875 -1.899146,4.65625 -1.899146,4.65625 0.228991,0.04327 c 0.125945,0.0238 0.482116,0.04752 0.791491,0.0527 0.444915,0.0075 2.324326,0.129664 2.703125,0.175764 0.06192,0.0075 0.07777,-0.985659 0.07641,-4.787367 l -1e-6,0 z m -5.585928,4.467187 c 0.0074,-0.0077 -0.472319,-2.432812 -1.06597,-5.389062 -0.593651,-2.95625 -1.095901,-5.332813 -1.116112,-5.28125 -0.02021,0.05156 -0.503802,2.442187 -1.074646,5.3125 -0.570844,2.870312 -1.051089,5.264407 -1.067211,5.32021 -0.02674,0.09256 0.160938,0.09928 2.140616,0.07656 1.193462,-0.01369 2.175957,-0.03122 2.183323,-0.03896 l 0,0 z M 6.6963483,13.030171 C 7.0660574,12.74818 7.20241,12.50468 7.2277921,12.081112 c 0.027959,-0.466567 -0.1535749,-0.852539 -0.523558,-1.113176 -0.767494,-0.540665 -1.8407004,-0.02988 -1.9486024,0.927423 -0.056264,0.499176 0.2118132,0.971154 0.7038023,1.239114 0.1326725,0.07226 0.3083098,0.09682 0.6006471,0.084 0.3366613,-0.01477 0.4544534,-0.04963 0.6362672,-0.188303 l 0,0 z m 32.9999997,0 c 0.369709,-0.281991 0.506062,-0.525491 0.531444,-0.949059 0.02796,-0.466567 -0.153575,-0.852539 -0.523558,-1.113176 -0.767494,-0.540665 -1.8407,-0.02988 -1.948603,0.927423 -0.05626,0.499176 0.211814,0.971154 0.703803,1.239114 0.132672,0.07226 0.30831,0.09682 0.600647,0.084 0.336661,-0.01477 0.454454,-0.04963 0.636267,-0.188303 l 0,0 z m -8,-3 c 0.369709,-0.2819906 0.506062,-0.5254908 0.531444,-0.9490591 0.02796,-0.4665665 -0.153575,-0.8525388 -0.523558,-1.1131756 -0.767494,-0.5406656 -1.8407,-0.029881 -1.948603,0.9274231 -0.05626,0.4991763 0.211814,0.9711534 0.703803,1.2391136 0.132672,0.07226 0.30831,0.09682 0.600647,0.084 0.336661,-0.01477 0.454454,-0.04963 0.636267,-0.188303 l 0,0 z m -17,-0.4999997 c 0.369709,-0.2819909 0.506062,-0.5254911 0.531444,-0.9490594 0.02796,-0.4665665 -0.153575,-0.8525388 -0.523558,-1.1131756 -0.767494,-0.5406656 -1.8407,-0.029881 -1.948603,0.9274231 -0.05626,0.4991763 0.211814,0.9711534 0.703803,1.2391137 0.132672,0.07226 0.30831,0.096823 0.600647,0.084001 0.336661,-0.014766 0.454454,-0.049626 0.636267,-0.1883025 l 0,0 z m 8.5,-1 c 0.369709,-0.2819909 0.506062,-0.5254911 0.531444,-0.9490594 0.02796,-0.4665665 -0.153575,-0.8525388 -0.523558,-1.1131756 -0.767494,-0.5406656 -1.8407,-0.029881 -1.948603,0.9274231 -0.05626,0.4991763 0.211814,0.9711534 0.703803,1.2391137 0.132672,0.07226 0.30831,0.096823 0.600647,0.084001 0.336661,-0.014766 0.454454,-0.049626 0.636267,-0.1883025 l 0,0 z"
       id="path2823" />
  </g>
</svg>
