<?xml version="1.0" encoding="UTF-8" standalone="no"?>
<!-- Created with Inkscape (http://www.inkscape.org/) -->
<svg
   xmlns:dc="http://purl.org/dc/elements/1.1/"
   xmlns:cc="http://creativecommons.org/ns#"
   xmlns:rdf="http://www.w3.org/1999/02/22-rdf-syntax-ns#"
   xmlns:svg="http://www.w3.org/2000/svg"
   xmlns="http://www.w3.org/2000/svg"
   xmlns:sodipodi="http://sodipodi.sourceforge.net/DTD/sodipodi-0.dtd"
   xmlns:inkscape="http://www.inkscape.org/namespaces/inkscape"
   height="83.398537"
   id="svg1"
   inkscape:version="0.46"
   sodipodi:docbase="/home/vector"
   sodipodi:docname="chess_set_symbols_08_black_queen.svg"
   sodipodi:version="0.32"
   width="89.595322"
   inkscape:output_extension="org.inkscape.output.svg.inkscape"
   version="1.0"
   inkscape:export-filename="C:\joanna\Gfx\drawings_vector\admin\thumbs\Igor Krizanovskij\chess_set_symbols_igor_k_01_ok.png"
   inkscape:export-xdpi="51.457458"
   inkscape:export-ydpi="51.457458">
  <metadata
     id="metadata3">
    <rdf:RDF>
      <cc:Work
         rdf:about="">
        <dc:title>Chess Set Symbols</dc:title>
        <dc:description />
        <dc:subject>
          <rdf:Bag>
            <rdf:li />
            <rdf:li>game</rdf:li>
            <rdf:li>chess</rdf:li>
            <rdf:li>symbols</rdf:li>
            <rdf:li>board</rdf:li>
            <rdf:li>recreation</rdf:li>
            <rdf:li>fonts</rdf:li>
          </rdf:Bag>
        </dc:subject>
        <dc:publisher>
          <cc:Agent
             rdf:about="http://www.openclipart.org">
            <dc:title>Igor Krizanovskij</dc:title>
          </cc:Agent>
        </dc:publisher>
        <dc:creator>
          <cc:Agent>
            <dc:title>Igor Krizanovskij</dc:title>
          </cc:Agent>
        </dc:creator>
        <dc:rights>
          <cc:Agent>
            <dc:title>Igor Krizanovskij</dc:title>
          </cc:Agent>
        </dc:rights>
        <dc:date />
        <dc:format>image/svg+xml</dc:format>
        <dc:type
           rdf:resource="http://purl.org/dc/dcmitype/StillImage" />
        <cc:license
           rdf:resource="http://web.resource.org/cc/PublicDomain" />
        <dc:language>en</dc:language>
      </cc:Work>
      <cc:License
         rdf:about="http://web.resource.org/cc/PublicDomain">
        <cc:permits
           rdf:resource="http://web.resource.org/cc/Reproduction" />
        <cc:permits
           rdf:resource="http://web.resource.org/cc/Distribution" />
        <cc:permits
           rdf:resource="http://web.resource.org/cc/DerivativeWorks" />
      </cc:License>
    </rdf:RDF>
  </metadata>
  <defs
     id="defs3">
    <inkscape:perspective
       sodipodi:type="inkscape:persp3d"
       inkscape:vp_x="0 : 187.5 : 1"
       inkscape:vp_y="0 : 1000 : 0"
       inkscape:vp_z="1052.3622 : 187.5 : 1"
       inkscape:persp3d-origin="526.18109 : 125 : 1"
       id="perspective20" />
  </defs>
  <sodipodi:namedview
     bordercolor="#666666"
     borderopacity="1.0"
     id="base"
     inkscape:current-layer="layer1"
     inkscape:cx="702.38575"
     inkscape:cy="44.73312"
     inkscape:pageopacity="0.0"
     inkscape:pageshadow="2"
     inkscape:window-height="778"
     inkscape:window-width="1270"
     inkscape:window-x="2"
     inkscape:window-y="0"
     inkscape:zoom="0.80058132"
     pagecolor="#ffffff"
     showgrid="false" />
  <g
     id="layer1"
     inkscape:groupmode="layer"
     inkscape:label="Layer 1"
     transform="translate(-230.9317,-73.051163)">
    <path
       d="M 254.42788,142.89421 C 254.42788,144.27128 255.41764,144.95981 257.39718,144.95981 L 266.30507,144.31431 C 266.30496,144.31431 268.88696,144.1852 274.05107,143.92701 L 275.98757,143.92701 L 291.09225,144.70162 L 294.19065,144.95981 C 296.17005,144.95981 297.15985,144.27128 297.15995,142.89421 C 297.15985,140.39829 291.39337,139.02122 279.86055,138.76302 L 275.85846,138.76302 C 266.13282,138.76302 259.6349,139.4946 256.36437,140.95771 C 255.07338,141.47412 254.42788,142.11962 254.42788,142.89421 M 238.29039,88.930453 C 236.65511,88.930453 235.62233,89.748103 235.19199,91.383363 C 235.10592,91.641563 235.06288,91.899753 235.06288,92.157973 C 235.06288,93.793233 235.88053,94.826033 237.51579,95.256353 C 237.77398,95.342423 238.03218,95.385463 238.29039,95.385463 C 240.35598,95.385463 241.38878,94.309623 241.38878,92.157973 C 241.38878,90.006293 240.35598,88.930453 238.29039,88.930453 M 255.20246,80.797163 C 252.96474,80.797163 251.84589,81.873003 251.84589,84.024663 C 251.84589,86.176343 252.96474,87.252163 255.20246,87.252163 C 257.26807,87.252163 258.30087,86.176343 258.30087,84.024663 C 258.30087,81.873003 257.26807,80.797163 255.20246,80.797163 M 296.38534,80.797163 C 294.9221,80.797163 293.93233,81.528743 293.41605,82.991863 L 293.28694,84.024663 C 293.28684,86.176343 294.31964,87.252163 296.38534,87.252163 C 298.53689,87.252163 299.61273,86.176343 299.61283,84.024663 C 299.61273,81.873003 298.53689,80.797163 296.38534,80.797163 M 313.16833,88.930453 C 311.10261,88.930453 310.06983,90.006293 310.06994,92.157973 C 310.06983,94.309623 311.10261,95.385463 313.16833,95.385463 C 315.31989,95.385463 316.39571,94.309623 316.39584,92.157973 C 316.39571,90.522713 315.57809,89.489903 313.94293,89.059563 C 313.68463,88.973493 313.42642,88.930453 313.16833,88.930453 M 303.87313,150.64022 C 303.87302,153.05008 299.4406,154.72838 290.57586,155.67512 L 278.05315,156.4497 L 275.72935,156.4497 C 265.22913,156.4497 257.22503,155.54601 251.71678,153.73862 C 249.04871,152.96401 247.71468,151.93121 247.71468,150.64022 C 247.71468,148.14429 248.40321,145.30408 249.78028,142.11962 C 250.72701,140.22615 251.20039,138.89211 251.20039,138.11753 C 251.20039,136.48227 249.22085,133.29778 245.26178,128.56414 C 243.11012,126.0682 241.86216,124.34686 241.51789,123.40012 C 241.51789,122.88373 241.25969,121.72183 240.74328,119.91444 L 239.06498,113.45944 C 237.94613,109.24217 237.21456,104.76673 236.87029,100.03305 C 232.91123,98.397793 230.9317,95.772763 230.9317,92.157973 C 230.9317,89.059563 232.35178,86.864873 235.19199,85.573883 C 236.13872,85.143533 237.17152,84.928363 238.29039,84.928363 C 241.13058,84.928363 243.23922,86.219373 244.61628,88.801373 C 245.21876,89.920223 245.51999,91.039103 245.51999,92.157973 L 244.87449,97.063763 C 244.87449,100.93675 247.6286,105.67042 253.13688,111.26475 C 253.5672,107.73602 253.78238,104.03516 253.78238,100.16214 C 253.78238,94.395693 252.74958,90.737863 250.68398,89.188673 C 250.51185,89.016523 250.3397,88.887443 250.16759,88.801373 C 248.61838,87.854633 247.84379,86.176343 247.84379,83.766473 C 247.84379,80.582013 249.3069,78.387303 252.23317,77.182373 C 253.17992,76.752043 254.16968,76.536873 255.20246,76.536873 C 258.2148,76.536873 260.36647,77.913953 261.65747,80.668063 C 262.17386,81.614813 262.43195,82.647593 262.43207,83.766473 L 261.52836,89.317763 C 261.52836,94.137503 263.89509,101.49617 268.62887,111.39385 C 270.43615,103.30358 271.33987,97.106803 271.33997,92.803463 C 271.33987,89.188673 270.69435,85.875103 269.40348,82.862783 C 268.88696,81.743903 268.62877,80.883243 268.62887,80.280773 C 268.62877,77.096303 270.04885,74.901613 272.88916,73.696663 C 273.83578,73.266343 274.82555,73.051163 275.85846,73.051163 C 278.87069,73.051163 280.9793,74.471273 282.18435,77.311483 C 282.61457,78.258213 282.82975,79.247973 282.82985,80.280773 C 282.82975,80.452903 282.09818,82.733673 280.63516,87.123073 C 280.29077,88.241923 280.11865,90.135403 280.11875,92.803463 C 280.11865,97.106803 281.02234,103.30358 282.82985,111.39385 C 287.47734,101.58224 289.80115,94.223553 289.80125,89.317763 L 289.02665,83.895583 L 289.02665,83.766473 C 289.02653,80.582013 290.48968,78.387303 293.41605,77.182373 C 294.36267,76.752043 295.35244,76.536873 296.38534,76.536873 C 299.39757,76.536873 301.54923,77.913953 302.84034,80.668063 C 303.35663,81.614813 303.61483,82.647593 303.61493,83.766473 C 303.61483,86.176343 302.84022,87.897673 301.29113,88.930453 C 298.88116,90.479673 297.67624,94.266593 297.67634,100.29125 C 297.67624,104.07819 297.89139,107.73602 298.32184,111.26475 C 303.82998,105.67042 306.58412,100.93675 306.58423,97.063763 L 305.93873,92.157973 C 305.93863,89.145633 307.3157,86.993963 310.06994,85.702963 C 311.01656,85.186573 312.04936,84.928363 313.16833,84.928363 C 316.26663,84.928363 318.46132,86.305423 319.75242,89.059563 L 320.52702,91.512473 L 320.52702,92.157973 C 320.52692,95.600613 318.54738,98.225643 314.58843,100.03305 C 314.07192,105.97165 312.60879,113.24428 310.19903,121.85093 C 310.0268,122.53947 309.94072,123.05586 309.94083,123.40012 C 309.94072,124.00259 309.29522,124.99236 308.00433,126.36943 L 306.45514,128.30592 C 302.32383,133.03959 300.25823,136.31012 300.25833,138.11753 C 300.25823,138.63392 301.29103,141.30199 303.35674,146.12172 C 303.70091,147.84304 303.87302,149.34922 303.87313,150.64022 M 275.85846,76.795073 C 274.22308,76.795073 273.19028,77.612713 272.76005,79.247973 C 272.67387,79.506173 272.63086,79.764363 272.63097,80.022563 C 272.63086,81.657833 273.44848,82.690633 275.08385,83.120973 C 275.34194,83.207043 275.60016,83.250083 275.85846,83.250083 C 277.92396,83.250083 278.95674,82.174243 278.95686,80.022563 C 278.95674,78.473373 278.22519,77.440563 276.76215,76.924173 C 276.50385,76.838113 276.20262,76.795073 275.85846,76.795073 M 299.09644,127.14404 C 299.09634,124.3899 291.35034,123.01282 275.85846,123.01282 C 260.2804,123.01282 252.49138,124.43293 252.49138,127.27314 C 252.49138,128.47806 253.61023,129.08053 255.84796,129.08053 C 258.42998,129.08053 261.65747,128.86537 265.53047,128.43503 L 273.92196,128.17684 L 275.98757,128.17684 C 278.39731,128.17684 282.95883,128.39199 289.67215,128.82234 L 295.99804,129.08053 C 298.06354,129.08053 299.09634,128.43503 299.09644,127.14404"
       id="path1742"
       style="font-size:12px;font-style:normal;font-weight:normal;fill:#000000;fill-opacity:1;stroke:none;stroke-width:1pt;stroke-linecap:butt;stroke-linejoin:miter;stroke-opacity:1;font-family:Bitstream Vera Sans" />
  </g>
</svg>
