<?xml version="1.0" encoding="UTF-8" standalone="no"?>
<!-- Created with Inkscape (http://www.inkscape.org/) -->
<svg
   xmlns:dc="http://purl.org/dc/elements/1.1/"
   xmlns:cc="http://creativecommons.org/ns#"
   xmlns:rdf="http://www.w3.org/1999/02/22-rdf-syntax-ns#"
   xmlns:svg="http://www.w3.org/2000/svg"
   xmlns="http://www.w3.org/2000/svg"
   xmlns:sodipodi="http://sodipodi.sourceforge.net/DTD/sodipodi-0.dtd"
   xmlns:inkscape="http://www.inkscape.org/namespaces/inkscape"
   height="89.46624"
   id="svg1"
   inkscape:version="0.46"
   sodipodi:docbase="/home/vector"
   sodipodi:docname="chess_set_symbols_02_white_bishop.svg"
   sodipodi:version="0.32"
   width="83.398552"
   inkscape:output_extension="org.inkscape.output.svg.inkscape"
   version="1.0"
   inkscape:export-filename="C:\joanna\Gfx\drawings_vector\admin\thumbs\Igor Krizanovskij\chess_set_symbols_igor_k_01_ok.png"
   inkscape:export-xdpi="51.457458"
   inkscape:export-ydpi="51.457458">
  <metadata
     id="metadata3">
    <rdf:RDF>
      <cc:Work
         rdf:about="">
        <dc:title>Chess Set Symbols</dc:title>
        <dc:description />
        <dc:subject>
          <rdf:Bag>
            <rdf:li />
            <rdf:li>game</rdf:li>
            <rdf:li>chess</rdf:li>
            <rdf:li>symbols</rdf:li>
            <rdf:li>board</rdf:li>
            <rdf:li>recreation</rdf:li>
            <rdf:li>fonts</rdf:li>
          </rdf:Bag>
        </dc:subject>
        <dc:publisher>
          <cc:Agent
             rdf:about="http://www.openclipart.org">
            <dc:title>Igor Krizanovskij</dc:title>
          </cc:Agent>
        </dc:publisher>
        <dc:creator>
          <cc:Agent>
            <dc:title>Igor Krizanovskij</dc:title>
          </cc:Agent>
        </dc:creator>
        <dc:rights>
          <cc:Agent>
            <dc:title>Igor Krizanovskij</dc:title>
          </cc:Agent>
        </dc:rights>
        <dc:date />
        <dc:format>image/svg+xml</dc:format>
        <dc:type
           rdf:resource="http://purl.org/dc/dcmitype/StillImage" />
        <cc:license
           rdf:resource="http://web.resource.org/cc/PublicDomain" />
        <dc:language>en</dc:language>
      </cc:Work>
      <cc:License
         rdf:about="http://web.resource.org/cc/PublicDomain">
        <cc:permits
           rdf:resource="http://web.resource.org/cc/Reproduction" />
        <cc:permits
           rdf:resource="http://web.resource.org/cc/Distribution" />
        <cc:permits
           rdf:resource="http://web.resource.org/cc/DerivativeWorks" />
      </cc:License>
    </rdf:RDF>
  </metadata>
  <defs
     id="defs3">
    <inkscape:perspective
       sodipodi:type="inkscape:persp3d"
       inkscape:vp_x="0 : 187.5 : 1"
       inkscape:vp_y="0 : 1000 : 0"
       inkscape:vp_z="1052.3622 : 187.5 : 1"
       inkscape:persp3d-origin="526.18109 : 125 : 1"
       id="perspective20" />
  </defs>
  <sodipodi:namedview
     bordercolor="#666666"
     borderopacity="1.0"
     id="base"
     inkscape:current-layer="layer1"
     inkscape:cx="41.699276"
     inkscape:cy="44.73312"
     inkscape:pageopacity="0.0"
     inkscape:pageshadow="2"
     inkscape:window-height="778"
     inkscape:window-width="1270"
     inkscape:window-x="2"
     inkscape:window-y="0"
     inkscape:zoom="6.4046505"
     pagecolor="#ffffff"
     showgrid="false" />
  <g
     id="layer1"
     inkscape:groupmode="layer"
     inkscape:label="Layer 1"
     transform="translate(-571.36243,-212.65269)">
    <path
       d="M 613.06171,264.16357 C 607.03694,264.16357 602.3463,263.90536 598.98981,263.38897 C 599.59216,264.59389 599.8934,265.62669 599.8935,266.48735 C 599.8934,267.77837 599.6352,268.85419 599.11892,269.71486 C 601.61474,268.94026 606.26233,268.55295 613.06171,268.55295 C 619.86085,268.55295 624.50846,268.94026 627.00448,269.71486 C 626.48798,268.85419 626.22979,267.77837 626.22989,266.48735 C 626.22979,265.45457 626.48798,264.42177 627.00448,263.38897 C 622.95927,263.90536 618.31166,264.16357 613.06171,264.16357 M 613.06171,217.42941 C 611.2542,217.42941 610.00623,218.24702 609.31781,219.88229 C 609.14556,220.31262 609.05951,220.74297 609.05961,221.17329 C 609.05951,223.06676 610.00623,224.31473 611.8998,224.91719 C 612.24396,225.00326 612.63127,225.0463 613.06171,225.0463 C 615.04111,225.0463 616.33214,224.14258 616.9347,222.3352 C 617.02065,221.99092 617.06368,221.60362 617.06381,221.17329 C 617.06368,219.45197 616.20303,218.29006 614.4818,217.6876 C 613.9653,217.51546 613.49192,217.42941 613.06171,217.42941 M 613.06171,272.29685 C 609.79106,272.29685 605.5738,272.59809 600.40991,273.20055 C 598.94678,273.3727 598.08611,274.19032 597.82792,275.65345 C 597.82792,276.68625 600.19463,277.33175 604.9284,277.58995 C 604.49796,277.50388 604.6701,277.46084 605.44481,277.46084 C 606.21929,277.46084 608.75826,277.46084 613.06171,277.46084 C 623.13138,277.46084 628.16628,276.85838 628.1664,275.65345 C 628.16628,273.67393 625.67035,272.59809 620.6786,272.42596 L 616.9347,272.42596 C 615.81573,272.42596 614.869,272.38292 614.09449,272.29685 L 613.06171,272.29685 M 612.9326,260.41967 C 622.57196,260.41967 628.46752,259.51598 630.6193,257.70856 C 632.08231,256.58969 633.15815,253.6204 633.84679,248.80067 C 633.41635,244.49734 630.61918,240.36614 625.45528,236.40707 C 620.63546,232.62016 616.41819,230.51152 612.8035,230.08118 C 609.44679,230.51152 605.35864,232.62016 600.539,236.40707 C 595.46108,240.36614 592.70695,244.49734 592.27661,248.80067 C 592.87909,253.27613 593.82582,256.11634 595.11682,257.32126 C 595.46108,257.66553 595.84839,257.96676 596.27871,258.22495 C 598.43039,259.6881 603.98157,260.41967 612.9326,260.41967 M 610.73791,254.09377 L 610.73791,248.41337 L 606.34851,248.41337 L 606.34851,243.37847 L 610.73791,243.37847 L 610.73791,237.82718 L 615.38551,237.82718 L 615.38551,243.37847 L 619.77489,243.37847 L 619.77489,248.41337 L 615.38551,248.41337 L 615.38551,254.09377 L 610.73791,254.09377 M 612.8035,280.43014 C 612.02881,280.43014 609.74802,281.93632 605.96121,284.94865 C 603.29304,286.75604 598.98981,287.83188 593.05122,288.17614 C 588.74789,288.17614 585.30522,288.3913 582.72322,288.82164 C 579.96911,289.4241 578.59203,290.58601 578.59203,292.30733 C 578.85023,294.02867 579.75392,294.88934 581.30313,294.88934 L 588.14543,293.85654 C 592.62087,293.85654 597.31151,293.25408 602.2173,292.04913 C 607.81152,290.58601 611.42632,288.26221 613.06171,285.07774 C 615.38539,289.63929 621.41005,292.3934 631.13569,293.34013 C 631.13559,293.34013 632.25444,293.51228 634.49229,293.85654 C 636.72992,293.85654 637.84879,293.85654 637.84889,293.85654 L 644.82028,294.88934 C 646.36937,294.88934 647.27306,294.02867 647.53136,292.30733 C 647.53126,290.58601 646.15419,289.4241 643.40018,288.82164 L 629.5865,287.78884 C 625.19699,287.44457 620.97973,285.72324 616.9347,282.62486 C 615.12719,281.16171 613.75012,280.43014 612.8035,280.43014 M 613.06171,291.66183 C 609.70501,295.01843 604.62707,297.08403 597.82792,297.85864 C 595.07378,298.11683 590.25406,298.7193 583.36871,299.66602 C 581.56133,300.0103 580.52853,300.82793 580.27033,302.11893 C 578.63507,301.6886 576.22519,299.02053 573.04074,294.11474 C 572.26614,292.90981 571.70671,292.09217 571.36244,291.66183 C 574.20263,286.23965 577.73136,283.52855 581.94863,283.52855 L 589.56553,283.91585 C 593.09426,283.91585 597.22544,283.09821 601.9591,281.46295 C 595.84839,280.68836 592.79302,278.83792 592.79302,275.91165 L 595.37501,266.10007 C 595.37501,266.014 595.37501,265.92792 595.37501,265.84185 C 590.21103,260.16148 587.62902,254.82534 587.62902,249.83348 C 587.62902,244.15308 590.42618,238.98909 596.02051,234.34149 C 600.9262,230.21028 604.54099,228.01559 606.8649,227.75738 C 604.97134,225.4336 604.0246,223.02374 604.02471,220.52779 C 604.0246,216.56872 606.00414,214.0728 609.96331,213.04 C 610.90993,212.78191 611.94273,212.6528 613.06171,212.65269 C 617.27886,212.6528 620.03298,214.24493 621.3241,217.42941 L 621.9696,220.14051 L 621.9696,220.52779 C 621.9695,223.19585 621.06578,225.60573 619.2585,227.75738 C 621.58219,228.01559 625.24003,230.25332 630.232,234.47058 C 635.74014,239.0321 638.49428,244.15308 638.49439,249.83348 C 638.49428,254.6532 635.91227,259.98933 630.74839,265.84185 C 630.74829,267.0468 631.17862,268.76813 632.03938,271.00586 C 632.89994,273.76 633.33028,275.39526 633.33038,275.91165 C 633.33028,278.83792 630.2749,280.68836 624.16429,281.46295 C 628.81178,283.09821 632.94297,283.91585 636.55789,283.91585 L 644.17478,283.52855 C 648.39194,283.52855 651.92067,286.23965 654.76098,291.66183 L 650.37158,298.37503 C 648.90833,300.26849 647.40217,301.51647 645.85308,302.11893 C 645.5087,300.3976 643.01277,299.32176 638.36528,298.89144 C 638.96763,298.89144 637.67664,298.76233 634.49229,298.50414 C 623.73385,297.47133 616.59033,295.19058 613.06171,291.66183"
       id="path1700"
       style="font-size:12px;font-style:normal;font-weight:normal;fill:#000000;fill-opacity:1;stroke:none;stroke-width:1pt;stroke-linecap:butt;stroke-linejoin:miter;stroke-opacity:1;font-family:Bitstream Vera Sans" />
  </g>
</svg>
