<?xml version="1.0" encoding="UTF-8" standalone="no"?>
<!-- Created with Inkscape (http://www.inkscape.org/) -->
<svg
   xmlns:dc="http://purl.org/dc/elements/1.1/"
   xmlns:cc="http://web.resource.org/cc/"
   xmlns:rdf="http://www.w3.org/1999/02/22-rdf-syntax-ns#"
   xmlns:svg="http://www.w3.org/2000/svg"
   xmlns="http://www.w3.org/2000/svg"
   xmlns:xlink="http://www.w3.org/1999/xlink"
   xmlns:sodipodi="http://sodipodi.sourceforge.net/DTD/sodipodi-0.dtd"
   xmlns:inkscape="http://www.inkscape.org/namespaces/inkscape"
   width="700pt"
   height="700pt"
   id="svg36220"
   sodipodi:version="0.32"
   inkscape:version="0.44"
   version="1.0"
   inkscape:export-filename="/home/maurizio/out/wp.png"
   inkscape:export-xdpi="90"
   inkscape:export-ydpi="90"
   sodipodi:docbase="/home/maurizio/chess_pieces/chess_set"
   sodipodi:docname="bp.svg">
  <defs
     id="defs36222">
    <linearGradient
       inkscape:collect="always"
       xlink:href="#linearGradient2977"
       id="linearGradient2983"
       x1="266.05432"
       y1="588.67303"
       x2="548.09802"
       y2="789.98169"
       gradientUnits="userSpaceOnUse"
       gradientTransform="matrix(-0.186846,-0.652384,-0.653506,0.211668,867.6248,912.1052)" />
    <linearGradient
       id="linearGradient3099">
      <stop
         style="stop-color:#ffffff;stop-opacity:1"
         offset="0"
         id="stop3101" />
      <stop
         style="stop-color:#d0b090;stop-opacity:1"
         offset="1"
         id="stop3103" />
    </linearGradient>
    <linearGradient
       inkscape:collect="always"
       xlink:href="#linearGradient3070"
       id="linearGradient2975"
       x1="432.66666"
       y1="411.33334"
       x2="634.66669"
       y2="478"
       gradientUnits="userSpaceOnUse"
       gradientTransform="matrix(-0.186846,-0.652384,-0.653506,0.211668,867.6248,912.1052)" />
    <linearGradient
       id="linearGradient2977">
      <stop
         style="stop-color:#000000;stop-opacity:1;"
         offset="0"
         id="stop2979" />
      <stop
         style="stop-color:#00c000;stop-opacity:1;"
         offset="1"
         id="stop2981" />
    </linearGradient>
    <linearGradient
       inkscape:collect="always"
       xlink:href="#linearGradient2977"
       id="linearGradient2993"
       x1="86.188515"
       y1="245.65826"
       x2="192.44601"
       y2="150.66571"
       gradientUnits="userSpaceOnUse"
       gradientTransform="matrix(-0.781045,-0.235361,-0.259086,0.798409,898.5019,314.1100)" />
    <linearGradient
       id="linearGradient3237">
      <stop
         id="stop3239"
         offset="0"
         style="stop-color:#008000;stop-opacity:1;" />
      <stop
         id="stop3241"
         offset="1"
         style="stop-color:#800080;stop-opacity:1;" />
    </linearGradient>
    <linearGradient
       id="linearGradient3224">
      <stop
         style="stop-color:#000000;stop-opacity:1;"
         offset="0"
         id="stop3226" />
      <stop
         style="stop-color:#c0c000;stop-opacity:1;"
         offset="1"
         id="stop3228" />
    </linearGradient>
    <linearGradient
       inkscape:collect="always"
       xlink:href="#linearGradient3070"
       id="linearGradient3140"
       gradientUnits="userSpaceOnUse"
       gradientTransform="matrix(0.71912,4.944956e-4,-8.938622e-3,0.739105,891.0352,44.69319)"
       x1="275.24356"
       y1="458.6561"
       x2="522.97559"
       y2="519.06158" />
    <linearGradient
       id="linearGradient3070">
      <stop
         style="stop-color:#000000;stop-opacity:1;"
         offset="0"
         id="stop3072" />
      <stop
         style="stop-color:#907050;stop-opacity:1;"
         offset="1"
         id="stop3074" />
    </linearGradient>
    <linearGradient
       inkscape:collect="always"
       xlink:href="#linearGradient3070"
       id="linearGradient3092"
       x1="300.27295"
       y1="623.78223"
       x2="774.0462"
       y2="764.89874"
       gradientUnits="userSpaceOnUse"
       gradientTransform="translate(-4.436303,74.92558)" />
    <linearGradient
       inkscape:collect="always"
       xlink:href="#linearGradient3070"
       id="linearGradient3365"
       gradientUnits="userSpaceOnUse"
       gradientTransform="matrix(0.745982,6.886275e-2,-6.479489e-2,0.701916,191.9741,72.0527)"
       x1="203.60152"
       y1="387.72406"
       x2="542.60797"
       y2="475.62903" />
    <linearGradient
       inkscape:collect="always"
       xlink:href="#linearGradient3070"
       id="linearGradient3369"
       gradientUnits="userSpaceOnUse"
       gradientTransform="matrix(0.32741,-0.166193,0.121832,0.276848,377.2478,323.9419)"
       x1="307.02979"
       y1="442.26321"
       x2="533.92651"
       y2="487.51233" />
    <linearGradient
       inkscape:collect="always"
       xlink:href="#linearGradient3070"
       id="linearGradient3379"
       x1="298.66666"
       y1="435"
       x2="550.18915"
       y2="468.76749"
       gradientUnits="userSpaceOnUse" />
    <linearGradient
       inkscape:collect="always"
       xlink:href="#linearGradient3070"
       id="linearGradient1927"
       gradientUnits="userSpaceOnUse"
       gradientTransform="matrix(0.883471,8.155451e-2,-7.321062e-2,0.793083,82.15832,63.90848)"
       x1="275.24356"
       y1="458.6561"
       x2="771.40265"
       y2="497.96924" />
    <linearGradient
       inkscape:collect="always"
       xlink:href="#linearGradient3070"
       id="linearGradient1935"
       gradientUnits="userSpaceOnUse"
       gradientTransform="matrix(0.979444,0.201717,-0.201717,0.979444,560.6328,108.4432)"
       x1="456.672"
       y1="496.70807"
       x2="675.57281"
       y2="496.70807" />
    <linearGradient
       inkscape:collect="always"
       xlink:href="#linearGradient3070"
       id="linearGradient4630"
       gradientUnits="userSpaceOnUse"
       x1="409.6666"
       y1="725.85468"
       x2="162.97456"
       y2="762.5213"
       gradientTransform="matrix(-0.923743,0,0,0.920465,809.8236,55.03776)" />
    <linearGradient
       inkscape:collect="always"
       xlink:href="#linearGradient3070"
       id="linearGradient4640"
       x1="368.66669"
       y1="673.33331"
       x2="424.66672"
       y2="686.66663"
       gradientUnits="userSpaceOnUse" />
    <linearGradient
       inkscape:collect="always"
       xlink:href="#linearGradient3070"
       id="linearGradient4644"
       gradientUnits="userSpaceOnUse"
       gradientTransform="matrix(0.923743,0,0,0.920465,49.38476,56.10604)"
       x1="216.33325"
       y1="670.85468"
       x2="397.97458"
       y2="792.5213" />
    <linearGradient
       inkscape:collect="always"
       xlink:href="#linearGradient3070"
       id="linearGradient4777"
       gradientUnits="userSpaceOnUse"
       gradientTransform="matrix(0.32741,-0.166193,0.121832,0.276848,841.5813,279.1585)"
       x1="307.02979"
       y1="442.26321"
       x2="533.92651"
       y2="487.51233" />
    <linearGradient
       inkscape:collect="always"
       xlink:href="#linearGradient3070"
       id="linearGradient3215"
       gradientUnits="userSpaceOnUse"
       gradientTransform="matrix(-0.923743,0,0,0.920465,809.8236,57.03776)"
       x1="409.6666"
       y1="725.85468"
       x2="162.97456"
       y2="762.5213" />
    <linearGradient
       inkscape:collect="always"
       xlink:href="#linearGradient3070"
       id="linearGradient3217"
       gradientUnits="userSpaceOnUse"
       gradientTransform="matrix(0.923743,0,0,0.920465,51.38476,58.10604)"
       x1="216.33325"
       y1="670.85468"
       x2="397.97458"
       y2="792.5213" />
    <linearGradient
       inkscape:collect="always"
       xlink:href="#linearGradient3224"
       id="linearGradient3230"
       x1="458.86057"
       y1="854.13947"
       x2="314.90103"
       y2="408.66223"
       gradientUnits="userSpaceOnUse"
       gradientTransform="matrix(0.988325,0.000000,0.000000,0.988176,-38.73910,-146.9468)" />
    <linearGradient
       inkscape:collect="always"
       xlink:href="#linearGradient3237"
       id="linearGradient3235"
       gradientUnits="userSpaceOnUse"
       gradientTransform="matrix(-0.967479,0.000000,0.000000,0.963901,515.0058,-126.6261)"
       x1="368.841"
       y1="636.23065"
       x2="25.697485"
       y2="818.42755" />
    <linearGradient
       inkscape:collect="always"
       xlink:href="#linearGradient3070"
       id="linearGradient3243"
       gradientUnits="userSpaceOnUse"
       x1="298.66666"
       y1="435"
       x2="550.18915"
       y2="468.76749" />
    <linearGradient
       inkscape:collect="always"
       xlink:href="#linearGradient3070"
       id="linearGradient3245"
       gradientUnits="userSpaceOnUse"
       gradientTransform="matrix(1.047347,0.000000,0.000000,1.047189,-98.35072,-127.6402)"
       x1="300.27295"
       y1="623.78223"
       x2="774.0462"
       y2="764.89874" />
    <linearGradient
       inkscape:collect="always"
       xlink:href="#linearGradient3099"
       id="linearGradient2279"
       x1="118.5958"
       y1="579.19678"
       x2="232.82404"
       y2="831.39819"
       gradientUnits="userSpaceOnUse" />
    <linearGradient
       inkscape:collect="always"
       xlink:href="#linearGradient3099"
       id="linearGradient2289"
       gradientUnits="userSpaceOnUse"
       x1="118.5958"
       y1="579.19678"
       x2="232.82404"
       y2="831.39819"
       gradientTransform="matrix(-0.332664,-0.943045,0.943045,-0.332664,22.24646,1059.324)" />
    <linearGradient
       inkscape:collect="always"
       xlink:href="#linearGradient3070"
       id="linearGradient2292"
       gradientUnits="userSpaceOnUse"
       x1="118.5958"
       y1="579.19678"
       x2="232.82404"
       y2="831.39819"
       gradientTransform="matrix(0.943646,0.000000,0.000000,0.943646,45.02564,49.86916)" />
    <linearGradient
       inkscape:collect="always"
       xlink:href="#linearGradient3237"
       id="linearGradient2294"
       gradientUnits="userSpaceOnUse"
       gradientTransform="matrix(-0.912958,0.000000,0.000000,0.909581,531.0088,-69.62105)"
       x1="368.841"
       y1="636.23065"
       x2="25.697485"
       y2="818.42755" />
    <linearGradient
       inkscape:collect="always"
       xlink:href="#linearGradient3070"
       id="linearGradient2296"
       gradientUnits="userSpaceOnUse"
       gradientTransform="matrix(0.988325,0.000000,0.000000,0.988176,-47.78262,-70.57800)"
       x1="300.27295"
       y1="623.78223"
       x2="774.0462"
       y2="764.89874" />
  </defs>
  <sodipodi:namedview
     id="base"
     pagecolor="#ffffff"
     bordercolor="#666666"
     borderopacity="1.0"
     inkscape:pageopacity="0.0"
     inkscape:pageshadow="2"
     inkscape:zoom="0.42426404"
     inkscape:cx="667.43471"
     inkscape:cy="400.63465"
     inkscape:current-layer="layer1"
     inkscape:document-units="px"
     inkscape:window-width="1057"
     inkscape:window-height="820"
     inkscape:window-x="30"
     inkscape:window-y="140" />
  <metadata
     id="metadata36225">
    <rdf:RDF>
      <cc:Work
         rdf:about="">
        <dc:format>image/svg+xml</dc:format>
        <dc:type
           rdf:resource="http://purl.org/dc/dcmitype/StillImage" />
        <dc:rights>
          <cc:Agent>
            <dc:title>Maurizio Monge</dc:title>
          </cc:Agent>
        </dc:rights>
        <dc:creator>
          <cc:Agent>
            <dc:title>Maurizio Monge</dc:title>
          </cc:Agent>
        </dc:creator>
        <cc:license
           rdf:resource="http://creativecommons.org/licenses/GPL/2.0/" />
      </cc:Work>
      <cc:License
         rdf:about="http://creativecommons.org/licenses/GPL/2.0/">
        <cc:permits
           rdf:resource="http://web.resource.org/cc/Reproduction" />
        <cc:permits
           rdf:resource="http://web.resource.org/cc/Distribution" />
        <cc:requires
           rdf:resource="http://web.resource.org/cc/Notice" />
        <cc:permits
           rdf:resource="http://web.resource.org/cc/DerivativeWorks" />
        <cc:requires
           rdf:resource="http://web.resource.org/cc/ShareAlike" />
        <cc:requires
           rdf:resource="http://web.resource.org/cc/SourceCode" />
      </cc:License>
    </rdf:RDF>
  </metadata>
  <g
     id="layer1"
     inkscape:label="Layer 1"
     inkscape:groupmode="layer">
    <path
       style="fill:url(#linearGradient2296);fill-opacity:1;fill-rule:evenodd;stroke:#000000;stroke-width:15.09833336;stroke-linecap:round;stroke-linejoin:round;stroke-miterlimit:4;stroke-dasharray:none;stroke-opacity:1"
       d="M 384.11892,367.70091 C 364.52401,367.95055 344.85693,376.12142 344.9871,390.90871 C 346.43885,559.07075 259.26134,513.88496 218.50905,542.68826 C 184.71636,566.57264 227.04482,817.21555 271.88403,820.14966 C 299.66861,821.96779 475.92163,831.02545 502.59563,819.97273 C 512.22717,815.98179 524.92617,668.07079 526.10815,668.21283 C 571.79626,670.6077 602.50219,722.92125 648.19234,725.81456 C 676.08815,732.80429 686.37517,706.48958 679.50959,684.08771 C 684.01845,637.10905 678.64905,486.12578 656.71385,483.36984 C 632.16855,479.65028 608.39522,518.71393 612.03891,538.47134 C 610.98873,569.34916 617.87133,573.96641 604.28332,602.93416 C 587.05308,619.19045 574.66812,583.49981 567.06828,576.27616 C 564.09204,580.26036 561.99349,544.37659 559.72554,539.85732 C 532.2671,485.14214 425.14745,566.68547 422.86738,391.23309 C 422.65105,374.90256 403.41003,367.45515 384.11892,367.70091 z "
       id="path35274"
       sodipodi:nodetypes="ccssscccccccscc" />
    <path
       sodipodi:type="arc"
       style="opacity:0.98999999;fill:url(#linearGradient3243);fill-opacity:1;fill-rule:evenodd;stroke:#000000;stroke-width:19.31306076;stroke-linecap:round;stroke-linejoin:round;stroke-miterlimit:4;stroke-dasharray:none;stroke-dashoffset:0;stroke-opacity:1"
       id="path3371"
       sodipodi:cx="423.33334"
       sodipodi:cy="435"
       sodipodi:rx="116.66667"
       sodipodi:ry="116.66667"
       d="M 540.00002 435 A 116.66667 116.66667 0 1 1  306.66667,435 A 116.66667 116.66667 0 1 1  540.00002 435 z"
       transform="matrix(0.718681,0.000000,0.000000,0.850394,81.46053,-14.38102)" />
    <path
       style="fill:url(#linearGradient2294);fill-opacity:1;fill-rule:evenodd;stroke:#000000;stroke-width:15.0983305;stroke-linecap:round;stroke-linejoin:round;stroke-miterlimit:4;stroke-dasharray:none;stroke-opacity:1"
       d="M 289.66094,488.2471 C 266.614,503.40196 233.40986,516.43868 221.12865,522.07091 C 252.30322,559.49125 394.81775,776.02735 400.61338,832.14278 C 417.01663,833.79511 450.23736,833.91125 485.80692,833.52876 C 475.59854,785.71308 323.38599,547.04407 289.66094,488.2471 z M 470.84097,493.08328 C 442.39079,553.03458 262.04231,791.27415 253.29206,832.96847 C 287.51972,832.38328 319.06016,831.68195 334.82897,831.8184 C 337.06464,811.87045 514.30176,540.21831 534.59605,519.32844 C 498.54681,491.89933 496.75845,501.3271 474.79248,494.26284 C 473.48549,493.84251 472.17627,493.45776 470.84097,493.08328 z "
       id="path4628"
       sodipodi:nodetypes="cccccccccsc" />
    <path
       style="fill:url(#linearGradient3230);fill-opacity:1;fill-rule:evenodd;stroke:#000000;stroke-width:15.09833336;stroke-linecap:round;stroke-linejoin:round;stroke-miterlimit:4;stroke-dasharray:none;stroke-opacity:1"
       d="M 375.91261,274.03769 C 329.56098,277.01397 312.27205,331.36291 317.77803,368.23774 C 314.65286,405.3558 334.89913,445.07664 341.77398,481.07288 C 322.8692,519.64728 298.38966,418.63028 292.92586,455.08496 C 301.91566,484.04714 289.9854,515.12044 255.31465,501.90132 C 220.36892,519.04443 209.54602,481.76418 237.85589,464.57165 C 249.31502,432.53053 160.75935,482.91373 199.67073,443.79832 C 231.7992,424.61804 253.05373,400.45614 256.0511,363.05444 C 260.65024,316.60493 281.80421,275.0594 313.90848,244.29042 C 339.33428,219.92216 383.34904,218.72648 414.5129,228.11505 C 448.09495,238.23212 463.66097,258.16056 480.84951,284.96636 C 494.54677,314.16218 501.10441,346.32093 515.14997,375.66837 C 521.7672,416.2551 543.17994,444.7772 578.38908,467.24461 C 585.07133,487.72151 540.05904,484.36823 528.1465,495.64535 C 516.07014,489.58801 505.39529,447.85214 504.72502,483.50358 C 517.54992,523.75547 435.04457,539.51778 442.80464,497.34161 C 454.33385,481.97128 457.59357,461.11419 432.29406,479.25056 C 416.09878,470.65345 446.05693,424.74659 449.12039,399.28652 C 453.01239,366.94039 456.34182,352.34278 443.31973,321.55441 C 428.59762,299.44975 405.16917,271.42133 375.91261,274.03769 z "
       id="path3219"
       sodipodi:nodetypes="ccccccccsscccccccscc" />
    <path
       style="fill:url(#linearGradient2983);fill-opacity:1;fill-rule:evenodd;stroke:#000000;stroke-width:13.97055149;stroke-linecap:round;stroke-linejoin:round;stroke-miterlimit:4;stroke-dasharray:none;stroke-opacity:1"
       d="M 402.65621,674.23539 C 406.55507,679.18003 494.0856,677.39243 478.53276,716.42007 C 471.48828,734.09678 418.46632,736.30498 403.07805,743.66638 C 377.07411,756.10601 358.62511,781.73852 352.91577,810.39817 C 348.38413,833.14528 343.05157,863.01538 319.89629,873.23087 C 265.93451,897.03798 284.26902,824.18049 275.03369,797.80206 C 266.42604,773.21669 228.49541,774.14287 212.46788,752.65424 C 205.05962,742.72156 207.98713,726.46235 220.39172,720.48703 C 243.42129,709.39337 266.9911,709.21156 290.39786,702.9795 C 312.37608,697.12768 345.8036,661.47366 350.3148,641.32136 C 359.05042,602.29827 356.52746,553.63335 395.58984,546.40515 C 414.50858,542.9043 419.82886,591.54822 418.44213,608.92367 C 416.65984,631.25402 399.02583,669.63107 402.65621,674.23539 z "
       id="path2957"
       sodipodi:nodetypes="cssssssssssss" />
    <path
       style="fill:url(#linearGradient2975);fill-opacity:1.0;fill-rule:evenodd;stroke:#000000;stroke-width:13.97055626;stroke-linecap:round;stroke-linejoin:round;stroke-miterlimit:4;stroke-dasharray:none;stroke-opacity:1"
       d="M 318.03008,775.96431 L 676.42933,473.09867 L 667.89513,434.98967 L 297.54803,752.65651 L 318.03008,775.96431 z "
       id="path2967"
       sodipodi:nodetypes="ccccc" />
    <path
       style="fill:url(#linearGradient2292);fill-opacity:1.0;fill-rule:evenodd;stroke:#000000;stroke-width:15.09833527;stroke-linecap:butt;stroke-linejoin:miter;stroke-miterlimit:4;stroke-dasharray:none;stroke-opacity:1"
       d="M 229.83281,532.69151 C 222.94455,533.70055 216.70965,536.32211 211.81507,542.09848 C 207.4277,553.46231 208.42908,566.39772 202.9389,577.5147 C 185.48161,619.80397 174.53977,664.43289 156.61178,706.55828 C 140.74021,730.54003 162.13051,748.98825 185.54042,749.96599 C 228.34347,769.84616 274.60649,782.79311 321.10106,789.68759 C 338.94382,786.78275 365.1108,795.89176 375.00684,776.12268 C 386.67991,754.21268 365.15575,737.9451 345.31148,734.80868 C 316.54166,723.54639 283.18101,719.07115 260.38334,696.62051 C 250.78479,674.9637 258.32781,651.25067 266.28113,630.56529 C 265.52319,616.89414 272.21598,612.7702 281.5564,608.00626 C 261.87856,578.62224 244.73989,551.21256 229.83281,532.69151 z "
       id="path1395"
       sodipodi:nodetypes="cccccccccccc" />
    <path
       style="fill:url(#linearGradient2993);fill-opacity:1;fill-rule:evenodd;stroke:#000000;stroke-width:13.97055435;stroke-linecap:round;stroke-linejoin:round;stroke-miterlimit:4;stroke-dasharray:none;stroke-opacity:1"
       d="M 676.22719,470.6321 L 766.42233,456.90908 L 757.63476,378.29918 L 660.56847,439.61898 L 676.22719,470.6321 z "
       id="path2985" />
    <path
       style="fill:none;fill-opacity:0.75;fill-rule:evenodd;stroke:black;stroke-width:15;stroke-linecap:round;stroke-linejoin:round;stroke-miterlimit:4;stroke-dasharray:none;stroke-opacity:1"
       d="M 349.19639,351.12333 C 350.66086,352.02203 364.13329,347.38911 368.05258,346.40929"
       id="path4122" />
    <path
       style="fill:none;fill-opacity:0.75;fill-rule:evenodd;stroke:black;stroke-width:15;stroke-linecap:round;stroke-linejoin:round;stroke-miterlimit:4;stroke-dasharray:none;stroke-opacity:1"
       d="M 391.6228,346.40929 C 395.55117,345.62361 399.47955,344.83794 403.40792,344.05226 C 406.8713,343.35959 411.58322,344.05226 415.19303,344.05226"
       id="path4124" />
    <path
       id="path4128"
       d="M 377.48066,400.62081 C 378.94513,401.51951 392.41756,396.88659 396.33685,395.90677"
       style="fill:none;fill-opacity:0.75;fill-rule:evenodd;stroke:black;stroke-width:15;stroke-linecap:round;stroke-linejoin:round;stroke-miterlimit:4;stroke-dasharray:none;stroke-opacity:1" />
  </g>
</svg>
