<?xml version="1.0" encoding="UTF-8" standalone="no"?>
<!-- Created with Inkscape (http://www.inkscape.org/) -->

<svg
   xmlns:dc="http://purl.org/dc/elements/1.1/"
   xmlns:cc="http://creativecommons.org/ns#"
   xmlns:rdf="http://www.w3.org/1999/02/22-rdf-syntax-ns#"
   xmlns:svg="http://www.w3.org/2000/svg"
   xmlns="http://www.w3.org/2000/svg"
   xmlns:sodipodi="http://sodipodi.sourceforge.net/DTD/sodipodi-0.dtd"
   xmlns:inkscape="http://www.inkscape.org/namespaces/inkscape"
   width="64px"
   height="64px"
   id="svg2985"
   version="1.1"
   inkscape:version="0.48.1 "
   sodipodi:docname="wn.svg">
  <defs
     id="defs2987" />
  <sodipodi:namedview
     id="base"
     pagecolor="#ffffff"
     bordercolor="#666666"
     borderopacity="1.0"
     inkscape:pageopacity="0.0"
     inkscape:pageshadow="2"
     inkscape:zoom="5.6568542"
     inkscape:cx="10.599089"
     inkscape:cy="16.169916"
     inkscape:current-layer="layer1"
     showgrid="true"
     inkscape:document-units="px"
     inkscape:grid-bbox="true"
     inkscape:window-width="1365"
     inkscape:window-height="878"
     inkscape:window-x="-8"
     inkscape:window-y="-8"
     inkscape:window-maximized="1" />
  <metadata
     id="metadata2990">
    <rdf:RDF>
      <cc:Work
         rdf:about="">
        <dc:format>image/svg+xml</dc:format>
        <dc:type
           rdf:resource="http://purl.org/dc/dcmitype/StillImage" />
        <dc:title></dc:title>
      </cc:Work>
    </rdf:RDF>
  </metadata>
  <g
     id="layer1"
     inkscape:label="Layer 1"
     inkscape:groupmode="layer">
    <text
       xml:space="preserve"
       style="font-size:64px;font-style:normal;font-variant:normal;font-weight:normal;font-stretch:normal;line-height:125%;letter-spacing:0px;word-spacing:0px;fill:#000000;fill-opacity:1;stroke:none;font-family:KiddyChessFont;-inkscape-font-specification:KiddyChessFont"
       x="-145"
       y="-28.5"
       id="text2997"
       sodipodi:linespacing="125%"><tspan
         sodipodi:role="line"
         x="-145"
         y="-28.5"
         id="tspan3003" /></text>
    <text
       xml:space="preserve"
       style="font-size:64px;font-style:normal;font-variant:normal;font-weight:normal;font-stretch:normal;line-height:125%;letter-spacing:0px;word-spacing:0px;fill:#000000;fill-opacity:1;stroke:none;font-family:KiddyChessFont;-inkscape-font-specification:KiddyChessFont"
       x="-0.032226563"
       y="49.727539"
       id="text3021"
       sodipodi:linespacing="125%"><tspan
         sodipodi:role="line"
         id="tspan3023"
         x="-0.032226563"
         y="49.727539">2</tspan></text>
    <path
       style="fill:#ffffff;fill-opacity:1;fill-rule:evenodd"
       d="m 27.428231,56.271039 c -0.729204,-0.0878 -1.882672,-0.282129 -2.563262,-0.43185 -1.248303,-0.27461 -3.221798,-1.080889 -3.054684,-1.248003 0.198892,-0.198893 2.605925,-0.796173 4.712697,-1.169408 1.894582,-0.335642 2.857621,-0.394736 6.385326,-0.391814 4.541557,0.0038 6.552276,0.229476 9.50249,1.066706 1.421087,0.403285 1.607738,0.500117 1.414781,0.733968 -0.335094,0.406116 -1.578103,0.905515 -3.008789,1.208831 -1.518603,0.321956 -11.241166,0.490118 -13.388559,0.23157 z"
       id="path3025"
       inkscape:connector-curvature="0" />
    <path
       style="fill:#ffffff;fill-opacity:1;fill-rule:evenodd"
       d="m 26.833778,48.38024 c -0.06299,-1.102952 -0.133999,-2.097621 -0.157789,-2.210374 -0.02619,-0.124149 0.479675,-0.307715 1.282572,-0.465412 1.478715,-0.290434 7.816828,-0.395283 9.236582,-0.152797 l 0.83969,0.143414 0,2.311576 0,2.311576 -1.523993,-0.123656 c -2.040214,-0.165542 -7.533068,-0.136908 -8.659656,0.04514 l -0.902871,0.145899 -0.114535,-2.005368 z"
       id="path3027"
       inkscape:connector-curvature="0" />
    <path
       style="fill:#ffffff;fill-opacity:1;fill-rule:evenodd"
       d="m 25.776031,42.489835 c -0.175089,-0.296402 -1.687756,-1.908853 -3.361482,-3.583223 -4.081411,-4.082982 -5.16548,-5.801819 -5.361145,-8.500315 -0.292865,-4.039042 2.312791,-8.03716 8.723264,-13.384974 1.37648,-1.148302 2.554717,-2.172002 2.618305,-2.274889 0.06889,-0.111474 0.298196,0.02992 0.567441,0.349899 0.248505,0.295331 1.796901,1.732656 3.440882,3.194055 3.267673,2.904766 5.684817,5.530641 6.508144,7.070152 0.803312,1.502089 1.062345,2.902672 1.065323,5.760193 0.0035,3.347903 -0.223452,4.8338 -1.157256,7.577067 -0.494211,1.451865 -0.784674,2.61563 -0.784674,3.143874 l 0,0.838708 -0.928078,-0.136526 c -2.444081,-0.359539 -9.489075,-0.09965 -10.785611,0.397873 -0.124723,0.04786 -0.370024,-0.155493 -0.545113,-0.451894 l 0,0 z m 6.601947,-4.929242 c 0,-0.08682 -0.11573,-0.202273 -0.257178,-0.256552 -0.329189,-0.126321 -0.963623,-1.365756 -1.280914,-2.5024 -0.135703,-0.486136 -0.29473,-1.869645 -0.353393,-3.074464 l -0.106661,-2.190581 0.921961,0.08859 c 0.762451,0.07326 1.037677,0.201584 1.590802,0.741696 l 0.668842,0.653107 -0.07478,-2.705367 c -0.04113,-1.487952 -0.09571,-2.784917 -0.121292,-2.882144 -0.02558,-0.09723 -0.180004,0.08041 -0.343164,0.394756 -0.372077,0.716844 -1.177861,1.144111 -2.024872,1.073689 l -0.652282,-0.05423 -0.05569,-1.149049 c -0.0847,-1.747769 0.09494,-2.583383 0.704669,-3.277828 l 0.536692,-0.611259 -2.360604,0.0039 c -2.265183,0.0038 -2.345297,0.01628 -1.981941,0.309359 0.208264,0.167986 0.505673,0.55827 0.660909,0.867299 0.32534,0.647659 0.562203,3.390486 0.32275,3.737384 -0.107845,0.156237 -0.567576,0.232107 -1.39067,0.229505 -1.286382,-0.0041 -2.057194,-0.207342 -2.579868,-0.680355 -0.170922,-0.154682 -0.342859,-0.248582 -0.382082,-0.208667 -0.08047,0.08188 0.270078,4.450977 0.36637,4.566345 0.03413,0.04089 0.240733,-0.09302 0.459111,-0.297584 0.498615,-0.467079 1.038295,-0.671929 2.182425,-0.828397 l 0.90149,-0.123286 0.108728,1.206175 c 0.118919,1.319228 -0.08466,3.978747 -0.391906,5.11977 -0.107,0.397367 -0.390894,1.011822 -0.630876,1.365455 l -0.43633,0.642969 2.999876,0 c 1.649932,0 2.999876,-0.07104 2.999876,-0.157864 z"
       id="path3029"
       inkscape:connector-curvature="0" />
    <path
       style="fill:#ffffff;fill-opacity:1;fill-rule:evenodd"
       d="m 40.86326,39.816906 c 0,-0.05746 0.306647,-0.771871 0.681438,-1.587591 1.391834,-3.029286 1.899981,-5.240791 1.734957,-7.550699 -0.195316,-2.733919 -0.942601,-4.499079 -3.61218,-8.532319 l -1.589096,-2.40083 1.729042,-1.841078 c 1.684631,-1.793788 1.733503,-1.829726 1.902702,-1.399136 0.09551,0.243068 0.692249,1.216643 1.326079,2.163501 1.455071,2.173679 2.618792,4.545255 3.232183,6.586946 0.394144,1.311922 0.480054,1.947577 0.489776,3.623922 0.02045,3.526449 -0.787872,5.553922 -3.304531,8.288552 -2.012419,2.186715 -2.59037,2.777688 -2.59037,2.648732 z"
       id="path3031"
       inkscape:connector-curvature="0" />
    <path
       style="fill:#ffffff;fill-opacity:1;fill-rule:evenodd"
       d="m 42.127364,11.509939 c -0.883051,-2.1731878 -0.897406,-2.4778068 -0.1519,-3.2233132 0.640948,-0.6409479 1.147545,-0.7604573 1.942448,-0.4582357 0.609652,0.2317894 1.011212,0.6851864 1.011212,1.1417494 0,0.3085218 -2.006189,4.0039675 -2.170553,3.9982075 -0.02154,-7.6e-4 -0.305579,-0.657038 -0.631207,-1.458408 l 0,0 z"
       id="path3033"
       inkscape:connector-curvature="0" />
    <path
       style="fill:#ffffff;fill-opacity:1;fill-rule:evenodd"
       d="m 28.430524,11.070327 c -0.633312,-1.6142067 -0.62187,-2.3973146 0.04477,-3.0639534 0.804067,-0.8040672 1.87272,-0.6526561 2.384963,0.3379111 0.243276,0.4704451 0.213719,0.5555983 -0.719154,2.0718863 -0.535071,0.869702 -1.032652,1.643339 -1.105736,1.719193 -0.07308,0.07585 -0.345263,-0.403412 -0.604842,-1.065037 z"
       id="path3035"
       inkscape:connector-curvature="0" />
  </g>
</svg>
