<?xml version="1.0" encoding="UTF-8" standalone="no"?>
<!-- Created with Inkscape (http://www.inkscape.org/) -->

<svg
   xmlns:dc="http://purl.org/dc/elements/1.1/"
   xmlns:cc="http://creativecommons.org/ns#"
   xmlns:rdf="http://www.w3.org/1999/02/22-rdf-syntax-ns#"
   xmlns:svg="http://www.w3.org/2000/svg"
   xmlns="http://www.w3.org/2000/svg"
   xmlns:sodipodi="http://sodipodi.sourceforge.net/DTD/sodipodi-0.dtd"
   xmlns:inkscape="http://www.inkscape.org/namespaces/inkscape"
   width="64px"
   height="64px"
   id="svg2985"
   version="1.1"
   inkscape:version="0.48.1 "
   sodipodi:docname="wr.svg">
  <defs
     id="defs2987" />
  <sodipodi:namedview
     id="base"
     pagecolor="#ffffff"
     bordercolor="#666666"
     borderopacity="1.0"
     inkscape:pageopacity="0.0"
     inkscape:pageshadow="2"
     inkscape:zoom="5.6568542"
     inkscape:cx="10.599089"
     inkscape:cy="16.169916"
     inkscape:current-layer="layer1"
     showgrid="true"
     inkscape:document-units="px"
     inkscape:grid-bbox="true"
     inkscape:window-width="1365"
     inkscape:window-height="878"
     inkscape:window-x="-8"
     inkscape:window-y="-8"
     inkscape:window-maximized="1" />
  <metadata
     id="metadata2990">
    <rdf:RDF>
      <cc:Work
         rdf:about="">
        <dc:format>image/svg+xml</dc:format>
        <dc:type
           rdf:resource="http://purl.org/dc/dcmitype/StillImage" />
        <dc:title></dc:title>
      </cc:Work>
    </rdf:RDF>
  </metadata>
  <g
     id="layer1"
     inkscape:label="Layer 1"
     inkscape:groupmode="layer">
    <text
       xml:space="preserve"
       style="font-size:64px;font-style:normal;font-variant:normal;font-weight:normal;font-stretch:normal;line-height:125%;letter-spacing:0px;word-spacing:0px;fill:#000000;fill-opacity:1;stroke:none;font-family:KiddyChessFont;-inkscape-font-specification:KiddyChessFont"
       x="-145"
       y="-28.5"
       id="text2997"
       sodipodi:linespacing="125%"><tspan
         sodipodi:role="line"
         x="-145"
         y="-28.5"
         id="tspan3003" /></text>
    <text
       xml:space="preserve"
       style="font-size:64px;font-style:normal;font-variant:normal;font-weight:normal;font-stretch:normal;line-height:125%;letter-spacing:0px;word-spacing:0px;fill:#000000;fill-opacity:1;stroke:none;font-family:KiddyChessFont;-inkscape-font-specification:KiddyChessFont"
       x="0.032226563"
       y="50.080078"
       id="text3047"
       sodipodi:linespacing="125%"><tspan
         sodipodi:role="line"
         id="tspan3049"
         x="0.032226563"
         y="50.080078">4</tspan></text>
    <path
       style="fill:#ffffff;fill-opacity:1;fill-rule:evenodd"
       d="m 25.572075,56.447176 c -3.269843,-0.324998 -7.513009,-1.114548 -7.513009,-1.397988 0,-0.216258 4.094583,-1.526131 6.187184,-1.979305 1.640942,-0.355362 2.358321,-0.402654 6.187185,-0.407882 5.578579,-0.0076 7.182516,0.292919 10.891884,2.040858 l 1.570873,0.740231 -0.795495,0.245736 c -2.063637,0.637477 -3.945831,0.809229 -9.457554,0.86301 -3.014042,0.02941 -6.196023,-0.01769 -7.071068,-0.10466 l 0,0 z"
       id="path3051"
       inkscape:connector-curvature="0" />
    <path
       style="fill:#ffffff;fill-opacity:1;fill-rule:evenodd"
       d="m 20.801836,51.19768 c 0.64524,-1.548021 1.357174,-3.820042 1.600635,-5.108159 0.513665,-2.717732 0.141514,-6.35156 -0.901184,-8.799502 -0.12233,-0.287192 -0.09199,-0.318373 0.195205,-0.200597 1.336533,0.548104 2.460292,0.392144 3.312106,-0.45967 0.514664,-0.514664 0.522959,-0.551905 0.419565,-1.883684 l -0.105479,-1.35864 0.441124,1.14518 c 0.514793,1.336427 0.954853,1.861839 1.790328,2.13757 1.27806,0.421798 2.623121,-0.28784 3.132357,-1.652593 0.153153,-0.410451 0.387319,-1.979291 0.520368,-3.486313 0.13305,-1.507021 0.254914,-2.382066 0.27081,-1.944543 0.107402,2.95617 0.382067,5.540511 0.648526,6.102031 0.900283,1.897206 2.62724,1.722739 3.974403,-0.401518 l 0.481207,-0.758785 -0.02479,1.236166 c -0.0223,1.112058 0.02131,1.282392 0.434375,1.696592 0.285798,0.286585 0.732179,0.497045 1.182258,0.557413 0.701524,0.09409 0.947818,0.0076 3.269243,-1.148361 0.07573,-0.03771 -0.105517,0.291805 -0.402774,0.732255 -1.354316,2.006717 -1.682601,3.61588 -1.536186,7.529981 0.09054,2.420239 0.249333,3.597712 0.750134,5.562146 0.129389,0.507537 0.12399,0.51193 -0.469647,0.38232 -2.788528,-0.60882 -4.641401,-0.829706 -7.759997,-0.925086 -3.737727,-0.114318 -5.459427,0.05989 -9.163868,0.927238 -2.186241,0.511882 -2.22356,0.514029 -2.058721,0.118559 z"
       id="path3053"
       inkscape:connector-curvature="0" />
    <path
       style="fill:#ffffff;fill-opacity:1;fill-rule:evenodd"
       d="m 5.1543671,24.492799 c 0,-1.5128 0.387838,-2.847094 1.007752,-3.467008 0.4642356,-0.464236 0.4822369,-0.467674 0.6119969,-0.1169 0.073531,0.198773 0.2456862,0.954531 0.3825674,1.679462 L 7.4055583,23.90641 6.9005898,24.115575 C 6.6228572,24.230616 6.1163392,24.633872 5.7749943,25.0117 l -0.6206272,0.68696 0,-1.205861 z"
       id="path3055"
       inkscape:connector-curvature="0" />
    <path
       style="fill:#ffffff;fill-opacity:1;fill-rule:evenodd"
       d="m 15.319027,13.782129 c -0.68059,-0.193225 -1.277211,-0.383336 -1.325825,-0.422468 -0.04861,-0.03913 0.290474,-0.415241 0.753529,-0.835797 0.804816,-0.730952 2.491726,-1.49434 2.744211,-1.241855 0.102416,0.102416 -0.542414,2.183808 -0.826356,2.667322 -0.07165,0.122004 -0.525576,0.0656 -1.345559,-0.167202 z"
       id="path3057"
       inkscape:connector-curvature="0" />
    <path
       style="fill:#ffffff;fill-opacity:1;fill-rule:evenodd"
       d="m 30.097472,11.276784 c -0.719529,-0.527293 -1.375813,-0.958715 -1.458408,-0.958715 -0.358864,0 -0.102545,-0.9258268 0.421589,-1.5227828 0.709019,-0.807527 1.452037,-1.1288678 2.610218,-1.1288678 1.049868,0 2.01619,0.3637257 2.695845,1.0147228 0.612675,0.5868408 0.612675,0.9242069 0,1.4870358 -0.754624,0.693229 -2.652268,2.095988 -2.815,2.080879 -0.0803,-0.0075 -0.734715,-0.444979 -1.454244,-0.972272 l 0,0 z"
       id="path3059"
       inkscape:connector-curvature="0" />
    <path
       style="fill:#ffffff;fill-opacity:1;fill-rule:evenodd"
       d="m 47.207962,14.156643 c -0.113443,-0.40974 -0.21518,-1.21971 -0.226083,-1.799933 -0.01846,-0.982419 0.01334,-1.071074 0.462529,-1.289463 0.999246,-0.485819 2.630462,0.302347 3.516142,1.698921 0.884048,1.393998 0.790005,1.501942 -1.481399,1.700376 -0.657368,0.05743 -1.3909,0.178816 -1.630072,0.269748 -0.405085,0.154013 -0.448979,0.114328 -0.641117,-0.579649 l 0,0 z"
       id="path3061"
       inkscape:connector-curvature="0" />
    <path
       style="fill:#ffffff;fill-opacity:1;fill-rule:evenodd"
       d="m 57.603267,27.292525 c -0.456558,-0.28954 -0.830105,-0.592909 -0.830105,-0.674152 0,-0.629095 0.562253,-4.205345 0.679609,-4.322701 0.445095,-0.445095 1.441712,2.508596 1.441712,4.272827 0,1.454795 -0.07373,1.496135 -1.291216,0.724026 l 0,0 z"
       id="path3063"
       inkscape:connector-curvature="0" />
  </g>
</svg>
