<?xml version="1.0" encoding="UTF-8" standalone="no"?>
<!-- Created with Inkscape (http://www.inkscape.org/) -->

<svg
   xmlns:dc="http://purl.org/dc/elements/1.1/"
   xmlns:cc="http://creativecommons.org/ns#"
   xmlns:rdf="http://www.w3.org/1999/02/22-rdf-syntax-ns#"
   xmlns:svg="http://www.w3.org/2000/svg"
   xmlns="http://www.w3.org/2000/svg"
   xmlns:sodipodi="http://sodipodi.sourceforge.net/DTD/sodipodi-0.dtd"
   xmlns:inkscape="http://www.inkscape.org/namespaces/inkscape"
   width="64px"
   height="64px"
   id="svg2985"
   version="1.1"
   inkscape:version="0.48.1 "
   sodipodi:docname="wb.svg">
  <defs
     id="defs2987" />
  <sodipodi:namedview
     id="base"
     pagecolor="#ffffff"
     bordercolor="#666666"
     borderopacity="1.0"
     inkscape:pageopacity="0.0"
     inkscape:pageshadow="2"
     inkscape:zoom="5.5"
     inkscape:cx="32"
     inkscape:cy="47.606768"
     inkscape:current-layer="layer1"
     showgrid="true"
     inkscape:document-units="px"
     inkscape:grid-bbox="true"
     inkscape:window-width="1365"
     inkscape:window-height="878"
     inkscape:window-x="-8"
     inkscape:window-y="-8"
     inkscape:window-maximized="1" />
  <metadata
     id="metadata2990">
    <rdf:RDF>
      <cc:Work
         rdf:about="">
        <dc:format>image/svg+xml</dc:format>
        <dc:type
           rdf:resource="http://purl.org/dc/dcmitype/StillImage" />
        <dc:title></dc:title>
      </cc:Work>
    </rdf:RDF>
  </metadata>
  <g
     id="layer1"
     inkscape:label="Layer 1"
     inkscape:groupmode="layer">
    <path
       style="fill:#000000"
       d="M 8.984971,54.405381 C 8.2417664,52.930369 7.6336899,51.479347 7.6336899,51.180888 c 0,-0.298459 0.7832028,-0.950866 1.7404507,-1.449793 3.1970794,-1.666351 5.0080654,-1.779188 9.6914654,-0.603847 3.916929,0.982988 4.594456,1.022479 5.991212,0.349211 1.863992,-0.898485 2.459752,-2.635939 0.903843,-2.635939 -0.56672,0 -1.790771,-0.266579 -2.720111,-0.592397 -2.286337,-0.801569 -2.637422,-2.506412 -1.151765,-5.592882 l 1.1761,-2.443363 -1.724071,-1.974814 c -2.248546,-2.575565 -3.196658,-4.944459 -3.196658,-7.98697 0,-4.241895 1.872413,-6.576591 8.511687,-10.61315 l 3.298341,-2.005332 -1.085305,-1.091498 c -2.501771,-2.516047 -0.51381,-7.0158675 3.099517,-7.0158675 3.463288,0 5.243537,4.5208985 2.762724,7.0158675 l -1.085305,1.091498 3.298342,2.005332 c 6.639274,4.036559 8.511687,6.371255 8.511687,10.61315 0,3.086691 -1.167523,5.959764 -3.338649,8.215843 l -1.677797,1.743448 1.169415,2.354887 c 1.686259,3.395674 1.540627,4.559487 -0.687717,5.495862 -1.021422,0.429212 -2.346842,0.780386 -2.945378,0.780386 -1.283075,0 -1.366659,0.488416 -0.328016,1.916733 0.934579,1.285212 4.03847,1.282103 8.452684,-0.0085 3.374519,-0.986597 6.569524,-0.517907 8.989533,1.318719 l 1.333469,1.012011 -1.476293,3.027275 -1.476288,3.027273 -1.64654,-1.179133 c -2.267078,-1.623514 -5.62784,-1.908256 -9.04604,-0.766436 -3.599517,1.202389 -6.909227,0.848262 -9.314235,-0.996597 -1.616576,-1.240058 -1.901489,-1.304763 -2.50815,-0.569611 -1.991514,2.413323 -5.993035,2.99369 -10.34901,1.500992 -3.156854,-1.081785 -6.827652,-0.744758 -8.932223,0.820094 l -1.538357,1.14385 -1.351281,-2.681843 z m 22.747267,-5.949123 c 0,-0.865516 -0.357016,-1.077159 -1.817036,-1.077159 -1.086819,0 -1.935866,0.31143 -2.112724,0.774946 -0.27654,0.724764 0.254608,0.936332 3.260356,1.298674 0.368172,0.04438 0.669404,-0.404024 0.669404,-0.996461 z m 3.865737,0.545933 c 0.596753,-0.0048 0.811975,-0.291408 0.612109,-0.815223 -0.190193,-0.498463 -1.004158,-0.807869 -2.125286,-0.807869 -1.493395,0 -1.817037,0.203046 -1.817037,1.139974 0,0.919364 0.23318,1.077127 1.204928,0.815222 0.66271,-0.178612 1.619089,-0.328059 2.125286,-0.332104 z m -4.905094,-5.806659 c 3.559277,-0.133656 7.080307,0.01472 8.284487,0.349107 2.48169,0.689138 3.647873,-0.02894 1.782379,-1.097502 -1.739361,-0.996311 -15.749192,-1.014646 -17.477,-0.02287 -1.356753,0.778786 -1.05663,2.026078 0.33693,1.400255 0.485648,-0.218096 3.66859,-0.501141 7.073204,-0.628988 z m -3.979634,-4.233693 c 2.697843,-1.141207 8.600425,-1.131727 10.809908,0.01736 2.047078,1.064628 2.241933,1.066753 2.241933,0.02444 0,-1.353126 -3.647033,-2.551482 -7.765088,-2.551482 -4.118055,0 -7.765088,1.198356 -7.765088,2.551482 0,1.027547 -0.05169,1.028419 2.478335,-0.0418 z m 6.090038,-9.057051 0,-2.394097 2.543735,-0.164154 c 1.83154,-0.118193 2.543736,-0.390341 2.543736,-0.972022 0,-0.581681 -0.712196,-0.853829 -2.543736,-0.972023 l -2.543735,-0.164154 0,-2.663386 c 0,-2.008402 -0.197546,-2.663386 -0.803285,-2.663386 -0.60574,0 -0.803285,0.654984 -0.803285,2.663386 l 0,2.663386 -2.543736,0.164154 c -1.831539,0.118194 -2.543735,0.390342 -2.543735,0.972023 0,0.581681 0.712196,0.853829 2.543735,0.972022 l 2.543736,0.164154 0,2.394097 c 0,1.769033 0.209726,2.394097 0.803285,2.394097 0.593559,0 0.803285,-0.625064 0.803285,-2.394097 z"
       id="path3226"
       inkscape:connector-curvature="0" />
    <path
       style="fill:#ffffff"
       d="m 30.454545,49.332262 c -0.2,-0.04033 -0.836486,-0.165258 -1.414413,-0.27761 -1.144903,-0.222576 -1.30163,-0.342125 -1.135348,-0.866033 0.204135,-0.643172 2.165416,-0.98166 3.265198,-0.563524 0.371558,0.141266 0.466382,0.300224 0.466382,0.781818 0,0.610169 -0.275834,1.058599 -0.627273,1.019773 -0.105,-0.0116 -0.354546,-0.05409 -0.554546,-0.09442 l 0,0 z"
       id="path3239"
       inkscape:connector-curvature="0" />
    <path
       style="fill:#ffffff"
       d="m 32.590909,49.325544 c -0.127344,-0.05037 -0.227273,-0.400185 -0.227273,-0.795612 0,-0.859105 0.329226,-1.082155 1.597279,-1.082155 1.153986,0 1.993909,0.298506 2.140626,0.760772 0.163593,0.515434 -0.02107,0.624182 -1.465177,0.862847 -0.7,0.115687 -1.395455,0.240422 -1.545455,0.277188 -0.15,0.03677 -0.375,0.0264 -0.5,-0.02304 z"
       id="path3241"
       inkscape:connector-curvature="0" />
    <path
       style="fill:#ffffff"
       d="m 22.609637,43.716419 c -0.321005,-0.836527 0.839917,-1.448622 3.246833,-1.711889 2.275855,-0.248932 9.504621,-0.249044 12.066498,-1.88e-4 2.740979,0.266255 4.454136,1.113727 3.307501,1.636169 -0.327576,0.149254 -0.811929,0.125017 -1.968827,-0.09852 -3.584357,-0.69257 -13.150682,-0.46905 -16.123069,0.376719 -0.291278,0.08288 -0.44156,0.0254 -0.528936,-0.202293 z"
       id="path3243"
       inkscape:connector-curvature="0" />
    <path
       style="fill:#ffffff"
       d="m 24.363636,39.093394 c 0,-1.866365 6.091681,-3.132836 10.973785,-2.281468 2.745352,0.478749 4.298943,1.303246 4.298943,2.281468 0,0.686131 -0.405912,0.705173 -1.645199,0.07718 -1.576837,-0.799044 -2.936672,-1.046727 -5.718438,-1.041568 -2.74135,0.0051 -4.343316,0.27626 -6.279378,1.062953 -1.420974,0.577393 -1.629713,0.564769 -1.629713,-0.09856 z"
       id="path3245"
       inkscape:connector-curvature="0" />
    <path
       style="fill:#ffffff"
       d="m 31.450045,31.708668 c -0.09753,-0.25651 -0.177318,-1.320146 -0.177318,-2.363636 0,-1.844922 -0.01128,-1.897384 -0.409091,-1.901946 -1.132293,-0.01298 -4.006563,-0.373991 -4.322084,-0.542852 -0.482295,-0.258116 -0.453901,-0.655101 0.07148,-0.999341 0.347149,-0.227462 2.881753,-0.587036 4.432426,-0.628811 0.16811,-0.0045 0.227272,-0.543356 0.227272,-2.069901 0,-2.268601 0.21312,-3.208949 0.727273,-3.208949 0.514153,0 0.727273,0.940348 0.727273,3.208949 0,1.526545 0.05916,2.065372 0.227272,2.069901 1.550673,0.04177 4.085277,0.401349 4.432426,0.628811 0.525378,0.34424 0.553772,0.741225 0.07148,0.999341 -0.315521,0.168861 -3.189791,0.529869 -4.322084,0.542852 -0.397807,0.0046 -0.409091,0.05702 -0.409091,1.901946 0,2.147439 -0.175413,2.830018 -0.727273,2.830018 -0.232704,0 -0.439223,-0.175136 -0.549955,-0.466382 z"
       id="path3247"
       inkscape:connector-curvature="0" />
  </g>
</svg>
