<?xml version="1.0" encoding="UTF-8" standalone="no"?>
<!-- Created with Inkscape (http://www.inkscape.org/) -->

<svg
   xmlns:dc="http://purl.org/dc/elements/1.1/"
   xmlns:cc="http://creativecommons.org/ns#"
   xmlns:rdf="http://www.w3.org/1999/02/22-rdf-syntax-ns#"
   xmlns:svg="http://www.w3.org/2000/svg"
   xmlns="http://www.w3.org/2000/svg"
   xmlns:sodipodi="http://sodipodi.sourceforge.net/DTD/sodipodi-0.dtd"
   xmlns:inkscape="http://www.inkscape.org/namespaces/inkscape"
   width="64px"
   height="64px"
   id="svg2985"
   version="1.1"
   inkscape:version="0.48.1 "
   sodipodi:docname="wn.svg">
  <defs
     id="defs2987" />
  <sodipodi:namedview
     id="base"
     pagecolor="#ffffff"
     bordercolor="#666666"
     borderopacity="1.0"
     inkscape:pageopacity="0.0"
     inkscape:pageshadow="2"
     inkscape:zoom="5.5"
     inkscape:cx="32"
     inkscape:cy="47.606768"
     inkscape:current-layer="layer1"
     showgrid="true"
     inkscape:document-units="px"
     inkscape:grid-bbox="true"
     inkscape:window-width="1365"
     inkscape:window-height="878"
     inkscape:window-x="-8"
     inkscape:window-y="-8"
     inkscape:window-maximized="1" />
  <metadata
     id="metadata2990">
    <rdf:RDF>
      <cc:Work
         rdf:about="">
        <dc:format>image/svg+xml</dc:format>
        <dc:type
           rdf:resource="http://purl.org/dc/dcmitype/StillImage" />
        <dc:title></dc:title>
      </cc:Work>
    </rdf:RDF>
  </metadata>
  <g
     id="layer1"
     inkscape:label="Layer 1"
     inkscape:groupmode="layer">
    <path
       style="fill:#000000"
       d="m 21.271118,53.631744 c 0.418614,-3.993677 2.024837,-6.987464 4.693849,-8.748708 3.522791,-2.32464 6.394472,-7.352089 6.394472,-11.194795 0,-1.045481 -0.04409,-1.039728 -1.156509,0.150921 -0.63608,0.68081 -2.395087,1.784035 -3.908904,2.451612 -1.968786,0.868214 -3.789174,2.3689 -6.394053,5.271114 -4.2351,4.718518 -5.968988,5.407422 -9.553329,3.795708 -6.0624104,-2.725989 -6.6919186,-7.827772 -1.8381668,-14.897233 3.2653888,-4.756021 4.0541708,-6.420356 4.0541708,-8.554332 0,-1.024486 0.732404,-3.234907 1.645158,-4.965143 1.366972,-2.591263 1.595257,-3.528633 1.350049,-5.543494 -0.176098,-1.446985 -0.01759,-3.0575568 0.393034,-3.9936853 L 17.639033,5.83492 20.086252,8.2069937 c 1.34597,1.3046408 2.669308,2.7856763 2.940749,3.2911893 0.5874,1.093931 2.887824,0.721615 2.887824,-0.467385 0,-1.341011 2.182345,-5.0808176 2.848361,-4.8811338 0.353359,0.1059437 1.311588,1.4994534 2.129395,3.0966881 1.457394,2.8463887 1.550707,2.9170357 4.698578,3.5573187 9.281952,1.887964 15.78662,9.505298 19.04105,22.298149 1.210578,4.758667 2.425715,14.522797 2.429749,19.524039 l 0.0018,2.275974 -18.067721,0 -18.067722,0 0.342767,-3.270089 z M 54.154599,49.294459 C 52.954474,31.919079 47.120747,19.171297 38.653861,15.422456 c -1.541974,-0.682732 -3.589026,-1.383059 -4.549005,-1.556282 -1.486634,-0.268256 -1.745417,-0.158139 -1.745417,0.742707 0,0.790516 0.364117,1.057658 1.441594,1.057658 4.021723,0 9.895617,5.11709 12.533796,10.918917 2.802591,6.163396 4.821402,16.294971 4.821402,24.196609 l 0,3.977675 1.687927,0 1.687929,0 -0.377488,-5.465281 z M 15.342858,43.22782 c 1.074347,-2.246518 1.15712,-3.46792 0.233732,-3.448917 -0.831362,0.01711 -2.754495,4.044312 -2.289538,4.794487 0.590008,0.951937 1.124321,0.602217 2.055806,-1.34557 z m -3.967394,-4.873761 c 1.312275,-1.66354 1.438412,-2.873158 0.299611,-2.873158 -0.736103,0 -2.9389961,2.90529 -2.9438806,3.882544 -0.00456,0.91819 1.6098576,0.301914 2.6442696,-1.009386 z M 35.64046,30.125668 c 0.710181,-2.56092 0.539431,-5.355233 -0.327239,-5.355233 -0.515062,0 -0.814078,0.531095 -0.82915,1.472689 -0.01296,0.809979 -0.351703,2.39004 -0.752753,3.511245 -0.700859,1.959381 -0.685155,2.032178 0.404345,1.874332 0.674514,-0.09772 1.283869,-0.706364 1.504797,-1.503033 z M 18.224454,23.908533 c 0.304859,-0.792188 0.370813,-0.792188 0.815408,0 1.059454,1.887752 2.98246,0.296903 2.286015,-1.891157 -0.216882,-0.681393 -0.05123,-0.995604 0.524873,-0.995604 0.462973,0 0.841768,-0.361478 0.841768,-0.803285 0,-1.898584 -4.367051,-0.0429 -5.629947,2.392326 -1.014732,1.956694 -1.014003,2.159622 0.0078,2.159622 0.452337,0 0.971691,-0.387856 1.154118,-0.861902 z m 6.21348,-8.218488 c 0.516912,-0.01293 0.93984,-0.384984 0.93984,-0.826791 0,-1.065048 -2.075593,-1.037857 -4.835628,0.06335 -1.639842,0.654268 -2.034788,1.031622 -1.611723,1.539935 0.449261,0.539785 0.957708,0.531884 2.564028,-0.03984 1.102004,-0.392229 2.426572,-0.723721 2.943483,-0.736649 z"
       id="path3275"
       inkscape:connector-curvature="0" />
    <path
       style="fill:#ffffff"
       d="M 51.270969,52.856868 C 51.260133,41.375182 48.552047,29.391964 44.650053,23.559467 41.908657,19.461772 37.432908,15.990642 34.519168,15.702545 c -0.535542,-0.05295 -1.155443,-0.132903 -1.377556,-0.177669 -1.002081,-0.201965 -0.921718,-1.713463 0.0911,-1.713463 0.694057,0 3.089496,0.718165 4.82009,1.445088 5.632499,2.365888 9.967166,8.025598 12.829699,16.751547 1.833685,5.589678 2.802736,11.183685 3.359669,19.394274 l 0.225078,3.318182 -1.597262,0 -1.59726,0 -0.0018,-1.863636 6e-5,0 z"
       id="path3277"
       inkscape:connector-curvature="0" />
    <path
       style="fill:#ffffff"
       d="m 33.272727,31.607547 c 0,-0.0383 0.242528,-0.918135 0.538951,-1.955199 0.296424,-1.037065 0.593549,-2.386892 0.660279,-2.999617 0.144902,-1.330513 0.334262,-1.750409 0.789381,-1.750409 1.070784,0 0.886878,5.025338 -0.224581,6.136797 -0.347236,0.347236 -1.76403,0.803773 -1.76403,0.568428 z"
       id="path3279"
       inkscape:connector-curvature="0" />
    <path
       style="fill:#ffffff"
       d="m 19.136364,16.60009 c -0.125,-0.05044 -0.227273,-0.239115 -0.227273,-0.419281 0,-1.117824 5.630109,-2.556612 6.24791,-1.596668 0.36596,0.568631 -0.07682,0.908718 -1.624191,1.247487 -0.793046,0.173623 -1.799915,0.444648 -2.237488,0.602277 -0.775977,0.279535 -1.701492,0.350776 -2.158958,0.166185 z"
       id="path3281"
       inkscape:connector-curvature="0" />
    <path
       style="fill:#ffffff"
       d="m 16.453053,24.536271 c -0.187694,-0.303694 0.790155,-2.220408 1.510995,-2.961752 1.295297,-1.332142 3.343515,-2.313311 4.23707,-2.029707 0.280773,0.08911 0.352171,0.246287 0.309243,0.680758 -0.04608,0.466317 -0.159048,0.591455 -0.647385,0.717102 l -0.59157,0.152208 0.04612,1.342434 c 0.04137,1.204339 7.64e-4,1.390822 -0.394669,1.812812 -0.608614,0.649475 -0.972651,0.591509 -1.712346,-0.272658 l -0.636011,-0.743036 -0.31998,0.515763 c -0.175989,0.28367 -0.443616,0.618037 -0.594726,0.743037 -0.330693,0.273553 -1.048449,0.299153 -1.206736,0.04304 z"
       id="path3283"
       inkscape:connector-curvature="0" />
    <path
       style="fill:#ffffff"
       d="m 8.9230329,39.555485 c -0.4768842,-0.57461 1.9361691,-3.92589 2.8267951,-3.92589 0.61438,0 0.713481,0.413826 0.335879,1.402562 -0.572215,1.498324 -2.6425031,3.150096 -3.1626741,2.523328 z"
       id="path3285"
       inkscape:connector-curvature="0" />
    <path
       style="fill:#ffffff"
       d="m 13.540939,44.715514 c -0.410955,-0.4541 -0.261763,-1.231974 0.545939,-2.846475 0.9558,-1.910532 1.519838,-2.383251 1.977652,-1.657466 0.355942,0.564286 -1.286316,4.492756 -1.991233,4.763258 -0.121522,0.04663 -0.361083,-0.07006 -0.532358,-0.259317 z"
       id="path3287"
       inkscape:connector-curvature="0" />
  </g>
</svg>
