<?xml version="1.0" encoding="UTF-8" standalone="no"?>
<!-- Created with Inkscape (http://www.inkscape.org/) -->

<svg
   xmlns:dc="http://purl.org/dc/elements/1.1/"
   xmlns:cc="http://creativecommons.org/ns#"
   xmlns:rdf="http://www.w3.org/1999/02/22-rdf-syntax-ns#"
   xmlns:svg="http://www.w3.org/2000/svg"
   xmlns="http://www.w3.org/2000/svg"
   xmlns:sodipodi="http://sodipodi.sourceforge.net/DTD/sodipodi-0.dtd"
   xmlns:inkscape="http://www.inkscape.org/namespaces/inkscape"
   width="64px"
   height="64px"
   id="svg2985"
   version="1.1"
   inkscape:version="0.48.1 "
   sodipodi:docname="wq.svg">
  <defs
     id="defs2987" />
  <sodipodi:namedview
     id="base"
     pagecolor="#ffffff"
     bordercolor="#666666"
     borderopacity="1.0"
     inkscape:pageopacity="0.0"
     inkscape:pageshadow="2"
     inkscape:zoom="5.5"
     inkscape:cx="32"
     inkscape:cy="59.813537"
     inkscape:current-layer="layer1"
     showgrid="true"
     inkscape:document-units="px"
     inkscape:grid-bbox="true"
     inkscape:window-width="1365"
     inkscape:window-height="878"
     inkscape:window-x="-8"
     inkscape:window-y="-8"
     inkscape:window-maximized="1" />
  <metadata
     id="metadata2990">
    <rdf:RDF>
      <cc:Work
         rdf:about="">
        <dc:format>image/svg+xml</dc:format>
        <dc:type
           rdf:resource="http://purl.org/dc/dcmitype/StillImage" />
        <dc:title></dc:title>
      </cc:Work>
    </rdf:RDF>
  </metadata>
  <g
     id="layer1"
     inkscape:label="Layer 1"
     inkscape:groupmode="layer">
    <path
       style="fill:#000000"
       d="M 22.423988,58.334445 C 21.537854,58.198142 19.559632,57.733431 18.02794,57.301744 14.614094,56.339601 14.093538,55.212637 15.667833,52.192285 17.037239,49.565022 17.050047,48.958791 15.789464,46.435632 15.241947,45.339731 13.368981,39.307663 11.627317,33.031035 9.1954899,24.267184 8.2618801,21.618919 7.6040542,21.618697 5.2501606,21.617892 4.0620233,17.235918 5.9519521,15.525557 c 3.0605199,-2.769733 7.4706549,1.153964 5.0210519,4.46723 l -1.089798,1.47403 4.390712,7.156027 4.390712,7.156027 0.14719,-9.628405 0.14719,-9.628403 -1.355555,-0.987453 c -1.54134,-1.122788 -1.846613,-3.780371 -0.625996,-5.449664 1.058077,-1.4470064 4.009861,-1.3205717 5.261693,0.225376 1.35299,1.670871 1.242947,3.048608 -0.37253,4.664085 l -1.362944,1.362944 3.352163,9.431984 3.352163,9.431983 2.051947,-10.074131 2.051946,-10.074131 -1.35591,-1.256615 c -1.636672,-1.516816 -1.752343,-3.596725 -0.281808,-5.0672607 2.136888,-2.1368875 5.907564,-0.5779707 5.907564,2.4423737 0,0.767596 -0.586134,1.911482 -1.335145,2.605642 l -1.335145,1.237371 2.024591,10.11192 2.02459,10.11192 3.358754,-9.450528 3.358754,-9.450528 -1.362944,-1.362944 c -1.615477,-1.615477 -1.72552,-2.993214 -0.372531,-4.664085 1.251833,-1.5459477 4.203617,-1.6723824 5.261694,-0.225376 1.220617,1.669293 0.915343,4.326876 -0.625996,5.449664 l -1.355556,0.987453 0.14719,9.664101 0.147191,9.664102 4.421625,-7.225208 4.421626,-7.225207 -1.130739,-1.203616 c -1.951248,-2.077009 -0.250494,-5.559492 2.71511,-5.559492 1.894829,0 3.267183,1.505492 3.267183,3.584147 0,1.670847 -1.384958,3.396609 -2.727543,3.398718 -0.534087,8.59e-4 -1.63668,3.150615 -3.671857,10.489425 -1.599712,5.768525 -3.471558,11.87023 -4.15966,13.559344 -1.526458,3.747069 -1.528808,3.857404 -0.138948,6.523908 2.48185,4.761536 -0.399585,5.971958 -14.811924,6.22216 -5.316806,0.0923 -10.39194,0.0563 -11.278075,-0.08 z m -2.148204,-4.127297 c 3.527995,-0.959424 21.491332,-0.718892 24.679295,0.330464 2.849418,0.937917 3.286142,0.879314 2.804318,-0.376296 -0.627323,-1.634778 -4.603176,-2.170366 -15.937013,-2.14688 -11.814385,0.02448 -15.101189,0.571327 -15.487355,2.57672 -0.15544,0.807209 0.01,0.933443 0.79824,0.609193 0.54687,-0.224949 1.961002,-0.671889 3.142515,-0.993201 z M 32.09091,48.266204 c 7.466691,0 8.962329,0.147422 11.412338,1.124888 2.673521,1.066641 2.819518,1.074242 2.819518,0.146801 0,-0.670666 -0.8018,-1.287449 -2.550993,-1.962346 -3.734316,-1.440823 -19.62741,-1.440823 -23.361727,0 -1.749193,0.674897 -2.550993,1.29168 -2.550993,1.962346 0,0.927441 0.145998,0.91984 2.819519,-0.146801 2.450008,-0.977466 3.945647,-1.124888 11.412338,-1.124888 z M 18.775442,44.978317 c 4.336254,-2.163209 22.188747,-2.122726 26.790081,0.06075 1.028364,0.487992 2.011804,0.745206 2.185422,0.571588 C 48.57411,44.787489 47.161164,43.5942 44.334276,42.725141 39.69156,41.29785 23.670244,41.389268 19.472372,42.867004 c -1.853113,0.652334 -3.017047,1.38881 -3.127423,1.978869 -0.21531,1.151017 0.329233,1.18069 2.430493,0.132444 z"
       id="path3058"
       inkscape:connector-curvature="0" />
    <path
       style="fill:#ffffff"
       d="m 16.431624,54.6501 c 0.219167,-1.141624 1.430034,-1.745146 4.386558,-2.186355 C 21.803656,52.31668 25.409641,52.245765 32,52.243844 c 9.924875,-0.0029 11.673676,0.09062 13.94752,0.745849 1.006671,0.290079 1.870662,1.084397 1.870662,1.719811 0,0.4406 -0.709087,0.468271 -1.833511,0.07155 -2.453247,-0.865556 -8.462824,-1.255587 -17.257398,-1.120031 -6.831484,0.105297 -7.495874,0.176068 -10.454546,1.113612 -1.917241,0.607535 -1.98082,0.603234 -1.841103,-0.124536 z"
       id="path3060"
       inkscape:connector-curvature="0" />
    <path
       style="fill:#ffffff"
       d="m 18,49.636338 c 0,-0.300521 0.169795,-0.669328 0.409091,-0.888572 1.708766,-1.565582 5.194567,-2.100821 13.681818,-2.100821 8.487251,0 11.973051,0.535239 13.681818,2.100821 0.451611,0.413769 0.569271,1.402334 0.166906,1.402334 -0.133202,0 -1.135475,-0.317492 -2.227273,-0.705537 -3.139391,-1.115796 -3.858633,-1.189408 -11.621451,-1.189408 -7.762819,0 -8.482059,0.07361 -11.621451,1.189408 C 19.377659,49.832608 18.375387,50.1501 18.242185,50.1501 18.097623,50.1501 18,49.943007 18,49.636338 z"
       id="path3062"
       inkscape:connector-curvature="0" />
    <path
       style="fill:#ffffff"
       d="m 16.363636,45.166262 c 0,-0.901353 1.906433,-2.005516 4.363637,-2.52732 2.379318,-0.505264 4.508462,-0.685962 9.363636,-0.794679 7.255793,-0.162473 13.041551,0.350879 15.388458,1.365369 0.463653,0.200421 1.179562,0.576862 1.590909,0.836534 0.613702,0.387413 0.747906,0.573301 0.747906,1.035942 0,0.515776 -0.0426,0.556105 -0.5,0.473378 -0.275,-0.04974 -1.195455,-0.340314 -2.045455,-0.645726 C 42.338345,43.855414 38.340984,43.401949 32,43.404089 c -6.6487,0.0022 -10.490105,0.457475 -13.29527,1.575574 -1.90426,0.759012 -2.341094,0.79383 -2.341094,0.186599 z"
       id="path3064"
       inkscape:connector-curvature="0" />
  </g>
</svg>
