<?xml version="1.0" encoding="UTF-8" standalone="no"?>
<!-- Created with Inkscape (http://www.inkscape.org/) -->

<svg
   xmlns:dc="http://purl.org/dc/elements/1.1/"
   xmlns:cc="http://creativecommons.org/ns#"
   xmlns:rdf="http://www.w3.org/1999/02/22-rdf-syntax-ns#"
   xmlns:svg="http://www.w3.org/2000/svg"
   xmlns="http://www.w3.org/2000/svg"
   xmlns:sodipodi="http://sodipodi.sourceforge.net/DTD/sodipodi-0.dtd"
   xmlns:inkscape="http://www.inkscape.org/namespaces/inkscape"
   width="64px"
   height="64px"
   id="svg2985"
   version="1.1"
   inkscape:version="0.48.1 "
   sodipodi:docname="wr.svg">
  <defs
     id="defs2987" />
  <sodipodi:namedview
     id="base"
     pagecolor="#ffffff"
     bordercolor="#666666"
     borderopacity="1.0"
     inkscape:pageopacity="0.0"
     inkscape:pageshadow="2"
     inkscape:zoom="5.5"
     inkscape:cx="32"
     inkscape:cy="39.531683"
     inkscape:current-layer="layer1"
     showgrid="true"
     inkscape:document-units="px"
     inkscape:grid-bbox="true"
     inkscape:window-width="1365"
     inkscape:window-height="878"
     inkscape:window-x="-8"
     inkscape:window-y="-8"
     inkscape:window-maximized="1" />
  <metadata
     id="metadata2990">
    <rdf:RDF>
      <cc:Work
         rdf:about="">
        <dc:format>image/svg+xml</dc:format>
        <dc:type
           rdf:resource="http://purl.org/dc/dcmitype/StillImage" />
        <dc:title></dc:title>
      </cc:Work>
    </rdf:RDF>
  </metadata>
  <g
     id="layer1"
     inkscape:label="Layer 1"
     inkscape:groupmode="layer">
    <path
       style="fill:#000000"
       d="m 11.917877,53.841481 0,-2.685256 1.874332,0 1.874331,0 0,-2.576262 c 0,-2.297995 0.231373,-2.802837 2.142093,-4.673929 l 2.142093,-2.097666 0,-8.911884 0,-8.911883 -2.142093,-2.097666 -2.142093,-2.097666 0,-4.992993 0,-4.9929928 3.480901,0 3.480902,0 0,2.1482048 0,2.148205 2.409854,0 2.409855,0 0,-2.148205 0,-2.1482048 4.016424,0 4.016425,0 0,2.1482048 0,2.148205 2.409855,0 2.409854,0 0,-2.148205 0,-2.1482048 3.713888,0 3.713888,0 -0.297901,4.9677238 c -0.292547,4.878447 -0.33523,5.006694 -2.375079,7.136256 l -2.077179,2.168533 0,8.866286 0,8.866286 2.142093,2.097666 c 1.91072,1.871092 2.142093,2.375934 2.142093,4.673929 l 0,2.576262 2.142093,0 2.142093,0 0,2.685256 0,2.685256 -19.814361,0 -19.814361,0 0,-2.685256 z m 33.737966,-3.759358 c 0,-1.047082 -0.357016,-1.074103 -14.191367,-1.074103 -13.83435,0 -14.191366,0.02702 -14.191366,1.074103 0,1.047081 0.357016,1.074102 14.191366,1.074102 13.834351,0 14.191367,-0.02702 14.191367,-1.074102 z m 0,-3.651948 c 0,-1.524501 -1.602514,-1.718564 -14.191367,-1.718564 -12.588852,0 -14.191366,0.194063 -14.191366,1.718564 0,0.236302 6.386115,0.429641 14.191366,0.429641 7.805252,0 14.191367,-0.193339 14.191367,-0.429641 z m -4.284186,-5.746448 c 0,-0.687803 -1.487565,-0.805577 -10.174942,-0.805577 -8.687377,0 -10.174942,0.117774 -10.174942,0.805577 0,0.687802 1.487565,0.805577 10.174942,0.805577 8.687377,0 10.174942,-0.117775 10.174942,-0.805577 z m 0,-15.574485 c 0,-0.687802 -1.487565,-0.805577 -10.174942,-0.805577 -8.687377,0 -10.174942,0.117775 -10.174942,0.805577 0,0.687803 1.487565,0.805577 10.174942,0.805577 8.687377,0 10.174942,-0.117774 10.174942,-0.805577 z m 4.150564,-5.504775 c 0.174572,-0.52582 -2.862471,-0.671314 -14.013118,-0.671314 -7.829796,0 -14.235993,0.201395 -14.235993,0.447543 0,0.246149 0.164636,0.612649 0.365858,0.814445 0.201222,0.201795 6.507125,0.302493 14.013117,0.22377 10.338446,-0.108427 13.701297,-0.305892 13.870136,-0.814444 z"
       id="path3102"
       inkscape:connector-curvature="0" />
    <path
       style="fill:#ffffff"
       d="m 20.636364,50.989416 c -1.4,-0.07227 -2.682311,-0.192678 -2.849579,-0.267578 -0.595969,-0.266865 -0.595969,-1.039611 0,-1.30763 0.467437,-0.210215 12.877963,-0.365522 20.349579,-0.254656 7.126021,0.105737 7.579783,0.164474 7.465578,0.966373 -0.119351,0.838042 -0.729913,0.886133 -11.965578,0.942468 -5.75,0.02883 -11.6,-0.0067 -13,-0.07898 z"
       id="path3104"
       inkscape:connector-curvature="0" />
    <path
       style="fill:#ffffff"
       d="m 20.727273,46.603721 c -1.75,-0.07011 -3.241428,-0.137434 -3.314284,-0.149617 -0.345502,-0.05777 0.34313,-0.942563 0.868561,-1.115971 1.170382,-0.386261 4.861503,-0.536625 13.172995,-0.536625 8.371548,0 12.001908,0.150131 13.20118,0.545927 0.595982,0.196691 1.128835,0.815111 0.899733,1.044213 -0.33906,0.339059 -17.911579,0.489157 -24.828185,0.212073 z"
       id="path3106"
       inkscape:connector-curvature="0" />
    <path
       style="fill:#ffffff"
       d="M 22.272727,41.226672 C 22.072727,41.18179 21.725,41.105786 21.5,41.057774 c -0.670197,-0.14301 -0.475684,-0.592166 0.363636,-0.839681 0.95504,-0.28164 17.451193,-0.315422 18.589948,-0.03807 0.787018,0.191684 1.045012,0.651592 0.509887,0.908937 -0.330198,0.158795 -18.016122,0.289102 -18.690744,0.137711 z"
       id="path3108"
       inkscape:connector-curvature="0" />
    <path
       style="fill:#ffffff"
       d="m 23.316147,25.722601 c -1.994051,-0.1401 -2.584869,-0.389426 -1.980439,-0.835747 0.18464,-0.136341 0.839185,-0.300781 1.454546,-0.365422 1.59601,-0.167654 17.780477,-0.02052 18.173217,0.165218 0.476453,0.225323 0.302894,0.693772 -0.327107,0.882893 -0.684009,0.205332 -14.80065,0.330081 -17.320217,0.153058 z"
       id="path3110"
       inkscape:connector-curvature="0" />
    <path
       style="fill:#ffffff"
       d="m 19.727273,20.314795 c -1.612929,-0.06181 -1.85654,-0.115579 -2.157963,-0.476261 l -0.339782,-0.40658 0.885236,-0.120626 c 1.751138,-0.238616 20.073998,-0.379257 23.59472,-0.181106 3.195218,0.179831 4.28134,0.382607 3.445181,0.643206 -1.201452,0.374448 -19.575319,0.76564 -25.427392,0.541367 z"
       id="path3112"
       inkscape:connector-curvature="0" />
  </g>
</svg>
