<?xml version="1.0" encoding="UTF-8" standalone="no"?>
<!-- Created with Inkscape (http://www.inkscape.org/) -->

<svg
   xmlns:dc="http://purl.org/dc/elements/1.1/"
   xmlns:cc="http://creativecommons.org/ns#"
   xmlns:rdf="http://www.w3.org/1999/02/22-rdf-syntax-ns#"
   xmlns:svg="http://www.w3.org/2000/svg"
   xmlns="http://www.w3.org/2000/svg"
   xmlns:sodipodi="http://sodipodi.sourceforge.net/DTD/sodipodi-0.dtd"
   xmlns:inkscape="http://www.inkscape.org/namespaces/inkscape"
   width="64px"
   height="64px"
   id="svg2985"
   version="1.1"
   inkscape:version="0.48.1 "
   sodipodi:docname="bb.svg">
  <defs
     id="defs2987" />
  <sodipodi:namedview
     id="base"
     pagecolor="#ffffff"
     bordercolor="#666666"
     borderopacity="1.0"
     inkscape:pageopacity="0.0"
     inkscape:pageshadow="2"
     inkscape:zoom="5.5"
     inkscape:cx="32"
     inkscape:cy="47.606768"
     inkscape:current-layer="layer1"
     showgrid="true"
     inkscape:document-units="px"
     inkscape:grid-bbox="true"
     inkscape:window-width="1365"
     inkscape:window-height="878"
     inkscape:window-x="-8"
     inkscape:window-y="-8"
     inkscape:window-maximized="1" />
  <metadata
     id="metadata2990">
    <rdf:RDF>
      <cc:Work
         rdf:about="">
        <dc:format>image/svg+xml</dc:format>
        <dc:type
           rdf:resource="http://purl.org/dc/dcmitype/StillImage" />
        <dc:title></dc:title>
      </cc:Work>
    </rdf:RDF>
  </metadata>
  <g
     id="layer1"
     inkscape:label="Layer 1"
     inkscape:groupmode="layer">
    <path
       style="fill:#000000"
       d="m 21.206208,53.707069 c 0.45164,-4.321054 1.79598,-6.734623 5.19968,-9.335272 3.133592,-2.394269 5.066224,-5.627263 5.641812,-9.437881 l 0.357804,-2.368799 -1.22209,1.270737 c -0.672149,0.698906 -2.457143,1.816937 -3.966653,2.484514 -1.963186,0.868214 -3.778395,2.3689 -6.375863,5.271114 C 16.617846,46.31 14.888891,46.998904 11.314748,45.38719 5.3602714,42.702096 4.5196035,37.580107 8.9795385,31.159316 c 3.5328845,-5.086153 4.5449085,-7.173461 4.5449085,-9.373911 0,-1.231769 0.630899,-3.104137 1.660914,-4.929223 1.317483,-2.334452 1.597075,-3.342199 1.352177,-4.873707 -0.360806,-2.2563571 0.244297,-4.9587179 1.180194,-5.2706833 0.680028,-0.2266763 4.324862,3.1534605 5.278223,4.8949053 0.749938,1.369865 2.637334,0.354065 3.089894,-1.6629852 0.182282,-0.8124285 0.781608,-2.0677283 1.331835,-2.7895548 1.267121,-1.6622995 2.133669,-1.0548384 3.704651,2.5970079 1.065199,2.4761221 1.226286,2.6045761 3.673476,2.9293181 9.188979,1.219376 16.374907,9.416511 19.681358,22.450931 1.207134,4.758667 2.418814,14.522797 2.422836,19.524039 l 0.0018,2.275974 -18.01632,0 -18.01632,0 0.337012,-3.224358 z M 53.938914,49.30022 c -0.666093,-11.704911 -2.58333,-20.484013 -5.65735,-25.905221 -1.658734,-2.925272 -5.264698,-6.565628 -7.785828,-7.860086 -1.503238,-0.771828 -7.663994,-2.249751 -7.894247,-1.893776 -0.06427,0.09936 -0.415662,0.874517 -0.780866,1.722557 -0.878622,2.04025 -1.406991,1.38944 -1.228495,-1.513178 0.139177,-2.263216 -1.060419,-5.6517089 -2.000821,-5.6517089 -0.790643,0 -1.678777,2.6880669 -1.678777,5.0810639 0,2.665401 -0.865414,3.689788 -1.381163,1.634879 -0.187835,-0.74839 -0.568345,-1.36071 -0.845579,-1.36071 -0.90018,0 -3.561383,1.566437 -3.781117,2.225641 -0.123639,0.370914 -0.50148,0.463852 -0.89558,0.220285 -0.507277,-0.313514 -0.299038,-0.820745 0.813831,-1.98233 l 1.495542,-1.561009 -2.309045,-2.262791 -2.309045,-2.2627905 0.263418,3.2131395 c 0.234695,2.862773 0.09522,3.480071 -1.279046,5.661101 -0.976117,1.549144 -1.704993,3.636398 -1.985117,5.68471 -0.353322,2.583545 -0.933452,3.926773 -2.874648,6.655936 -3.4061477,4.788763 -4.1912908,6.505467 -4.1912908,9.16419 0,2.692151 0.9982396,4.355615 3.3407118,5.566954 1.568229,0.810963 1.713342,0.802685 2.400604,-0.136939 0.402313,-0.550043 0.867631,-1.542295 1.034038,-2.205005 0.166408,-0.66271 0.637913,-1.204927 1.047789,-1.204927 0.927308,0 0.915405,0.439204 -0.05805,2.142093 -0.998955,1.747489 -0.986734,2.142093 0.06634,2.142093 0.478294,0 2.586917,-1.84371 4.685829,-4.097133 2.618535,-2.811298 4.671924,-4.478075 6.542834,-5.310948 3.277818,-1.459186 5.411801,-3.837696 5.867196,-6.539501 0.523394,-3.105225 0.804723,-3.86678 1.428448,-3.86678 0.893036,0 0.07732,8.361259 -1.234809,12.657047 -1.017211,3.330254 -1.517152,4.055691 -5.309662,7.704555 -3.437649,3.307443 -4.251434,4.409299 -4.548426,6.158518 -0.198939,1.171707 -0.477397,2.552101 -0.618795,3.067542 -0.240717,0.877487 0.77011,0.937166 15.873467,0.937166 l 16.130556,0 -0.342842,-6.024637 z M 9.2402602,39.065886 c 0,-0.966868 2.4510988,-3.958136 2.8871588,-3.523426 0.409294,0.408027 -1.49161,3.876292 -2.2660171,4.134428 -0.341628,0.113876 -0.6211417,-0.161075 -0.6211417,-0.611002 z M 17.017595,23.169777 c 0.748826,-1.44807 3.597867,-3.717617 4.673583,-3.722979 0.220903,-0.0011 0.401642,0.359477 0.401642,0.801283 0,0.441807 -0.303561,0.803285 -0.67458,0.803285 -0.40097,0 -0.672482,0.685258 -0.669405,1.689481 0.0062,2.027595 -1.084208,2.616955 -1.635067,0.883734 l -0.392325,-1.234407 -0.53824,1.204928 c -0.296032,0.66271 -0.869081,1.204927 -1.273443,1.204927 -0.599638,0 -0.579754,-0.300601 0.107835,-1.630252 z"
       id="path3260"
       inkscape:connector-curvature="0" />
    <path
       style="fill:#ffffff"
       d="m 24.599895,55.099102 c -1.064276,-0.06075 -1.94787,-0.199134 -2.073394,-0.32472 -0.314018,-0.314167 0.421568,-3.855603 1.065982,-5.132109 0.35055,-0.694396 1.50491,-2.02272 3.890841,-4.477196 3.601005,-3.704456 4.117554,-4.369411 4.797476,-6.175796 1.044082,-2.773868 2.080909,-8.717375 2.082156,-11.935724 7.44e-4,-1.920971 -0.08466,-2.333053 -0.483541,-2.333053 -0.38348,0 -0.89492,1.309318 -1.240408,3.175528 -0.165974,0.89654 -0.504083,2.057721 -0.751351,2.580401 -0.863109,1.824464 -2.679329,3.451846 -5.342201,4.786755 -1.877822,0.94136 -2.781277,1.680749 -6.461235,5.287878 -3.274087,3.209291 -4.230321,3.98762 -4.899079,3.98762 -0.550103,0 -0.479677,-0.522613 0.278553,-2.067069 0.802236,-1.634095 0.828521,-2.114749 0.115646,-2.114749 -0.558851,0 -0.917012,0.412216 -1.379021,1.587153 -0.527172,1.340652 -1.131542,2.220376 -1.611606,2.345861 -0.600556,0.156984 -2.337627,-0.755521 -3.3329346,-1.750829 -1.3734922,-1.373492 -1.8765598,-3.570609 -1.3681073,-5.975127 0.3490031,-1.650467 1.2610602,-3.36598 3.7982219,-7.144184 2.162919,-3.2209 2.478169,-3.940614 3.124681,-7.133626 0.528803,-2.611668 0.903066,-3.655782 1.994996,-5.565612 1.29372,-2.26277 1.405711,-2.970587 1.104528,-6.9810112 l -0.124317,-1.6553521 2.187516,2.1685003 2.187516,2.168501 -0.33732,0.467863 c -0.185526,0.257325 -0.637781,0.754227 -1.00501,1.104227 -0.874853,0.833807 -1.202926,1.462568 -0.975334,1.869252 0.270402,0.483182 0.683926,0.37495 1.41081,-0.369252 0.816886,-0.836349 2.296834,-1.655247 3.113131,-1.722586 0.588952,-0.04858 0.621819,-0.01484 1.05813,1.086222 0.746149,1.882967 1.245891,1.463512 1.501015,-1.259864 0.29962,-3.198374 0.922872,-5.2401361 1.599561,-5.2401361 0.96722,0 1.842986,2.3975401 1.959211,5.3636361 0.0431,1.1 0.116804,2.184091 0.16378,2.409091 0.166362,0.7968 0.629651,0.431026 1.313724,-1.037206 0.485627,-1.042305 0.769311,-1.448601 1.015596,-1.454545 0.605184,-0.01461 4.503157,0.919583 6.092213,1.460062 2.063549,0.701866 3.187393,1.485138 5.568115,3.880741 3.57543,3.59778 5.188018,6.694908 6.817492,13.093646 1.381097,5.423393 2.079037,10.96156 2.653715,21.057302 l 0.121607,2.136364 -13.888351,-0.03049 C 32.704304,55.218702 25.619953,55.15733 24.599895,55.099102 l 0,0 z M 10.716709,38.917157 c 0.989513,-1.389642 1.767151,-3.46938 1.297241,-3.46938 -0.66978,0 -2.7412227,2.75772 -2.7412227,3.6494 0,0.890269 0.7482977,0.79698 1.4439817,-0.18002 z m 6.770655,-14.365261 c 0.245022,-0.192734 0.596979,-0.686357 0.782126,-1.09694 0.3711,-0.822953 0.490624,-0.790431 0.814016,0.22149 0.120089,0.375767 0.384973,0.772391 0.58863,0.881385 0.588739,0.315083 0.905543,-0.18351 1.129242,-1.777223 0.170375,-1.213822 0.261173,-1.446101 0.638465,-1.633317 0.579894,-0.287749 0.77824,-0.673538 0.636544,-1.238097 -0.165724,-0.660297 -0.725835,-0.593794 -2.002744,0.237792 -2.012368,1.310554 -4.0125,3.89905 -3.4948,4.52284 0.258126,0.311023 0.383962,0.294689 0.908521,-0.11793 l 0,0 z"
       id="path3262"
       inkscape:connector-curvature="0" />
  </g>
</svg>
