<?xml version="1.0" encoding="UTF-8" standalone="no"?>
<!-- Created with Inkscape (http://www.inkscape.org/) -->

<svg
   xmlns:dc="http://purl.org/dc/elements/1.1/"
   xmlns:cc="http://creativecommons.org/ns#"
   xmlns:rdf="http://www.w3.org/1999/02/22-rdf-syntax-ns#"
   xmlns:svg="http://www.w3.org/2000/svg"
   xmlns="http://www.w3.org/2000/svg"
   xmlns:sodipodi="http://sodipodi.sourceforge.net/DTD/sodipodi-0.dtd"
   xmlns:inkscape="http://www.inkscape.org/namespaces/inkscape"
   width="64px"
   height="64px"
   id="svg2985"
   version="1.1"
   inkscape:version="0.48.1 "
   sodipodi:docname="br.svg">
  <defs
     id="defs2987" />
  <sodipodi:namedview
     id="base"
     pagecolor="#ffffff"
     bordercolor="#666666"
     borderopacity="1.0"
     inkscape:pageopacity="0.0"
     inkscape:pageshadow="2"
     inkscape:zoom="5.5"
     inkscape:cx="32"
     inkscape:cy="39.531683"
     inkscape:current-layer="layer1"
     showgrid="true"
     inkscape:document-units="px"
     inkscape:grid-bbox="true"
     inkscape:window-width="1365"
     inkscape:window-height="878"
     inkscape:window-x="-8"
     inkscape:window-y="-8"
     inkscape:window-maximized="1" />
  <metadata
     id="metadata2990">
    <rdf:RDF>
      <cc:Work
         rdf:about="">
        <dc:format>image/svg+xml</dc:format>
        <dc:type
           rdf:resource="http://purl.org/dc/dcmitype/StillImage" />
        <dc:title></dc:title>
      </cc:Work>
    </rdf:RDF>
  </metadata>
  <g
     id="layer1"
     inkscape:label="Layer 1"
     inkscape:groupmode="layer">
    <path
       style="fill:#000000"
       d="m 14.146293,50.703645 c 0,-3.931483 0.21534,-5.156443 1.250933,-7.115928 1.418602,-2.68419 5.377602,-5.922908 8.493702,-6.948396 l 2.098667,-0.690658 -2.077297,-1.773045 c -1.142514,-0.975175 -2.384391,-2.512331 -2.759728,-3.415903 -1.551675,-3.735449 0.732643,-8.740327 4.807473,-10.533038 l 2.126295,-0.935457 -1.045653,-1.325561 c -0.63584,-0.806046 -1.045652,-2.160149 -1.045652,-3.455044 0,-2.959367 2.76039,-5.7814323 5.65508,-5.7814323 2.89469,0 5.655081,2.8220653 5.655081,5.7814323 0,1.294895 -0.409813,2.648998 -1.045653,3.455044 l -1.045652,1.325561 2.126294,0.935457 c 5.906746,2.598657 6.987461,9.562958 2.158982,13.912823 l -2.054577,1.850921 1.997711,0.596832 c 2.934094,0.876582 6.312579,3.527149 8.121802,6.371905 1.467184,2.306947 1.589833,2.885278 1.589833,7.496637 l 0,4.996842 -17.503821,0 -17.50382,0 0,-4.748992 z m 33.921623,-0.755783 c -0.0069,-3.030868 -0.276093,-4.364088 -1.214888,-6.016849 -1.575965,-2.774507 -5.068211,-5.386091 -8.749827,-6.543325 -3.124589,-0.982146 -3.799436,-2.014547 -1.665883,-2.548516 1.796388,-0.449585 4.517298,-3.709132 4.93077,-5.906874 0.233933,-1.243436 0.0432,-2.475179 -0.588988,-3.803636 -0.95558,-2.008024 -4.128273,-4.584353 -5.64553,-4.584353 -1.911037,0 -2.127304,-1.189254 -0.493089,-2.711508 2.140795,-1.994129 2.145592,-4.333378 0.01324,-6.459674 -2.042827,-2.0370313 -3.964402,-2.0370313 -6.007229,0 -2.143331,2.137253 -2.128464,4.46469 0.04143,6.485926 0.888656,0.827774 1.615737,1.640053 1.615737,1.805066 0,0.165012 -1.012681,0.602568 -2.250402,0.972347 -4.535475,1.355006 -7.331106,5.956923 -5.82354,9.586186 0.758285,1.825466 3.946544,4.822039 5.130498,4.822039 1.910323,0 0.528183,1.497021 -2.163196,2.342997 -3.681615,1.157234 -7.173862,3.768818 -8.749827,6.543325 -0.938795,1.652761 -1.20799,2.985981 -1.214887,6.016849 l -0.0089,3.893621 16.426662,0 16.426663,0 -0.0089,-3.893621 z"
       id="path3125"
       inkscape:connector-curvature="0" />
    <path
       style="fill:#ffffff"
       d="m 15.319428,50.204681 c 0.101768,-3.799493 0.27423,-4.642196 1.315238,-6.426644 1.286185,-2.20472 4.367931,-4.657765 7.316682,-5.824025 2.609682,-1.032153 3.707102,-1.583689 4.070575,-2.045771 0.420539,-0.534629 0.18283,-0.930833 -0.558468,-0.930833 -0.700828,0 -1.955329,-0.891761 -3.412477,-2.425761 -1.804691,-1.89987 -2.113536,-2.62361 -2.014601,-4.720961 0.09386,-1.989748 0.514199,-2.960035 1.974515,-4.557854 1.057568,-1.157148 2.505383,-2.029018 4.576195,-2.755773 0.772898,-0.271249 1.491965,-0.597643 1.597927,-0.72532 0.14489,-0.174582 -0.121508,-0.570968 -1.074428,-1.598694 -1.598011,-1.723457 -1.910298,-2.308811 -1.909547,-3.579273 7.63e-4,-1.293827 0.484632,-2.221687 1.772297,-3.398541 1.870199,-1.7092564 3.461409,-1.7041809 5.344708,0.01705 1.12336,1.026687 1.859218,2.372236 1.861998,3.404743 0.0026,0.963457 -0.430946,1.848417 -1.464824,2.990061 -1.776327,1.961483 -1.616083,2.741992 0.627215,3.054998 1.736765,0.24233 4.807912,2.973533 5.57214,4.95536 0.620194,1.60832 0.580031,3.122782 -0.122388,4.614778 -1.02077,2.168209 -2.832318,4.016568 -4.464523,4.555244 -0.377324,0.124527 -0.820787,0.375305 -0.985477,0.557285 -0.280867,0.310355 -0.265567,0.362155 0.24675,0.835402 0.315685,0.291611 1.502032,0.869226 2.811138,1.3687 5.298334,2.021522 8.870763,5.597489 9.42556,9.434895 0.09188,0.635514 0.1687,2.403209 0.170711,3.928209 L 48,53.704681 l -16.387159,0 -16.38716,0 0.09375,-3.5 z"
       id="path3127"
       inkscape:connector-curvature="0" />
  </g>
</svg>
