<?xml version="1.0" encoding="UTF-8" standalone="no"?>
<!-- Created with Inkscape (http://www.inkscape.org/) -->

<svg
   xmlns:dc="http://purl.org/dc/elements/1.1/"
   xmlns:cc="http://creativecommons.org/ns#"
   xmlns:rdf="http://www.w3.org/1999/02/22-rdf-syntax-ns#"
   xmlns:svg="http://www.w3.org/2000/svg"
   xmlns="http://www.w3.org/2000/svg"
   xmlns:sodipodi="http://sodipodi.sourceforge.net/DTD/sodipodi-0.dtd"
   xmlns:inkscape="http://www.inkscape.org/namespaces/inkscape"
   width="64px"
   height="64px"
   id="svg2985"
   version="1.1"
   inkscape:version="0.48.1 "
   sodipodi:docname="wq.svg">
  <defs
     id="defs2987" />
  <sodipodi:namedview
     id="base"
     pagecolor="#ffffff"
     bordercolor="#666666"
     borderopacity="1.0"
     inkscape:pageopacity="0.0"
     inkscape:pageshadow="2"
     inkscape:zoom="5.5"
     inkscape:cx="10.272727"
     inkscape:cy="32"
     inkscape:current-layer="layer1"
     showgrid="true"
     inkscape:document-units="px"
     inkscape:grid-bbox="true"
     inkscape:window-width="1365"
     inkscape:window-height="878"
     inkscape:window-x="-8"
     inkscape:window-y="-8"
     inkscape:window-maximized="1" />
  <metadata
     id="metadata2990">
    <rdf:RDF>
      <cc:Work
         rdf:about="">
        <dc:format>image/svg+xml</dc:format>
        <dc:type
           rdf:resource="http://purl.org/dc/dcmitype/StillImage" />
        <dc:title></dc:title>
      </cc:Work>
    </rdf:RDF>
  </metadata>
  <g
     id="layer1"
     inkscape:label="Layer 1"
     inkscape:groupmode="layer">
    <text
       xml:space="preserve"
       style="font-size:64px;font-style:normal;font-variant:normal;font-weight:normal;font-stretch:normal;line-height:125%;letter-spacing:0px;word-spacing:0px;fill:#000000;fill-opacity:1;stroke:none;font-family:Traveller Standard;-inkscape-font-specification:Traveller Standard"
       x="-1.78125"
       y="61.734375"
       id="text3035"
       sodipodi:linespacing="125%"><tspan
         sodipodi:role="line"
         id="tspan3037"
         x="-1.78125"
         y="61.734375">r</tspan></text>
    <path
       style="fill:#ffffff;fill-opacity:1;fill-rule:evenodd"
       d="m 10.672727,56.2371 0,-0.455282 21.830828,0 21.830827,0 -0.0581,0.409091 -0.0581,0.409091 -21.772727,0.04619 -21.772728,0.04619 0,-0.455281 z"
       id="path3039"
       inkscape:connector-curvature="0" />
    <path
       style="fill:#ffffff;fill-opacity:1;fill-rule:evenodd"
       d="m 14.672727,50.418182 0,-0.636364 17.545455,0 17.545454,0 0,0.636364 0,0.636363 -17.545454,0 -17.545455,0 0,-0.636363 z"
       id="path3041"
       inkscape:connector-curvature="0" />
    <path
       style="fill:#ffffff;fill-opacity:1;fill-rule:evenodd"
       d="m 19.539232,45.231034 0.593778,-0.540125 12.230657,0 12.230657,0 0.322209,0.545455 0.322207,0.545454 -13.146643,-0.0053 -13.146642,-0.0053 0.593777,-0.540125 z"
       id="path3043"
       inkscape:connector-curvature="0" />
    <path
       style="fill:#ffffff;fill-opacity:1;fill-rule:evenodd"
       d="m 21.218182,16.679877 c -4.930633,-0.954426 -2.877523,-1.125336 12.581939,-1.047375 8.20575,0.04138 11.641015,0.117519 11.784599,0.261188 0.149038,0.149127 -0.0049,0.293448 -0.58194,0.545454 -0.737889,0.322274 -1.444864,0.344354 -11.875507,0.370891 -6.1,0.01552 -11.459091,-0.04305 -11.909091,-0.130158 z"
       id="path3045"
       inkscape:connector-curvature="0" />
    <path
       style="fill:#ffffff;fill-opacity:1;fill-rule:evenodd"
       d="m 15.218182,12.418182 0,-0.636364 17.090909,0 17.090909,0 0,0.636364 0,0.636363 -17.090909,0 -17.090909,0 0,-0.636363 z"
       id="path3047"
       inkscape:connector-curvature="0" />
  </g>
</svg>
