<?xml version="1.0" encoding="UTF-8" standalone="no"?>
<!-- Created with Inkscape (http://www.inkscape.org/) -->

<svg
   xmlns:dc="http://purl.org/dc/elements/1.1/"
   xmlns:cc="http://creativecommons.org/ns#"
   xmlns:rdf="http://www.w3.org/1999/02/22-rdf-syntax-ns#"
   xmlns:svg="http://www.w3.org/2000/svg"
   xmlns="http://www.w3.org/2000/svg"
   xmlns:sodipodi="http://sodipodi.sourceforge.net/DTD/sodipodi-0.dtd"
   xmlns:inkscape="http://www.inkscape.org/namespaces/inkscape"
   width="64px"
   height="64px"
   id="svg2985"
   version="1.1"
   inkscape:version="0.48.1 "
   sodipodi:docname="bq.svg">
  <defs
     id="defs2987" />
  <sodipodi:namedview
     id="base"
     pagecolor="#ffffff"
     bordercolor="#666666"
     borderopacity="1.0"
     inkscape:pageopacity="0.0"
     inkscape:pageshadow="2"
     inkscape:zoom="5.5"
     inkscape:cx="10.272727"
     inkscape:cy="32"
     inkscape:current-layer="layer1"
     showgrid="true"
     inkscape:document-units="px"
     inkscape:grid-bbox="true"
     inkscape:window-width="1365"
     inkscape:window-height="878"
     inkscape:window-x="-8"
     inkscape:window-y="-8"
     inkscape:window-maximized="1" />
  <metadata
     id="metadata2990">
    <rdf:RDF>
      <cc:Work
         rdf:about="">
        <dc:format>image/svg+xml</dc:format>
        <dc:type
           rdf:resource="http://purl.org/dc/dcmitype/StillImage" />
        <dc:title></dc:title>
      </cc:Work>
    </rdf:RDF>
  </metadata>
  <g
     id="layer1"
     inkscape:label="Layer 1"
     inkscape:groupmode="layer">
    <path
       style="fill:#ffffff;fill-opacity:1;fill-rule:evenodd"
       d="m 18.740909,54.85 c 0.0625,-0.3125 0.113636,-0.833122 0.113636,-1.156937 l 0,-0.588755 1.5,-0.294219 c 6.277253,-1.231259 12.706058,-1.482967 19.018035,-0.744615 2.401876,0.280962 5.851893,0.92894 6.066231,1.139351 0.07135,0.07004 0.183904,0.588346 0.250125,1.151793 l 0.120404,1.024449 -1.068305,-0.252579 c -2.051048,-0.484927 -6.002068,-0.978745 -9.23488,-1.154221 -4.834542,-0.262416 -10.01805,0.119051 -14.833428,1.091629 -0.95,0.191875 -1.798863,0.349633 -1.886363,0.350574 -0.0875,9.42e-4 -0.107955,-0.25397 -0.04546,-0.56647 z"
       id="path2997"
       inkscape:connector-curvature="0" />
    <path
       style="fill:#ffffff;fill-opacity:1;fill-rule:evenodd"
       d="m 18.854545,49.044359 0,-1.066707 0.747945,-0.2014 c 4.062805,-1.094 7.307069,-1.504788 11.888419,-1.505309 4.326041,-4.91e-4 6.913489,0.249487 11.2132,1.083327 2.158395,0.418577 2.499431,0.532401 2.588426,0.863913 0.148387,0.552749 0.13031,1.381817 -0.03013,1.381817 -0.07568,0 -1.03704,-0.201992 -2.136363,-0.44887 -4.699658,-1.055419 -9.714857,-1.426987 -13.818574,-1.023797 -2.654869,0.260841 -6.888738,1.003128 -8.938841,1.567168 l -1.514082,0.416565 0,-1.066707 z"
       id="path2999"
       inkscape:connector-curvature="0" />
    <text
       xml:space="preserve"
       style="font-size:64px;font-style:normal;font-variant:normal;font-weight:normal;font-stretch:normal;line-height:125%;letter-spacing:0px;word-spacing:0px;fill:#000000;fill-opacity:1;stroke:none;font-family:Traveller Standard;-inkscape-font-specification:Traveller Standard"
       x="-0.296875"
       y="61.375"
       id="text3003"
       sodipodi:linespacing="125%"><tspan
         sodipodi:role="line"
         id="tspan3005"
         x="-0.296875"
         y="61.375">Q</tspan></text>
    <path
       style="fill:#ffffff;fill-opacity:1;fill-rule:evenodd"
       d="M 24.469052,58.141137 C 21.450408,57.911188 19.634081,57.595473 19.31754,57.2457 c -1.265291,-1.398131 3.431424,-2.389796 11.355187,-2.397536 6.980424,-0.0068 14.312024,0.881633 15.178773,1.83938 0.758125,0.837719 -0.6718,1.110231 -7.633318,1.454741 -4.075727,0.201698 -11.093973,0.201112 -13.74913,-0.0011 l 0,-2e-6 z"
       id="path3007"
       inkscape:connector-curvature="0" />
    <path
       style="fill:#ffffff;fill-opacity:1;fill-rule:evenodd"
       d="m 19.282185,53.554545 c 0.06306,-0.525 0.115365,-1.293403 0.116235,-1.707562 L 19.4,51.093966 21.445455,50.712751 c 4.194054,-0.781653 6.591913,-0.992676 11.318181,-0.996055 4.635489,-0.0033 6.611366,0.154531 10.206029,0.815319 l 2.024213,0.3721 0.110151,0.666124 c 0.06058,0.366369 0.111051,1.183002 0.112151,1.814741 0.0018,1.008823 -0.03672,1.137236 -0.31618,1.055111 -0.758924,-0.223025 -3.216578,-0.666537 -5.318198,-0.95973 -1.677431,-0.234014 -3.534716,-0.31909 -7.090893,-0.324807 -5.003748,-0.008 -7.245132,0.192669 -11.247287,1.007182 -0.936008,0.190495 -1.786041,0.346355 -1.888962,0.346355 -0.119091,0 -0.145442,-0.347066 -0.07248,-0.954546 z"
       id="path3009"
       inkscape:connector-curvature="0" />
    <path
       style="fill:#ffffff;fill-opacity:1;fill-rule:evenodd"
       d="m 19.4,48.128759 0,-1.420758 0.681818,-0.194279 c 1.729908,-0.492926 6.177745,-1.281126 8.318182,-1.474064 2.707361,-0.244039 7.321225,-0.116228 10.351769,0.28676 3.178807,0.422704 5.804171,0.99593 6.057322,1.322565 0.130167,0.167952 0.227273,0.81516 0.227273,1.514766 l 0,1.221519 -0.954546,-0.257821 c -1.799322,-0.485992 -5.682413,-1.140828 -8.045454,-1.356768 -4.185445,-0.382473 -9.772153,0.101793 -14.5,1.256888 L 19.4,49.549517 l 0,-1.420758 z"
       id="path3011"
       inkscape:connector-curvature="0" />
    <path
       style="fill:#ffffff;fill-opacity:1;fill-rule:evenodd"
       d="m 19.4,43.646288 0,-1.453711 1.954545,-0.561541 c 3.30323,-0.949018 5.803312,-1.355918 9.772728,-1.590559 3.530263,-0.208681 9.501005,0.450591 12.516771,1.382066 l 1.210501,0.373886 0,1.468446 c 0,1.435358 -0.0092,1.46588 -0.40909,1.35458 -0.790293,-0.219967 -4.79006,-0.984708 -6.409091,-1.225394 C 35.713383,43.048726 30.532386,43.09541 27.854545,43.485805 26.068649,43.746167 22.719674,44.380116 19.9,44.991573 L 19.4,45.1 l 0,-1.453712 z"
       id="path3013"
       inkscape:connector-curvature="0" />
    <path
       style="fill:#ffffff;fill-opacity:1;fill-rule:evenodd"
       d="m 45.309091,40.134166 c -1.314158,-0.177624 -3.181818,-0.733469 -3.181818,-0.946958 0,-0.344402 1.961689,-3.131457 4.444495,-6.314481 1.365026,-1.75 3.009798,-3.954843 3.655049,-4.899651 C 50.872067,27.028268 51.4,26.333748 51.4,26.4297 c 0,0.09595 -0.641449,1.891703 -1.425443,3.99056 -1.625551,4.351817 -2.840004,7.833289 -3.116398,8.933772 -0.221728,0.882832 -0.341814,0.943309 -1.549068,0.780134 z"
       id="path3015"
       inkscape:connector-curvature="0" />
    <path
       style="fill:#ffffff;fill-opacity:1;fill-rule:evenodd"
       d="M 38.526477,38.511213 C 37.29604,38.332504 36.24651,38.14348 36.194189,38.091159 c -0.05232,-0.05232 1.523693,-4.108126 3.502254,-9.012898 1.97856,-4.904773 3.622159,-8.892992 3.652442,-8.86271 0.115986,0.115987 -1.440392,16.674132 -1.698134,18.066267 -0.128452,0.6938 0.0055,0.683966 -3.124274,0.229395 z"
       id="path3017"
       inkscape:connector-curvature="0" />
    <path
       style="fill:#ffffff;fill-opacity:1;fill-rule:evenodd"
       d="m 30.172727,37.829593 c -0.582959,-0.04078 -0.954587,-0.151553 -0.954653,-0.284549 -2.32e-4,-0.467475 3.116428,-21.142969 3.225811,-21.399589 0.07613,-0.178598 0.138568,-0.08447 0.180917,0.272727 0.03557,0.3 0.350994,3 0.700948,6 0.641475,5.49907 1.821331,14.378936 2.011149,15.136363 0.10234,0.408362 0.09868,0.409031 -2.053552,0.375459 -1.185841,-0.0185 -2.58562,-0.06368 -3.11062,-0.100411 z"
       id="path3019"
       inkscape:connector-curvature="0" />
    <path
       style="fill:#ffffff;fill-opacity:1;fill-rule:evenodd"
       d="M 22.790562,37.79078 C 22.69029,36.69954 22.269765,28.172233 22.045911,22.690909 l -0.09282,-2.272727 1.151612,3.272727 c 0.633387,1.8 1.625102,4.5 2.203811,6 1.107622,2.870932 2.837378,7.951075 2.740333,8.04812 -0.03138,0.03137 -1.202707,0.323781 -2.602958,0.649789 L 22.89998,38.98156 22.790562,37.79078 z"
       id="path3021"
       inkscape:connector-curvature="0" />
    <path
       style="fill:#ffffff;fill-opacity:1;fill-rule:evenodd"
       d="m 17.914527,38.975576 c -0.355532,-1.106567 -1.303329,-3.689212 -2.106215,-5.739212 -1.464856,-3.740201 -2.482372,-6.713819 -2.344514,-6.851677 0.04061,-0.04061 0.300484,0.318492 0.577494,0.798009 0.277009,0.479517 1.824117,2.835486 3.438016,5.235486 3.148592,4.682211 4.528359,6.827144 4.434147,6.893151 -0.0324,0.0227 -0.386182,0.135699 -0.786182,0.251109 -0.4,0.11541 -1.141059,0.483265 -1.646798,0.817455 l -0.919525,0.607618 -0.646423,-2.011939 z"
       id="path3023"
       inkscape:connector-curvature="0" />
    <path
       style="fill:#ffffff;fill-opacity:1;fill-rule:evenodd"
       d="M 8.4909091,17.65283 C 7.5961767,17.323843 7.3352419,16.422404 7.8478209,15.431186 c 0.3097598,-0.59901 0.6021688,-0.740277 1.5322987,-0.740277 0.9364584,0 1.2707794,0.310201 1.4050904,1.303716 0.101591,0.751482 0.06084,0.903125 -0.354215,1.318182 -0.4578221,0.457822 -1.2446637,0.595725 -1.9400859,0.340023 z"
       id="path3025"
       inkscape:connector-curvature="0" />
    <path
       style="fill:#ffffff;fill-opacity:1;fill-rule:evenodd"
       d="M 19.368183,12.512155 C 18.62431,12.053714 18.521987,10.15441 19.221007,9.780306 c 0.603188,-0.3228161 1.960031,-0.2174495 2.360811,0.1833304 0.527993,0.5279926 0.490631,1.6354896 -0.07304,2.1650286 -0.487986,0.458439 -1.67417,0.670944 -2.140598,0.38349 l 0,0 z"
       id="path3027"
       inkscape:connector-curvature="0" />
    <path
       style="fill:#ffffff;fill-opacity:1;fill-rule:evenodd"
       d="M 31.101554,9.3372315 C 30.030988,8.8713949 29.848682,7.0794597 30.796041,6.3342668 31.500822,5.779886 32.392153,5.6820585 33.242939,6.0657092 c 1.18596,0.5347936 1.543154,1.4147776 1.030755,2.5393712 -0.420875,0.9237191 -1.930915,1.2722464 -3.17214,0.7321511 l 0,0 z"
       id="path3029"
       inkscape:connector-curvature="0" />
    <path
       style="fill:#ffffff;fill-opacity:1;fill-rule:evenodd"
       d="m 44.548249,13.053276 c -0.535711,-0.215843 -0.784613,-0.733614 -0.784613,-1.63217 0,-0.841752 0.384109,-1.7202866 0.826328,-1.8899821 0.975856,-0.3744709 2.052976,0.041371 2.538347,0.9799751 0.866676,1.675967 -0.757651,3.276444 -2.580062,2.542177 z"
       id="path3031"
       inkscape:connector-curvature="0" />
    <path
       style="fill:#ffffff;fill-opacity:1;fill-rule:evenodd"
       d="m 54.393688,19.608814 c -0.607291,-0.246159 -0.855377,-0.689273 -0.84419,-1.507831 0.0089,-0.649572 0.115823,-0.870196 0.666549,-1.375074 0.535347,-0.490779 0.778671,-0.591082 1.323206,-0.545454 0.892854,0.07481 1.539183,0.979587 1.460178,2.044053 -0.04417,0.595081 -0.166259,0.802688 -0.671773,1.142284 -0.633595,0.425639 -1.281075,0.506666 -1.93397,0.242022 l 0,0 z"
       id="path3033"
       inkscape:connector-curvature="0" />
  </g>
</svg>
