<?xml version="1.0" encoding="UTF-8" standalone="no"?>
<!-- Created with Inkscape (http://www.inkscape.org/) -->

<svg
   xmlns:dc="http://purl.org/dc/elements/1.1/"
   xmlns:cc="http://creativecommons.org/ns#"
   xmlns:rdf="http://www.w3.org/1999/02/22-rdf-syntax-ns#"
   xmlns:svg="http://www.w3.org/2000/svg"
   xmlns="http://www.w3.org/2000/svg"
   xmlns:sodipodi="http://sodipodi.sourceforge.net/DTD/sodipodi-0.dtd"
   xmlns:inkscape="http://www.inkscape.org/namespaces/inkscape"
   width="64px"
   height="64px"
   id="svg2985"
   version="1.1"
   inkscape:version="0.48.1 "
   sodipodi:docname="Bookup.svg">
  <defs
     id="defs2987" />
  <sodipodi:namedview
     id="base"
     pagecolor="#ffffff"
     bordercolor="#666666"
     borderopacity="1.0"
     inkscape:pageopacity="0.0"
     inkscape:pageshadow="2"
     inkscape:zoom="5.5"
     inkscape:cx="10.272727"
     inkscape:cy="32"
     inkscape:current-layer="layer1"
     showgrid="true"
     inkscape:document-units="px"
     inkscape:grid-bbox="true"
     inkscape:window-width="1365"
     inkscape:window-height="878"
     inkscape:window-x="-8"
     inkscape:window-y="-8"
     inkscape:window-maximized="1" />
  <metadata
     id="metadata2990">
    <rdf:RDF>
      <cc:Work
         rdf:about="">
        <dc:format>image/svg+xml</dc:format>
        <dc:type
           rdf:resource="http://purl.org/dc/dcmitype/StillImage" />
        <dc:title></dc:title>
      </cc:Work>
    </rdf:RDF>
  </metadata>
  <g
     id="layer1"
     inkscape:label="Layer 1"
     inkscape:groupmode="layer">
    <path
       style="fill:#000000"
       d="m 7.8771446,56.629524 c -2.2786964,-2.385223 -2.3001498,-2.48945 -0.8444484,-4.102565 1.3145355,-1.456683 2.5086309,-1.655164 9.9577488,-1.655164 5.097279,0 8.464101,-0.326381 8.464101,-0.820513 0,-0.451282 -0.736364,-0.820513 -1.636364,-0.820513 -1.2,0 -1.636363,-0.547009 -1.636363,-2.051282 0,-1.55909 -0.426856,-2.051282 -1.778984,-2.051282 l -1.778985,0 1.778985,-1.899037 c 2.435349,-2.599696 2.32442,-6.649907 -0.26671,-9.738063 -4.568507,-5.444832 -3.74928,-9.203507 3.524943,-16.172713 3.20346,-3.069135 5.050941,-5.39555 4.452569,-5.606837 C 26.723241,11.220603 26.818987,7.540096 28.25974,6.0952381 28.902598,5.4505494 30.585715,4.9230769 32,4.9230769 c 1.414285,0 3.097402,0.5274725 3.74026,1.1721612 1.440754,1.4448579 1.536499,5.1253649 0.146104,5.6163169 -0.598373,0.211287 1.249108,2.537702 4.452569,5.606837 7.274223,6.969206 8.093449,10.727881 3.524942,16.172713 -2.59113,3.088156 -2.702058,7.138367 -0.266709,9.738063 l 1.778984,1.899037 -1.778984,0 c -1.352129,0 -1.778984,0.492192 -1.778984,2.051282 0,1.504273 -0.436364,2.051282 -1.636364,2.051282 -0.9,0 -1.636363,0.369231 -1.636363,0.820513 0,0.494132 3.366821,0.820513 8.4641,0.820513 7.449118,0 8.643214,0.198481 9.957749,1.655164 1.455701,1.613115 1.434248,1.717342 -0.844448,4.102565 l -2.338096,2.447399 -10.074198,0 c -6.170677,0 -10.074198,-0.31793 -10.074198,-0.820513 0,-0.451282 -0.736364,-0.820513 -1.636364,-0.820513 -0.9,0 -1.636363,0.369231 -1.636363,0.820513 0,0.502583 -3.903521,0.820513 -10.074198,0.820513 l -10.074198,0 -2.3380964,-2.447399 z M 38.545455,45.948718 c 0,-0.478632 -2.727273,-0.820513 -6.545455,-0.820513 -3.818182,0 -6.545454,0.341881 -6.545454,0.820513 0,0.478632 2.727272,0.820513 6.545454,0.820513 3.818182,0 6.545455,-0.341881 6.545455,-0.820513 z m 0,-6.564103 c 0,-0.478632 -2.727273,-0.820513 -6.545455,-0.820513 -3.818182,0 -6.545454,0.341881 -6.545454,0.820513 0,0.478632 2.727272,0.820513 6.545454,0.820513 3.818182,0 6.545455,-0.341881 6.545455,-0.820513 z m -4.909091,-9.025641 c 0,-1.094017 0.545455,-1.641025 1.636363,-1.641025 1.090909,0 1.636364,-0.547009 1.636364,-1.641026 0,-1.094017 -0.545455,-1.641026 -1.636364,-1.641026 -1.090908,0 -1.636363,-0.547009 -1.636363,-1.641025 0,-1.094017 -0.545455,-1.641026 -1.636364,-1.641026 -1.090909,0 -1.636363,0.547009 -1.636363,1.641026 0,1.094016 -0.545455,1.641025 -1.636364,1.641025 -1.090909,0 -1.636364,0.547009 -1.636364,1.641026 0,1.094017 0.545455,1.641026 1.636364,1.641026 1.090909,0 1.636364,0.547008 1.636364,1.641025 C 30.363637,31.452991 30.909091,32 32,32 c 1.090909,0 1.636364,-0.547009 1.636364,-1.641026 z"
       id="path3017"
       inkscape:connector-curvature="0" />
    <path
       style="fill:#ffffff;fill-opacity:1;fill-rule:evenodd"
       d="m 27.581818,46.504642 c -1.562009,-0.215543 -2,-0.332096 -2,-0.532217 0,-0.800626 10.220245,-1.019509 12.583338,-0.269492 0.574624,0.182378 0.350893,0.40665 -0.628792,0.630309 -1.182115,0.269874 -8.346909,0.393239 -9.954546,0.1714 z"
       id="path3019"
       inkscape:connector-curvature="0" />
    <path
       style="fill:#ffffff;fill-opacity:1;fill-rule:evenodd"
       d="m 28.309091,40.01801 c -1.250356,-0.09768 -2.727273,-0.424857 -2.727273,-0.604173 0,-0.384459 1.618292,-0.586546 5.390816,-0.673187 5.03031,-0.115527 8.281437,0.256306 7.217869,0.82551 -0.839947,0.449526 -6.561818,0.711171 -9.881412,0.45185 z"
       id="path3021"
       inkscape:connector-curvature="0" />
    <path
       style="fill:#ffffff;fill-opacity:1;fill-rule:evenodd"
       d="m 31.302779,31.799098 c -0.557726,-0.238832 -0.753803,-0.569293 -0.887844,-1.496341 -0.148964,-1.030256 -0.553553,-1.424749 -1.676338,-1.634508 -1.169489,-0.218484 -1.520415,-0.576463 -1.520415,-1.550974 0,-1.008028 0.42445,-1.449583 1.556635,-1.619364 1.060772,-0.159073 1.459341,-0.542192 1.623425,-1.560499 0.23631,-1.466539 0.890584,-1.94395 2.177239,-1.588687 0.646341,0.178463 1.006337,0.762181 1.006337,1.631731 0,0.613517 0.697819,1.437121 1.219008,1.43874 0.794761,0.0025 1.640353,0.381583 1.842971,0.826281 0.540525,1.186324 0.04338,2.210267 -1.152888,2.374549 -1.369799,0.188114 -1.909091,0.718475 -1.909091,1.877477 0,0.284217 -0.143182,0.691946 -0.318182,0.906066 -0.353047,0.431969 -1.388174,0.640766 -1.960857,0.395529 l 0,0 z"
       id="path3023"
       inkscape:connector-curvature="0" />
  </g>
</svg>
