<?xml version="1.0" encoding="UTF-8" standalone="no"?>
<!-- Created with Inkscape (http://www.inkscape.org/) -->

<svg
   xmlns:dc="http://purl.org/dc/elements/1.1/"
   xmlns:cc="http://creativecommons.org/ns#"
   xmlns:rdf="http://www.w3.org/1999/02/22-rdf-syntax-ns#"
   xmlns:svg="http://www.w3.org/2000/svg"
   xmlns="http://www.w3.org/2000/svg"
   xmlns:sodipodi="http://sodipodi.sourceforge.net/DTD/sodipodi-0.dtd"
   xmlns:inkscape="http://www.inkscape.org/namespaces/inkscape"
   width="64px"
   height="64px"
   id="svg2985"
   version="1.1"
   inkscape:version="0.48.1 "
   sodipodi:docname="bp.svg">
  <defs
     id="defs2987" />
  <sodipodi:namedview
     id="base"
     pagecolor="#ffffff"
     bordercolor="#666666"
     borderopacity="1.0"
     inkscape:pageopacity="0.0"
     inkscape:pageshadow="2"
     inkscape:zoom="5.5"
     inkscape:cx="53.14394"
     inkscape:cy="32"
     inkscape:current-layer="layer1"
     showgrid="true"
     inkscape:document-units="px"
     inkscape:grid-bbox="true"
     inkscape:window-width="1365"
     inkscape:window-height="878"
     inkscape:window-x="-8"
     inkscape:window-y="-8"
     inkscape:window-maximized="1" />
  <metadata
     id="metadata2990">
    <rdf:RDF>
      <cc:Work
         rdf:about="">
        <dc:format>image/svg+xml</dc:format>
        <dc:type
           rdf:resource="http://purl.org/dc/dcmitype/StillImage" />
        <dc:title></dc:title>
      </cc:Work>
    </rdf:RDF>
  </metadata>
  <g
     id="layer1"
     inkscape:label="Layer 1"
     inkscape:groupmode="layer">
    <path
       style="fill:#000000"
       d="m 18.955986,57.488316 c -5.856893,-1.054489 -6.356378,-1.720212 -5.791422,-7.718927 0.42686,-4.532399 0.2454,-5.469065 -1.611272,-8.317099 C 9.5693744,38.409066 7.6427552,31.416578 6.4605927,22.9688 6.166625,20.868096 5.3873121,18.705969 4.7287863,18.164073 3.2787236,16.970826 3.1547566,13.17087 4.5216763,11.815535 c 1.2810561,-1.2702 6.6406227,-1.2702 7.9216787,0 1.264453,1.253737 1.280899,4.948137 0.02756,6.190857 -1.52541,1.512479 1.662207,14.100051 3.570626,14.100051 0.993037,0 0.865188,-16.979558 -0.132453,-17.590908 -1.147269,-0.703043 -1.034524,-4.7833339 0.165035,-5.9727272 1.281056,-1.2701996 6.640623,-1.2701996 7.921679,0 1.383212,1.3714903 1.236223,5.1608292 -0.247553,6.3818172 -0.680769,0.560201 -1.237762,2.200695 -1.237762,3.645543 0,4.518378 1.812092,11.899912 2.921306,11.899912 1.463318,0 2.868749,-4.379191 3.419605,-10.655166 0.379344,-4.3219 0.213244,-5.546983 -0.873298,-6.441091 -1.570683,-1.292504 -1.77523,-5.0557424 -0.351529,-6.4673788 1.282587,-1.2717176 7.464267,-1.2717176 8.746854,0 1.423701,1.4116364 1.219155,5.1748748 -0.351529,6.4673788 -2.379793,1.958315 -0.125157,17.096257 2.546307,17.096257 1.109215,0 2.921306,-7.381534 2.921306,-11.899912 0,-1.444848 -0.556993,-3.085342 -1.237762,-3.645543 -1.483776,-1.220988 -1.630765,-5.0103269 -0.247553,-6.3818172 1.281056,-1.2701996 6.640623,-1.2701996 7.921679,0 1.199559,1.1893933 1.312304,5.2696842 0.165035,5.9727272 -0.99764,0.61135 -1.12549,17.590908 -0.132453,17.590908 1.908419,0 5.096036,-12.587572 3.57063,-14.100051 -1.253342,-1.24272 -1.236896,-4.93712 0.02756,-6.190857 0.544615,-0.54 2.326993,-0.981818 3.960839,-0.981818 1.633846,0 3.416224,0.441818 3.960839,0.981818 1.36692,1.355335 1.242953,5.155291 -0.207109,6.348538 -0.658526,0.541896 -1.43784,2.704023 -1.731807,4.804727 -1.177574,8.41499 -3.105326,15.435017 -5.06382,18.44022 -1.777462,2.727418 -2.024146,3.915058 -1.779996,8.56963 0.277362,5.287709 0.231226,5.428446 -2.154517,6.572247 -2.904227,1.392378 -23.443447,2.043175 -29.585087,0.937419 z m 13.044013,-3.584942 c 4.538462,0 9.829896,0.298714 11.758742,0.663809 4.727981,0.89492 4.553862,-0.571002 -0.218136,-1.8365 -7.428637,-1.97002 -26.806341,-0.709254 -26.806341,1.744093 0,0.448338 1.427799,0.48596 3.506993,0.09241 1.928846,-0.365095 7.22028,-0.663809 11.758742,-0.663809 z m 0,-6.545454 c 4.538462,0 9.829896,0.298714 11.758742,0.663809 4.727981,0.894919 4.553862,-0.571002 -0.218136,-1.8365 -4.746171,-1.258649 -17.17556,-1.274682 -22.617514,-0.02917 -5.130511,1.174227 -5.732596,2.82169 -0.681834,1.865674 1.928846,-0.365095 7.22028,-0.663809 11.758742,-0.663809 z m 0,-6.545455 c 4.538462,0 9.829896,0.298714 11.758742,0.663809 4.727981,0.89492 4.553862,-0.571002 -0.218136,-1.8365 -7.428637,-1.970019 -26.806341,-0.709254 -26.806341,1.744093 0,0.448338 1.427799,0.48596 3.506993,0.09241 1.928846,-0.365095 7.22028,-0.663809 11.758742,-0.663809 z"
       id="path3095"
       inkscape:connector-curvature="0" />
    <path
       style="fill:#ffffff;fill-opacity:1;fill-rule:evenodd"
       d="m 16.84879,54.385791 c 0.39432,-2.046637 16.809089,-3.333617 24.876968,-1.950448 2.655404,0.455246 5.647713,1.614102 5.361906,2.076548 -0.158335,0.256191 -1.702089,0.221132 -4.081458,-0.09269 -5.259406,-0.69368 -16.756489,-0.69362 -22.016312,1.15e-4 -1.132559,0.149377 -2.540853,0.271594 -3.129544,0.271594 -0.90406,0 -1.061213,-0.0474 -1.01156,-0.305118 z"
       id="path3097"
       inkscape:connector-curvature="0" />
    <path
       style="fill:#ffffff;fill-opacity:1;fill-rule:evenodd"
       d="m 16.816668,47.967828 c 0,-0.4904 2.501972,-1.445471 4.953425,-1.890858 5.203886,-0.945456 15.720527,-0.994831 20.50112,-0.09625 2.284118,0.429333 5.068805,1.577398 4.816451,1.985717 -0.158335,0.25619 -1.702089,0.221131 -4.081458,-0.09269 -5.259406,-0.693679 -16.756489,-0.693619 -22.016312,1.16e-4 -2.362497,0.311597 -4.173226,0.352368 -4.173226,0.09397 z"
       id="path3099"
       inkscape:connector-curvature="0" />
    <path
       style="fill:#ffffff;fill-opacity:1;fill-rule:evenodd"
       d="m 16.84879,41.294882 c 0.39432,-2.046637 16.809089,-3.333617 24.876968,-1.950448 2.655404,0.455246 5.647713,1.614102 5.361906,2.076548 -0.158335,0.256191 -1.702089,0.221132 -4.081458,-0.09269 C 37.7468,40.634611 26.249717,40.634671 20.989894,41.328406 19.857335,41.477783 18.449041,41.6 17.86035,41.6 c -0.90406,0 -1.061213,-0.0474 -1.01156,-0.305118 z"
       id="path3101"
       inkscape:connector-curvature="0" />
  </g>
</svg>
