<?xml version="1.0" encoding="UTF-8" standalone="no"?>
<!-- Created with Inkscape (http://www.inkscape.org/) -->

<svg
   xmlns:dc="http://purl.org/dc/elements/1.1/"
   xmlns:cc="http://creativecommons.org/ns#"
   xmlns:rdf="http://www.w3.org/1999/02/22-rdf-syntax-ns#"
   xmlns:svg="http://www.w3.org/2000/svg"
   xmlns="http://www.w3.org/2000/svg"
   xmlns:sodipodi="http://sodipodi.sourceforge.net/DTD/sodipodi-0.dtd"
   xmlns:inkscape="http://www.inkscape.org/namespaces/inkscape"
   width="64px"
   height="64px"
   id="svg2985"
   version="1.1"
   inkscape:version="0.48.1 "
   sodipodi:docname="wp.svg">
  <defs
     id="defs2987" />
  <sodipodi:namedview
     id="base"
     pagecolor="#ffffff"
     bordercolor="#666666"
     borderopacity="1.0"
     inkscape:pageopacity="0.0"
     inkscape:pageshadow="2"
     inkscape:zoom="5.5"
     inkscape:cx="50.780304"
     inkscape:cy="32"
     inkscape:current-layer="layer1"
     showgrid="true"
     inkscape:document-units="px"
     inkscape:grid-bbox="true"
     inkscape:window-width="1365"
     inkscape:window-height="878"
     inkscape:window-x="-8"
     inkscape:window-y="-8"
     inkscape:window-maximized="1" />
  <metadata
     id="metadata2990">
    <rdf:RDF>
      <cc:Work
         rdf:about="">
        <dc:format>image/svg+xml</dc:format>
        <dc:type
           rdf:resource="http://purl.org/dc/dcmitype/StillImage" />
        <dc:title></dc:title>
      </cc:Work>
    </rdf:RDF>
  </metadata>
  <g
     id="layer1"
     inkscape:label="Layer 1"
     inkscape:groupmode="layer">
    <path
       style="fill:#000000"
       d="M 22.125875,57.651879 C 20.994464,57.267426 18.883756,56.916068 17.43541,56.871084 14.034893,56.765469 13.118873,55.048759 13.662167,49.799661 14.04501,46.100781 13.700617,44.79974 10.70508,38.628507 7.6650116,32.365528 7.314686,31.013327 7.314686,25.542128 c 0,-5.213058 -0.2396705,-6.250931 -1.6456875,-7.126516 -1.8488929,-1.151382 -2.2351098,-5.018051 -0.6582751,-6.590419 1.2774372,-1.273818 6.6218636,-1.273818 7.8993006,0 1.196171,1.192782 1.308597,5.284698 0.164569,5.989744 -0.452564,0.278908 -0.822844,1.579155 -0.822844,2.889439 0,2.907549 3.11539,11.469535 4.173339,11.469535 1.039491,0 0.982521,-16.999079 -0.05912,-17.641026 -1.144028,-0.705045 -1.031602,-4.7969616 0.164569,-5.9897435 1.277437,-1.2738184 6.621863,-1.2738184 7.8993,0 1.617746,1.6131625 1.175127,5.3553265 -0.796281,6.7322435 -1.697642,1.185706 -1.734999,1.474935 -0.774357,5.995244 1.179161,5.548553 2.51773,9.262256 3.338492,9.262256 0.770137,0 2.510934,-9.560263 2.510934,-13.789768 0,-1.839284 -0.37028,-3.572349 -0.822844,-3.851257 -1.144028,-0.705046 -1.031602,-4.796962 0.164569,-5.9897442 1.277437,-1.2738184 6.621863,-1.2738184 7.8993,0 1.196171,1.1927822 1.308597,5.2846982 0.164569,5.9897442 -0.452564,0.278908 -0.822844,2.011973 -0.822844,3.851257 0,4.229505 1.740797,13.789768 2.510934,13.789768 0.820762,0 2.159331,-3.713703 3.338492,-9.262256 0.960643,-4.520309 0.923285,-4.809538 -0.774357,-5.995244 -1.971408,-1.376917 -2.414026,-5.119081 -0.796281,-6.7322435 1.277437,-1.2738184 6.621863,-1.2738184 7.8993,0 1.196171,1.1927819 1.308597,5.2846985 0.164569,5.9897435 -1.041641,0.641947 -1.098611,17.641026 -0.05912,17.641026 1.057949,0 4.173339,-8.561986 4.173339,-11.469535 0,-1.310284 -0.37028,-2.610531 -0.822844,-2.889439 -1.144027,-0.705046 -1.031601,-4.796962 0.164569,-5.989744 0.543077,-0.541538 2.32042,-0.984615 3.94965,-0.984615 1.629231,0 3.406574,0.443077 3.949651,0.984615 1.576834,1.572368 1.190618,5.439037 -0.658275,6.590419 -1.406018,0.875585 -1.645688,1.913458 -1.645688,7.126516 0,5.471199 -0.350326,6.8234 -3.390394,13.086379 -3.022783,6.22737 -3.34224,7.449951 -2.946277,11.275597 0.539163,5.20918 -0.339039,6.543293 -4.77172,7.248912 -5.648001,0.89908 -21.293774,1.231905 -23.451048,0.498863 z m 21.301739,-3.033723 c 3.144274,-0.327712 4.970859,-0.875368 4.783998,-1.434364 -1.091606,-3.265541 -31.353488,-3.200115 -32.446673,0.07015 -0.208259,0.623009 0.954138,1.088576 3.223318,1.291014 6.434328,0.574017 19.265446,0.612449 24.439357,0.0732 z M 32,49.050316 c 4.299359,0 9.575845,0.314534 11.725524,0.698966 5.341705,0.955267 5.114519,-0.605679 -0.268486,-1.844706 -8.124138,-1.869963 -27.09107,-0.64297 -27.09107,1.752553 0,0.494883 1.463549,0.529389 3.908508,0.09215 C 22.424155,49.364847 27.700641,49.050313 32,49.050313 z m 0,-3.337943 c 5.657051,0 11.488957,0.30626 12.95979,0.680578 2.299897,0.58531 2.674242,0.467933 2.674242,-0.83852 0,-1.218252 -1.054946,-1.718653 -5.32686,-2.526732 C 39.377398,42.4735 34.739171,42.020065 32,42.020065 c -2.739171,0 -7.377398,0.453435 -10.307172,1.007634 -4.271914,0.808079 -5.32686,1.30848 -5.32686,2.526732 0,1.306453 0.374345,1.42383 2.674242,0.83852 C 20.511044,46.018633 26.342949,45.712373 32,45.712373 z M 29.046839,40.66847 c 4.629759,-0.31747 9.383877,-0.116802 12.898199,0.544424 4.889988,0.920061 5.723162,0.890316 6.861669,-0.244966 1.735028,-1.730113 1.633342,-2.229914 -0.453686,-2.229914 -0.962248,0 -5.065422,-0.776271 -9.118164,-1.725047 l -7.368621,-1.725046 -6.897513,1.725046 c -3.793632,0.948776 -7.836612,1.725047 -8.9844,1.725047 -2.351515,0 -2.534673,0.363279 -1.058332,2.099119 0.701562,0.824876 1.944136,1.070223 3.908508,0.771738 1.583975,-0.240683 6.179528,-0.663864 10.21234,-0.940401 z M 24.388695,35.307673 32,33.491938 l 7.611305,1.815735 c 4.186218,0.998654 8.584652,1.80979 9.774298,1.802524 2.222946,-0.01357 2.614171,-0.614736 4.760566,-7.315136 1.121369,-3.50058 1.168987,-10.749355 0.07061,-10.749355 -0.452565,0 -0.819096,1.015384 -0.814515,2.25641 0.0046,1.241026 -0.804455,4.564103 -1.797857,7.384616 -1.637619,4.649602 -2.022367,5.128205 -4.122548,5.128205 l -2.316362,0 0,-9.025641 c 0,-4.964103 -0.285836,-9.025641 -0.635191,-9.025641 -0.349356,0 -1.104588,2.492307 -1.678295,5.538461 -1.668436,8.858742 -2.6109,10.871795 -5.089919,10.871795 -2.00216,0 -2.197684,-0.360192 -3.126075,-5.758818 -0.544684,-3.16735 -0.990333,-7.228888 -0.990333,-9.025641 0,-2.719814 -0.27556,-3.266823 -1.645688,-3.266823 -1.370128,0 -1.645687,0.547009 -1.645687,3.266823 0,1.796753 -0.44565,5.858291 -0.990333,9.025641 -0.925991,5.384664 -1.127985,5.758818 -3.109005,5.758818 -1.886367,0 -2.285237,-0.559496 -3.637772,-5.102727 -0.835504,-2.8065 -1.706885,-6.498808 -1.936401,-8.205129 -0.829638,-6.16789 -1.846303,-2.906264 -1.846303,5.923241 l 0,9.025641 -2.316362,0 c -2.100181,0 -2.484929,-0.478603 -4.122547,-5.128205 -0.993403,-2.820513 -1.802438,-6.14359 -1.797857,-7.384616 0.0046,-1.241026 -0.361951,-2.25641 -0.8145156,-2.25641 -1.0983738,0 -1.0507559,7.248775 0.070616,10.749355 2.1463946,6.7004 2.5376196,7.301561 4.7605646,7.315136 1.189646,0.0073 5.588081,-0.80387 9.774298,-1.802524 z M 11.428905,16.173911 c 1.257692,-1.511134 -0.200555,-3.692308 -2.4685314,-3.692308 -2.2679764,0 -3.7262236,2.181174 -2.4685313,3.692308 0.5633922,0.676923 1.6742312,1.230769 2.4685313,1.230769 0.7943002,0 1.9051394,-0.553846 2.4685314,-1.230769 z m 46.079253,0 c 1.257692,-1.511134 -0.200555,-3.692308 -2.468532,-3.692308 -0.7943,0 -1.905139,0.553846 -2.468531,1.23077 -1.257692,1.511133 0.200555,3.692307 2.468531,3.692307 0.794301,0 1.90514,-0.553846 2.468532,-1.230769 z M 22.948718,12.89186 c 1.257692,-1.511134 -0.200555,-3.6923083 -2.468531,-3.6923083 -2.267976,0 -3.726223,2.1811743 -2.468531,3.6923083 0.563392,0.676923 1.674231,1.230769 2.468531,1.230769 0.7943,0 1.905139,-0.553846 2.468531,-1.230769 z m 23.039627,0 c 1.257692,-1.511134 -0.200555,-3.6923083 -2.468532,-3.6923083 -2.267976,0 -3.726223,2.1811743 -2.468531,3.6923083 0.563392,0.676923 1.674231,1.230769 2.468531,1.230769 0.7943,0 1.90514,-0.553846 2.468532,-1.230769 z M 34.468531,11.250834 C 35.726224,9.7397002 34.267976,7.5585261 32,7.5585261 c -2.267976,0 -3.726223,2.1811741 -2.468531,3.6923079 0.563392,0.676923 1.674231,1.230769 2.468531,1.230769 0.7943,0 1.905139,-0.553846 2.468531,-1.230769 z"
       id="path3223"
       inkscape:connector-curvature="0" />
    <path
       style="fill:#ffffff;fill-opacity:1;fill-rule:evenodd"
       d="m 21.780304,54.682551 c -2.891871,-0.180843 -4.76927,-0.439765 -5.455381,-0.752378 -1.156762,-0.527056 0.108787,-1.542901 2.556973,-2.05246 5.580359,-1.161482 17.897922,-1.345424 24.443862,-0.365029 4.210695,0.630643 5.905719,1.666675 3.846055,2.350786 -2.097729,0.696753 -4.525718,0.857931 -13.846055,0.919148 -4.95,0.03251 -10.145454,-0.01252 -11.545454,-0.100067 z"
       id="path3225"
       inkscape:connector-curvature="0" />
    <path
       style="fill:#ffffff;fill-opacity:1;fill-rule:evenodd"
       d="m 16.502654,49.773854 c -0.512877,-0.829853 2.954413,-1.81478 8.27765,-2.351371 5.274579,-0.531685 13.312307,-0.397525 17.272727,0.288304 2.841589,0.49208 5.565078,1.471966 5.404342,1.944432 -0.10548,0.310042 -2.263711,0.257254 -5.222524,-0.127736 -5.18522,-0.674683 -16.517622,-0.585394 -21.986194,0.173231 -2.235846,0.310167 -3.583251,0.336474 -3.746001,0.07314 z"
       id="path3227"
       inkscape:connector-curvature="0" />
    <path
       style="fill:#ffffff;fill-opacity:1;fill-rule:evenodd"
       d="m 16.616408,46.360762 c -0.329921,-0.616465 -0.232033,-1.293652 0.251819,-1.742071 0.752375,-0.697277 3.77855,-1.455048 8.187885,-2.050291 3.282162,-0.443079 10.720057,-0.440637 13.90601,0.0046 4.486931,0.626999 7.456558,1.373837 8.227273,2.069092 0.452514,0.40821 0.44246,1.803085 -0.01404,1.947972 -0.182721,0.05799 -1.278967,-0.05641 -2.436098,-0.254232 -4.757054,-0.813258 -20.024468,-0.870109 -24.868047,-0.0926 -0.95,0.152497 -2.026026,0.325309 -2.391168,0.384026 -0.547251,0.088 -0.69899,0.04118 -0.863637,-0.266461 z"
       id="path3229"
       inkscape:connector-curvature="0" />
    <path
       style="fill:#ffffff;fill-opacity:1;fill-rule:evenodd"
       d="m 42.234849,41.215883 c -5.667385,-0.9383 -12.478987,-0.900629 -21.272727,0.117646 -4.317142,0.499905 -5.374625,0.33018 -6.352363,-1.019548 -0.937965,-1.294823 -0.940972,-1.292458 2.058336,-1.618605 2.15694,-0.234548 4.517624,-0.729863 10.599857,-2.224048 l 4.578557,-1.124786 4.421444,1.026696 c 5.887602,1.367152 9.490211,2.097318 11.692064,2.369715 2.148287,0.26577 2.280147,0.436502 1.279883,1.657192 -1.27792,1.559533 -2.002702,1.643933 -7.005051,0.815738 l 0,0 z"
       id="path3231"
       inkscape:connector-curvature="0" />
    <path
       style="fill:#ffffff;fill-opacity:1;fill-rule:evenodd"
       d="M 13.206391,36.790625 C 12.479839,36.474531 11.847235,35.405745 11.024314,33.104002 9.4920961,28.818327 9.1090018,26.759789 9.1159714,22.849618 9.119314,20.974342 9.1925602,20.200763 9.417241,19.667799 l 0.2968532,-0.704163 0.3370948,0.411708 c 0.215547,0.263255 0.378973,0.853292 0.453236,1.636364 0.356979,3.764236 2.58912,10.674921 3.888493,12.038739 0.615895,0.646442 0.751457,0.701357 2.02375,0.819804 0.75,0.06982 1.60909,0.09894 1.90909,0.06471 l 0.545455,-0.06224 0.105246,-7.909091 c 0.101242,-7.608106 0.241752,-9.559125 0.725594,-10.075061 0.239753,-0.255656 0.505858,0.630498 1.002012,3.336787 0.828954,4.521562 2.6151,10.790815 3.388344,11.892866 0.632024,0.90078 0.877255,1.015269 2.187895,1.021444 1.807238,0.0085 2.065885,-0.320949 2.707478,-3.448763 0.579942,-2.827262 1.245813,-7.980543 1.402755,-10.856161 0.08074,-1.479424 0.240163,-2.864303 0.354269,-3.077509 0.428185,-0.800072 2.245931,-0.688005 2.557645,0.157682 0.0836,0.226794 0.243838,1.762352 0.356095,3.412352 0.224305,3.296931 0.7371,7.234049 1.325278,10.175193 0.655267,3.276617 0.918705,3.642989 2.619467,3.642989 2.572257,0 3.299444,-1.362698 4.996791,-9.363637 0.85254,-4.018689 1.443893,-6.252849 1.801355,-6.805602 0.175276,-0.271033 0.204374,-0.1581 0.488656,1.896511 0.06918,0.5 0.175055,4.304546 0.235271,8.454546 l 0.109485,7.545454 1.668548,-0.03392 c 1.99628,-0.04059 2.593669,-0.29608 3.217754,-1.376181 1.101351,-1.906105 3.040153,-8.299126 3.294291,-10.862624 0.151051,-1.523652 0.416555,-2.363636 0.747098,-2.363636 0.536282,0 0.699258,0.941508 0.692404,4 -0.0081,3.620899 -0.264302,5.088451 -1.544553,8.847901 -1.530653,4.494753 -1.876451,4.892115 -4.227196,4.857526 -1.640833,-0.02414 -6.076575,-0.887673 -12.919917,-2.515187 l -4.16248,-0.989942 -3.74661,0.889976 c -7.230981,1.717657 -12.403615,2.734447 -13.83752,2.72006 -0.35,-0.0035 -0.894625,-0.118745 -1.210277,-0.256073 z"
       id="path3233"
       inkscape:connector-curvature="0" />
    <path
       style="fill:#ffffff;fill-opacity:1;fill-rule:evenodd"
       d="M 8.1910459,17.155136 C 7.1338241,16.784541 6.5915895,16.355176 6.3002623,15.657932 5.9554263,14.832624 6.110046,14.16032 6.8091418,13.445268 c 1.656039,-1.693836 4.8883632,-0.768177 4.9456432,1.416312 0.02248,0.857257 -0.429644,1.54941 -1.295322,1.983009 -1.0100909,0.505931 -1.5141684,0.574939 -2.2684171,0.310547 l 0,0 z"
       id="path3235"
       inkscape:connector-curvature="0" />
    <path
       style="fill:#ffffff;fill-opacity:1;fill-rule:evenodd"
       d="m 19.962122,13.960735 c -2.030456,-0.430961 -2.922359,-2.335465 -1.729808,-3.693706 1.636503,-1.8638729 5.090189,-0.8483441 5.092765,1.497487 0.0013,1.21477 -1.958096,2.494399 -3.362957,2.196219 z"
       id="path3237"
       inkscape:connector-curvature="0" />
    <path
       style="fill:#ffffff;fill-opacity:1;fill-rule:evenodd"
       d="m 30.631145,12.021499 c -0.789448,-0.389025 -1.487379,-1.320576 -1.486525,-1.984116 0.0015,-1.1553583 1.409153,-2.4214475 2.705498,-2.4333899 1.528711,-0.014083 2.930186,1.1108617 2.930186,2.3520198 0,0.7950371 -0.600794,1.6570401 -1.467174,2.1050631 -0.677329,0.35026 -1.92835,0.331799 -2.681985,-0.03958 l 0,0 z"
       id="path3239"
       inkscape:connector-curvature="0" />
    <path
       style="fill:#ffffff;fill-opacity:1;fill-rule:evenodd"
       d="m 41.835405,13.434555 c -1.146091,-0.726829 -1.418797,-1.525855 -0.892104,-2.613857 0.410676,-0.8483442 1.031603,-1.3033778 2.035325,-1.4915473 1.405694,-0.2635278 3.079901,0.6905163 3.347169,1.9073793 0.175337,0.798306 -0.38417,1.815288 -1.272764,2.313423 -1.0528,0.590189 -2.168105,0.550189 -3.217626,-0.115398 z"
       id="path3241"
       inkscape:connector-curvature="0" />
    <path
       style="fill:#ffffff;fill-opacity:1;fill-rule:evenodd"
       d="m 54.321954,17.244722 c -1.266511,-0.293334 -2.087105,-1.247693 -2.087105,-2.427325 0,-0.77773 0.61422,-1.471045 1.747233,-1.972231 1.771479,-0.783609 3.886373,0.385743 3.888451,2.149975 0.0016,1.324294 -2.017426,2.604208 -3.548579,2.249581 z"
       id="path3243"
       inkscape:connector-curvature="0" />
  </g>
</svg>
