<?xml version="1.0" encoding="UTF-8" standalone="no"?>
<!-- Created with Inkscape (http://www.inkscape.org/) -->

<svg
   xmlns:dc="http://purl.org/dc/elements/1.1/"
   xmlns:cc="http://creativecommons.org/ns#"
   xmlns:rdf="http://www.w3.org/1999/02/22-rdf-syntax-ns#"
   xmlns:svg="http://www.w3.org/2000/svg"
   xmlns="http://www.w3.org/2000/svg"
   xmlns:sodipodi="http://sodipodi.sourceforge.net/DTD/sodipodi-0.dtd"
   xmlns:inkscape="http://www.inkscape.org/namespaces/inkscape"
   width="64px"
   height="64px"
   id="svg2816"
   version="1.1"
   inkscape:version="0.47 r22583"
   sodipodi:docname="br.svg">
  <defs
     id="defs2818">
    <inkscape:perspective
       sodipodi:type="inkscape:persp3d"
       inkscape:vp_x="0 : 32 : 1"
       inkscape:vp_y="0 : 1000 : 0"
       inkscape:vp_z="64 : 32 : 1"
       inkscape:persp3d-origin="32 : 21.333333 : 1"
       id="perspective2824" />
    <inkscape:perspective
       id="perspective2838"
       inkscape:persp3d-origin="0.5 : 0.33333333 : 1"
       inkscape:vp_z="1 : 0.5 : 1"
       inkscape:vp_y="0 : 1000 : 0"
       inkscape:vp_x="0 : 0.5 : 1"
       sodipodi:type="inkscape:persp3d" />
    <inkscape:perspective
       id="perspective2870"
       inkscape:persp3d-origin="0.5 : 0.33333333 : 1"
       inkscape:vp_z="1 : 0.5 : 1"
       inkscape:vp_y="0 : 1000 : 0"
       inkscape:vp_x="0 : 0.5 : 1"
       sodipodi:type="inkscape:persp3d" />
    <inkscape:perspective
       id="perspective2900"
       inkscape:persp3d-origin="0.5 : 0.33333333 : 1"
       inkscape:vp_z="1 : 0.5 : 1"
       inkscape:vp_y="0 : 1000 : 0"
       inkscape:vp_x="0 : 0.5 : 1"
       sodipodi:type="inkscape:persp3d" />
    <inkscape:perspective
       id="perspective2922"
       inkscape:persp3d-origin="0.5 : 0.33333333 : 1"
       inkscape:vp_z="1 : 0.5 : 1"
       inkscape:vp_y="0 : 1000 : 0"
       inkscape:vp_x="0 : 0.5 : 1"
       sodipodi:type="inkscape:persp3d" />
    <inkscape:perspective
       id="perspective2954"
       inkscape:persp3d-origin="0.5 : 0.33333333 : 1"
       inkscape:vp_z="1 : 0.5 : 1"
       inkscape:vp_y="0 : 1000 : 0"
       inkscape:vp_x="0 : 0.5 : 1"
       sodipodi:type="inkscape:persp3d" />
    <inkscape:perspective
       id="perspective2972"
       inkscape:persp3d-origin="0.5 : 0.33333333 : 1"
       inkscape:vp_z="1 : 0.5 : 1"
       inkscape:vp_y="0 : 1000 : 0"
       inkscape:vp_x="0 : 0.5 : 1"
       sodipodi:type="inkscape:persp3d" />
    <inkscape:perspective
       id="perspective2988"
       inkscape:persp3d-origin="0.5 : 0.33333333 : 1"
       inkscape:vp_z="1 : 0.5 : 1"
       inkscape:vp_y="0 : 1000 : 0"
       inkscape:vp_x="0 : 0.5 : 1"
       sodipodi:type="inkscape:persp3d" />
    <inkscape:perspective
       id="perspective3037"
       inkscape:persp3d-origin="0.5 : 0.33333333 : 1"
       inkscape:vp_z="1 : 0.5 : 1"
       inkscape:vp_y="0 : 1000 : 0"
       inkscape:vp_x="0 : 0.5 : 1"
       sodipodi:type="inkscape:persp3d" />
    <inkscape:perspective
       id="perspective3063"
       inkscape:persp3d-origin="0.5 : 0.33333333 : 1"
       inkscape:vp_z="1 : 0.5 : 1"
       inkscape:vp_y="0 : 1000 : 0"
       inkscape:vp_x="0 : 0.5 : 1"
       sodipodi:type="inkscape:persp3d" />
    <inkscape:perspective
       id="perspective3083"
       inkscape:persp3d-origin="0.5 : 0.33333333 : 1"
       inkscape:vp_z="1 : 0.5 : 1"
       inkscape:vp_y="0 : 1000 : 0"
       inkscape:vp_x="0 : 0.5 : 1"
       sodipodi:type="inkscape:persp3d" />
  </defs>
  <sodipodi:namedview
     id="base"
     pagecolor="#ffffff"
     bordercolor="#666666"
     borderopacity="1.0"
     inkscape:pageopacity="0.0"
     inkscape:pageshadow="2"
     inkscape:zoom="5.5"
     inkscape:cx="32"
     inkscape:cy="32"
     inkscape:current-layer="layer1"
     showgrid="true"
     inkscape:document-units="px"
     inkscape:grid-bbox="true"
     inkscape:window-width="1365"
     inkscape:window-height="878"
     inkscape:window-x="-8"
     inkscape:window-y="-8"
     inkscape:window-maximized="1" />
  <metadata
     id="metadata2821">
    <rdf:RDF>
      <cc:Work
         rdf:about="">
        <dc:format>image/svg+xml</dc:format>
        <dc:type
           rdf:resource="http://purl.org/dc/dcmitype/StillImage" />
        <dc:title></dc:title>
      </cc:Work>
    </rdf:RDF>
  </metadata>
  <g
     id="layer1"
     inkscape:label="Layer 1"
     inkscape:groupmode="layer">
    <text
       xml:space="preserve"
       style="font-size:64px;font-style:normal;font-weight:normal;fill:#000000;fill-opacity:1;stroke:none;font-family:babaschess fritzright;-inkscape-font-specification:babaschess fritzright"
       x="0"
       y="64"
       id="text2826"><tspan
         sodipodi:role="line"
         id="tspan2828"
         x="0"
         y="64" /></text>
    <path
       style="fill:#000000"
       d="m 4.5206622,59.095389 c 0,-1.764822 2.0089713,-5.178411 3.7724758,-6.410089 1.1017884,-0.769518 3.275458,-1.125384 6.873965,-1.125384 l 5.26265,0 -0.02257,-4.506714 c -0.01754,-3.501818 -0.419821,-5.149849 -1.804146,-7.391013 -3.309609,-5.358114 -1.794555,-13.96087 3.916329,-22.23764 1.763254,-2.555479 2.142555,-3.712077 1.791442,-5.462625 -0.82382,-4.1073358 2.962624,-6.0273548 5.192925,-2.6332117 0.863208,1.3136587 0.964064,2.1059367 0.40151,3.1540747 -0.590093,1.099449 -0.448889,1.67261 0.658181,2.671631 2.163909,1.952717 3.731196,0.304834 3.151014,-3.313053 -0.401644,-2.5045695 -0.257049,-2.8608004 1.481892,-3.6508513 1.681544,-0.7639739 2.123307,-0.6796942 3.468582,0.6617379 1.230732,1.2272154 1.397145,1.8600654 0.825206,3.1381664 -0.585456,1.308307 -0.280254,2.24723 1.669639,5.136481 1.312329,1.94454 3.057082,5.701331 3.877229,8.348426 1.627285,5.252198 1.485077,7.910028 -0.759077,14.186864 -0.708965,1.982955 -1.46012,5.471152 -1.669235,7.75155 l -0.380209,4.146177 4.975709,0 c 6.192223,0 8.387413,0.967863 10.191096,4.493272 1.42664,2.788457 1.264283,4.653194 -0.316105,3.630577 -0.469677,-0.303913 -4.921623,-0.726792 -9.893214,-0.939732 -7.506994,-0.321535 -9.602462,-0.669847 -12.361768,-2.054791 l -3.322511,-1.667626 -3.185754,1.667923 c -2.720806,1.424498 -4.50499,1.707526 -12.225009,1.939272 -4.971591,0.149241 -9.3483986,0.566694 -9.7262395,0.927673 -1.0373795,0.991083 -1.8440083,0.789385 -1.8440083,-0.461095 z m 31.1366398,-9.25087 c 2.571436,0.424056 4.546288,0.454801 4.782032,0.07445 0.833974,-1.345543 -1.225586,-2.101778 -6.730409,-2.471292 -6.283119,-0.421757 -12.001699,0.671342 -11.419992,2.182917 0.273448,0.710559 1.319448,0.756159 4.670149,0.203593 2.859426,-0.47155 5.797296,-0.46806 8.69822,0.01033 z M 23.950637,44.823633 c 0.884879,-1.063168 0.390425,-1.916609 -1.110416,-1.916609 -0.530302,0 -0.964187,0.648967 -0.964187,1.442149 0,1.663765 0.911279,1.872174 2.074603,0.47446 z m 17.450191,-0.136554 c 0,-1.151315 -1.921832,-2.267295 -2.651516,-1.539697 -0.230844,0.230186 -0.227023,0.919238 0.0085,1.531229 0.55458,1.441077 2.643026,1.447768 2.643026,0.0085 z m -7.592976,-1.058981 c 0,-1.268822 -3.785366,-1.921936 -4.870127,-0.840275 -1.215895,1.212422 0.188177,2.375053 2.587787,2.142795 1.448191,-0.140171 2.28234,-0.616216 2.28234,-1.30252 z m -3.432469,-3.444529 c 3.680324,-0.165121 7.641657,0.03006 8.802964,0.433739 1.632928,0.567615 2.197097,0.511445 2.489298,-0.247843 0.59114,-1.536085 -4.105587,-2.702575 -10.686521,-2.654129 -6.527907,0.04806 -9.82823,0.96386 -9.82823,2.727227 0,0.856124 0.344693,1.021979 1.265496,0.608915 0.696022,-0.31223 4.276669,-0.702789 7.956993,-0.867909 z m 13.194866,-4.815025 c 0,-1.805334 -3.280052,-10.15596 -5.286536,-13.458895 -3.04214,-5.007764 -4.023352,-6.061484 -4.863907,-5.223331 -0.510171,0.508713 0.170988,2.303713 2.166055,5.708029 1.60064,2.731277 3.590346,7.003794 4.421568,9.494483 0.907979,2.720682 1.920808,4.528525 2.537067,4.528525 0.564165,0 1.025753,-0.471965 1.025753,-1.048811 z"
       id="path3089" />
    <path
       style="fill:#ffffff"
       d="m 23.00222,50.044923 c -0.328529,-0.06185 -0.568376,-0.23282 -0.606846,-0.432579 -0.269002,-1.396818 3.783997,-2.241661 9.939146,-2.071803 5.816212,0.160504 8.521362,0.867685 8.122795,2.123461 -0.106633,0.33597 -0.263582,0.371799 -1.605931,0.366601 -0.818261,-0.0032 -2.346839,-0.123304 -3.396839,-0.266967 -2.455958,-0.336029 -5.828064,-0.341731 -8.31193,-0.01405 -2.703163,0.356606 -3.509466,0.414121 -4.140395,0.295342 z"
       id="path3091" />
    <path
       style="fill:#ffffff"
       d="m 29.841712,44.763505 c -1.363704,-0.322054 -1.691261,-1.510426 -0.57538,-2.087471 1.12901,-0.583834 3.937263,-0.17558 4.371333,0.635489 0.287125,0.536498 -0.398256,1.208315 -1.466414,1.437394 -1.029802,0.220853 -1.445118,0.223454 -2.329539,0.01459 l 0,0 z"
       id="path3093" />
    <path
       style="fill:#ffffff"
       d="m 22.218182,45.454545 c -0.333814,-0.333813 -0.26755,-1.680566 0.105347,-2.141074 0.271731,-0.335574 0.432624,-0.379076 1.004927,-0.271711 1.228569,0.230481 1.313109,1.098725 0.201974,2.074315 -0.68657,0.602816 -0.973813,0.676905 -1.312248,0.33847 z"
       id="path3095" />
    <path
       style="fill:#ffffff"
       d="m 39.43879,45.439672 c -0.449717,-0.345281 -0.711517,-0.956301 -0.711517,-1.660619 0,-0.529553 0.07824,-0.66449 0.43761,-0.754686 0.477094,-0.119743 1.060849,0.121757 1.698753,0.702774 0.528087,0.480994 0.560978,1.487868 0.05741,1.757371 -0.465819,0.249299 -1.125127,0.229354 -1.482254,-0.04484 l 0,0 z"
       id="path3097" />
    <path
       style="fill:#ffffff"
       d="M 21.307206,40.463841 C 21.41786,39.162912 22.9654,38.432053 26.494482,38.014035 28.933314,37.725157 36.043603,37.900706 38,38.2981 c 2.63772,0.535789 3.818891,1.240377 3.54198,2.11285 -0.161669,0.509373 -0.803893,0.600663 -1.927578,0.273998 -1.227426,-0.356822 -4.043363,-0.638132 -6.432584,-0.642611 -2.511158,-0.0047 -8.665963,0.496452 -10.056737,0.818876 -1.770423,0.410439 -1.884465,0.38551 -1.817875,-0.397372 z"
       id="path3099" />
    <path
       style="fill:#ffffff"
       d="M 41.864777,35.706556 C 41.257953,34.866873 40.868223,34.011333 39.530271,30.581818 38.442742,27.794202 37.228783,25.275813 35.104285,21.4 c -1.872789,-3.416609 -2.207826,-4.818182 -1.151756,-4.818182 0.582572,0 1.360622,0.815541 2.647707,2.77529 2.420164,3.685005 4.262907,7.553593 5.946617,12.484113 1.020084,2.987179 1.120925,3.843352 0.5036,4.275743 -0.56105,0.392974 -0.619776,0.372647 -1.185676,-0.410408 l 0,0 z"
       id="path3101" />
  </g>
</svg>
