<?xml version="1.0" encoding="UTF-8" standalone="no"?>
<!-- Created with Inkscape (http://www.inkscape.org/) -->

<svg
   xmlns:dc="http://purl.org/dc/elements/1.1/"
   xmlns:cc="http://creativecommons.org/ns#"
   xmlns:rdf="http://www.w3.org/1999/02/22-rdf-syntax-ns#"
   xmlns:svg="http://www.w3.org/2000/svg"
   xmlns="http://www.w3.org/2000/svg"
   xmlns:sodipodi="http://sodipodi.sourceforge.net/DTD/sodipodi-0.dtd"
   xmlns:inkscape="http://www.inkscape.org/namespaces/inkscape"
   width="64px"
   height="64px"
   id="svg2816"
   version="1.1"
   inkscape:version="0.47 r22583"
   sodipodi:docname="bk.svg">
  <defs
     id="defs2818">
    <inkscape:perspective
       sodipodi:type="inkscape:persp3d"
       inkscape:vp_x="0 : 32 : 1"
       inkscape:vp_y="0 : 1000 : 0"
       inkscape:vp_z="64 : 32 : 1"
       inkscape:persp3d-origin="32 : 21.333333 : 1"
       id="perspective2824" />
    <inkscape:perspective
       id="perspective2838"
       inkscape:persp3d-origin="0.5 : 0.33333333 : 1"
       inkscape:vp_z="1 : 0.5 : 1"
       inkscape:vp_y="0 : 1000 : 0"
       inkscape:vp_x="0 : 0.5 : 1"
       sodipodi:type="inkscape:persp3d" />
    <inkscape:perspective
       id="perspective2870"
       inkscape:persp3d-origin="0.5 : 0.33333333 : 1"
       inkscape:vp_z="1 : 0.5 : 1"
       inkscape:vp_y="0 : 1000 : 0"
       inkscape:vp_x="0 : 0.5 : 1"
       sodipodi:type="inkscape:persp3d" />
    <inkscape:perspective
       id="perspective2900"
       inkscape:persp3d-origin="0.5 : 0.33333333 : 1"
       inkscape:vp_z="1 : 0.5 : 1"
       inkscape:vp_y="0 : 1000 : 0"
       inkscape:vp_x="0 : 0.5 : 1"
       sodipodi:type="inkscape:persp3d" />
    <inkscape:perspective
       id="perspective2922"
       inkscape:persp3d-origin="0.5 : 0.33333333 : 1"
       inkscape:vp_z="1 : 0.5 : 1"
       inkscape:vp_y="0 : 1000 : 0"
       inkscape:vp_x="0 : 0.5 : 1"
       sodipodi:type="inkscape:persp3d" />
    <inkscape:perspective
       id="perspective2954"
       inkscape:persp3d-origin="0.5 : 0.33333333 : 1"
       inkscape:vp_z="1 : 0.5 : 1"
       inkscape:vp_y="0 : 1000 : 0"
       inkscape:vp_x="0 : 0.5 : 1"
       sodipodi:type="inkscape:persp3d" />
    <inkscape:perspective
       id="perspective2972"
       inkscape:persp3d-origin="0.5 : 0.33333333 : 1"
       inkscape:vp_z="1 : 0.5 : 1"
       inkscape:vp_y="0 : 1000 : 0"
       inkscape:vp_x="0 : 0.5 : 1"
       sodipodi:type="inkscape:persp3d" />
    <inkscape:perspective
       id="perspective2988"
       inkscape:persp3d-origin="0.5 : 0.33333333 : 1"
       inkscape:vp_z="1 : 0.5 : 1"
       inkscape:vp_y="0 : 1000 : 0"
       inkscape:vp_x="0 : 0.5 : 1"
       sodipodi:type="inkscape:persp3d" />
  </defs>
  <sodipodi:namedview
     id="base"
     pagecolor="#ffffff"
     bordercolor="#666666"
     borderopacity="1.0"
     inkscape:pageopacity="0.0"
     inkscape:pageshadow="2"
     inkscape:zoom="5.5"
     inkscape:cx="32"
     inkscape:cy="32"
     inkscape:current-layer="layer1"
     showgrid="true"
     inkscape:document-units="px"
     inkscape:grid-bbox="true"
     inkscape:window-width="1365"
     inkscape:window-height="878"
     inkscape:window-x="-8"
     inkscape:window-y="-8"
     inkscape:window-maximized="1" />
  <metadata
     id="metadata2821">
    <rdf:RDF>
      <cc:Work
         rdf:about="">
        <dc:format>image/svg+xml</dc:format>
        <dc:type
           rdf:resource="http://purl.org/dc/dcmitype/StillImage" />
        <dc:title />
      </cc:Work>
    </rdf:RDF>
  </metadata>
  <g
     id="layer1"
     inkscape:label="Layer 1"
     inkscape:groupmode="layer">
    <text
       xml:space="preserve"
       style="font-size:64px;font-style:normal;font-weight:normal;fill:#000000;fill-opacity:1;stroke:none;font-family:babaschess fritzright;-inkscape-font-specification:babaschess fritzright"
       x="0"
       y="64"
       id="text2826"><tspan
         sodipodi:role="line"
         id="tspan2828"
         x="0"
         y="64" /></text>
    <path
       style="fill:#000000"
       d="M 22.388213,57.735665 C 20.084684,57.241037 17.70527,56.341633 17.100625,55.736988 16.458889,55.095252 15.631731,51.935946 15.113507,48.147253 14.286319,42.099739 14.036961,41.46809 11.459066,38.890195 4.030897,31.462026 4.0457088,20.921005 11.488686,17.81113 c 3.458389,-1.445006 6.111463,-1.233569 9.918074,0.790426 l 3.361836,1.787505 0,-6.126348 0,-6.1263491 7.231405,0 7.231405,0 0,6.1263491 0,6.126348 3.361836,-1.787505 c 3.806611,-2.023995 6.459685,-2.235432 9.918074,-0.790426 3.755375,1.569096 5.524424,4.358665 5.505861,8.682053 -0.0197,4.587522 -1.768462,8.542325 -5.586006,12.632656 -2.782116,2.980916 -2.966056,3.458913 -3.454529,8.977108 -0.407746,4.606247 -0.849883,6.162481 -2.108339,7.420938 -2.952681,2.952681 -15.676046,4.102239 -24.48009,2.21178 z m 9.611788,-5.12616 c 7.804492,0 11.702834,0.282258 12.835744,0.929368 1.496343,0.8547 1.627066,0.787872 1.627066,-0.831799 0,-1.520121 -0.519614,-1.893059 -3.796488,-2.724813 -4.895594,-1.242628 -17.276708,-1.225031 -21.694215,0.03083 -2.875057,0.817357 -3.434917,1.260013 -3.434917,2.715835 0,1.597007 0.133122,1.663275 1.627066,0.809945 1.13291,-0.647112 5.031252,-0.92937 12.835744,-0.92937 z m 15.18595,-5.423554 c 0,-1.665341 -0.326137,-2.169422 -1.403603,-2.169422 -2.205615,0 -2.615421,1.540256 -0.800764,3.009676 2.140504,1.733276 2.204367,1.708933 2.204367,-0.840254 z m -27.505628,0.393247 c 1.093706,-1.317836 0.383205,-2.562669 -1.462669,-2.562669 -1.015083,0 -1.403604,0.500417 -1.403604,1.807852 0,2.015694 1.493437,2.408982 2.866273,0.754817 z m 15.422105,-2.020313 c 1.951647,-1.458656 0.337596,-3.040477 -3.102427,-3.040477 -3.440023,0 -5.054075,1.581821 -3.102427,3.040477 0.665188,0.497159 2.06128,0.903925 3.102427,0.903925 1.041146,0 2.437239,-0.406766 3.102427,-0.903925 z m -11.0674,-5.021126 c 6.390765,-1.756214 12.451324,-1.49549 19.106073,0.821938 2.349197,0.818076 4.420965,1.487411 4.603931,1.487411 0.182964,0 0.167434,-0.86434 -0.03451,-1.920756 -0.281844,-1.474372 0.09863,-2.312708 1.637166,-3.607297 3.704749,-3.117341 5.43964,-9.156766 3.611591,-12.572507 -0.404217,-0.755287 -1.999498,-1.752119 -3.545069,-2.215183 -2.405146,-0.720599 -3.204392,-0.646111 -5.545872,0.516862 -3.360816,1.669261 -5.137054,4.020808 -6.842606,9.058868 l -1.310189,3.870178 -3.715543,0 -3.715544,0 -1.310185,-3.870178 c -1.705551,-5.03806 -3.48179,-7.389607 -6.842606,-9.058868 -2.341479,-1.162973 -3.140726,-1.237461 -5.545872,-0.516862 -1.54557,0.463064 -3.140851,1.459896 -3.545068,2.215183 -1.7942079,3.352509 0.193117,9.942045 3.870873,12.834968 1.362276,1.071566 1.665661,1.839422 1.359521,3.440891 -0.343442,1.796603 -0.217724,1.993491 0.97835,1.532206 0.754837,-0.291116 3.808338,-1.1987 6.785558,-2.016854 z M 18.434507,36.34275 c -3.063788,-1.868015 -5.320622,-5.570591 -5.071308,-8.320022 0.17051,-1.880386 0.51666,-2.200121 2.598105,-2.399841 3.191846,-0.306266 5.721838,1.459257 7.405724,5.167991 1.680028,3.700234 1.769464,5.975195 0.257714,6.555308 -1.813664,0.695969 -2.676625,0.529131 -5.190235,-1.003436 z m 21.700824,0.963452 c -1.284041,-0.518122 -1.093675,-3.010471 0.497643,-6.515324 1.683886,-3.708734 4.213877,-5.474257 7.405723,-5.167991 2.081445,0.19972 2.427596,0.519455 2.598106,2.399841 0.455004,5.017782 -6.291836,10.982099 -10.501472,9.283474 z m -7.067973,-7.420949 c 0.242924,-0.765384 1.231286,-2.555157 2.19636,-3.977273 l 1.75468,-2.585666 -4.738882,0 c -2.606385,0 -4.622888,0.24406 -4.481118,0.542356 1.925757,4.051936 3.87375,7.41219 4.296969,7.41219 0.291672,0 0.729068,-0.626223 0.971991,-1.391607 z m -2.74103,-11.027835 1.673673,-1.572335 1.817428,1.707386 c 1.390766,1.306556 2.016651,1.508163 2.666043,0.858771 0.649392,-0.649392 0.446711,-1.27642 -0.863346,-2.670912 l -1.71196,-1.822298 1.93681,-2.021594 c 1.50225,-1.568011 1.742859,-2.215544 1.07238,-2.886023 -0.670478,-0.6704781 -1.319103,-0.428823 -2.890892,1.077046 l -2.026463,1.941475 -2.090097,-2.00244 c -2.677556,-2.5652623 -3.808025,-1.200626 -1.543143,1.862791 l 1.599075,2.162865 -1.589672,1.692128 c -0.874319,0.930671 -1.373667,2.041631 -1.109662,2.468801 0.684052,1.10682 1.168942,0.980731 3.059826,-0.795661 z"
       id="path2994" />
    <path
       style="fill:#ffffff"
       d="m 17.757576,53.915151 c -0.06667,-0.06667 -0.121212,-0.565658 -0.121212,-1.10887 0,-0.865038 0.06837,-1.051525 0.550673,-1.502065 1.416852,-1.323538 6.722125,-2.177527 13.521184,-2.176502 7.131603,0.0011 13.255455,0.99611 14.299552,2.323464 0.375236,0.477035 0.515916,2.282989 0.193369,2.482334 -0.08937,0.05523 -0.600737,-0.09978 -1.136364,-0.344467 -1.701611,-0.777349 -3.650045,-0.9136 -13.064778,-0.9136 -9.418831,0 -11.362826,0.136094 -13.067426,0.914813 -1.115768,0.50972 -1.017377,0.482515 -1.174998,0.324893 l 0,0 z"
       id="path2996" />
    <path
       style="fill:#ffffff"
       d="m 30.275653,46.096706 c -2.314947,-0.710109 -2.8077,-2.132587 -1.039986,-3.00223 0.72072,-0.354564 1.141226,-0.420823 2.673424,-0.421246 1.918844,-5.31e-4 2.864747,0.222527 3.515801,0.829076 0.924902,0.861677 0.107381,2.078449 -1.745825,2.598433 -1.29641,0.363754 -2.207955,0.362674 -3.403414,-0.004 z"
       id="path2998" />
    <path
       style="fill:#ffffff"
       d="m 17.285924,48.102753 c -0.468686,-0.595838 -0.51099,-1.975761 -0.07946,-2.591859 0.265307,-0.378779 0.405812,-0.41557 1.302933,-0.341174 1.043362,0.08652 1.673255,0.540542 1.67174,1.204968 -0.0018,0.802388 -1.408513,2.204657 -2.213397,2.206451 -0.167742,3.81e-4 -0.47456,-0.2149 -0.681818,-0.478386 l 0,0 z"
       id="path3000" />
    <path
       style="fill:#ffffff"
       d="m 45.636364,48.486164 c -1.168685,-0.918584 -1.63442,-1.545161 -1.635461,-2.200265 -0.0012,-0.786988 0.410951,-1.060171 1.605832,-1.064253 0.898846,-0.0031 1.040509,0.04805 1.24995,0.451081 0.150114,0.288866 0.219282,0.983989 0.189764,1.90708 -0.05561,1.738949 -0.218004,1.843332 -1.410085,0.906357 z"
       id="path3002" />
    <path
       style="fill:#ffffff"
       d="m 16.301436,42.640831 c -0.06754,-0.06754 -0.07014,-0.754346 -0.0058,-1.526224 0.06437,-0.77188 0.06418,-1.614038 -4.37e-4,-1.871464 -0.06461,-0.257426 -0.797727,-1.145625 -1.629156,-1.973776 -1.710826,-1.704082 -2.779354,-3.388628 -3.487444,-5.49799 -0.848819,-2.528589 -0.903344,-5.556323 -0.124314,-6.903129 0.395666,-0.684039 1.688329,-1.57673 3.084294,-2.129962 0.804221,-0.31872 1.418071,-0.415237 2.679568,-0.421313 1.579905,-0.0076 1.692822,0.02018 3.272727,0.805501 1.256802,0.624716 1.95695,1.130798 3.01847,2.181818 1.697141,1.680353 2.719336,3.615883 4.155489,7.868435 l 0.967096,2.863637 3.768036,0 3.768036,0 0.967097,-2.863637 c 1.436152,-4.252552 2.458347,-6.188082 4.155487,-7.868435 1.061522,-1.05102 1.761669,-1.557102 3.018471,-2.181818 1.579905,-0.785319 1.692822,-0.813111 3.272727,-0.805501 1.828786,0.0088 3.049609,0.384856 4.588658,1.41343 1.11446,0.744814 1.615957,1.728374 1.781386,3.493741 0.320867,3.424125 -1.608869,7.961316 -4.308584,10.130328 -0.404569,0.325041 -0.942916,0.944703 -1.196329,1.377028 -0.432567,0.737966 -0.453254,0.885323 -0.338225,2.409091 0.06739,0.892674 0.08082,1.623045 0.02985,1.623045 -0.05097,0 -1.729142,-0.526465 -3.729271,-1.169923 -9.000102,-2.895411 -13.576033,-2.97323 -22.518177,-0.382949 -1.87012,0.54172 -3.758232,1.112729 -4.195805,1.268909 -0.926579,0.330718 -0.838592,0.316451 -0.993886,0.161158 l 0,0 z m 7.333493,-5.294485 c 0.34921,-0.17049 0.742255,-0.514528 0.873433,-0.764528 0.556038,-1.059705 -0.178859,-4.13817 -1.625471,-6.809053 -0.844568,-1.559328 -2.187507,-2.912532 -3.561933,-3.58916 -1.077358,-0.530381 -1.351044,-0.587589 -2.75849,-0.576592 -2.672208,0.02088 -3.201042,0.496848 -3.195305,2.8759 0.0033,1.348795 0.06413,1.587053 0.782781,3.063487 1.295215,2.660964 3.815863,4.960763 6.558631,5.983992 0.951176,0.35485 1.951396,0.291943 2.926354,-0.184046 z m 21.001435,-0.479669 c 3.804867,-1.88862 6.413467,-5.856725 6.004098,-9.133209 -0.168709,-1.35029 -0.627607,-1.83077 -1.982982,-2.076239 -3.098425,-0.561149 -6.039604,1.132018 -7.708149,4.437399 -1.787642,3.541314 -2.162749,6.559737 -0.891886,7.176861 0.755775,0.367001 0.94782,0.395136 2.124373,0.311221 0.865342,-0.06172 1.522638,-0.253463 2.454546,-0.716033 l 0,0 z"
       id="path3004" />
    <path
       style="fill:#ffffff"
       d="m 27.545004,19.854047 c -0.525682,-0.580871 -0.121189,-1.543844 1.287666,-3.065538 l 1.194333,-1.28999 -1.08365,-1.503805 c -1.288596,-1.788214 -1.670626,-2.505531 -1.670626,-3.136846 0,-1.1545639 1.132705,-0.710694 3.236269,1.268188 l 1.491962,1.403531 1.511732,-1.42843 c 0.831452,-0.785636 1.724933,-1.541154 1.985512,-1.678929 0.945055,-0.4996731 1.947617,0.226105 1.594672,1.154421 -0.09648,0.253771 -0.867668,1.227866 -1.713743,2.164655 l -1.53832,1.703252 0.55672,0.523177 c 1.13334,1.065055 2.329742,2.639079 2.329742,3.065083 0,0.57894 -0.457793,1.003548 -1.081979,1.003548 -0.375918,0 -0.925739,-0.362984 -2.085022,-1.376499 l -1.574473,-1.376498 -1.40199,1.258605 c -1.990656,1.787067 -2.435228,1.979021 -3.038805,1.312075 z"
       id="path3008" />
  </g>
</svg>
