<?xml version="1.0" encoding="UTF-8" standalone="no"?>
<!-- Created with Inkscape (http://www.inkscape.org/) -->

<svg
   xmlns:dc="http://purl.org/dc/elements/1.1/"
   xmlns:cc="http://creativecommons.org/ns#"
   xmlns:rdf="http://www.w3.org/1999/02/22-rdf-syntax-ns#"
   xmlns:svg="http://www.w3.org/2000/svg"
   xmlns="http://www.w3.org/2000/svg"
   xmlns:sodipodi="http://sodipodi.sourceforge.net/DTD/sodipodi-0.dtd"
   xmlns:inkscape="http://www.inkscape.org/namespaces/inkscape"
   width="64px"
   height="64px"
   id="svg2816"
   version="1.1"
   inkscape:version="0.47 r22583"
   sodipodi:docname="bb.svg">
  <defs
     id="defs2818">
    <inkscape:perspective
       sodipodi:type="inkscape:persp3d"
       inkscape:vp_x="0 : 32 : 1"
       inkscape:vp_y="0 : 1000 : 0"
       inkscape:vp_z="64 : 32 : 1"
       inkscape:persp3d-origin="32 : 21.333333 : 1"
       id="perspective2824" />
    <inkscape:perspective
       id="perspective2838"
       inkscape:persp3d-origin="0.5 : 0.33333333 : 1"
       inkscape:vp_z="1 : 0.5 : 1"
       inkscape:vp_y="0 : 1000 : 0"
       inkscape:vp_x="0 : 0.5 : 1"
       sodipodi:type="inkscape:persp3d" />
    <inkscape:perspective
       id="perspective2870"
       inkscape:persp3d-origin="0.5 : 0.33333333 : 1"
       inkscape:vp_z="1 : 0.5 : 1"
       inkscape:vp_y="0 : 1000 : 0"
       inkscape:vp_x="0 : 0.5 : 1"
       sodipodi:type="inkscape:persp3d" />
    <inkscape:perspective
       id="perspective2900"
       inkscape:persp3d-origin="0.5 : 0.33333333 : 1"
       inkscape:vp_z="1 : 0.5 : 1"
       inkscape:vp_y="0 : 1000 : 0"
       inkscape:vp_x="0 : 0.5 : 1"
       sodipodi:type="inkscape:persp3d" />
    <inkscape:perspective
       id="perspective2922"
       inkscape:persp3d-origin="0.5 : 0.33333333 : 1"
       inkscape:vp_z="1 : 0.5 : 1"
       inkscape:vp_y="0 : 1000 : 0"
       inkscape:vp_x="0 : 0.5 : 1"
       sodipodi:type="inkscape:persp3d" />
    <inkscape:perspective
       id="perspective2954"
       inkscape:persp3d-origin="0.5 : 0.33333333 : 1"
       inkscape:vp_z="1 : 0.5 : 1"
       inkscape:vp_y="0 : 1000 : 0"
       inkscape:vp_x="0 : 0.5 : 1"
       sodipodi:type="inkscape:persp3d" />
    <inkscape:perspective
       id="perspective2972"
       inkscape:persp3d-origin="0.5 : 0.33333333 : 1"
       inkscape:vp_z="1 : 0.5 : 1"
       inkscape:vp_y="0 : 1000 : 0"
       inkscape:vp_x="0 : 0.5 : 1"
       sodipodi:type="inkscape:persp3d" />
    <inkscape:perspective
       id="perspective2988"
       inkscape:persp3d-origin="0.5 : 0.33333333 : 1"
       inkscape:vp_z="1 : 0.5 : 1"
       inkscape:vp_y="0 : 1000 : 0"
       inkscape:vp_x="0 : 0.5 : 1"
       sodipodi:type="inkscape:persp3d" />
    <inkscape:perspective
       id="perspective3037"
       inkscape:persp3d-origin="0.5 : 0.33333333 : 1"
       inkscape:vp_z="1 : 0.5 : 1"
       inkscape:vp_y="0 : 1000 : 0"
       inkscape:vp_x="0 : 0.5 : 1"
       sodipodi:type="inkscape:persp3d" />
    <inkscape:perspective
       id="perspective3063"
       inkscape:persp3d-origin="0.5 : 0.33333333 : 1"
       inkscape:vp_z="1 : 0.5 : 1"
       inkscape:vp_y="0 : 1000 : 0"
       inkscape:vp_x="0 : 0.5 : 1"
       sodipodi:type="inkscape:persp3d" />
    <inkscape:perspective
       id="perspective3083"
       inkscape:persp3d-origin="0.5 : 0.33333333 : 1"
       inkscape:vp_z="1 : 0.5 : 1"
       inkscape:vp_y="0 : 1000 : 0"
       inkscape:vp_x="0 : 0.5 : 1"
       sodipodi:type="inkscape:persp3d" />
    <inkscape:perspective
       id="perspective3111"
       inkscape:persp3d-origin="0.5 : 0.33333333 : 1"
       inkscape:vp_z="1 : 0.5 : 1"
       inkscape:vp_y="0 : 1000 : 0"
       inkscape:vp_x="0 : 0.5 : 1"
       sodipodi:type="inkscape:persp3d" />
  </defs>
  <sodipodi:namedview
     id="base"
     pagecolor="#ffffff"
     bordercolor="#666666"
     borderopacity="1.0"
     inkscape:pageopacity="0.0"
     inkscape:pageshadow="2"
     inkscape:zoom="5.5"
     inkscape:cx="32"
     inkscape:cy="32"
     inkscape:current-layer="layer1"
     showgrid="true"
     inkscape:document-units="px"
     inkscape:grid-bbox="true"
     inkscape:window-width="1365"
     inkscape:window-height="878"
     inkscape:window-x="-8"
     inkscape:window-y="-8"
     inkscape:window-maximized="1" />
  <metadata
     id="metadata2821">
    <rdf:RDF>
      <cc:Work
         rdf:about="">
        <dc:format>image/svg+xml</dc:format>
        <dc:type
           rdf:resource="http://purl.org/dc/dcmitype/StillImage" />
        <dc:title></dc:title>
      </cc:Work>
    </rdf:RDF>
  </metadata>
  <g
     id="layer1"
     inkscape:label="Layer 1"
     inkscape:groupmode="layer">
    <text
       xml:space="preserve"
       style="font-size:64px;font-style:normal;font-weight:normal;fill:#000000;fill-opacity:1;stroke:none;font-family:babaschess fritzright;-inkscape-font-specification:babaschess fritzright"
       x="0"
       y="64"
       id="text2826"><tspan
         sodipodi:role="line"
         id="tspan2828"
         x="0"
         y="64" /></text>
    <path
       style="fill:#000000"
       d="m 21.54083,56.05195 c -1.976471,-2.190216 -0.911249,-4.507514 4.055649,-8.822705 4.451338,-3.867277 7.080315,-8.0981 7.110777,-11.443399 0.01464,-1.607538 -0.08321,-1.655784 -1.249615,-0.616124 -0.696022,0.620393 -2.529353,1.6516 -4.074068,2.291572 -1.544716,0.639972 -4.170764,2.630529 -5.835662,4.42346 -2.218102,2.388675 -3.577244,3.259875 -5.08567,3.259875 l -2.058581,0 2.696941,-2.356922 c 2.446124,-2.137725 2.602037,-2.485254 1.676467,-3.736826 -1.282722,-1.73452 -2.311592,-1.111645 -4.157474,2.516919 -1.598715,3.142695 -2.755039,3.529228 -4.563304,1.525407 -1.9541329,-2.165461 -1.4766946,-5.368646 1.327437,-8.90592 1.388324,-1.751303 3.19877,-5.206177 4.023213,-7.677498 0.824443,-2.471321 2.170879,-5.349924 2.992079,-6.396894 1.246483,-1.589174 1.358334,-2.200189 0.6772,-3.699386 -1.130574,-2.488427 -1.072756,-6.339292 0.08803,-5.863354 3.47875,1.426329 3.434917,1.432716 3.434917,-0.500457 0,-2.4701985 1.031093,-2.3950519 2.955589,0.215406 1.127181,1.52895 2.385035,2.231198 4.590601,2.562888 4.6884,0.705078 11.585259,4.326149 15.261252,8.012644 4.365511,4.377984 8.09084,12.261736 8.917955,18.872683 0.471283,3.766863 0.102937,14.837963 -0.584855,17.57852 -0.02502,0.09972 -6.99145,0.181302 -15.480943,0.181302 -14.411268,0 -15.52054,-0.0943 -16.717939,-1.421191 z m 30.991303,-2.626758 c 0.241416,-0.630918 0.438938,-4.028444 0.438938,-7.550058 0,-10.45607 -3.432703,-18.790453 -10.387028,-25.219041 -3.677757,-3.399724 -9.494318,-5.902653 -10.76224,-4.631108 -1.067709,1.07076 -0.213307,1.870765 3.146328,2.946018 4.258883,1.363058 8.309258,5.430679 11.117426,11.164762 3.147348,6.426666 4.287405,12.302451 3.721192,19.178802 -0.39661,4.816605 -0.318852,5.257747 0.926756,5.257747 0.74783,0 1.557212,-0.516205 1.798628,-1.147122 z M 13.744435,39.886881 c 0.39775,-0.49858 0.947644,-1.64078 1.221987,-2.538223 0.40381,-1.320964 0.218934,-1.631715 -0.970765,-1.631715 -1.511435,0 -2.966735,1.933195 -2.966735,3.94096 0,1.358612 1.699975,1.501957 2.715513,0.228978 z m 8.796812,-11.240702 c 0.409064,-0.704327 0.74687,-0.865694 0.759074,-0.362604 0.0313,1.290453 1.468271,1.129378 1.468271,-0.164583 0,-1.419655 -3.31398,-3.551438 -4.694831,-3.020042 -1.092351,0.420372 -1.51403,3.424451 -0.608199,4.332869 0.873393,0.875889 2.326223,0.504784 3.075685,-0.78564 z m 3.265224,-11.708617 c 0.220053,-0.357069 -0.08616,-0.83634 -0.680463,-1.065049 -0.594306,-0.228708 -1.080557,-0.915591 -1.080557,-1.526404 0,-0.610814 -0.325413,-1.11057 -0.72314,-1.11057 -0.804339,0 -0.998072,3.10858 -0.241047,3.867768 0.689857,0.691828 2.255386,0.596614 2.725207,-0.165745 z"
       id="path3117" />
    <path
       style="fill:#ffffff"
       d="m 49.981998,54.20018 c -0.368089,-0.368089 -0.376158,-0.476215 -0.227273,-3.045455 0.262326,-4.52684 0.162848,-8.570421 -0.269056,-10.936543 -0.490143,-2.685177 -1.265951,-5.284177 -2.316134,-7.759178 -2.996637,-7.062272 -7.05629,-11.620659 -11.960387,-13.429735 -2.145996,-0.791638 -3.543006,-1.521745 -3.668536,-1.917253 -0.06731,-0.212061 0.0067,-0.553752 0.175774,-0.811827 0.251414,-0.383706 0.431196,-0.445644 1.293541,-0.445644 2.774683,0 7.071988,2.423009 10.626437,5.991651 4.90316,4.92274 7.785929,10.800994 8.831518,18.008349 0.365853,2.521875 0.506631,7.690479 0.293798,10.786784 -0.202851,2.951075 -0.304996,3.213451 -1.437658,3.692856 -0.773371,0.327333 -0.892591,0.315428 -1.342024,-0.134005 z"
       id="path3119" />
    <path
       style="fill:#ffffff"
       d="M 23.260973,17.154315 C 22.485888,16.52669 22.577368,13.4 23.370816,13.4 c 0.228402,0 0.404393,0.187148 0.512935,0.545455 0.388246,1.281626 0.550405,1.5438 1.235143,1.996938 0.811135,0.536784 0.859706,0.95605 0.152223,1.313996 -0.653852,0.330812 -1.530529,0.286295 -2.010144,-0.102074 l 0,0 z"
       id="path3121" />
    <path
       style="fill:#ffffff"
       d="m 19.876578,29.647081 c -0.583776,-0.295007 -0.84036,-1.095213 -0.750319,-2.340011 0.15018,-2.076217 1.211418,-2.666358 3.098509,-1.72304 1.082405,0.541072 1.869003,1.221656 2.246009,1.943305 0.331149,0.633868 0.323873,0.961132 -0.02922,1.314223 -0.436776,0.436777 -0.804256,0.342669 -1.014257,-0.25974 -0.104581,-0.3 -0.239079,-0.545454 -0.298886,-0.545454 -0.05981,0 -0.44044,0.372154 -0.84585,0.82701 -0.795427,0.892439 -1.643911,1.168818 -2.405987,0.783707 z"
       id="path3123" />
    <path
       style="fill:#ffffff"
       d="m 11.479254,40.472372 c -0.373376,-0.263957 -0.419017,-0.416476 -0.347464,-1.161137 0.190079,-1.97819 1.47625,-3.45669 3.007032,-3.45669 0.992131,0 1.105639,0.266948 0.684833,1.610584 -0.789224,2.520002 -2.217259,3.804073 -3.344401,3.007243 z"
       id="path3125" />
  </g>
</svg>
