<?xml version="1.0" encoding="UTF-8" standalone="no"?>
<!-- Created with Inkscape (http://www.inkscape.org/) -->

<svg
   xmlns:dc="http://purl.org/dc/elements/1.1/"
   xmlns:cc="http://creativecommons.org/ns#"
   xmlns:rdf="http://www.w3.org/1999/02/22-rdf-syntax-ns#"
   xmlns:svg="http://www.w3.org/2000/svg"
   xmlns="http://www.w3.org/2000/svg"
   xmlns:sodipodi="http://sodipodi.sourceforge.net/DTD/sodipodi-0.dtd"
   xmlns:inkscape="http://www.inkscape.org/namespaces/inkscape"
   width="64px"
   height="64px"
   id="svg2816"
   version="1.1"
   inkscape:version="0.47 r22583"
   sodipodi:docname="USCF.svg">
  <defs
     id="defs2818">
    <inkscape:perspective
       sodipodi:type="inkscape:persp3d"
       inkscape:vp_x="0 : 32 : 1"
       inkscape:vp_y="0 : 1000 : 0"
       inkscape:vp_z="64 : 32 : 1"
       inkscape:persp3d-origin="32 : 21.333333 : 1"
       id="perspective2824" />
    <inkscape:perspective
       id="perspective2838"
       inkscape:persp3d-origin="0.5 : 0.33333333 : 1"
       inkscape:vp_z="1 : 0.5 : 1"
       inkscape:vp_y="0 : 1000 : 0"
       inkscape:vp_x="0 : 0.5 : 1"
       sodipodi:type="inkscape:persp3d" />
  </defs>
  <sodipodi:namedview
     id="base"
     pagecolor="#ffffff"
     bordercolor="#666666"
     borderopacity="1.0"
     inkscape:pageopacity="0.0"
     inkscape:pageshadow="2"
     inkscape:zoom="5.5"
     inkscape:cx="32"
     inkscape:cy="32"
     inkscape:current-layer="layer1"
     showgrid="true"
     inkscape:document-units="px"
     inkscape:grid-bbox="true"
     inkscape:window-width="1365"
     inkscape:window-height="878"
     inkscape:window-x="-8"
     inkscape:window-y="-8"
     inkscape:window-maximized="1" />
  <metadata
     id="metadata2821">
    <rdf:RDF>
      <cc:Work
         rdf:about="">
        <dc:format>image/svg+xml</dc:format>
        <dc:type
           rdf:resource="http://purl.org/dc/dcmitype/StillImage" />
        <dc:title></dc:title>
      </cc:Work>
    </rdf:RDF>
  </metadata>
  <g
     id="layer1"
     inkscape:label="Layer 1"
     inkscape:groupmode="layer">
    <text
       xml:space="preserve"
       style="font-size:64px;font-style:normal;font-weight:normal;fill:#000000;fill-opacity:1;stroke:none;font-family:babaschess fritzright;-inkscape-font-specification:babaschess fritzright"
       x="0"
       y="64"
       id="text2826"><tspan
         sodipodi:role="line"
         id="tspan2828"
         x="0"
         y="64" /></text>
    <path
       style="fill:#000000"
       d="M 26.472106,56.350046 C 20.486318,55.749707 17.748805,54.808276 16.81462,53.028833 16.440295,52.315815 15.900951,49.19495 15.616079,46.093578 15.122817,40.723483 14.94152,40.279389 11.812357,36.776194 7.7836806,32.265967 6.5289247,29.414781 6.5289247,24.770633 c 0,-4.090367 2.0588137,-7.189876 5.7989873,-8.730279 2.954255,-1.216721 8.055773,-0.559059 10.814526,1.394153 l 2.241858,1.587248 0,-6.178233 0,-6.1782327 7.252066,0 7.252066,0 0,6.1782327 0,6.178233 2.241859,-1.587248 c 2.758752,-1.953212 7.86027,-2.610874 10.814526,-1.394153 3.740173,1.540403 5.798987,4.639912 5.798987,8.730279 0,4.663967 -1.368629,7.768353 -5.283489,11.984249 -3.058962,3.294185 -3.226424,3.708347 -3.941253,9.747366 -0.410602,3.468851 -1.129916,6.766297 -1.598475,7.327659 -1.777227,2.129226 -12.630833,3.404496 -21.448477,2.520139 z m 18.67407,-2.790548 c 2.577453,-1.26259 2.513137,-1.79497 -0.362603,-3.001461 -3.273955,-1.373556 -21.039877,-1.365333 -24.321753,0.01126 -5.83976,2.449501 0.486033,4.436847 13.262352,4.166574 6.087769,-0.128781 10.134207,-0.545531 11.422004,-1.17637 z m -23.81656,-4.719163 c 2.198371,-0.6631 6.522955,-1.073807 11.306746,-1.073807 4.783791,0 9.108375,0.410707 11.306746,1.073807 1.957994,0.590593 3.641575,1.077318 3.741291,1.081611 0.09972,0.0043 0.181302,-0.765559 0.181302,-1.710781 0,-1.112159 -0.511798,-1.851662 -1.450413,-2.095716 -2.139356,-0.556267 -1.852146,-2.675367 0.362603,-2.675367 1.515721,0 1.813016,-0.341768 1.813016,-2.08423 0,-1.990818 -0.254106,-2.152404 -5.669737,-3.605372 -7.187359,-1.928307 -13.382256,-1.928307 -20.569616,0 -5.41563,1.452968 -5.669737,1.614554 -5.669737,3.605372 0,1.742462 0.297295,2.08423 1.813017,2.08423 2.214749,0 2.501959,2.1191 0.362603,2.675367 -0.938615,0.244054 -1.450413,0.983557 -1.450413,2.095716 0,0.945222 0.08159,1.715074 0.181302,1.710781 0.09972,-0.0043 1.783296,-0.491018 3.74129,-1.081611 z m 8.587222,-5.156733 c -1.276177,-0.512014 -1.128068,-2.167913 0.240614,-2.690134 1.705932,-0.650898 4.148549,-0.510992 5.379737,0.308135 2.244698,1.493429 -2.657088,3.570889 -5.620351,2.381999 z M 20.798777,36.52176 c 2.187673,-0.63235 5.50133,-1.369959 7.363681,-1.63913 3.084064,-0.445749 3.363182,-0.648329 3.129216,-2.271133 -0.345276,-2.394858 -2.720306,-6.953294 -5.361344,-10.290119 -2.410299,-3.045297 -6.761473,-5.561048 -9.618239,-5.561048 -2.447424,0 -5.775875,1.738754 -7.2009203,3.761697 -2.4053473,3.414547 -0.6423227,10.455782 3.7974763,15.166505 2.179735,2.312747 2.613225,2.358525 7.89013,0.833228 z m 31.5653,-0.833228 c 4.439799,-4.710723 6.202824,-11.751958 3.797477,-15.166505 -1.425045,-2.022943 -4.753497,-3.761697 -7.20092,-3.761697 -2.684465,0 -7.105518,2.428551 -9.459362,5.19617 -2.520824,2.963953 -6.413076,11.086447 -5.791644,12.086217 0.254511,0.40946 1.504101,0.770438 2.776868,0.802175 1.272768,0.03174 4.27218,0.642345 6.665362,1.356909 6.047955,1.805817 7.080743,1.748274 9.212219,-0.513269 z m -17.027525,-10.287311 2.337587,-4.314445 -5.057111,0 c -4.996417,0 -5.983715,0.500936 -4.081323,2.070784 0.536683,0.442869 1.565275,2.105018 2.28576,3.693663 0.720484,1.588645 1.505165,2.883045 1.743736,2.876444 0.23857,-0.0066 1.485679,-1.953501 2.771351,-4.326446 z m 0.925843,-6.351974 c 0,-0.32746 -0.825357,-1.366345 -1.834126,-2.308635 l -1.834127,-1.713255 -2.321865,2.308636 -2.321865,2.308635 4.155992,0 c 2.285795,0 4.155991,-0.267922 4.155991,-0.595381 z m -6.507028,-6.95491 c -0.947689,-1.003022 -1.992529,-1.823676 -2.321864,-1.823676 -0.329336,0 -0.598793,1.85954 -0.598793,4.132311 l 0,4.13231 2.321865,-2.308635 2.321865,-2.308635 -1.723073,-1.823675 z m 8.338749,-1.684899 c -0.233893,-0.232561 -1.2987,0.445626 -2.366238,1.507082 l -1.940978,1.929918 2.144256,2.231958 2.144256,2.231957 0.221981,-3.739039 c 0.12209,-2.056473 0.03062,-3.929317 -0.203277,-4.161876 z m -3.510176,0.456604 c 2.44179,-2.2808713 2.10451,-2.758604 -1.947578,-2.758604 -1.994318,0 -3.626033,0.2224493 -3.626033,0.4943318 0,0.5844163 2.986916,3.8321142 3.524405,3.8321142 0.203913,0 1.126056,-0.705529 2.049206,-1.567842 z"
       id="path2844" />
    <path
       style="fill:#ffffff"
       d="m 28,54.641955 c -4.929099,-0.215282 -9.244547,-1.119513 -9.585693,-2.008524 -0.203362,-0.529953 0.301465,-1.113967 1.437612,-1.663118 1.984547,-0.95922 5.262904,-1.292928 12.729087,-1.29571 7.616521,-0.0028 11.225309,0.382689 13.091427,1.398556 1.258762,0.685239 1.46604,1.052426 0.873022,1.54654 -0.87102,0.72575 -2.292777,1.233792 -4.19928,1.500546 C 39.169398,54.564734 32.109919,54.821457 28,54.641955 z"
       id="path2846" />
    <path
       style="fill:#ffffff"
       d="m 17.568917,49.577397 c -0.209963,-0.547154 -0.117683,-1.916325 0.16615,-2.465197 0.183337,-0.354533 0.626584,-0.706322 1.279417,-1.015424 1.095307,-0.518603 1.437771,-0.955302 1.270817,-1.620502 -0.154834,-0.616907 -0.792263,-0.970922 -2.025608,-1.124983 -1.247127,-0.155783 -1.525354,-0.500262 -1.52974,-1.894 -0.0059,-1.869805 0.382577,-2.1692 4.203987,-3.240104 5.118791,-1.434481 6.950345,-1.70065 11.702424,-1.70065 4.752078,0 6.583632,0.266169 11.702423,1.70065 3.821409,1.070904 4.209871,1.370299 4.203988,3.240104 -0.0044,1.393738 -0.282613,1.738217 -1.52974,1.894 -1.233346,0.154061 -1.870775,0.508076 -2.025608,1.124983 -0.166954,0.6652 0.175509,1.101899 1.270817,1.620502 1.173847,0.555791 1.561205,1.160419 1.557154,2.430559 -0.0044,1.375274 -0.01835,1.379404 -2.364516,0.699239 -2.942271,-0.852979 -5.001351,-1.166054 -9.199978,-1.398817 -4.070885,-0.225681 -9.644483,-0.01108 -12.53583,0.48267 -1.340439,0.228903 -4.935611,1.144375 -5.806465,1.478553 -0.123927,0.04755 -0.276788,-0.04766 -0.339692,-0.211583 z m 17.188207,-6.125596 c 2.395491,-1.097762 1.508856,-2.604623 -1.660372,-2.821847 -1.89917,-0.130172 -3.333521,0.279912 -3.829042,1.094732 -0.536615,0.882393 -0.116532,1.784606 0.990229,2.126711 1.051669,0.325076 3.366461,0.119488 4.499185,-0.399596 z"
       id="path2848" />
    <path
       style="fill:#ffffff"
       d="m 14.762351,37.186307 c -0.83021,-0.40914 -2.966472,-2.772943 -3.993997,-4.419412 -1.8053202,-2.89278 -2.671828,-5.841808 -2.556941,-8.702162 0.088844,-2.211962 0.6145379,-3.423401 2.027178,-4.671548 1.177833,-1.040682 3.498446,-2.179611 4.974381,-2.441367 2.681183,-0.475505 6.510539,1.203206 9.49367,4.161832 2.874871,2.851254 6.566085,9.664393 6.566085,12.119492 0,0.891647 -0.453629,1.101093 -3.71656,1.71598 -1.569743,0.295813 -4.623996,0.988729 -6.787228,1.539814 -4.187173,1.066686 -5.053171,1.167229 -6.006588,0.697371 z"
       id="path2850" />
    <path
       style="fill:#ffffff"
       d="m 47.909091,37.294635 c -0.6,-0.07469 -1.827273,-0.342004 -2.727273,-0.594028 -3.580789,-1.002712 -6.104581,-1.56978 -8.183831,-1.838814 -3.20768,-0.415041 -3.491937,-0.582258 -3.157301,-1.857321 0.926817,-3.531447 4.200676,-9.486032 6.464393,-11.757617 2.928533,-2.93871 7.084476,-4.768594 9.754677,-4.295037 1.475935,0.261756 3.796548,1.400685 4.97438,2.441367 1.430864,1.264248 1.9438,2.462762 2.025106,4.731808 0.135542,3.782659 -1.492017,7.837544 -4.489782,11.185796 -1.648878,1.84166 -2.588726,2.241738 -4.660369,1.983846 z"
       id="path2852" />
    <path
       style="fill:#ffffff"
       d="m 28.212121,19.530121 c 0.03333,-0.07843 1.049747,-1.099699 2.258696,-2.269479 l 2.198091,-2.126873 1.594467,1.600242 c 1.765748,1.772144 2.047152,2.155462 1.779136,2.423478 -0.34128,0.34128 -7.971379,0.70438 -7.83039,0.372632 l 0,0 z"
       id="path2854" />
    <path
       style="fill:#ffffff"
       d="M 26.959182,14.759256 C 27.058866,11.038908 27.149343,10.4 27.576502,10.4 c 0.14375,0 1.075914,0.790404 2.071475,1.756454 1.757557,1.705458 1.800821,1.766764 1.490158,2.111571 -0.175974,0.195314 -1.209576,1.182484 -2.296894,2.193711 l -1.97694,1.838593 0.09488,-3.541073 z"
       id="path2856" />
    <path
       style="fill:#ffffff"
       d="M 31.202148,11.263636 C 29.566047,9.6151391 28.983283,8.7985354 29.251519,8.530299 29.391875,8.3899431 30.37743,8.2905736 32.052223,8.2479152 c 3.82448,-0.097413 4.50716,0.2025544 3.4915,1.5341523 C 35.025595,10.461368 32.766653,12.4 32.493243,12.4 c -0.0898,0 -0.670795,-0.511364 -1.291095,-1.136364 z"
       id="path2858" />
    <path
       style="fill:#ffffff"
       d="M 36.542332,16.633271 C 35.790615,15.854972 34.893927,14.910237 34.549693,14.53386 l -0.62588,-0.684322 1.265366,-1.276209 c 1.449288,-1.461707 2.521215,-2.261406 2.800145,-2.089018 0.209112,0.129238 0.238687,6.158995 0.03462,7.058051 -0.114169,0.502989 -0.122982,0.497581 -1.481611,-0.909091 l 0,0 z"
       id="path2860" />
  </g>
</svg>
