<?xml version="1.0" encoding="UTF-8" standalone="no"?>
<!-- Created with Inkscape (http://www.inkscape.org/) -->

<svg
   xmlns:dc="http://purl.org/dc/elements/1.1/"
   xmlns:cc="http://creativecommons.org/ns#"
   xmlns:rdf="http://www.w3.org/1999/02/22-rdf-syntax-ns#"
   xmlns:svg="http://www.w3.org/2000/svg"
   xmlns="http://www.w3.org/2000/svg"
   xmlns:sodipodi="http://sodipodi.sourceforge.net/DTD/sodipodi-0.dtd"
   xmlns:inkscape="http://www.inkscape.org/namespaces/inkscape"
   width="64px"
   height="64px"
   id="svg2816"
   version="1.1"
   inkscape:version="0.47 r22583"
   sodipodi:docname="wk.svg">
  <defs
     id="defs2818">
    <inkscape:perspective
       sodipodi:type="inkscape:persp3d"
       inkscape:vp_x="0 : 32 : 1"
       inkscape:vp_y="0 : 1000 : 0"
       inkscape:vp_z="64 : 32 : 1"
       inkscape:persp3d-origin="32 : 21.333333 : 1"
       id="perspective2824" />
    <inkscape:perspective
       id="perspective2838"
       inkscape:persp3d-origin="0.5 : 0.33333333 : 1"
       inkscape:vp_z="1 : 0.5 : 1"
       inkscape:vp_y="0 : 1000 : 0"
       inkscape:vp_x="0 : 0.5 : 1"
       sodipodi:type="inkscape:persp3d" />
    <inkscape:perspective
       id="perspective2870"
       inkscape:persp3d-origin="0.5 : 0.33333333 : 1"
       inkscape:vp_z="1 : 0.5 : 1"
       inkscape:vp_y="0 : 1000 : 0"
       inkscape:vp_x="0 : 0.5 : 1"
       sodipodi:type="inkscape:persp3d" />
  </defs>
  <sodipodi:namedview
     id="base"
     pagecolor="#ffffff"
     bordercolor="#666666"
     borderopacity="1.0"
     inkscape:pageopacity="0.0"
     inkscape:pageshadow="2"
     inkscape:zoom="5.5"
     inkscape:cx="32"
     inkscape:cy="32"
     inkscape:current-layer="layer1"
     showgrid="true"
     inkscape:document-units="px"
     inkscape:grid-bbox="true"
     inkscape:window-width="1365"
     inkscape:window-height="878"
     inkscape:window-x="-8"
     inkscape:window-y="-8"
     inkscape:window-maximized="1" />
  <metadata
     id="metadata2821">
    <rdf:RDF>
      <cc:Work
         rdf:about="">
        <dc:format>image/svg+xml</dc:format>
        <dc:type
           rdf:resource="http://purl.org/dc/dcmitype/StillImage" />
        <dc:title></dc:title>
      </cc:Work>
    </rdf:RDF>
  </metadata>
  <g
     id="layer1"
     inkscape:label="Layer 1"
     inkscape:groupmode="layer">
    <text
       xml:space="preserve"
       style="font-size:64px;font-style:normal;font-weight:normal;fill:#000000;fill-opacity:1;stroke:none;font-family:babaschess fritzright;-inkscape-font-specification:babaschess fritzright"
       x="0"
       y="64"
       id="text2826"><tspan
         sodipodi:role="line"
         id="tspan2828"
         x="0"
         y="64" /></text>
    <path
       style="fill:#000000"
       d="M 22.930767,57.292836 C 16.840846,56.089845 16.787255,56.009324 15.515695,46.151859 14.486293,38.171665 10.738282,28.674737 8.0725245,27.291915 6.3965918,26.422551 6.0853941,25.843607 6.2698384,23.938244 6.4739685,21.829521 6.7055804,21.63533 9.016527,21.63533 c 2.395843,0 2.535103,0.137055 2.747557,2.704029 0.123088,1.487216 0.484074,2.704029 0.802192,2.704029 0.318117,0 1.83785,1.000889 3.377183,2.224197 l 2.798788,2.224197 1.297008,-4.567689 c 0.713355,-2.512228 1.906497,-6.09054 2.651426,-7.951802 1.162534,-2.904682 1.209258,-3.504585 0.3298,-4.23447 -1.705535,-1.415468 -1.254297,-4.205411 0.834068,-5.1569346 3.237111,-1.4749259 6.129892,2.1687876 3.876972,4.8833896 -0.650231,0.78348 -0.660453,1.288047 -0.04121,2.034188 0.452929,0.545746 1.746731,2.680513 2.875116,4.743926 l 2.05161,3.751661 2.627356,-4.779888 c 2.131288,-3.877403 2.482513,-5.050532 1.860211,-6.213313 -0.421929,-0.788383 -0.5653,-2.069379 -0.318601,-2.846659 0.557851,-1.7576307 3.604215,-2.6076923 5.048772,-1.4088167 1.257374,1.0435277 1.412113,3.6903797 0.281824,4.8206687 -0.573183,0.573183 -0.290925,2.247816 1.026981,6.093079 0.999574,2.91646 2.040343,6.519467 2.312822,8.006683 0.272479,1.487216 0.618738,2.704029 0.769465,2.704029 0.150727,0 1.818153,-1.178928 3.705391,-2.61984 2.363895,-1.804842 3.358897,-3.051962 3.198465,-4.008904 -0.309713,-1.84736 1.120048,-3.466297 3.061251,-3.466297 3.658708,0 4.438296,3.740663 1.170456,5.616146 -2.947079,1.691391 -6.368377,10.533985 -7.728826,19.975711 -1.193423,8.282535 -1.849777,9.194182 -7.490439,10.403888 -4.164069,0.893033 -14.741317,0.90531 -19.211399,0.02229 z m 21.650567,-2.382448 c 1.515758,-0.636364 2.556629,-1.479492 2.313047,-1.873617 -2.176371,-3.521442 -27.135766,-3.135352 -28.305779,0.437855 -0.259973,0.793951 2.395355,1.925417 6.291561,2.680908 3.816549,0.740043 16.949711,-0.08999 19.701171,-1.245146 z M 26.498517,49.233124 c 4.297423,-0.654094 7.03914,-0.652519 11.897727,0.0069 3.472405,0.471236 6.949998,0.942642 7.727985,1.04757 2.181532,0.294226 2.180848,-1.941781 -8.66e-4,-2.935852 -2.311189,-1.053047 -1.982756,-2.561424 0.62494,-2.870129 1.491487,-0.176587 1.927314,-0.620295 1.927314,-1.962217 0,-1.523212 -0.63559,-1.930598 -5.227789,-3.350786 -7.002027,-2.165454 -14.906617,-2.148667 -22.051487,0.04683 -4.063665,1.248695 -5.189529,1.877179 -4.867252,2.717018 0.23059,0.600911 0.419256,1.390511 0.419256,1.754665 0,0.364155 0.629817,0.6621 1.399593,0.6621 2.154738,0 2.66057,1.564201 0.88671,2.742001 -0.860876,0.5716 -1.565229,1.686506 -1.565229,2.47757 0,1.147735 0.327759,1.344969 1.622418,0.976319 0.892329,-0.25409 4.135335,-0.844461 7.20668,-1.311939 z m 2.79598,-4.814374 c -1.728699,-1.094941 -0.119884,-2.2328 3.156947,-2.2328 3.276831,0 4.885646,1.137859 3.156946,2.2328 -0.546547,0.346178 -1.967173,0.629413 -3.156946,0.629413 -1.189773,0 -2.610399,-0.283235 -3.156947,-0.629413 z m 3.22187,-8.685103 c 3.170175,-0.03227 11.948819,1.768287 15.50901,3.181008 0.89625,0.355642 1.535847,-0.552382 2.877101,-4.084565 0.948561,-2.498027 1.836055,-4.78523 1.97221,-5.082673 0.590464,-1.289924 -1.283782,-0.345139 -4.103757,2.068655 -1.676712,1.435204 -3.209923,2.448106 -3.407135,2.250894 C 45.166584,33.869754 44.393692,31.1542 43.64626,28.032401 42.898826,24.910604 41.670221,20.907352 40.916025,19.136288 l -1.371266,-3.220116 -1.900284,3.24259 c -1.045156,1.783424 -2.469004,4.777075 -3.164107,6.652557 -0.695102,1.875482 -1.551453,3.314091 -1.903001,3.196909 -0.351547,-0.117183 -1.369119,-2.007215 -2.261269,-4.20007 -1.819976,-4.473399 -3.86479,-7.859811 -4.745983,-7.859811 -0.848614,0 -3.324086,6.961473 -4.384587,12.330251 -0.501383,2.538248 -0.988656,4.727961 -1.08283,4.866028 -0.09417,0.138067 -1.700297,-0.916505 -3.569165,-2.343492 -1.868869,-1.426987 -3.65791,-2.594523 -3.975646,-2.594523 -0.317737,0 0.162477,1.703538 1.067141,3.78564 0.904664,2.082103 1.828611,4.297555 2.053217,4.923228 0.363937,1.013805 1.102555,0.959025 6.7881,-0.503439 3.508849,-0.902564 8.03136,-1.657841 10.050022,-1.678393 z M 10.322999,24.34764 C 9.9610111,22.467989 7.5743783,22.258362 7.5743783,24.106218 c 0,1.031929 0.4630919,1.495021 1.4950207,1.495021 1.031929,0 1.42024,-0.38831 1.2536,-1.253599 z m 47.546527,-0.0079 c 0.394255,-1.184095 -1.865043,-2.029348 -2.834094,-1.060297 -0.414696,0.414695 -0.524873,1.124714 -0.244838,1.577819 0.637106,1.030861 2.677579,0.687888 3.078932,-0.517522 z M 26.682849,12.311578 c 0,-1.599876 -1.019715,-2.096655 -2.448565,-1.192879 -1.363393,0.862374 -0.412859,3.116123 1.184504,2.808499 0.695233,-0.13389 1.264061,-0.860919 1.264061,-1.61562 z m 14.539864,0.622391 c 0.238509,-0.621544 0.07984,-1.483897 -0.352608,-1.916341 -1.04112,-1.0411198 -3.079904,0.584655 -2.530058,2.01753 0.527482,1.374596 2.340779,1.310945 2.882666,-0.101189 z"
       id="path2876" />
    <path
       style="fill:#ffffff"
       d="m 46.818182,38.4713 c -1.650295,-0.588471 -5.648862,-1.550018 -9.090909,-2.186118 -4.932851,-0.911606 -7.62194,-0.707266 -15.818182,1.202 -4.684202,1.091156 -5.35414,1.193169 -5.771253,0.878793 -0.17419,-0.131286 -0.973134,-1.823213 -1.775432,-3.759839 -1.441579,-3.47975 -1.962627,-5.030158 -1.758944,-5.23384 0.145051,-0.145051 1.030767,0.421835 4.368968,2.796277 1.584837,1.127285 2.949402,2.049609 3.032368,2.049609 0.08296,0 0.328984,-0.797727 0.546708,-1.772727 1.025938,-4.594294 1.883665,-7.965385 2.555148,-10.042393 0.734387,-2.27158 1.96378,-5.129304 2.29458,-5.33375 0.482946,-0.298477 1.81645,1.410369 3.095702,3.967052 0.400284,0.8 1.244737,2.6 1.87656,4 1.1447,2.536436 1.815946,3.779971 2.15274,3.988122 0.336297,0.207843 1.131999,-1.145819 2.383566,-4.054965 1.146931,-2.665928 2.955943,-6.202856 4.177098,-8.166934 l 0.484482,-0.779231 1.113762,2.779231 c 1.074416,2.681052 1.900772,5.399653 3.481396,11.453336 0.921325,3.528609 1.016184,3.780441 1.423998,3.780441 0.179746,0 1.184044,-0.65772 2.231773,-1.4616 3.093825,-2.373766 4.394925,-3.265673 4.763911,-3.265673 0.433276,0 0.478405,-0.150537 -1.319984,4.402967 -1.487262,3.765735 -2.223782,5.119178 -2.817658,5.177784 -0.19672,0.01941 -0.930398,-0.168931 -1.630398,-0.418542 l 0,0 z"
       id="path2878" />
    <path
       style="fill:#ffffff"
       d="m 17.939394,50.460606 c -0.249551,-0.249551 -0.108243,-1.622095 0.217929,-2.116787 0.18521,-0.280899 0.757398,-0.899478 1.271529,-1.37462 0.666965,-0.616385 0.934784,-1.000218 0.934784,-1.339714 0,-0.666434 -0.734367,-1.181489 -1.890533,-1.325942 -0.529478,-0.06615 -1.061296,-0.181223 -1.181817,-0.25571 -0.261557,-0.161651 -0.798437,-2.339403 -0.663452,-2.691168 0.262756,-0.684731 5.551593,-2.468054 9.432937,-3.180658 2.963733,-0.544133 9.733858,-0.587044 12.575593,-0.07971 3.952796,0.705693 8.90792,2.352687 9.555632,3.176119 0.483488,0.614656 0.486979,2.084972 0.0061,2.565861 -0.191052,0.191053 -0.825143,0.445845 -1.409091,0.566205 -1.32796,0.273713 -2.002583,0.613668 -2.151998,1.084432 -0.203911,0.642466 0.0837,1.062578 1.185747,1.732038 1.27764,0.776125 1.81362,1.401632 1.81362,2.116556 0,0.97203 -0.458752,1.014162 -4.78574,0.439525 -6.767834,-0.898789 -7.798498,-0.997504 -10.498549,-1.005528 -3.245566,-0.0096 -7.140806,0.471857 -11.757995,1.453443 -1.765232,0.375277 -2.453931,0.436413 -2.654687,0.235657 z m 16.969697,-5.729908 c 0.835738,-0.254347 1.483169,-0.859452 1.416653,-1.324041 -0.03177,-0.221896 -0.344477,-0.516023 -0.780289,-0.73393 -0.615386,-0.307692 -1.09091,-0.363636 -3.09091,-0.363636 -2,0 -2.475524,0.05594 -3.090909,0.363636 -2.134167,1.067084 0.294215,2.590624 3.727273,2.33845 0.65,-0.04775 1.468182,-0.173961 1.818182,-0.280479 z"
       id="path2880" />
    <path
       style="fill:#ffffff"
       d="M 25.818182,56.211789 C 23.492007,55.935401 20.090872,54.90076 19.196908,54.197568 18.236616,53.442202 18.806707,52.761461 21,52.044507 c 2.760324,-0.902307 6.838318,-1.318979 12.727273,-1.300418 4.523096,0.01426 7.774452,0.288637 10.015058,0.845168 1.298873,0.32262 2.866547,1.017537 3.082033,1.3662 0.338407,0.547555 -1.678549,1.814173 -3.595468,2.257896 -3.737227,0.865084 -13.716584,1.437361 -17.410714,0.998436 z"
       id="path2882" />
    <path
       style="fill:#ffffff"
       d="M 8,25.127273 C 7.5357174,24.66299 7.5190051,23.653476 7.9688619,23.246361 8.151736,23.080863 8.5236368,22.945455 8.7953082,22.945455 c 0.5310974,0 1.3865098,0.714854 1.3865098,1.158683 0,0.146367 0.04561,0.384991 0.101366,0.530275 C 10.584813,25.420447 8.7000324,25.827305 8,25.127273 z"
       id="path2884" />
    <path
       style="fill:#ffffff"
       d="m 24.342025,13.671507 c -0.423452,-0.247421 -0.766267,-1.187102 -0.630469,-1.728163 0.136232,-0.542792 1.084667,-1.178055 1.760264,-1.179028 0.676445,-9.74e-4 1.073635,0.528419 1.073635,1.430992 0,1.271081 -1.190011,2.068335 -2.20343,1.476199 z"
       id="path2886" />
    <path
       style="fill:#ffffff"
       d="m 39.319781,13.906016 c -0.801104,-0.150085 -1.22592,-1.389478 -0.768937,-2.24336 0.219397,-0.409946 1.094568,-0.89902 1.608749,-0.89902 0.613792,0 1.162435,0.889958 1.05326,1.7085 -0.141594,1.061594 -0.882951,1.623124 -1.893072,1.43388 l 0,0 z"
       id="path2888" />
    <path
       style="fill:#ffffff"
       d="m 55.02818,24.976593 c -0.729254,-0.805817 -0.0136,-2.031138 1.186291,-2.031138 0.798768,0 1.603711,0.593184 1.603711,1.181818 0,0.99977 -2.080645,1.63315 -2.790002,0.84932 z"
       id="path2890" />
  </g>
</svg>
