<?xml version="1.0" encoding="UTF-8" standalone="no"?>
<!-- Created with Inkscape (http://www.inkscape.org/) -->

<svg
   xmlns:dc="http://purl.org/dc/elements/1.1/"
   xmlns:cc="http://creativecommons.org/ns#"
   xmlns:rdf="http://www.w3.org/1999/02/22-rdf-syntax-ns#"
   xmlns:svg="http://www.w3.org/2000/svg"
   xmlns="http://www.w3.org/2000/svg"
   xmlns:sodipodi="http://sodipodi.sourceforge.net/DTD/sodipodi-0.dtd"
   xmlns:inkscape="http://www.inkscape.org/namespaces/inkscape"
   width="64px"
   height="64px"
   id="svg2985"
   version="1.1"
   inkscape:version="0.48.1 "
   sodipodi:docname="wn.svg">
  <defs
     id="defs2987" />
  <sodipodi:namedview
     id="base"
     pagecolor="#ffffff"
     bordercolor="#666666"
     borderopacity="1.0"
     inkscape:pageopacity="0.0"
     inkscape:pageshadow="2"
     inkscape:zoom="5.5"
     inkscape:cx="10.272727"
     inkscape:cy="37.545454"
     inkscape:current-layer="layer1"
     showgrid="true"
     inkscape:document-units="px"
     inkscape:grid-bbox="true"
     inkscape:window-width="1365"
     inkscape:window-height="878"
     inkscape:window-x="-8"
     inkscape:window-y="-8"
     inkscape:window-maximized="1" />
  <metadata
     id="metadata2990">
    <rdf:RDF>
      <cc:Work
         rdf:about="">
        <dc:format>image/svg+xml</dc:format>
        <dc:type
           rdf:resource="http://purl.org/dc/dcmitype/StillImage" />
        <dc:title></dc:title>
      </cc:Work>
    </rdf:RDF>
  </metadata>
  <g
     id="layer1"
     inkscape:label="Layer 1"
     inkscape:groupmode="layer">
    <text
       xml:space="preserve"
       style="font-size:64px;font-style:normal;font-variant:normal;font-weight:normal;font-stretch:normal;line-height:125%;letter-spacing:0px;word-spacing:0px;fill:#000000;fill-opacity:1;stroke:none;font-family:Chess Cases;-inkscape-font-specification:Chess Cases"
       x="-0.032226563"
       y="62.016602"
       id="text3127"
       sodipodi:linespacing="125%"><tspan
         sodipodi:role="line"
         id="tspan3129"
         x="-0.032226563"
         y="62.016602">m</tspan></text>
    <path
       style="fill:#ffffff;fill-opacity:1"
       d="M 49.81923,51.615856 49.309091,51.177163 49.188946,47.115856 C 48.978169,39.99085 48.027584,35.472917 45.810188,31.057319 44.64489,28.73681 43.459281,27.053891 41.651432,25.154151 39.074286,22.446012 36.433511,20.696265 34.234441,20.23974 c -1.101713,-0.228715 -1.436378,-0.509108 -1.348398,-1.129731 0.05268,-0.371632 0.193265,-0.434389 1.24123,-0.554097 3.691929,-0.421724 7.598634,2.173219 11.866374,7.88198 3.982056,5.326616 5.985817,12.068405 6.019497,20.253018 0.01491,3.624784 -0.08051,4.3864 -0.622489,4.968146 -0.477873,0.512934 -0.939471,0.500245 -1.571425,-0.0432 l 0,0 z"
       id="path3131"
       inkscape:connector-curvature="0" />
    <path
       style="fill:#ffffff;fill-opacity:1"
       d="m 18.203686,26.320626 c -0.969258,-2.319764 3.176275,-5.59686 5.55995,-4.395212 0.989059,0.498601 0.626335,1.67842 -0.970541,3.156846 -1.266174,1.172253 -2.627138,1.877025 -3.629645,1.879601 -0.619986,0.0016 -0.718741,-0.06439 -0.959764,-0.641235 z"
       id="path3133"
       inkscape:connector-curvature="0" />
    <path
       style="fill:#ffffff;fill-opacity:1"
       d="m 10.254344,40.410286 c -0.2950076,-1.128112 0.99605,-2.719376 2.20634,-2.719376 0.455595,0 0.612398,0.769813 0.330755,1.623817 -0.383596,1.163147 -2.302709,1.991852 -2.537095,1.095559 z"
       id="path3135"
       inkscape:connector-curvature="0" />
  </g>
</svg>
