<?xml version="1.0" encoding="UTF-8" standalone="no"?>
<!-- Created with Inkscape (http://www.inkscape.org/) -->

<svg
   xmlns:dc="http://purl.org/dc/elements/1.1/"
   xmlns:cc="http://creativecommons.org/ns#"
   xmlns:rdf="http://www.w3.org/1999/02/22-rdf-syntax-ns#"
   xmlns:svg="http://www.w3.org/2000/svg"
   xmlns="http://www.w3.org/2000/svg"
   xmlns:sodipodi="http://sodipodi.sourceforge.net/DTD/sodipodi-0.dtd"
   xmlns:inkscape="http://www.inkscape.org/namespaces/inkscape"
   width="64px"
   height="64px"
   id="svg2985"
   version="1.1"
   inkscape:version="0.48.1 "
   sodipodi:docname="wr.svg">
  <defs
     id="defs2987" />
  <sodipodi:namedview
     id="base"
     pagecolor="#ffffff"
     bordercolor="#666666"
     borderopacity="1.0"
     inkscape:pageopacity="0.0"
     inkscape:pageshadow="2"
     inkscape:zoom="5.5"
     inkscape:cx="10.272727"
     inkscape:cy="32"
     inkscape:current-layer="layer1"
     showgrid="true"
     inkscape:document-units="px"
     inkscape:grid-bbox="true"
     inkscape:window-width="1365"
     inkscape:window-height="878"
     inkscape:window-x="-8"
     inkscape:window-y="-8"
     inkscape:window-maximized="1" />
  <metadata
     id="metadata2990">
    <rdf:RDF>
      <cc:Work
         rdf:about="">
        <dc:format>image/svg+xml</dc:format>
        <dc:type
           rdf:resource="http://purl.org/dc/dcmitype/StillImage" />
        <dc:title></dc:title>
      </cc:Work>
    </rdf:RDF>
  </metadata>
  <g
     id="layer1"
     inkscape:label="Layer 1"
     inkscape:groupmode="layer">
    <text
       xml:space="preserve"
       style="font-size:64px;font-style:normal;font-variant:normal;font-weight:normal;font-stretch:normal;line-height:125%;letter-spacing:0px;word-spacing:0px;fill:#000000;fill-opacity:1;stroke:none;font-family:Chessterton;-inkscape-font-specification:Chessterton"
       x="0"
       y="50.080078"
       id="text3009"
       sodipodi:linespacing="125%"><tspan
         sodipodi:role="line"
         id="tspan3011"
         x="0"
         y="50.080078">2</tspan></text>
    <path
       style="fill:#ffffff;fill-opacity:1;fill-rule:evenodd"
       d="m 14.535762,57.343139 c -0.657396,-0.602459 -0.67873,-0.661921 -0.733848,-2.045454 -0.04742,-1.190252 0.0053,-1.524089 0.320094,-2.026808 0.742494,-1.185761 -0.05759,-1.137976 18.144725,-1.083702 15.022502,0.04479 16.534954,0.07614 16.922658,0.350706 0.702558,0.497548 0.969742,1.030149 1.062984,2.118942 0.118249,1.3808 -0.225526,2.359389 -1.015626,2.891076 l -0.617798,0.415737 -16.703055,0 -16.703054,0 -0.67708,-0.620497 z"
       id="path3013"
       inkscape:connector-curvature="0" />
    <path
       style="fill:#ffffff;fill-opacity:1;fill-rule:evenodd"
       d="M 14.945455,47.388967 C 14.184087,46.970265 13.953708,46.4681 13.949497,45.21804 c -0.0053,-1.562029 0.256737,-2.280542 0.970215,-2.660745 0.480297,-0.255946 1.381361,-0.32017 5.662106,-0.403568 l 5.090909,-0.09918 0.753396,-0.557143 c 0.543699,-0.402071 0.71203,-0.631062 0.604778,-0.822713 -0.574071,-1.025805 -3.46948,-13.26858 -4.364341,-18.453911 -0.42688,-2.473588 -0.377998,-3.028499 0.342846,-3.891953 l 0.515917,-0.617985 0.864944,0.330325 c 1.086979,0.415121 1.103211,0.453079 2.356434,5.510364 2.376909,9.591831 2.933456,13.819491 2.122421,16.122389 -0.208017,0.590655 -0.378213,1.188364 -0.378213,1.32824 0,0.139878 0.470455,0.472006 1.045455,0.738062 0.901988,0.417355 1.282485,0.483391 2.772727,0.481215 2.999391,-0.0044 3.571036,-0.65619 2.712576,-3.092971 -0.458323,-1.300975 -0.390409,-2.935679 0.276931,-6.665702 0.933097,-5.215449 2.957287,-13.392612 3.450006,-13.937061 0.15914,-0.175847 0.595807,-0.415901 0.970371,-0.533454 0.657936,-0.206485 0.701058,-0.192192 1.271934,0.421613 0.948018,1.019308 0.862842,1.836959 -1.155791,11.095231 -1.09422,5.018534 -2.280827,9.733316 -2.705405,10.749478 -0.151342,0.362211 -0.275168,0.678611 -0.275168,0.703111 0,0.0245 0.347728,0.280416 0.772728,0.568704 L 38.4,42.054545 l 5.404371,0.09091 c 5.327642,0.08962 5.410245,0.0968 5.818182,0.506012 0.365498,0.36664 0.412556,0.589531 0.403072,1.909091 -0.01145,1.594082 -0.322789,2.500938 -0.97919,2.852235 -0.505866,0.270731 -33.607413,0.247603 -34.10098,-0.02383 z"
       id="path3015"
       inkscape:connector-curvature="0" />
    <path
       style="fill:#ffffff;fill-opacity:1;fill-rule:evenodd"
       d="M 16.599115,37.736364 C 14.253259,34.125677 11.4,27.534588 11.4,25.726298 c 0,-0.504829 0.710751,-2.489934 0.891501,-2.489934 0.06257,0 0.627777,0.415909 1.256017,0.924242 1.251233,1.01242 1.450929,1.368695 3.660295,6.530303 1.807902,4.223694 2.332644,6.088277 1.990007,7.071165 -0.163078,0.467807 -1.198746,1.47429 -1.51704,1.47429 -0.05891,0 -0.545664,-0.675 -1.081665,-1.5 z"
       id="path3017"
       inkscape:connector-curvature="0" />
    <path
       style="fill:#ffffff;fill-opacity:1;fill-rule:evenodd"
       d="m 45.400524,38.578843 c -0.694984,-0.627876 -0.727797,-0.706616 -0.727797,-1.746483 0,-2.470626 1.506671,-6.413026 4.181686,-10.941921 0.803805,-1.360871 1.044795,-1.62574 1.850773,-2.03416 1.015426,-0.514555 1.031063,-0.508388 1.52523,0.601518 0.608475,1.36664 0.101957,3.966569 -1.473691,7.564387 -1.354998,3.093987 -3.90092,7.21418 -4.457737,7.21418 -0.09387,0 -0.498176,-0.295885 -0.898464,-0.657521 z"
       id="path3019"
       inkscape:connector-curvature="0" />
    <path
       style="fill:#ffffff;fill-opacity:1;fill-rule:evenodd"
       d="m 52.210752,21.533296 c -2.292317,-1.067441 -3.2023,-3.8602 -1.985973,-6.094993 1.9281,-3.542554 7.068735,-3.002699 8.199476,0.861086 1.080334,3.691541 -2.695509,6.872099 -6.213503,5.233907 z"
       id="path3021"
       inkscape:connector-curvature="0" />
    <path
       style="fill:#ffffff;fill-opacity:1;fill-rule:evenodd"
       d="M 39.218182,14.219647 C 35.934033,12.799336 35.647931,8.0526764 38.737343,6.2421603 40.40218,5.266501 42.413859,5.4607508 43.863974,6.7371931 c 1.122785,0.9883147 1.580333,1.9405634 1.590449,3.3100429 0.01379,1.867086 -1.049311,3.514993 -2.717178,4.211872 -0.786792,0.328743 -2.717741,0.30709 -3.519063,-0.03946 z"
       id="path3023"
       inkscape:connector-curvature="0" />
    <path
       style="fill:#ffffff;fill-opacity:1;fill-rule:evenodd"
       d="m 21.123238,14.168895 c -1.466437,-0.666155 -2.415641,-1.971663 -2.576687,-3.543898 -0.186288,-1.8186623 0.664497,-3.4870979 2.254874,-4.421931 1.142224,-0.6714061 3.002802,-0.7198641 4.161244,-0.1083778 0.864285,0.4562146 1.829287,1.4929243 2.187348,2.3498853 0.303897,0.7273269 0.324019,2.2297635 0.04245,3.1695565 -0.690379,2.304279 -3.768429,3.599945 -6.069229,2.554765 l 0,0 z"
       id="path3025"
       inkscape:connector-curvature="0" />
    <path
       style="fill:#ffffff;fill-opacity:1;fill-rule:evenodd"
       d="M 8.6715502,21.804577 C 7.1730849,21.313185 5.9562682,20.119222 5.5783665,18.76949 5.3118096,17.817442 5.4298295,16.23673 5.8236622,15.484094 6.60725,13.986615 8.1454605,13.062532 9.8545455,13.062532 c 3.0909055,0 5.1454695,2.825544 4.2435345,5.835933 -0.274997,0.917861 -1.273629,2.071286 -2.204453,2.546158 -0.803778,0.410056 -2.4936205,0.598837 -3.2220768,0.359954 z"
       id="path3027"
       inkscape:connector-curvature="0" />
  </g>
</svg>
