<?xml version="1.0" encoding="UTF-8" standalone="no"?>
<!-- Created with Inkscape (http://www.inkscape.org/) -->

<svg
   xmlns:dc="http://purl.org/dc/elements/1.1/"
   xmlns:cc="http://creativecommons.org/ns#"
   xmlns:rdf="http://www.w3.org/1999/02/22-rdf-syntax-ns#"
   xmlns:svg="http://www.w3.org/2000/svg"
   xmlns="http://www.w3.org/2000/svg"
   xmlns:sodipodi="http://sodipodi.sourceforge.net/DTD/sodipodi-0.dtd"
   xmlns:inkscape="http://www.inkscape.org/namespaces/inkscape"
   width="64px"
   height="64px"
   id="svg2985"
   version="1.1"
   inkscape:version="0.48.1 "
   sodipodi:docname="New document 2">
  <defs
     id="defs2987" />
  <sodipodi:namedview
     id="base"
     pagecolor="#ffffff"
     bordercolor="#666666"
     borderopacity="1.0"
     inkscape:pageopacity="0.0"
     inkscape:pageshadow="2"
     inkscape:zoom="5.5"
     inkscape:cx="10.272727"
     inkscape:cy="32"
     inkscape:current-layer="layer1"
     showgrid="true"
     inkscape:document-units="px"
     inkscape:grid-bbox="true"
     inkscape:window-width="1365"
     inkscape:window-height="878"
     inkscape:window-x="-8"
     inkscape:window-y="-8"
     inkscape:window-maximized="1" />
  <metadata
     id="metadata2990">
    <rdf:RDF>
      <cc:Work
         rdf:about="">
        <dc:format>image/svg+xml</dc:format>
        <dc:type
           rdf:resource="http://purl.org/dc/dcmitype/StillImage" />
        <dc:title></dc:title>
      </cc:Work>
    </rdf:RDF>
  </metadata>
  <g
     id="layer1"
     inkscape:label="Layer 1"
     inkscape:groupmode="layer">
    <text
       xml:space="preserve"
       style="font-size:64px;font-style:normal;font-variant:normal;font-weight:normal;font-stretch:normal;line-height:125%;letter-spacing:0px;word-spacing:0px;fill:#000000;fill-opacity:1;stroke:none;font-family:Chessterton;-inkscape-font-specification:Chessterton"
       x="0"
       y="48.608398"
       id="text2993"
       sodipodi:linespacing="125%"><tspan
         sodipodi:role="line"
         id="tspan2995"
         x="0"
         y="48.608398">1</tspan></text>
    <path
       style="fill:#ffffff;fill-opacity:1;fill-rule:evenodd"
       d="M 15.672727,56.254088 C 14.611265,55.785547 14.4,55.357488 14.4,53.675317 c 0,-1.477491 0.01771,-1.540582 0.594362,-2.117275 l 0.594363,-0.594406 16.13291,-0.04852 c 11.860272,-0.03567 16.266963,0.007 16.639072,0.160975 0.956044,0.395694 1.221111,0.959836 1.221111,2.598882 0,1.68598 -0.226949,2.174138 -1.19974,2.580597 -0.87534,0.36574 -31.880604,0.364336 -32.709351,-0.0015 z"
       id="path2997"
       inkscape:connector-curvature="0" />
    <path
       style="fill:#ffffff;fill-opacity:1;fill-rule:evenodd"
       d="m 22.633361,47.1 c -0.667921,-0.765719 -0.687906,-1.012582 -0.687906,-8.497076 0,-7.763223 0.0449,-8.226482 0.826327,-8.526346 0.161878,-0.06212 4.453085,-0.112942 9.536017,-0.112942 l 9.241694,0 0.476389,0.566156 0.476389,0.566156 -0.05114,7.570208 -0.05114,7.570208 -0.421471,0.590909 -0.421473,0.590909 -9.323075,0 c -8.652178,0 -9.343049,-0.0229 -9.60062,-0.318182 z"
       id="path2999"
       inkscape:connector-curvature="0" />
    <path
       style="fill:#ffffff;fill-opacity:1;fill-rule:evenodd"
       d="m 15.257599,26.407145 c -0.222822,-0.156071 -0.52739,-0.52019 -0.676819,-0.809153 -0.355222,-0.686924 -0.352836,-2.586401 0.0041,-3.276671 0.587546,-1.136189 -0.241235,-1.084957 17.551529,-1.084957 l 16.20903,0 0.618181,0.618181 c 0.602513,0.602513 0.618182,0.655972 0.618182,2.109091 0,1.45312 -0.01567,1.506578 -0.618182,2.109091 l -0.618181,0.618182 -16.341363,0 c -14.51388,0 -16.386669,-0.03173 -16.746493,-0.283764 z"
       id="path3001"
       inkscape:connector-curvature="0" />
    <path
       style="fill:#ffffff;fill-opacity:1;fill-rule:evenodd"
       d="m 12.672727,17.919117 c -0.794014,-0.416288 -0.938374,-1.295027 -0.875243,-5.327742 0.07573,-4.8378472 -0.05453,-4.6277386 2.869125,-4.6277386 2.033531,0 2.184788,0.024944 2.450354,0.404092 C 17.35336,8.7052327 17.4,9.4659105 17.4,12.983949 c 0,5.281029 0.113303,5.047366 -2.483668,5.122037 -1.21347,0.03489 -1.935299,-0.02523 -2.243605,-0.186869 z"
       id="path3003"
       inkscape:connector-curvature="0" />
    <path
       style="fill:#ffffff;fill-opacity:1;fill-rule:evenodd"
       d="m 30.002795,17.970667 c -0.801656,-0.339745 -0.875522,-0.762855 -0.875522,-5.015027 0,-5.2550408 -0.148173,-4.9920036 2.812063,-4.9920036 2.033532,0 2.184789,0.024944 2.450354,0.404092 0.236397,0.3375043 0.283037,1.0981821 0.283037,4.6162206 0,5.284262 0.113054,5.051532 -2.483668,5.112825 -0.983982,0.02323 -1.967801,-0.03352 -2.186264,-0.126107 z"
       id="path3005"
       inkscape:connector-curvature="0" />
    <path
       style="fill:#ffffff;fill-opacity:1;fill-rule:evenodd"
       d="m 47.484597,17.982712 c -0.873667,-0.378366 -0.902779,-0.540499 -0.902779,-5.027931 0,-5.3493182 -0.190859,-5.0225283 2.891604,-4.9510213 2.128387,0.049374 2.195753,0.063419 2.423874,0.5053312 0.176223,0.3413762 0.222745,1.5054901 0.186855,4.6756751 -0.05813,5.134369 0.09187,4.83477 -2.456948,4.907547 -0.974962,0.02784 -1.939134,-0.02148 -2.142606,-0.109601 z"
       id="path3007"
       inkscape:connector-curvature="0" />
  </g>
</svg>
