<?xml version="1.0" encoding="UTF-8" standalone="no"?>
<!-- Created with Inkscape (http://www.inkscape.org/) -->

<svg
   xmlns:dc="http://purl.org/dc/elements/1.1/"
   xmlns:cc="http://creativecommons.org/ns#"
   xmlns:rdf="http://www.w3.org/1999/02/22-rdf-syntax-ns#"
   xmlns:svg="http://www.w3.org/2000/svg"
   xmlns="http://www.w3.org/2000/svg"
   xmlns:sodipodi="http://sodipodi.sourceforge.net/DTD/sodipodi-0.dtd"
   xmlns:inkscape="http://www.inkscape.org/namespaces/inkscape"
   width="45"
   height="45"
   id="svg3128"
   sodipodi:version="0.32"
   inkscape:version="0.47 r22583"
   version="1.0"
   sodipodi:docname="bq.svg">
  <defs
     id="defs3130">
    <inkscape:perspective
       sodipodi:type="inkscape:persp3d"
       inkscape:vp_x="0 : 22.5 : 1"
       inkscape:vp_y="0 : 1000 : 0"
       inkscape:vp_z="45 : 22.5 : 1"
       inkscape:persp3d-origin="22.5 : 15 : 1"
       id="perspective17" />
  </defs>
  <sodipodi:namedview
     id="base"
     pagecolor="#ffffff"
     bordercolor="#666666"
     borderopacity="1.0"
     gridtolerance="10000"
     guidetolerance="10"
     objecttolerance="10"
     inkscape:pageopacity="0.0"
     inkscape:pageshadow="2"
     inkscape:zoom="16"
     inkscape:cx="34.028184"
     inkscape:cy="22.902797"
     inkscape:document-units="px"
     inkscape:current-layer="layer1"
     height="45px"
     width="45px"
     inkscape:grid-points="true"
     showgrid="true"
     inkscape:window-width="1365"
     inkscape:window-height="878"
     inkscape:window-x="-8"
     inkscape:window-y="-8"
     inkscape:window-maximized="1">
    <inkscape:grid
       id="GridFromPre046Settings"
       type="xygrid"
       originx="0px"
       originy="0px"
       spacingx="0.5px"
       spacingy="0.5px"
       color="#0000ff"
       empcolor="#0000ff"
       opacity="0.2"
       empopacity="0.4"
       empspacing="5" />
  </sodipodi:namedview>
  <metadata
     id="metadata3133">
    <rdf:RDF>
      <cc:Work
         rdf:about="">
        <dc:format>image/svg+xml</dc:format>
        <dc:type
           rdf:resource="http://purl.org/dc/dcmitype/StillImage" />
      </cc:Work>
    </rdf:RDF>
  </metadata>
  <g
     inkscape:label="Layer 1"
     inkscape:groupmode="layer"
     id="layer1">
    <path
       sodipodi:type="arc"
       style="opacity:1;fill:#2B2B3C;fill-opacity:1;stroke:#303042;stroke-width:1;stroke-linecap:round;stroke-linejoin:round;stroke-miterlimit:4;stroke-dasharray:none;stroke-opacity:1"
       id="path5571"
       sodipodi:cx="7"
       sodipodi:cy="13"
       sodipodi:rx="2"
       sodipodi:ry="2"
       d="M 9 13 A 2 2 0 1 1  5,13 A 2 2 0 1 1  9 13 z"
       transform="translate(-1,-1)" />
    <path
       sodipodi:type="arc"
       style="opacity:1;fill:#2B2B3C;fill-opacity:1;stroke:#303042;stroke-width:1;stroke-linecap:round;stroke-linejoin:round;stroke-miterlimit:4;stroke-dasharray:none;stroke-opacity:1"
       id="path5573"
       sodipodi:cx="7"
       sodipodi:cy="13"
       sodipodi:rx="2"
       sodipodi:ry="2"
       d="M 9 13 A 2 2 0 1 1  5,13 A 2 2 0 1 1  9 13 z"
       transform="translate(15.5,-5.5)" />
    <path
       sodipodi:type="arc"
       style="opacity:1;fill:#2B2B3C;fill-opacity:1;stroke:#303042;stroke-width:1;stroke-linecap:round;stroke-linejoin:round;stroke-miterlimit:4;stroke-dasharray:none;stroke-opacity:1"
       id="path5575"
       sodipodi:cx="7"
       sodipodi:cy="13"
       sodipodi:rx="2"
       sodipodi:ry="2"
       d="M 9 13 A 2 2 0 1 1  5,13 A 2 2 0 1 1  9 13 z"
       transform="translate(32,-1)" />
    <path
       sodipodi:type="arc"
       style="opacity:1;fill:#2B2B3C;fill-opacity:1;stroke:#303042;stroke-width:1;stroke-linecap:round;stroke-linejoin:round;stroke-miterlimit:4;stroke-dasharray:none;stroke-opacity:1"
       id="path5577"
       sodipodi:cx="7"
       sodipodi:cy="13"
       sodipodi:rx="2"
       sodipodi:ry="2"
       d="M 9 13 A 2 2 0 1 1  5,13 A 2 2 0 1 1  9 13 z"
       transform="translate(7,-4.5)" />
    <path
       sodipodi:type="arc"
       style="opacity:1;fill:#2B2B3C;fill-opacity:1;stroke:#303042;stroke-width:1;stroke-linecap:round;stroke-linejoin:round;stroke-miterlimit:4;stroke-dasharray:none;stroke-opacity:1"
       id="path5579"
       sodipodi:cx="7"
       sodipodi:cy="13"
       sodipodi:rx="2"
       sodipodi:ry="2"
       d="M 9 13 A 2 2 0 1 1  5,13 A 2 2 0 1 1  9 13 z"
       transform="translate(24,-4)" />
    <path
       style="fill:#2B2B3C;fill-opacity:1;fill-rule:evenodd;stroke:#303042;stroke-width:1px;stroke-linecap:butt;stroke-linejoin:round;stroke-opacity:1"
       d="M 9,26 C 17.5,24.5 30,24.5 36,26 L 38,14 L 31,25 L 31,11 L 25.5,24.5 L 22.5,9.5 L 19.5,24.5 L 14,10.5 L 14,25 L 7,14 L 9,26 z "
       id="path5581"
       sodipodi:nodetypes="cccccccccccc" />
    <path
       style="fill:#2B2B3C;fill-opacity:1;fill-rule:evenodd;stroke:#303042;stroke-width:1px;stroke-linecap:butt;stroke-linejoin:round;stroke-opacity:1"
       d="M 9,26 C 9,28 10.5,28 11.5,30 C 12.5,31.5 12.5,31 12,33.5 C 10.5,34.5 10.5,36 10.5,36 C 9,37.5 11,38.5 11,38.5 C 17.5,39.5 27.5,39.5 34,38.5 C 34,38.5 35.5,37.5 34,36 C 34,36 34.5,34.5 33,33.5 C 32.5,31 32.5,31.5 33.5,30 C 34.5,28 36,28 36,26 C 27.5,24.5 17.5,24.5 9,26 z "
       id="path5583"
       sodipodi:nodetypes="ccccccccccc" />
    <path
       style="fill:none;fill-opacity:0.75;fill-rule:evenodd;stroke:white;stroke-width:1px;stroke-linecap:round;stroke-linejoin:round;stroke-opacity:1"
       d="M 11.5,30 C 15,29 30,29 33.5,30"
       id="path5585"
       sodipodi:nodetypes="cc" />
    <path
       style="fill:none;fill-opacity:0.75;fill-rule:evenodd;stroke:white;stroke-width:1px;stroke-linecap:round;stroke-linejoin:round;stroke-opacity:1"
       d="M 12,33.5 C 18,32.5 27,32.5 33,33.5"
       id="path5587"
       sodipodi:nodetypes="cc" />
    <path
       style="fill:none;fill-opacity:0.75;fill-rule:evenodd;stroke:white;stroke-width:1px;stroke-linecap:round;stroke-linejoin:round;stroke-opacity:1"
       d="M 10.5,36 C 15.5,35 29,35 34,36"
       id="path5589"
       sodipodi:nodetypes="cc" />
    <path
       style="fill:#000000"
       d="M 10.74928,29.701819 C 10.658101,29.546232 10.240585,29.061009 9.8214665,28.623545 8.948012,27.711857 8.6906492,27.295892 8.5910772,26.634916 8.5553287,26.397611 8.0906159,23.567162 7.5583819,20.345029 7.0261481,17.122895 6.590684,14.471868 6.590684,14.453857 c 0,-0.01801 -0.1476563,-0.01555 -0.328125,0.0055 C 5.5160626,14.546256 4.7229684,14.240972 4.1827309,13.658739 3.717359,13.157192 3.5650186,12.746427 3.5618803,11.984703 3.5597409,11.465433 3.5808685,11.3452 3.730309,11.02621 4.0530851,10.337224 4.5550519,9.8804885 5.2424427,9.6503323 5.6254531,9.5220904 6.3338309,9.5180374 6.7416567,9.6417542 7.7577612,9.9499969 8.4669453,10.925253 8.4650075,12.011672 8.4638525,12.65932 8.2541471,13.18929 7.8102422,13.666403 l -0.2670701,0.28705 2.9456309,4.637681 c 1.620097,2.550725 2.966725,4.639006 2.992506,4.640625 0.02578,0.0016 0.04687,-2.762917 0.04687,-6.143413 l 0,-6.146357 -0.242708,-0.07272 C 12.619754,10.669817 11.957745,10.069417 11.706918,9.4376192 11.594653,9.1548422 11.563806,8.9521714 11.56188,8.484703 c -0.0021,-0.5192702 0.01899,-0.6395033 0.168429,-0.9584934 0.322776,-0.6889859 0.824743,-1.1457211 1.512134,-1.3758773 0.38301,-0.1282419 1.091388,-0.1322949 1.499213,-0.00858 1.016105,0.3082427 1.725289,1.2834986 1.723352,2.3699176 -0.0017,0.9430549 -0.574722,1.8396902 -1.425059,2.2297902 -0.178346,0.08182 -0.324265,0.174048 -0.324265,0.204955 0,0.09688 4.582617,11.725786 4.620796,11.725786 0.02593,0 2.148857,-10.477359 2.548355,-12.576985 0.02746,-0.1443016 0.0048,-0.1809173 -0.146458,-0.2365086 C 21.04986,9.6056307 20.449581,9.049219 20.207805,8.4399892 20.094589,8.1547089 20.063811,7.9532181 20.06188,7.484703 c -0.0021,-0.5192702 0.01899,-0.6395033 0.168429,-0.9584934 0.322776,-0.6889859 0.824743,-1.1457211 1.512134,-1.3758773 0.38301,-0.1282418 1.091388,-0.1322949 1.499213,-0.00858 1.016105,0.3082426 1.725289,1.2834985 1.723352,2.3699175 -0.0012,0.6814423 -0.260605,1.2838792 -0.75996,1.7650274 -0.266446,0.2567303 -0.805792,0.5830038 -0.963734,0.5830038 -0.04441,0 -0.09795,0.027826 -0.118969,0.061835 -0.04139,0.066974 2.459035,12.6876221 2.529699,12.7683951 0.03592,0.04106 4.515907,-10.847623 4.602292,-11.185955 0.02235,-0.08753 -0.05769,-0.154931 -0.354765,-0.298779 C 29.406761,10.966575 28.90295,10.431716 28.707805,9.9399892 28.594589,9.6547089 28.563811,9.4532181 28.56188,8.984703 c -0.0021,-0.5192702 0.01899,-0.6395033 0.168429,-0.9584934 0.322776,-0.6889859 0.824743,-1.1457211 1.512134,-1.3758773 0.38301,-0.1282419 1.091388,-0.1322949 1.499213,-0.00858 1.016105,0.3082427 1.725289,1.2834986 1.723352,2.3699176 -0.0012,0.6554996 -0.210956,1.1787322 -0.668894,1.6683052 -0.315625,0.337429 -0.670701,0.565095 -1.064805,0.682728 l -0.265625,0.07928 0,5.896357 c 0,3.242996 0.02109,5.895487 0.04687,5.894423 0.02578,-0.0011 1.37283,-2.08863 2.993442,-4.639037 l 2.946567,-4.637104 -0.30153,-0.329921 c -0.433045,-0.47382 -0.586102,-0.900398 -0.589158,-1.642004 -0.0021,-0.51927 0.01899,-0.639503 0.168429,-0.958493 0.322776,-0.688986 0.824743,-1.1457215 1.512134,-1.3758777 0.38301,-0.1282419 1.091388,-0.1322949 1.499213,-0.00858 1.016105,0.3082427 1.725289,1.2834988 1.723352,2.3699178 -0.0012,0.655499 -0.210956,1.178732 -0.668894,1.668305 -0.532589,0.569381 -1.264531,0.854353 -2.000669,0.778933 -0.215744,-0.0221 -0.392261,-0.02474 -0.392261,-0.0059 0,0.01887 -0.40955,2.487627 -0.910111,5.486116 -0.500562,2.998488 -0.949203,5.763221 -0.996983,6.143852 -0.152122,1.211859 -0.287758,1.467572 -1.376749,2.595574 -0.385028,0.398822 -0.776663,0.855859 -0.870301,1.015638 -0.157742,0.269167 -0.283356,0.331332 -0.283356,0.140231 0,-0.140239 -0.226583,-0.292369 -0.57184,-0.38394 -3.234831,-0.857956 -16.417198,-0.952707 -21.02191,-0.1511 -1.021564,0.177838 -1.145927,0.22315 -1.292012,0.470747 -0.06962,0.117999 -0.135197,0.214545 -0.145722,0.214545 -0.01053,0 -0.09374,-0.127298 -0.18492,-0.282884 l 0,0 z"
       id="path2823" />
    <path
       style="fill:#000000"
       d="m 11.590873,33.126769 c 1.04e-4,-0.02657 0.05635,-0.337595 0.125,-0.691157 0.173267,-0.892417 0.165255,-0.993704 -0.112773,-1.425594 -0.130672,-0.202986 -0.257156,-0.401409 -0.281076,-0.44094 -0.0292,-0.04826 0.02318,-0.07227 0.159459,-0.07309 0.111623,-6.67e-4 0.343576,-0.03371 0.515451,-0.07343 1.732564,-0.400369 5.512282,-0.624036 10.53125,-0.623194 4.974501,8.35e-4 8.832206,0.230199 10.46875,0.622431 0.1375,0.03296 0.355469,0.06059 0.484375,0.06141 0.128906,8.2e-4 0.234375,0.0143 0.234375,0.02997 0,0.01566 -0.111954,0.188294 -0.248787,0.383629 -0.136832,0.195335 -0.265629,0.444933 -0.286214,0.554662 -0.02059,0.109729 0.02106,0.519692 0.09254,0.91103 0.159153,0.871329 0.159742,0.831348 -0.01066,0.723982 -0.227908,-0.143598 -1.544821,-0.329324 -3.796875,-0.535477 -2.435644,-0.22296 -3.848387,-0.279652 -6.96875,-0.279652 -1.730839,0 -3.619624,0.03406 -4.34375,0.07832 -3.011977,0.184121 -6.112785,0.539503 -6.421875,0.736008 -0.07734,0.04917 -0.14054,0.06766 -0.140436,0.04109 z"
       id="path2825" />
    <path
       style="fill:#000000"
       d="m 34.474553,35.848614 c -0.01515,-0.179123 -0.304998,-0.348228 -0.72104,-0.420679 -4.807908,-0.837261 -16.15301,-0.921758 -21.904133,-0.163139 -1.263408,0.166653 -1.519854,0.225383 -1.678985,0.384514 l -0.147871,0.147871 0.04132,-0.234364 c 0.119025,-0.675174 0.593595,-1.52322 1.127993,-2.015697 l 0.305101,-0.281167 0.03125,0.233352 c 0.07037,0.525483 0.22565,0.561224 1.571909,0.361814 4.338075,-0.642562 11.364193,-0.749824 16.607956,-0.253542 0.734863,0.06955 1.719238,0.182703 2.1875,0.251451 0.468262,0.06875 0.949822,0.124525 1.070135,0.123947 0.314495,-0.0015 0.510261,-0.173796 0.518263,-0.456098 0.0036,-0.126321 0.02548,-0.229674 0.04866,-0.229674 0.109566,0 0.588294,0.613046 0.752132,0.963161 0.198024,0.423167 0.298828,1.037327 0.23686,1.443089 -0.021,0.1375 -0.04217,0.202823 -0.04705,0.145161 z"
       id="path2827" />
    <path
       style="fill:#000000"
       d="m 20.028184,39.697641 c -3.382325,-0.106274 -6.663613,-0.360792 -8.90625,-0.690827 -0.336389,-0.0495 -0.738625,-0.288255 -1.076388,-0.6389 -0.3543723,-0.367888 -0.5194106,-0.689915 -0.5608324,-1.094311 -0.041447,-0.404644 0.048263,-0.737924 0.3051391,-1.133611 l 0.2022479,-0.311539 0.033666,0.202096 c 0.01852,0.111153 0.08589,0.262637 0.149713,0.336631 0.104597,0.121261 0.15701,0.130654 0.53125,0.09521 0.228362,-0.02163 0.682391,-0.08147 1.008954,-0.132978 4.682799,-0.738604 17.030824,-0.701924 21.5,0.06387 0.919896,0.157624 1.148506,0.104062 1.287497,-0.301649 l 0.06875,-0.200672 0.199392,0.3125 c 0.253751,0.397694 0.404507,0.912089 0.366399,1.250185 -0.04296,0.381148 -0.308706,0.917736 -0.597566,1.206596 -0.192912,0.192911 -0.327797,0.266419 -0.584502,0.318532 -0.984624,0.199886 -4.267871,0.510947 -6.646217,0.629675 -1.351226,0.06745 -6.115708,0.125822 -7.28125,0.0892 z"
       id="path2829" />
  </g>
</svg>
