<?xml version="1.0" encoding="UTF-8" standalone="no"?>
<!-- Created with Inkscape (http://www.inkscape.org/) -->

<svg
   xmlns:dc="http://purl.org/dc/elements/1.1/"
   xmlns:cc="http://creativecommons.org/ns#"
   xmlns:rdf="http://www.w3.org/1999/02/22-rdf-syntax-ns#"
   xmlns:svg="http://www.w3.org/2000/svg"
   xmlns="http://www.w3.org/2000/svg"
   xmlns:sodipodi="http://sodipodi.sourceforge.net/DTD/sodipodi-0.dtd"
   xmlns:inkscape="http://www.inkscape.org/namespaces/inkscape"
   width="45"
   height="45"
   id="svg3128"
   sodipodi:version="0.32"
   inkscape:version="0.47 r22583"
   version="1.0"
   sodipodi:docname="wk.svg">
  <defs
     id="defs3130">
    <inkscape:perspective
       sodipodi:type="inkscape:persp3d"
       inkscape:vp_x="0 : 22.5 : 1"
       inkscape:vp_y="0 : 1000 : 0"
       inkscape:vp_z="45 : 22.5 : 1"
       inkscape:persp3d-origin="22.5 : 15 : 1"
       id="perspective14" />
  </defs>
  <sodipodi:namedview
     id="base"
     pagecolor="#ffffff"
     bordercolor="#666666"
     borderopacity="1.0"
     gridtolerance="10000"
     guidetolerance="10"
     objecttolerance="10"
     inkscape:pageopacity="0.0"
     inkscape:pageshadow="2"
     inkscape:zoom="11.313708"
     inkscape:cx="42.721441"
     inkscape:cy="13.400149"
     inkscape:document-units="px"
     inkscape:current-layer="layer1"
     height="45px"
     width="45px"
     inkscape:grid-points="true"
     showgrid="true"
     inkscape:window-width="1272"
     inkscape:window-height="878"
     inkscape:window-x="0"
     inkscape:window-y="31"
     inkscape:window-maximized="0">
    <inkscape:grid
       id="GridFromPre046Settings"
       type="xygrid"
       originx="0px"
       originy="0px"
       spacingx="0.5px"
       spacingy="0.5px"
       color="#0000ff"
       empcolor="#0000ff"
       opacity="0.2"
       empopacity="0.4"
       empspacing="5" />
  </sodipodi:namedview>
  <metadata
     id="metadata3133">
    <rdf:RDF>
      <cc:Work
         rdf:about="">
        <dc:format>image/svg+xml</dc:format>
        <dc:type
           rdf:resource="http://purl.org/dc/dcmitype/StillImage" />
      </cc:Work>
    </rdf:RDF>
  </metadata>
  <g
     inkscape:label="Layer 1"
     inkscape:groupmode="layer"
     id="layer1">
    <path
       style="fill:none;fill-opacity:0.75;fill-rule:evenodd;stroke:#303042;stroke-width:1.5;stroke-linecap:round;stroke-linejoin:miter;stroke-opacity:1;stroke-miterlimit:4;stroke-dasharray:none"
       d="M 22.5,11.625 L 22.5,6"
       id="path6570" />
    <path
       style="fill:white;fill-opacity:1;fill-rule:evenodd;stroke:#303042;stroke-width:1.5;stroke-linecap:butt;stroke-linejoin:miter;stroke-opacity:1;stroke-miterlimit:4;stroke-dasharray:none"
       d="M 22.5,25 C 22.5,25 27,17.5 25.5,14.5 C 25.5,14.5 24.5,12 22.5,12 C 20.5,12 19.5,14.5 19.5,14.5 C 18,17.5 22.5,25 22.5,25"
       id="path5683"
       sodipodi:nodetypes="ccccc" />
    <path
       style="fill:white;fill-opacity:1;fill-rule:evenodd;stroke:#303042;stroke-width:1.5;stroke-linecap:round;stroke-linejoin:round;stroke-opacity:1;stroke-miterlimit:4;stroke-dasharray:none"
       d="M 11.5,37 C 17,40.5 27,40.5 32.5,37 L 32.5,30 C 32.5,30 41.5,25.5 38.5,19.5 C 34.5,13 25,16 22.5,23.5 L 22.5,27 L 22.5,23.5 C 19,16 9.5,13 6.5,19.5 C 3.5,25.5 11.5,29.5 11.5,29.5 L 11.5,37 z "
       id="path5681"
       sodipodi:nodetypes="cccccccccc" />
    <path
       style="fill:none;fill-opacity:0.75;fill-rule:evenodd;stroke:#303042;stroke-width:1.5;stroke-linecap:round;stroke-linejoin:miter;stroke-opacity:1;stroke-miterlimit:4;stroke-dasharray:none"
       d="M 20,8 L 25,8"
       id="path6572" />
    <path
       style="fill:none;fill-opacity:0.75;fill-rule:evenodd;stroke:#303042;stroke-width:1.5;stroke-linecap:round;stroke-linejoin:miter;stroke-opacity:1;stroke-miterlimit:4;stroke-dasharray:none"
       d="M 11.5,29.5 C 17,27 27,27 32.5,30"
       id="path6574"
       sodipodi:nodetypes="cc" />
    <path
       style="fill:none;fill-opacity:0.75;fill-rule:evenodd;stroke:#303042;stroke-width:1.5;stroke-linecap:round;stroke-linejoin:round;stroke-opacity:1;stroke-miterlimit:4;stroke-dasharray:none"
       d="M 11.5,37 C 17,34.5 27,34.5 32.5,37"
       id="path6576"
       sodipodi:nodetypes="cc" />
    <path
       style="fill:none;fill-opacity:0.75;fill-rule:evenodd;stroke:#303042;stroke-width:1.5;stroke-linecap:round;stroke-linejoin:round;stroke-opacity:1;stroke-miterlimit:4;stroke-dasharray:none"
       d="M 11.5,33.5 C 17,31.5 27,31.5 32.5,33.5"
       id="path6578"
       sodipodi:nodetypes="cc" />
    <path
       style="fill:#000000"
       d="m 20.129378,40.275408 c -2.082187,-0.150278 -4.325304,-0.613389 -6.098796,-1.259149 -1.515307,-0.551751 -3.062674,-1.383882 -3.188432,-1.714651 -0.04542,-0.119465 -0.08194,-1.80878 -0.08194,-3.790582 l 0,-3.575072 -0.508233,-0.323225 C 6.4501665,27.194856 4.6086328,24.017313 5.2393979,20.963584 c 0.4366426,-2.113922 1.8524097,-4.088567 3.5733034,-4.983875 1.047947,-0.545202 1.8550077,-0.729982 3.1849487,-0.72921 2.05546,0.0012 3.991826,0.618117 5.913667,1.884081 0.360007,0.237146 0.666457,0.419278 0.680998,0.404737 0.01454,-0.01454 -0.01403,-0.303353 -0.0635,-0.641803 -0.316481,-2.165497 0.852595,-4.457334 2.727511,-5.346962 l 0.552427,-0.262121 0,-1.281743 0,-1.2817424 -0.978082,0 c -1.062877,0 -1.258151,-0.057523 -1.434136,-0.4224648 -0.149346,-0.3097027 -0.102822,-0.5696462 0.143346,-0.8009089 0.171865,-0.1614586 0.3241,-0.187848 1.210631,-0.2098582 l 1.014047,-0.025176 0.04419,-0.8148358 c 0.04846,-0.8933837 0.126029,-1.0444283 0.583384,-1.1358994 0.211805,-0.042361 0.32839,-0.0056 0.529147,0.1668447 0.239939,0.2061015 0.260501,0.2744316 0.301683,1.0025334 l 0.04419,0.7813571 1.034326,0.024865 c 0.995349,0.023928 1.041146,0.033537 1.215339,0.2549879 0.226768,0.2882887 0.23161,0.6544749 0.01224,0.9256944 -0.157721,0.1949989 -0.238769,0.2105979 -1.237437,0.2381654 l -1.068662,0.0295 0.0017,1.2963255 0.0018,1.296326 0.620754,0.291637 c 0.766444,0.360084 1.486997,1.071317 2.004646,1.97872 0.478276,0.838382 0.641469,1.491027 0.641469,2.565379 0,0.475921 0.02369,0.865313 0.05265,0.865313 0.02896,0 0.158224,-0.07462 0.287263,-0.165822 0.398113,-0.281379 1.795391,-0.948338 2.40013,-1.145648 1.604331,-0.52345 3.476729,-0.633754 4.905553,-0.288991 2.488148,0.60037 4.680023,2.51825 5.407246,4.731317 0.202621,0.616612 0.234905,0.864786 0.23661,1.818891 0.0018,0.978021 -0.02593,1.186028 -0.241104,1.811962 -0.47524,1.382461 -1.265738,2.57152 -2.539887,3.820473 -0.882434,0.864984 -1.465092,1.324439 -2.796574,2.205234 l -0.994369,0.657789 0,3.406595 0,3.406596 -0.251928,0.235336 c -0.349911,0.326866 -2.127673,1.196115 -3.202665,1.565966 -2.95536,1.016792 -6.27349,1.424284 -9.626883,1.182259 z m 4.242641,-1.500576 c 2.232169,-0.232546 4.775237,-0.863795 5.971559,-1.482281 l 0.348208,-0.180019 -0.265165,-0.102319 c -0.533061,-0.205691 -2.396237,-0.620226 -3.569224,-0.794112 -3.211967,-0.476146 -6.45509,-0.476333 -9.733223,-5.3e-4 -1.15554,0.167709 -3.037775,0.585552 -3.579728,0.794674 l -0.265165,0.102319 0.309359,0.159522 c 1.167674,0.602116 3.83405,1.279287 5.893707,1.496805 0.99363,0.104937 3.905591,0.108494 4.889672,0.006 l 0,-3.4e-5 z M 13.047878,35.642747 c 1.363362,-0.46371 3.752015,-0.911304 5.932452,-1.111644 1.312661,-0.120608 4.694082,-0.119703 6.054602,0.0016 2.136163,0.190494 4.617491,0.664193 6.002148,1.145843 0.792879,0.275801 0.759561,0.307981 0.759561,-0.733601 l 0,-0.915201 -0.640816,-0.189479 c -1.503334,-0.444513 -3.737975,-0.813044 -6.020095,-0.992818 -1.712781,-0.134924 -6.326948,-0.05504 -7.834779,0.135635 -1.89477,0.239611 -3.65524,0.588671 -4.750874,0.941984 l -0.287262,0.09263 0,0.921223 c 0,0.506673 0.03281,0.921224 0.07291,0.921224 0.0401,0 0.360569,-0.09784 0.712156,-0.217423 l 0,0 z m 1.601423,-3.70994 c 4.207375,-0.826366 9.763183,-0.863513 14.260024,-0.09534 0.812808,0.138847 2.443094,0.510419 2.732636,0.622816 0.141908,0.05509 0.15468,-0.02512 0.15468,-0.971421 l 0,-1.031465 -0.596622,-0.270921 c -1.659143,-0.753404 -4.183286,-1.361305 -6.739611,-1.62313 -1.746937,-0.178926 -5.265536,-0.134104 -6.894292,0.08782 -1.711924,0.233259 -3.517581,0.656083 -4.795068,1.122842 l -0.508233,0.185694 0,1.262041 0,1.262041 0.640816,-0.166987 c 0.352448,-0.09184 1.138,-0.264638 1.74567,-0.383991 l 0,0 z m 18.288623,-3.02549 c 0.767015,-0.445133 2.129938,-1.461561 2.804428,-2.091461 1.747943,-1.632385 2.595027,-3.205941 2.595027,-4.820559 0,-1.450277 -0.483497,-2.460833 -1.737835,-3.632247 -1.993871,-1.862055 -4.883771,-2.195144 -7.803012,-0.899373 -2.2858,1.014604 -4.244924,3.032135 -5.276043,5.433334 l -0.297518,0.692843 0,1.705286 0,1.705286 0.773398,0.05877 c 2.910454,0.221179 6.430689,1.056318 8.065437,1.913441 0.401262,0.210387 0.401004,0.210406 0.876118,-0.06532 z m -20.31898,-0.610638 c 2.200014,-0.755764 4.750799,-1.187029 7.841891,-1.325838 l 1.347922,-0.06053 0,-1.590889 0,-1.590888 -0.348462,-0.6296 c -1.868879,-3.376677 -4.921659,-5.71709 -8.258507,-6.331384 -0.723602,-0.133211 -2.20468,-0.06956 -2.803917,0.120495 -1.0538818,0.334256 -1.9805611,0.996138 -2.5810209,1.843499 -1.5640189,2.20712 -1.6421427,4.36242 -0.2344164,6.467146 0.2328109,0.348081 0.8143473,1.010153 1.2923029,1.471272 0.960536,0.926697 2.5557704,2.062773 2.7693604,1.972249 0.07292,-0.03091 0.511601,-0.186394 0.974847,-0.345532 z m 10.088854,-7.042685 c 0.267297,-0.54221 1.109823,-1.743154 1.534725,-2.187611 0.494312,-0.517062 0.78487,-1.607578 0.789429,-2.962869 0.0028,-0.824875 -0.01689,-0.926097 -0.286123,-1.472992 -0.664143,-1.349067 -1.733073,-2.092514 -2.652613,-1.844908 -0.689579,0.185685 -1.596278,1.16175 -1.958526,2.108362 -0.320366,0.837167 -0.207909,2.243073 0.309673,3.871474 0.164993,0.519092 0.330406,0.834548 0.602518,1.149048 0.206299,0.238434 0.588741,0.74177 0.849872,1.118526 0.261132,0.376755 0.498972,0.685009 0.528535,0.685009 0.02956,0 0.156692,-0.208817 0.28251,-0.464039 l 0,0 z"
       id="path2820" />
  </g>
</svg>
