<?xml version="1.0" encoding="UTF-8" standalone="no"?>
<!-- Created with Inkscape (http://www.inkscape.org/) -->
<svg
   xmlns:svg="http://www.w3.org/2000/svg"
   xmlns="http://www.w3.org/2000/svg"
   version="1.0"
   width="45"
   height="45"
   id="svg3128">
  <defs
     id="defs3130" />
  <g
     id="layer1">
    <rect
       width="30"
       height="5"
       rx="2.5"
       x="7.5"
       y="37.5"
       id="rect8811"
       style="fill:#ffffff;fill-opacity:1;fill-rule:evenodd;stroke:#000000;stroke-width:1px;stroke-linecap:butt;stroke-linejoin:miter;stroke-opacity:1" />
    <path
       d="M 15.061475,32.463114 C 15.061475,32.463114 29.938525,32.463114 29.938525,32.463114 C 29.938525,32.463114 37.5,19 37.5,14.5 C 37.5,7.75 27.5,10 27.5,10 C 27.5,10 17.5,10 17.5,10 C 17.5,10 7.5,7.75 7.5,14.5 C 7.5,19 15.061475,32.463114 15.061475,32.463114 L 15.061475,32.463114 z"
       id="path8888-5"
       style="fill:#ffffff;fill-opacity:1;stroke:#000000;stroke-width:0.94868332px;stroke-linecap:round;stroke-linejoin:round;stroke-opacity:1" />
    <path
       d="M 19.856557,32.407787 C 19.856557,32.407787 15,21.25 15,16.75 C 15,12.25 17.5,7.75 22.5,7.75 C 27.5,7.75 30,12.25 30,16.75 C 30,21.25 25,32.5 25,32.5"
       id="path8912"
       style="fill:#ffffff;fill-opacity:1;stroke:#000000;stroke-width:0.94868332px;stroke-linecap:butt;stroke-linejoin:miter;stroke-opacity:1" />
    <path
       d="M 22.5,2.5 L 22.5,7.5"
       id="path8919"
       style="fill:none;stroke:#000000;stroke-width:1px;stroke-linecap:round;stroke-linejoin:round;stroke-opacity:1" />
    <path
       d="M 20,5 L 25,5"
       id="path8921"
       style="fill:none;stroke:#000000;stroke-width:1px;stroke-linecap:round;stroke-linejoin:round;stroke-opacity:1" />
    <rect
       width="25"
       height="5"
       rx="2.5"
       x="10"
       y="32.5"
       id="rect8813"
       style="fill:#ffffff;fill-opacity:1;fill-rule:evenodd;stroke:#000000;stroke-width:1px;stroke-linecap:butt;stroke-linejoin:miter;stroke-opacity:1" />
  </g>
</svg>
