<?xml version="1.0" encoding="UTF-8" standalone="no"?>
<!-- Created with Inkscape (http://www.inkscape.org/) -->
<svg
   xmlns:svg="http://www.w3.org/2000/svg"
   xmlns="http://www.w3.org/2000/svg"
   version="1.0"
   width="45"
   height="45"
   id="svg3128">
  <defs
     id="defs3130" />
  <g
     id="layer1">
    <rect
       width="30"
       height="5"
       rx="2.5"
       x="7.5"
       y="37.5"
       id="rect8811"
       style="fill:#ffffff;fill-opacity:1;fill-rule:evenodd;stroke:#000000;stroke-width:1px;stroke-linecap:butt;stroke-linejoin:miter;stroke-opacity:1" />
    <rect
       width="25"
       height="5"
       rx="2.5"
       x="10"
       y="32.5"
       id="rect8813"
       style="fill:#ffffff;fill-opacity:1;fill-rule:evenodd;stroke:#000000;stroke-width:1px;stroke-linecap:butt;stroke-linejoin:miter;stroke-opacity:1" />
    <path
       d="M 15.625,4.9375 C 15.37048,4.5851884 15.529914,4.8195695 16.375,6.125 C 17.652449,8.0983154 18.434356,11.404417 18.90625,15 C 13.860779,14.884796 2.5291829,5.0291829 7.5,10 C 12.5,15 15,32.5 15,32.5 L 19.46875,32.5 C 19.468738,32.500235 19.46875,32.53125 19.46875,32.53125 L 25.625,32.5 C 25.625,32.5 25.625013,32.468985 25.625,32.46875 L 29.9375,32.46875 C 29.9375,32.46875 32.5,15 37.5,10 C 42.451362,5.0486381 31.230686,14.809683 26.15625,15 C 26.632885,11.399092 27.430796,8.1038061 28.75,6.125 C 32.200445,0.94933216 24.561475,12.5 22.5,12.5 C 20.953894,12.5 16.388561,5.9944348 15.625,4.9375 z"
       id="path11567"
       style="fill:#ffffff;fill-opacity:1;stroke:#000000;stroke-width:1px;stroke-linecap:round;stroke-linejoin:round;stroke-opacity:1" />
    <path
       d="M 5,13.75 A 1.25,1.25 0 1 1 2.5,13.75 A 1.25,1.25 0 1 1 5,13.75 z"
       transform="translate(1.75,-6)"
       id="path11595"
       style="fill:#ffffff;fill-opacity:1;stroke:#000000;stroke-width:1;stroke-linecap:round;stroke-linejoin:round;stroke-miterlimit:4;stroke-dasharray:none;stroke-opacity:1" />
    <path
       d="M 5,13.75 A 1.25,1.25 0 1 1 2.5,13.75 A 1.25,1.25 0 1 1 5,13.75 z"
       transform="translate(35.75,-6)"
       id="path11595-4"
       style="fill:#ffffff;fill-opacity:1;stroke:#000000;stroke-width:1;stroke-linecap:round;stroke-linejoin:round;stroke-miterlimit:4;stroke-dasharray:none;stroke-opacity:1" />
    <path
       d="M 5,13.75 A 1.25,1.25 0 1 1 2.5,13.75 A 1.25,1.25 0 1 1 5,13.75 z"
       transform="translate(26,-9.75)"
       id="path11595-44"
       style="fill:#ffffff;fill-opacity:1;stroke:#000000;stroke-width:1;stroke-linecap:round;stroke-linejoin:round;stroke-miterlimit:4;stroke-dasharray:none;stroke-opacity:1" />
    <path
       d="M 5,13.75 A 1.25,1.25 0 1 1 2.5,13.75 A 1.25,1.25 0 1 1 5,13.75 z"
       transform="translate(11.5,-9.75)"
       id="path11595-42"
       style="fill:#ffffff;fill-opacity:1;stroke:#000000;stroke-width:1;stroke-linecap:round;stroke-linejoin:round;stroke-miterlimit:4;stroke-dasharray:none;stroke-opacity:1" />
    <path
       d="M 5,13.75 A 1.25,1.25 0 1 1 2.5,13.75 A 1.25,1.25 0 1 1 5,13.75 z"
       transform="translate(12.5,6.25)"
       id="path11595-5"
       style="fill:#ffffff;fill-opacity:1;stroke:#000000;stroke-width:1;stroke-linecap:round;stroke-linejoin:round;stroke-miterlimit:4;stroke-dasharray:none;stroke-opacity:1" />
    <path
       d="M 5,13.75 A 1.25,1.25 0 1 1 2.5,13.75 A 1.25,1.25 0 1 1 5,13.75 z"
       transform="translate(18.75,4.5)"
       id="path11595-57"
       style="fill:#ffffff;fill-opacity:1;stroke:#000000;stroke-width:1;stroke-linecap:round;stroke-linejoin:round;stroke-miterlimit:4;stroke-dasharray:none;stroke-opacity:1" />
    <path
       d="M 5,13.75 A 1.25,1.25 0 1 1 2.5,13.75 A 1.25,1.25 0 1 1 5,13.75 z"
       transform="translate(25,6.25)"
       id="path11595-6"
       style="fill:#ffffff;fill-opacity:1;stroke:#000000;stroke-width:1;stroke-linecap:round;stroke-linejoin:round;stroke-miterlimit:4;stroke-dasharray:none;stroke-opacity:1" />
  </g>
</svg>
