<?xml version="1.0" encoding="UTF-8" standalone="no"?>
<!-- Created with Inkscape (http://www.inkscape.org/) -->
<svg
   xmlns:svg="http://www.w3.org/2000/svg"
   xmlns="http://www.w3.org/2000/svg"
   version="1.0"
   width="45"
   height="45"
   id="svg3128">
  <defs
     id="defs3130" />
  <g
     id="layer1">
    <rect
       width="25"
       height="5"
       rx="2.5"
       x="10"
       y="37.5"
       id="rect5206"
       style="fill:#ffffff;fill-opacity:1;stroke:#000000;stroke-width:1px;stroke-linecap:butt;stroke-linejoin:miter;stroke-opacity:1" />
    <rect
       width="20"
       height="5"
       rx="2.5"
       x="12.5"
       y="32.5"
       id="rect5208"
       style="fill:#ffffff;fill-opacity:1;stroke:#000000;stroke-width:1px;stroke-linecap:butt;stroke-linejoin:miter;stroke-opacity:1" />
    <rect
       width="14.938524"
       height="20.020493"
       x="15.061476"
       y="12.5"
       id="rect7035"
       style="fill:#ffffff;fill-opacity:1;fill-rule:evenodd;stroke:#000000;stroke-width:1px;stroke-linecap:round;stroke-linejoin:round;stroke-opacity:1" />
    <path
       d="M 15,7.5 L 17.5,9 L 27.5,9 L 30,7.5 C 31.385,7.5 32.5,8.615 32.5,10 C 32.5,11.385 31.385,12.5 30,12.5 L 15,12.5 C 13.615,12.5 12.5,11.385 12.5,10 C 12.5,8.615 13.615,7.5 15,7.5 z"
       id="rect5208-2"
       style="fill:#ffffff;fill-opacity:1;stroke:#000000;stroke-width:1px;stroke-linecap:round;stroke-linejoin:round;stroke-opacity:1" />
    <path
       d="M 17.5,17.5 L 27.5,17.5"
       id="path7059"
       style="fill:none;stroke:#000000;stroke-width:1px;stroke-linecap:round;stroke-linejoin:round;stroke-opacity:1" />
    <path
       d="M 17.5,22.5 L 27.5,22.5"
       id="path7059-8"
       style="fill:none;stroke:#000000;stroke-width:1px;stroke-linecap:round;stroke-linejoin:round;stroke-opacity:1" />
    <path
       d="M 17.5,27.5 L 27.5,27.5"
       id="path7059-9"
       style="fill:none;stroke:#000000;stroke-width:1px;stroke-linecap:round;stroke-linejoin:round;stroke-opacity:1" />
  </g>
</svg>
