<?xml version="1.0" encoding="UTF-8" standalone="no"?>
<!-- Created with Inkscape (http://www.inkscape.org/) -->
<svg
   xmlns:dc="http://purl.org/dc/elements/1.1/"
   xmlns:cc="http://web.resource.org/cc/"
   xmlns:rdf="http://www.w3.org/1999/02/22-rdf-syntax-ns#"
   xmlns:svg="http://www.w3.org/2000/svg"
   xmlns="http://www.w3.org/2000/svg"
   xmlns:sodipodi="http://sodipodi.sourceforge.net/DTD/sodipodi-0.dtd"
   xmlns:inkscape="http://www.inkscape.org/namespaces/inkscape"
   width="54.9375"
   height="112.8125"
   id="svg2"
   sodipodi:version="0.32"
   inkscape:version="0.45.1"
   version="1.0"
   sodipodi:docbase="/home/akiross/Works/Painting"
   sodipodi:docname="WBishop.svg"
   inkscape:output_extension="org.inkscape.output.svg.inkscape"
   inkscape:export-filename="/home/akiross/Works/Painting/chess.png"
   inkscape:export-xdpi="56.25"
   inkscape:export-ydpi="56.25">
  <defs
     id="defs4" />
  <sodipodi:namedview
     id="base"
     pagecolor="#ffffff"
     bordercolor="#666666"
     borderopacity="1.0"
     gridtolerance="10000"
     guidetolerance="10"
     objecttolerance="10"
     inkscape:pageopacity="0.0"
     inkscape:pageshadow="2"
     inkscape:zoom="1"
     inkscape:cx="235.70289"
     inkscape:cy="120.2768"
     inkscape:document-units="px"
     inkscape:current-layer="layer1"
     width="480px"
     height="280px"
     inkscape:window-width="1272"
     inkscape:window-height="946"
     inkscape:window-x="0"
     inkscape:window-y="0" />
  <metadata
     id="metadata7">
    <rdf:RDF>
      <cc:Work
         rdf:about="">
        <dc:format>image/svg+xml</dc:format>
        <dc:type
           rdf:resource="http://purl.org/dc/dcmitype/StillImage" />
        <dc:title>Chess Pieces Set</dc:title>
        <dc:date>21 jan 2008</dc:date>
        <dc:creator>
          <cc:Agent>
            <dc:title>Alessandro [AkiRoss] Re</dc:title>
          </cc:Agent>
        </dc:creator>
        <dc:rights>
          <cc:Agent>
            <dc:title>Alessandro Re</dc:title>
          </cc:Agent>
        </dc:rights>
        <dc:description>http://www.ale-re.net</dc:description>
        <cc:license
           rdf:resource="http://creativecommons.org/licenses/by-sa/2.5/" />
      </cc:Work>
      <cc:License
         rdf:about="http://creativecommons.org/licenses/by-sa/2.5/">
        <cc:permits
           rdf:resource="http://web.resource.org/cc/Reproduction" />
        <cc:permits
           rdf:resource="http://web.resource.org/cc/Distribution" />
        <cc:requires
           rdf:resource="http://web.resource.org/cc/Notice" />
        <cc:requires
           rdf:resource="http://web.resource.org/cc/Attribution" />
        <cc:permits
           rdf:resource="http://web.resource.org/cc/DerivativeWorks" />
        <cc:requires
           rdf:resource="http://web.resource.org/cc/ShareAlike" />
      </cc:License>
    </rdf:RDF>
  </metadata>
  <g
     inkscape:label="Layer 1"
     inkscape:groupmode="layer"
     id="layer1"
     transform="translate(-273.90625,-43.9375)">
    <path
       style="opacity:1;fill:#bababa;fill-opacity:1;fill-rule:nonzero;stroke:#dedede;stroke-width:5;stroke-linecap:round;stroke-linejoin:round;stroke-miterlimit:4;stroke-dasharray:none;stroke-dashoffset:0;stroke-opacity:1"
       d="M 301.40625,46.4375 L 280.03125,64.1875 L 287.90625,86.78125 C 283.81111,90.47127 281.21875,95.80724 281.21875,101.75 C 281.21875,108.59041 284.65986,114.64059 289.875,118.28125 C 282.33354,118.91733 277.15625,120.1414 277.15625,121.5625 C 277.15625,123.2381 284.31251,124.61345 294.125,125.09375 C 292.45077,145.71238 276.40625,128.80123 276.40625,148.28125 L 276.40625,154.25 L 326.34375,154.25 L 326.34375,148.28125 C 326.34375,128.80773 310.30823,145.66256 308.625,125.09375 C 318.45364,124.61494 325.65625,123.23988 325.65625,121.5625 C 325.65625,120.1414 320.44771,118.91733 312.90625,118.28125 C 318.13297,114.64468 321.53125,108.59863 321.53125,101.75 C 321.53125,95.82301 318.98247,90.50148 314.90625,86.8125 L 322.78125,64.1875 L 301.40625,46.4375 z M 301.375,59.875 C 301.99825,59.875 302.5,60.37675 302.5,61 L 302.5,66.4375 L 308.15625,66.4375 C 308.7795,66.4375 309.28125,66.85563 309.28125,67.375 C 309.28125,67.89438 308.7795,68.3125 308.15625,68.3125 L 302.5,68.3125 L 302.5,77.75 C 302.5,78.37325 301.99825,78.875 301.375,78.875 C 300.75175,78.875 300.25,78.37325 300.25,77.75 L 300.25,68.3125 L 294.59375,68.3125 C 293.9705,68.3125 293.46875,67.89438 293.46875,67.375 C 293.46875,66.85563 293.9705,66.4375 294.59375,66.4375 L 300.25,66.4375 L 300.25,61 C 300.25,60.37675 300.75175,59.875 301.375,59.875 z "
       id="WBishop"
       inkscape:label="White Bishop" />
  </g>
</svg>
