<?xml version="1.0" encoding="UTF-8" standalone="no"?>
<!-- Created with Inkscape (http://www.inkscape.org/) -->

<svg
   xmlns:dc="http://purl.org/dc/elements/1.1/"
   xmlns:cc="http://creativecommons.org/ns#"
   xmlns:rdf="http://www.w3.org/1999/02/22-rdf-syntax-ns#"
   xmlns:svg="http://www.w3.org/2000/svg"
   xmlns="http://www.w3.org/2000/svg"
   xmlns:sodipodi="http://sodipodi.sourceforge.net/DTD/sodipodi-0.dtd"
   xmlns:inkscape="http://www.inkscape.org/namespaces/inkscape"
   width="64px"
   height="64px"
   id="svg2985"
   version="1.1"
   inkscape:version="0.48.1 "
   sodipodi:docname="bb.svg">
  <defs
     id="defs2987" />
  <sodipodi:namedview
     id="base"
     pagecolor="#ffffff"
     bordercolor="#666666"
     borderopacity="1.0"
     inkscape:pageopacity="0.0"
     inkscape:pageshadow="2"
     inkscape:zoom="5.5"
     inkscape:cx="10.272727"
     inkscape:cy="32"
     inkscape:current-layer="layer1"
     showgrid="true"
     inkscape:document-units="px"
     inkscape:grid-bbox="true"
     inkscape:window-width="1365"
     inkscape:window-height="878"
     inkscape:window-x="-8"
     inkscape:window-y="-8"
     inkscape:window-maximized="1" />
  <metadata
     id="metadata2990">
    <rdf:RDF>
      <cc:Work
         rdf:about="">
        <dc:format>image/svg+xml</dc:format>
        <dc:type
           rdf:resource="http://purl.org/dc/dcmitype/StillImage" />
        <dc:title></dc:title>
      </cc:Work>
    </rdf:RDF>
  </metadata>
  <g
     id="layer1"
     inkscape:label="Layer 1"
     inkscape:groupmode="layer">
    <text
       xml:space="preserve"
       style="font-size:64px;font-style:normal;font-variant:normal;font-weight:normal;font-stretch:normal;line-height:125%;letter-spacing:0px;word-spacing:0px;fill:#000000;fill-opacity:1;stroke:none;font-family:Traveller Standard;-inkscape-font-specification:Traveller Standard"
       x="0"
       y="61.265625"
       id="text3117"
       sodipodi:linespacing="125%"><tspan
         sodipodi:role="line"
         id="tspan3119"
         x="0"
         y="61.265625">B</tspan></text>
    <path
       style="fill:#ffffff;fill-opacity:1;fill-rule:evenodd"
       d="m 55.945455,57.290023 c -1.193308,-0.848496 -4.269879,-2.238842 -5.535813,-2.501714 -1.160858,-0.241051 -1.631754,-0.226343 -5.818182,0.181733 -6.882556,0.670884 -7.965971,0.613525 -9.873278,-0.522712 -0.872483,-0.519763 -0.954546,-0.625535 -0.954546,-1.230329 l 0,-0.661678 1.913617,0.976884 c 2.197421,1.121764 2.471771,1.15312 6.177292,0.706023 3.316898,-0.400206 7.463042,-0.357179 9.358163,0.09711 1.984156,0.475637 5.391096,2.072362 5.526483,2.590088 0.186918,0.714773 -0.10966,0.851001 -0.793736,0.36459 l 0,0 z"
       id="path3121"
       inkscape:connector-curvature="0" />
    <path
       style="fill:#ffffff;fill-opacity:1;fill-rule:evenodd"
       d="m 7.0702985,57.586956 c 0.051694,-0.506739 0.1881846,-0.616237 1.472791,-1.18153 2.1215835,-0.933606 4.8425495,-1.842951 6.5331695,-2.18338 1.161024,-0.233789 2.732983,-0.313751 6.869196,-0.349422 5.656927,-0.04879 6.288885,-0.128973 8.03821,-1.019953 0.835504,-0.425545 0.87088,-0.425273 0.87088,0.0067 0,0.472071 -1.518896,1.203531 -3.277023,1.578128 -1.456846,0.310405 -3.531873,0.374246 -9.480841,0.291694 -3.41628,-0.04741 -3.860677,-0.01751 -4.888936,0.328884 -1.346223,0.45351 -3.2818505,1.409915 -4.8217951,2.382478 -0.613885,0.387704 -1.1738605,0.704916 -1.2443901,0.704916 -0.07053,0 -0.1025972,-0.251325 -0.071261,-0.558499 z"
       id="path3123"
       inkscape:connector-curvature="0" />
    <path
       style="fill:#ffffff;fill-opacity:1;fill-rule:evenodd"
       d="m 29.186017,48.67275 c -3.778464,-0.215617 -5.967835,-0.680987 -5.967835,-1.268515 0,-0.523867 3.570207,-1.309559 7,-1.540482 3.037796,-0.204532 7.947954,0.449564 8.848428,1.178724 l 0.399848,0.323777 -0.44232,0.285267 c -0.608159,0.392222 -2.927964,0.842299 -4.945266,0.959456 -0.923379,0.05363 -1.883417,0.119057 -2.133417,0.145401 -0.25,0.02634 -1.491748,-0.01129 -2.759438,-0.08363 z"
       id="path3125"
       inkscape:connector-curvature="0" />
    <path
       style="fill:#ffffff;fill-opacity:1;fill-rule:evenodd"
       d="m 22.49305,44.757569 c 0.0024,-0.176195 1.748749,-4.969065 1.845983,-5.066299 0.169321,-0.169321 15.016543,-0.310244 15.119591,-0.143508 0.06214,0.100548 0.242286,1.231803 0.40032,2.5139 0.158034,1.282098 0.328796,2.398173 0.379471,2.480167 0.12912,0.208919 -0.06973,0.1854 -1.111142,-0.131423 C 35.175082,43.208056 28.072937,43.379711 22.9,44.802612 c -0.225,0.06189 -0.408127,0.04162 -0.40695,-0.04504 z"
       id="path3127"
       inkscape:connector-curvature="0" />
    <path
       style="fill:#ffffff;fill-opacity:1;fill-rule:evenodd"
       d="m 23.965625,35.531218 c -1.502234,-1.89336 -4.031743,-5.422934 -4.390799,-6.126742 -0.858655,-1.683103 -0.780821,-4.429102 0.179462,-6.331411 2.028751,-4.018933 6.256988,-8.7832 10.136235,-11.421244 l 1.490522,-1.013615 1.246372,0.740456 c 3.851734,2.288273 8.05003,6.343036 9.819579,9.483862 1.221211,2.167564 1.498459,3.21467 1.498459,5.65938 0,1.702456 -0.07838,2.401085 -0.358915,3.199267 -0.315018,0.89628 -3.626142,6.463034 -3.971013,6.676176 -0.07179,0.04437 -0.497383,0.01327 -0.945758,-0.06912 -0.448373,-0.08239 -2.083405,-0.291836 -3.633405,-0.465447 -3.097002,-0.346886 -5.299755,-0.23122 -8.593816,0.45126 l -1.593816,0.330214 -0.883107,-1.113038 0,0 z m 9.616193,-6.476673 0,-2 2.818182,0 2.818182,0 0,-2.175883 0,-2.175883 -2.335609,0.111719 c -1.284586,0.06144 -2.552768,0.05722 -2.818182,-0.0094 l -0.482573,-0.121119 0,-2.087445 0,-2.087445 -2.181818,0 -2.181818,0 0,2.181818 0,2.181818 -2.909091,0 -2.909091,0 0,2.181818 0,2.181819 2.909091,0 2.909091,0 0,1.909091 0,1.90909 2.181818,0 2.181818,0 0,-2 z"
       id="path3129"
       inkscape:connector-curvature="0" />
    <path
       style="fill:#ffffff;fill-opacity:1;fill-rule:evenodd"
       d="M 29.991034,7.692622 C 28.25067,6.9361826 29.31439,4.7818182 31.428247,4.7818182 c 0.798813,0 0.97584,0.072935 1.441213,0.5937776 0.621948,0.696081 0.67782,1.3498517 0.159643,1.8680286 -0.740826,0.7408262 -1.954104,0.9201371 -3.038069,0.4489976 l 0,0 z"
       id="path3131"
       inkscape:connector-curvature="0" />
  </g>
</svg>
