<?xml version="1.0" encoding="UTF-8" standalone="no"?>
<!-- Created with Inkscape (http://www.inkscape.org/) -->

<svg
   xmlns:dc="http://purl.org/dc/elements/1.1/"
   xmlns:cc="http://creativecommons.org/ns#"
   xmlns:rdf="http://www.w3.org/1999/02/22-rdf-syntax-ns#"
   xmlns:svg="http://www.w3.org/2000/svg"
   xmlns="http://www.w3.org/2000/svg"
   xmlns:sodipodi="http://sodipodi.sourceforge.net/DTD/sodipodi-0.dtd"
   xmlns:inkscape="http://www.inkscape.org/namespaces/inkscape"
   width="64px"
   height="64px"
   id="svg2985"
   version="1.1"
   inkscape:version="0.48.1 "
   sodipodi:docname="bn.svg">
  <defs
     id="defs2987" />
  <sodipodi:namedview
     id="base"
     pagecolor="#ffffff"
     bordercolor="#666666"
     borderopacity="1.0"
     inkscape:pageopacity="0.0"
     inkscape:pageshadow="2"
     inkscape:zoom="5.5"
     inkscape:cx="10.272727"
     inkscape:cy="32"
     inkscape:current-layer="layer1"
     showgrid="true"
     inkscape:document-units="px"
     inkscape:grid-bbox="true"
     inkscape:window-width="1365"
     inkscape:window-height="878"
     inkscape:window-x="-8"
     inkscape:window-y="-8"
     inkscape:window-maximized="1" />
  <metadata
     id="metadata2990">
    <rdf:RDF>
      <cc:Work
         rdf:about="">
        <dc:format>image/svg+xml</dc:format>
        <dc:type
           rdf:resource="http://purl.org/dc/dcmitype/StillImage" />
        <dc:title></dc:title>
      </cc:Work>
    </rdf:RDF>
  </metadata>
  <g
     id="layer1"
     inkscape:label="Layer 1"
     inkscape:groupmode="layer">
    <text
       xml:space="preserve"
       style="font-size:64px;font-style:normal;font-variant:normal;font-weight:normal;font-stretch:normal;line-height:125%;letter-spacing:0px;word-spacing:0px;fill:#000000;fill-opacity:1;stroke:none;font-family:Traveller Standard;-inkscape-font-specification:Traveller Standard"
       x="-0.3125"
       y="61.234375"
       id="text3143"
       sodipodi:linespacing="125%"><tspan
         sodipodi:role="line"
         id="tspan3145"
         x="-0.3125"
         y="61.234375">N</tspan></text>
    <path
       style="fill:#ffffff;fill-opacity:1;fill-rule:evenodd"
       d="m 24.743497,55.009091 c 0.208284,-3.701456 0.340814,-4.061618 2.778167,-7.549896 1.16866,-1.672557 2.820507,-3.981922 3.670771,-5.131922 1.889523,-2.555622 2.884741,-4.086122 3.665083,-5.636364 l 0.594891,-1.181818 0.01925,-4.727273 c 0.01905,-4.678462 0.01442,-4.739363 -0.449611,-5.898305 -0.531129,-1.326556 -0.887682,-1.666639 -1.347369,-1.285133 -0.545522,0.452744 -0.956029,1.518781 -1.3659,3.547075 -0.437589,2.165472 -1.313689,5.029752 -1.735738,5.67474 -0.287635,0.439574 -1.924142,1.600547 -3.095851,2.196265 -0.407546,0.207204 -1.389365,0.539089 -2.181818,0.737524 -2.370422,0.593567 -4.669555,1.49992 -5.17808,2.041278 -0.25964,0.276403 -0.755615,1.324774 -1.124491,2.376902 -0.608065,1.734352 -0.660898,1.822287 -0.671837,1.118209 -0.0065,-0.420295 -0.107169,-0.973326 -0.223642,-1.228957 l -0.21177,-0.464785 -1.314716,1.274809 c -0.723094,0.701144 -1.670088,1.433913 -2.104433,1.628375 -0.774137,0.346592 -0.80036,0.346829 -1.329147,0.01202 -0.980034,-0.620506 -2.698678,-2.444215 -3.050761,-3.237255 -0.2953906,-0.665345 -0.3148353,-0.879103 -0.132314,-1.454545 0.465251,-1.466818 1.938238,-4.638017 4.431061,-9.539649 1.709022,-3.360448 2.780443,-5.700409 3.100437,-6.771293 1.114095,-3.728405 1.361605,-4.092232 3.599612,-5.291242 0.876909,-0.469804 1.883207,-1.173885 2.236217,-1.564624 0.721457,-0.798568 0.718262,-0.862655 -0.127036,-2.54804 -0.551605,-1.099808 -0.690087,-2.1415486 -0.284683,-2.1415486 0.265828,0 0.982328,0.7366076 2.033833,2.0909086 0.388209,0.5 0.71313,0.924788 0.722048,0.943972 0.0089,0.01918 0.680472,-0.131938 1.492344,-0.335827 l 1.476131,-0.370707 0.107247,-1.118719 c 0.05899,-0.615295 0.160058,-1.7119003 0.224604,-2.4369003 0.07674,-0.8620286 0.195116,-1.3181819 0.342069,-1.3181819 0.303631,0 1.141471,0.6738684 1.37094,1.1026359 0.234907,0.4389289 0.89166,4.0216403 0.914407,4.9882733 0.0094,0.4 0.05838,0.625 0.108822,0.5 0.150643,-0.373333 0.606647,-0.266603 2.490376,0.58288 3.465329,1.562719 5.150358,2.78442 7.659636,5.553484 4.314213,4.760865 6.286828,8.530787 7.917599,15.131563 1.384263,5.602998 2.027278,10.432069 2.35506,17.686618 0.0994,2.2 0.181509,4.061364 0.18246,4.136364 9.09e-4,0.075 -6.228731,0.136364 -13.843735,0.136364 l -13.845462,0 0.12533,-2.227273 0,0 z M 12.672727,38.327273 c 0.227725,-0.227726 0.363637,-0.60606 0.363637,-1.012253 0,-0.696875 -0.0052,-0.697891 -1.229508,-0.239847 -0.475087,0.177745 -0.868486,0.9163 -0.709191,1.331414 0.156669,0.408275 1.13683,0.358917 1.575062,-0.07931 z M 22.788383,21.897575 c 0.234107,-0.272166 0.444929,-0.846174 0.522418,-1.422397 0.07145,-0.531348 0.192559,-1.047905 0.269123,-1.147905 0.07656,-0.1 0.199534,-0.386364 0.273266,-0.636364 0.07373,-0.25 0.308746,-0.650025 0.522253,-0.888945 l 0.388193,-0.434399 -1.058911,0.119387 c -2.248676,0.253528 -3.766151,1.687349 -3.792316,3.583257 -0.005,0.360891 0.05019,0.842837 0.122604,1.07099 0.123208,0.388194 0.203213,0.408336 1.246264,0.313755 0.891347,-0.08082 1.193223,-0.192468 1.507106,-0.557379 l 0,0 z m 8.92175,-7.25212 c -0.04334,-0.225 -0.07879,-0.04091 -0.07879,0.40909 0,0.45 0.03546,0.634091 0.07879,0.409091 0.04334,-0.225 0.04334,-0.593181 0,-0.818181 z"
       id="path3147"
       inkscape:connector-curvature="0" />
  </g>
</svg>
