<?xml version="1.0" encoding="UTF-8" standalone="no"?>
<!-- Created with Inkscape (http://www.inkscape.org/) -->

<svg
   xmlns:dc="http://purl.org/dc/elements/1.1/"
   xmlns:cc="http://creativecommons.org/ns#"
   xmlns:rdf="http://www.w3.org/1999/02/22-rdf-syntax-ns#"
   xmlns:svg="http://www.w3.org/2000/svg"
   xmlns="http://www.w3.org/2000/svg"
   xmlns:sodipodi="http://sodipodi.sourceforge.net/DTD/sodipodi-0.dtd"
   xmlns:inkscape="http://www.inkscape.org/namespaces/inkscape"
   width="64px"
   height="64px"
   id="svg2985"
   version="1.1"
   inkscape:version="0.48.1 "
   sodipodi:docname="br.svg">
  <defs
     id="defs2987" />
  <sodipodi:namedview
     id="base"
     pagecolor="#ffffff"
     bordercolor="#666666"
     borderopacity="1.0"
     inkscape:pageopacity="0.0"
     inkscape:pageshadow="2"
     inkscape:zoom="5.6568542"
     inkscape:cx="10.599089"
     inkscape:cy="16.169916"
     inkscape:current-layer="layer1"
     showgrid="true"
     inkscape:document-units="px"
     inkscape:grid-bbox="true"
     inkscape:window-width="1365"
     inkscape:window-height="878"
     inkscape:window-x="-8"
     inkscape:window-y="-8"
     inkscape:window-maximized="1" />
  <metadata
     id="metadata2990">
    <rdf:RDF>
      <cc:Work
         rdf:about="">
        <dc:format>image/svg+xml</dc:format>
        <dc:type
           rdf:resource="http://purl.org/dc/dcmitype/StillImage" />
        <dc:title></dc:title>
      </cc:Work>
    </rdf:RDF>
  </metadata>
  <g
     id="layer1"
     inkscape:label="Layer 1"
     inkscape:groupmode="layer">
    <text
       xml:space="preserve"
       style="font-size:64px;font-style:normal;font-variant:normal;font-weight:normal;font-stretch:normal;line-height:125%;letter-spacing:0px;word-spacing:0px;fill:#000000;fill-opacity:1;stroke:none;font-family:KiddyChessFont;-inkscape-font-specification:KiddyChessFont"
       x="-145"
       y="-28.5"
       id="text2997"
       sodipodi:linespacing="125%"><tspan
         sodipodi:role="line"
         x="-145"
         y="-28.5"
         id="tspan3003" /></text>
    <text
       xml:space="preserve"
       style="font-size:64px;font-style:normal;font-variant:normal;font-weight:normal;font-stretch:normal;line-height:125%;letter-spacing:0px;word-spacing:0px;fill:#000000;fill-opacity:1;stroke:none;font-family:KiddyChessFont;-inkscape-font-specification:KiddyChessFont"
       x="0.032226563"
       y="50.111328"
       id="text3115"
       sodipodi:linespacing="125%"><tspan
         sodipodi:role="line"
         id="tspan3117"
         x="0.032226563"
         y="50.111328">;</tspan></text>
    <path
       style="fill:#ffffff;fill-opacity:1;fill-rule:evenodd"
       d="m 19.596145,53.495777 c -0.05396,-0.267375 -0.146751,-0.611767 -0.206207,-0.765317 -0.129009,-0.333179 0.296111,-0.47809 3.319487,-1.131513 2.631041,-0.56863 6.077401,-0.975918 8.253256,-0.975362 3.850382,9.83e-4 8.333807,0.520232 10.638607,1.232112 l 1.176175,0.363283 -0.283396,0.748884 c -0.155867,0.411886 -0.305972,0.779862 -0.333565,0.817724 -0.02759,0.03786 -0.525835,-0.06462 -1.107199,-0.227746 -1.833556,-0.51447 -3.894958,-0.810292 -6.995946,-1.003958 -4.231995,-0.264301 -7.633691,0.01827 -12.000378,0.996839 -1.058259,0.237154 -2.022796,0.43119 -2.143418,0.43119 -0.120621,0 -0.263458,-0.218762 -0.317416,-0.486136 z"
       id="path3119"
       inkscape:connector-curvature="0" />
    <path
       style="fill:#ffffff;fill-opacity:1;fill-rule:evenodd"
       d="m 21.875606,45.295848 c -0.04232,-0.132637 -0.359566,-1.229148 -0.70499,-2.43669 -0.883357,-3.088055 -1.454365,-3.612336 -4.630057,-4.25117 -2.528551,-0.508652 -3.723505,-1.14295 -5.593815,-2.969272 -4.0796122,-3.983665 -5.7994468,-8.750899 -4.8217691,-13.36553 0.9024425,-4.259523 5.4002551,-9.48004 9.0093631,-10.45698 2.204266,-0.596667 4.129173,-0.09116 5.869334,1.54138 2.90028,2.720905 9.299819,12.26359 10.261235,15.301065 0.161565,0.510443 0.338888,0.92722 0.394053,0.926172 0.05516,-0.0011 0.407916,-0.587868 0.783894,-1.304043 1.343205,-2.558594 6.504335,-9.243389 9.758398,-12.639267 2.95885,-3.087799 4.029475,-3.647537 6.139056,-3.209589 3.043502,0.631828 6.071075,3.82595 7.302731,7.704458 1.790299,5.637686 0.08172,11.518114 -4.468135,15.378037 -0.983154,0.83407 -1.241008,0.966919 -1.880617,0.968924 -1.23498,0.0039 -3.962003,0.648245 -5.204959,1.229895 -0.64436,0.301532 -1.47194,0.864002 -1.839068,1.249932 -0.725012,0.762146 -1.850488,2.93196 -2.021795,3.897836 -0.05879,0.331481 -0.231485,0.946644 -0.383763,1.36703 -0.234034,0.646085 -0.333918,0.746839 -0.645622,0.651245 -0.202814,-0.0622 -0.806275,-0.247051 -1.341024,-0.410783 -0.815457,-0.249678 -1.770603,-0.296568 -5.922019,-0.29072 l -4.949748,0.007 -2.12132,0.591143 c -2.842089,0.792 -2.899384,0.801965 -2.989363,0.519955 l 0,7e-6 z m 5.585086,-2.818425 c 1.131841,-0.154674 2.664812,-0.178221 5.330159,-0.08188 2.057758,0.07438 4.127621,0.14627 4.599692,0.159754 l 0.858315,0.02452 0.303672,-0.977271 c 0.446506,-1.436937 1.384254,-3.094077 2.206709,-3.899583 0.397507,-0.389313 1.279586,-0.98481 1.960176,-1.323325 1.274802,-0.634067 4.004187,-1.306288 5.320971,-1.310508 0.906674,-0.0029 1.671521,-0.535078 3.303338,-2.298429 3.702399,-4.000835 4.309498,-9.808271 1.520227,-14.542336 -1.319566,-2.239621 -3.295095,-3.840461 -5.094417,-4.128184 -1.147013,-0.183415 -2.105161,0.287436 -3.403023,1.672307 -2.10214,2.243067 -6.283867,7.885821 -9.23042,12.455377 -1.360433,2.109778 -1.577511,2.562979 -1.972795,4.118653 -0.244286,0.961409 -0.618679,3.358895 -0.831983,5.327745 l -0.387829,3.579729 -0.799218,1.2e-4 -0.79922,1.2e-4 0.06031,-3.544656 c 0.08187,-4.811723 -0.08803,-5.977969 -1.196244,-8.211235 -2.614303,-5.268341 -6.936142,-12.24277 -8.862619,-14.30218 -1.3088,-1.399111 -1.950311,-1.718208 -3.45428,-1.718208 -2.237624,0 -4.619826,1.67566 -6.837135,4.809294 -1.8918221,2.673637 -2.5105738,4.649517 -2.3759406,7.587172 0.1417112,3.092097 1.1248159,5.366152 3.2608796,7.542857 1.967073,2.004501 3.761533,2.922863 6.856397,3.508945 1.741862,0.32986 3.233353,1.048367 3.727639,1.795743 0.204268,0.308863 0.628855,1.303232 0.943525,2.209709 0.31467,0.906479 0.639964,1.820423 0.722876,2.030986 l 0.150748,0.382841 1.265355,-0.325479 c 0.695945,-0.179015 1.980306,-0.423182 2.854132,-0.542597 l 0,0 z"
       id="path3121"
       inkscape:connector-curvature="0" />
    <path
       style="fill:#ffffff;fill-opacity:1;fill-rule:evenodd"
       d="m 31.867246,19.927363 c -0.646452,-2.370215 -0.98776,-9.280828 -0.538308,-10.8993435 0.302374,-1.0888759 1.440001,-1.3013315 2.042709,-0.3814826 0.322257,0.4918266 0.343657,2.2443061 0.07006,5.7373961 -0.152283,1.944244 -0.660726,4.403183 -1.206239,5.833631 -0.162926,0.427224 -0.175189,0.417559 -0.368223,-0.290201 z"
       id="path3123"
       inkscape:connector-curvature="0" />
  </g>
</svg>
