<?xml version="1.0" encoding="UTF-8" standalone="no"?>
<!-- Created with Inkscape (http://www.inkscape.org/) -->

<svg
   xmlns:dc="http://purl.org/dc/elements/1.1/"
   xmlns:cc="http://creativecommons.org/ns#"
   xmlns:rdf="http://www.w3.org/1999/02/22-rdf-syntax-ns#"
   xmlns:svg="http://www.w3.org/2000/svg"
   xmlns="http://www.w3.org/2000/svg"
   xmlns:sodipodi="http://sodipodi.sourceforge.net/DTD/sodipodi-0.dtd"
   xmlns:inkscape="http://www.inkscape.org/namespaces/inkscape"
   width="64px"
   height="64px"
   id="svg2985"
   version="1.1"
   inkscape:version="0.48.1 "
   sodipodi:docname="wp.svg">
  <defs
     id="defs2987" />
  <sodipodi:namedview
     id="base"
     pagecolor="#ffffff"
     bordercolor="#666666"
     borderopacity="1.0"
     inkscape:pageopacity="0.0"
     inkscape:pageshadow="2"
     inkscape:zoom="5.6568542"
     inkscape:cx="10.599089"
     inkscape:cy="16.169916"
     inkscape:current-layer="layer1"
     showgrid="true"
     inkscape:document-units="px"
     inkscape:grid-bbox="true"
     inkscape:window-width="1365"
     inkscape:window-height="878"
     inkscape:window-x="-8"
     inkscape:window-y="-8"
     inkscape:window-maximized="1" />
  <metadata
     id="metadata2990">
    <rdf:RDF>
      <cc:Work
         rdf:about="">
        <dc:format>image/svg+xml</dc:format>
        <dc:type
           rdf:resource="http://purl.org/dc/dcmitype/StillImage" />
        <dc:title></dc:title>
      </cc:Work>
    </rdf:RDF>
  </metadata>
  <g
     id="layer1"
     inkscape:label="Layer 1"
     inkscape:groupmode="layer">
    <text
       xml:space="preserve"
       style="font-size:64px;font-style:normal;font-variant:normal;font-weight:normal;font-stretch:normal;line-height:125%;letter-spacing:0px;word-spacing:0px;fill:#000000;fill-opacity:1;stroke:none;font-family:KiddyChessFont;-inkscape-font-specification:KiddyChessFont"
       x="-145"
       y="-28.5"
       id="text2997"
       sodipodi:linespacing="125%"><tspan
         sodipodi:role="line"
         x="-145"
         y="-28.5"
         id="tspan3003" /></text>
    <text
       xml:space="preserve"
       style="font-size:64px;font-style:normal;font-variant:normal;font-weight:normal;font-stretch:normal;line-height:125%;letter-spacing:0px;word-spacing:0px;fill:#000000;fill-opacity:1;stroke:none;font-family:KiddyChessFont;-inkscape-font-specification:KiddyChessFont"
       x="2.6884766"
       y="51.359375"
       id="text3087"
       sodipodi:linespacing="125%"><tspan
         sodipodi:role="line"
         id="tspan3089"
         x="2.6884766"
         y="51.359375">7</tspan></text>
    <path
       style="fill:#ffffff;fill-opacity:1;fill-rule:evenodd"
       d="m 46.85259,56.754572 -0.639796,-0.209397 0.319675,-1.325825 c 0.455109,-1.887525 1.185979,-6.31017 1.39804,-8.459817 0.09933,-1.006881 0.180126,-3.114943 0.179553,-4.684583 -0.0027,-7.269609 -1.693123,-11.633793 -6.960027,-17.968299 -0.929669,-1.118113 -1.692711,-2.088546 -1.695648,-2.156518 -0.0029,-0.06797 0.284034,-0.344303 0.637714,-0.614068 l 0.643055,-0.490482 0.704832,0.790845 c 0.387657,0.434964 1.345762,1.646002 2.129122,2.691194 0.78336,1.045192 1.470945,1.900349 1.527966,1.900349 0.05702,0 0.936037,-0.596621 1.953368,-1.325825 1.017331,-0.729204 1.895849,-1.325825 1.952262,-1.325825 0.09476,0 0.64753,0.698092 0.932507,1.177671 0.07609,0.128046 -0.610572,0.743579 -1.8233,1.634437 -1.069944,0.78597 -1.945352,1.472469 -1.945352,1.525552 0,0.05308 0.35936,0.709703 0.798579,1.459155 0.72831,1.24274 2.206624,4.692961 2.206624,5.150018 0,0.279157 0.428955,0.232149 2.298097,-0.251843 0.923659,-0.23917 1.762382,-0.43645 1.863829,-0.438398 0.219465,-0.0042 0.642004,1.450656 0.467068,1.608193 -0.06665,0.06003 -1.023542,0.329509 -2.126419,0.598854 l -2.005231,0.489717 0.102114,0.550196 c 0.05616,0.302607 0.154784,1.796432 0.219157,3.319611 l 0.117043,2.769415 0.548637,0.0939 c 0.30175,0.05165 1.319627,0.190786 2.261948,0.309197 l 1.713311,0.215291 -0.08977,0.545312 c -0.234112,1.422101 -0.0389,1.312729 -1.874754,1.050386 -0.90138,-0.128809 -1.886298,-0.276778 -2.188707,-0.328821 l -0.549835,-0.09462 -0.119311,1.373397 c -0.119582,1.376527 -1.170918,7.770052 -1.577256,9.591817 -0.238353,1.068626 -0.383173,1.155766 -1.379093,0.829813 l 0,0 z"
       id="path3091"
       inkscape:connector-curvature="0" />
    <path
       style="fill:#ffffff;fill-opacity:1;fill-rule:evenodd"
       d="m 27.428231,25.227824 c -0.606077,-0.243759 -0.883884,-0.660319 -0.883884,-1.325348 0,-0.854527 0.430919,-1.309077 1.395517,-1.472045 2.235561,-0.377695 3.757717,0.980169 2.603271,2.322292 -0.373524,0.434248 -0.556643,0.494204 -1.635184,0.53538 -0.668005,0.0255 -1.333879,-0.0016 -1.47972,-0.06028 z"
       id="path3093"
       inkscape:connector-curvature="0" />
  </g>
</svg>
