<?xml version="1.0" encoding="UTF-8" standalone="no"?>
<!-- Created with Inkscape (http://www.inkscape.org/) -->

<svg
   xmlns:dc="http://purl.org/dc/elements/1.1/"
   xmlns:cc="http://creativecommons.org/ns#"
   xmlns:rdf="http://www.w3.org/1999/02/22-rdf-syntax-ns#"
   xmlns:svg="http://www.w3.org/2000/svg"
   xmlns="http://www.w3.org/2000/svg"
   xmlns:sodipodi="http://sodipodi.sourceforge.net/DTD/sodipodi-0.dtd"
   xmlns:inkscape="http://www.inkscape.org/namespaces/inkscape"
   width="64px"
   height="64px"
   id="svg2985"
   version="1.1"
   inkscape:version="0.48.1 "
   sodipodi:docname="New document 2">
  <defs
     id="defs2987" />
  <sodipodi:namedview
     id="base"
     pagecolor="#ffffff"
     bordercolor="#666666"
     borderopacity="1.0"
     inkscape:pageopacity="0.0"
     inkscape:pageshadow="2"
     inkscape:zoom="5.6568542"
     inkscape:cx="10.599089"
     inkscape:cy="16.169916"
     inkscape:current-layer="layer1"
     showgrid="true"
     inkscape:document-units="px"
     inkscape:grid-bbox="true"
     inkscape:window-width="1365"
     inkscape:window-height="878"
     inkscape:window-x="-8"
     inkscape:window-y="-8"
     inkscape:window-maximized="1" />
  <metadata
     id="metadata2990">
    <rdf:RDF>
      <cc:Work
         rdf:about="">
        <dc:format>image/svg+xml</dc:format>
        <dc:type
           rdf:resource="http://purl.org/dc/dcmitype/StillImage" />
        <dc:title></dc:title>
      </cc:Work>
    </rdf:RDF>
  </metadata>
  <g
     id="layer1"
     inkscape:label="Layer 1"
     inkscape:groupmode="layer">
    <text
       xml:space="preserve"
       style="font-size:64px;font-style:normal;font-variant:normal;font-weight:normal;font-stretch:normal;line-height:125%;letter-spacing:0px;word-spacing:0px;fill:#000000;fill-opacity:1;stroke:none;font-family:KiddyChessFont;-inkscape-font-specification:KiddyChessFont"
       x="-145"
       y="-28.5"
       id="text2997"
       sodipodi:linespacing="125%"><tspan
         sodipodi:role="line"
         x="-145"
         y="-28.5"
         id="tspan3003" /></text>
    <text
       xml:space="preserve"
       style="font-size:64px;font-style:normal;font-variant:normal;font-weight:normal;font-stretch:normal;line-height:125%;letter-spacing:0px;word-spacing:0px;fill:#000000;fill-opacity:1;stroke:none;font-family:KiddyChessFont;-inkscape-font-specification:KiddyChessFont"
       x="2.6884766"
       y="51.359375"
       id="text3009"
       sodipodi:linespacing="125%"><tspan
         sodipodi:role="line"
         id="tspan3011"
         x="2.6884766"
         y="51.359375">1</tspan></text>
    <path
       style="fill:#ffffff;fill-opacity:1;fill-rule:evenodd"
       d="m 23.825773,54.37966 c 0.447043,-1.864016 1.436543,-3.583359 2.62069,-4.553679 0.411083,-0.33685 1.933732,-1.17679 3.383663,-1.866532 1.449933,-0.689744 3.214785,-1.531284 3.921893,-1.870093 1.663946,-0.79727 3.059597,-2.148508 3.749957,-3.630623 1.766152,-3.791698 0.583484,-8.59783 -2.803096,-11.39124 -1.934174,-1.595397 -2.903611,-1.618033 -6.022448,-0.140626 -1.116914,0.529086 -2.636889,1.03743 -4.510298,1.508431 -4.335021,1.089886 -4.584234,1.233643 -5.927867,3.419478 -0.70209,1.142167 -1.453285,1.686904 -2.326247,1.686904 -0.72191,0 -1.295722,-0.368498 -1.654663,-1.062612 -0.368875,-0.713327 -0.332683,-1.49252 0.130584,-2.811412 0.377888,-1.075821 0.47772,-1.193057 1.946333,-2.285647 0.851409,-0.633414 1.548015,-1.253902 1.548015,-1.378863 0,-0.366441 -0.598131,-0.586264 -2.159431,-0.793631 -1.656763,-0.220042 -1.647925,-0.216358 -3.617325,-1.508373 -1.613926,-1.058809 -2.1795428,-1.79196 -2.1754881,-2.819861 0.00438,-1.110869 0.1552211,-1.216572 1.7360591,-1.216572 1.329798,0 1.478764,0.04215 3.048846,0.862697 0.907906,0.474483 1.888503,0.930887 2.179105,1.01423 1.855372,0.532114 8.237866,-1.84925 11.228967,-4.189625 2.199545,-1.721026 2.788968,-3.115026 2.602533,-6.155047 -0.06022,-0.981916 -0.150736,-2.023952 -0.201149,-2.315633 -0.206468,-1.194599 0.645583,1.026282 1.089172,2.838936 0.413601,1.69011 0.906361,2.72953 1.293997,2.72953 0.08271,0 0.394537,-0.205442 0.692947,-0.456536 0.744739,-0.626658 1.881556,-3.00996 2.375334,-4.979819 0.225502,-0.899611 0.448601,-1.674254 0.495776,-1.721429 0.162797,-0.162797 0.70878,1.892766 0.70878,2.668477 0,0.427812 -0.136126,1.407874 -0.302503,2.177914 -0.352528,1.631597 -0.259558,2.212114 0.408184,2.548757 0.875209,0.441238 1.860456,0.464083 4.902992,0.113684 1.652862,-0.190354 3.132368,-0.347212 3.287792,-0.348574 0.382829,-0.0034 3.700661,4.646872 3.475842,4.871691 -0.04543,0.04543 -0.83011,0.644197 -1.743738,1.330597 l -1.661139,1.248 -0.400924,-0.500207 c -0.220508,-0.275113 -1.254652,-1.574124 -2.298097,-2.886691 -1.568915,-1.973563 -1.987425,-2.396756 -2.418786,-2.445845 -0.583022,-0.06635 -0.980989,0.319915 -0.980989,0.952142 0,0.210796 0.301981,0.732551 0.671067,1.159455 4.617323,5.340623 6.804687,9.206575 7.840701,13.857665 0.795417,3.570958 0.603425,9.996049 -0.484805,16.22415 -0.234061,1.339561 -0.425565,2.473141 -0.425565,2.519068 0,0.04592 -5.251783,0.0835 -11.670629,0.0835 l -11.670631,0 0.116589,-0.486136 0,0 z m 7.99459,-28.751157 c 0.586308,-0.586307 0.614201,-1.543833 0.06109,-2.096948 -0.317212,-0.317211 -0.630605,-0.400671 -1.67054,-0.444882 -1.459976,-0.06207 -2.042132,0.157524 -2.400824,0.905602 -0.282747,0.58969 -0.15041,1.250147 0.334032,1.667049 0.522754,0.449871 1.023615,0.561749 2.182482,0.487501 0.828531,-0.05308 1.134795,-0.159354 1.493763,-0.518322 l 0,0 z"
       id="path3013"
       inkscape:connector-curvature="0" />
    <path
       style="fill:#ffffff;fill-opacity:1;fill-rule:evenodd"
       d="m 49.449925,33.354898 c -0.406378,-1.289181 -1.308691,-3.267258 -2.128269,-4.665655 -0.354142,-0.604251 -0.579928,-1.15479 -0.501748,-1.223418 0.07818,-0.06863 0.778544,-0.585301 1.556361,-1.148162 0.777818,-0.562861 1.506466,-1.095504 1.619218,-1.18365 0.288597,-0.225618 1.994149,3.325759 2.903774,6.046368 0.395455,1.182772 0.693027,2.173379 0.661271,2.201349 -0.11031,0.09716 -3.307688,0.977969 -3.55006,0.977969 -0.141485,0 -0.376743,-0.421709 -0.560547,-1.004801 l 0,0 z"
       id="path3015"
       inkscape:connector-curvature="0" />
    <path
       style="fill:#ffffff;fill-opacity:1;fill-rule:evenodd"
       d="M 52.000191,43.308228 50.674366,43.110146 50.54078,40.19333 c -0.07347,-1.604248 -0.153023,-3.107561 -0.176777,-3.340694 -0.04014,-0.393943 0.08149,-0.458607 1.722304,-0.915619 0.971021,-0.270458 1.805432,-0.451802 1.854247,-0.402987 0.14396,0.14396 0.231274,6.359232 0.101494,7.224669 -0.133405,0.889606 -0.0021,0.854272 -2.041857,0.549529 z"
       id="path3017"
       inkscape:connector-curvature="0" />
    <path
       style="fill:#ffffff;fill-opacity:1;fill-rule:evenodd"
       d="m 49.450426,52.700282 c 0.432965,-2.364121 0.958775,-6.226678 0.958775,-7.043092 0,-0.589274 -0.04213,-0.582204 1.873992,-0.31446 l 1.432051,0.200104 -0.159932,0.816588 c -0.403897,2.062235 -1.260413,5.894405 -1.595025,7.136355 l -0.369116,1.370019 -1.268669,0 -1.26867,0 0.396594,-2.165514 z"
       id="path3019"
       inkscape:connector-curvature="0" />
  </g>
</svg>
