<?xml version="1.0" encoding="UTF-8" standalone="no"?>
<!-- Created with Inkscape (http://www.inkscape.org/) -->

<svg
   xmlns:dc="http://purl.org/dc/elements/1.1/"
   xmlns:cc="http://creativecommons.org/ns#"
   xmlns:rdf="http://www.w3.org/1999/02/22-rdf-syntax-ns#"
   xmlns:svg="http://www.w3.org/2000/svg"
   xmlns="http://www.w3.org/2000/svg"
   xmlns:sodipodi="http://sodipodi.sourceforge.net/DTD/sodipodi-0.dtd"
   xmlns:inkscape="http://www.inkscape.org/namespaces/inkscape"
   width="64px"
   height="64px"
   id="svg2985"
   version="1.1"
   inkscape:version="0.48.1 "
   sodipodi:docname="wb.svg">
  <defs
     id="defs2987" />
  <sodipodi:namedview
     id="base"
     pagecolor="#ffffff"
     bordercolor="#666666"
     borderopacity="1.0"
     inkscape:pageopacity="0.0"
     inkscape:pageshadow="2"
     inkscape:zoom="5.6568542"
     inkscape:cx="10.599089"
     inkscape:cy="16.169916"
     inkscape:current-layer="layer1"
     showgrid="true"
     inkscape:document-units="px"
     inkscape:grid-bbox="true"
     inkscape:window-width="1365"
     inkscape:window-height="878"
     inkscape:window-x="-8"
     inkscape:window-y="-8"
     inkscape:window-maximized="1" />
  <metadata
     id="metadata2990">
    <rdf:RDF>
      <cc:Work
         rdf:about="">
        <dc:format>image/svg+xml</dc:format>
        <dc:type
           rdf:resource="http://purl.org/dc/dcmitype/StillImage" />
        <dc:title></dc:title>
      </cc:Work>
    </rdf:RDF>
  </metadata>
  <g
     id="layer1"
     inkscape:label="Layer 1"
     inkscape:groupmode="layer">
    <text
       xml:space="preserve"
       style="font-size:64px;font-style:normal;font-variant:normal;font-weight:normal;font-stretch:normal;line-height:125%;letter-spacing:0px;word-spacing:0px;fill:#000000;fill-opacity:1;stroke:none;font-family:KiddyChessFont;-inkscape-font-specification:KiddyChessFont"
       x="-145"
       y="-28.5"
       id="text2997"
       sodipodi:linespacing="125%"><tspan
         sodipodi:role="line"
         x="-145"
         y="-28.5"
         id="tspan3003" /></text>
    <text
       xml:space="preserve"
       style="font-size:64px;font-style:normal;font-variant:normal;font-weight:normal;font-stretch:normal;line-height:125%;letter-spacing:0px;word-spacing:0px;fill:#000000;fill-opacity:1;stroke:none;font-family:KiddyChessFont;-inkscape-font-specification:KiddyChessFont"
       x="0.063476563"
       y="50.912109"
       id="text3037"
       sodipodi:linespacing="125%"><tspan
         sodipodi:role="line"
         id="tspan3039"
         x="0.063476563"
         y="50.912109">3</tspan></text>
    <path
       style="fill:#ffffff;fill-opacity:1;fill-rule:evenodd"
       d="m 15.937746,54.432172 c 0,-0.343384 0.509944,-1.048275 0.958431,-1.324832 0.299294,-0.184557 1.618089,-0.702749 2.930656,-1.151541 1.312567,-0.44879 2.685408,-1.013314 3.050758,-1.254498 0.878746,-0.580099 1.672518,-1.702962 1.984251,-2.806906 0.420606,-1.489492 0.677933,-5.689415 0.572699,-9.347183 -0.147547,-5.128481 -0.814899,-8.258494 -2.475832,-11.612134 -1.159765,-2.341718 -1.13815,-2.279352 -0.637058,-1.838137 0.232099,0.204365 1.853889,0.856335 3.603978,1.448822 5.173418,1.751445 7.320816,1.824551 11.807322,0.401969 1.186921,-0.376349 2.486405,-0.772255 2.887745,-0.879792 0.769478,-0.206177 2.187107,-1.532166 2.187107,-2.045728 0,-0.409133 -0.460666,-0.339498 -3.581183,0.541335 -6.454377,1.821888 -7.884622,1.784988 -14.447388,-0.372742 -3.238848,-1.06488 -3.631999,-1.083811 -3.208574,-0.154493 0.335426,0.736179 0.125276,0.677509 -0.426816,-0.119159 -1.235291,-1.782526 -4.019633,-3.873967 -6.728523,-5.054087 -1.303784,-0.56799 -1.272846,-0.475797 -1.325153,-3.948803 -0.0523,-3.472267 -0.215081,-3.08914 1.539977,-3.624465 0.836453,-0.255134 1.543758,-0.438935 1.571788,-0.408445 0.02803,0.03049 0.128862,1.099678 0.224071,2.375975 0.150195,2.013395 0.238137,2.44002 0.664413,3.223229 0.819604,1.505884 1.207054,1.614428 5.936933,1.663228 5.339904,0.05509 5.802774,-0.143755 6.164942,-2.648463 0.09541,-0.659878 0.175057,-1.764842 0.176983,-2.455477 0.0019,-0.690635 0.05549,-1.753048 0.11902,-2.360918 l 0.115518,-1.1052193 1.905068,0.065206 c 1.047787,0.035863 1.960667,0.1208069 2.028624,0.1887633 0.06796,0.067956 0.181705,1.3794498 0.252774,2.9144308 0.133834,2.890554 0.261681,3.463434 0.984364,4.41092 0.717503,0.940694 1.165121,0.998149 5.95477,0.764343 4.626959,-0.225864 5.355475,-0.37586 5.961904,-1.227511 0.39269,-0.551482 0.644848,-1.955555 0.8189,-4.55983 0.06661,-0.996579 0.129617,-1.810738 0.140024,-1.809242 0.01041,0.0015 0.734869,0.224499 1.609914,0.495565 l 1.59099,0.492846 0.05466,3.084163 c 0.03007,1.69629 0.0047,3.646993 -0.05638,4.334897 l -0.111044,1.250735 -1.827495,0.750515 c -5.021322,2.062155 -7.635949,4.865613 -9.167413,9.829491 -1.063593,3.447385 -1.698501,10.011706 -1.39349,14.407301 0.276212,3.980545 0.880162,4.835969 4.801713,6.801061 2.094975,1.049796 3.721971,2.181389 3.721971,2.588674 0,0.08923 -6.631776,0.156207 -15.467961,0.156207 -8.507378,0 -15.46796,-0.03603 -15.46796,-0.08007 z m 11.871895,-7.360869 c 2.151918,-0.647497 6.009997,-0.473226 8.450557,0.381718 0.830209,0.290826 1.648681,0.575512 1.818829,0.632636 0.462612,0.155312 0.374331,-0.204628 -0.214745,-0.875549 -1.114528,-1.269377 -4.102093,-2.420584 -6.281799,-2.420584 -1.323835,0 -3.11,0.440565 -4.356229,1.074479 -0.759782,0.386477 -1.919344,1.679849 -1.919344,2.140833 0,0.286483 0.10872,0.261888 0.955935,-0.216251 0.525763,-0.296723 1.221822,-0.619499 1.546796,-0.717282 z"
       id="path3041"
       inkscape:connector-curvature="0" />
    <path
       style="fill:#ffffff;fill-opacity:1;fill-rule:evenodd"
       d="m 15.937746,54.432172 c 0,-0.344699 0.511057,-1.049097 0.964442,-1.329304 0.3026,-0.187016 1.553473,-0.689735 2.779719,-1.117153 2.739364,-0.954826 3.689886,-1.497564 4.380369,-2.501146 0.735468,-1.068967 1.005202,-2.255547 1.254783,-5.519885 0.540483,-7.069119 -0.327165,-12.932192 -2.583226,-17.45598 -0.432124,-0.866483 -0.78568,-1.596716 -0.78568,-1.62274 0,-0.02602 0.338086,0.139485 0.751301,0.3678 0.413216,0.228314 2.063868,0.852812 3.668117,1.387773 4.696007,1.565953 6.906108,1.638204 11.08635,0.36242 1.145932,-0.349731 2.468735,-0.752217 2.939562,-0.894413 0.562169,-0.169783 1.123522,-0.526014 1.635184,-1.037675 1.473245,-1.473245 1.040319,-1.558281 -2.671905,-0.524819 -6.542495,1.821392 -7.8531,1.802715 -14.167617,-0.201903 -1.683976,-0.534598 -3.201535,-0.941446 -3.372354,-0.904107 -0.327607,0.07161 -0.338107,0.136075 -0.137217,0.842388 0.103697,0.36459 0.02473,0.318179 -0.451194,-0.265165 -1.684207,-2.064363 -4.010956,-3.848165 -6.52324,-5.00104 -0.731861,-0.335847 -1.363565,-0.640449 -1.403788,-0.676891 -0.134338,-0.121716 -0.360049,-5.45074 -0.255564,-6.033863 0.09807,-0.547352 0.174655,-0.596717 1.600249,-1.03155 0.823484,-0.251178 1.521972,-0.430012 1.552196,-0.397409 0.03022,0.0326 0.138498,1.071595 0.240608,2.308872 0.267649,3.243111 0.90302,4.43115 2.538947,4.747412 0.418361,0.08088 2.431196,0.150393 4.472967,0.154476 4.044587,0.0081 4.545291,-0.0925 5.249454,-1.054553 0.364749,-0.498335 0.667903,-2.646944 0.673169,-4.771105 0.0018,-0.729203 0.0526,-1.624135 0.11286,-1.988737 l 0.109573,-0.662913 1.788831,0.00271 c 0.983858,0.00149 1.899831,0.072992 2.035497,0.1588954 0.18415,0.1166042 0.277863,0.8468366 0.369762,2.8812876 0.108205,2.395386 0.177931,2.844871 0.576299,3.715021 0.756668,1.652779 1.25847,1.780895 6.05469,1.545838 4.484549,-0.219783 5.353225,-0.369507 5.988021,-1.032092 0.627739,-0.655218 0.759339,-1.186498 1.014062,-4.093885 l 0.215775,-2.46285 0.45715,0.112914 c 0.251431,0.0621 0.97422,0.286413 1.606196,0.498468 l 1.149049,0.385553 0.05356,3.430906 c 0.02946,1.886999 0.0048,3.841256 -0.05489,4.342795 l -0.108455,0.911888 -1.005767,0.399515 c -1.779007,0.706662 -3.981619,1.870452 -5.098404,2.693831 -3.039909,2.241253 -4.891641,6.041834 -5.82965,11.965052 -0.254242,1.605449 -0.322867,3.07376 -0.326351,6.98268 -0.0039,4.414174 0.03194,5.054217 0.331583,5.915247 0.500588,1.438463 1.548589,2.352943 4.34727,3.793405 2.144784,1.103905 3.713627,2.201404 3.713627,2.597898 0,0.08923 -6.631776,0.156207 -15.467961,0.156207 -8.507378,0 -15.46796,-0.03603 -15.46796,-0.08007 z m 10.847111,-6.903141 c 2.742037,-1.345394 7.048515,-1.141424 11.29417,0.53493 0.529746,0.209164 0.346399,-0.232193 -0.411158,-0.98975 -1.172993,-1.172993 -4.122565,-2.284687 -6.061783,-2.284687 -2.187921,0 -4.767327,1.024301 -5.717936,2.270633 -0.55292,0.724926 -0.710904,1.088125 -0.473312,1.088125 0.05936,0 0.675868,-0.278664 1.370019,-0.619251 z"
       id="path3043"
       inkscape:connector-curvature="0" />
    <path
       style="fill:#ffffff;fill-opacity:1;fill-rule:evenodd"
       d="m 15.937746,54.415076 c 0,-0.05344 0.114261,-0.318126 0.253915,-0.588186 0.313095,-0.605458 1.138283,-1.029625 4.034022,-2.07358 4.314301,-1.55537 4.843302,-2.563434 5.185035,-9.880601 0.277986,-5.952225 -0.689547,-11.357607 -2.775887,-15.508231 -0.377673,-0.751353 -0.686678,-1.404953 -0.686678,-1.452446 0,-0.04749 0.258536,0.06512 0.574524,0.25026 0.781468,0.457856 5.403026,2.016255 7.097051,2.39314 2.189662,0.487154 4.919022,0.304356 7.670807,-0.513747 3.183659,-0.946498 3.76754,-1.162957 4.361845,-1.617039 0.592089,-0.452388 1.238429,-1.426957 1.025648,-1.546499 -0.17718,-0.09954 -1.45023,0.186712 -4.908361,1.103671 -4.950334,1.312634 -6.641169,1.229621 -12.584274,-0.617835 -1.706383,-0.530441 -3.222785,-0.964439 -3.369784,-0.964439 -0.207931,0 -0.244436,0.140702 -0.164425,0.633753 l 0.102844,0.633752 -0.739882,-0.854723 c -1.763173,-2.036847 -3.437682,-3.316459 -6.003898,-4.588009 -1.537529,-0.761839 -1.731641,-0.911315 -1.803337,-1.388652 -0.187994,-1.251636 -0.277675,-5.364335 -0.125635,-5.76149 0.133849,-0.349634 0.436425,-0.50747 1.61436,-0.842116 0.797301,-0.226509 1.473762,-0.385608 1.503247,-0.353553 0.02949,0.03205 0.146728,1.034769 0.260539,2.228254 0.221206,2.319668 0.394552,3.025096 0.933512,3.798908 0.672748,0.965896 1.144932,1.076278 4.951089,1.157405 6.571746,0.140075 6.717848,0.03748 6.948193,-4.87929 0.05334,-1.13862 0.137939,-2.408304 0.187993,-2.82152 l 0.09101,-0.751301 1.801129,0.00271 c 0.990622,0.00149 1.912572,0.073265 2.048777,0.1595023 0.182294,0.1154166 0.284361,0.8337207 0.386768,2.7218557 0.172278,3.176433 0.355811,3.892998 1.217931,4.755118 l 0.669323,0.669322 2.539864,-0.004 c 3.304204,-0.0052 6.70275,-0.274543 7.460708,-0.591238 1.148865,-0.480026 1.414682,-1.195161 1.717131,-4.619664 0.111633,-1.263953 0.225378,-2.321762 0.25277,-2.350686 0.02739,-0.02892 0.775227,0.168248 1.661858,0.438161 l 1.612058,0.490751 0,4.013942 c 0,2.207668 -0.07375,4.207915 -0.163884,4.444992 -0.09759,0.256674 -0.365762,0.481531 -0.662913,0.555836 -1.053099,0.263335 -4.515856,2.100408 -5.688271,3.017758 -4.305025,3.368451 -6.302366,10.308398 -5.987096,20.802709 0.08548,2.845223 0.133603,3.214193 0.530327,4.065864 0.723545,1.553286 1.766646,2.373786 5.214536,4.101741 1.230403,0.616631 2.691437,1.740547 2.691437,2.070414 0,0.08923 -6.631776,0.156207 -15.467961,0.156207 -8.507378,0 -15.46796,-0.04373 -15.46796,-0.09717 z m 10.809224,-6.87998 c 2.568604,-1.211581 6.212017,-1.213197 9.780657,-0.0043 0.969741,0.328496 1.799842,0.560588 1.84467,0.51576 0.04483,-0.04483 -0.231524,-0.407578 -0.614116,-0.806112 -1.398689,-1.456972 -4.709818,-2.607511 -6.861356,-2.384161 -2.20277,0.22867 -4.242856,1.181335 -5.143261,2.401766 -0.410605,0.556538 -0.551782,0.890264 -0.376613,0.890264 0.03852,0 0.655031,-0.275935 1.370019,-0.613186 z"
       id="path3045"
       inkscape:connector-curvature="0" />
  </g>
</svg>
