<?xml version="1.0" encoding="UTF-8" standalone="no"?>
<!-- Created with Inkscape (http://www.inkscape.org/) -->

<svg
   xmlns:dc="http://purl.org/dc/elements/1.1/"
   xmlns:cc="http://creativecommons.org/ns#"
   xmlns:rdf="http://www.w3.org/1999/02/22-rdf-syntax-ns#"
   xmlns:svg="http://www.w3.org/2000/svg"
   xmlns="http://www.w3.org/2000/svg"
   xmlns:sodipodi="http://sodipodi.sourceforge.net/DTD/sodipodi-0.dtd"
   xmlns:inkscape="http://www.inkscape.org/namespaces/inkscape"
   width="64px"
   height="64px"
   id="svg2985"
   version="1.1"
   inkscape:version="0.48.1 "
   sodipodi:docname="bb.svg">
  <defs
     id="defs2987" />
  <sodipodi:namedview
     id="base"
     pagecolor="#ffffff"
     bordercolor="#666666"
     borderopacity="1.0"
     inkscape:pageopacity="0.0"
     inkscape:pageshadow="2"
     inkscape:zoom="5.5"
     inkscape:cx="10.272727"
     inkscape:cy="32"
     inkscape:current-layer="layer1"
     showgrid="true"
     inkscape:document-units="px"
     inkscape:grid-bbox="true"
     inkscape:window-width="1365"
     inkscape:window-height="878"
     inkscape:window-x="-8"
     inkscape:window-y="-8"
     inkscape:window-maximized="1" />
  <metadata
     id="metadata2990">
    <rdf:RDF>
      <cc:Work
         rdf:about="">
        <dc:format>image/svg+xml</dc:format>
        <dc:type
           rdf:resource="http://purl.org/dc/dcmitype/StillImage" />
        <dc:title></dc:title>
      </cc:Work>
    </rdf:RDF>
  </metadata>
  <g
     id="layer1"
     inkscape:label="Layer 1"
     inkscape:groupmode="layer">
    <path
       style="fill:#000000"
       d="m 21.685314,57.400144 c -0.907692,-0.497605 -3.042832,-2.227751 -4.744755,-3.844771 -2.933392,-2.787053 -3.094406,-3.208547 -3.094406,-8.100394 0,-4.854084 -0.141093,-5.233116 -2.377233,-6.386202 C 10.161442,38.394563 8.1190249,36.690258 6.9302169,35.281431 2.7597488,30.339113 3.0731085,26.116045 7.9728492,21.230145 c 4.8595038,-4.845775 9.1396958,-5.194242 13.9742798,-1.1377 2.777777,2.330742 3.451472,2.52145 3.451472,0.97703 0,-0.594175 1.113986,-2.14457 2.475525,-3.445322 2.634206,-2.5166 3.289569,-5.348484 1.237762,-5.348484 -0.687645,0 -1.237762,-0.731417 -1.237762,-1.645688 0,-0.914271 0.550117,-1.6456878 1.237762,-1.6456878 0.687645,0 1.237762,-0.7314168 1.237762,-1.6456876 0,-1.097125 0.550117,-1.6456876 1.65035,-1.6456876 1.100233,0 1.65035,0.5485626 1.65035,1.6456876 0,0.9142708 0.550117,1.6456876 1.237762,1.6456876 0.687646,0 1.237762,0.7314168 1.237762,1.6456878 0,0.914271 -0.550116,1.645688 -1.237762,1.645688 -2.051807,0 -1.396444,2.831884 1.237762,5.348484 1.361539,1.300752 2.475525,2.851147 2.475525,3.445322 0,1.54442 0.673695,1.353712 3.451472,-0.97703 4.834584,-4.056542 9.114776,-3.708075 13.97428,1.1377 4.89974,4.8859 5.213101,9.108968 1.042632,14.051286 -1.188808,1.408827 -3.231225,3.113132 -4.538703,3.787346 -2.236139,1.153086 -2.377233,1.532118 -2.377233,6.386202 0,4.890136 -0.162039,5.314819 -3.094406,8.11002 -1.701923,1.622313 -3.905483,3.363719 -4.896801,3.869791 -2.315668,1.182159 -18.307075,1.155103 -20.477326,-0.03465 z m 3.3007,-4.805129 C 25.266506,52.142451 28.4228,51.772171 32,51.772171 c 3.5772,0 6.733494,0.37028 7.013986,0.822844 0.280493,0.452564 1.416393,0.822843 2.524224,0.822843 1.107832,0 2.014238,-0.370279 2.014238,-0.822843 0,-0.452564 -0.720742,-0.822844 -1.60165,-0.822844 -0.880908,0 -1.831144,-0.37028 -2.111637,-0.822844 C 39.558669,50.496763 36.031046,50.126483 32,50.126483 c -4.031046,0 -7.558669,0.37028 -7.839161,0.822844 -0.280493,0.452564 -1.230729,0.822844 -2.111637,0.822844 -0.880908,0 -1.60165,0.37028 -1.60165,0.822844 0,0.452564 0.906407,0.822843 2.014238,0.822843 1.107831,0 2.243731,-0.370279 2.524224,-0.822843 z m -3.3007,-4.937063 C 21.979006,47.18409 26.353641,46.835108 32,46.835108 c 5.646359,0 10.020994,0.348982 10.314686,0.822844 0.280493,0.452564 1.416393,0.822844 2.524224,0.822844 1.107831,0 2.014238,-0.37028 2.014238,-0.822844 0,-0.452564 -0.720743,-0.822844 -1.601651,-0.822844 -0.880908,0 -1.831144,-0.37028 -2.111636,-0.822844 C 42.842574,45.532604 38.196476,45.189421 32,45.189421 c -6.196476,0 -10.842574,0.343183 -11.139861,0.822843 -0.280492,0.452564 -1.230728,0.822844 -2.111636,0.822844 -0.880908,0 -1.601651,0.37028 -1.601651,0.822844 0,0.452564 0.906407,0.822844 2.014238,0.822844 1.107831,0 2.243732,-0.37028 2.524224,-0.822844 z m 5.891395,-9.051282 c 2.715347,0 2.772941,-0.07317 2.772941,-3.522843 0,-3.205391 -0.427564,-3.938448 -4.744755,-8.134866 -7.749777,-7.532978 -10.817053,-8.25735 -14.97396,-3.536269 -4.2602924,4.838497 -2.9861835,9.3755 3.934545,14.01061 2.403412,1.609668 3.708419,1.924132 6.616124,1.594276 1.99219,-0.225999 4.869987,-0.410908 6.395105,-0.410908 z M 14.930286,35.35625 c -3.004447,-1.826766 -4.384833,-3.989526 -4.384833,-6.870065 0,-2.549344 2.955861,-6.336391 4.945673,-6.336391 0.838854,0 4.122683,2.314248 7.297397,5.142774 4.389568,3.910905 5.788804,5.684796 5.841493,7.405594 0.06896,2.252157 0.04304,2.262806 -5.500646,2.259745 -4.058775,-0.0022 -6.283235,-0.43678 -8.199084,-1.601657 z m 34.311994,2.070538 c 7.062734,-4.445913 8.438354,-9.117364 4.126785,-14.014096 -4.156906,-4.721081 -7.224183,-3.996709 -14.97396,3.536269 -4.299162,4.178893 -4.744755,4.938823 -4.744755,8.091864 l 0,3.479842 4.332168,0.302212 c 2.382692,0.166217 5.175036,0.370707 6.205209,0.454424 1.030173,0.08372 3.304722,-0.749016 5.054553,-1.850515 z M 35.369985,34.698162 c 0.05269,-1.720798 1.451924,-3.494689 5.841492,-7.405594 3.174714,-2.828526 6.420766,-5.142774 7.213449,-5.142774 2.207429,0 5.029621,3.505273 5.029621,6.246985 0,5.453425 -4.630908,8.564204 -12.749233,8.564204 -5.362623,0 -5.404076,-0.01758 -5.335329,-2.262821 z M 34.434112,25.90235 c 2.476925,-2.976082 -0.782949,-8.477876 -3.878168,-6.545306 -3.012042,1.880635 -1.91932,7.729813 1.444056,7.729813 0.79655,0 1.891901,-0.533028 2.434112,-1.184507 z M 30.34965,22.972638 c 0,-1.919968 0.366744,-2.468531 1.65035,-2.468531 1.283606,0 1.65035,0.548563 1.65035,2.468531 0,1.919969 -0.366744,2.468531 -1.65035,2.468531 -1.283606,0 -1.65035,-0.548562 -1.65035,-2.468531 z"
       id="path3036"
       inkscape:connector-curvature="0" />
    <path
       style="fill:#ffffff;fill-opacity:1;fill-rule:evenodd"
       d="m 21.628393,53.242916 c -0.619248,-0.149077 -1.137484,-0.490635 -1.137484,-0.749691 0,-0.269126 0.73439,-0.558214 1.801101,-0.708992 0.604257,-0.08541 1.315204,-0.335811 1.705542,-0.600701 1.016349,-0.689714 3.142333,-0.931645 8.129721,-0.925142 4.888614,0.0064 6.847605,0.233104 7.836143,0.90694 0.380799,0.259571 1.138248,0.523954 1.811948,0.63245 1.205671,0.194168 1.624636,0.405138 1.624636,0.818086 0,0.412636 -0.765745,0.685943 -1.909091,0.681385 -1.021471,-0.0041 -1.564282,-0.172411 -2.819587,-0.874428 -0.708947,-0.396472 -3.240782,-0.641053 -6.630189,-0.640493 -4.11587,6.81e-4 -6.102468,0.24746 -7.277497,0.904023 -0.999687,0.558589 -2.224019,0.775931 -3.135243,0.556563 z"
       id="path3038"
       inkscape:connector-curvature="0" />
    <path
       style="fill:#ffffff;fill-opacity:1;fill-rule:evenodd"
       d="m 18.433108,48.315536 c -0.38179,-0.06427 -0.828868,-0.251556 -0.993506,-0.416194 -0.270637,-0.270637 -0.272262,-0.326422 -0.01695,-0.581739 0.155318,-0.155318 0.795393,-0.354908 1.422389,-0.443533 0.703886,-0.09949 1.393252,-0.33418 1.802019,-0.613476 1.086173,-0.742143 3.305842,-0.921395 11.3893,-0.919756 8.141836,0.0017 9.865003,0.150287 11.458185,0.988349 0.568307,0.298947 1.307491,0.54354 1.642631,0.54354 0.33514,0 0.81324,0.0929 1.062445,0.206446 1.18211,0.538605 0.428497,1.2481 -1.325712,1.2481 -0.923689,0 -1.406957,-0.113006 -2.277726,-0.532615 -0.879294,-0.423717 -1.531125,-0.574213 -3.188091,-0.73607 -4.040741,-0.394713 -15.50498,-0.191615 -17.186398,0.30447 -0.198065,0.05844 -0.568713,0.260469 -0.823661,0.448961 -0.562032,0.415528 -2.018386,0.662852 -2.964929,0.503517 l 0,0 z"
       id="path3040"
       inkscape:connector-curvature="0" />
    <path
       style="fill:#ffffff;fill-opacity:1;fill-rule:evenodd"
       d="M 17.718936,38.870233 C 15.246993,38.241134 11.081957,35.035443 9.394812,32.463429 8.0835119,30.464381 7.9545666,28.042612 9.0418358,25.834055 c 0.7247566,-1.47219 3.2158952,-4.144158 4.4281532,-4.749589 3.058431,-1.527454 6.327258,0.175148 12.846435,6.691199 2.855889,2.85452 3.324371,3.493004 3.731867,5.086085 0.406749,1.590162 0.310849,4.766124 -0.158076,5.235049 -0.265308,0.265306 -0.921793,0.355718 -3.904572,0.537743 -6.125967,0.373838 -7.562902,0.414805 -8.266707,0.235691 l 0,0 z m 10.226519,-2.173454 c 0.645314,-0.343744 0.72136,-0.517143 0.724489,-1.651989 0.0037,-1.343117 -0.557235,-2.440226 -2.127368,-4.160804 -3.349182,-3.670091 -9.783626,-8.738531 -11.093669,-8.738531 -1.810234,0 -4.63647,3.482679 -4.900245,6.038415 -0.222111,2.152051 0.922001,4.570463 2.921082,6.174549 1.860648,1.493005 3.743727,2.227821 6.415481,2.503452 2.340017,0.241407 7.495335,0.135814 8.06023,-0.165092 z"
       id="path3042"
       inkscape:connector-curvature="0" />
    <path
       style="fill:#ffffff;fill-opacity:1;fill-rule:evenodd"
       d="m 39.218182,38.862829 c -2.25,-0.17834 -4.404767,-0.330889 -4.788371,-0.338996 l -0.697461,-0.01474 0.06356,-2.954546 c 0.08425,-3.916394 0.116334,-3.979066 4.032184,-7.875642 6.55323,-6.520975 9.666744,-8.142299 12.695839,-6.611201 1.330049,0.672291 3.624222,3.155855 4.439355,4.805834 0.66038,1.336734 0.708985,1.543538 0.702811,2.990346 -0.0059,1.382022 -0.07377,1.693144 -0.612313,2.806958 -1.652737,3.41817 -7.902138,7.663347 -11.101073,7.540885 -0.35399,-0.01355 -2.484527,-0.170554 -4.734527,-0.348896 z m 5.909091,-2.244918 c 4.834612,-0.865895 7.754545,-3.351941 8.276829,-7.046934 0.202542,-1.432919 -0.02348,-2.6153 -0.766358,-4.00909 -1.009522,-1.894058 -2.829014,-3.416432 -4.083207,-3.416432 -1.875896,0 -11.451923,8.23404 -12.789559,10.997228 -0.489362,1.010888 -0.559817,2.885855 -0.124787,3.320884 0.160626,0.160627 0.642749,0.355182 1.071383,0.432345 1.150603,0.207132 6.737454,0.02258 8.415699,-0.278001 l 0,0 z"
       id="path3044"
       inkscape:connector-curvature="0" />
    <path
       style="fill:#ffffff;fill-opacity:1;fill-rule:evenodd"
       d="m 30.936441,26.798801 c -1.33085,-0.579682 -2.208609,-2.482008 -2.012234,-4.361017 0.344948,-3.300628 3.43721,-4.527121 5.245495,-2.080536 1.769576,2.394209 1.215824,5.416761 -1.175435,6.415892 -0.812681,0.339561 -1.322569,0.345919 -2.057826,0.02566 l 0,0 z m 2.15409,-1.607892 c 0.743004,-0.552772 0.743934,-3.904227 0.0012,-4.454545 -0.168698,-0.125 -0.69829,-0.227273 -1.176872,-0.227273 -1.177043,0 -1.494668,0.476678 -1.569595,2.355587 -0.04497,1.127665 0.01116,1.476807 0.315509,1.962595 0.334449,0.53383 0.454925,0.590909 1.247222,0.590909 0.482357,0 1.014482,-0.102273 1.1825,-0.227273 z"
       id="path3046"
       inkscape:connector-curvature="0" />
  </g>
</svg>
