<?xml version="1.0" encoding="UTF-8" standalone="no"?>
<!-- Created with Inkscape (http://www.inkscape.org/) -->

<svg
   xmlns:dc="http://purl.org/dc/elements/1.1/"
   xmlns:cc="http://creativecommons.org/ns#"
   xmlns:rdf="http://www.w3.org/1999/02/22-rdf-syntax-ns#"
   xmlns:svg="http://www.w3.org/2000/svg"
   xmlns="http://www.w3.org/2000/svg"
   xmlns:sodipodi="http://sodipodi.sourceforge.net/DTD/sodipodi-0.dtd"
   xmlns:inkscape="http://www.inkscape.org/namespaces/inkscape"
   width="64px"
   height="64px"
   id="svg2985"
   version="1.1"
   inkscape:version="0.48.1 "
   sodipodi:docname="bq.svg">
  <defs
     id="defs2987" />
  <sodipodi:namedview
     id="base"
     pagecolor="#ffffff"
     bordercolor="#666666"
     borderopacity="1.0"
     inkscape:pageopacity="0.0"
     inkscape:pageshadow="2"
     inkscape:zoom="5.5"
     inkscape:cx="53.14394"
     inkscape:cy="32"
     inkscape:current-layer="layer1"
     showgrid="true"
     inkscape:document-units="px"
     inkscape:grid-bbox="true"
     inkscape:window-width="1365"
     inkscape:window-height="878"
     inkscape:window-x="-8"
     inkscape:window-y="-8"
     inkscape:window-maximized="1" />
  <metadata
     id="metadata2990">
    <rdf:RDF>
      <cc:Work
         rdf:about="">
        <dc:format>image/svg+xml</dc:format>
        <dc:type
           rdf:resource="http://purl.org/dc/dcmitype/StillImage" />
        <dc:title></dc:title>
      </cc:Work>
    </rdf:RDF>
  </metadata>
  <g
     id="layer1"
     inkscape:label="Layer 1"
     inkscape:groupmode="layer">
    <path
       style="fill:#000000"
       d="m 8.9603737,54.216782 c 0,-3.565656 0.2194253,-4.114219 1.6456873,-4.114219 1.278944,0 1.645688,-0.548562 1.645688,-2.461558 0,-1.570413 0.59578,-2.83363 1.645687,-3.489308 0.905128,-0.565262 1.645688,-1.676101 1.645688,-2.468531 0,-0.792431 0.740559,-1.90327 1.645687,-2.468532 1.449928,-0.905494 1.645688,-1.918894 1.645688,-8.519302 0,-6.446548 -0.229559,-7.6993 -1.645688,-8.98088 -0.905128,-0.819129 -1.645687,-2.172497 -1.645687,-3.007484 0,-0.969594 -0.594644,-1.518156 -1.645688,-1.518156 -1.488955,0 -1.645687,-0.548563 -1.645687,-5.759907 l 0,-5.7599063 4.937062,0 c 4.3885,0 4.937063,0.1828542 4.937063,1.6456876 0,1.2799796 0.548563,1.6456876 2.468532,1.6456876 1.919968,0 2.468531,-0.365708 2.468531,-1.6456876 0,-1.4628334 0.548563,-1.6456876 4.937063,-1.6456876 4.3885,0 4.937062,0.1828542 4.937062,1.6456876 0,1.2799796 0.548563,1.6456876 2.468532,1.6456876 1.919968,0 2.468531,-0.365708 2.468531,-1.6456876 0,-1.4628334 0.548563,-1.6456876 4.937063,-1.6456876 l 4.937063,0 0,5.7599063 c 0,5.211344 -0.156732,5.759907 -1.645688,5.759907 -1.051044,0 -1.645687,0.548562 -1.645687,1.518156 0,0.834987 -0.74056,2.188355 -1.645688,3.007484 -1.416129,1.28158 -1.645688,2.534332 -1.645688,8.98088 0,6.600408 0.195761,7.613808 1.645688,8.519302 0.905128,0.565262 1.645688,1.676101 1.645688,2.468532 0,0.79243 0.740559,1.903269 1.645687,2.468531 1.049908,0.655678 1.645688,1.918895 1.645688,3.489308 0,1.912996 0.366744,2.461558 1.645687,2.461558 1.426263,0 1.645688,0.548563 1.645688,4.114219 l 0,4.114219 -23.039626,0 -23.0396263,0 0,-4.114219 z M 53.393938,52.571095 c 0,-0.527465 -7.679875,-0.822844 -21.393938,-0.822844 -13.714064,0 -21.393939,0.295379 -21.393939,0.822844 0,0.527464 7.679875,0.822843 21.393939,0.822843 13.714063,0 21.393938,-0.295379 21.393938,-0.822843 z m -3.291375,-4.937063 c 0,-0.523628 -6.58275,-0.822844 -18.102563,-0.822844 -11.519813,0 -18.102564,0.299216 -18.102564,0.822844 0,0.523628 6.582751,0.822844 18.102564,0.822844 11.519813,0 18.102563,-0.299216 18.102563,-0.822844 z M 45.1655,41.051282 c 0,-0.514278 -4.937062,-0.822844 -13.1655,-0.822844 -8.228438,0 -13.165501,0.308566 -13.165501,0.822844 0,0.514277 4.937063,0.822843 13.165501,0.822843 8.228438,0 13.1655,-0.308566 13.1655,-0.822843 z m 0,-21.393939 c 0,-0.514277 -4.937062,-0.822844 -13.1655,-0.822844 -8.228438,0 -13.165501,0.308567 -13.165501,0.822844 0,0.514277 4.937063,0.822844 13.165501,0.822844 8.228438,0 13.1655,-0.308567 13.1655,-0.822844 z m 4.937063,-4.937063 c 0,-0.523628 -6.58275,-0.822844 -18.102563,-0.822844 -11.519813,0 -18.102564,0.299216 -18.102564,0.822844 0,0.523628 6.582751,0.822844 18.102564,0.822844 11.519813,0 18.102563,-0.299216 18.102563,-0.822844 z"
       id="path3114"
       inkscape:connector-curvature="0" />
    <path
       style="fill:#ffffff;fill-opacity:1;fill-rule:evenodd"
       d="m 22.54394,53.218984 c -4.4,-0.06067 -8.490909,-0.166313 -9.090909,-0.234755 -2.573058,-0.293507 -2.720154,-0.322882 -2.429981,-0.485271 0.784193,-0.438857 6.580771,-0.606449 20.975436,-0.606449 13.967669,0 19.889542,0.159594 20.944591,0.564454 1.631001,0.625874 -13.239689,0.99864 -30.399137,0.762021 z"
       id="path3116"
       inkscape:connector-curvature="0" />
    <path
       style="fill:#ffffff;fill-opacity:1;fill-rule:evenodd"
       d="m 18.104586,48.134217 c -4.702991,-0.26677 -5.175913,-0.567374 -1.464274,-0.930742 3.145521,-0.307945 27.570826,-0.307945 30.716348,0 3.845566,0.376479 3.29654,0.648569 -1.903629,0.943412 -3.565616,0.202166 -23.725661,0.192827 -27.348445,-0.01267 z"
       id="path3118"
       inkscape:connector-curvature="0" />
    <path
       style="fill:#ffffff;fill-opacity:1;fill-rule:evenodd"
       d="m 22.725758,41.607946 c -3.450153,-0.224389 -4.591826,-0.516853 -3.146224,-0.805974 3.376021,-0.675204 24.68635,-0.540635 25.387299,0.160314 0.466073,0.466074 -2.595427,0.660281 -11.422893,0.724617 -4.75,0.03462 -9.618182,-9.12e-4 -10.818182,-0.07896 z"
       id="path3120"
       inkscape:connector-curvature="0" />
    <path
       style="fill:#ffffff;fill-opacity:1;fill-rule:evenodd"
       d="m 26.634849,20.308972 c -5.72961,-0.125147 -7.903756,-0.332489 -7.519163,-0.717081 0.42903,-0.42903 4.260694,-0.608917 12.973709,-0.609082 8.339805,-1.58e-4 12.142727,0.165013 12.773383,0.55478 1.012359,0.625672 -7.808574,0.998963 -18.227929,0.771383 z"
       id="path3122"
       inkscape:connector-curvature="0" />
    <path
       style="fill:#ffffff;fill-opacity:1;fill-rule:evenodd"
       d="m 18.180304,15.221087 c -4.835123,-0.272005 -5.291025,-0.56538 -1.447927,-0.93175 3.27233,-0.311956 27.259887,-0.311956 30.532218,0 3.975803,0.379021 3.435063,0.647875 -1.902473,0.945904 -3.698304,0.2065 -23.442263,0.196219 -27.181818,-0.01415 z"
       id="path3124"
       inkscape:connector-curvature="0" />
  </g>
</svg>
