<?xml version="1.0" encoding="UTF-8" standalone="no"?>
<!-- Created with Inkscape (http://www.inkscape.org/) -->

<svg
   xmlns:dc="http://purl.org/dc/elements/1.1/"
   xmlns:cc="http://creativecommons.org/ns#"
   xmlns:rdf="http://www.w3.org/1999/02/22-rdf-syntax-ns#"
   xmlns:svg="http://www.w3.org/2000/svg"
   xmlns="http://www.w3.org/2000/svg"
   xmlns:sodipodi="http://sodipodi.sourceforge.net/DTD/sodipodi-0.dtd"
   xmlns:inkscape="http://www.inkscape.org/namespaces/inkscape"
   width="64px"
   height="64px"
   id="svg2985"
   version="1.1"
   inkscape:version="0.48.1 "
   sodipodi:docname="br.svg">
  <defs
     id="defs2987" />
  <sodipodi:namedview
     id="base"
     pagecolor="#ffffff"
     bordercolor="#666666"
     borderopacity="1.0"
     inkscape:pageopacity="0.0"
     inkscape:pageshadow="2"
     inkscape:zoom="5.5"
     inkscape:cx="50.780304"
     inkscape:cy="32"
     inkscape:current-layer="layer1"
     showgrid="true"
     inkscape:document-units="px"
     inkscape:grid-bbox="true"
     inkscape:window-width="1365"
     inkscape:window-height="878"
     inkscape:window-x="-8"
     inkscape:window-y="-8"
     inkscape:window-maximized="1" />
  <metadata
     id="metadata2990">
    <rdf:RDF>
      <cc:Work
         rdf:about="">
        <dc:format>image/svg+xml</dc:format>
        <dc:type
           rdf:resource="http://purl.org/dc/dcmitype/StillImage" />
        <dc:title></dc:title>
      </cc:Work>
    </rdf:RDF>
  </metadata>
  <g
     id="layer1"
     inkscape:label="Layer 1"
     inkscape:groupmode="layer">
    <path
       style="fill:#000000"
       d="M 7.4544695,57.145197 C 5.4914556,55.061584 5.1071374,51.723941 6.6527613,50.182695 7.298846,49.538441 10.712123,49.19808 16.526886,49.19808 c 5.375913,0 8.886713,-0.324153 8.886713,-0.820513 0,-0.451282 -1.110839,-0.820513 -2.468531,-0.820513 -1.919969,0 -2.468531,-0.364672 -2.468531,-1.641025 0,-1.137871 -0.548563,-1.641026 -1.789121,-1.641026 l -1.789121,0 1.789121,-1.899037 c 2.633886,-2.795701 2.494376,-8.641413 -0.267989,-11.229168 -3.37045,-3.157405 -2.8674,-7.362453 1.439977,-12.036894 1.923397,-2.087305 4.700495,-4.299394 6.171328,-4.915755 2.912462,-1.220483 3.19022,-1.938055 1.682212,-4.3459184 -0.817048,-1.3045977 -0.721984,-1.8815462 0.538953,-3.2709186 1.962196,-2.1620607 5.526709,-2.1620607 7.488905,0 1.260938,1.3893724 1.356002,1.9663209 0.538953,3.2709186 -1.508007,2.4078634 -1.23025,3.1254354 1.682212,4.3459184 1.470834,0.616361 4.247931,2.82845 6.171329,4.915755 4.307376,4.674441 4.810427,8.879489 1.439976,12.036894 -2.762364,2.587755 -2.901874,8.433467 -0.267988,11.229168 l 1.78912,1.899037 -1.78912,0 c -1.240558,0 -1.789121,0.503155 -1.789121,1.641026 0,1.276353 -0.548563,1.641025 -2.468532,1.641025 -1.357692,0 -2.468531,0.369231 -2.468531,0.820513 0,0.49636 3.510801,0.820513 8.886713,0.820513 5.814763,0 9.228041,0.340361 9.874126,0.984615 1.598348,1.593821 1.137172,5.15314 -0.917019,7.077486 -1.731285,1.62185 -2.779661,1.784053 -11.530979,1.784053 -6.235163,0 -10.20238,-0.358595 -11.261069,-1.017885 -1.300975,-0.810171 -1.968069,-0.810171 -3.269045,0 -1.061556,0.661075 -5.049437,1.017885 -11.37638,1.017885 -9.1191366,0 -9.8562213,-0.121391 -11.5309775,-1.899037 z m 22.2340345,-2.767294 2.307846,-2.204793 2.338282,2.233869 c 2.290637,2.188354 2.521167,2.229098 11.314102,1.999665 8.599679,-0.22439 8.986839,-0.31157 9.238761,-2.080359 0.258193,-1.812823 0.108699,-1.846154 -8.280203,-1.846154 -8.418261,0 -8.577712,-0.03598 -10.908145,-2.461538 -1.300752,-1.353846 -2.96701,-2.461539 -3.702797,-2.461539 -0.735787,0 -2.402046,1.107693 -3.702797,2.461539 -2.328428,2.423469 -2.496243,2.461538 -10.850916,2.461538 -7.6802017,0 -8.4859131,0.142826 -8.4859131,1.504274 0,0.827351 0.2468531,1.750427 0.5485628,2.051282 0.3017088,0.300855 4.4470943,0.547008 9.2119673,0.547008 8.280679,0 8.765359,-0.0974 10.97125,-2.204792 z m 10.536284,-9.282387 c 0,-0.492308 -3.291375,-0.820513 -8.228438,-0.820513 -4.937063,0 -8.228438,0.328205 -8.228438,0.820513 0,0.492308 3.291375,0.820513 8.228438,0.820513 4.937063,0 8.228438,-0.328205 8.228438,-0.820513 z m 0,-5.74359 c 0,-1.531624 -0.548563,-1.641025 -8.228438,-1.641025 -7.679875,0 -8.228438,0.109401 -8.228438,1.641025 0,1.531624 0.548563,1.641026 8.228438,1.641026 7.679875,0 8.228438,-0.109402 8.228438,-1.641026 z m 2.45601,-7.589743 c 3.715452,-4.072602 3.414119,-7.583005 -1.016034,-11.836375 -1.923397,-1.846646 -4.885635,-3.996362 -6.58275,-4.777149 -2.925243,-1.345806 -3.246086,-1.345806 -6.171328,0 -1.697116,0.780787 -4.659353,2.930503 -6.582751,4.777149 -4.337874,4.164773 -4.691686,7.508507 -1.234266,11.664524 l 2.262821,2.72004 8.445748,0.05924 8.445748,0.05924 2.432812,-2.666666 z M 30.350662,29.505772 c 0,-1.094016 -0.548563,-1.641025 -1.645687,-1.641025 -1.097125,0 -1.645688,-0.547009 -1.645688,-1.641026 0,-1.094017 0.548563,-1.641026 1.645688,-1.641026 1.097124,0 1.645687,-0.547008 1.645687,-1.641025 0,-1.094017 0.548563,-1.641026 1.645688,-1.641026 1.097125,0 1.645687,0.547009 1.645687,1.641026 0,1.094017 0.548563,1.641025 1.645688,1.641025 1.097125,0 1.645688,0.547009 1.645688,1.641026 0,1.094017 -0.548563,1.641026 -1.645688,1.641026 -1.097125,0 -1.645688,0.547009 -1.645688,1.641025 0,1.094017 -0.548562,1.641026 -1.645687,1.641026 -1.097125,0 -1.645688,-0.547009 -1.645688,-1.641026 z M 34.053459,8.9929515 c 0,-1.5037769 -0.495136,-2.1213928 -1.855077,-2.3139584 -1.112715,-0.1575589 -2.053478,0.2528809 -2.350856,1.0256408 -0.819279,2.1289607 0.329041,3.8885621 2.350856,3.6022761 1.359941,-0.192566 1.855077,-0.810181 1.855077,-2.3139585 z"
       id="path3145"
       inkscape:connector-curvature="0" />
    <path
       style="fill:#ffffff;fill-opacity:1;fill-rule:evenodd"
       d="M 12.962122,56.388171 C 10.803649,56.236767 9.8807782,56.101628 9.5991878,55.895724 9.4302947,55.772226 9.217375,55.271149 9.1260328,54.782218 8.735185,52.690111 8.7933299,52.674481 17.598486,52.504692 c 3.9,-0.0752 7.341143,-0.217499 7.646985,-0.316212 1.054864,-0.340469 1.63142,-0.738257 3.30212,-2.278263 1.824057,-1.681365 3.057884,-2.414245 3.727764,-2.214251 0.877503,0.26198 2.014231,1.063802 3.578511,2.524203 2.377482,2.219598 1.965596,2.13029 10.562802,2.290311 7.439056,0.138465 8.237858,0.225267 8.418167,0.914774 0.137122,0.524353 -0.16652,1.64027 -0.550911,2.024661 -0.196895,0.196896 -0.804951,0.415277 -1.441902,0.517855 -1.589253,0.255942 -12.415382,0.527457 -14.260774,0.357655 -2.043006,-0.187985 -2.75534,-0.568148 -4.84396,-2.585149 l -1.684524,-1.626759 -1.681684,1.562747 c -1.987027,1.846493 -3.013532,2.404641 -4.863999,2.644735 -1.227749,0.159298 -10.522082,0.209064 -12.544959,0.06717 z"
       id="path3147"
       inkscape:connector-curvature="0" />
    <path
       style="fill:#ffffff;fill-opacity:1;fill-rule:evenodd"
       d="m 25.699064,45.565546 c -4.655119,-0.582242 0.771976,-1.372931 8.08124,-1.177379 4.899746,0.131087 7.277175,0.504893 5.930191,0.932409 -1.416359,0.449535 -11.031817,0.617647 -14.011431,0.24497 z"
       id="path3149"
       inkscape:connector-curvature="0" />
    <path
       style="fill:#ffffff;fill-opacity:1;fill-rule:evenodd"
       d="m 25.067269,40.675027 c -0.98302,-0.238816 -1.196056,-0.464331 -1.196056,-1.266121 0,-0.830258 0.327806,-1.20048 1.233117,-1.392673 1.143652,-0.242791 13.68927,-0.16785 14.270144,0.08524 0.965288,0.420586 1.059973,1.785462 0.164593,2.372601 -0.416756,0.273284 -1.213295,0.31146 -7.114033,0.340959 -3.71896,0.01859 -6.958689,-0.04306 -7.357765,-0.140009 l 0,0 z"
       id="path3151"
       inkscape:connector-curvature="0" />
    <path
       style="fill:#ffffff;fill-opacity:1;fill-rule:evenodd"
       d="m 22.416668,33.107615 c -2.491653,-3.026854 -3.110385,-4.063376 -3.472719,-5.817624 -0.452212,-2.189393 0.611984,-4.478297 3.338231,-7.179964 3.04685,-3.019381 7.6923,-5.826742 9.664056,-5.840229 2.249182,-0.01538 7.371902,3.198563 10.522984,6.602022 2.402989,2.59545 3.19556,5.170539 2.311949,7.511602 -0.444261,1.177045 -1.699971,2.925836 -3.403734,4.740287 l -1.13014,1.203564 -8.415314,-0.0024 -8.415313,-0.0024 -1,-1.214798 z m 10.311443,-2.06212 c 0.607612,-0.211814 0.961284,-0.816717 0.961284,-1.644133 0,-0.672414 0.715173,-1.437726 1.343535,-1.437726 0.624203,0 1.399136,-0.31755 1.681319,-0.688966 0.29822,-0.392523 0.307457,-1.672911 0.01482,-2.054062 -0.32541,-0.423834 -0.945124,-0.711517 -1.532719,-0.711517 -0.766249,0 -1.294349,-0.45755 -1.422541,-1.232499 -0.181125,-1.094938 -0.443426,-1.616116 -0.923439,-1.834825 -1.264644,-0.57621 -2.357172,0.03937 -2.541944,1.43226 -0.143526,1.08195 -0.505651,1.445044 -1.655411,1.659843 -1.180724,0.220583 -1.604626,0.678039 -1.582544,1.70781 0.02292,1.068635 0.428438,1.502345 1.54294,1.650189 1.138076,0.150971 1.541366,0.548572 1.689562,1.665729 0.18748,1.413294 1.075773,1.958289 2.425139,1.487897 z"
       id="path3153"
       inkscape:connector-curvature="0" />
    <path
       style="fill:#ffffff;fill-opacity:1;fill-rule:evenodd"
       d="M 30.285971,10.596577 C 29.671089,9.981694 29.649239,9.9145547 29.724666,8.871794 29.783799,8.054282 29.908353,7.674812 30.229895,7.3325465 30.763322,6.764739 31.691898,6.5796258 32.616759,6.856721 c 0.937634,0.2809221 1.306402,0.8756566 1.306402,2.1069154 0,1.6017126 -0.668374,2.2727276 -2.263784,2.2727276 -0.596745,0 -0.852986,-0.119368 -1.373406,-0.639787 z"
       id="path3155"
       inkscape:connector-curvature="0" />
  </g>
</svg>
