<?xml version="1.0" encoding="UTF-8" standalone="no"?>
<!-- Created with Inkscape (http://www.inkscape.org/) -->

<svg
   xmlns:dc="http://purl.org/dc/elements/1.1/"
   xmlns:cc="http://creativecommons.org/ns#"
   xmlns:rdf="http://www.w3.org/1999/02/22-rdf-syntax-ns#"
   xmlns:svg="http://www.w3.org/2000/svg"
   xmlns="http://www.w3.org/2000/svg"
   xmlns:sodipodi="http://sodipodi.sourceforge.net/DTD/sodipodi-0.dtd"
   xmlns:inkscape="http://www.inkscape.org/namespaces/inkscape"
   width="64px"
   height="64px"
   id="svg2985"
   version="1.1"
   inkscape:version="0.48.1 "
   sodipodi:docname="wb.svg">
  <defs
     id="defs2987" />
  <sodipodi:namedview
     id="base"
     pagecolor="#ffffff"
     bordercolor="#666666"
     borderopacity="1.0"
     inkscape:pageopacity="0.0"
     inkscape:pageshadow="2"
     inkscape:zoom="5.5"
     inkscape:cx="50.780304"
     inkscape:cy="32"
     inkscape:current-layer="layer1"
     showgrid="true"
     inkscape:document-units="px"
     inkscape:grid-bbox="true"
     inkscape:window-width="1365"
     inkscape:window-height="878"
     inkscape:window-x="-8"
     inkscape:window-y="-8"
     inkscape:window-maximized="1" />
  <metadata
     id="metadata2990">
    <rdf:RDF>
      <cc:Work
         rdf:about="">
        <dc:format>image/svg+xml</dc:format>
        <dc:type
           rdf:resource="http://purl.org/dc/dcmitype/StillImage" />
        <dc:title></dc:title>
      </cc:Work>
    </rdf:RDF>
  </metadata>
  <g
     id="layer1"
     inkscape:label="Layer 1"
     inkscape:groupmode="layer">
    <path
       style="fill:#000000"
       d="M 17.81397,54.358974 C 14.132198,50.620789 13.965353,50.243923 13.730683,45.135709 13.507547,40.278576 13.292092,39.717511 11.282463,38.760288 10.070508,38.183013 8.1264312,36.581948 6.9622917,35.202366 2.8440021,30.321922 3.1705491,26.093182 8.0407248,21.236802 12.886501,16.404754 17.154602,16.057274 21.975528,20.102325 c 2.76993,2.32414 3.441722,2.514307 3.441722,0.974262 0,-0.592492 1.110839,-2.138495 2.468532,-3.435561 2.626765,-2.509472 3.280276,-5.333334 1.234265,-5.333334 -0.685703,0 -1.234265,-0.729345 -1.234265,-1.641025 0,-0.9116809 0.548562,-1.6410258 1.234265,-1.6410258 0.685703,0 1.234266,-0.7293448 1.234266,-1.6410256 0,-1.0940171 0.548563,-1.6410257 1.645688,-1.6410257 1.097124,0 1.645687,0.5470086 1.645687,1.6410257 0,0.9116808 0.548563,1.6410256 1.234266,1.6410256 0.685703,0 1.234266,0.7293449 1.234266,1.6410258 0,0.91168 -0.548563,1.641025 -1.234266,1.641025 -2.046011,0 -1.392499,2.823862 1.234266,5.333334 1.357692,1.297066 2.468531,2.843069 2.468531,3.435561 0,1.540045 0.671792,1.349878 3.441722,-0.974262 4.820927,-4.045051 9.089027,-3.697571 13.934803,1.134477 4.870175,4.85638 5.196722,9.08512 1.078433,13.965564 -1.16414,1.379582 -3.108216,2.980647 -4.32017,3.557922 -2.00963,0.957223 -2.225085,1.518288 -2.448221,6.375421 -0.23467,5.108214 -0.401514,5.48508 -4.083286,9.223265 l -3.838619,3.897436 -10.347412,0 -10.347412,0 -3.838619,-3.897436 z m 22.414469,-1.025641 c 0,-1.531624 -0.548563,-1.641025 -8.228438,-1.641025 -7.679876,0 -8.228438,0.109401 -8.228438,1.641025 0,1.531625 0.548562,1.641026 8.228438,1.641026 7.679875,0 8.228438,-0.109401 8.228438,-1.641026 z m -8.228438,-4.389348 c 5.657051,0 11.303816,0.292186 12.548368,0.649302 3.584139,1.028445 2.627928,-0.669849 -1.015596,-1.803766 -6.672653,-2.076625 -26.343961,-0.779829 -26.343961,1.736679 0,0.394013 1.01827,0.424202 2.262821,0.06708 1.244551,-0.357116 6.891317,-0.649301 12.548368,-0.649301 z m 0,-3.405523 c 6.562179,0 12.611807,0.328894 13.443618,0.730876 1.277211,0.617227 1.469137,0.426312 1.234266,-1.227754 -0.228157,-1.606781 -1.0172,-2.129271 -4.392337,-2.908521 -2.26282,-0.522439 -6.891317,-0.949889 -10.285547,-0.949889 -3.394231,0 -8.022727,0.42745 -10.285548,0.949889 -3.375136,0.77925 -4.16418,1.30174 -4.392337,2.908521 -0.234871,1.654066 -0.04294,1.844981 1.234266,1.227754 0.831811,-0.401982 6.881439,-0.730876 13.443619,-0.730876 z m -5.142774,-6.724094 3.497086,-0.463685 0,-3.818755 c 0,-3.528232 -0.32865,-4.137189 -4.31993,-8.004402 -7.420647,-7.18998 -11.347082,-7.949375 -15.948295,-3.084488 -4.631949,4.897383 -3.3238756,9.037803 4.634193,14.668525 2.21072,1.564192 3.549186,1.936482 5.759907,1.602099 1.583974,-0.239585 4.453642,-0.644267 6.377039,-0.899294 z M 49.6862,37.74698 c 7.61519,-5.224546 8.853243,-9.413346 4.227713,-14.303942 -4.601212,-4.864887 -8.527648,-4.105492 -15.948295,3.084488 -4.024446,3.899347 -4.31993,4.454149 -4.31993,8.111112 0,3.864944 0.04123,3.926726 2.674243,4.007253 1.470833,0.04498 3.599941,0.37741 4.731351,0.738724 3.582707,1.144133 4.961384,0.882663 8.634918,-1.637635 z M 34.427236,25.895772 c 2.469929,-2.967651 -0.780737,-8.45386 -3.867212,-6.526765 -3.003533,1.875307 -1.913898,7.707916 1.439977,7.707916 0.7943,0 1.886556,-0.531518 2.427235,-1.181151 z"
       id="path3168"
       inkscape:connector-curvature="0" />
    <path
       style="fill:#ffffff;fill-opacity:1;fill-rule:evenodd"
       d="m 25.170006,54.677159 c -0.435664,-0.08565 -0.906119,-0.250339 -1.045455,-0.365978 -0.315621,-0.261942 -0.331302,-1.444148 -0.02472,-1.863427 0.405279,-0.554252 2.34551,-0.695247 8.718761,-0.633586 6.601593,0.06387 6.95615,0.11733 7.279472,1.097577 0.267229,0.810187 -0.166953,1.466431 -1.137371,1.719077 -0.966665,0.25167 -12.548303,0.290584 -13.790689,0.04634 z"
       id="path3170"
       inkscape:connector-curvature="0" />
    <path
       style="fill:#ffffff;fill-opacity:1;fill-rule:evenodd"
       d="m 17.325758,49.537271 c 0,-0.993032 3.433568,-1.898729 9.09091,-2.397976 5.428782,-0.479077 13.28655,-0.249261 16.298767,0.476691 1.283729,0.309382 3.804213,1.516312 3.947754,1.890376 0.110764,0.288648 0.0267,0.311138 -0.834401,0.223228 -0.526666,-0.05377 -1.448484,-0.185073 -2.048484,-0.291789 -4.170171,-0.741708 -20.052048,-0.686409 -24.090909,0.08388 -1.717708,0.327601 -2.363637,0.331861 -2.363637,0.01559 z"
       id="path3172"
       inkscape:connector-curvature="0" />
    <path
       style="fill:#ffffff;fill-opacity:1;fill-rule:evenodd"
       d="m 17.329752,45.736364 c 0.0064,-1.235685 0.543277,-2.193772 1.473394,-2.629277 2.402552,-1.12494 7.043325,-1.749698 13.068067,-1.75927 4.911573,-0.0078 8.191845,0.307337 11.235431,1.079406 2.639505,0.669565 3.335454,1.243918 3.541034,2.92234 0.137779,1.124871 -0.0024,1.234714 -1.158781,0.90799 -1.708975,-0.482857 -5.849251,-0.701427 -13.344957,-0.704498 -7.488036,-0.0031 -12.335226,0.24493 -13.636363,0.697679 -1.103257,0.383894 -1.182289,0.34938 -1.177825,-0.51437 z"
       id="path3174"
       inkscape:connector-curvature="0" />
    <path
       style="fill:#ffffff;fill-opacity:1;fill-rule:evenodd"
       d="m 41.147447,39.413809 c -1.148072,-0.298393 -3.02989,-0.629942 -4.181819,-0.736776 -2.608818,-0.241951 -2.840215,-0.332373 -3.082394,-1.204483 -0.42786,-1.540765 -0.160429,-5.382105 0.468743,-6.732974 0.433246,-0.930202 4.634229,-5.198208 6.944202,-7.05499 5.012624,-4.029204 8.262233,-4.259935 11.883554,-0.843765 3.208335,3.026581 4.086229,5.85811 2.694985,8.692311 -1.102789,2.24657 -5.217608,5.86626 -8.677285,7.633161 -1.830021,0.934614 -3.19197,0.990334 -6.049986,0.247516 l 0,0 z"
       id="path3176"
       inkscape:connector-curvature="0" />
    <path
       style="fill:#ffffff;fill-opacity:1;fill-rule:evenodd"
       d="M 17.825017,39.584424 C 15.133374,38.950051 9.5854494,34.281509 8.2170891,31.499415 7.6671738,30.38135 7.599056,30.079891 7.6036217,28.784484 c 0.00424,-1.202973 0.090029,-1.631687 0.4917183,-2.457249 0.6890982,-1.416254 2.320472,-3.32149 3.742503,-4.370763 4.051665,-2.989602 7.759277,-1.666854 14.774523,5.271039 1.707052,1.688231 2.654358,2.778072 3.010432,3.463398 0.507295,0.976373 0.521004,1.078398 0.580251,4.318182 0.03521,1.925436 -0.009,3.318182 -0.105391,3.318182 -0.09134,0 -2.51492,0.327272 -5.385737,0.727272 -5.483363,0.764015 -5.792532,0.787802 -6.886904,0.529879 l 0,0 z"
       id="path3178"
       inkscape:connector-curvature="0" />
    <path
       style="fill:#ffffff;fill-opacity:1;fill-rule:evenodd"
       d="m 30.784161,26.655989 c -1.168621,-0.602196 -1.822039,-1.903282 -1.822039,-3.628045 0,-1.83771 0.616599,-3.073811 1.854607,-3.717947 2.682538,-1.395723 5.603713,3.228635 3.836565,6.073464 -0.900479,1.449628 -2.502784,1.976613 -3.869133,1.272528 z"
       id="path3180"
       inkscape:connector-curvature="0" />
  </g>
</svg>
