<?xml version="1.0" encoding="UTF-8" standalone="no"?>
<!-- Created with Inkscape (http://www.inkscape.org/) -->

<svg
   xmlns:dc="http://purl.org/dc/elements/1.1/"
   xmlns:cc="http://creativecommons.org/ns#"
   xmlns:rdf="http://www.w3.org/1999/02/22-rdf-syntax-ns#"
   xmlns:svg="http://www.w3.org/2000/svg"
   xmlns="http://www.w3.org/2000/svg"
   xmlns:sodipodi="http://sodipodi.sourceforge.net/DTD/sodipodi-0.dtd"
   xmlns:inkscape="http://www.inkscape.org/namespaces/inkscape"
   width="64px"
   height="64px"
   id="svg2985"
   version="1.1"
   inkscape:version="0.48.1 "
   sodipodi:docname="wk.svg">
  <defs
     id="defs2987" />
  <sodipodi:namedview
     id="base"
     pagecolor="#ffffff"
     bordercolor="#666666"
     borderopacity="1.0"
     inkscape:pageopacity="0.0"
     inkscape:pageshadow="2"
     inkscape:zoom="5.5"
     inkscape:cx="50.780304"
     inkscape:cy="32"
     inkscape:current-layer="layer1"
     showgrid="true"
     inkscape:document-units="px"
     inkscape:grid-bbox="true"
     inkscape:window-width="1365"
     inkscape:window-height="878"
     inkscape:window-x="-8"
     inkscape:window-y="-8"
     inkscape:window-maximized="1" />
  <metadata
     id="metadata2990">
    <rdf:RDF>
      <cc:Work
         rdf:about="">
        <dc:format>image/svg+xml</dc:format>
        <dc:type
           rdf:resource="http://purl.org/dc/dcmitype/StillImage" />
        <dc:title></dc:title>
      </cc:Work>
    </rdf:RDF>
  </metadata>
  <g
     id="layer1"
     inkscape:label="Layer 1"
     inkscape:groupmode="layer">
    <path
       style="fill:#000000"
       d="m 18.293061,54.297053 c 0,-3.995469 0.07705,-4.11471 6.564102,-10.15843 3.610257,-3.363527 6.564103,-6.728127 6.564103,-7.476887 0,-1.668388 -0.129002,-1.671371 -3.92379,-0.09073 -1.677813,0.698858 -5.1466,3.344956 -7.708417,5.880217 l -4.657848,4.609564 -3.871778,-2.794553 C 5.2494537,39.928381 5.1795587,39.609936 8.6214684,32.24755 10.26961,28.722104 12.714271,23.374818 14.054047,20.36469 c 1.569317,-3.525848 3.048605,-5.66796 4.157997,-6.021067 1.774124,-0.564685 2.356338,-3.23833 0.90153,-4.140006 -0.451282,-0.2797001 -0.820513,-1.4123915 -0.820513,-2.517093 0,-2.8874897 3.183156,-2.6495573 6.153846,0.4599837 2.814358,2.9459023 3.067343,2.9880003 4.113126,0.6844373 1.456128,-3.2074397 3.36185,-3.741215 5.652446,-1.5831986 1.12445,1.0593664 2.156428,2.7132335 2.293287,3.6752616 0.174471,1.226421 1.767669,2.486846 5.331209,4.217672 7.184001,3.489299 9.823383,6.331361 11.814762,12.722027 2.396693,7.691381 4.023518,17.598955 4.024817,24.511655 l 0.0011,5.965617 -19.692308,0 -19.692307,0 0,-4.042926 z m 35.90024,-6.448332 c -0.236468,-3.959936 -1.251987,-10.669667 -2.256707,-14.910514 -2.32821,-9.827194 -4.917553,-13.0045 -13.177553,-16.169789 -5.510504,-2.111663 -5.696749,-2.274837 -5.696749,-4.99105 0,-1.544409 -0.374658,-2.8080165 -0.832573,-2.8080165 -1.099747,0 -4.083533,4.9555065 -4.087437,6.7884615 -0.0017,0.791987 -0.372298,1.439977 -0.82358,1.439977 -0.451282,0 -0.820513,-1.046295 -0.820513,-2.325099 0,-2.377477 -3.580929,-6.7007377 -4.656641,-5.6219697 -0.308301,0.3091769 0.142149,1.9460387 1.001,3.6374707 0.858851,1.691433 1.706208,3.388997 1.883017,3.772368 0.176807,0.383369 -0.488566,0.262286 -1.478608,-0.269073 -0.990041,-0.53136 -2.334305,-0.760524 -2.987251,-0.509253 -1.098722,0.422818 -10.3313444,18.577007 -11.340064,22.298072 -0.3274568,1.207958 0.1818125,2.005132 1.914647,2.997053 2.153339,1.232629 2.474876,1.236933 3.659463,0.04898 1.924194,-1.929659 2.679268,-0.475369 0.854108,1.645031 -0.999659,1.161364 -0.349911,0.876334 1.793362,-0.786708 1.848539,-1.434348 3.854608,-3.20438 4.457929,-3.933403 0.603323,-0.729024 2.598574,-2.08078 4.433891,-3.003904 1.835318,-0.923124 4.172601,-2.446331 5.193963,-3.384906 2.533477,-2.328126 3.640113,-0.993401 3.320816,4.00527 -0.242471,3.795942 -0.486592,4.164755 -5.060729,7.645652 -4.893449,3.72389 -7.903393,7.603964 -7.908913,10.195257 -0.0028,1.32384 1.329634,1.439977 16.520999,1.439977 l 16.524066,0 -0.429943,-7.199883 z M 11.728958,38.060984 c 0,-1.632812 1.429267,-3.583475 2.625641,-3.583475 1.242734,0 0.653428,2.216178 -0.984615,3.702797 -1.587857,1.441073 -1.641026,1.437206 -1.641026,-0.119322 z m 6.564103,-13.293032 c 0,-0.814615 0.443077,-1.925454 0.984615,-2.468531 1.11618,-1.119351 3.938462,-1.340063 3.938462,-0.308002 0,0.799286 -3.541969,4.257652 -4.360576,4.257652 -0.309376,0 -0.562501,-0.666503 -0.562501,-1.481119 z"
       id="path3193"
       inkscape:connector-curvature="0" />
    <path
       style="fill:#ffffff;fill-opacity:1;fill-rule:evenodd"
       d="m 27.689395,54.866947 c -3.055517,-0.08445 -4.682959,-0.202802 -5.181818,-0.376847 -0.676408,-0.235991 -0.73115,-0.307104 -0.782709,-1.016778 -0.122322,-1.683717 1.958118,-4.883524 4.937813,-7.594571 0.814692,-0.74124 2.541374,-2.191286 3.837072,-3.222322 2.477776,-1.971664 3.403729,-2.986887 3.745385,-4.106476 0.113664,-0.372475 0.24886,-1.82268 0.300435,-3.22268 0.128262,-3.481713 -0.213044,-4.637298 -1.369165,-4.635684 -0.542757,7.27e-4 -1.035853,0.290642 -2.748217,1.615646 -1.108623,0.857838 -2.054274,1.443834 -5.753811,3.565492 -1.033138,0.592497 -2.414624,1.659455 -3.966902,3.063742 -2.240009,2.026453 -5.383613,4.540426 -5.514242,4.409796 -0.03244,-0.03244 0.233625,-0.493778 0.591248,-1.025205 0.418925,-0.622518 0.630846,-1.132822 0.595749,-1.434553 -0.08882,-0.763643 -0.688843,-0.681814 -1.832663,0.249937 -0.758498,0.617867 -1.17081,0.827192 -1.629336,0.827192 -0.691968,0 -2.427681,-0.962241 -3.3652028,-1.865596 -0.7891692,-0.760407 -0.7759187,-1.482227 0.06674,-3.635618 1.4001033,-3.577927 7.2537213,-15.241294 9.4591063,-18.847324 0.39245,-0.641696 0.931128,-1.329169 1.197061,-1.527717 0.459265,-0.34289 0.536472,-0.347227 1.539395,-0.08648 0.580734,0.150986 1.441589,0.425476 1.913012,0.609979 0.471423,0.184502 0.905978,0.286613 0.965678,0.226913 0.0597,-0.0597 -0.357626,-1.037628 -0.927394,-2.173171 -1.85126,-3.689552 -2.334214,-5.4282614 -1.507786,-5.4282614 0.982738,0 2.576663,1.5980794 3.522864,3.5320454 0.279267,0.5708 0.55408,1.546125 0.649285,2.304345 0.277269,2.208181 1.113917,2.867295 1.589905,1.252533 0.72494,-2.459319 1.047171,-3.295465 1.703501,-4.420365 0.746939,-1.280195 2.109173,-2.8503765 2.472888,-2.8503765 0.395736,0 0.6255,0.7932941 0.776623,2.6814175 0.09398,1.174191 0.259257,2.064039 0.432455,2.328373 0.404916,0.617981 1.48902,1.200082 4.56416,2.450691 5.463136,2.221768 7.71148,3.620529 9.561356,5.948402 1.064646,1.339745 2.247109,3.565682 2.916106,5.489444 1.880023,5.406192 3.488752,15.001671 3.873105,23.101672 0.05931,1.25 0.153671,2.661364 0.20968,3.136364 l 0.101838,0.863636 -11.244334,-0.03224 c -6.184384,-0.01773 -13.24888,-0.08764 -15.69888,-0.155355 z M 13.263288,38.284296 c 1.895322,-1.792516 2.40954,-3.775205 0.979114,-3.775205 -1.191816,0 -2.553007,2.006311 -2.553007,3.762971 0,1.254374 0.258389,1.256382 1.573893,0.01224 l 0,-2e-6 z m 6.535191,-12.482091 c 0.790999,-0.585713 2.77188,-2.601048 3.219767,-3.27577 1.034216,-1.558001 -2.485592,-1.662133 -3.845085,-0.113755 -0.893558,1.017706 -1.210817,2.717353 -0.655275,3.510501 0.361618,0.516282 0.428518,0.509962 1.280593,-0.120976 z"
       id="path3195"
       inkscape:connector-curvature="0" />
  </g>
</svg>
