<?xml version="1.0" encoding="UTF-8" standalone="no"?>
<!-- Created with Inkscape (http://www.inkscape.org/) -->

<svg
   xmlns:dc="http://purl.org/dc/elements/1.1/"
   xmlns:cc="http://creativecommons.org/ns#"
   xmlns:rdf="http://www.w3.org/1999/02/22-rdf-syntax-ns#"
   xmlns:svg="http://www.w3.org/2000/svg"
   xmlns="http://www.w3.org/2000/svg"
   xmlns:sodipodi="http://sodipodi.sourceforge.net/DTD/sodipodi-0.dtd"
   xmlns:inkscape="http://www.inkscape.org/namespaces/inkscape"
   width="64px"
   height="64px"
   id="svg2985"
   version="1.1"
   inkscape:version="0.48.1 "
   sodipodi:docname="bb.svg">
  <defs
     id="defs2987" />
  <sodipodi:namedview
     id="base"
     pagecolor="#ffffff"
     bordercolor="#666666"
     borderopacity="1.0"
     inkscape:pageopacity="0.0"
     inkscape:pageshadow="2"
     inkscape:zoom="7.7781746"
     inkscape:cx="32"
     inkscape:cy="37.091959"
     inkscape:current-layer="layer1"
     showgrid="true"
     inkscape:document-units="px"
     inkscape:grid-bbox="true"
     inkscape:window-width="1365"
     inkscape:window-height="878"
     inkscape:window-x="-8"
     inkscape:window-y="-8"
     inkscape:window-maximized="1" />
  <metadata
     id="metadata2990">
    <rdf:RDF>
      <cc:Work
         rdf:about="">
        <dc:format>image/svg+xml</dc:format>
        <dc:type
           rdf:resource="http://purl.org/dc/dcmitype/StillImage" />
        <dc:title />
      </cc:Work>
    </rdf:RDF>
  </metadata>
  <g
     id="layer1"
     inkscape:label="Layer 1"
     inkscape:groupmode="layer">
    <g
       id="g3010">
      <path
         style="fill:#d0d0d0;fill-opacity:1"
         d="m 9.4531097,51.994468 c 0,-2.091322 2.2209683,-5.570552 4.3927443,-6.8814 1.743695,-1.052467 3.382664,-1.335656 7.730161,-1.335656 3.225878,0 5.517286,-0.275189 5.517286,-0.662605 0,-0.364433 -1.007527,-0.662606 -2.238948,-0.662606 -2.738366,0 -3.867272,-1.005799 -3.867272,-3.445548 l 0,-1.855295 10.516267,0 10.516268,0 0,2.248227 c 0,2.440904 -0.826867,3.052616 -4.126303,3.052616 -1.088954,0 -1.979917,0.298173 -1.979917,0.662606 0,0.387993 2.319793,0.663631 5.597369,0.665082 4.35422,0.0019 6.079778,0.289741 7.769453,1.295909 2.323982,1.383883 4.273369,4.403724 4.273369,6.619974 0,1.292776 -0.387298,1.358116 -8.050129,1.358116 -7.136251,0 -8.25461,-0.157084 -9.851354,-1.383716 -2.301121,-1.767741 -3.78783,-4.582239 -3.889322,-7.362901 -0.06887,-1.886946 -0.152032,-1.769362 -0.607223,0.858579 -1.155814,6.672822 -3.287226,7.888038 -13.835122,7.888038 -6.757089,0 -7.8673273,-0.149505 -7.8673273,-1.05942 z M 19.055423,34.1838 c -4.334422,-4.821209 -3.320694,-10.254187 3.079601,-16.504835 2.094306,-2.045339 4.06668,-3.718798 4.383053,-3.718798 0.316373,0 0.575224,-0.983969 0.575224,-2.186598 0,-2.8893777 1.043436,-3.7768509 4.440587,-3.7768509 3.476087,0 5.435825,1.752557 4.786229,4.2802359 -0.237915,0.925767 -0.169103,1.683213 0.152918,1.683213 1.181627,0 7.493634,6.509709 8.873731,9.151672 2.339213,4.478028 1.822981,7.718404 -1.840813,11.554748 l -1.740208,1.822165 -10.319048,0 -10.319048,0 -2.072226,-2.304952 z m 13.764372,-6.010355 c -0.460373,-2.998208 -0.45328,-3.012113 1.315366,-2.57859 1.49752,0.367066 1.778235,0.215334 1.778235,-0.961169 0,-1.051259 -0.42302,-1.397043 -1.709098,-1.397043 -1.484249,0 -1.653092,-0.217931 -1.283386,-1.656513 0.373187,-1.452131 0.205766,-1.656514 -1.356938,-1.656514 -1.588632,0 -1.733644,0.190691 -1.332379,1.752075 0.414608,1.613307 0.30816,1.725544 -1.344012,1.417095 -1.548312,-0.289058 -1.794282,-0.110644 -1.794282,1.301482 0,1.438375 0.217096,1.583247 1.793513,1.196842 1.783511,-0.437166 1.79115,-0.422788 1.369916,2.57859 -0.406937,2.899517 -0.355768,3.018209 1.301169,3.018209 1.662457,0 1.708044,-0.1089 1.261896,-3.014464 z"
         id="path3026"
         inkscape:connector-curvature="0" />
      <path
         style="fill:#b9b9b9;fill-opacity:1"
         d="m 9.6844059,51.096191 c 1.0498621,-5.126577 4.7201071,-7.318779 12.2532971,-7.318779 2.984752,0 5.155598,-0.279001 5.155598,-0.662605 0,-0.364433 -1.007527,-0.662606 -2.238948,-0.662606 -2.738366,0 -3.867272,-1.005799 -3.867272,-3.445548 l 0,-1.855295 10.516267,0 10.516268,0 0,1.855295 c 0,2.439749 -1.128906,3.445548 -3.867272,3.445548 -1.231421,0 -2.238948,0.298173 -2.238948,0.662606 0,0.38686 2.272794,0.662605 5.461444,0.662605 3.487751,0 6.161165,0.353379 7.397656,0.977844 2.221521,1.121933 4.781091,4.808361 4.781091,6.88598 0,1.358666 -0.291699,1.412279 -7.632775,1.402884 -4.74004,-0.0061 -8.267887,-0.323624 -9.308583,-0.83791 -2.405135,-1.188558 -4.756599,-4.921521 -4.849447,-7.698529 -0.07248,-2.167749 -0.131115,-2.087458 -0.638972,0.874929 -0.393491,2.295281 -1.177257,3.865895 -2.645218,5.300843 -2.078718,2.031967 -2.116148,2.039912 -10.652051,2.260824 l -8.5660011,0.221692 0.423866,-2.069778 z M 19.369294,34.471075 c -0.956125,-1.109723 -2.088452,-3.158697 -2.516281,-4.553276 -1.205903,-3.930836 0.149856,-6.890312 5.596332,-12.216196 3.441927,-3.365717 4.643956,-5.00361 4.643956,-6.327882 0,-2.4882111 1.168716,-3.3770029 4.440587,-3.3770029 3.493861,0 5.336814,1.6660194 4.678142,4.2290169 -0.250275,0.973861 -0.158468,1.734432 0.20936,1.734432 1.132064,0 7.719834,6.843942 9.063294,9.415731 2.102262,4.024364 1.45024,7.821062 -1.938995,11.290689 l -1.779944,1.822165 -10.329021,0 -10.32902,0 -1.73841,-2.017677 z m 13.569689,-5.933588 c -0.409532,-2.501192 -0.338014,-2.650422 1.270223,-2.650422 1.338802,0 1.70419,-0.335465 1.70419,-1.564629 0,-1.319944 -0.27064,-1.514102 -1.730602,-1.241538 -1.578372,0.29467 -1.691262,0.170018 -1.283386,-1.417096 0.397772,-1.547792 0.250126,-1.740186 -1.335434,-1.740186 -1.588632,0 -1.733644,0.190691 -1.332379,1.752075 0.414608,1.613307 0.30816,1.725544 -1.344012,1.417095 -1.530327,-0.285701 -1.794282,-0.104808 -1.794282,1.22965 0,1.247494 0.361374,1.564629 1.782886,1.564629 1.700049,0 1.762723,0.123145 1.34892,2.650422 -0.414217,2.529806 -0.352465,2.650422 1.356938,2.650422 1.709403,0 1.771154,-0.120616 1.356938,-2.650422 z"
         id="path3024"
         inkscape:connector-curvature="0" />
      <path
         style="fill:#a3a3a3;fill-opacity:1"
         d="m 9.4531097,52.027075 c 0,-1.559493 1.6953403,-4.412568 3.7208833,-6.261847 1.6015,-1.462135 2.52461,-1.683687 7.866856,-1.888092 3.328849,-0.127369 6.052452,-0.500085 6.052452,-0.828257 0,-0.328173 -0.78335,-0.596678 -1.740776,-0.596678 -2.847802,0 -4.365444,-1.159875 -4.365444,-3.33634 l 0,-1.964503 10.516267,0 10.516268,0 0,1.964503 c 0,2.176465 -1.517642,3.33634 -4.365444,3.33634 -0.957426,0 -1.740776,0.298173 -1.740776,0.662606 0,0.384853 2.208553,0.662605 5.26872,0.662605 6.236152,0 9.260273,1.271156 11.131729,4.679097 2.423463,4.413154 2.166727,4.59768 -6.393033,4.594902 -10.351989,-0.0034 -12.669698,-1.347527 -14.044662,-8.145276 l -0.563362,-2.785237 -0.07687,2.31912 c -0.0987,2.977678 -2.169811,6.280992 -4.757387,7.587793 C 23.530289,53.516759 9.4531097,53.51615 9.4531097,52.027075 z M 19.377293,34.480359 c -2.431474,-2.822079 -3.287459,-6.258521 -2.379347,-9.55214 0.530123,-1.922695 2.067147,-3.937402 5.560775,-7.288977 3.935605,-3.775581 4.792503,-4.963731 4.63532,-6.427195 -0.2312,-2.1525965 1.397451,-3.2153289 4.927532,-3.2153289 2.651148,0 4.846725,2.2466089 4.086478,4.1814599 -0.286398,0.72889 0.954897,2.306303 4.014338,5.101344 7.069888,6.458901 8.261808,11.862274 3.728885,16.904278 l -2.072226,2.304952 -10.385672,0 -10.385672,0 -1.730411,-2.008393 z m 13.636888,-5.942872 c -0.337301,-2.455964 -0.244298,-2.650422 1.267604,-2.650422 1.262521,0 1.631611,-0.353938 1.631611,-1.564629 0,-1.290459 -0.282858,-1.511821 -1.614212,-1.263268 -1.42421,0.26589 -1.57462,0.09909 -1.277844,-1.417095 0.293208,-1.497958 0.106922,-1.718457 -1.451824,-1.718457 -1.594624,0 -1.739452,0.189659 -1.337921,1.752075 0.414608,1.613307 0.30816,1.725544 -1.344012,1.417095 -1.530327,-0.285701 -1.794282,-0.104808 -1.794282,1.22965 0,1.241372 0.362755,1.564629 1.755808,1.564629 1.672548,0 1.734066,0.125682 1.297302,2.650422 -0.441517,2.552211 -0.390135,2.650422 1.386635,2.650422 1.76102,0 1.828546,-0.120834 1.481135,-2.650422 z"
         id="path3022"
         inkscape:connector-curvature="0" />
      <path
         style="fill:#8c8c8c;fill-opacity:1"
         d="m 9.7647407,51.231723 c 1.3258853,-5.266637 4.8599503,-7.448438 12.0704263,-7.451834 4.220457,-0.002 5.258134,-0.198621 5.258134,-0.996385 0,-0.71327 -0.745789,-0.993908 -2.641287,-0.993908 -2.710614,0 -3.464933,-0.733047 -3.464933,-3.36722 0,-1.198509 0.602385,-1.271018 10.559254,-1.271018 l 10.559255,0 -0.212605,2.153467 c -0.199554,2.021295 -0.389584,2.165973 -3.096096,2.357218 -1.857417,0.131246 -2.883493,0.52041 -2.883493,1.093631 0,0.661557 1.564011,0.949301 6.095628,1.121462 5.932248,0.225372 6.159156,0.293738 8.465834,2.550698 1.303613,1.275515 2.567787,3.288179 2.809276,4.472587 l 0.43907,2.153467 -7.717583,-0.0025 c -10.593119,-0.0034 -12.91911,-1.404844 -14.15129,-8.526366 l -0.530615,-3.066752 -0.08234,2.650422 c -0.04529,1.457732 -0.678316,3.605006 -1.406736,4.77172 -2.154257,3.450494 -4.398989,4.173453 -12.958234,4.173453 l -7.5704022,0 0.4587339,-1.822165 z M 20.455701,35.454621 c -2.193105,-1.500194 -3.539434,-4.447533 -3.539434,-7.748412 0,-3.642011 2.608386,-7.824615 7.277482,-11.669602 2.82849,-2.329253 3.325427,-3.068183 3.040909,-4.52174 -0.411009,-2.0997863 1.243436,-3.5181489 4.103735,-3.5181489 3.120975,0 4.696259,1.1484192 4.46963,3.2584639 -0.162555,1.513481 0.540899,2.506106 3.979199,5.614936 4.190645,3.789084 6.981676,8.152748 6.981676,10.915566 0,1.790976 -1.686526,5.179183 -3.589973,7.212206 -1.32555,1.415785 -1.894782,1.490862 -11.303645,1.490862 -7.880132,0 -10.217194,-0.211639 -11.419579,-1.034131 z m 12.627537,-6.917134 c -0.233379,-2.389987 -0.107046,-2.650422 1.285674,-2.650422 1.17095,0 1.544484,-0.378406 1.544484,-1.564629 0,-1.290459 -0.282858,-1.511821 -1.614212,-1.263268 -1.42421,0.26589 -1.57462,0.09909 -1.277844,-1.417095 0.295465,-1.509488 0.111547,-1.718457 -1.512449,-1.718457 -1.656007,0 -1.802275,0.181103 -1.402535,1.736556 0.411006,1.599291 0.309562,1.703044 -1.283386,1.312587 -1.554057,-0.380924 -1.729669,-0.230194 -1.729669,1.484586 0,1.684817 0.201341,1.870967 1.717489,1.587914 1.666292,-0.311085 1.704157,-0.239213 1.270224,2.411004 -0.432365,2.640641 -0.385494,2.731646 1.406884,2.731646 1.753996,0 1.840169,-0.143164 1.59534,-2.650422 z"
         id="path3020"
         inkscape:connector-curvature="0" />
      <path
         style="fill:#767676;fill-opacity:1"
         d="m 9.7647407,51.231723 c 1.3258853,-5.266637 4.8599503,-7.448438 12.0704263,-7.451834 4.220457,-0.002 5.258134,-0.198621 5.258134,-0.996385 0,-0.71703 -0.752418,-0.993908 -2.70095,-0.993908 -2.298421,0 -2.762952,-0.241262 -3.116983,-1.618855 -0.228819,-0.890369 -0.216616,-1.933973 0.02711,-2.319119 0.279465,-0.441606 4.203357,-0.700264 10.623131,-0.700264 l 10.179979,0 -0.212605,2.153467 c -0.199554,2.021295 -0.389584,2.165973 -3.096096,2.357218 -1.96329,0.138728 -2.883493,0.508775 -2.883493,1.159559 0,0.748274 1.112189,0.95581 5.12221,0.95581 7.1235,0 11.285589,2.430335 12.253117,7.154863 l 0.434481,2.121613 -7.275812,0 c -10.559493,0 -13.416986,-1.673563 -14.416183,-8.443203 l -0.465291,-3.152392 -0.489978,3.188919 c -1.045766,6.806161 -3.816013,8.406676 -14.550667,8.406676 l -7.2192662,0 0.4587339,-1.822165 z M 18.636899,33.353214 c -2.419457,-3.4773 -2.345182,-7.57012 0.20875,-11.503095 1.854633,-2.856076 7.202889,-7.889952 8.382702,-7.889952 0.313099,0 0.374613,-0.757446 0.136698,-1.683213 -0.856047,-3.3310125 3.579297,-5.5055749 7.282058,-3.5702508 0.942007,0.4923589 1.299273,1.2603007 1.165549,2.5053438 -0.156794,1.459834 0.700243,2.65833 4.585914,6.413024 5.821647,5.625413 7.198863,9.018381 5.383199,13.262275 -2.131015,4.980984 -2.00837,4.938801 -14.359116,4.938801 l -11.065122,0 -1.720632,-2.472933 z m 14.443569,-4.844088 c -0.247165,-2.531177 -0.166976,-2.668093 1.455292,-2.48477 1.431991,0.161819 1.716871,-0.08085 1.716871,-1.462502 0,-1.322896 -0.307444,-1.624725 -1.526555,-1.498674 -1.217387,0.125873 -1.526555,-0.176067 -1.526555,-1.490862 0,-1.335151 -0.336568,-1.648702 -1.769724,-1.648702 -1.570668,0 -1.719526,0.195325 -1.323441,1.736556 0.411006,1.599291 0.309562,1.703044 -1.283386,1.312587 -1.554057,-0.380924 -1.729669,-0.230194 -1.729669,1.484586 0,1.684817 0.201341,1.870967 1.717489,1.587914 1.666292,-0.311085 1.704157,-0.239213 1.270224,2.411004 -0.432365,2.640641 -0.385494,2.731646 1.406884,2.731646 1.757268,0 1.840482,-0.139969 1.59257,-2.678783 z"
         id="path3018"
         inkscape:connector-curvature="0" />
      <path
         style="fill:#606060;fill-opacity:1"
         d="m 9.7647407,51.231723 c 1.3258853,-5.266637 4.8599503,-7.448438 12.0704263,-7.451834 4.220457,-0.002 5.258134,-0.198621 5.258134,-0.996385 0,-0.717822 -0.753855,-0.993908 -2.713876,-0.993908 -2.649259,0 -2.713875,-0.05522 -2.713875,-2.319119 l 0,-2.319119 10.177033,0 c 9.58008,0 10.177033,0.07455 10.177033,1.271018 0,2.634173 -0.754319,3.36722 -3.464933,3.36722 -1.895498,0 -2.641287,0.280638 -2.641287,0.993908 0,0.797764 1.037677,0.994397 5.258134,0.996385 7.210476,0.0034 10.744541,2.185197 12.070426,7.451834 l 0.458734,1.822165 -7.264556,0 c -8.883685,0 -11.200105,-0.861037 -13.206624,-4.909038 -0.76281,-1.538912 -1.422837,-3.672943 -1.466728,-4.74229 -0.05774,-1.406803 -0.226611,-1.095622 -0.610885,1.125688 -1.181246,6.828233 -4.084307,8.52564 -14.581335,8.52564 l -7.2645552,0 0.4587339,-1.822165 z M 18.704712,33.305761 c -3.688009,-5.197369 -1.535025,-11.825563 5.570445,-17.149217 2.727871,-2.043811 3.305124,-2.818184 3.015504,-4.045242 -0.773693,-3.2779756 4.413784,-5.4815498 7.580528,-3.2201109 0.954016,0.681283 1.150673,1.3919509 0.825106,2.9817249 -0.235094,1.147988 -0.162786,2.087251 0.160684,2.087251 1.486171,0 7.62175,6.366621 9.230686,9.578277 1.515483,3.025111 1.680431,3.902267 1.11194,5.913031 -0.367131,1.298551 -1.325953,3.264077 -2.130715,4.367837 l -1.463204,2.006835 -11.056265,0 -11.056264,0 -1.788445,-2.520386 z M 33.30687,28.445998 c -0.260704,-2.669827 -0.221043,-2.730464 1.508626,-2.306495 1.633296,0.400346 1.776369,0.268073 1.776369,-1.642269 0,-1.858904 -0.178607,-2.044341 -1.696172,-1.761023 -1.421918,0.265462 -1.696172,0.06368 -1.696172,-1.247966 0,-1.24579 -0.361763,-1.564629 -1.775266,-1.564629 -1.524616,0 -1.729789,0.232336 -1.453169,1.64555 0.284072,1.451284 0.133217,1.599252 -1.277844,1.253379 -1.411922,-0.346084 -1.599941,-0.160926 -1.599941,1.575593 0,1.723945 0.203305,1.929808 1.6408,1.661438 1.564362,-0.292055 1.623415,-0.179735 1.267605,2.411004 -0.362849,2.641986 -0.318491,2.717329 1.599856,2.717329 1.903688,0 1.963638,-0.09639 1.705308,-2.741911 z"
         id="path3016"
         inkscape:connector-curvature="0" />
      <path
         style="fill:#494949;fill-opacity:1"
         d="M 9.8200678,51.563026 C 11.648077,45.617749 13.884479,44.176442 21.747773,43.87591 25.942497,43.715589 27.759312,43.406135 27.58304,42.882002 27.442258,42.463395 26.05323,42.029211 24.496311,41.917149 21.762876,41.720404 21.66555,41.634974 21.66555,39.432378 l 0,-2.28102 10.177033,0 c 9.58008,0 10.177033,0.07455 10.177033,1.271018 0,2.634173 -0.754319,3.36722 -3.464933,3.36722 -1.895498,0 -2.641287,0.280638 -2.641287,0.993908 0,0.791985 0.999326,0.994117 4.9189,0.994938 7.207689,0.0015 11.196357,2.409744 12.439758,7.510744 l 0.458171,1.879627 -8.218757,-0.223114 c -8.181805,-0.22211 -8.228319,-0.232459 -10.345233,-2.301685 -1.396304,-1.36485 -2.428684,-3.298766 -3.006597,-5.632146 -0.678499,-2.739501 -0.896754,-3.098194 -0.952724,-1.565759 -0.03993,1.093299 -0.637787,3.203126 -1.32857,4.688504 -1.850629,3.979373 -4.387965,4.919275 -13.279951,4.919275 -7.1882602,0 -7.2336545,-0.01 -6.7783252,-1.490862 z M 19.833193,34.335285 c -5.046711,-5.411277 -3.301772,-12.370704 4.589086,-18.30288 2.682718,-2.016808 3.143932,-2.683239 2.866442,-4.141865 -0.24609,-1.293579 0.0724,-2.0140632 1.244842,-2.8160729 3.206399,-2.1933393 7.786466,-0.4010135 7.196126,2.8160729 -0.268158,1.461343 0.232914,2.165331 3.144709,4.418198 7.08251,5.479768 9.114821,11.680497 5.551745,16.93878 l -1.747311,2.578629 -10.727609,0 c -10.260639,0 -10.788134,-0.0649 -12.11803,-1.490862 z M 33.37154,28.440493 c -0.371065,-2.701814 -0.347471,-2.740098 1.421499,-2.306495 1.659662,0.40681 1.798826,0.280183 1.798826,-1.636764 0,-1.878875 -0.168373,-2.046251 -1.759599,-1.749181 -1.552483,0.289837 -1.723277,0.142944 -1.451021,-1.247967 0.266817,-1.363133 0.04586,-1.57647 -1.632747,-1.57647 -1.59829,0 -1.941322,0.281745 -1.941322,1.594481 0,1.26826 -0.27762,1.523579 -1.356937,1.24793 -1.132603,-0.289257 -1.356938,-0.02033 -1.356938,1.626662 0,1.697602 0.216406,1.932811 1.54935,1.68396 1.440211,-0.268877 1.530776,-0.09904 1.285675,2.411004 -0.255601,2.617553 -0.201132,2.700256 1.778433,2.700256 2.002832,0 2.034852,-0.05284 1.664781,-2.747416 z"
         id="path3014"
         inkscape:connector-curvature="0" />
      <path
         style="fill:#333333;fill-opacity:1"
         d="m 9.8178031,51.563026 c 1.7432229,-5.697677 5.1451379,-7.785614 12.6852469,-7.785614 4.137656,0 5.26872,-0.205189 5.26872,-0.95581 0,-0.650784 -0.920203,-1.020831 -2.883493,-1.159559 -2.706512,-0.191245 -2.896542,-0.335923 -3.096097,-2.357218 l -0.212604,-2.153467 9.840745,0 c 6.181455,0 10.005529,0.260394 10.283893,0.700264 0.243731,0.385146 0.255934,1.42875 0.02712,2.319119 -0.354035,1.377593 -0.818565,1.618855 -3.116986,1.618855 -1.948532,0 -2.70095,0.276878 -2.70095,0.993908 0,0.791985 0.999326,0.994117 4.9189,0.994938 7.177929,0.0015 11.198576,2.413336 12.42499,7.453281 l 0.443404,1.822165 -6.880032,0 c -10.237852,0 -13.582593,-1.92449 -14.6694,-8.440451 l -0.526251,-3.155144 -0.563083,2.980725 c -1.246837,6.600235 -4.680706,8.612367 -14.700229,8.613841 -6.9423296,0.001 -6.9962665,-0.01126 -6.5438919,-1.489833 z M 19.833193,34.335285 c -3.236423,-3.470218 -3.861802,-7.920682 -1.617998,-11.514378 1.507406,-2.414275 5.46174,-6.392846 7.912776,-7.961278 1.371144,-0.877401 1.627055,-1.453317 1.297311,-2.919531 -0.320084,-1.423255 -0.06916,-2.0602022 1.136523,-2.8849498 3.184272,-2.1782021 7.764701,-0.3633616 7.15617,2.8353918 -0.279059,1.466879 0.193817,2.13303 3.028278,4.266004 6.836094,5.144264 9.336126,12.319556 5.841011,16.764171 -0.826741,1.051338 -1.819001,2.130587 -2.205024,2.398331 C 41.996218,35.58679 37.077609,35.81042 31.451998,35.816 21.702399,35.825672 21.158529,35.75636 19.833193,34.335285 z M 33.472844,28.61557 c -0.407964,-2.491614 -0.365632,-2.561969 1.34892,-2.241875 1.612605,0.301062 1.770101,0.139852 1.770101,-1.811841 0,-1.940079 -0.163621,-2.111758 -1.733328,-1.818706 -1.537691,0.287075 -1.709991,0.127522 -1.526555,-1.413618 0.174128,-1.46295 -0.08779,-1.770318 -1.659016,-1.94688 -1.665137,-0.187115 -1.86579,0.0022 -1.86579,1.760132 0,1.643575 -0.224724,1.912403 -1.356937,1.623245 -1.150317,-0.293781 -1.356938,-0.02033 -1.356938,1.795827 0,1.849698 0.194513,2.092701 1.423811,1.778749 1.295943,-0.330974 1.400963,-0.12964 1.169392,2.241838 -0.24943,2.554357 -0.210656,2.605468 1.976551,2.605468 2.211527,0 2.2273,-0.02242 1.809789,-2.572339 z"
         id="path3012"
         inkscape:connector-curvature="0" />
    </g>
    <path
       style="fill:#000000"
       d="m 22.177916,35.72242 -1.731175,-0.05894 -1.31222,-1.959468 c -1.536755,-2.294752 -2.036647,-3.577663 -2.171868,-5.573822 -0.260686,-3.848307 2.185542,-7.860596 7.312719,-11.994283 0.901454,-0.72678 1.944636,-1.659712 2.318182,-2.073182 0.657946,-0.728268 0.679173,-0.794649 0.679173,-2.123906 0,-1.670545 0.252021,-2.216362 1.363209,-2.9523825 1.607781,-1.06495 3.859809,-1.2143071 5.509414,-0.3653909 1.298523,0.6682434 1.578461,1.1822259 1.601666,2.9407544 0.01085,0.822918 0.113673,1.671721 0.228473,1.886226 0.1148,0.214506 1.304327,1.334376 2.643395,2.488599 3.616505,3.117283 5.26056,5.055973 6.485776,7.648111 1.136896,2.405286 1.367455,3.490993 1.112624,5.239394 -0.259208,1.778417 -1.003035,3.416524 -2.511957,5.531999 l -1.068963,1.498663 -9.363637,-0.03672 c -5.15,-0.0202 -10.142665,-0.06324 -11.094811,-0.09566 z m 11.097308,-4.867964 c 0.219221,-0.264144 0.146858,-2.5684 -0.123037,-3.917876 -0.167778,-0.838889 0.24367,-1.033408 1.746511,-0.825693 1.580526,0.218455 1.640004,0.162851 1.643973,-1.536853 0.0039,-1.687598 -0.186356,-1.890955 -1.652198,-1.765597 -0.63976,0.05471 -1.265473,0.06085 -1.390473,0.01365 -0.143965,-0.05437 -0.229392,-0.463491 -0.233055,-1.116133 -0.0069,-1.229105 -0.228551,-1.570906 -1.110684,-1.712739 -0.652504,-0.104913 -1.887442,0.08005 -2.125211,0.318299 -0.06708,0.06721 -0.121959,0.66755 -0.121959,1.334081 l 0,1.211873 -1.227471,-0.05677 c -1.180298,-0.05459 -1.234452,-0.03841 -1.409091,0.420927 -0.260911,0.686248 -0.223693,2.145164 0.06479,2.539687 0.202125,0.276423 0.459303,0.330092 1.431027,0.298634 1.419765,-0.04596 1.440125,-0.01096 1.219249,2.095866 -0.301455,2.875443 -0.243897,2.974381 1.730403,2.974381 0.96542,0 1.390915,-0.07534 1.557227,-0.275736 l 0,0 z"
       id="path3028"
       inkscape:connector-curvature="0" />
    <path
       style="fill:#000000"
       d="m 10.669259,52.995079 -1.2398315,-0.06389 0.1238129,-0.582315 c 0.068097,-0.320274 0.2897123,-1.073225 0.4924786,-1.673225 1.643535,-4.863347 4.146508,-6.424474 10.929806,-6.81702 6.280043,-0.363423 6.115384,-0.336322 6.115384,-1.006514 0,-0.536147 -0.614899,-0.749683 -2.818182,-0.978669 -0.9,-0.09354 -1.785813,-0.228374 -1.968473,-0.299638 -0.507701,-0.198078 -0.66789,-0.852416 -0.66789,-2.728177 l 0,-1.715437 8.227272,0.0049 c 8.38606,0.005 11.391166,0.148412 11.896306,0.567642 0.365809,0.303593 0.242589,2.179907 -0.199269,3.034367 -0.393397,0.760745 -0.879746,0.932635 -3.156468,1.115589 C 36.489358,42.00659 36,42.195825 36,42.782422 c 0,0.587703 0.718838,0.755664 3.896395,0.910415 3.89015,0.189455 4.80989,0.284141 6.285423,0.647075 3.734637,0.918602 6.080469,3.167473 7.079237,6.786626 0.606514,2.197782 0.918054,2.00367 -3.2156,2.003549 -4.502686,-1.31e-4 -9.931599,-0.300082 -11.565308,-0.638989 -1.583303,-0.328451 -2.48552,-0.861057 -3.808398,-2.248212 -1.262858,-1.32422 -1.886649,-2.62722 -2.578184,-5.385421 -0.27579,-1.1 -0.52048,-2.022177 -0.543754,-2.049283 -0.02327,-0.0271 -0.268647,0.913804 -0.545273,2.09091 -0.276627,1.177105 -0.731665,2.647711 -1.0112,3.268013 -1.020758,2.265129 -3.007433,3.75748 -5.764481,4.330163 -2.487271,0.516646 -8.739723,0.746191 -13.559598,0.497811 l 0,0 z"
       id="path3030"
       inkscape:connector-curvature="0" />
    <path
       style="fill:#000000"
       id="path3042"
       d="m 20.902426,35.126724 c 0.07745,0.08481 0.158324,0.166213 0.233541,0.253051 0.06536,0.07042 0.118564,0.149633 0.173916,0.227545 0.04299,0.06533 0.09739,0.121259 0.14064,0.186804 0.06069,0.06654 0.113236,0.138294 0.166801,0.210388 0.04537,0.06752 0.09766,0.130154 0.143653,0.197349 0.05067,0.06291 0.101422,0.125524 0.152621,0.188098 0.06982,0.07074 0.108888,0.162642 0.160466,0.245791 0.05117,0.05719 0.10666,0.105509 0.142121,0.174489 0.03346,0.06038 0.06506,0.122527 0.09136,0.186459 0.02885,0.08058 0.03316,0.166452 0.0366,0.251136 0.0014,0.06018 8.64e-4,0.03004 0.0016,0.0904 0,0 -0.599547,0.306191 -0.599547,0.306191 l 0,0 c -4.07e-4,-0.0594 -7.8e-5,-0.0298 -9.83e-4,-0.08878 -0.0022,-0.07702 -0.0037,-0.155456 -0.02702,-0.2296 -0.02465,-0.06255 -0.05657,-0.122473 -0.08849,-0.181505 -0.0331,-0.06692 -0.09622,-0.10935 -0.13777,-0.170925 -0.04853,-0.0813 -0.08724,-0.169563 -0.155737,-0.237157 -0.0532,-0.06331 -0.105295,-0.127477 -0.155496,-0.193164 -0.04646,-0.06616 -0.09966,-0.127583 -0.143047,-0.195924 -0.05277,-0.07406 -0.109495,-0.143237 -0.168217,-0.212667 -0.04374,-0.06459 -0.100334,-0.118714 -0.140734,-0.185484 -0.05207,-0.07715 -0.104211,-0.154105 -0.167742,-0.22274 -0.07586,-0.08773 -0.155417,-0.172003 -0.238044,-0.253383 0,0 0.579537,-0.346378 0.579537,-0.346378 z"
       inkscape:connector-curvature="0" />
    <path
       style="fill:#000000"
       id="path3050"
       d="m 42.654747,35.711717 c -0.05074,0.101527 -0.106084,0.200116 -0.141531,0.308263 -0.02526,0.08689 -0.06396,0.16875 -0.103515,0.249818 -0.03264,0.08261 -0.07002,0.162809 -0.108595,0.242721 -0.02905,0.07202 -0.04092,0.149134 -0.06193,0.223756 -0.01969,0.09032 -0.03137,0.182151 -0.04778,0.273192 -0.0108,0.09733 -0.03353,0.192427 -0.05163,0.288481 -0.02234,0.09019 -0.04508,0.179663 -0.05698,0.271939 -0.01011,0.08731 -0.0052,0.175245 -0.02002,0.261976 -0.01872,0.07845 -0.02715,0.158409 -0.03192,0.238739 -2.19e-4,0.08552 -0.0041,0.169367 -0.02102,0.253248 -0.01785,0.07852 -0.01832,0.15927 -0.03539,0.237829 -0.01166,0.04885 -0.0061,0.02431 -0.01666,0.07362 0,0 -0.606566,0.294752 -0.606566,0.294752 l 0,0 c 0.0088,-0.05182 0.0038,-0.0263 0.01498,-0.07656 0.02117,-0.07772 0.02555,-0.155718 0.03671,-0.235516 0.01659,-0.08157 0.03316,-0.16025 0.02635,-0.244515 0.0032,-0.08298 0.0076,-0.166349 0.0266,-0.247513 0.02022,-0.08506 0.01937,-0.17 0.02383,-0.25724 0.0091,-0.09372 0.02513,-0.186315 0.05538,-0.275799 0.01588,-0.0968 0.04392,-0.190881 0.05241,-0.288849 0.01585,-0.0924 0.03219,-0.183885 0.04299,-0.276944 0.01889,-0.07832 0.0426,-0.154384 0.05802,-0.233577 0.03287,-0.08321 0.08408,-0.157759 0.108721,-0.244719 0.03617,-0.08055 0.07897,-0.157889 0.108925,-0.241224 0.03021,-0.112911 0.08393,-0.212988 0.133769,-0.3177 0,0 0.614844,-0.278175 0.614844,-0.278175 z"
       inkscape:connector-curvature="0" />
    <path
       style="fill:#ffffff"
       id="path3056"
       d="m 41.887095,36.156352 c 0.03339,-0.111472 0.08092,-0.216842 0.135872,-0.319069 0.0311,-0.05347 0.06537,-0.10442 0.09257,-0.160036 0,0 0.611832,-0.281718 0.611832,-0.281718 l 0,0 c -0.0219,0.06077 -0.05035,0.117108 -0.09241,0.166889 -0.05263,0.09892 -0.112171,0.196124 -0.136674,0.306894 0,0 -0.611195,0.28704 -0.611195,0.28704 z"
       inkscape:connector-curvature="0" />
    <path
       style="fill:#ffffff"
       d="m 30.181954,30.76144 c -0.176718,-0.212933 -0.181588,-0.572559 -0.02226,-1.643791 0.271323,-1.824247 0.264724,-3.487629 -0.0142,-3.580605 -0.119981,-0.03999 -0.614397,0.0056 -1.098702,0.101392 -1.52743,0.30201 -2.01986,-0.218546 -1.775736,-1.877161 l 0.09366,-0.636363 1.476833,0.05373 c 1.717221,0.06248 1.741176,0.03898 1.47234,-1.444196 -0.267125,-1.473741 -0.172466,-1.609535 1.121965,-1.609535 1.355375,0 1.68103,0.264335 1.513624,1.228611 -0.06497,0.374264 -0.121097,0.925934 -0.124715,1.225934 l -0.0066,0.545455 1.272727,0.09091 c 0.7,0.05 1.375,0.157101 1.5,0.238003 0.338631,0.219167 0.285637,1.677658 -0.07402,2.037321 -0.249293,0.249292 -0.516047,0.279732 -1.545455,0.176352 l -1.244157,-0.124946 0,0.861483 c 0,0.473815 0.0959,1.581769 0.21311,2.462119 0.270595,2.032393 0.183433,2.16785 -1.394928,2.16785 -0.788814,0 -1.206606,-0.08352 -1.363501,-0.272563 z"
       id="path3058"
       inkscape:connector-curvature="0" />
    <path
       style="fill:#000000"
       d="m 38.454545,37.215821 -2.363636,-0.107577 2.783458,-0.03712 c 1.818486,-0.02425 2.744501,0.02591 2.671088,0.144698 -0.0618,0.1 -0.250723,0.165114 -0.419822,0.144698 -0.169098,-0.02042 -1.371088,-0.08553 -2.671088,-0.144698 z"
       id="path3064"
       inkscape:connector-curvature="0" />
    <path
       style="fill:#000000"
       id="path3068"
       d="m 42.664146,35.339488 c -0.0026,0.122004 0.002,0.243524 -0.02274,0.363586 -0.0145,0.05233 -0.03267,0.103209 -0.05653,0.151945 0,0 -0.614923,0.278152 -0.614923,0.278152 l 0,0 c 0.02388,-0.04659 0.05001,-0.09018 0.06387,-0.141427 0.04171,-0.110601 0.0328,-0.229773 0.0293,-0.346021 0,0 0.601019,-0.306235 0.601019,-0.306235 z"
       inkscape:connector-curvature="0" />
    <path
       style="fill:#000000"
       id="path3070"
       d="m 42.968958,35.215656 c -0.0709,0.09215 -0.139218,0.186537 -0.199505,0.286032 -0.03041,0.05282 -0.01433,0.02693 -0.04824,0.07766 0,0 -0.618083,0.267012 -0.618083,0.267012 l 0,0 c 0.03674,-0.04523 0.01915,-0.02184 0.05272,-0.0702 0.05274,-0.103726 0.12465,-0.198248 0.195326,-0.290208 0,0 0.617776,-0.270298 0.617776,-0.270298 z"
       inkscape:connector-curvature="0" />
    <path
       style="fill:#ffffff"
       d="m 30.843432,31.029606 c -0.870256,-0.104965 -0.869683,-0.101504 -0.561619,-3.394982 0.04397,-0.47012 0.04002,-1.121038 -0.0088,-1.446483 l -0.08873,-0.591718 -1.24561,0.08047 c -1.178077,0.07611 -1.259552,0.06492 -1.502741,-0.206369 -0.208485,-0.232575 -0.254255,-0.454241 -0.241933,-1.171695 0.0218,-1.269466 0.0724,-1.306308 1.649113,-1.200691 1.69683,0.113664 1.705453,0.104587 1.402425,-1.476171 -0.178292,-0.930072 -0.191541,-1.201793 -0.06478,-1.328556 0.09068,-0.09068 0.600882,-0.179405 1.183812,-0.205878 0.793592,-0.03604 1.097349,0.0012 1.347905,0.165408 0.32161,0.210726 0.322953,0.219565 0.23652,1.556467 l -0.08693,1.344537 0.822466,0.0056 c 1.051562,0.0072 1.915879,0.174281 2.057517,0.397837 0.16171,0.255235 0.139304,1.33077 -0.03573,1.714918 -0.194019,0.425825 -0.533341,0.502664 -1.855503,0.420177 l -1.079448,-0.06734 0.0012,0.660739 c 6.82e-4,0.363406 0.08675,1.426147 0.191265,2.361646 0.224375,2.008345 0.161401,2.277889 -0.560063,2.397204 -0.484935,0.0802 -0.795066,0.07719 -1.560396,-0.01512 l 3e-6,0 z"
       id="path3031"
       inkscape:connector-curvature="0" />
    <path
       style="fill:#ffffff"
       d="m 25.153921,37.071222 c 1.573312,-0.02045 4.147824,-0.02045 5.721136,0 1.573313,0.02045 0.286057,0.03719 -2.860568,0.03719 -3.146625,0 -4.433881,-0.01673 -2.860568,-0.03719 z"
       id="path3033"
       inkscape:connector-curvature="0" />
  </g>
</svg>
