<?xml version="1.0" encoding="UTF-8" standalone="no"?>
<!-- Created with Inkscape (http://www.inkscape.org/) -->

<svg
   xmlns:dc="http://purl.org/dc/elements/1.1/"
   xmlns:cc="http://creativecommons.org/ns#"
   xmlns:rdf="http://www.w3.org/1999/02/22-rdf-syntax-ns#"
   xmlns:svg="http://www.w3.org/2000/svg"
   xmlns="http://www.w3.org/2000/svg"
   xmlns:sodipodi="http://sodipodi.sourceforge.net/DTD/sodipodi-0.dtd"
   xmlns:inkscape="http://www.inkscape.org/namespaces/inkscape"
   width="64px"
   height="64px"
   id="svg2996"
   version="1.1"
   inkscape:version="0.48.1 "
   sodipodi:docname="bb.svg">
  <defs
     id="defs2998" />
  <sodipodi:namedview
     id="base"
     pagecolor="#ffffff"
     bordercolor="#666666"
     borderopacity="1.0"
     inkscape:pageopacity="0.0"
     inkscape:pageshadow="2"
     inkscape:zoom="16"
     inkscape:cx="30.966666"
     inkscape:cy="36.280105"
     inkscape:current-layer="layer1"
     showgrid="true"
     inkscape:document-units="px"
     inkscape:grid-bbox="true"
     inkscape:window-width="1365"
     inkscape:window-height="878"
     inkscape:window-x="-8"
     inkscape:window-y="-8"
     inkscape:window-maximized="1" />
  <metadata
     id="metadata3001">
    <rdf:RDF>
      <cc:Work
         rdf:about="">
        <dc:format>image/svg+xml</dc:format>
        <dc:type
           rdf:resource="http://purl.org/dc/dcmitype/StillImage" />
        <dc:title />
      </cc:Work>
    </rdf:RDF>
  </metadata>
  <g
     id="layer1"
     inkscape:label="Layer 1"
     inkscape:groupmode="layer">
    <path
       style="fill:#000000"
       d="m 6.1500011,58.019003 c 0,-1.661572 1.4954368,-5.016697 2.9137504,-6.537212 2.5517495,-2.735625 4.8026025,-3.391481 11.6393385,-3.391481 5.980244,0 6.346911,-0.06355 6.346911,-1.1 0,-0.961636 -0.366667,-1.1 -2.915,-1.1 -1.60325,0 -3.212,-0.297 -3.575,-0.66 -0.363,-0.363 -0.66,-1.72425 -0.66,-3.025 l 0,-2.365 12.1,0 12.099998,0 0,2.365 c 0,1.30075 -0.297,2.662 -0.66,3.025 -0.363,0.363 -1.971748,0.66 -3.574998,0.66 -2.548333,0 -2.915,0.138364 -2.915,1.1 0,1.036452 0.366667,1.1 6.34691,1.1 6.836736,0 9.087589,0.655856 11.639336,3.391481 1.414864,1.516814 2.913752,4.874463 2.913752,6.52707 0,1.133011 -0.167404,1.150738 -9.255092,0.980166 -8.731819,-0.163894 -9.36433,-0.248655 -11.187098,-1.499118 -2.982548,-2.046105 -4.364322,-4.47249 -4.708494,-8.268077 -0.16615,-1.832337 -0.480842,-3.331522 -0.699314,-3.331522 -0.218472,0 -0.533164,1.499185 -0.699314,3.331522 -0.344202,3.795918 -1.72613,6.222297 -4.709029,8.268077 -1.821379,1.249165 -2.464854,1.335977 -11.187097,1.50926 -9.1154825,0.181093 -9.2545599,0.166364 -9.2545599,-0.980166 z M 18.647368,37.638301 c -1.999561,-1.572855 -4.249731,-6.377575 -4.235288,-9.04348 0.02364,-4.362772 4.129831,-10.555254 9.747211,-14.699604 1.741141,-1.284567 3.223281,-2.361871 3.293646,-2.39401 0.07036,-0.03214 -0.170068,-0.847932 -0.534292,-1.8128738 -0.609308,-1.6142402 -0.541617,-1.8750497 0.847064,-3.2637315 1.239553,-1.239552 1.996302,-1.5092918 4.234292,-1.5092918 2.23799,0 2.99474,0.2697398 4.234292,1.5092918 1.388681,1.3886818 1.456372,1.6494913 0.847065,3.2637315 -0.364225,0.9649418 -0.604657,1.7807348 -0.534292,1.8128738 1.611012,0.735831 7.029465,5.4474 8.73661,7.596843 4.578315,5.764507 5.349707,9.65255 2.893132,14.582262 -2.535225,5.087535 -2.447192,5.059998 -16.176807,5.059998 -11.126109,0 -12.048426,-0.07612 -13.352633,-1.102009 z m 15.52868,-5.910491 c -0.01317,-0.529375 -0.227441,-2.014375 -0.476149,-3.3 -0.497985,-2.574192 -0.520822,-2.553511 2.016233,-1.825893 l 1.783869,0.511607 0,-2.495451 c 0,-1.767491 -0.200554,-2.420081 -0.6875,-2.237082 -3.286611,1.235138 -3.304547,1.227799 -2.896856,-1.185305 l 0.381044,-2.255376 -2.296688,0 -2.296688,0 0.38567,2.282761 c 0.3056,1.808829 0.229996,2.224154 -0.364156,2.000474 -3.228768,-1.215527 -3.224826,-1.217258 -3.224826,1.416309 l 0,2.47367 1.783869,-0.511607 c 2.537055,-0.727618 2.514218,-0.748299 2.016233,1.825893 -0.797116,4.120465 -0.740472,4.2625 1.699898,4.2625 1.737697,0 2.194967,-0.202258 2.176047,-0.9625 z"
       id="path3015"
       inkscape:connector-curvature="0" />
    <path
       style="fill:#ffffff"
       d="m 30.212987,32.223377 c -0.367397,-0.367398 -0.3613,-0.576166 0.09585,-3.281985 0.20986,-1.242138 0.335155,-2.379371 0.278434,-2.527185 -0.139628,-0.363863 -0.778479,-0.337964 -2.340463,0.09488 -0.721724,0.2 -1.375234,0.363636 -1.452243,0.363636 -0.07701,0 -0.140019,-0.889982 -0.140019,-1.977737 0,-2.544128 0.043,-2.587694 1.928426,-1.953775 0.766136,0.25759 1.474738,0.417813 1.574672,0.356051 0.177635,-0.109784 0.113117,-1.511149 -0.15557,-3.379084 l -0.124227,-0.863637 2.115622,0 c 1.575395,0 2.113656,0.05804 2.107919,0.227273 -0.0042,0.125 -0.112244,0.922727 -0.240015,1.772727 -0.127771,0.85 -0.19658,1.688637 -0.152909,1.863637 0.108482,0.434708 0.78721,0.407829 2.1634,-0.08568 0.619524,-0.222162 1.192252,-0.33831 1.272727,-0.258107 0.237629,0.236827 0.302595,4.298328 0.06875,4.298328 -0.109871,0 -0.790267,-0.163636 -1.511991,-0.363636 -0.721724,-0.2 -1.53887,-0.363636 -1.81588,-0.363636 -0.625235,0 -0.632616,0.172315 -0.136292,3.181818 0.432494,2.622456 0.430379,2.53992 0.0742,2.896104 -0.214157,0.214156 -0.666274,0.285714 -1.805195,0.285714 -1.138922,0 -1.591039,-0.07156 -1.805195,-0.285714 z"
       id="path3017"
       inkscape:connector-curvature="0" />
    <path
       style="fill:#ffffff"
       d="m 30.702055,32.605711 c -0.268988,-0.05631 -0.538371,-0.204364 -0.645455,-0.354749 -0.293506,-0.412191 -0.249314,-1.081293 0.243777,-3.690994 0.284279,-1.504553 0.329669,-1.896245 0.2454,-2.117656 -0.05148,-0.13527 -0.106179,-0.190114 -0.240629,-0.241286 -0.251434,-0.0957 -0.602404,-0.02605 -2.289752,0.454356 -0.781568,0.222522 -1.443969,0.404586 -1.472002,0.404586 -0.03724,0 -0.04437,-0.517381 -0.02647,-1.920454 0.02663,-2.08817 0.04988,-2.29887 0.278925,-2.527686 0.108464,-0.108357 0.152123,-0.119741 0.448554,-0.11696 0.346112,0.0032 0.849008,0.14907 2.046443,0.593397 0.294927,0.109437 0.607903,0.198976 0.695502,0.198976 0.401496,0 0.38528,-0.582232 -0.09368,-3.363636 -0.08825,-0.5125 -0.160531,-0.936932 -0.160619,-0.943182 -8.8e-5,-0.0062 1.022957,-0.01136 2.273433,-0.01136 l 2.273593,0 -0.02436,0.102273 c -0.0134,0.05625 -0.127856,0.715909 -0.254354,1.465909 -0.227013,1.345939 -0.309815,2.12456 -0.2509,2.359297 0.115664,0.460841 0.593086,0.41458 2.357846,-0.228468 0.49117,-0.178974 0.855023,-0.287571 0.913951,-0.27278 0.118845,0.02983 0.242983,0.230625 0.336564,0.544402 0.05644,0.189233 0.0735,0.605079 0.08933,2.177095 0.01077,1.06875 0.0071,1.943181 -0.0081,1.943181 -0.01524,0 -0.625464,-0.170999 -1.35606,-0.379998 -2.326333,-0.665488 -2.601482,-0.673067 -2.659117,-0.07325 -0.02483,0.25842 0.0058,0.473899 0.288286,2.028909 0.237203,1.305675 0.428867,2.6793 0.428769,3.072918 -9.1e-5,0.31793 -0.09213,0.545987 -0.27416,0.679246 -0.258372,0.189145 -0.552924,0.229151 -1.793951,0.243653 -0.65,0.0076 -1.266833,-0.004 -1.370739,-0.02574 l 0,0 z"
       id="path3027"
       inkscape:connector-curvature="0" />
    <path
       style="fill:none;stroke:#000000;stroke-width:0.2;stroke-linecap:butt;stroke-linejoin:miter;stroke-miterlimit:4;stroke-opacity:1;stroke-dasharray:none"
       d="m 19.999873,40.577087 0,-2.860568"
       id="path3803"
       inkscape:connector-curvature="0" />
    <path
       style="fill:none;stroke:#000000;stroke-width:0.2;stroke-linecap:butt;stroke-linejoin:miter;stroke-miterlimit:4;stroke-opacity:1;stroke-dasharray:none"
       d="m 44.000163,40.49638 0,-2.860568"
       id="path3803-0"
       inkscape:connector-curvature="0" />
    <path
       style="fill:#ffffff;stroke-width:0.2;stroke-miterlimit:4;stroke-dasharray:none"
       d="m 20.129166,39.10687 c 0,-0.722802 5.32e-4,-0.725392 0.141689,-0.689964 1.006412,0.252593 4.180414,0.352365 11.170811,0.351144 8.049792,-0.0014 10.842327,-0.108003 12.265625,-0.468208 l 0.171875,-0.0435 0,0.788026 0,0.788025 -11.875,0 -11.875,0 0,-0.725525 z"
       id="path3823"
       inkscape:connector-curvature="0" />
    <path
       style="fill:#ffffff;stroke-width:0.2;stroke-miterlimit:4;stroke-dasharray:none"
       d="m 30.69176,32.579373 c -0.553913,-0.114783 -0.812583,-0.46219 -0.812129,-1.090728 3.25e-4,-0.451132 0.106486,-1.175683 0.437829,-2.988228 0.265369,-1.451647 0.305588,-2.0048 0.160174,-2.202951 -0.185617,-0.252932 -1.021963,-0.09591 -3.676593,0.690271 l -0.296875,0.08792 0.0027,-1.449756 c 0.0033,-1.76631 0.07004,-2.673219 0.212669,-2.890904 0.178678,-0.272698 0.374643,-0.304395 0.972107,-0.157238 0.292187,0.07197 0.879123,0.257139 1.304302,0.411492 0.823977,0.299131 1.07077,0.337422 1.196709,0.185675 0.126519,-0.152446 0.03692,-1.332292 -0.214803,-2.828411 -0.12304,-0.731296 -0.223708,-1.343015 -0.223708,-1.359375 0,-0.01636 1.0125,-0.02975 2.25,-0.02975 1.2375,0 2.25,0.01287 2.25,0.02859 0,0.01573 -0.113446,0.697758 -0.252101,1.515625 -0.301639,1.779234 -0.33732,2.37658 -0.154149,2.580626 0.19358,0.21564 0.66455,0.140125 2.013112,-0.32278 l 1.15311,-0.395815 0.14398,0.166893 c 0.22839,0.264735 0.283548,0.799892 0.283548,2.751069 l 0,1.782721 -1.366572,-0.391314 c -0.751614,-0.215223 -1.580538,-0.425831 -1.842052,-0.468017 -0.420677,-0.06786 -0.493684,-0.06477 -0.633428,0.02679 -0.141766,0.09289 -0.157948,0.144576 -0.157948,0.5045 0,0.220554 0.142842,1.239437 0.317427,2.264184 0.174584,1.024747 0.332998,2.130808 0.352031,2.457914 0.03325,0.57137 0.02831,0.602214 -0.125521,0.785036 -0.08807,0.104665 -0.267577,0.227323 -0.398907,0.272574 -0.292525,0.100794 -2.482965,0.148749 -2.894936,0.06338 z"
       id="path3825"
       inkscape:connector-curvature="0" />
  </g>
</svg>
