<?xml version="1.0" encoding="UTF-8" standalone="no"?>
<!-- Created with Inkscape (http://www.inkscape.org/) -->

<svg
   xmlns:dc="http://purl.org/dc/elements/1.1/"
   xmlns:cc="http://creativecommons.org/ns#"
   xmlns:rdf="http://www.w3.org/1999/02/22-rdf-syntax-ns#"
   xmlns:svg="http://www.w3.org/2000/svg"
   xmlns="http://www.w3.org/2000/svg"
   xmlns:sodipodi="http://sodipodi.sourceforge.net/DTD/sodipodi-0.dtd"
   xmlns:inkscape="http://www.inkscape.org/namespaces/inkscape"
   width="64px"
   height="64px"
   id="svg2816"
   version="1.1"
   inkscape:version="0.48.1 "
   sodipodi:docname="bk.svg">
  <defs
     id="defs2818">
    <inkscape:perspective
       sodipodi:type="inkscape:persp3d"
       inkscape:vp_x="0 : 32 : 1"
       inkscape:vp_y="0 : 1000 : 0"
       inkscape:vp_z="64 : 32 : 1"
       inkscape:persp3d-origin="32 : 21.333333 : 1"
       id="perspective2824" />
    <inkscape:perspective
       id="perspective2834"
       inkscape:persp3d-origin="0.5 : 0.33333333 : 1"
       inkscape:vp_z="1 : 0.5 : 1"
       inkscape:vp_y="0 : 1000 : 0"
       inkscape:vp_x="0 : 0.5 : 1"
       sodipodi:type="inkscape:persp3d" />
    <inkscape:perspective
       id="perspective2850"
       inkscape:persp3d-origin="0.5 : 0.33333333 : 1"
       inkscape:vp_z="1 : 0.5 : 1"
       inkscape:vp_y="0 : 1000 : 0"
       inkscape:vp_x="0 : 0.5 : 1"
       sodipodi:type="inkscape:persp3d" />
    <inkscape:perspective
       id="perspective2872"
       inkscape:persp3d-origin="0.5 : 0.33333333 : 1"
       inkscape:vp_z="1 : 0.5 : 1"
       inkscape:vp_y="0 : 1000 : 0"
       inkscape:vp_x="0 : 0.5 : 1"
       sodipodi:type="inkscape:persp3d" />
    <inkscape:perspective
       id="perspective2892"
       inkscape:persp3d-origin="0.5 : 0.33333333 : 1"
       inkscape:vp_z="1 : 0.5 : 1"
       inkscape:vp_y="0 : 1000 : 0"
       inkscape:vp_x="0 : 0.5 : 1"
       sodipodi:type="inkscape:persp3d" />
    <inkscape:perspective
       id="perspective2914"
       inkscape:persp3d-origin="0.5 : 0.33333333 : 1"
       inkscape:vp_z="1 : 0.5 : 1"
       inkscape:vp_y="0 : 1000 : 0"
       inkscape:vp_x="0 : 0.5 : 1"
       sodipodi:type="inkscape:persp3d" />
  </defs>
  <sodipodi:namedview
     id="base"
     pagecolor="#ffffff"
     bordercolor="#666666"
     borderopacity="1.0"
     inkscape:pageopacity="0.0"
     inkscape:pageshadow="2"
     inkscape:zoom="5.5"
     inkscape:cx="32"
     inkscape:cy="31.376174"
     inkscape:current-layer="layer1"
     showgrid="true"
     inkscape:document-units="px"
     inkscape:grid-bbox="true"
     inkscape:window-width="1365"
     inkscape:window-height="878"
     inkscape:window-x="-8"
     inkscape:window-y="-8"
     inkscape:window-maximized="1" />
  <metadata
     id="metadata2821">
    <rdf:RDF>
      <cc:Work
         rdf:about="">
        <dc:format>image/svg+xml</dc:format>
        <dc:type
           rdf:resource="http://purl.org/dc/dcmitype/StillImage" />
        <dc:title />
      </cc:Work>
    </rdf:RDF>
  </metadata>
  <g
     id="layer1"
     inkscape:label="Layer 1"
     inkscape:groupmode="layer">
    <path
       style="fill:#000000"
       d="m 15.881657,52.781913 c -0.249495,-0.249495 -0.453628,-3.088571 -0.453628,-6.309057 l 0,-5.855429 16.265406,0 16.265406,0 -0.190595,6.131628 -0.190595,6.131629 -15.621183,0.177429 c -8.59165,0.09759 -15.825315,-0.02671 -16.074811,-0.2762 z m 5.005207,-6.744308 C 17.7145,43.61812 17.416666,43.691925 17.416666,46.897546 l 0,3.012371 2.31016,-1.497571 c 2.117593,-1.372738 2.21429,-1.570689 1.160038,-2.374741 z m 14.98337,1.323196 c 0.670086,-0.450714 0.294345,-0.963257 -1.534985,-2.093845 -2.395555,-1.480534 -2.447369,-1.483523 -4.698834,-0.271029 -1.252112,0.674306 -2.276567,1.427181 -2.276567,1.673055 0,0.245873 0.953083,1.050491 2.117962,1.78804 2.184908,1.383387 2.884232,1.263461 6.392424,-1.096221 z m 10.512927,-3.187233 c -0.363683,-0.363683 -4.430234,1.937742 -4.435789,2.510392 -0.0023,0.237635 0.965269,1.048197 2.150165,1.801249 l 2.154356,1.369186 0.207205,-2.698842 c 0.113963,-1.484364 0.07979,-2.826256 -0.07594,-2.981985 z M 12.508613,37.932777 c -5.0547225,-4.438104 -5.19329,-13.0827 -0.283194,-17.667235 4.487104,-4.189591 10.762532,-4.399684 15.073864,-0.504655 3.175777,2.869124 4.037837,5.816964 4.037837,13.8075 l 0,6.386161 -8.262919,0 -8.262919,0 -2.302669,-2.021771 z M 32.029095,33.49148 c 0.04342,-9.645535 1.63165,-13.094193 7.171554,-15.572232 3.895048,-1.742284 7.924586,-1.15031 11.09035,1.629268 5.863923,5.148593 6.257365,12.585608 0.946768,17.896205 l -2.509827,2.509827 -8.36397,0 -8.363971,0 0.0291,-6.463068 z M 31.021672,22.770083 C 30.775658,21.994961 29.500645,20.317979 28.18831,19.043455 l -2.386063,-2.317315 2.104558,-0.794382 c 1.662917,-0.627681 2.104558,-1.177756 2.104558,-2.621283 0,-1.674793 -0.137979,-1.774443 -1.657197,-1.196836 -1.526275,0.580288 -1.657197,0.481517 -1.657197,-1.250242 0,-1.6482199 0.204548,-1.8412051 1.657197,-1.5635139 1.426161,0.2726281 1.657197,0.074984 1.657197,-1.4176803 0,-1.4081858 0.31175,-1.7344734 1.657197,-1.7344734 1.345446,0 1.657197,0.3262876 1.657197,1.7344734 0,1.4926645 0.231036,1.6903084 1.657197,1.4176803 1.452648,-0.2776912 1.657197,-0.084706 1.657197,1.5635139 0,1.731759 -0.130922,1.83053 -1.657197,1.250242 -1.493775,-0.567933 -1.657197,-0.466644 -1.657197,1.027132 0,1.139874 0.497221,1.84624 1.592805,2.26278 2.386792,0.907456 2.522599,1.655642 0.618654,3.408239 -0.948724,0.873308 -2.252194,2.438282 -2.8966,3.47772 -1.126765,1.817495 -1.188779,1.835903 -1.618944,0.480573 z"
       id="path2920" />
    <path
       style="fill:#ffffff"
       d="m 17.484036,47.246551 c 0.07592,-2.597931 0.190781,-2.945516 0.911743,-2.759006 0.726334,0.1879 2.967857,1.992526 2.967857,2.389389 0,0.253305 -0.539104,0.722857 -1.818181,1.583608 -1,0.672947 -1.889023,1.226469 -1.975606,1.23005 -0.08658,0.0036 -0.125199,-1.096238 -0.08581,-2.444041 z"
       id="path2922" />
    <path
       style="fill:#ffffff"
       d="m 30.54875,48.95585 c -1.205213,-0.54668 -3.081744,-1.984917 -3.09142,-2.36937 -0.004,-0.157704 1.765213,-1.311143 2.868969,-1.870458 0.513887,-0.260406 1.204679,-0.473466 1.535095,-0.473466 0.653872,0 2.946257,1.253546 3.832126,2.095523 0.483075,0.45914 0.494641,0.505199 0.206749,0.823316 -0.433622,0.479147 -2.642862,1.786066 -3.373335,1.995563 -0.846353,0.242731 -1.043988,0.222639 -1.978184,-0.201108 l 0,0 z"
       id="path2924" />
    <path
       style="fill:#ffffff"
       d="m 44.454545,48.634028 c -0.9,-0.594496 -1.825338,-1.283979 -2.056307,-1.532185 l -0.419945,-0.451284 0.686125,-0.565562 c 0.803345,-0.662185 2.986248,-1.842441 3.407624,-1.842441 0.174793,0 0.300232,0.163867 0.313159,0.409091 0.05106,0.96867 -0.06484,3.941555 -0.174576,4.478035 l -0.119716,0.585248 -1.636364,-1.080902 0,0 z"
       id="path2926" />
    <path
       style="fill:none;stroke:#000000;stroke-width:1px;stroke-linecap:butt;stroke-linejoin:miter;stroke-opacity:1"
       d="m 14.656395,39.122698 1.671343,1.799908"
       id="path3079"
       inkscape:connector-curvature="0" />
    <path
       style="fill:none;stroke:#000000;stroke-width:1px;stroke-linecap:butt;stroke-linejoin:miter;stroke-opacity:1"
       d="m 48.404673,39.315545 -1.478496,1.607061"
       id="path3081"
       inkscape:connector-curvature="0" />
    <path
       style="fill:none;stroke:#000000;stroke-width:1px;stroke-linecap:butt;stroke-linejoin:miter;stroke-opacity:1"
       d="m 26.612928,16.880975 -3.664099,1.092802"
       id="path3083"
       inkscape:connector-curvature="0" />
    <path
       style="fill:#ffffff;stroke:#000000;stroke-width:1px;stroke-linecap:butt;stroke-linejoin:miter;stroke-opacity:1"
       d="m 36.383858,16.75241 3.214122,1.928474"
       id="path3085"
       inkscape:connector-curvature="0" />
    <path
       style="fill:#ffffff"
       d="m 16.443912,40.292987 -0.283637,-0.289006 7.582379,-0.01634 7.58238,-0.01634 -0.0045,-4.885465 c -0.0045,-4.899629 -0.03568,-5.814272 -0.259297,-7.617468 -0.27925,-2.251832 -0.90951,-4.178525 -1.797901,-5.496148 -0.951375,-1.411037 -2.48281,-2.841243 -3.835228,-3.581715 -0.27648,-0.151377 -0.548145,-0.305862 -0.6037,-0.343301 -0.07899,-0.05323 0.09302,-0.124699 0.789234,-0.32791 l 0.890241,-0.25984 0.783121,0.733552 c 1.943098,1.820106 3.340025,3.577884 3.758122,4.728913 0.412761,1.136337 0.465873,1.122955 1.446518,-0.364449 0.975664,-1.479848 1.641968,-2.296172 3.074909,-3.767231 0.464929,-0.477297 0.90757,-0.950082 0.983647,-1.050634 0.07608,-0.100552 0.162975,-0.17287 0.193109,-0.160706 0.141535,0.05713 1.361384,0.797491 1.3624,0.826878 6.43e-4,0.01836 -0.179641,0.131776 -0.400612,0.252046 -0.941992,0.512704 -1.821833,1.195271 -2.581093,2.00237 -1.51306,1.608391 -2.405347,3.857676 -2.802795,7.065305 -0.225006,1.815932 -0.269771,2.935346 -0.302687,7.569256 l -0.03345,4.708689 7.536877,0 7.536877,0 -0.249413,0.283216 -0.249413,0.283215 -14.916211,0.0061 -14.916211,0.0061 -0.283637,-0.289005 z"
       id="path3087"
       inkscape:connector-curvature="0" />
    <path
       style="fill:#ffffff"
       d="M 31.100046,49.232928 C 30.415576,49.043683 29.192,48.314547 28.166214,47.484641 27.843077,47.223208 27.530113,46.93517 27.470741,46.844555 c -0.0956,-0.145901 -0.09725,-0.181083 -0.01445,-0.307452 0.222336,-0.339327 1.470784,-1.160501 2.739449,-1.801889 0.972981,-0.491901 1.191951,-0.56662 1.665082,-0.568171 0.583132,-0.0019 1.369634,0.382316 2.957001,1.444576 0.815263,0.545572 1.159847,0.850812 1.277346,1.131502 0.130417,0.311549 0.0207,0.440261 -0.868008,1.018225 -2.133091,1.387247 -3.137201,1.745277 -4.127113,1.471582 z"
       id="path3089"
       inkscape:connector-curvature="0" />
    <path
       style="fill:#ffffff"
       d="m 17.429183,47.647881 c 0.04634,-2.428367 0.107473,-2.949541 0.371024,-3.162952 0.298214,-0.241478 0.79215,-0.06171 1.835327,0.667951 1.346626,0.941919 1.886942,1.415587 1.886006,1.653369 -5.82e-4,0.147617 -0.180647,0.402345 -0.449554,0.635958 -0.243832,0.211829 -3.399428,2.308647 -3.576847,2.376729 -0.100585,0.0386 -0.105213,-0.113726 -0.06596,-2.171055 z"
       id="path3091"
       inkscape:connector-curvature="0" />
    <path
       style="fill:#ffffff"
       d="m 45.025569,49.051202 c -0.622743,-0.397747 -1.400036,-0.911203 -1.727317,-1.141013 -0.653447,-0.458835 -1.334475,-1.081172 -1.334475,-1.219469 0,-0.469602 3.441804,-2.508912 4.234366,-2.508912 0.174204,0 0.200532,0.02604 0.243769,0.241059 0.08442,0.419824 0.05208,2.049254 -0.07399,3.728381 -0.06703,0.892723 -0.14172,1.623132 -0.16598,1.623132 -0.02426,0 -0.553628,-0.32543 -1.176371,-0.723178 z"
       id="path3093"
       inkscape:connector-curvature="0" />
  </g>
</svg>
