<?xml version="1.0" encoding="UTF-8" standalone="no"?>
<!-- Created with Inkscape (http://www.inkscape.org/) -->

<svg
   xmlns:dc="http://purl.org/dc/elements/1.1/"
   xmlns:cc="http://creativecommons.org/ns#"
   xmlns:rdf="http://www.w3.org/1999/02/22-rdf-syntax-ns#"
   xmlns:svg="http://www.w3.org/2000/svg"
   xmlns="http://www.w3.org/2000/svg"
   xmlns:sodipodi="http://sodipodi.sourceforge.net/DTD/sodipodi-0.dtd"
   xmlns:inkscape="http://www.inkscape.org/namespaces/inkscape"
   width="64px"
   height="64px"
   id="svg2816"
   version="1.1"
   inkscape:version="0.48.1 "
   sodipodi:docname="bn.svg">
  <defs
     id="defs2818">
    <inkscape:perspective
       sodipodi:type="inkscape:persp3d"
       inkscape:vp_x="0 : 32 : 1"
       inkscape:vp_y="0 : 1000 : 0"
       inkscape:vp_z="64 : 32 : 1"
       inkscape:persp3d-origin="32 : 21.333333 : 1"
       id="perspective2824" />
    <inkscape:perspective
       id="perspective2834"
       inkscape:persp3d-origin="0.5 : 0.33333333 : 1"
       inkscape:vp_z="1 : 0.5 : 1"
       inkscape:vp_y="0 : 1000 : 0"
       inkscape:vp_x="0 : 0.5 : 1"
       sodipodi:type="inkscape:persp3d" />
    <inkscape:perspective
       id="perspective2850"
       inkscape:persp3d-origin="0.5 : 0.33333333 : 1"
       inkscape:vp_z="1 : 0.5 : 1"
       inkscape:vp_y="0 : 1000 : 0"
       inkscape:vp_x="0 : 0.5 : 1"
       sodipodi:type="inkscape:persp3d" />
  </defs>
  <sodipodi:namedview
     id="base"
     pagecolor="#ffffff"
     bordercolor="#666666"
     borderopacity="1.0"
     inkscape:pageopacity="0.0"
     inkscape:pageshadow="2"
     inkscape:zoom="11"
     inkscape:cx="32"
     inkscape:cy="32"
     inkscape:current-layer="layer1"
     showgrid="true"
     inkscape:document-units="px"
     inkscape:grid-bbox="true"
     inkscape:window-width="1365"
     inkscape:window-height="878"
     inkscape:window-x="-8"
     inkscape:window-y="-8"
     inkscape:window-maximized="1" />
  <metadata
     id="metadata2821">
    <rdf:RDF>
      <cc:Work
         rdf:about="">
        <dc:format>image/svg+xml</dc:format>
        <dc:type
           rdf:resource="http://purl.org/dc/dcmitype/StillImage" />
        <dc:title />
      </cc:Work>
    </rdf:RDF>
  </metadata>
  <g
     id="layer1"
     inkscape:label="Layer 1"
     inkscape:groupmode="layer">
    <path
       style="fill:#000000"
       d="m 12.590909,51.591616 c 0,-0.846452 0.986662,-3.160683 2.192583,-5.142736 2.516493,-4.136108 9.902479,-9.678549 13.888792,-10.422143 4.814653,-0.89811 8.237417,-3.698298 8.1793,-6.691548 -0.01954,-1.006543 -0.272667,-0.796812 -0.973807,0.806862 -1.275846,2.918164 -4.297386,4.605028 -9.152402,5.109598 -4.327845,0.449783 -8.945406,2.411214 -9.972475,4.236073 -0.550811,0.978659 -0.90245,1.013397 -2.712376,0.267955 -3.253331,-1.339929 -3.981727,-2.579739 -2.231678,-3.798567 0.801187,-0.557989 1.456704,-1.450208 1.456704,-1.982708 0,-1.167367 -2.113523,-1.28158 -3.227034,-0.174387 C 8.8811647,34.9508 8.3885627,34.127857 8.0331327,30.449813 L 7.718418,27.193096 12.009927,24.142794 c 2.360329,-1.677667 6.120724,-4.676071 8.356432,-6.66312 2.257172,-2.006125 5.364323,-4.039224 6.986762,-4.571638 1.60701,-0.527353 3.016014,-1.277252 3.13112,-1.666444 0.115106,-0.389191 0.392218,-1.5377528 0.615805,-2.552358 0.561707,-2.5489402 2.077279,-2.3281771 5.177167,0.7541224 2.429769,2.4159836 2.562651,2.7444346 1.888391,4.6676426 -0.633538,1.807058 -0.440803,2.642945 1.52345,6.607161 1.952497,3.940492 2.277709,5.336059 2.468598,10.593361 0.15724,4.330582 -0.17899,7.860934 -1.180622,12.396305 -0.770261,3.487727 -1.400474,7.034652 -1.400474,7.882057 l 0,1.540738 -13.492824,0 -13.492823,0 0,-1.539005 z M 13.57406,28.356878 c 0.498925,-0.802697 -0.770187,-1.59803 -1.668797,-1.04581 -0.754491,0.463656 -0.259175,1.670271 0.685646,1.670271 0.327255,0 0.769673,-0.281008 0.983151,-0.624461 z m 14.917533,-6.829485 c 0.508575,-0.818223 -1.006605,-2.048559 -1.869668,-1.518183 -0.296006,0.181904 -0.538193,0.765717 -0.538193,1.297364 0,1.138317 1.738484,1.297749 2.407861,0.220819 z m -3.209276,-2.193295 c 1.493685,-1.338614 1.643875,-1.349928 3.541866,-0.266812 1.090121,0.622094 1.982037,0.853874 1.982037,0.515067 0,-0.819508 -2.292381,-2.004842 -3.877275,-2.004842 -0.697078,0 -2.159083,0.952286 -3.248898,2.11619 -2.096873,2.239425 -1.030881,2.00018 1.60227,-0.359603 z m 15.643521,30.941137 c 0,-1.570462 0.30084,-3.898401 0.668534,-5.173199 2.754678,-9.550505 2.179519,-19.545447 -1.452435,-25.239949 -1.508343,-2.364915 -1.883864,-3.580166 -1.559731,-5.047558 0.234804,-1.062991 0.637212,-1.932711 0.89424,-1.932711 1.134024,0 5.644504,4.372037 7.144515,6.925222 2.520409,4.290019 4.292558,11.941243 5.069189,21.886142 0.387524,4.962303 0.704588,9.56576 0.704588,10.229904 0,1.068129 -0.662023,1.207535 -5.73445,1.207535 l -5.73445,0 0,-2.855386 z"
       id="path2856" />
    <path
       style="fill:#ffffff"
       d="m 22.727273,21.008027 c 0,-0.35693 2.28019,-2.536686 3.077516,-2.941961 0.971872,-0.493996 2.094417,-0.444412 3.314918,0.146422 1.232671,0.596726 2.052417,1.484613 1.370675,1.484613 -0.130289,0 -0.913648,-0.327272 -1.740797,-0.727272 -0.82715,-0.4 -1.659005,-0.727273 -1.848568,-0.727273 -0.189563,0 -0.981204,0.517265 -1.759202,1.149477 -1.716254,1.394652 -2.414542,1.861999 -2.414542,1.615994 z"
       id="path2858" />
    <path
       style="fill:#ffffff"
       d="m 26.590909,21.965823 c -0.836373,-0.591548 -0.212641,-2.271939 0.736573,-1.984397 0.553237,0.167589 1.217973,0.808182 1.217973,1.173735 0,0.744503 -1.291016,1.279961 -1.954546,0.810662 z"
       id="path2860" />
    <path
       style="fill:#ffffff"
       d="m 12.040456,28.686792 c -0.932909,-0.653435 -0.169651,-1.782646 0.923902,-1.366878 0.738403,0.28074 0.823729,0.719998 0.237768,1.224021 -0.585931,0.503997 -0.637089,0.510288 -1.16167,0.142857 z"
       id="path2862" />
    <path
       style="fill:none;stroke:#000000;stroke-width:1px;stroke-linecap:butt;stroke-linejoin:miter;stroke-opacity:1"
       d="m 37.772727,11.772727 2.045455,1.772727"
       id="path3119"
       inkscape:connector-curvature="0" />
    <path
       style="fill:none;stroke:#000000;stroke-width:1px;stroke-linecap:butt;stroke-linejoin:miter;stroke-opacity:1"
       d="m 38.762308,52.622009 3.021275,0"
       id="path3121"
       inkscape:connector-curvature="0" />
    <path
       style="fill:#ffffff"
       d="m 39.636364,51.566656 c 0,-0.792004 0.303966,-2.589744 1.136436,-6.721201 1.208488,-5.997596 1.319646,-6.864664 1.383707,-10.793316 0.06765,-4.148635 -0.136495,-6.925444 -0.655882,-8.921511 -0.282307,-1.084936 -0.813903,-2.386933 -1.953753,-4.785173 -1.493953,-3.143271 -1.690819,-3.740506 -1.613587,-4.895139 0.02616,-0.391158 0.162719,-1.064672 0.311907,-1.538384 l 0.265367,-0.842613 0.216857,0.230833 c 0.194082,0.206591 0.205811,0.261669 0.111681,0.524432 -0.19962,0.557233 -0.381868,1.476822 -0.383208,1.933589 -0.0029,0.99662 0.343395,1.874214 1.559118,3.950918 0.963631,1.646078 1.422961,2.642422 1.932896,4.192693 0.81142,2.466827 1.223759,5.13374 1.298472,8.398216 0.09344,4.082755 -0.280179,7.171409 -1.429586,11.818182 -0.657893,2.659698 -0.907698,4.449505 -0.907698,6.503477 l 0,1.451068 -0.636364,0 -0.636363,0 0,-0.506071 z"
       id="path3123"
       inkscape:connector-curvature="0" />
    <path
       style="fill:#ffffff"
       d="m 26.867426,22.187974 c -0.626887,-0.15833 -0.864185,-0.676242 -0.648997,-1.416462 0.163767,-0.563339 0.365589,-0.778535 0.793023,-0.845572 0.621484,-0.09747 1.534003,0.63949 1.534003,1.23888 0,0.606885 -0.974233,1.200909 -1.678029,1.023154 z"
       id="path3125"
       inkscape:connector-curvature="0" />
    <path
       style="fill:#ffffff"
       d="m 22.636364,21.080891 c 0,-0.132618 0.717272,-1.009882 1.275341,-1.559815 1.147457,-1.130728 2.421804,-1.903969 3.13375,-1.901479 1.37107,0.0048 3.681818,1.188278 3.681818,1.885694 0,0.211935 -0.02329,0.223811 -0.338512,0.172657 -0.186182,-0.03021 -0.932772,-0.338883 -1.659091,-0.685932 -0.726318,-0.347049 -1.432735,-0.655648 -1.569814,-0.685774 -0.450864,-0.09909 -0.906223,0.171521 -2.29622,1.364599 -0.3,0.257499 -0.866799,0.698719 -1.259554,0.980488 -0.677347,0.485941 -0.967718,0.614834 -0.967718,0.429562 z"
       id="path3127"
       inkscape:connector-curvature="0" />
    <path
       style="fill:#ffffff"
       d="m 12.181818,28.822586 c -0.176794,-0.08832 -0.396182,-0.304628 -0.493716,-0.486788 -0.154733,-0.288989 -0.161295,-0.362213 -0.05538,-0.617923 0.269612,-0.6509 1.280483,-0.750716 1.813091,-0.179029 0.374904,0.402412 0.125579,1.054731 -0.503614,1.317625 -0.376885,0.157472 -0.377372,0.157451 -0.760384,-0.03388 z"
       id="path3129"
       inkscape:connector-curvature="0" />
  </g>
</svg>
