<?xml version="1.0" encoding="UTF-8" standalone="no"?>
<!-- Created with Inkscape (http://www.inkscape.org/) -->

<svg
   xmlns:dc="http://purl.org/dc/elements/1.1/"
   xmlns:cc="http://creativecommons.org/ns#"
   xmlns:rdf="http://www.w3.org/1999/02/22-rdf-syntax-ns#"
   xmlns:svg="http://www.w3.org/2000/svg"
   xmlns="http://www.w3.org/2000/svg"
   xmlns:sodipodi="http://sodipodi.sourceforge.net/DTD/sodipodi-0.dtd"
   xmlns:inkscape="http://www.inkscape.org/namespaces/inkscape"
   width="64px"
   height="64px"
   id="svg2996"
   version="1.1"
   inkscape:version="0.48.1 "
   sodipodi:docname="bp.svg">
  <defs
     id="defs2998" />
  <sodipodi:namedview
     id="base"
     pagecolor="#ffffff"
     bordercolor="#666666"
     borderopacity="1.0"
     inkscape:pageopacity="0.0"
     inkscape:pageshadow="2"
     inkscape:zoom="16"
     inkscape:cx="28.486698"
     inkscape:cy="28.278979"
     inkscape:current-layer="layer1"
     showgrid="true"
     inkscape:document-units="px"
     inkscape:grid-bbox="true"
     inkscape:window-width="1365"
     inkscape:window-height="878"
     inkscape:window-x="-8"
     inkscape:window-y="-8"
     inkscape:window-maximized="1" />
  <metadata
     id="metadata3001">
    <rdf:RDF>
      <cc:Work
         rdf:about="">
        <dc:format>image/svg+xml</dc:format>
        <dc:type
           rdf:resource="http://purl.org/dc/dcmitype/StillImage" />
        <dc:title />
      </cc:Work>
    </rdf:RDF>
  </metadata>
  <g
     id="layer1"
     inkscape:label="Layer 1"
     inkscape:groupmode="layer">
    <path
       style="fill:#000000"
       d="m 12.547984,54.848681 c -0.71632,-1.866705 0.309752,-4.924034 2.255478,-6.720527 l 1.935987,-1.7875 15.416154,0 15.416154,0 2.014946,1.846561 c 1.776142,1.627712 2.019625,2.16548 2.054423,4.537498 l 0.03948,2.690941 -19.402055,0.144551 C 15.139713,55.687899 12.838174,55.60492 12.547985,54.848681 z m 8.178654,-11.395527 c 0.689681,-0.983125 2.18209,-2.935598 3.316465,-4.338829 1.781543,-2.203782 2.0625,-2.934272 2.0625,-5.3625 l 0,-2.811171 6.05,0 6.05,0 0,2.811171 c 0,2.428228 0.280958,3.158718 2.0625,5.3625 1.134375,1.403231 2.626785,3.355704 3.316466,4.338829 l 1.253966,1.7875 -12.682932,0 -12.682931,0 1.253966,-1.7875 z M 21.836801,30.024299 C 21.45521,29.870567 20.889627,29.271357 20.57995,28.69272 c -0.793988,-1.48358 0.237736,-3.167004 2.527259,-4.123628 2.580429,-1.078172 15.51636,-1.078172 18.09679,0 3.06379,1.280134 3.771071,4.003462 1.373055,5.286841 -1.006689,0.538764 -19.449241,0.688478 -20.740253,0.168366 z M 26.2569,22.571484 c -1.261542,-1.579297 -2.351297,-4.325551 -2.351297,-5.925427 0,-4.190411 4.062331,-8.2554026 8.25,-8.2554026 2.729167,0 5.89782,1.9455256 7.142598,4.3854916 1.436444,2.815661 1.388943,5.259851 -0.155269,7.989509 l -1.244577,2.199999 -5.538819,0.15583 c -4.005118,0.11268 -5.69494,-0.03962 -6.102636,-0.55 z"
       id="path3102"
       inkscape:connector-curvature="0" />
    <path
       style="fill:none;stroke:#000000;stroke-width:0.2;stroke-linecap:butt;stroke-linejoin:miter;stroke-miterlimit:4;stroke-opacity:1;stroke-dasharray:none"
       d="m 38.010714,22.562154 -0.995149,1.796855"
       id="path3104"
       inkscape:connector-curvature="0" />
    <path
       style="fill:none;stroke:#000000;stroke-width:0.2;stroke-linecap:butt;stroke-linejoin:miter;stroke-miterlimit:4;stroke-opacity:1;stroke-dasharray:none"
       d="M 25.930736,21.911291 27.3079,24.023367"
       id="path3106"
       inkscape:connector-curvature="0" />
    <path
       style="fill:none;stroke:#000000;stroke-width:0.2;stroke-linecap:butt;stroke-linejoin:miter;stroke-miterlimit:4;stroke-opacity:1;stroke-dasharray:none"
       d="m 38.104595,31.14058 0.0061,-1.636984"
       id="path3108"
       inkscape:connector-curvature="0" />
    <path
       style="fill:none;stroke:#000000;stroke-width:0.2;stroke-linecap:butt;stroke-linejoin:miter;stroke-miterlimit:4;stroke-opacity:1;stroke-dasharray:none"
       d="m 26.205124,31.50598 -0.0019,-1.72787"
       id="path3110"
       inkscape:connector-curvature="0" />
    <path
       style="fill:none;stroke:#000000;stroke-width:0.20264819;stroke-linecap:butt;stroke-linejoin:miter;stroke-miterlimit:4;stroke-opacity:1;stroke-dasharray:none"
       d="m 44.397347,44.80231 1.64849,2.298789"
       id="path3112"
       inkscape:connector-curvature="0" />
    <path
       style="fill:none;stroke:#000000;stroke-width:0.2;stroke-linecap:butt;stroke-linejoin:miter;stroke-miterlimit:4;stroke-opacity:1;stroke-dasharray:none"
       d="m 20.009422,44.687685 -1.916571,2.55645"
       id="path3114"
       inkscape:connector-curvature="0" />
    <path
       style="fill:#ffffff;stroke-width:0.2;stroke-miterlimit:4;stroke-dasharray:none"
       d="m 19.099707,46.130396 c 0.08406,-0.111719 0.262156,-0.350782 0.395759,-0.53125 l 0.242914,-0.328125 12.413214,0 12.413215,0 0.354694,0.495413 c 0.195082,0.272477 0.354695,0.51154 0.354695,0.53125 0,0.01971 -5.923651,0.03584 -13.163668,0.03584 l -13.163668,0 0.152845,-0.203125 z"
       id="path5439"
       inkscape:connector-curvature="0" />
    <path
       style="fill:#ffffff;stroke-width:0.2;stroke-miterlimit:4;stroke-dasharray:none"
       d="m 26.336698,30.630267 0,-0.265753 3.890625,-0.0015 c 2.139844,-8.34e-4 4.755469,-0.02428 5.8125,-0.05211 l 1.921875,-0.0506 0,0.317863 0,0.317864 -5.8125,0 -5.8125,0 0,-0.265754 z"
       id="path5441"
       inkscape:connector-curvature="0" />
    <path
       style="fill:#ffffff;stroke-width:0.2;stroke-miterlimit:4;stroke-dasharray:none"
       d="m 27.093528,23.437393 c -0.175631,-0.260275 -0.31933,-0.483794 -0.31933,-0.496708 0,-0.01291 0.175781,0.01363 0.390625,0.05899 0.955038,0.201638 3.314626,0.214092 8.946186,0.04722 l 1.493061,-0.04424 -0.243061,0.452501 -0.243061,0.452501 -0.5,-0.04068 c -1.749695,-0.142357 -7.565465,-0.141855 -8.826034,7.63e-4 l -0.379055,0.04288 -0.319331,-0.473228 z"
       id="path5443"
       inkscape:connector-curvature="0" />
  </g>
</svg>
