<?xml version="1.0" encoding="UTF-8" standalone="no"?>
<!-- Created with Inkscape (http://www.inkscape.org/) -->

<svg
   xmlns:dc="http://purl.org/dc/elements/1.1/"
   xmlns:cc="http://creativecommons.org/ns#"
   xmlns:rdf="http://www.w3.org/1999/02/22-rdf-syntax-ns#"
   xmlns:svg="http://www.w3.org/2000/svg"
   xmlns="http://www.w3.org/2000/svg"
   xmlns:sodipodi="http://sodipodi.sourceforge.net/DTD/sodipodi-0.dtd"
   xmlns:inkscape="http://www.inkscape.org/namespaces/inkscape"
   width="64px"
   height="64px"
   id="svg2816"
   version="1.1"
   inkscape:version="0.48.1 "
   sodipodi:docname="bp.svg">
  <defs
     id="defs2818">
    <inkscape:perspective
       sodipodi:type="inkscape:persp3d"
       inkscape:vp_x="0 : 32 : 1"
       inkscape:vp_y="0 : 1000 : 0"
       inkscape:vp_z="64 : 32 : 1"
       inkscape:persp3d-origin="32 : 21.333333 : 1"
       id="perspective2824" />
    <inkscape:perspective
       id="perspective2834"
       inkscape:persp3d-origin="0.5 : 0.33333333 : 1"
       inkscape:vp_z="1 : 0.5 : 1"
       inkscape:vp_y="0 : 1000 : 0"
       inkscape:vp_x="0 : 0.5 : 1"
       sodipodi:type="inkscape:persp3d" />
    <inkscape:perspective
       id="perspective2850"
       inkscape:persp3d-origin="0.5 : 0.33333333 : 1"
       inkscape:vp_z="1 : 0.5 : 1"
       inkscape:vp_y="0 : 1000 : 0"
       inkscape:vp_x="0 : 0.5 : 1"
       sodipodi:type="inkscape:persp3d" />
    <inkscape:perspective
       id="perspective2872"
       inkscape:persp3d-origin="0.5 : 0.33333333 : 1"
       inkscape:vp_z="1 : 0.5 : 1"
       inkscape:vp_y="0 : 1000 : 0"
       inkscape:vp_x="0 : 0.5 : 1"
       sodipodi:type="inkscape:persp3d" />
    <inkscape:perspective
       id="perspective2892"
       inkscape:persp3d-origin="0.5 : 0.33333333 : 1"
       inkscape:vp_z="1 : 0.5 : 1"
       inkscape:vp_y="0 : 1000 : 0"
       inkscape:vp_x="0 : 0.5 : 1"
       sodipodi:type="inkscape:persp3d" />
    <inkscape:perspective
       id="perspective2914"
       inkscape:persp3d-origin="0.5 : 0.33333333 : 1"
       inkscape:vp_z="1 : 0.5 : 1"
       inkscape:vp_y="0 : 1000 : 0"
       inkscape:vp_x="0 : 0.5 : 1"
       sodipodi:type="inkscape:persp3d" />
    <inkscape:perspective
       id="perspective2936"
       inkscape:persp3d-origin="0.5 : 0.33333333 : 1"
       inkscape:vp_z="1 : 0.5 : 1"
       inkscape:vp_y="0 : 1000 : 0"
       inkscape:vp_x="0 : 0.5 : 1"
       sodipodi:type="inkscape:persp3d" />
  </defs>
  <sodipodi:namedview
     id="base"
     pagecolor="#ffffff"
     bordercolor="#666666"
     borderopacity="1.0"
     inkscape:pageopacity="0.0"
     inkscape:pageshadow="2"
     inkscape:zoom="15.556349"
     inkscape:cx="32"
     inkscape:cy="29.816608"
     inkscape:current-layer="layer1"
     showgrid="true"
     inkscape:document-units="px"
     inkscape:grid-bbox="true"
     inkscape:window-width="1365"
     inkscape:window-height="878"
     inkscape:window-x="-8"
     inkscape:window-y="-8"
     inkscape:window-maximized="1" />
  <metadata
     id="metadata2821">
    <rdf:RDF>
      <cc:Work
         rdf:about="">
        <dc:format>image/svg+xml</dc:format>
        <dc:type
           rdf:resource="http://purl.org/dc/dcmitype/StillImage" />
        <dc:title />
      </cc:Work>
    </rdf:RDF>
  </metadata>
  <g
     id="layer1"
     inkscape:label="Layer 1"
     inkscape:groupmode="layer">
    <path
       style="fill:#000000"
       d="m 15.428032,51.804657 c 0,-1.986788 1.092329,-4.275379 2.594073,-5.43497 0.739862,-0.571294 4.807145,-0.818419 13.715382,-0.833334 12.536892,-0.02099 12.681174,-0.0049 14.417614,1.613632 1.261679,1.175967 1.753992,2.298692 1.753992,4 l 0,2.365166 -16.24053,0 -16.240531,0 0,-1.710494 z m 7.324451,-9.195671 c 0.722605,-1.231725 1.905727,-2.778221 2.629158,-3.436659 0.877407,-0.798579 1.315331,-2.050594 1.315331,-3.760501 l 0,-2.563341 4.971591,0 4.971591,0 0,2.585036 c 0,1.512741 0.422842,2.93797 1.019366,3.43587 0.56065,0.467958 1.928045,2.004691 3.038655,3.414963 l 2.019291,2.564131 -10.639406,0 -10.639407,0 1.31383,-2.239499 z M 22.49874,31.737373 c -0.909925,-0.915123 -0.392215,-2.848296 1.031332,-3.851086 1.10014,-0.774971 3.189269,-1.037802 8.249021,-1.037802 6.185048,0 6.936036,0.138644 8.614107,1.590308 1.583395,1.369762 1.715159,1.73958 0.950117,2.666667 -0.735514,0.891304 -2.393816,1.076358 -9.64544,1.076358 -4.81647,0 -8.956082,-0.2 -9.199137,-0.444445 z m 3.818876,-6.942138 c -0.786403,-0.873931 -1.24771,-2.378047 -1.24771,-4.068224 0,-2.182706 0.399973,-3.041058 2.149749,-4.613417 5.845613,-5.252901 13.99821,1.099107 10.397794,8.101331 -0.969931,1.886359 -1.196428,1.966893 -5.531732,1.966893 -3.736406,0 -4.736785,-0.240479 -5.768101,-1.386583 z"
       id="path2942" />
    <path
       style="fill:none;stroke:#000000;stroke-width:1px;stroke-linecap:butt;stroke-linejoin:miter;stroke-opacity:1"
       d="m 22.370288,44.393857 -1.607061,2.12132"
       id="path3157"
       inkscape:connector-curvature="0" />
    <path
       style="fill:none;stroke:#000000;stroke-width:1px;stroke-linecap:butt;stroke-linejoin:miter;stroke-opacity:1"
       d="m 41.7193,44.393858 1.671343,1.992755"
       id="path3159"
       inkscape:connector-curvature="0" />
    <path
       style="fill:none;stroke:#000000;stroke-width:1px;stroke-linecap:butt;stroke-linejoin:miter;stroke-opacity:1"
       d="M 27.19147,33.401561 27.12719,31.730218"
       id="path3161"
       inkscape:connector-curvature="0" />
    <path
       style="fill:none;stroke:#000000;stroke-width:1px;stroke-linecap:butt;stroke-linejoin:miter;stroke-opacity:1"
       d="m 36.126728,33.401562 0,-2.057038"
       id="path3163"
       inkscape:connector-curvature="0" />
    <path
       style="fill:none;stroke:#000000;stroke-width:1px;stroke-linecap:butt;stroke-linejoin:miter;stroke-opacity:1"
       d="m 26.612928,24.273455 1.221366,3.14984"
       id="path3165"
       inkscape:connector-curvature="0" />
    <path
       style="fill:none;stroke:#000000;stroke-width:1px;stroke-linecap:butt;stroke-linejoin:miter;stroke-opacity:1"
       d="m 36.576705,24.65915 -0.964236,2.764145"
       id="path3167"
       inkscape:connector-curvature="0" />
    <path
       style="fill:#ffffff"
       d="m 22.100505,45.649471 c 0,-0.02553 0.131863,-0.217793 0.293028,-0.42724 l 0.293028,-0.380812 9.370412,0 9.370411,0 0.297472,0.367134 c 0.163609,0.201923 0.291529,0.368795 0.284267,0.370826 -0.0073,0.002 -2.283981,-0.01131 -5.059376,-0.02965 -5.248103,-0.03468 -11.651766,0.01045 -13.676088,0.09637 -0.645234,0.02739 -1.173154,0.0289 -1.173154,0.0034 z"
       id="path3169"
       inkscape:connector-curvature="0" />
    <path
       style="fill:#ffffff"
       d="m 27.693077,32.499192 0,-0.321412 3.95337,0 3.953369,0 0,0.321412 0,0.321412 -3.953369,0 -3.95337,0 0,-0.321412 z"
       id="path3171"
       inkscape:connector-curvature="0" />
    <path
       style="fill:#ffffff"
       d="m 28.109301,26.687689 c -0.342044,-0.818627 -0.362973,-0.891862 -0.241536,-0.845198 0.308404,0.118508 1.072568,0.231794 2.017773,0.299131 1.042003,0.07423 5.002392,0.04228 5.439236,-0.04388 l 0.207075,-0.04084 -0.132624,0.392721 -0.132624,0.39272 -3.095726,4.57e-4 c -1.702649,2.51e-4 -3.290722,0.01887 -3.529051,0.04138 l -0.433325,0.04093 -0.0992,-0.237414 z"
       id="path3173"
       inkscape:connector-curvature="0" />
  </g>
</svg>
