<?xml version="1.0" encoding="UTF-8" standalone="no"?>
<!-- Created with Inkscape (http://www.inkscape.org/) -->

<svg
   xmlns:dc="http://purl.org/dc/elements/1.1/"
   xmlns:cc="http://creativecommons.org/ns#"
   xmlns:rdf="http://www.w3.org/1999/02/22-rdf-syntax-ns#"
   xmlns:svg="http://www.w3.org/2000/svg"
   xmlns="http://www.w3.org/2000/svg"
   xmlns:sodipodi="http://sodipodi.sourceforge.net/DTD/sodipodi-0.dtd"
   xmlns:inkscape="http://www.inkscape.org/namespaces/inkscape"
   width="64px"
   height="64px"
   id="svg2816"
   version="1.1"
   inkscape:version="0.48.1 "
   sodipodi:docname="bq.svg">
  <defs
     id="defs2818">
    <inkscape:perspective
       sodipodi:type="inkscape:persp3d"
       inkscape:vp_x="0 : 32 : 1"
       inkscape:vp_y="0 : 1000 : 0"
       inkscape:vp_z="64 : 32 : 1"
       inkscape:persp3d-origin="32 : 21.333333 : 1"
       id="perspective2824" />
    <inkscape:perspective
       id="perspective2834"
       inkscape:persp3d-origin="0.5 : 0.33333333 : 1"
       inkscape:vp_z="1 : 0.5 : 1"
       inkscape:vp_y="0 : 1000 : 0"
       inkscape:vp_x="0 : 0.5 : 1"
       sodipodi:type="inkscape:persp3d" />
    <inkscape:perspective
       id="perspective2850"
       inkscape:persp3d-origin="0.5 : 0.33333333 : 1"
       inkscape:vp_z="1 : 0.5 : 1"
       inkscape:vp_y="0 : 1000 : 0"
       inkscape:vp_x="0 : 0.5 : 1"
       sodipodi:type="inkscape:persp3d" />
    <inkscape:perspective
       id="perspective2872"
       inkscape:persp3d-origin="0.5 : 0.33333333 : 1"
       inkscape:vp_z="1 : 0.5 : 1"
       inkscape:vp_y="0 : 1000 : 0"
       inkscape:vp_x="0 : 0.5 : 1"
       sodipodi:type="inkscape:persp3d" />
    <inkscape:perspective
       id="perspective2892"
       inkscape:persp3d-origin="0.5 : 0.33333333 : 1"
       inkscape:vp_z="1 : 0.5 : 1"
       inkscape:vp_y="0 : 1000 : 0"
       inkscape:vp_x="0 : 0.5 : 1"
       sodipodi:type="inkscape:persp3d" />
  </defs>
  <sodipodi:namedview
     id="base"
     pagecolor="#ffffff"
     bordercolor="#666666"
     borderopacity="1.0"
     inkscape:pageopacity="0.0"
     inkscape:pageshadow="2"
     inkscape:zoom="7.7781746"
     inkscape:cx="32"
     inkscape:cy="42.884717"
     inkscape:current-layer="layer1"
     showgrid="true"
     inkscape:document-units="px"
     inkscape:grid-bbox="true"
     inkscape:window-width="1365"
     inkscape:window-height="878"
     inkscape:window-x="-8"
     inkscape:window-y="-8"
     inkscape:window-maximized="1" />
  <metadata
     id="metadata2821">
    <rdf:RDF>
      <cc:Work
         rdf:about="">
        <dc:format>image/svg+xml</dc:format>
        <dc:type
           rdf:resource="http://purl.org/dc/dcmitype/StillImage" />
        <dc:title />
      </cc:Work>
    </rdf:RDF>
  </metadata>
  <g
     id="layer1"
     inkscape:label="Layer 1"
     inkscape:groupmode="layer">
    <path
       style="fill:#000000"
       d="m 15.881659,52.963308 c -0.249495,-0.254643 -0.453628,-3.152293 -0.453628,-6.439224 l 0,-5.976235 16.265406,0 16.265406,0 -0.190595,6.258134 -0.190595,6.258134 -15.621183,0.181089 c -8.59165,0.0996 -15.825315,-0.02726 -16.074811,-0.281898 z m 5.005207,-6.883454 c -3.172363,-2.469403 -3.470198,-2.394075 -3.470198,0.877683 l 0,3.074521 2.31016,-1.528468 c 2.117593,-1.40106 2.21429,-1.603095 1.160038,-2.423736 z m 14.98337,1.350496 c 0.670087,-0.460013 0.294345,-0.983131 -1.534985,-2.137045 -2.395555,-1.51108 -2.447369,-1.51413 -4.698834,-0.276621 -1.252112,0.688219 -2.276567,1.456626 -2.276567,1.707573 0,0.250946 0.953083,1.072164 2.117962,1.824931 2.184909,1.411927 2.884232,1.289528 6.392424,-1.118838 z m 10.512927,-3.252991 c -0.363683,-0.371186 -4.430234,1.977721 -4.435789,2.562185 -0.0023,0.242538 0.965269,1.069823 2.150165,1.838412 l 2.154356,1.397435 0.207206,-2.754525 c 0.113962,-1.514988 0.07979,-2.884566 -0.07594,-3.043507 z M 14.194448,37.007795 C 13.536411,35.419825 12.449502,32.544048 11.779095,30.617182 11.04047,28.494243 10.085787,26.987174 9.3562506,26.79246 7.4428735,26.281777 6.564024,23.104008 7.8025953,21.174709 c 1.8692459,-2.911688 6.2996787,-1.807439 6.2996787,1.570143 0,1.056008 0.845208,2.11735 2.66499,3.34647 1.465744,0.989996 2.749134,1.679328 2.851976,1.531849 0.102843,-0.147481 0.712209,-2.9346 1.354147,-6.1936 1.058434,-5.373471 1.070635,-6.023971 0.130978,-6.983014 -2.207238,-2.252777 -0.40974,-6.37335 2.780218,-6.37335 2.29598,0 3.663423,1.937263 3.241327,4.592002 -0.286292,1.800607 0.149967,3.380598 1.928958,6.986087 1.264407,2.562578 2.416945,4.659232 2.561195,4.659232 0.144251,0 1.349006,-2.017856 2.677233,-4.484124 1.86014,-3.453928 2.317531,-4.936864 1.990882,-6.454768 -0.555263,-2.580257 1.141206,-5.298429 3.306862,-5.298429 3.215571,0 4.727893,3.581363 2.737223,6.482078 -0.812838,1.184431 -0.810601,2.009406 0.01646,6.070394 1.562821,7.673706 1.268969,7.293026 4.276592,5.54027 1.520976,-0.886381 2.60545,-2.02788 2.608433,-2.745592 0.01573,-3.785166 4.200808,-5.349721 6.264866,-2.342067 1.443751,2.10377 1.300269,3.028295 -0.791011,5.096859 -1.002604,0.991714 -2.86819,4.402935 -4.145747,7.580492 l -2.322832,5.777375 -16.422072,0.180999 -16.422072,0.180999 -1.196432,-2.887219 z"
       id="path2898" />
    <path
       style="fill:#ffffff"
       d="m 17.476057,47.753286 c 0.03736,-3.728709 0.211374,-3.9065 2.331432,-2.382027 1.588674,1.142371 1.821368,1.442187 1.458583,1.879316 -0.209171,0.252036 -2.64147,1.959178 -3.584254,2.515657 -0.17703,0.104493 -0.222517,-0.340503 -0.205761,-2.012946 z"
       id="path2900" />
    <path
       style="fill:#ffffff"
       d="m 30.272727,48.945996 c -0.883266,-0.476321 -2.818182,-1.943493 -2.818182,-2.136919 0,-0.560056 3.413922,-2.566521 4.366835,-2.566521 0.717175,0 3.187106,1.40349 3.996802,2.271104 l 0.454545,0.487059 -0.447071,0.362635 c -0.245889,0.19945 -1.011312,0.697845 -1.700941,1.107546 -1.567204,0.931059 -2.738568,1.075532 -3.851988,0.475096 z"
       id="path2902" />
    <path
       style="fill:#ffffff"
       d="m 44.363636,48.670737 c -0.95,-0.644973 -1.879016,-1.352076 -2.06448,-1.57134 -0.333937,-0.394797 -0.33049,-0.40447 0.355554,-0.997508 0.717054,-0.619844 3.024015,-1.859333 3.460628,-1.859333 0.136564,0 0.257728,0.184091 0.269253,0.409091 0.0517,1.00921 -0.06518,4.125469 -0.173714,4.631955 l -0.119968,0.559812 -1.727273,-1.172677 z"
       id="path2904" />
    <path
       style="fill:none;stroke:#000000;stroke-width:1px;stroke-linecap:butt;stroke-linejoin:miter;stroke-opacity:1"
       d="m 15.955765,40.986888 -0.09173,-1.542778 0,0"
       id="path3203"
       inkscape:connector-curvature="0" />
    <path
       style="fill:none;stroke:#000000;stroke-width:1px;stroke-linecap:butt;stroke-linejoin:miter;stroke-opacity:1"
       d="m 47.452262,41.372583 0.490607,-2.378451"
       id="path3205"
       inkscape:connector-curvature="0" />
    <path
       style="fill:#ffffff"
       d="m 16.466782,40.214118 0.04115,-0.289795 12.727922,-0.147395 c 7.000357,-0.08107 13.92109,-0.153384 15.379406,-0.160706 l 2.651483,-0.01331 -0.08545,0.417836 -0.08545,0.417836 -15.335104,0.03267 -15.335104,0.03266 0.04115,-0.289794 z"
       id="path3207"
       inkscape:connector-curvature="0" />
    <path
       style="fill:#ffffff"
       d="m 30.392939,49.006062 c -0.75272,-0.35868 -2.54892,-1.659347 -2.851363,-2.064733 -0.121783,-0.163236 -0.09656,-0.263375 0.128565,-0.510521 0.377868,-0.414819 1.824098,-1.348453 2.814798,-1.817133 1.19175,-0.563791 1.726305,-0.525074 2.996245,0.217015 1.268454,0.741221 2.290948,1.487568 2.56556,1.872674 0.199965,0.280425 0.190667,0.307351 -0.234036,0.677722 -0.573438,0.500077 -2.369071,1.581265 -2.999607,1.806124 -0.80018,0.285358 -1.560607,0.22844 -2.420162,-0.181148 z"
       id="path3209"
       inkscape:connector-curvature="0" />
    <path
       style="fill:#ffffff"
       d="m 44.635586,48.885774 c -1.88013,-1.291116 -2.631563,-1.92775 -2.581599,-2.187197 0.02202,-0.114364 0.328936,-0.427837 0.682024,-0.696607 0.774851,-0.589816 3.027872,-1.770723 3.378313,-1.770723 0.361669,0 0.41418,0.535637 0.279467,2.850681 -0.06307,1.083776 -0.11656,2.158527 -0.118877,2.388337 -0.0023,0.22981 -0.0476,0.415159 -0.100637,0.411887 -0.05303,-0.0033 -0.745444,-0.451642 -1.538691,-0.996378 z"
       id="path3211"
       inkscape:connector-curvature="0" />
    <path
       style="fill:#ffffff"
       d="m 17.472887,47.67488 c 7.17e-4,-2.223013 0.117255,-3.105594 0.425699,-3.223955 0.307271,-0.117911 1.063152,0.245071 2.022964,0.971447 2.090838,1.582327 2.106812,1.469959 -0.456625,3.212208 -0.777817,0.528647 -1.544385,1.028989 -1.703484,1.111872 l -0.289271,0.150696 7.17e-4,-2.222268 z"
       id="path3213"
       inkscape:connector-curvature="0" />
  </g>
</svg>
