<?xml version="1.0" encoding="UTF-8" standalone="no"?>
<!-- Created with Inkscape (http://www.inkscape.org/) -->

<svg
   xmlns:dc="http://purl.org/dc/elements/1.1/"
   xmlns:cc="http://creativecommons.org/ns#"
   xmlns:rdf="http://www.w3.org/1999/02/22-rdf-syntax-ns#"
   xmlns:svg="http://www.w3.org/2000/svg"
   xmlns="http://www.w3.org/2000/svg"
   xmlns:sodipodi="http://sodipodi.sourceforge.net/DTD/sodipodi-0.dtd"
   xmlns:inkscape="http://www.inkscape.org/namespaces/inkscape"
   width="64px"
   height="64px"
   id="svg2816"
   version="1.1"
   inkscape:version="0.47 r22583"
   sodipodi:docname="wn.svg">
  <defs
     id="defs2818">
    <inkscape:perspective
       sodipodi:type="inkscape:persp3d"
       inkscape:vp_x="0 : 32 : 1"
       inkscape:vp_y="0 : 1000 : 0"
       inkscape:vp_z="64 : 32 : 1"
       inkscape:persp3d-origin="32 : 21.333333 : 1"
       id="perspective2824" />
    <inkscape:perspective
       id="perspective2834"
       inkscape:persp3d-origin="0.5 : 0.33333333 : 1"
       inkscape:vp_z="1 : 0.5 : 1"
       inkscape:vp_y="0 : 1000 : 0"
       inkscape:vp_x="0 : 0.5 : 1"
       sodipodi:type="inkscape:persp3d" />
    <inkscape:perspective
       id="perspective2850"
       inkscape:persp3d-origin="0.5 : 0.33333333 : 1"
       inkscape:vp_z="1 : 0.5 : 1"
       inkscape:vp_y="0 : 1000 : 0"
       inkscape:vp_x="0 : 0.5 : 1"
       sodipodi:type="inkscape:persp3d" />
    <inkscape:perspective
       id="perspective2872"
       inkscape:persp3d-origin="0.5 : 0.33333333 : 1"
       inkscape:vp_z="1 : 0.5 : 1"
       inkscape:vp_y="0 : 1000 : 0"
       inkscape:vp_x="0 : 0.5 : 1"
       sodipodi:type="inkscape:persp3d" />
    <inkscape:perspective
       id="perspective2892"
       inkscape:persp3d-origin="0.5 : 0.33333333 : 1"
       inkscape:vp_z="1 : 0.5 : 1"
       inkscape:vp_y="0 : 1000 : 0"
       inkscape:vp_x="0 : 0.5 : 1"
       sodipodi:type="inkscape:persp3d" />
    <inkscape:perspective
       id="perspective2914"
       inkscape:persp3d-origin="0.5 : 0.33333333 : 1"
       inkscape:vp_z="1 : 0.5 : 1"
       inkscape:vp_y="0 : 1000 : 0"
       inkscape:vp_x="0 : 0.5 : 1"
       sodipodi:type="inkscape:persp3d" />
    <inkscape:perspective
       id="perspective2936"
       inkscape:persp3d-origin="0.5 : 0.33333333 : 1"
       inkscape:vp_z="1 : 0.5 : 1"
       inkscape:vp_y="0 : 1000 : 0"
       inkscape:vp_x="0 : 0.5 : 1"
       sodipodi:type="inkscape:persp3d" />
    <inkscape:perspective
       id="perspective2952"
       inkscape:persp3d-origin="0.5 : 0.33333333 : 1"
       inkscape:vp_z="1 : 0.5 : 1"
       inkscape:vp_y="0 : 1000 : 0"
       inkscape:vp_x="0 : 0.5 : 1"
       sodipodi:type="inkscape:persp3d" />
    <inkscape:perspective
       id="perspective2974"
       inkscape:persp3d-origin="0.5 : 0.33333333 : 1"
       inkscape:vp_z="1 : 0.5 : 1"
       inkscape:vp_y="0 : 1000 : 0"
       inkscape:vp_x="0 : 0.5 : 1"
       sodipodi:type="inkscape:persp3d" />
    <inkscape:perspective
       id="perspective2996"
       inkscape:persp3d-origin="0.5 : 0.33333333 : 1"
       inkscape:vp_z="1 : 0.5 : 1"
       inkscape:vp_y="0 : 1000 : 0"
       inkscape:vp_x="0 : 0.5 : 1"
       sodipodi:type="inkscape:persp3d" />
  </defs>
  <sodipodi:namedview
     id="base"
     pagecolor="#ffffff"
     bordercolor="#666666"
     borderopacity="1.0"
     inkscape:pageopacity="0.0"
     inkscape:pageshadow="2"
     inkscape:zoom="5.5"
     inkscape:cx="32"
     inkscape:cy="42.884717"
     inkscape:current-layer="layer1"
     showgrid="true"
     inkscape:document-units="px"
     inkscape:grid-bbox="true"
     inkscape:window-width="1365"
     inkscape:window-height="878"
     inkscape:window-x="-8"
     inkscape:window-y="-8"
     inkscape:window-maximized="1" />
  <metadata
     id="metadata2821">
    <rdf:RDF>
      <cc:Work
         rdf:about="">
        <dc:format>image/svg+xml</dc:format>
        <dc:type
           rdf:resource="http://purl.org/dc/dcmitype/StillImage" />
        <dc:title></dc:title>
      </cc:Work>
    </rdf:RDF>
  </metadata>
  <g
     id="layer1"
     inkscape:label="Layer 1"
     inkscape:groupmode="layer">
    <path
       style="fill:#000000"
       d="m 10.391281,52.022815 c 1.016877,-5.174498 4.641892,-7.415638 11.994697,-7.415638 2.924499,0 5.051522,-0.284874 5.051522,-0.676555 0,-0.372105 -0.987188,-0.676555 -2.19375,-0.676555 -2.828773,0 -3.789205,-1.036618 -3.789205,-4.089784 0,-1.591791 -0.462878,-2.892375 -1.305655,-3.668595 -0.718109,-0.661399 -1.809528,-2.545303 -2.425374,-4.186454 -1.704215,-4.541514 -0.560513,-7.506965 5.128092,-13.296395 3.403807,-3.464134 4.585892,-5.137429 4.585892,-6.491536 0,-2.5405947 1.145123,-3.4480979 4.350945,-3.4480979 3.423331,0 5.22908,1.7010935 4.583705,4.3180489 -0.240388,0.974757 -0.154212,1.770946 0.19168,1.770946 1.160713,0 7.464822,6.763269 8.815323,9.457387 0.735215,1.466684 1.336755,3.44973 1.336755,4.406769 0,2.370395 -1.511293,5.822607 -3.232114,7.383047 -0.960306,0.870804 -1.421295,2.088678 -1.421295,3.75488 0,3.063533 -0.960671,4.089784 -3.828437,4.089784 -1.319375,0 -2.064886,0.276807 -1.822131,0.676555 0.225969,0.372105 2.651661,0.676555 5.390427,0.676555 3.08973,0 5.699571,0.378923 6.876702,0.99843 2.176675,1.145552 4.684575,4.909589 4.684575,7.030948 0,1.39235 -0.277906,1.442392 -8.010285,1.442392 -8.170045,0 -10.58888,-0.581156 -12.579669,-3.022425 -0.803376,-0.985165 -1.007233,-0.966453 -2.278287,0.209124 -2.656319,2.456785 -4.228233,2.813301 -12.404106,2.813301 l -8.104072,0 0.404065,-2.056132 z m 18.406322,-1.834059 c 2.439624,-2.218628 3.657478,-7.611244 1.718904,-7.611244 -0.635033,0 -1.084689,0.551062 -1.084689,1.329306 0,1.994793 -2.03336,2.730024 -7.550178,2.730024 -4.386105,0 -5.221866,0.208413 -7.023817,1.751529 -3.628417,3.107225 -2.883653,3.660911 4.924302,3.660911 6.664083,0 7.059315,-0.08156 9.015478,-1.860526 z m 21.934533,0.559884 c -1.63061,-3.100823 -3.936045,-4.111798 -9.376576,-4.111798 -5.29698,0 -7.270333,-0.839471 -7.270333,-3.092823 0,-0.531579 -0.448722,-0.966507 -0.997159,-0.966507 -0.627268,0 -0.997159,0.64391 -0.997159,1.735865 0,2.301647 1.06554,4.356528 3.220293,6.210296 1.590846,1.368629 2.474778,1.51922 8.935198,1.522249 6.86777,0.0032 7.140893,-0.05141 6.485736,-1.297282 z M 40.068181,39.267121 c 0,-2.524112 -0.761082,-2.778605 -8.309659,-2.778605 -3.41363,0 -6.679788,0.184798 -7.25813,0.410662 -1.045651,0.408366 -1.45463,3.012904 -0.608347,3.874187 0.24375,0.24807 3.983096,0.451037 8.309659,0.451037 l 7.866477,0 0,-1.957281 z m 2.267804,-5.536968 c 2.045436,-2.473947 2.692495,-4.700328 2.083624,-7.169262 -0.722097,-2.928056 -4.425982,-7.636984 -8.136019,-10.343715 -3.047688,-2.2235 -3.336934,-2.635937 -2.468471,-3.519793 2.170378,-2.208845 -1.089198,-4.6632821 -3.710998,-2.7943543 -1.3179,0.9394543 -1.340948,1.1078903 -0.360068,2.6314353 0.576378,0.895255 0.758967,1.627736 0.405754,1.627736 -1.257111,0 -8.805193,7.715313 -10.126156,10.350506 -1.640304,3.272249 -1.252356,6.302846 1.184053,9.249675 l 1.694575,2.04958 8.856243,0 8.856244,0 1.721219,-2.081808 z M 30.3649,28.963477 c 0.425173,-2.706011 0.388072,-2.779396 -1.244582,-2.461762 -1.485542,0.289012 -1.682818,0.09894 -1.682818,-1.621343 0,-1.750881 0.172067,-1.904784 1.694752,-1.515841 1.560791,0.398677 1.660188,0.29274 1.257479,-1.340221 -0.391671,-1.588199 -0.248356,-1.773114 1.374222,-1.773114 1.588291,0 1.77114,0.214851 1.483972,1.743694 -0.29197,1.554416 -0.15606,1.699897 1.252049,1.34022 1.349799,-0.344782 1.579571,-0.155562 1.579571,1.300804 0,1.322224 -0.339243,1.704277 -1.513306,1.704277 -1.364606,0 -1.488388,0.265918 -1.25972,2.70622 0.239887,2.560042 0.155453,2.70622 -1.563136,2.70622 -1.756195,0 -1.802119,-0.09292 -1.378483,-2.789154 z"
       id="path3002" />
    <path
       style="fill:#ffffff"
       d="m 21.707847,34.280678 c -0.610685,-0.770967 -1.320157,-1.76994 -1.576606,-2.21994 -1.608702,-2.822849 -1.295481,-5.827533 0.93768,-8.995035 1.270834,-1.802543 7.262113,-7.874398 8.431079,-8.544468 0.475,-0.272278 0.863636,-0.580814 0.863636,-0.685636 0,-0.104822 -0.303936,-0.788978 -0.675415,-1.520346 l -0.675414,-1.32976 0.43287,-0.46077 c 0.939431,-0.9999781 2.74345,-1.4807326 3.70264,-0.9867192 1.366204,0.7036392 1.568422,1.6679082 0.649943,3.0992342 -0.532148,0.82928 -0.548757,0.906428 -0.282606,1.312626 0.155523,0.237359 1.166761,1.110307 2.247195,1.939883 3.677347,2.823535 6.460389,6.003962 7.945547,9.080082 0.713713,1.47827 0.746149,1.620953 0.746149,3.282156 0,1.638642 -0.03807,1.813166 -0.674145,3.090909 -0.37078,0.744815 -1.223016,2.029207 -1.893858,2.854207 l -1.219713,1.5 -8.924324,-0.0073 -8.924323,-0.0073 -1.110335,-1.401758 z m 11.53488,-2.914122 c 0.186447,-0.234909 0.214736,-0.75556 0.122003,-2.245484 -0.150171,-2.412793 -0.06094,-2.618476 1.187993,-2.738483 0.510936,-0.04909 1.044622,-0.20491 1.185968,-0.346256 0.355638,-0.355638 0.516652,-1.776054 0.272913,-2.407554 -0.193471,-0.50126 -0.237326,-0.517901 -1.061253,-0.402692 -1.746273,0.24418 -1.586715,0.366578 -1.586715,-1.217177 0,-1.678735 -0.07611,-1.759613 -1.659555,-1.76357 -1.507456,-0.0038 -1.651473,0.182551 -1.360739,1.760421 0.135762,0.736807 0.156019,1.264706 0.0525,1.368223 -0.103516,0.103516 -0.597701,0.08412 -1.280839,-0.05028 -1.512282,-0.297523 -1.660461,-0.158737 -1.660461,1.55522 0,1.658341 0.12757,1.781034 1.76602,1.698513 l 1.23398,-0.06215 -0.08169,1.272728 c -0.04493,0.7 -0.08584,1.844329 -0.09091,2.54295 -0.0092,1.265339 -0.0071,1.270702 0.536236,1.394277 0.818861,0.186231 2.148128,-0.01042 2.424545,-0.358682 z"
       id="path3004" />
    <path
       style="fill:#ffffff"
       d="m 26.04069,40.975514 c -2.269022,-0.144649 -2.500389,-0.302451 -2.484241,-1.694348 0.006,-0.521235 0.129519,-1.19241 0.274383,-1.491499 0.492362,-1.016541 0.816844,-1.070529 6.917836,-1.15101 6.187176,-0.08162 7.834179,0.06808 8.671568,0.78816 0.452642,0.389235 0.493562,0.542766 0.5524,2.072602 l 0.06354,1.652228 -6.063545,-0.02851 c -3.33495,-0.01568 -6.904325,-0.08211 -7.931946,-0.147621 z"
       id="path3006" />
    <path
       style="fill:#ffffff"
       d="m 40.454545,51.879138 c -1.4,-0.0665 -2.913636,-0.235418 -3.363636,-0.375372 -1.174578,-0.365305 -3.462202,-2.586632 -4.180074,-4.058933 -0.926112,-1.899384 -0.968693,-4.290755 -0.08358,-4.694037 0.606577,-0.276376 1.090573,0.177602 1.249599,1.172096 0.08818,0.551462 0.312383,0.936914 0.833059,1.432222 0.938726,0.892988 2.379773,1.197139 6.362817,1.34295 3.519279,0.128835 4.78678,0.329547 6.272728,0.993305 1.186214,0.529871 2.52819,1.845573 3.090003,3.029505 0.292642,0.616697 0.295066,0.692707 0.0283,0.887771 -0.169656,0.124057 -1.377721,0.263009 -2.886841,0.332046 -2.799846,0.128083 -3.444082,0.122668 -7.32237,-0.06155 z"
       id="path3008" />
    <path
       style="fill:#ffffff"
       d="m 15.963951,51.877419 c -3.532856,-0.233223 -3.872874,-0.753189 -1.797135,-2.74824 0.691749,-0.664859 1.719075,-1.434552 2.282947,-1.710429 0.96332,-0.471309 1.235923,-0.510923 4.515001,-0.656111 4.412913,-0.195392 6.156948,-0.414539 7.158837,-0.899546 0.834823,-0.40413 1.330944,-1.102716 1.330944,-1.874096 0,-0.24939 0.194932,-0.680057 0.433182,-0.957039 0.383548,-0.445902 0.485643,-0.4797 0.891062,-0.294978 1.461556,0.665929 0.104089,5.442063 -2.113382,7.43576 -1.545971,1.389962 -2.035153,1.557464 -5.027884,1.721616 -3.048573,0.167215 -4.947525,0.163024 -7.673572,-0.01694 l 0,1e-6 z"
       id="path3010" />
  </g>
</svg>
