<?xml version="1.0" encoding="UTF-8" standalone="no"?>
<!-- Created with Inkscape (http://www.inkscape.org/) -->

<svg
   xmlns:dc="http://purl.org/dc/elements/1.1/"
   xmlns:cc="http://creativecommons.org/ns#"
   xmlns:rdf="http://www.w3.org/1999/02/22-rdf-syntax-ns#"
   xmlns:svg="http://www.w3.org/2000/svg"
   xmlns="http://www.w3.org/2000/svg"
   xmlns:sodipodi="http://sodipodi.sourceforge.net/DTD/sodipodi-0.dtd"
   xmlns:inkscape="http://www.inkscape.org/namespaces/inkscape"
   width="64px"
   height="64px"
   id="svg2816"
   version="1.1"
   inkscape:version="0.47 r22583"
   sodipodi:docname="wp.svg">
  <defs
     id="defs2818">
    <inkscape:perspective
       sodipodi:type="inkscape:persp3d"
       inkscape:vp_x="0 : 32 : 1"
       inkscape:vp_y="0 : 1000 : 0"
       inkscape:vp_z="64 : 32 : 1"
       inkscape:persp3d-origin="32 : 21.333333 : 1"
       id="perspective2824" />
    <inkscape:perspective
       id="perspective2834"
       inkscape:persp3d-origin="0.5 : 0.33333333 : 1"
       inkscape:vp_z="1 : 0.5 : 1"
       inkscape:vp_y="0 : 1000 : 0"
       inkscape:vp_x="0 : 0.5 : 1"
       sodipodi:type="inkscape:persp3d" />
    <inkscape:perspective
       id="perspective2850"
       inkscape:persp3d-origin="0.5 : 0.33333333 : 1"
       inkscape:vp_z="1 : 0.5 : 1"
       inkscape:vp_y="0 : 1000 : 0"
       inkscape:vp_x="0 : 0.5 : 1"
       sodipodi:type="inkscape:persp3d" />
    <inkscape:perspective
       id="perspective2872"
       inkscape:persp3d-origin="0.5 : 0.33333333 : 1"
       inkscape:vp_z="1 : 0.5 : 1"
       inkscape:vp_y="0 : 1000 : 0"
       inkscape:vp_x="0 : 0.5 : 1"
       sodipodi:type="inkscape:persp3d" />
    <inkscape:perspective
       id="perspective2892"
       inkscape:persp3d-origin="0.5 : 0.33333333 : 1"
       inkscape:vp_z="1 : 0.5 : 1"
       inkscape:vp_y="0 : 1000 : 0"
       inkscape:vp_x="0 : 0.5 : 1"
       sodipodi:type="inkscape:persp3d" />
    <inkscape:perspective
       id="perspective2914"
       inkscape:persp3d-origin="0.5 : 0.33333333 : 1"
       inkscape:vp_z="1 : 0.5 : 1"
       inkscape:vp_y="0 : 1000 : 0"
       inkscape:vp_x="0 : 0.5 : 1"
       sodipodi:type="inkscape:persp3d" />
    <inkscape:perspective
       id="perspective2936"
       inkscape:persp3d-origin="0.5 : 0.33333333 : 1"
       inkscape:vp_z="1 : 0.5 : 1"
       inkscape:vp_y="0 : 1000 : 0"
       inkscape:vp_x="0 : 0.5 : 1"
       sodipodi:type="inkscape:persp3d" />
    <inkscape:perspective
       id="perspective2952"
       inkscape:persp3d-origin="0.5 : 0.33333333 : 1"
       inkscape:vp_z="1 : 0.5 : 1"
       inkscape:vp_y="0 : 1000 : 0"
       inkscape:vp_x="0 : 0.5 : 1"
       sodipodi:type="inkscape:persp3d" />
    <inkscape:perspective
       id="perspective2974"
       inkscape:persp3d-origin="0.5 : 0.33333333 : 1"
       inkscape:vp_z="1 : 0.5 : 1"
       inkscape:vp_y="0 : 1000 : 0"
       inkscape:vp_x="0 : 0.5 : 1"
       sodipodi:type="inkscape:persp3d" />
    <inkscape:perspective
       id="perspective2996"
       inkscape:persp3d-origin="0.5 : 0.33333333 : 1"
       inkscape:vp_z="1 : 0.5 : 1"
       inkscape:vp_y="0 : 1000 : 0"
       inkscape:vp_x="0 : 0.5 : 1"
       sodipodi:type="inkscape:persp3d" />
    <inkscape:perspective
       id="perspective3020"
       inkscape:persp3d-origin="0.5 : 0.33333333 : 1"
       inkscape:vp_z="1 : 0.5 : 1"
       inkscape:vp_y="0 : 1000 : 0"
       inkscape:vp_x="0 : 0.5 : 1"
       sodipodi:type="inkscape:persp3d" />
    <inkscape:perspective
       id="perspective3052"
       inkscape:persp3d-origin="0.5 : 0.33333333 : 1"
       inkscape:vp_z="1 : 0.5 : 1"
       inkscape:vp_y="0 : 1000 : 0"
       inkscape:vp_x="0 : 0.5 : 1"
       sodipodi:type="inkscape:persp3d" />
    <inkscape:perspective
       id="perspective3076"
       inkscape:persp3d-origin="0.5 : 0.33333333 : 1"
       inkscape:vp_z="1 : 0.5 : 1"
       inkscape:vp_y="0 : 1000 : 0"
       inkscape:vp_x="0 : 0.5 : 1"
       sodipodi:type="inkscape:persp3d" />
  </defs>
  <sodipodi:namedview
     id="base"
     pagecolor="#ffffff"
     bordercolor="#666666"
     borderopacity="1.0"
     inkscape:pageopacity="0.0"
     inkscape:pageshadow="2"
     inkscape:zoom="5.5"
     inkscape:cx="32"
     inkscape:cy="42.884717"
     inkscape:current-layer="layer1"
     showgrid="true"
     inkscape:document-units="px"
     inkscape:grid-bbox="true"
     inkscape:window-width="1365"
     inkscape:window-height="878"
     inkscape:window-x="-8"
     inkscape:window-y="-8"
     inkscape:window-maximized="1" />
  <metadata
     id="metadata2821">
    <rdf:RDF>
      <cc:Work
         rdf:about="">
        <dc:format>image/svg+xml</dc:format>
        <dc:type
           rdf:resource="http://purl.org/dc/dcmitype/StillImage" />
        <dc:title></dc:title>
      </cc:Work>
    </rdf:RDF>
  </metadata>
  <g
     id="layer1"
     inkscape:label="Layer 1"
     inkscape:groupmode="layer">
    <path
       style="fill:#000000"
       d="m 15.60985,46.535789 0,-6.036615 -2.831669,-2.758108 C 8.452858,33.528105 7.3280422,28.609421 9.5641723,23.686594 11.869669,18.611055 17.240274,15.589038 22.63961,16.329099 c 2.233778,0.306173 3.414648,0.08425 5.220191,-0.981048 2.837304,-1.67405 3.318565,-4.169815 0.676185,-3.50662 -1.489029,0.373723 -1.657197,0.216164 -1.657197,-1.552645 0,-1.742372 0.190423,-1.9321735 1.657197,-1.6517817 1.426161,0.2726281 1.657197,0.074984 1.657197,-1.4176803 0,-1.4081858 0.311751,-1.7344734 1.657197,-1.7344734 1.345446,0 1.657197,0.3262876 1.657197,1.7344734 0,1.4926645 0.231036,1.6903084 1.657197,1.4176803 1.466774,-0.2803918 1.657197,-0.09059 1.657197,1.6517817 0,1.768809 -0.168168,1.926368 -1.657197,1.552645 -1.352545,-0.339467 -1.657197,-0.173016 -1.657197,0.905434 0,2.101886 3.614449,3.556006 8.997751,3.619863 3.810429,0.0452 5.125803,0.35494 7.020003,1.653044 6.991401,4.791239 7.733686,14.426583 1.530944,19.872663 -2.222697,1.951553 -2.254063,2.056218 -2.442767,8.151154 l -0.191158,6.174216 -16.40625,0.177301 -16.40625,0.177299 0,-6.036616 z m 31.015036,3.271379 c 0.126929,-0.660353 -0.712702,-1.654231 -2.145678,-2.539859 -1.294814,-0.80024 -2.354207,-1.661113 -2.354207,-1.913054 0,-0.25194 1.044034,-1.020323 2.320076,-1.707517 1.276042,-0.687194 2.320076,-1.613388 2.320076,-2.058211 0,-2.066643 -1.843595,-2.3246 -15.330981,-2.145121 -13.218311,0.175897 -13.50852,0.209666 -13.706062,1.594807 -0.146335,1.026082 0.463493,1.826288 2.218307,2.910822 l 2.420121,1.495718 -2.384026,1.362463 c -1.66157,0.949582 -2.384026,1.829094 -2.384026,2.902295 l 0,1.539832 14.408936,-0.178648 c 12.727435,-0.157799 14.43327,-0.305251 14.617464,-1.263527 z M 29.696024,47.10003 c -1.184896,-0.715886 -2.15247,-1.497874 -2.150165,-1.737751 0.0023,-0.239877 0.951887,-0.975675 2.110182,-1.635105 2.025415,-1.153092 2.19027,-1.153578 4.308754,-0.0127 2.563828,1.380712 2.545597,1.843498 -0.137107,3.480558 -1.922473,1.173147 -2.037053,1.170513 -4.131664,-0.095 z M 31.413559,31.714982 C 31.22641,25.991173 30.952263,24.486473 29.820785,22.972796 26.475844,18.497971 22.180962,17.161992 17.224971,19.054703 9.449843,22.024051 8.3505791,32.741907 15.348029,37.354949 c 1.590033,1.048224 3.15099,1.265854 9.105303,1.269473 l 7.186286,0.0044 -0.226059,-6.913808 z m 16.65801,5.929492 c 2.660833,-1.37597 4.604353,-4.362459 5.038516,-7.74238 0.821261,-6.393438 -5.045674,-12.285159 -11.557967,-11.606798 -6.291887,0.655402 -9.370299,5.42171 -9.370299,14.508042 l 0,5.825452 6.993146,0 c 4.888051,0 7.56613,-0.296301 8.896604,-0.984316 z M 35.793414,17.361269 c -0.606836,-0.981882 -4.560758,-1.380725 -6.474542,-0.653106 l -1.854833,0.705207 2.154233,2.565935 2.154233,2.565934 2.182308,-2.31392 c 1.200269,-1.272656 2.02764,-2.564179 1.838601,-2.87005 z"
       id="path3082" />
    <path
       style="fill:#ffffff"
       d="m 17.636364,50.368589 c 0,-1.695063 0.566715,-2.417306 3.045454,-3.881242 0.925,-0.546302 1.681818,-1.023489 1.681818,-1.060415 0,-0.03693 -0.511363,-0.376106 -1.136363,-0.753733 -2.704649,-1.634158 -3.412392,-2.354525 -3.406307,-3.467068 0.0036,-0.663523 0.166777,-0.898788 0.786731,-1.134494 0.840097,-0.319404 7.362279,-0.549613 15.6698,-0.553084 10.087479,-0.0042 11.905592,0.217512 12.320603,1.502556 0.283209,0.876928 -0.186751,1.357676 -3.141542,3.213646 -0.984627,0.618467 -1.277573,0.89657 -1.236996,1.17433 0.03236,0.221564 0.693351,0.811194 1.689529,1.507141 2.750482,1.921532 3.317294,2.983434 1.848442,3.462979 -1.067744,0.348591 -6.473018,0.559737 -17.802988,0.695436 l -10.318181,0.123581 0,-0.829633 z m 15.620389,-2.789045 c 3.312089,-1.910624 3.359963,-2.502655 0.32985,-4.079092 -1.097009,-0.570727 -1.585436,-0.730514 -2.017063,-0.659874 -0.664637,0.108774 -2.932247,1.37939 -3.651727,2.046182 -0.597341,0.553597 -0.515322,0.696482 0.983953,1.714127 2.373975,1.611356 3.010308,1.754353 4.354987,0.978657 l 0,0 z"
       id="path3084" />
    <path
       style="fill:#ffffff"
       d="m 19.333061,38.417476 c -0.916816,-0.0753 -1.980452,-0.236627 -2.363636,-0.35852 -1.821226,-0.579338 -4.095844,-2.69955 -5.112875,-4.765804 -0.617293,-1.254123 -1.13165,-3.422967 -1.12612,-4.748408 0.01019,-2.442298 1.233834,-5.337159 3.004407,-7.107732 2.301988,-2.301988 5.998171,-3.525216 9.085622,-3.006827 2.100433,0.352666 3.763908,1.261611 5.483299,2.996145 0.817067,0.824263 1.698849,1.919534 1.959517,2.433936 0.641934,1.266796 0.960789,3.738539 1.093041,8.473199 0.05866,2.1 0.15062,4.370455 0.20436,5.045455 l 0.09771,1.227272 -5.329191,-0.02591 c -2.931055,-0.01425 -6.079313,-0.08751 -6.99613,-0.162807 l 0,0 z"
       id="path3086" />
    <path
       style="fill:#ffffff"
       d="m 32.238282,34.130921 c 0.06689,-2.637468 0.23066,-5.223869 0.39264,-6.200925 1.042537,-6.288526 4.481443,-9.572886 10.005442,-9.555795 5.615646,0.01738 10.454545,4.786608 10.454545,10.30403 0,2.697137 -1.124567,5.453761 -2.976229,7.295558 -2.208309,2.196543 -3.290293,2.434098 -11.734734,2.576418 l -6.256417,0.105442 0.114753,-4.524728 z"
       id="path3088" />
    <path
       style="fill:#ffffff"
       d="m 29.681818,19.987781 c -1.125,-1.355596 -2.045454,-2.503819 -2.045454,-2.551607 0,-0.04779 0.658769,-0.294994 1.463931,-0.549344 1.006552,-0.31797 1.875108,-0.462456 2.779982,-0.462456 1.390212,0 3.330532,0.410917 3.708267,0.785329 0.380439,0.37709 -0.364597,1.562368 -2.189302,3.482964 L 31.727273,22.4525 29.681818,19.987781 z"
       id="path3090" />
  </g>
</svg>
