<?xml version="1.0" encoding="UTF-8" standalone="no"?>
<!-- Created with Inkscape (http://www.inkscape.org/) -->

<svg
   xmlns:dc="http://purl.org/dc/elements/1.1/"
   xmlns:cc="http://creativecommons.org/ns#"
   xmlns:rdf="http://www.w3.org/1999/02/22-rdf-syntax-ns#"
   xmlns:svg="http://www.w3.org/2000/svg"
   xmlns="http://www.w3.org/2000/svg"
   xmlns:sodipodi="http://sodipodi.sourceforge.net/DTD/sodipodi-0.dtd"
   xmlns:inkscape="http://www.inkscape.org/namespaces/inkscape"
   width="64px"
   height="64px"
   id="svg2996"
   version="1.1"
   inkscape:version="0.48.1 "
   sodipodi:docname="wk.svg">
  <defs
     id="defs2998" />
  <sodipodi:namedview
     id="base"
     pagecolor="#ffffff"
     bordercolor="#666666"
     borderopacity="1.0"
     inkscape:pageopacity="0.0"
     inkscape:pageshadow="2"
     inkscape:zoom="7.7781746"
     inkscape:cx="22.538834"
     inkscape:cy="40.689171"
     inkscape:current-layer="layer1"
     showgrid="true"
     inkscape:document-units="px"
     inkscape:grid-bbox="true"
     inkscape:window-width="1365"
     inkscape:window-height="878"
     inkscape:window-x="-8"
     inkscape:window-y="-8"
     inkscape:window-maximized="1" />
  <metadata
     id="metadata3001">
    <rdf:RDF>
      <cc:Work
         rdf:about="">
        <dc:format>image/svg+xml</dc:format>
        <dc:type
           rdf:resource="http://purl.org/dc/dcmitype/StillImage" />
        <dc:title></dc:title>
      </cc:Work>
    </rdf:RDF>
  </metadata>
  <g
     id="layer1"
     inkscape:label="Layer 1"
     inkscape:groupmode="layer">
    <path
       style="fill:#000000"
       d="m 11.283658,57.546588 c 0.971636,-5.390346 4.251347,-9.579449 11.255972,-14.37701 6.794274,-4.653488 7.194279,-5.460267 2.187432,-4.411886 -3.813704,0.798548 -6.237593,2.28684 -7.094775,4.35626 -0.820148,1.980014 -1.134584,2.00149 -4.738078,0.323613 -3.6409044,-1.695297 -5.9598397,-4.728477 -3.6150286,-4.728477 0.5471835,0 1.4357826,-0.322397 1.9746646,-0.716437 0.8693,-0.635647 0.885609,-0.794598 0.144631,-1.409555 -0.677941,-0.562641 -1.156631,-0.526876 -2.5428902,0.189986 L 7.1478512,37.656186 6.3410766,35.725302 c -0.4437263,-1.061986 -0.8067747,-3.00944 -0.8067747,-4.327676 0,-2.726553 0.3027321,-3.07556 6.3250001,-7.291823 2.1175,-1.482487 5.62531,-4.340663 7.795135,-6.351501 3.915325,-3.628444 7.60247,-5.852435 10.780225,-6.502356 1.457309,-0.298051 1.743924,-0.688126 2.405728,-3.27412 0.413223,-1.6146658 0.886867,-3.1550854 1.052544,-3.4231554 0.724748,-1.1726671 7.941368,4.2783804 7.941368,5.9984834 0,0.223185 0.887489,0.883735 1.972197,1.467888 2.884252,1.553272 7.106367,6.437039 9.005975,10.417309 2.948528,6.178083 4.222245,13.70048 5.292738,31.258237 l 0.360486,5.9125 -23.776908,0 -23.776908,0 0.371776,-2.0625 z m 33.566387,-8.527089 c 2.935812,-15.004174 2.153329,-23.38646 -2.787336,-29.859081 -1.316856,-1.725176 -1.878407,-3.040187 -1.878407,-4.398754 0,-2.642994 -1.208412,-5.325384 -3.052577,-6.7760049 -1.970223,-1.5497779 -2.59194,-0.9338648 -2.665382,2.6404979 l -0.05704,2.776151 -2.438852,0.0034 c -3.174665,0.0044 -6.184263,1.505118 -10.191492,5.08193 -1.784741,1.593042 -5.480558,4.38144 -8.212925,6.19644 -5.6387988,3.745625 -6.7209194,5.169525 -6.1681094,8.116256 0.3697006,1.970674 0.4214452,2.005263 3.2435364,2.168183 2.757621,0.159198 2.867842,0.226673 2.867842,1.755619 0,1.020076 -0.394312,1.8087 -1.1,2.2 -0.605,0.335468 -1.201608,0.6703 -1.325795,0.74407 -0.51278,0.304605 1.78033,2.266684 3.009723,2.575241 1.061187,0.266342 1.711977,-0.09175 3.239431,-1.782457 2.188602,-2.422521 4.06965,-3.103065 10.896392,-3.942208 5.7227,-0.703434 7.325378,-1.248037 9.34623,-3.175929 1.671384,-1.5945 2.580789,-4.193744 2.644608,-7.558775 0.03289,-1.733956 0.141857,-1.966978 0.514411,-1.1 0.904781,2.105539 0.589044,6.01551 -0.6875,8.513763 -1.537594,3.009138 -3.39784,4.399934 -6.428857,4.806479 -1.787652,0.239774 -2.954618,0.894608 -4.902384,2.750936 -1.405942,1.339941 -4.393896,3.717083 -6.639897,5.282539 -4.067583,2.835092 -7.027739,6.332866 -8.196236,9.684818 l -0.587905,1.686465 14.95889,-0.0021 14.958889,-0.0021 1.640743,-8.385409 z m -34.79367,-19.20163 c 0.284102,-0.852306 2.012452,-0.995682 2.215427,-0.183781 0.07563,0.3025 -0.446942,0.632701 -1.16126,0.733781 -0.890405,0.125996 -1.2218554,-0.04694 -1.054167,-0.55 z m 12.481413,-8.628346 c 3.859259,-3.09726 5.676512,-3.517216 7.795378,-1.801463 1.230431,0.996343 1.240704,1.074791 0.323963,2.473914 -0.894089,1.364553 -1.167943,1.437353 -4.922295,1.308528 -2.186543,-0.07503 -4.5939,0.08541 -5.349683,0.356521 -0.780406,0.279947 0.149708,-0.730044 2.152637,-2.3375 z m 6.371514,-0.08044 c 0,-1.008 -0.330956,-1.421996 -1.239959,-1.551075 -1.351408,-0.191901 -2.118961,0.987581 -1.571344,2.41465 0.198772,0.517991 0.82759,0.793114 1.571344,0.6875 0.909003,-0.129079 1.239959,-0.543074 1.239959,-1.551075 z m 27.219111,33.1375 c -0.0089,-4.800715 -1.510846,-17.950864 -2.519856,-22.062906 -1.474215,-6.007908 -4.728127,-12.361463 -7.926063,-15.47635 -1.551832,-1.511531 -3.176265,-2.748239 -3.609852,-2.748239 -1.407318,0 -0.853997,2.654467 1.082014,5.190779 4.670589,6.118803 5.666182,16.262232 2.855301,29.090722 -2.168306,9.895863 -2.513352,9.168499 4.349345,9.168499 l 5.775001,0 -0.0059,-3.1625 z"
       id="path3225"
       inkscape:connector-curvature="0" />
    <path
       style="fill:#ffffff"
       d="m 45.924429,57.206108 c -0.346347,-0.07766 -0.657898,-0.260885 -0.867813,-0.510355 -0.464473,-0.551994 -0.436424,-1.580099 0.115304,-4.226412 0.24325,-1.166726 0.673,-3.22055 0.954999,-4.564053 1.062024,-5.059702 1.45477,-8.513063 1.45484,-12.792204 6.7e-5,-4.105757 -0.422376,-7.098707 -1.460789,-10.349472 -0.498994,-1.562109 -1.734631,-4.029043 -2.671138,-5.332896 -1.36982,-1.907131 -2.063388,-3.39318 -2.063388,-4.421043 0,-0.674497 0.331142,-1.054996 0.794317,-0.912711 0.972952,0.298885 3.935455,3.001046 5.281041,4.816948 2.350067,3.171476 4.55497,7.839963 5.800848,12.282256 1.13659,4.052618 2.607453,16.232225 2.743712,22.71953 l 0.07223,3.43911 -4.80692,-0.01377 c -2.643806,-0.0076 -5.050067,-0.06829 -5.347247,-0.13493 z"
       id="path3227"
       inkscape:connector-curvature="0" />
    <path
       style="fill:#ffffff"
       d="m 13.750986,56.294146 c 0.816418,-2.247941 1.817342,-3.923178 3.516182,-5.884993 1.270182,-1.466804 2.839615,-2.822623 5.798782,-5.009517 2.56914,-1.898655 3.752817,-2.85113 5.656855,-4.551937 1.967576,-1.757561 2.902306,-2.319342 4.406937,-2.648599 0.687455,-0.150435 1.510261,-0.337173 1.828459,-0.414973 2.674983,-0.654034 4.811328,-3.015897 5.87115,-6.490921 0.315207,-1.033524 0.345403,-1.321721 0.354124,-3.379755 0.0088,-2.067561 -0.01463,-2.309791 -0.288681,-2.989133 -0.334924,-0.830251 -0.664219,-0.988819 -0.667469,-0.321412 -0.0055,1.1198 -0.283341,3.598642 -0.510775,4.556259 -0.407269,1.714824 -1.054365,2.891265 -2.258557,4.106133 -0.826352,0.83368 -1.255205,1.151022 -2.12132,1.569736 -1.463504,0.707516 -2.579598,0.957574 -7.256712,1.625857 -7.209658,1.030142 -8.092415,1.355143 -10.867736,4.00113 -1.867841,1.780797 -2.193866,1.950776 -3.175199,1.655438 -0.648312,-0.195113 -1.495379,-0.743056 -2.26282,-1.463753 -0.82065,-0.770664 -0.827312,-0.858173 -0.09364,-1.229953 1.384756,-0.701709 1.850115,-1.398512 1.848533,-2.767891 -0.001,-0.881453 -0.115119,-1.247339 -0.443844,-1.423267 C 12.944108,35.157054 11.86501,35.010804 10.687259,34.907593 9.2393475,34.780706 8.4474821,34.655453 8.2419981,34.520815 7.8485968,34.263049 7.6370222,33.735541 7.444619,32.532751 c -0.41933,-2.621403 0.6135727,-3.952627 5.895675,-7.598453 3.400527,-2.34712 6.242488,-4.491825 8.80391,-6.643928 3.229491,-2.713413 5.260592,-3.926583 7.538204,-4.502542 0.854098,-0.215984 1.469749,-0.273642 2.92182,-0.273642 l 1.839713,0 0.0049,-0.546401 c 0.0027,-0.30052 0.05473,-1.44555 0.115646,-2.544509 0.114066,-2.057826 0.292691,-2.8103742 0.72442,-3.0519816 0.520371,-0.2912145 1.751723,0.4500386 2.759778,1.6613394 1.199604,1.4414702 1.83612,3.0994712 2.047873,5.3343082 0.210306,2.219587 0.423133,2.742523 2.059829,5.061228 2.294064,3.249996 3.408224,6.056174 3.981524,10.02806 0.812572,5.629588 0.3318,10.927148 -2.138111,23.559512 l -0.848385,4.339064 -14.892818,0 -14.892819,0 0.385215,-1.06066 7e-6,0 z M 11.938177,30.16691 c 0.758374,-0.39217 0.348263,-1.096375 -0.6385,-1.096375 -0.761516,0 -1.283061,0.365255 -1.283061,0.898572 0,0.201106 0.07232,0.398114 0.160706,0.437794 0.270406,0.121391 1.345325,-0.02511 1.760855,-0.239991 l 0,0 z M 21.3799,23.413105 c 0.486886,-0.07617 2.291114,-0.135943 4.009395,-0.132827 3.796816,0.0069 4.242062,-0.0678 4.906881,-0.823074 0.547449,-0.621935 1.062208,-1.576884 1.062208,-1.970542 0,-0.350093 -1.116361,-1.34245 -1.992326,-1.77102 -1.393075,-0.681569 -2.947496,-0.344157 -5.094412,1.105823 -2.402536,1.622619 -5.020573,4.107479 -4.001982,3.798404 0.123744,-0.03755 0.62335,-0.130592 1.110236,-0.206764 l 0,0 z"
       id="path3229"
       inkscape:connector-curvature="0" />
    <path
       style="fill:#ffffff"
       d="m 13.750986,56.294146 c 1.48663,-4.093318 3.789319,-6.814438 9.057835,-10.703772 2.529395,-1.867256 3.950615,-3.004892 5.785419,-4.631019 2.127612,-1.885635 3.019709,-2.428555 4.535502,-2.760255 2.09767,-0.459032 2.377408,-0.54139 3.23692,-0.952975 1.996132,-0.955867 3.753641,-3.357214 4.525122,-6.182835 0.235376,-0.862084 0.282001,-1.382193 0.288131,-3.214121 0.0067,-1.989439 -0.01919,-2.251953 -0.28801,-2.924851 -0.331738,-0.830397 -0.661325,-0.989795 -0.66458,-0.321412 -0.0055,1.1198 -0.283341,3.598642 -0.510775,4.556259 -0.407269,1.714824 -1.054365,2.891265 -2.258557,4.106133 -0.826352,0.83368 -1.255205,1.151022 -2.12132,1.569736 -1.441481,0.696868 -2.58675,0.958576 -6.870998,1.570102 -7.573512,1.081032 -8.49316,1.415043 -11.307632,4.106892 -1.806073,1.727382 -2.141866,1.900113 -3.121017,1.605431 -0.648312,-0.195113 -1.495379,-0.743056 -2.26282,-1.463753 -0.82065,-0.770664 -0.827312,-0.858173 -0.09364,-1.229953 1.384756,-0.701709 1.850115,-1.398512 1.848533,-2.767891 -0.001,-0.881453 -0.115119,-1.247339 -0.443844,-1.423267 C 12.944108,35.157054 11.86501,35.010804 10.687259,34.907593 9.2393475,34.780706 8.4474821,34.655453 8.2419981,34.520815 7.8485968,34.263049 7.6370222,33.735541 7.444619,32.532751 7.0296339,29.93851 8.0640149,28.583313 13.137786,25.073834 c 3.481335,-2.408005 5.999817,-4.302256 8.727915,-6.56461 4.866725,-4.035876 6.928771,-4.995038 10.738527,-4.995038 l 1.839713,0 0.0049,-0.546401 c 0.0027,-0.30052 0.05473,-1.44555 0.115646,-2.544509 0.114066,-2.057826 0.292691,-2.8103742 0.72442,-3.0519816 0.520371,-0.2912145 1.751723,0.4500386 2.759778,1.6613394 1.202747,1.4452472 1.835698,3.0981972 2.051572,5.3576742 0.207214,2.168837 0.425499,2.702057 2.062356,5.037862 2.30058,3.28294 3.403177,6.064343 3.975298,10.02806 0.812572,5.629588 0.3318,10.927148 -2.138111,23.559512 l -0.848385,4.339064 -14.892818,0 -14.892819,0 0.385215,-1.06066 7e-6,0 z M 11.938177,30.16691 c 0.452758,-0.234129 0.504555,-0.569517 0.139042,-0.900302 -0.323995,-0.293212 -1.426372,-0.215932 -1.804776,0.126518 -0.2843871,0.257366 -0.3448411,0.901669 -0.09512,1.013775 0.270406,0.121391 1.345325,-0.02511 1.760855,-0.239991 z m 9.441601,-6.753785 c 0.486819,-0.07616 2.309226,-0.137397 4.049794,-0.13608 3.292768,0.0025 3.952814,-0.06738 4.500729,-0.476462 0.455296,-0.339927 1.282479,-1.583731 1.381063,-2.076652 0.07361,-0.368024 0.01717,-0.471844 -0.557579,-1.025833 -0.351709,-0.339003 -0.966161,-0.776204 -1.365449,-0.971557 -0.63586,-0.311097 -0.843506,-0.349253 -1.672751,-0.307378 -0.799701,0.04038 -1.114546,0.131485 -2.026815,0.58647 -0.594022,0.296263 -1.708154,1.012236 -2.475848,1.59105 -2.186229,1.648342 -3.768515,3.273597 -2.943258,3.023186 0.123744,-0.03755 0.623296,-0.130583 1.110114,-0.206744 l 0,0 z"
       id="path3231"
       inkscape:connector-curvature="0" />
    <path
       style="fill:#ffffff"
       d="m 26.757378,22.448595 c -0.280108,-0.121701 -0.488946,-0.342304 -0.619227,-0.654111 -0.645346,-1.544531 1.120774,-2.89489 2.325697,-1.778206 0.27131,0.251442 0.323239,0.41551 0.323239,1.021266 0,0.88656 -0.151056,1.187853 -0.713326,1.422784 -0.537928,0.224761 -0.776971,0.22263 -1.316383,-0.01173 l 0,0 z"
       id="path3233"
       inkscape:connector-curvature="0" />
  </g>
</svg>
