<?xml version="1.0" encoding="UTF-8" standalone="no"?>
<!-- Created with Inkscape (http://www.inkscape.org/) -->

<svg
   xmlns:dc="http://purl.org/dc/elements/1.1/"
   xmlns:cc="http://creativecommons.org/ns#"
   xmlns:rdf="http://www.w3.org/1999/02/22-rdf-syntax-ns#"
   xmlns:svg="http://www.w3.org/2000/svg"
   xmlns="http://www.w3.org/2000/svg"
   xmlns:sodipodi="http://sodipodi.sourceforge.net/DTD/sodipodi-0.dtd"
   xmlns:inkscape="http://www.inkscape.org/namespaces/inkscape"
   width="64px"
   height="64px"
   id="svg2816"
   version="1.1"
   inkscape:version="0.47 r22583"
   sodipodi:docname="wr.svg">
  <defs
     id="defs2818">
    <inkscape:perspective
       sodipodi:type="inkscape:persp3d"
       inkscape:vp_x="0 : 32 : 1"
       inkscape:vp_y="0 : 1000 : 0"
       inkscape:vp_z="64 : 32 : 1"
       inkscape:persp3d-origin="32 : 21.333333 : 1"
       id="perspective2824" />
    <inkscape:perspective
       id="perspective2834"
       inkscape:persp3d-origin="0.5 : 0.33333333 : 1"
       inkscape:vp_z="1 : 0.5 : 1"
       inkscape:vp_y="0 : 1000 : 0"
       inkscape:vp_x="0 : 0.5 : 1"
       sodipodi:type="inkscape:persp3d" />
    <inkscape:perspective
       id="perspective2850"
       inkscape:persp3d-origin="0.5 : 0.33333333 : 1"
       inkscape:vp_z="1 : 0.5 : 1"
       inkscape:vp_y="0 : 1000 : 0"
       inkscape:vp_x="0 : 0.5 : 1"
       sodipodi:type="inkscape:persp3d" />
    <inkscape:perspective
       id="perspective2872"
       inkscape:persp3d-origin="0.5 : 0.33333333 : 1"
       inkscape:vp_z="1 : 0.5 : 1"
       inkscape:vp_y="0 : 1000 : 0"
       inkscape:vp_x="0 : 0.5 : 1"
       sodipodi:type="inkscape:persp3d" />
    <inkscape:perspective
       id="perspective2892"
       inkscape:persp3d-origin="0.5 : 0.33333333 : 1"
       inkscape:vp_z="1 : 0.5 : 1"
       inkscape:vp_y="0 : 1000 : 0"
       inkscape:vp_x="0 : 0.5 : 1"
       sodipodi:type="inkscape:persp3d" />
    <inkscape:perspective
       id="perspective2914"
       inkscape:persp3d-origin="0.5 : 0.33333333 : 1"
       inkscape:vp_z="1 : 0.5 : 1"
       inkscape:vp_y="0 : 1000 : 0"
       inkscape:vp_x="0 : 0.5 : 1"
       sodipodi:type="inkscape:persp3d" />
    <inkscape:perspective
       id="perspective2936"
       inkscape:persp3d-origin="0.5 : 0.33333333 : 1"
       inkscape:vp_z="1 : 0.5 : 1"
       inkscape:vp_y="0 : 1000 : 0"
       inkscape:vp_x="0 : 0.5 : 1"
       sodipodi:type="inkscape:persp3d" />
    <inkscape:perspective
       id="perspective2952"
       inkscape:persp3d-origin="0.5 : 0.33333333 : 1"
       inkscape:vp_z="1 : 0.5 : 1"
       inkscape:vp_y="0 : 1000 : 0"
       inkscape:vp_x="0 : 0.5 : 1"
       sodipodi:type="inkscape:persp3d" />
    <inkscape:perspective
       id="perspective2974"
       inkscape:persp3d-origin="0.5 : 0.33333333 : 1"
       inkscape:vp_z="1 : 0.5 : 1"
       inkscape:vp_y="0 : 1000 : 0"
       inkscape:vp_x="0 : 0.5 : 1"
       sodipodi:type="inkscape:persp3d" />
  </defs>
  <sodipodi:namedview
     id="base"
     pagecolor="#ffffff"
     bordercolor="#666666"
     borderopacity="1.0"
     inkscape:pageopacity="0.0"
     inkscape:pageshadow="2"
     inkscape:zoom="5.5"
     inkscape:cx="32"
     inkscape:cy="42.884717"
     inkscape:current-layer="layer1"
     showgrid="true"
     inkscape:document-units="px"
     inkscape:grid-bbox="true"
     inkscape:window-width="1365"
     inkscape:window-height="878"
     inkscape:window-x="-8"
     inkscape:window-y="-8"
     inkscape:window-maximized="1" />
  <metadata
     id="metadata2821">
    <rdf:RDF>
      <cc:Work
         rdf:about="">
        <dc:format>image/svg+xml</dc:format>
        <dc:type
           rdf:resource="http://purl.org/dc/dcmitype/StillImage" />
        <dc:title></dc:title>
      </cc:Work>
    </rdf:RDF>
  </metadata>
  <g
     id="layer1"
     inkscape:label="Layer 1"
     inkscape:groupmode="layer">
    <path
       style="fill:#000000"
       d="m 12.776515,52.122561 c 0,-3.112915 4.089095,-8.588388 8.948864,-11.982913 5.339052,-3.729302 6.049747,-4.755676 2.870502,-4.145532 -3.083923,0.591852 -4.633876,1.432183 -6.281024,3.40536 -1.728694,2.070862 -4.062872,1.735002 -6.736636,-0.969319 L 9.8312241,36.663195 11.635309,36.05496 c 2.614354,-0.88141 2.281447,-2.077209 -0.434806,-1.561813 -1.9435938,0.368788 -2.2921202,0.223878 -2.6424642,-1.09868 -1.1535185,-4.354568 -0.6155552,-5.622899 3.7213172,-8.77359 2.278646,-1.655411 6.002852,-4.649151 8.276014,-6.652756 2.273162,-2.003605 5.362388,-4.053281 6.864947,-4.554838 1.502559,-0.501557 2.824461,-1.230181 2.93756,-1.619164 0.113099,-0.388983 0.38538,-1.53693 0.605069,-2.5509929 0.567051,-2.6174566 2.134302,-2.3207712 5.312545,1.0056819 1.497361,1.567188 3.863965,3.718676 5.259117,4.781085 5.684167,4.328493 8.504705,12.273428 9.656128,27.199528 0.382595,4.959648 0.695628,9.560643 0.695628,10.224432 0,1.134941 -1.16575,1.206889 -19.554924,1.206889 l -19.554925,0 0,-1.538181 z m 26.515152,-0.734607 c 0,-0.143784 0.596591,-3.19404 1.325757,-6.778349 1.852798,-9.107657 1.772652,-16.708461 -0.224257,-21.267816 -0.852508,-1.946452 -2.04569,-3.953076 -2.651516,-4.459165 -0.605824,-0.506089 -1.101499,-1.803316 -1.101499,-2.882727 0,-2.324989 -1.549015,-5.604614 -2.893631,-6.1264886 C 32.403985,9.3523418 32,9.9690373 32,12.539528 c 0,2.08192 -0.149879,2.234848 -2.190297,2.234848 -2.220025,0 -7.242641,2.75776 -9.030629,4.958432 -0.520467,0.640597 -2.906831,2.450592 -5.30303,4.022213 -5.319152,3.488727 -6.1701334,4.484906 -5.8961013,6.902108 0.180136,1.588954 0.5572443,1.917672 2.4059833,2.097254 2.611435,0.253667 3.371418,1.70143 1.809489,3.447068 -1.07448,1.200856 -1.045265,1.319997 0.589314,2.403254 1.675372,1.110292 1.756192,1.093017 3.125819,-0.66808 1.751168,-2.251692 3.095573,-2.773171 9.456278,-3.667974 7.381405,-1.038392 9.587318,-2.992924 9.740998,-8.630935 l 0.06767,-2.482657 0.688596,2.170151 c 1.41205,4.450157 -2.486425,10.233258 -6.898392,10.233258 -0.858653,0 -1.919977,0.58108 -2.358497,1.291289 -0.438521,0.710208 -2.225474,2.262468 -3.971007,3.449467 -5.582652,3.79632 -9.471044,8.167264 -9.471044,10.646405 0,0.466002 4.142884,0.703749 12.263257,0.703749 6.744792,0 12.263258,-0.11764 12.263258,-0.261424 z M 12.192127,28.902987 c -0.665933,-0.416273 -0.627381,-0.620298 0.17614,-0.932162 0.565769,-0.219587 1.192236,-0.131568 1.392151,0.195597 0.522619,0.85528 -0.562833,1.365074 -1.568291,0.736565 z m 10.424552,-7.926906 c 2.513998,-2.330315 3.427845,-2.579324 5.449627,-1.484933 1.433221,0.775803 1.539471,1.208624 0.647036,2.635795 -0.424031,0.678106 -1.830225,0.990211 -4.531118,1.005682 l -3.916275,0.02243 2.35073,-2.178978 z m 4.626055,0.27967 c 0.124004,-0.646703 -0.208696,-1.117738 -0.789477,-1.117738 -1.231454,0 -1.974688,1.09294 -1.391858,2.046754 0.599594,0.981253 1.923129,0.417568 2.181335,-0.929016 z M 49.679375,44.777219 C 49.151406,36.134813 48.236147,30.871657 46.443958,26.172104 43.99449,19.749007 39.18634,14.118019 37.92036,16.189829 c -0.349968,0.572731 -0.188225,1.433825 0.426028,2.268101 0.544598,0.739671 1.788561,3.004231 2.764361,5.032356 1.546474,3.214226 1.765426,4.46195 1.705965,9.721591 -0.03752,3.318751 -0.547707,8.089319 -1.133752,10.601264 -0.586046,2.511944 -1.065538,5.302712 -1.065538,6.201705 0,1.580045 0.158039,1.634532 4.740888,1.634532 l 4.740886,0 -0.419823,-6.872159 z"
       id="path2980" />
    <path
       style="fill:#ffffff"
       d="m 16.775099,51.324363 c -0.823696,-0.08158 -1.580514,-0.199551 -1.681818,-0.26216 -0.300309,-0.1856 -0.211165,-0.962805 0.204327,-1.781436 1.369248,-2.697787 4.171732,-5.491449 8.975119,-8.946869 1.1,-0.791309 2.67087,-2.109731 3.490822,-2.929826 1.30428,-1.304509 1.606844,-1.515965 2.418042,-1.689936 0.509969,-0.109369 1.114667,-0.198853 1.343773,-0.198853 0.701932,0 2.531514,-1.03318 3.452145,-1.949456 0.945027,-0.940556 2.114775,-2.796395 2.495784,-3.959635 0.410602,-1.253585 0.318782,-3.632373 -0.196506,-5.090909 l -0.449643,-1.272727 -0.139666,2 c -0.256774,3.677029 -0.948903,5.485765 -2.542369,6.643967 -1.578524,1.14734 -3.155285,1.630308 -7.9914,2.447791 -5.786984,0.978218 -6.864567,1.415853 -8.620769,3.501124 -1.344677,1.596634 -1.495657,1.660982 -2.50681,1.068407 -0.931207,-0.545724 -1.935221,-1.355274 -1.935221,-1.560396 0,-0.07673 0.293256,-0.523577 0.65168,-0.992991 0.852957,-1.117084 1.020971,-1.722047 0.676048,-2.434235 -0.307146,-0.634187 -1.166132,-1.046012 -2.570286,-1.232282 -1.76047,-0.233534 -2.2119874,-0.795854 -2.2119874,-2.754816 0,-1.775711 0.8842614,-2.696022 5.9911984,-6.235448 1.945159,-1.348116 4.276216,-3.140511 5.180126,-3.983098 3.203614,-2.986276 7.037485,-4.922568 9.746716,-4.922568 1.137038,0 1.366643,-0.367646 1.510852,-2.419183 0.06764,-0.962303 0.172077,-1.877565 0.232075,-2.033917 0.197398,-0.5144121 0.733378,-0.6678427 1.383729,-0.3961087 1.351555,0.5647157 2.51962,2.9227827 2.882891,5.8199247 0.220302,1.756942 0.444862,2.318251 1.375282,3.437655 1.464996,1.762559 2.831269,4.833547 3.458378,7.773447 0.467662,2.1924 0.46322,9.474778 -0.0078,12.727258 -0.387994,2.679384 -2.068585,11.466574 -2.222511,11.620684 -0.166516,0.166718 -20.714374,0.172767 -22.392237,0.0066 l 0,-8e-6 z M 13.808536,28.890541 c 0.160849,-0.19381 0.164938,-0.35782 0.01587,-0.636363 -0.245369,-0.458475 -1.386926,-0.519173 -1.926015,-0.102409 -0.346347,0.267756 -0.344923,0.279631 0.0763,0.636363 0.500074,0.423509 1.520085,0.480471 1.833848,0.102409 l 0,0 z m 14.051119,-6.147748 c 0.765267,-0.334785 1.411378,-1.251642 1.412392,-2.004241 5.46e-4,-0.403506 -0.171529,-0.613225 -0.862956,-1.051745 -1.267294,-0.80375 -2.069148,-1.003731 -2.957463,-0.737585 -0.7275,0.217964 -3.28224,2.22014 -4.542537,3.560032 l -0.636364,0.676554 3.454546,-0.07324 c 2.672033,-0.05665 3.608087,-0.14041 4.132382,-0.369776 l 0,0 z"
       id="path2982" />
    <path
       style="fill:#ffffff"
       d="M 41.106664,51.214945 C 40.697762,50.92854 40.68315,50.845927 40.791677,49.43404 40.85427,48.619727 41.14444,46.770789 41.4365,45.325287 43.022127,37.477494 43.359724,29.5795 42.255431,26.166609 c -0.432608,-1.337005 -2.222797,-5.012557 -3.412113,-7.005626 -0.563825,-0.944864 -1.025136,-1.911607 -1.025136,-2.148316 0,-0.714089 0.328772,-1.133747 0.888208,-1.133747 1.538716,0 4.578057,3.671437 6.642328,8.023742 2.7526,5.803577 3.6667,10.930963 4.574269,25.658076 l 0.12045,1.954545 -4.25399,0 c -3.660872,0 -4.313775,-0.04187 -4.682783,-0.300338 l 0,0 z"
       id="path2984" />
    <path
       style="fill:#ffffff"
       d="m 25.192128,22.2021 c -0.398873,-0.569471 -0.352721,-0.997298 0.163244,-1.513263 0.863187,-0.863187 2.055767,-0.423501 1.792014,0.660688 -0.273067,1.122477 -1.416874,1.621226 -1.955258,0.852575 z"
       id="path2986" />
  </g>
</svg>
