<?xml version="1.0" encoding="UTF-8" standalone="no"?>
<!-- Created with Inkscape (http://www.inkscape.org/) -->

<svg
   xmlns:dc="http://purl.org/dc/elements/1.1/"
   xmlns:cc="http://creativecommons.org/ns#"
   xmlns:rdf="http://www.w3.org/1999/02/22-rdf-syntax-ns#"
   xmlns:svg="http://www.w3.org/2000/svg"
   xmlns="http://www.w3.org/2000/svg"
   xmlns:sodipodi="http://sodipodi.sourceforge.net/DTD/sodipodi-0.dtd"
   xmlns:inkscape="http://www.inkscape.org/namespaces/inkscape"
   width="64px"
   height="64px"
   id="svg2816"
   version="1.1"
   inkscape:version="0.47 r22583"
   sodipodi:docname="wq.svg">
  <defs
     id="defs2818">
    <inkscape:perspective
       sodipodi:type="inkscape:persp3d"
       inkscape:vp_x="0 : 32 : 1"
       inkscape:vp_y="0 : 1000 : 0"
       inkscape:vp_z="64 : 32 : 1"
       inkscape:persp3d-origin="32 : 21.333333 : 1"
       id="perspective2824" />
    <inkscape:perspective
       id="perspective2834"
       inkscape:persp3d-origin="0.5 : 0.33333333 : 1"
       inkscape:vp_z="1 : 0.5 : 1"
       inkscape:vp_y="0 : 1000 : 0"
       inkscape:vp_x="0 : 0.5 : 1"
       sodipodi:type="inkscape:persp3d" />
    <inkscape:perspective
       id="perspective2850"
       inkscape:persp3d-origin="0.5 : 0.33333333 : 1"
       inkscape:vp_z="1 : 0.5 : 1"
       inkscape:vp_y="0 : 1000 : 0"
       inkscape:vp_x="0 : 0.5 : 1"
       sodipodi:type="inkscape:persp3d" />
    <inkscape:perspective
       id="perspective2872"
       inkscape:persp3d-origin="0.5 : 0.33333333 : 1"
       inkscape:vp_z="1 : 0.5 : 1"
       inkscape:vp_y="0 : 1000 : 0"
       inkscape:vp_x="0 : 0.5 : 1"
       sodipodi:type="inkscape:persp3d" />
    <inkscape:perspective
       id="perspective2892"
       inkscape:persp3d-origin="0.5 : 0.33333333 : 1"
       inkscape:vp_z="1 : 0.5 : 1"
       inkscape:vp_y="0 : 1000 : 0"
       inkscape:vp_x="0 : 0.5 : 1"
       sodipodi:type="inkscape:persp3d" />
    <inkscape:perspective
       id="perspective2914"
       inkscape:persp3d-origin="0.5 : 0.33333333 : 1"
       inkscape:vp_z="1 : 0.5 : 1"
       inkscape:vp_y="0 : 1000 : 0"
       inkscape:vp_x="0 : 0.5 : 1"
       sodipodi:type="inkscape:persp3d" />
    <inkscape:perspective
       id="perspective2936"
       inkscape:persp3d-origin="0.5 : 0.33333333 : 1"
       inkscape:vp_z="1 : 0.5 : 1"
       inkscape:vp_y="0 : 1000 : 0"
       inkscape:vp_x="0 : 0.5 : 1"
       sodipodi:type="inkscape:persp3d" />
    <inkscape:perspective
       id="perspective2952"
       inkscape:persp3d-origin="0.5 : 0.33333333 : 1"
       inkscape:vp_z="1 : 0.5 : 1"
       inkscape:vp_y="0 : 1000 : 0"
       inkscape:vp_x="0 : 0.5 : 1"
       sodipodi:type="inkscape:persp3d" />
    <inkscape:perspective
       id="perspective2974"
       inkscape:persp3d-origin="0.5 : 0.33333333 : 1"
       inkscape:vp_z="1 : 0.5 : 1"
       inkscape:vp_y="0 : 1000 : 0"
       inkscape:vp_x="0 : 0.5 : 1"
       sodipodi:type="inkscape:persp3d" />
    <inkscape:perspective
       id="perspective2996"
       inkscape:persp3d-origin="0.5 : 0.33333333 : 1"
       inkscape:vp_z="1 : 0.5 : 1"
       inkscape:vp_y="0 : 1000 : 0"
       inkscape:vp_x="0 : 0.5 : 1"
       sodipodi:type="inkscape:persp3d" />
    <inkscape:perspective
       id="perspective3020"
       inkscape:persp3d-origin="0.5 : 0.33333333 : 1"
       inkscape:vp_z="1 : 0.5 : 1"
       inkscape:vp_y="0 : 1000 : 0"
       inkscape:vp_x="0 : 0.5 : 1"
       sodipodi:type="inkscape:persp3d" />
    <inkscape:perspective
       id="perspective3052"
       inkscape:persp3d-origin="0.5 : 0.33333333 : 1"
       inkscape:vp_z="1 : 0.5 : 1"
       inkscape:vp_y="0 : 1000 : 0"
       inkscape:vp_x="0 : 0.5 : 1"
       sodipodi:type="inkscape:persp3d" />
  </defs>
  <sodipodi:namedview
     id="base"
     pagecolor="#ffffff"
     bordercolor="#666666"
     borderopacity="1.0"
     inkscape:pageopacity="0.0"
     inkscape:pageshadow="2"
     inkscape:zoom="5.5"
     inkscape:cx="32"
     inkscape:cy="42.884717"
     inkscape:current-layer="layer1"
     showgrid="true"
     inkscape:document-units="px"
     inkscape:grid-bbox="true"
     inkscape:window-width="1365"
     inkscape:window-height="878"
     inkscape:window-x="-8"
     inkscape:window-y="-8"
     inkscape:window-maximized="1" />
  <metadata
     id="metadata2821">
    <rdf:RDF>
      <cc:Work
         rdf:about="">
        <dc:format>image/svg+xml</dc:format>
        <dc:type
           rdf:resource="http://purl.org/dc/dcmitype/StillImage" />
        <dc:title></dc:title>
      </cc:Work>
    </rdf:RDF>
  </metadata>
  <g
     id="layer1"
     inkscape:label="Layer 1"
     inkscape:groupmode="layer">
    <path
       style="fill:#000000"
       d="m 15.566288,51.586117 c 0,-2.702377 1.320094,-4.757598 4.040884,-6.291149 1.420524,-0.800666 2.995376,-2.255937 3.499672,-3.233933 0.504298,-0.977998 1.542243,-2.345722 2.306545,-3.039388 1.000014,-0.907593 1.389641,-2.056991 1.389641,-4.099429 0,-2.717564 -0.09132,-2.847048 -2.148201,-3.045937 -1.795524,-0.173616 -2.1482,-0.479785 -2.1482,-1.864915 0,-1.193165 0.57825,-1.947067 2.065103,-2.692406 1.862136,-0.933466 1.975823,-1.157656 1.156723,-2.281052 -1.26905,-1.740503 -1.118917,-6.32987 0.263042,-8.040815 3.71912,-4.604486 10.888017,-3.457459 12.694224,2.031082 0.59659,1.812866 0.535372,2.745934 -0.313902,4.784355 -0.728721,1.749072 -0.827282,2.608411 -0.318672,2.778433 0.404996,0.135386 1.524691,0.926195 2.488212,1.757355 1.506966,1.299952 1.628045,1.660806 0.866169,2.581442 -0.487126,0.588633 -1.741594,1.070242 -2.787705,1.070242 -1.798141,0 -1.901629,0.153864 -1.89484,2.817235 0.0064,2.527563 0.400477,3.226184 3.832234,6.794508 2.10378,2.1875 4.628815,4.625866 5.611191,5.418591 1.339883,1.081216 1.786137,2.033505 1.786137,3.811553 l 0,2.370235 -16.194129,0 -16.194128,0 0,-1.626007 z M 45.97159,50.115645 c 0,-0.609313 -0.492264,-1.653348 -1.093922,-2.320076 -0.981921,-1.08812 -2.301571,-1.212233 -12.889204,-1.212233 -10.913969,0 -11.894057,0.09906 -13.117252,1.325757 -0.727083,0.729167 -1.32197,1.773201 -1.32197,2.320076 0,0.853007 2.019677,0.994318 14.211174,0.994318 12.838727,0 14.211174,-0.10699 14.211174,-1.107842 z m -7.404325,-7.912783 c -3.297886,-4.621245 -3.812068,-5.703838 -3.822673,-8.048504 -0.0095,-2.109944 -0.07106,-2.154356 -2.984176,-2.154356 -2.96914,0 -2.974431,0.0042 -2.974431,2.363654 0,2.763709 -0.696613,4.237417 -3.817801,8.076687 l -2.29031,2.817235 9.034673,0 9.034673,0 -2.179955,-3.054716 z m 1.455462,-12.499613 c 0,-1.647244 -2.334162,-2.343398 -7.857263,-2.343398 -5.488048,0 -8.667358,0.890066 -8.667358,2.426477 0,0.694614 1.798736,0.887917 8.26231,0.887917 6.815418,0 8.262311,-0.170041 8.262311,-0.970996 z m -4.891092,-4.176466 c 1.05506,-0.7065 2.247152,-3.180043 2.247152,-4.662747 0,-1.835448 -2.339369,-4.560183 -4.22571,-4.921813 -2.355296,-0.451533 -5.600441,1.154382 -6.35508,3.144918 -0.935447,2.467462 -0.830602,3.231101 0.713992,5.20036 1.092759,1.393199 1.928628,1.744539 4.131155,1.736441 1.518667,-0.0056 3.088487,-0.229304 3.488491,-0.497159 z"
       id="path3058" />
    <path
       style="fill:#ffffff"
       d="m 20.452643,50.971608 c -2.93934,-0.18234 -3.279633,-0.480183 -2.298337,-2.011637 1.076333,-1.679775 1.769729,-1.966064 5.283184,-2.181315 5.886889,-0.36066 19.007106,-0.121366 20.289783,0.370056 1.451423,0.556073 2.629896,2.783817 1.8257,3.451241 -0.150348,0.124777 -1.272468,0.288984 -2.590909,0.379144 -2.678157,0.183141 -19.526788,0.177536 -22.509421,-0.0075 l 0,1e-6 z"
       id="path3060" />
    <path
       style="fill:#ffffff"
       d="m 23.041766,44.924374 c 0.09746,-0.125 0.896992,-1.127273 1.776735,-2.227273 3.240626,-4.051962 3.828735,-5.261096 4.026463,-8.278284 0.157703,-2.406431 0.163903,-2.411031 3.138067,-2.328043 1.321572,0.03687 2.263784,0.143242 2.390049,0.269813 0.11464,0.114917 0.274464,1.049189 0.355165,2.07616 0.180454,2.296397 0.579284,3.137001 3.425873,7.220637 1.065235,1.528155 2.049043,2.939519 2.186241,3.136364 0.247082,0.354503 0.165364,0.357899 -8.613172,0.357899 -7.063392,0 -8.826647,-0.04614 -8.685421,-0.227273 z"
       id="path3062" />
    <path
       style="fill:#ffffff"
       d="m 25.497219,30.418072 c -1.688398,-0.177338 -1.860855,-0.250904 -1.860855,-0.793793 0,-0.850633 1.520541,-1.571642 4.090909,-1.939823 1.738914,-0.249083 7.619061,-0.229687 9.130778,0.03012 1.684434,0.289489 2.689596,0.783944 2.970047,1.461014 0.343762,0.829915 -0.03786,1.089027 -1.860401,1.263155 -1.890032,0.180577 -10.693377,0.165984 -12.470478,-0.02067 z"
       id="path3064" />
    <path
       style="fill:#ffffff"
       d="m 29.468708,25.746504 c -0.569777,-0.107251 -2.390533,-1.941352 -2.804115,-2.824667 -0.983348,-2.100204 0.247077,-4.978221 2.645627,-6.188235 2.559921,-1.291422 4.570557,-0.991743 6.388933,0.952247 1.730794,1.850359 1.974228,3.474939 0.85988,5.738501 -0.707539,1.437215 -1.250865,2.013585 -2.127631,2.257031 -0.681503,0.189228 -4.067339,0.233659 -4.962694,0.06512 l 0,0 z"
       id="path3066" />
  </g>
</svg>
