<?xml version="1.0" encoding="UTF-8" standalone="no"?>
<!-- Created with Inkscape (http://www.inkscape.org/) -->

<svg
   xmlns:dc="http://purl.org/dc/elements/1.1/"
   xmlns:cc="http://creativecommons.org/ns#"
   xmlns:rdf="http://www.w3.org/1999/02/22-rdf-syntax-ns#"
   xmlns:svg="http://www.w3.org/2000/svg"
   xmlns="http://www.w3.org/2000/svg"
   xmlns:sodipodi="http://sodipodi.sourceforge.net/DTD/sodipodi-0.dtd"
   xmlns:inkscape="http://www.inkscape.org/namespaces/inkscape"
   width="64px"
   height="64px"
   id="svg2816"
   version="1.1"
   inkscape:version="0.47 r22583"
   sodipodi:docname="wb.svg">
  <defs
     id="defs2818">
    <inkscape:perspective
       sodipodi:type="inkscape:persp3d"
       inkscape:vp_x="0 : 32 : 1"
       inkscape:vp_y="0 : 1000 : 0"
       inkscape:vp_z="64 : 32 : 1"
       inkscape:persp3d-origin="32 : 21.333333 : 1"
       id="perspective2824" />
    <inkscape:perspective
       id="perspective2834"
       inkscape:persp3d-origin="0.5 : 0.33333333 : 1"
       inkscape:vp_z="1 : 0.5 : 1"
       inkscape:vp_y="0 : 1000 : 0"
       inkscape:vp_x="0 : 0.5 : 1"
       sodipodi:type="inkscape:persp3d" />
    <inkscape:perspective
       id="perspective2850"
       inkscape:persp3d-origin="0.5 : 0.33333333 : 1"
       inkscape:vp_z="1 : 0.5 : 1"
       inkscape:vp_y="0 : 1000 : 0"
       inkscape:vp_x="0 : 0.5 : 1"
       sodipodi:type="inkscape:persp3d" />
    <inkscape:perspective
       id="perspective2872"
       inkscape:persp3d-origin="0.5 : 0.33333333 : 1"
       inkscape:vp_z="1 : 0.5 : 1"
       inkscape:vp_y="0 : 1000 : 0"
       inkscape:vp_x="0 : 0.5 : 1"
       sodipodi:type="inkscape:persp3d" />
    <inkscape:perspective
       id="perspective2892"
       inkscape:persp3d-origin="0.5 : 0.33333333 : 1"
       inkscape:vp_z="1 : 0.5 : 1"
       inkscape:vp_y="0 : 1000 : 0"
       inkscape:vp_x="0 : 0.5 : 1"
       sodipodi:type="inkscape:persp3d" />
    <inkscape:perspective
       id="perspective2914"
       inkscape:persp3d-origin="0.5 : 0.33333333 : 1"
       inkscape:vp_z="1 : 0.5 : 1"
       inkscape:vp_y="0 : 1000 : 0"
       inkscape:vp_x="0 : 0.5 : 1"
       sodipodi:type="inkscape:persp3d" />
    <inkscape:perspective
       id="perspective2936"
       inkscape:persp3d-origin="0.5 : 0.33333333 : 1"
       inkscape:vp_z="1 : 0.5 : 1"
       inkscape:vp_y="0 : 1000 : 0"
       inkscape:vp_x="0 : 0.5 : 1"
       sodipodi:type="inkscape:persp3d" />
    <inkscape:perspective
       id="perspective2952"
       inkscape:persp3d-origin="0.5 : 0.33333333 : 1"
       inkscape:vp_z="1 : 0.5 : 1"
       inkscape:vp_y="0 : 1000 : 0"
       inkscape:vp_x="0 : 0.5 : 1"
       sodipodi:type="inkscape:persp3d" />
    <inkscape:perspective
       id="perspective2974"
       inkscape:persp3d-origin="0.5 : 0.33333333 : 1"
       inkscape:vp_z="1 : 0.5 : 1"
       inkscape:vp_y="0 : 1000 : 0"
       inkscape:vp_x="0 : 0.5 : 1"
       sodipodi:type="inkscape:persp3d" />
    <inkscape:perspective
       id="perspective2996"
       inkscape:persp3d-origin="0.5 : 0.33333333 : 1"
       inkscape:vp_z="1 : 0.5 : 1"
       inkscape:vp_y="0 : 1000 : 0"
       inkscape:vp_x="0 : 0.5 : 1"
       sodipodi:type="inkscape:persp3d" />
    <inkscape:perspective
       id="perspective3020"
       inkscape:persp3d-origin="0.5 : 0.33333333 : 1"
       inkscape:vp_z="1 : 0.5 : 1"
       inkscape:vp_y="0 : 1000 : 0"
       inkscape:vp_x="0 : 0.5 : 1"
       sodipodi:type="inkscape:persp3d" />
  </defs>
  <sodipodi:namedview
     id="base"
     pagecolor="#ffffff"
     bordercolor="#666666"
     borderopacity="1.0"
     inkscape:pageopacity="0.0"
     inkscape:pageshadow="2"
     inkscape:zoom="5.5"
     inkscape:cx="32"
     inkscape:cy="42.884717"
     inkscape:current-layer="layer1"
     showgrid="true"
     inkscape:document-units="px"
     inkscape:grid-bbox="true"
     inkscape:window-width="1365"
     inkscape:window-height="878"
     inkscape:window-x="-8"
     inkscape:window-y="-8"
     inkscape:window-maximized="1" />
  <metadata
     id="metadata2821">
    <rdf:RDF>
      <cc:Work
         rdf:about="">
        <dc:format>image/svg+xml</dc:format>
        <dc:type
           rdf:resource="http://purl.org/dc/dcmitype/StillImage" />
        <dc:title></dc:title>
      </cc:Work>
    </rdf:RDF>
  </metadata>
  <g
     id="layer1"
     inkscape:label="Layer 1"
     inkscape:groupmode="layer">
    <path
       style="fill:#000000"
       d="m 15.926515,52.932195 c -0.250208,-0.250208 -0.454924,-3.142607 -0.454924,-6.427553 0,-5.291487 -0.28307,-6.715095 -2.482118,-12.482994 -1.625478,-4.263475 -2.884579,-6.615611 -3.6482462,-6.815315 -1.8835025,-0.492547 -2.7475789,-3.630816 -1.5168585,-5.509132 1.8745866,-2.860981 6.3176777,-1.775963 6.3176777,1.542798 0,1.037618 0.847623,2.080476 2.672604,3.288191 1.469932,0.972755 2.756989,1.650082 2.860125,1.505171 0.103136,-0.144912 0.714243,-2.883493 1.358015,-6.085737 1.061458,-5.279891 1.073695,-5.919062 0.131353,-6.861404 -2.213545,-2.213544 -0.410911,-6.2623566 2.788161,-6.2623566 2.293942,0 3.673756,1.9043526 3.253999,4.4910126 -0.277497,1.710015 0.14815,3.311219 1.736407,6.532036 1.157209,2.346699 2.413744,4.2642 2.792301,4.261116 0.378556,-0.0031 1.683332,-1.879341 2.899501,-4.169459 1.667754,-3.140478 2.099051,-4.610752 1.754842,-5.982189 -0.604828,-2.409828 1.153327,-5.1325166 3.314282,-5.1325166 3.224758,0 4.741401,3.5189926 2.745044,6.3691916 -0.81516,1.163804 -0.812917,1.974412 0.01651,5.964677 1.567286,7.540067 1.272595,7.166016 4.288811,5.443785 1.525322,-0.870944 2.612894,-1.992564 2.615886,-2.697777 0.01577,-3.719247 4.21281,-5.256554 6.282765,-2.301279 1.474718,2.105455 1.299756,3.059838 -0.945432,5.157158 -1.109547,1.036473 -2.9173,4.149852 -4.1113,7.080633 -1.764546,4.33123 -2.195664,6.431146 -2.506933,12.210883 l -0.375915,6.980114 -15.665815,0.177935 c -8.616197,0.09786 -15.870529,-0.02678 -16.120738,-0.276989 z m 30.789393,-2.553926 c 0,-0.545076 -1.043314,-1.66688 -2.318475,-2.492898 -1.275161,-0.826017 -2.322179,-1.696662 -2.326704,-1.934766 -0.0045,-0.238103 1.060229,-1.063321 2.366123,-1.833818 1.546244,-0.912306 2.296735,-1.804661 2.151808,-2.558561 -0.20211,-1.051365 -1.54932,-1.174109 -14.672647,-1.336817 l -14.450104,-0.179158 0,1.544231 c 0,1.076267 0.72452,1.958292 2.390838,2.910587 l 2.390837,1.366356 -2.390837,1.477619 c -1.400296,0.86543 -2.390838,2.005996 -2.390838,2.752946 0,1.218608 0.650435,1.275327 14.625,1.275327 12.516735,0 14.624999,-0.142865 14.624999,-0.991048 z M 29.604935,47.777602 c -1.182505,-0.766744 -2.150009,-1.543654 -2.150009,-1.726467 0,-0.182812 0.961095,-0.955511 2.135767,-1.717107 2.12211,-1.375866 2.149686,-1.376509 4.31231,-0.10053 1.197098,0.706305 2.172839,1.479004 2.168313,1.717107 -0.0045,0.238104 -0.977561,1.060253 -2.162301,1.826997 l -2.154072,1.394081 -2.150008,-1.394081 z m 16.801237,-8.882953 c 0.683269,-0.485448 4.963145,-10.975225 4.963145,-12.164435 0,-1.123219 -1.330786,-0.656747 -4.809152,1.685722 -1.884936,1.26939 -3.520212,2.214925 -3.633948,2.10119 -0.167842,-0.167843 -2.858036,-14.137637 -2.858036,-14.841376 0,-0.112288 -0.284003,-0.20416 -0.631119,-0.20416 -0.347116,0 -1.855294,2.353019 -3.351508,5.22893 -4.47583,8.603111 -3.937513,8.531051 -7.928681,1.061337 -3.068813,-5.74347 -3.395545,-6.721166 -2.732462,-8.176475 0.88838,-1.949782 -0.366392,-3.7526396 -2.13851,-3.072614 -1.634235,0.627115 -1.933172,2.225566 -0.625597,3.345147 1.127088,0.965043 1.124193,1.302529 -0.06682,7.792736 -1.816364,9.897907 -1.441512,9.501599 -6.085648,6.433982 -2.172254,-1.434852 -4.061017,-2.497358 -4.19725,-2.361125 -0.365347,0.365348 3.143074,10.441506 4.242408,12.184161 0.930538,1.475082 1.138449,1.495599 15.054664,1.485559 7.761103,-0.0056 14.420435,-0.229959 14.798518,-0.498579 z M 12.421353,24.585122 c 1.038565,-1.646467 -1.092864,-3.71689 -2.5669662,-2.493494 -1.238082,1.027517 -1.3152083,2.136186 -0.2244858,3.226908 0.977943,0.977943 1.857768,0.746782 2.791452,-0.733414 z m 41.220299,1.119322 c 1.378198,-0.528864 1.356528,-3.32584 -0.02989,-3.857859 -2.134825,-0.819209 -3.746342,1.826792 -2.109492,3.463642 0.932235,0.932235 0.800558,0.907971 2.13938,0.394217 z M 42.062499,12.538122 c 0,-1.322729 -1.670049,-2.467419 -2.907218,-1.992673 -1.269174,0.487028 -1.458712,3.350516 -0.250452,3.783756 1.159746,0.415843 3.15767,-0.717413 3.15767,-1.791083 z"
       id="path3026" />
    <path
       style="fill:none;stroke:#000000;stroke-width:1px;stroke-linecap:butt;stroke-linejoin:miter;stroke-opacity:1"
       d="m 23.227273,15 c 0.151515,0 0.30303,0 0.454545,0 0.06061,0 0.122389,0.01189 0.181818,0 0.04698,-0.0094 0.08938,-0.03606 0.136364,-0.04546 0.05943,-0.01188 0.124322,0.01917 0.181818,0 0.02033,-0.0068 0.02629,-0.03587 0.04546,-0.04545 0.02857,-0.01428 0.153249,0.01428 0.181818,0 0.01917,-0.0096 0.02629,-0.03587 0.04545,-0.04546 0.01802,-0.009 0.127072,0.0093 0.136364,0 0.01071,-0.01071 -0.01071,-0.03474 0,-0.04545 0.02143,-0.02143 0.06216,0.0096 0.09091,0 0.03214,-0.01071 0.05804,-0.03724 0.09091,-0.04546 0.0294,-0.0073 0.06381,0.01355 0.09091,0 0.01355,-0.0068 -0.01355,-0.03868 0,-0.04545 0.03843,-0.01922 0.178693,0.01619 0.227273,0 0.03214,-0.01071 0.05877,-0.03474 0.09091,-0.04546 0.0483,-0.0161 0.133518,0.0161 0.181818,0 0.02033,-0.0068 0.02629,-0.03587 0.04546,-0.04545 0.01383,-0.0069 0.115893,0 0.136364,0"
       id="path3030" />
    <path
       style="fill:#ffffff"
       d="m 20.727273,51.144131 c -1.15,-0.06955 -2.193182,-0.137226 -2.318182,-0.150382 -0.125,-0.01316 -0.387753,-0.184401 -0.583896,-0.380543 -0.298286,-0.298287 -0.325816,-0.444996 -0.168296,-0.89686 0.249733,-0.716382 1.582108,-1.936867 3.205181,-2.936015 0.724143,-0.445776 1.317325,-0.853822 1.318181,-0.90677 8.55e-4,-0.05295 -0.681493,-0.490976 -1.516331,-0.973399 -2.567892,-1.483891 -3.205657,-2.312723 -3.208371,-4.16956 l -0.001,-0.693773 4.772728,0.101641 c 2.625,0.0559 7.963636,0.147857 11.863636,0.204345 7.811898,0.113147 11.093724,0.296374 11.859164,0.662107 1.177392,0.562566 0.580727,1.658182 -1.760275,3.232268 -0.876529,0.589377 -1.734189,1.212094 -1.905911,1.383817 -0.295085,0.295084 -0.28846,0.335984 0.120678,0.745123 0.238097,0.238096 1.154035,0.982694 2.03542,1.654664 0.881384,0.671969 1.761426,1.482617 1.955646,1.80144 l 0.353129,0.579678 -0.463102,0.303436 c -0.356543,0.233617 -1.164343,0.338787 -3.510743,0.457076 -3.553737,0.179155 -18.994912,0.166343 -22.047642,-0.01829 z m 12.829549,-3.097698 c 0.893748,-0.607868 1.849934,-1.31857 2.124858,-1.579339 l 0.49986,-0.474124 -0.408951,-0.435773 c -0.53015,-0.56492 -2.852612,-2.012031 -3.550172,-2.212088 -0.671493,-0.192582 -1.622716,0.203697 -3.213111,1.338579 -1.621296,1.156933 -1.71481,1.302124 -1.176576,1.826778 0.552483,0.538545 3.645807,2.624688 3.90591,2.634152 0.106252,0.0039 0.924434,-0.490317 1.818182,-1.098185 z"
       id="path3032" />
    <path
       style="fill:#ffffff"
       d="m 19.894935,39.163891 c -1.007785,-0.07932 -2.068878,-0.257706 -2.357984,-0.396413 -0.907938,-0.435609 -1.931281,-2.652844 -3.807665,-8.2499 -1.363745,-4.067906 -1.503043,-4.638658 -1.132114,-4.638658 0.144335,0 1.316745,0.66537 2.605355,1.4786 3.89671,2.459178 4.392217,2.73427 4.812847,2.67196 0.55116,-0.08164 1.036457,-0.789574 1.353728,-1.974754 0.424197,-1.584613 2.085443,-10.846715 2.085443,-11.627169 0,-0.81691 0.03715,-0.853255 0.959974,-0.939187 l 0.687247,-0.064 0.59981,1.460951 c 0.683897,1.665762 4.079629,8.150555 4.874642,9.30905 1.387871,2.022414 1.801313,1.654864 5.058795,-4.497274 2.638696,-4.983491 3.846674,-6.691554 4.259736,-6.023206 0.05392,0.08724 0.470055,2.182814 0.924755,4.65684 0.830567,4.519113 1.594511,8.325129 1.925658,9.593745 l 0.178002,0.681923 0.728118,-0.371458 c 0.400465,-0.204302 1.743753,-1.019059 2.985082,-1.810571 2.644929,-1.686492 3.573316,-2.181818 4.089372,-2.181818 0.778391,0 0.705797,0.571017 -0.485411,3.818182 -0.849967,2.316963 -3.283558,8.001847 -3.616494,8.448151 -0.190304,0.255103 -0.590487,0.39492 -1.399709,0.489031 -1.665237,0.193661 -23.185731,0.334676 -25.329187,0.165971 l 0,0 z"
       id="path3034" />
    <path
       style="fill:#ffffff"
       d="M 9.7484645,25.251627 C 8.7035427,24.206705 8.6684608,23.460518 9.6165394,22.445596 c 1.1247386,-1.204037 2.9289156,-0.429248 2.9289156,1.2578 0,0.569909 -0.134498,0.847053 -0.699121,1.440595 -0.388172,0.408053 -0.870682,0.734929 -1.084849,0.734929 -0.21215,0 -0.668009,-0.282282 -1.0130205,-0.627293 z"
       id="path3036" />
    <path
       style="fill:#ffffff"
       d="m 22.670086,13.710486 c -1.090212,-1.206734 -0.889205,-2.342791 0.545234,-3.081573 1.054397,-0.543048 2.421044,0.271054 2.421044,1.442199 0,0.867407 -0.378761,1.970967 -0.709566,2.067395 -1.316275,0.38369 -1.566206,0.336286 -2.256712,-0.428021 z"
       id="path3038" />
    <path
       style="fill:#ffffff"
       d="m 38.966431,14.236806 c -0.760525,-0.297843 -1.010925,-1.472605 -0.578368,-2.713439 0.387443,-1.111419 1.882437,-1.30794 2.877647,-0.378275 0.692785,0.647158 0.874279,1.369196 0.499447,1.986951 -0.480865,0.792508 -2.0323,1.404918 -2.798726,1.104763 l 0,0 z"
       id="path3040" />
    <path
       style="fill:#ffffff"
       d="m 51.706224,25.414543 c -1.143112,-1.212053 -0.947152,-2.899955 0.402128,-3.46372 1.289476,-0.538777 2.437103,0.316526 2.437103,1.816322 0,1.262408 -0.391064,1.754627 -1.690008,2.12716 -0.487254,0.139742 -0.615415,0.08624 -1.149223,-0.479762 z"
       id="path3042" />
  </g>
</svg>
