<?xml version="1.0" encoding="UTF-8" standalone="no"?>
<!-- Created with Inkscape (http://www.inkscape.org/) -->

<svg
   xmlns:dc="http://purl.org/dc/elements/1.1/"
   xmlns:cc="http://creativecommons.org/ns#"
   xmlns:rdf="http://www.w3.org/1999/02/22-rdf-syntax-ns#"
   xmlns:svg="http://www.w3.org/2000/svg"
   xmlns="http://www.w3.org/2000/svg"
   xmlns:sodipodi="http://sodipodi.sourceforge.net/DTD/sodipodi-0.dtd"
   xmlns:inkscape="http://www.inkscape.org/namespaces/inkscape"
   width="64px"
   height="64px"
   id="svg2816"
   version="1.1"
   inkscape:version="0.47 r22583"
   sodipodi:docname="bp.svg">
  <defs
     id="defs2818">
    <inkscape:perspective
       sodipodi:type="inkscape:persp3d"
       inkscape:vp_x="0 : 32 : 1"
       inkscape:vp_y="0 : 1000 : 0"
       inkscape:vp_z="64 : 32 : 1"
       inkscape:persp3d-origin="32 : 21.333333 : 1"
       id="perspective2824" />
    <inkscape:perspective
       id="perspective2834"
       inkscape:persp3d-origin="0.5 : 0.33333333 : 1"
       inkscape:vp_z="1 : 0.5 : 1"
       inkscape:vp_y="0 : 1000 : 0"
       inkscape:vp_x="0 : 0.5 : 1"
       sodipodi:type="inkscape:persp3d" />
    <inkscape:perspective
       id="perspective2850"
       inkscape:persp3d-origin="0.5 : 0.33333333 : 1"
       inkscape:vp_z="1 : 0.5 : 1"
       inkscape:vp_y="0 : 1000 : 0"
       inkscape:vp_x="0 : 0.5 : 1"
       sodipodi:type="inkscape:persp3d" />
    <inkscape:perspective
       id="perspective2872"
       inkscape:persp3d-origin="0.5 : 0.33333333 : 1"
       inkscape:vp_z="1 : 0.5 : 1"
       inkscape:vp_y="0 : 1000 : 0"
       inkscape:vp_x="0 : 0.5 : 1"
       sodipodi:type="inkscape:persp3d" />
    <inkscape:perspective
       id="perspective2892"
       inkscape:persp3d-origin="0.5 : 0.33333333 : 1"
       inkscape:vp_z="1 : 0.5 : 1"
       inkscape:vp_y="0 : 1000 : 0"
       inkscape:vp_x="0 : 0.5 : 1"
       sodipodi:type="inkscape:persp3d" />
    <inkscape:perspective
       id="perspective2914"
       inkscape:persp3d-origin="0.5 : 0.33333333 : 1"
       inkscape:vp_z="1 : 0.5 : 1"
       inkscape:vp_y="0 : 1000 : 0"
       inkscape:vp_x="0 : 0.5 : 1"
       sodipodi:type="inkscape:persp3d" />
    <inkscape:perspective
       id="perspective2936"
       inkscape:persp3d-origin="0.5 : 0.33333333 : 1"
       inkscape:vp_z="1 : 0.5 : 1"
       inkscape:vp_y="0 : 1000 : 0"
       inkscape:vp_x="0 : 0.5 : 1"
       sodipodi:type="inkscape:persp3d" />
    <inkscape:perspective
       id="perspective2952"
       inkscape:persp3d-origin="0.5 : 0.33333333 : 1"
       inkscape:vp_z="1 : 0.5 : 1"
       inkscape:vp_y="0 : 1000 : 0"
       inkscape:vp_x="0 : 0.5 : 1"
       sodipodi:type="inkscape:persp3d" />
  </defs>
  <sodipodi:namedview
     id="base"
     pagecolor="#ffffff"
     bordercolor="#666666"
     borderopacity="1.0"
     inkscape:pageopacity="0.0"
     inkscape:pageshadow="2"
     inkscape:zoom="5.5"
     inkscape:cx="32"
     inkscape:cy="42.884717"
     inkscape:current-layer="layer1"
     showgrid="true"
     inkscape:document-units="px"
     inkscape:grid-bbox="true"
     inkscape:window-width="1365"
     inkscape:window-height="878"
     inkscape:window-x="-8"
     inkscape:window-y="-8"
     inkscape:window-maximized="1" />
  <metadata
     id="metadata2821">
    <rdf:RDF>
      <cc:Work
         rdf:about="">
        <dc:format>image/svg+xml</dc:format>
        <dc:type
           rdf:resource="http://purl.org/dc/dcmitype/StillImage" />
        <dc:title></dc:title>
      </cc:Work>
    </rdf:RDF>
  </metadata>
  <g
     id="layer1"
     inkscape:label="Layer 1"
     inkscape:groupmode="layer">
    <path
       style="fill:#000000"
       d="m 11.892678,52.7702 c -0.243056,-0.243055 -0.44192,-1.781972 -0.44192,-3.419817 0,-2.648193 0.316198,-3.278141 2.85591,-5.689709 3.591342,-3.410137 7.750151,-11.742893 7.750151,-15.528511 0,-2.272205 -0.279325,-2.822545 -1.803518,-3.55338 -2.556319,-1.22573 -3.478512,-3.512516 -3.48974,-8.653595 l -0.0098,-4.474432 3.645833,0 c 3.609006,0 3.645833,0.02008 3.645833,1.988636 0,1.546717 0.294613,1.988637 1.325758,1.988637 1.031145,0 1.325758,-0.44192 1.325758,-1.988637 l 0,-1.988636 4.97159,0 4.971591,0 0,1.988636 c 0,1.546717 0.294613,1.988637 1.325758,1.988637 1.031145,0 1.325758,-0.44192 1.325758,-1.988637 0,-1.968549 0.03683,-1.988636 3.645833,-1.988636 l 3.645833,0 0,4.824096 c 0,5.270447 -0.936113,7.403246 -3.712727,8.458912 -2.332933,0.88698 -2.168763,4.881519 0.398333,9.692148 1.09375,2.049641 1.988637,4.09528 1.988637,4.545864 0,0.450584 1.527201,2.30694 3.393781,4.125236 3.027856,2.949535 3.389707,3.601174 3.355998,6.043654 -0.02078,1.505712 -0.223256,3.037763 -0.449948,3.404557 -0.461624,0.746925 -38.924621,0.965086 -39.66473,0.224977 z m 38.667929,-3.637178 c 0,-1.602889 -0.644156,-2.685143 -2.761812,-4.640151 l -2.761811,-2.549691 -13.018495,0 c -12.719805,0 -13.068232,0.03669 -15.186221,1.599297 -2.961233,2.184729 -4.009795,3.707176 -4.034671,5.85809 l -0.02108,1.822916 18.892045,0 18.892046,0 0,-2.090461 z M 43.338328,38.463067 c -0.665091,-1.54948 -1.846557,-3.861269 -2.625481,-5.137311 -0.92039,-1.507796 -1.417091,-3.422456 -1.418702,-5.46875 l -0.0025,-3.148674 -7.543434,0 -7.543435,0 -0.282424,3.811553 c -0.197078,2.659743 -0.809906,4.612812 -2.02796,6.463068 -0.960045,1.458333 -1.945178,3.471828 -2.189185,4.474432 l -0.443649,1.822917 12.643002,0 12.643001,0 -1.209256,-2.817235 z M 43.62286,22.031976 c 0.801986,-0.886184 1.320581,-2.709672 1.508168,-5.30303 l 0.285893,-3.952433 -2.068309,0 c -1.856201,0 -2.068308,0.203937 -2.068308,1.988637 0,1.944444 -0.07365,1.988636 -3.314394,1.988636 -3.240741,0 -3.314394,-0.04419 -3.314394,-1.988636 0,-1.914983 -0.11048,-1.988637 -2.982955,-1.988637 -2.872474,0 -2.982954,0.07365 -2.982954,1.988637 0,1.944444 -0.07365,1.988636 -3.314394,1.988636 -3.240741,0 -3.314394,-0.04419 -3.314394,-1.988636 0,-1.679293 -0.257786,-1.988637 -1.657197,-1.988637 -1.588654,0 -1.657197,0.1692 -1.657197,4.090797 0,6.455122 0.119321,6.515264 12.926136,6.515264 9.955969,0 10.82041,-0.09766 11.954299,-1.350598 z"
       id="path2958" />
    <path
       style="fill:#ffffff"
       d="m 12.909091,49.820399 c 0,-2.06478 0.364223,-2.889554 1.982184,-4.488604 0.759798,-0.750918 1.786842,-1.632269 2.282317,-1.958557 1.870769,-1.231967 1.398124,-1.193174 15.371863,-1.261677 l 12.636363,-0.06195 2.110511,2.051017 c 2.695216,2.619238 3.059706,3.234737 3.200256,5.404158 l 0.106695,1.646858 -18.845095,0 -18.845094,0 0,-1.331248 z"
       id="path2960" />
    <path
       style="fill:#ffffff"
       d="m 19.454545,40.917119 c 0,-0.850359 0.758985,-2.766583 1.995548,-5.038199 2.09737,-3.852955 2.246062,-4.337547 2.580248,-8.409091 l 0.22012,-2.681818 7.511133,0 7.511133,0 0,2.243643 c 0,2.794306 0.396809,4.476865 1.558348,6.607735 1.379483,2.530696 3.532561,7.06379 3.532561,7.437461 0,0.04114 -5.604545,0.0748 -12.454545,0.0748 -10.047898,0 -12.454546,-0.04532 -12.454546,-0.234528 z"
       id="path2962" />
    <path
       style="fill:#ffffff"
       d="m 24.454545,23.218133 c -3.100534,-0.244065 -4.485314,-0.708339 -5.062722,-1.697376 -0.656422,-1.12438 -0.811286,-7.486648 -0.202498,-8.319215 0.271314,-0.371045 2.129942,-0.439719 2.478098,-0.09156 0.11994,0.11994 0.247835,0.730654 0.284211,1.357143 0.135148,2.327583 0.214095,2.375506 3.772267,2.289864 2.907789,-0.06999 3.001799,-0.125548 3.005854,-1.776454 0.0038,-1.562262 0.116722,-1.797803 0.972904,-2.030039 0.918077,-0.249026 4.22937,-0.121363 4.525196,0.174463 0.115269,0.115269 0.270079,0.84295 0.344022,1.617069 0.195635,2.048116 0.264599,2.087008 3.570056,2.013355 3.072652,-0.06847 3.022947,-0.03732 3.187227,-1.996866 0.06696,-0.798656 0.216715,-1.412481 0.38588,-1.581648 0.193029,-0.193028 0.779824,-0.300524 1.94444,-0.356205 l 1.667982,-0.07975 -0.128691,2.069003 c -0.352509,5.66738 -1.151575,7.628133 -3.324122,8.156773 -0.85062,0.206978 -15.329939,0.415974 -17.420104,0.251443 l 0,0 z"
       id="path2964" />
  </g>
</svg>
