<?xml version="1.0" encoding="UTF-8" standalone="no"?>
<!-- Created with Inkscape (http://www.inkscape.org/) -->

<svg
   xmlns:dc="http://purl.org/dc/elements/1.1/"
   xmlns:cc="http://creativecommons.org/ns#"
   xmlns:rdf="http://www.w3.org/1999/02/22-rdf-syntax-ns#"
   xmlns:svg="http://www.w3.org/2000/svg"
   xmlns="http://www.w3.org/2000/svg"
   xmlns:sodipodi="http://sodipodi.sourceforge.net/DTD/sodipodi-0.dtd"
   xmlns:inkscape="http://www.inkscape.org/namespaces/inkscape"
   width="64px"
   height="64px"
   id="svg2996"
   version="1.1"
   inkscape:version="0.48.1 "
   sodipodi:docname="wq.svg">
  <defs
     id="defs2998" />
  <sodipodi:namedview
     id="base"
     pagecolor="#ffffff"
     bordercolor="#666666"
     borderopacity="1.0"
     inkscape:pageopacity="0.0"
     inkscape:pageshadow="2"
     inkscape:zoom="7.7781746"
     inkscape:cx="22.538834"
     inkscape:cy="40.689171"
     inkscape:current-layer="layer1"
     showgrid="true"
     inkscape:document-units="px"
     inkscape:grid-bbox="true"
     inkscape:window-width="1365"
     inkscape:window-height="878"
     inkscape:window-x="-8"
     inkscape:window-y="-8"
     inkscape:window-maximized="1" />
  <metadata
     id="metadata3001">
    <rdf:RDF>
      <cc:Work
         rdf:about="">
        <dc:format>image/svg+xml</dc:format>
        <dc:type
           rdf:resource="http://purl.org/dc/dcmitype/StillImage" />
        <dc:title></dc:title>
      </cc:Work>
    </rdf:RDF>
  </metadata>
  <g
     id="layer1"
     inkscape:label="Layer 1"
     inkscape:groupmode="layer">
    <path
       style="fill:#000000"
       d="m 7.828953,55.2375 c -1.230636,-4.431309 -0.45727,-6.398169 4.019634,-10.222907 1.997633,-1.706632 3.241767,-3.277681 3.670967,-4.635571 0.357078,-1.129712 1.624079,-3.857812 2.815557,-6.062444 1.957939,-3.62284 2.150626,-4.336543 2.003124,-7.419476 C 20.198983,23.986613 20.01361,23.457211 19.075033,23.289543 17.371748,22.985268 15.000874,20.4456 14.399619,18.281265 14.100721,17.20532 13.854787,14.159375 13.8531,11.5125 L 13.85,6.7 l 4.4,0 4.4,0 0,2.475 c 0,2.383333 0.06111,2.475 1.65,2.475 1.588889,0 1.65,-0.09167 1.65,-2.475 l 0,-2.475 6.05,0 6.05,0 0,2.475 c 0,2.383333 0.06111,2.475 1.65,2.475 1.588889,0 1.65,-0.09167 1.65,-2.475 l 0,-2.475 4.4,0 4.4,0 -0.0031,4.8125 c -0.0017,2.646875 -0.24762,5.69282 -0.546519,6.768765 -0.601254,2.164335 -2.972128,4.704003 -4.675413,5.008278 -0.938577,0.167668 -1.12395,0.69707 -1.263202,3.607559 -0.147503,3.082933 0.04518,3.796636 2.003123,7.419476 1.191479,2.204632 2.45848,4.932732 2.815558,6.062444 0.4292,1.35789 1.673333,2.928939 3.670965,4.635571 4.476905,3.824738 5.250271,5.791598 4.019635,10.222907 L 55.598277,57.3 31.99998,57.3 8.401685,57.3 7.8289,55.2375 z m 46.721082,-2.728924 c 0,-2.443286 -0.178651,-2.757681 -3.125294,-5.499997 L 48.29945,44.1 l -16.299417,0 -16.299417,0 -3.125291,2.908579 C 9.628683,49.750895 9.450033,50.06529 9.450033,52.508576 l 0,2.591424 22.55,0 22.550002,0 0,-2.591424 z M 46.319953,40.304501 C 45.778072,38.821976 44.438161,36.15647 43.342374,34.381154 41.50278,31.400777 41.350033,30.827345 41.350033,26.901653 l 0,-4.251653 -9.35,0 -9.35,0 0,4.251653 c 0,3.925692 -0.152747,4.499124 -1.992341,7.479501 -1.095787,1.775316 -2.435698,4.440822 -2.977579,5.923347 L 16.694873,43 l 15.30516,0 15.30516,0 -0.98524,-2.695499 z m 0.371058,-20.898337 c 1.046466,-1.553326 1.259022,-2.597942 1.259022,-6.1875 l 0,-4.318664 -2.2,0 -2.2,0 0,2.475 0,2.475 -3.85,0 -3.85,0 0,-2.475 0,-2.475 -3.85,0 -3.85,0 0,2.475 0,2.475 -3.85,0 -3.85,0 0,-2.475 0,-2.475 -2.2,0 -2.2,0 0,4.161158 c 0,4.102499 0.422185,5.625081 2.089574,7.535907 0.773988,0.88699 2.005423,0.959194 14.070304,0.825 L 45.431989,21.275 46.691011,19.406164 z"
       id="path3286"
       inkscape:connector-curvature="0" />
    <path
       style="fill:#ffffff"
       d="m 9.5295201,52.887177 c 0.085266,-3.057708 -0.075429,-2.79677 4.2358669,-6.87822 l 2.003124,-1.896332 16.232698,0 16.232698,0 2.003123,1.896332 c 4.311297,4.08145 4.150601,3.820512 4.235868,6.87822 l 0.06005,2.153462 -22.531739,0 -22.5317395,0 0.060051,-2.153462 z"
       id="path3288"
       inkscape:connector-curvature="0" />
    <path
       style="fill:#ffffff"
       d="m 16.830554,42.901253 c 0,-0.02986 0.237407,-0.709645 0.52757,-1.510637 0.693507,-1.914415 1.98012,-4.573816 3.432312,-7.094518 0.645869,-1.121094 1.297029,-2.364959 1.447022,-2.764145 0.338238,-0.900173 0.497743,-2.893016 0.503142,-6.286223 l 0.0039,-2.474874 9.256671,0 9.25667,0 0.0021,2.603439 c 0.0027,3.331268 0.158974,5.22975 0.507169,6.160384 0.148795,0.397687 0.798973,1.640325 1.444842,2.761419 1.452191,2.520702 2.738804,5.180103 3.432311,7.094518 0.29016,0.800992 0.527566,1.480779 0.527566,1.510637 0,0.02986 -6.826794,0.05429 -15.170654,0.05429 -8.34386,0 -15.170655,-0.02443 -15.170655,-0.05429 z"
       id="path3290"
       inkscape:connector-curvature="0" />
    <path
       style="fill:#ffffff"
       d="m 20.301806,21.274698 c -1.601557,-0.233839 -2.035948,-0.48813 -2.818081,-1.649696 -1.017248,-1.51074 -1.260199,-2.780498 -1.375482,-7.188802 l -0.08948,-3.4217846 2.205805,0 2.205805,0 0,2.4427326 0,2.442732 3.921229,0 3.921229,0 0,-2.442732 0,-2.4427326 3.728381,0 3.728381,0 0,2.4427326 0,2.442732 3.921228,0 3.921229,0 0,-2.442732 0,-2.4427326 2.206259,0 2.20626,0 -0.08526,3.4391106 c -0.122002,4.921307 -0.186856,5.211297 -1.672598,7.478884 l -0.821165,1.253286 -5.437602,0.08547 c -5.522609,0.08681 -19.079089,0.08924 -19.666137,0.0035 z"
       id="path3292"
       inkscape:connector-curvature="0" />
  </g>
</svg>
