<?xml version="1.0" encoding="UTF-8" standalone="no"?>
<!-- Created with Inkscape (http://www.inkscape.org/) -->

<svg
   xmlns:dc="http://purl.org/dc/elements/1.1/"
   xmlns:cc="http://creativecommons.org/ns#"
   xmlns:rdf="http://www.w3.org/1999/02/22-rdf-syntax-ns#"
   xmlns:svg="http://www.w3.org/2000/svg"
   xmlns="http://www.w3.org/2000/svg"
   xmlns:sodipodi="http://sodipodi.sourceforge.net/DTD/sodipodi-0.dtd"
   xmlns:inkscape="http://www.inkscape.org/namespaces/inkscape"
   width="64px"
   height="64px"
   id="svg2985"
   version="1.1"
   inkscape:version="0.48.1 "
   sodipodi:docname="wq.svg">
  <defs
     id="defs2987" />
  <sodipodi:namedview
     id="base"
     pagecolor="#ffffff"
     bordercolor="#666666"
     borderopacity="1.0"
     inkscape:pageopacity="0.0"
     inkscape:pageshadow="2"
     inkscape:zoom="5.5"
     inkscape:cx="10.272727"
     inkscape:cy="32"
     inkscape:current-layer="layer1"
     showgrid="true"
     inkscape:document-units="px"
     inkscape:grid-bbox="true"
     inkscape:window-width="1365"
     inkscape:window-height="878"
     inkscape:window-x="-8"
     inkscape:window-y="-8"
     inkscape:window-maximized="1" />
  <metadata
     id="metadata2990">
    <rdf:RDF>
      <cc:Work
         rdf:about="">
        <dc:format>image/svg+xml</dc:format>
        <dc:type
           rdf:resource="http://purl.org/dc/dcmitype/StillImage" />
        <dc:title></dc:title>
      </cc:Work>
    </rdf:RDF>
  </metadata>
  <g
     id="layer1"
     inkscape:label="Layer 1"
     inkscape:groupmode="layer">
    <text
       xml:space="preserve"
       style="font-size:64px;font-style:normal;font-variant:normal;font-weight:normal;font-stretch:normal;line-height:125%;letter-spacing:0px;word-spacing:0px;fill:#000000;fill-opacity:1;stroke:none;font-family:Chessterton;-inkscape-font-specification:Chessterton"
       x="0"
       y="51.007813"
       id="text3029"
       sodipodi:linespacing="125%"><tspan
         sodipodi:role="line"
         id="tspan3031"
         x="0"
         y="51.007813">3</tspan></text>
    <path
       style="fill:#ffffff;fill-opacity:1;fill-rule:evenodd"
       d="m 15.459178,58.607431 c -0.92193,-0.40102 -1.240996,-1.063583 -1.240996,-2.577011 0,-1.424904 0.321941,-2.113188 1.199345,-2.564103 0.33705,-0.173217 4.130309,-0.225206 16.582411,-0.227273 17.723649,-0.0029 16.900357,-0.05389 17.487893,1.082277 0.386389,0.747194 0.366105,2.796981 -0.03439,3.474961 -0.662999,1.122365 0.07487,1.077135 -17.444559,1.069329 -13.173611,-0.0059 -16.073663,-0.05111 -16.549707,-0.25818 l 0,0 z"
       id="path3033"
       inkscape:connector-curvature="0" />
    <path
       style="fill:#ffffff;fill-opacity:1;fill-rule:evenodd"
       d="m 15.26207,48.086322 c -0.785791,-0.436402 -1.043595,-1.032237 -1.043746,-2.412302 -1.6e-4,-1.448697 0.240124,-2.050858 0.996704,-2.497781 0.469651,-0.277429 1.923081,-0.303512 16.913025,-0.303512 l 16.39922,0 0.618182,0.618182 c 0.602512,0.602513 0.618181,0.655972 0.618181,2.109091 0,1.453119 -0.01567,1.506578 -0.618181,2.109091 L 48.527273,48.327273 32.1,48.320831 c -12.822963,-0.005 -16.517375,-0.05648 -16.83793,-0.234509 z"
       id="path3035"
       inkscape:connector-curvature="0" />
    <path
       style="fill:#ffffff;fill-opacity:1;fill-rule:evenodd"
       d="M 13.821303,39.326729 C 10.137005,38.525853 7.0888325,35.748647 5.8528057,32.066587 4.0974908,26.837595 6.3603905,21.160613 11.214267,18.616181 c 1.629757,-0.854329 3.100921,-1.197999 5.128323,-1.197999 2.732258,0 4.860946,0.743663 7.04875,2.462499 1.380296,1.084422 2.254798,2.2861 3.198915,4.395714 0.437676,0.977983 0.956363,1.962241 1.15264,2.187241 0.464276,0.532224 1.51044,0.555757 2.020741,0.04546 0.350477,-0.350476 0.363637,-0.60606 0.363637,-7.06273 0,-6.391746 -0.01613,-6.713691 -0.3516,-7.017287 -0.496466,-0.449295 -1.605289,-0.811729 -2.512037,-0.821093 -1.082572,-0.01118 -0.96446,-0.312207 0.181819,-0.463388 1.365965,-0.180156 2.466092,-0.697734 2.578663,-1.213187 0.05073,-0.2322733 0.169351,-1.109128 0.263609,-1.948566 0.187322,-1.6682337 0.533868,-2.3415536 1.344173,-2.6116549 0.639749,-0.2132502 1.415491,0.1632807 1.742636,0.8458443 0.137817,0.2875443 0.292371,1.2277082 0.343455,2.089253 0.05108,0.8615447 0.184524,1.681684 0.296534,1.8225316 0.37948,0.477176 1.645973,0.917662 2.658202,0.924523 0.960538,0.0065 1.663275,0.221473 1.337593,0.409164 -0.08568,0.04938 -0.674769,0.146346 -1.309095,0.215492 -1.372718,0.149635 -1.977749,0.358985 -2.528498,0.874903 l -0.409091,0.383218 0,6.498891 c 0,3.57439 0.05082,6.631335 0.112942,6.793213 0.178397,0.464891 1.115253,0.865002 1.716295,0.732991 0.721289,-0.158422 1.129627,-0.735042 1.718532,-2.426764 1.154333,-3.315994 4.123788,-5.954818 7.7215,-6.861757 1.617751,-0.407815 4.744028,-0.269019 6.29891,0.279649 2.98338,1.052741 5.750523,3.814739 6.801625,6.788976 0.555113,1.570767 0.699135,4.853698 0.285144,6.49974 -0.495162,1.968785 -1.325569,3.390972 -2.941615,5.037927 -1.211687,1.23486 -1.737333,1.622396 -3.000289,2.211978 -4.434638,2.070207 -9.341584,1.205949 -12.794618,-2.253511 -1.475849,-1.478594 -2.239613,-2.880312 -2.830578,-5.194894 -0.458484,-1.795704 -0.593235,-2.075624 -1.186226,-2.464168 -0.633269,-0.414932 -1.39938,-0.06354 -2.108471,0.967088 -0.523932,0.761509 -1.105934,1.145436 -1.736385,1.145436 -0.15576,0 -0.791975,-0.531818 -1.413815,-1.181818 -1.788192,-1.869176 -2.382798,-1.600456 -3.212434,1.4518 -0.297295,1.093756 -0.759333,2.400911 -1.026753,2.904787 -0.687742,1.29586 -3.155764,3.7087 -4.5285,4.427246 -2.297141,1.202418 -5.247226,1.59254 -7.817597,1.033805 l 0,0 z"
       id="path3037"
       inkscape:connector-curvature="0" />
  </g>
</svg>
