<?xml version="1.0" encoding="UTF-8" standalone="no"?>
<!-- Created with Inkscape (http://www.inkscape.org/) -->

<svg
   xmlns:dc="http://purl.org/dc/elements/1.1/"
   xmlns:cc="http://creativecommons.org/ns#"
   xmlns:rdf="http://www.w3.org/1999/02/22-rdf-syntax-ns#"
   xmlns:svg="http://www.w3.org/2000/svg"
   xmlns="http://www.w3.org/2000/svg"
   xmlns:sodipodi="http://sodipodi.sourceforge.net/DTD/sodipodi-0.dtd"
   xmlns:inkscape="http://www.inkscape.org/namespaces/inkscape"
   version="1.0"
   width="504"
   height="504"
   id="svg2"
   inkscape:version="0.47 r22583"
   sodipodi:docname="bk.svg">
  <metadata
     id="metadata16">
    <rdf:RDF>
      <cc:Work
         rdf:about="">
        <dc:format>image/svg+xml</dc:format>
        <dc:type
           rdf:resource="http://purl.org/dc/dcmitype/StillImage" />
      </cc:Work>
    </rdf:RDF>
  </metadata>
  <sodipodi:namedview
     pagecolor="#ffffff"
     bordercolor="#666666"
     borderopacity="1"
     objecttolerance="10"
     gridtolerance="10"
     guidetolerance="10"
     inkscape:pageopacity="0"
     inkscape:pageshadow="2"
     inkscape:window-width="1365"
     inkscape:window-height="878"
     id="namedview14"
     showgrid="false"
     inkscape:zoom="0.46825397"
     inkscape:cx="252"
     inkscape:cy="252"
     inkscape:window-x="-8"
     inkscape:window-y="-8"
     inkscape:window-maximized="1"
     inkscape:current-layer="svg2" />
  <defs
     id="defs4">
    <inkscape:perspective
       sodipodi:type="inkscape:persp3d"
       inkscape:vp_x="0 : 252 : 1"
       inkscape:vp_y="0 : 1000 : 0"
       inkscape:vp_z="504 : 252 : 1"
       inkscape:persp3d-origin="252 : 168 : 1"
       id="perspective18" />
  </defs>
  <g
     transform="translate(267.35463,-46.40875)"
     id="layer1">
    <g
       transform="translate(-1.6317841e-6,560.00002)"
       id="g2582">
      <path
         d="M 203.5746,-93.525513 C 167.90526,-95.79785 138.73986,-102.56813 113.75,-114.37685 C 101.16103,-120.32564 102.10891,-117.17521 105.31496,-142.41184 L 107.53815,-159.91183 L 105.23234,-185.41183 C 103.7249,-202.08253 102.49491,-211.25809 101.67997,-211.91184 C 100.99436,-212.46185 97.78603,-217.63684 94.55034,-223.41184 C 85.991591,-238.68736 75.87475,-253.93978 63.37555,-270.41184 C 48.614441,-289.86477 44.46341,-296.1461 39.81811,-306.05892 C 30.521649,-325.89704 30.76554,-344.39667 40.58584,-364.29144 C 44.153442,-371.519 46.85441,-375.32575 52.35786,-380.88302 C 76.538539,-405.30012 113.315,-407.84285 153.1233,-387.84991 C 181.49874,-373.59891 201.37849,-357.23056 222.88317,-330.41184 C 224.38201,-328.54263 223.54095,-332.075 219.54977,-344.41184 C 211.90541,-368.04077 210.54962,-375.22883 210.59052,-391.91184 C 210.61975,-403.83638 210.9615,-406.87545 212.89577,-412.41184 C 218.04365,-427.14641 227.60135,-438.82309 238.76895,-444.02121 L 244.97919,-446.91183 L 244.98959,-466.66183 L 245,-486.41183 L 228.5,-486.41183 L 212,-486.41183 L 212,-493.91183 L 212,-501.41183 L 228.5,-501.41183 L 245,-501.41183 L 245,-512.41187 L 245,-523.41187 L 252.5,-523.41187 L 260,-523.41187 L 260,-512.41187 L 260,-501.41183 L 276,-501.41183 L 292,-501.41183 L 292,-493.91183 L 292,-486.41183 L 276,-486.41183 L 260,-486.41183 L 260,-466.52917 L 260,-446.64655 L 265.75,-443.84323 C 276.56017,-438.5729 286.09309,-426.75504 291.10423,-412.41184 C 293.03849,-406.87546 293.38025,-403.83637 293.40948,-391.91184 C 293.45038,-375.22884 292.09459,-368.04076 284.45023,-344.41184 C 280.45906,-332.07501 279.61799,-328.54262 281.11683,-330.41184 C 302.62152,-357.23057 322.50125,-373.59891 350.8767,-387.84991 C 390.68499,-407.84285 427.46146,-405.30013 451.64214,-380.88302 C 457.14558,-375.32574 459.84656,-371.519 463.41416,-364.29144 C 473.23447,-344.39667 473.47835,-325.89705 464.18189,-306.05892 C 459.5366,-296.14609 455.38556,-289.86476 440.62445,-270.41184 C 428.12525,-253.93979 418.00841,-238.68735 409.44966,-223.41184 C 406.21398,-217.63685 403.00564,-212.46184 402.32003,-211.91184 C 401.50508,-211.2581 400.2751,-202.08253 398.76766,-185.41184 L 396.46185,-159.91183 L 398.68503,-142.41183 C 401.88256,-117.24236 402.68548,-120.21957 391.25,-114.84297 C 377.20343,-108.23871 370.17429,-105.6998 355.35558,-101.878 C 338.99754,-97.659212 319.44199,-94.78541 298,-93.4493 C 279.01743,-92.266437 222.62408,-92.31195 203.5746,-93.52551 L 203.5746,-93.525513 z"
         transform="translate(-267.35463,46.40875)"
         id="path2439"
         style="fill:#2B2B3C" />
      <path
         d="M 253,-270.1087 C 253,-271.04198 259.53047,-291.22729 267.51215,-314.96495 C 283.24143,-361.74409 285.65013,-370.68881 286.61733,-385.91184 C 287.84899,-405.2973 283.19491,-420.3761 272.78489,-430.72775 C 265.44589,-438.0256 261.23559,-439.8794 252,-439.8794 C 242.76442,-439.87941 238.55412,-438.0256 231.21511,-430.72775 C 220.80509,-420.3761 216.15101,-405.29729 217.38267,-385.91184 C 218.34987,-370.68882 220.75858,-361.74408 236.48785,-314.96495 C 244.46953,-291.2273 251,-271.04198 251,-270.10871 C 251.00001,-269.17544 251.45,-268.41184 252,-268.41184 C 252.55001,-268.41185 253,-269.17543 253,-270.10871 L 253,-270.1087 z"
         transform="translate(-267.35463,46.40875)"
         id="path2578"
         style="fill:#ffffff" />
      <path
         d="M 130.18236,-210.92567 C 151.83738,-217.10318 178.07425,-222.06927 205,-225.08711 C 226.67908,-227.5169 277.32093,-227.5169 299,-225.08711 C 325.92576,-222.06927 352.16262,-217.10318 373.81764,-210.92568 C 380.59235,-208.99308 386.97032,-207.41184 387.99092,-207.41184 C 391.54619,-207.41185 395.95456,-212.59497 403.13008,-225.21162 C 413.34392,-243.17051 422.91733,-257.66577 435.62445,-274.41184 C 449.97986,-293.33012 454.58695,-300.22425 458.20231,-308.19775 C 473.42922,-341.77997 457.53472,-379.76392 423.5,-391.12776 C 416.33635,-393.51964 414.03638,-393.79706 401.5,-393.78144 C 389.64219,-393.76669 386.03508,-393.37018 377.92623,-391.19023 C 351.85727,-384.18195 326.26082,-368.6019 303.52667,-345.90474 C 290.30398,-332.70355 280.74395,-319.97295 273.09185,-305.37623 C 267.57474,-294.8521 262.96969,-278.7414 258.82276,-255.45607 L 256.5,-242.41354 L 252,-242.41354 L 247.5,-242.41354 L 245.17725,-255.45607 C 241.03031,-278.7414 236.42526,-294.85209 230.90815,-305.37623 C 223.25605,-319.97296 213.69602,-332.70356 200.47333,-345.90474 C 177.73919,-368.60189 152.14272,-384.18194 126.07377,-391.19023 C 117.96492,-393.37019 114.35781,-393.76668 102.5,-393.78144 C 89.96362,-393.79707 87.66365,-393.51963 80.5,-391.12776 C 46.46528,-379.76393 30.57079,-341.77997 45.79769,-308.19775 C 49.413049,-300.22425 54.02014,-293.33011 68.37555,-274.41184 C 81.082671,-257.66578 90.65609,-243.17051 100.86992,-225.21162 C 108.04544,-212.59497 112.45382,-207.41184 116.00908,-207.41184 C 117.02968,-207.41185 123.40766,-208.99307 130.18236,-210.92568 L 130.18236,-210.92567 z"
         transform="translate(-267.35463,46.40875)"
         id="path2572"
         style="fill:#ffffff" />
      <path
         d="M 132.9234,-156.33952 C 156.20442,-164.90625 183.46861,-171.48964 210.5,-175.07167 C 220.20352,-176.35752 230.72693,-176.79435 252,-176.79435 C 273.27308,-176.79434 283.79649,-176.35752 293.5,-175.07167 C 320.67443,-171.47069 347.78697,-164.90942 371.4058,-156.21839 C 383.51779,-151.76155 386.24052,-151.80455 388.87283,-156.49434 C 390.84913,-160.01537 389.62627,-164.06038 385.90053,-166.32614 C 381.2833,-169.13403 353.48947,-178.10938 337.60345,-181.9225 C 306.08244,-189.48849 285.45801,-191.88995 252,-191.88995 C 212.30461,-191.88995 180.54654,-187.16086 144.22445,-175.8411 C 119.34243,-168.08664 114,-165.22363 114,-159.64388 C 114,-156.95427 118.13243,-152.41184 120.57929,-152.41184 C 121.4979,-152.41185 127.05275,-154.1793 132.9234,-156.33953 L 132.9234,-156.33952 z"
         transform="translate(-267.35463,46.40875)"
         id="path2570"
         style="fill:#ffffff" />
      <path
         d="M 126.11168,-116.30199 C 153.77177,-128.81576 192.53239,-138.50067 226.30447,-141.33661 C 276.53559,-145.55467 329.9979,-136.8563 376.43857,-116.90963 L 384.84436,-113.29928 L 389.92218,-115.8724 C 400.916,-121.44339 394.64608,-126.67474 363.5,-137.9179 C 329.99814,-150.01146 287.74325,-157.39121 252,-157.39121 C 216.25676,-157.39122 174.00187,-150.01145 140.5,-137.9179 C 109.6204,-126.77094 103.17347,-121.48316 113.75,-115.97757 C 116.3625,-114.61764 118.77526,-113.48401 119.11168,-113.4584 C 119.44811,-113.43279 122.59811,-114.71241 126.11168,-116.30199 z"
         transform="translate(-267.35463,46.40875)"
         id="path2568"
         style="fill:#ffffff" />
      <path
         d="M 243.68834,-318.16183 C 234.94838,-344.15323 230.70548,-360.15781 228.37848,-375.91184 C 224.90888,-399.40151 229.59231,-417.48129 241.12351,-425.11228 C 244.69109,-427.47319 246.3953,-427.91184 252,-427.91184 C 257.60471,-427.91185 259.30891,-427.47318 262.87649,-425.11228 C 277.9055,-415.16655 280.59887,-391.16688 270.97919,-352.91184 C 267.6389,-339.6283 253.04424,-295.41184 252,-295.41184 C 251.6361,-295.41185 247.89584,-305.64934 243.68834,-318.16184 L 243.68834,-318.16183 z"
         transform="translate(-267.35463,46.40875)"
         id="path2580"
         style="fill:#2B2B3C" />
      <path
         d="M 385,-226.54491 C 383.625,-227.09836 375.75,-229.30455 367.5,-231.44756 C 338.805,-238.90132 310.71128,-243.02973 281.46681,-244.09025 L 264.43362,-244.70795 L 265.15048,-252.21301 C 269.1715,-294.30922 295.64832,-333.23204 340.89821,-363.56759 C 380.47623,-390.10071 415.02851,-393.50608 437.60751,-373.09895 C 450.00217,-361.89653 455.61075,-341.39532 451.53819,-322.17775 C 448.60537,-308.3383 442.79166,-298.34779 419.79465,-267.62825 C 413.50184,-259.2223 404.58485,-246.28478 399.97911,-238.87825 C 391.17435,-224.71922 390.63629,-224.27621 385,-226.5449 L 385,-226.54491 z"
         transform="translate(-267.35463,46.40875)"
         id="path2576"
         style="fill:#2B2B3C" />
      <path
         d="M 104.06905,-238.8008 C 99.43682,-246.24993 90.49816,-259.22228 84.20535,-267.62825 C 66.393937,-291.42085 62.24732,-297.60721 57.91667,-306.84858 C 48.835278,-326.22777 48.75074,-344.63001 57.66515,-361.59417 C 65.60572,-376.70509 82.96504,-386.41184 102.04852,-386.41184 C 124.8,-386.41185 154.37106,-372.60496 183.08441,-348.57577 C 216.34483,-320.74129 235.46347,-287.6617 238.86365,-252.06497 L 239.59467,-244.41183 L 229.54735,-244.40152 C 201.33196,-244.37255 161.10151,-238.45078 130.5,-229.82212 C 123.35,-227.80606 116.37304,-225.95413 114.99564,-225.70674 C 112.72006,-225.29804 111.72185,-226.49426 104.06905,-238.8008 z"
         transform="translate(-267.35463,46.40875)"
         id="path2574"
         style="fill:#2B2B3C" />
    </g>
  </g>
  <path
     style="fill:#000000"
     d="M 101.19386,315.96102 C 94.436133,306.27076 83.36541,290.63313 76.59225,281.21073 58.658429,256.26231 52.515111,241.73633 52.677702,224.66441 c 0.149151,-15.66069 4.00555,-26.20251 12.804022,-35.00099 20.397433,-20.39743 51.237186,-19.64212 88.447426,2.1662 46.70414,27.37255 77.76389,69.25745 83.98957,113.26216 l 1.25703,8.88501 -18.6811,1.39419 c -32.25386,2.40713 -52.0019,5.37348 -79.17523,11.89289 -14.47856,3.47368 -26.66534,6.31579 -27.08172,6.31579 -0.41639,0 -6.28612,-7.92839 -13.04384,-17.61864 z"
     id="path2824" />
  <path
     style="fill:#000000"
     d="m 241.81461,232.67288 c -10.66193,-34.39628 -13.30614,-47.05631 -13.30614,-63.70761 0,-22.11512 9.11417,-36.13137 23.49467,-36.13137 8.62782,0 17.22684,7.19701 21.21693,17.75767 2.90987,7.7016 2.91177,27.95494 0.004,42.46772 -3.11264,15.53485 -19.48157,67.9102 -21.22413,67.9102 -0.7778,0 -5.36123,-12.73347 -10.18539,-28.29661 z"
     id="path2826" />
  <path
     style="fill:#000000"
     d="m 105.72382,439.59074 c -0.94426,-2.18458 -0.80545,-12.26605 0.30846,-22.40327 1.39806,-12.7232 1.24242,-26.09244 -0.50259,-43.16903 -2.51189,-24.58123 -2.60253,-24.85837 -14.324611,-43.80012 -6.4882,-10.48431 -19.115343,-29.15307 -28.060322,-41.48612 -23.860324,-32.89785 -27.919246,-42.07795 -27.855033,-63 0.08551,-27.85952 11.438604,-46.52554 35.659373,-58.6288 11.523385,-5.7583 15.13154,-6.50045 31.366583,-6.45166 34.14776,0.10262 67.48983,16.21897 100.39165,48.52567 11.06277,10.86266 20.39071,19.4737 20.72876,19.13565 0.33806,-0.33806 -1.81591,-8.26467 -4.78659,-17.6147 -6.58715,-20.73263 -8.97576,-50.03 -5.05844,-62.04399 4.2103,-12.9125 14.28625,-26.08964 23.57186,-30.8268 l 8.4303,-4.30082 0,-20.24473 0,-20.244732 -16.01695,0 -16.01695,0 0,-7.474576 0,-7.474576 16.01695,0 16.01695,0 0,-10.677967 c 0,-10.440677 0.14244,-10.677966 6.40678,-10.677966 6.2644,0 6.40678,0.237289 6.40678,10.677966 l 0,10.677967 16.01695,0 16.01695,0 0,7.381016 0,7.381018 -15.48305,0.627456 -15.48305,0.627459 -0.61294,19.670515 -0.61292,19.67051 8.50934,4.34114 c 9.35629,4.77323 19.42909,17.91941 23.65088,30.86712 3.91732,12.01399 1.5287,41.31136 -5.05845,62.04399 -2.97067,9.35003 -5.12463,17.27664 -4.78659,17.6147 0.33807,0.33805 9.66599,-8.27299 20.72877,-19.13565 32.90183,-32.3067 66.24388,-48.42304 100.39166,-48.52567 16.23503,-0.0488 19.84318,0.69336 31.36656,6.45166 24.22079,12.10326 35.57388,30.76928 35.65939,58.6288 0.0643,20.92205 -3.99471,30.10215 -27.85503,63 -8.94498,12.33305 -21.57214,31.00181 -28.06033,41.48612 -11.72725,18.9501 -11.81149,19.20796 -14.30439,43.77966 -1.75019,17.25086 -1.88338,30.69867 -0.44096,44.51845 1.53799,14.73545 1.42312,20.44478 -0.44905,22.31695 -1.93064,1.93064 -2.51577,1.71187 -2.51577,-0.94056 0,-11.38745 -62.39653,-30.84627 -115.85594,-36.1305 -21.90155,-2.16489 -32.55607,-2.16489 -54.45762,0 -53.22272,5.26084 -113.52932,23.98197 -116.45356,36.15096 -0.79578,3.31158 -1.03591,3.28173 -2.59381,-0.32254 z m 41.27773,-39.80126 c 37.94919,-11.78991 60.16746,-14.95558 104.96575,-14.95558 45.3823,0 66.77646,3.1235 107.86333,15.74782 24.25891,7.45375 27.60263,7.66091 29.83319,1.84819 2.89964,-7.55637 -12.37303,-14.62416 -54.10523,-25.03847 -56.80458,-14.17564 -123.59621,-12.58129 -184.38934,4.40146 -25.99316,7.26127 -37.98281,12.99637 -37.98281,18.1686 0,3.30575 7.03532,8.5797 9.95205,7.46044 1.647,-0.63201 12.38538,-4.06662 23.86306,-7.63246 l 0,0 z m -7.41372,-52.308 c 45.5189,-10.75545 61.72612,-12.60291 111.34437,-12.69222 50.25393,-0.0903 62.19106,1.21148 109.89283,11.98553 l 28.7403,6.49135 4.61392,-5.36406 c 2.53769,-2.95021 9.27021,-12.90552 14.96116,-22.12289 5.69097,-9.21737 17.98344,-27.33004 27.31663,-40.25038 22.66272,-31.37304 26.9319,-40.86346 26.89893,-59.79661 -0.0431,-24.70096 -10.92032,-42.47894 -33.03394,-53.99108 -9.2712,-4.8265 -13.21011,-5.54253 -29.8983,-5.43502 -14.46008,0.0932 -22.12938,1.27045 -30.9661,4.75352 -27.19386,10.71872 -46.48775,23.57758 -67.95631,45.29108 -24.46969,24.74886 -34.77813,45.76165 -43.10449,87.86455 -1.91283,9.67234 -3.27107,12.27967 -6.39683,12.27967 -3.12576,0 -4.484,-2.60733 -6.39683,-12.27967 -8.32637,-42.1029 -18.6348,-63.11569 -43.10448,-87.86455 -21.46857,-21.7135 -40.76246,-34.57236 -67.95632,-45.29108 -8.83671,-3.48307 -16.50602,-4.66036 -30.9661,-4.75352 -16.688186,-0.10751 -20.627089,0.60852 -29.898304,5.43502 -22.113617,11.51214 -32.990905,29.29012 -33.033931,53.99108 -0.03301,18.95194 4.251396,28.46253 26.93769,59.79661 9.354494,12.92034 20.486184,29.25763 24.737087,36.30509 10.514758,17.43212 20.491588,30.9661 22.827268,30.9661 1.06307,0 12.06185,-2.39334 24.44175,-5.31852 z M 269.04816,242.28305 c 14.09221,-43.53857 15.82334,-50.73593 16.66737,-69.29638 0.82329,-18.10441 0.35523,-21.92347 -3.71835,-30.33835 -2.56311,-5.29469 -7.99192,-12.552 -12.06403,-16.12735 -6.1089,-5.36369 -9.24536,-6.50063 -17.93315,-6.50063 -8.68779,0 -11.82425,1.13694 -17.93316,6.50063 -4.07209,3.57535 -9.50091,10.83266 -12.06402,16.12735 -4.07358,8.41488 -4.54165,12.23394 -3.71835,30.33835 0.84404,18.56045 2.57517,25.75781 16.66736,69.29638 8.64901,26.72161 16.3207,48.58475 17.04817,48.58475 0.72747,0 8.39916,-21.86314 17.04816,-48.58475 z"
     id="path2828" />
  <path
     style="fill:#000000"
     d="m 366.25424,328.04839 c -21.8466,-5.76486 -52.76312,-10.56892 -81.67556,-12.6914 l -19.74336,-1.44938 1.24816,-8.85042 c 5.63864,-39.98237 31.44271,-77.56167 72.97116,-106.27026 22.60491,-15.62677 42.42201,-23.07484 61.64218,-23.16766 17.58109,-0.0849 27.36429,3.3331 36.93551,12.90433 9.48764,9.48763 13.40746,20.02556 13.51401,36.33067 0.11303,17.29817 -5.86657,31.49401 -23.73859,56.35646 -6.77316,9.4224 -17.84388,25.06003 -24.60161,34.75029 -6.75772,9.69025 -13.42185,17.51527 -14.80917,17.38893 -1.38732,-0.12635 -11.17155,-2.51204 -21.74273,-5.30156 z"
     id="path2830" />
  <path
     style="fill:#000000"
     d="m 180.74544,463.68279 c -17.01567,-2.32379 -44.41691,-9.05999 -54.9304,-13.50385 l -7.28962,-3.08119 6.40678,-2.55657 c 18.49292,-7.37945 43.39601,-15.06105 63.2001,-19.49468 29.86968,-6.68707 95.2275,-7.22134 123.66431,-1.0109 21.10148,4.60845 47.91319,12.74702 62.63475,19.0125 l 10.31272,4.38907 -7.10933,3.04793 c -3.91012,1.67635 -17.2,5.4773 -29.53306,8.44655 -21.01347,5.05911 -26.52018,5.44124 -87.55932,6.07602 -35.82457,0.37255 -71.73319,-0.22364 -79.79693,-1.32488 z"
     id="path2832" />
</svg>
