<?xml version="1.0" encoding="UTF-8" standalone="no"?>
<!-- Created with Inkscape (http://www.inkscape.org/) -->

<svg
   xmlns:dc="http://purl.org/dc/elements/1.1/"
   xmlns:cc="http://creativecommons.org/ns#"
   xmlns:rdf="http://www.w3.org/1999/02/22-rdf-syntax-ns#"
   xmlns:svg="http://www.w3.org/2000/svg"
   xmlns="http://www.w3.org/2000/svg"
   xmlns:sodipodi="http://sodipodi.sourceforge.net/DTD/sodipodi-0.dtd"
   xmlns:inkscape="http://www.inkscape.org/namespaces/inkscape"
   version="1.0"
   width="504"
   height="504"
   id="svg2"
   inkscape:version="0.47 r22583"
   sodipodi:docname="bn.svg">
  <metadata
     id="metadata11">
    <rdf:RDF>
      <cc:Work
         rdf:about="">
        <dc:format>image/svg+xml</dc:format>
        <dc:type
           rdf:resource="http://purl.org/dc/dcmitype/StillImage" />
      </cc:Work>
    </rdf:RDF>
  </metadata>
  <sodipodi:namedview
     pagecolor="#ffffff"
     bordercolor="#666666"
     borderopacity="1"
     objecttolerance="10"
     gridtolerance="10"
     guidetolerance="10"
     inkscape:pageopacity="0"
     inkscape:pageshadow="2"
     inkscape:window-width="1365"
     inkscape:window-height="878"
     id="namedview9"
     showgrid="false"
     inkscape:zoom="0.46825397"
     inkscape:cx="252"
     inkscape:cy="252"
     inkscape:window-x="-8"
     inkscape:window-y="-8"
     inkscape:window-maximized="1"
     inkscape:current-layer="svg2" />
  <defs
     id="defs4">
    <inkscape:perspective
       sodipodi:type="inkscape:persp3d"
       inkscape:vp_x="0 : 252 : 1"
       inkscape:vp_y="0 : 1000 : 0"
       inkscape:vp_z="504 : 252 : 1"
       inkscape:persp3d-origin="252 : 168 : 1"
       id="perspective13" />
  </defs>
  <g
     transform="translate(-572.76764,-269.79076)"
     id="layer1">
    <path
       d="M 157.19107,457.85678 C 155.72714,444.18679 158.53976,428.7987 164.75022,416.5 C 169.87454,406.35223 176.86399,398.12467 198.7309,376.5 C 211.70096,363.67363 222.58104,351.97432 225.70021,347.5 C 235.84302,332.95055 243.60182,314.95809 247.36142,297.26818 C 249.2886,288.20032 249.88137,263.46678 248.41717,253.21655 L 247.59103,247.43311 L 241.41718,251.82013 C 229.90977,259.99708 218.3028,266.8222 197.5936,277.58924 C 158.02892,298.15955 151.27523,304.25908 136.32017,332.92778 C 127.9625,348.94935 123.1698,356.07438 117.23869,361.29516 C 112.46607,365.49617 105.4939,368.5 100.51551,368.5 C 93.950799,368.5 87.75459,362.31275 87.74704,355.75 L 87.743309,352.5 L 82.292526,352.5 C 74.20808,352.5 67.05508,350.70338 59.51887,346.77995 C 38.950049,336.0716 31.78564,313.07746 40.71436,286.42701 C 44.985421,273.67877 49.06747,266.24356 64.55654,243 C 80.653879,218.84365 85.60006,209.96368 89.90029,197.5 C 93.118749,188.1717 93.17896,187.67468 93.23143,170 C 93.29833,147.468 93.17229,147.74886 111.18235,130 C 126.23544,115.16522 132.74331,106.13683 132.74331,100.08842 C 132.7433,97.927873 131.81657,84.95398 130.68389,71.25754 C 129.55122,57.561102 128.76371,45.25881 128.93389,43.91912 C 129.226,41.619669 130.95636,42.51182 159.84589,59.8569 L 190.44846,78.230476 L 208.64024,58.865238 C 218.64571,48.21436 227.17624,39.5 227.59697,39.5 C 228.01769,39.5 233.83977,51.5375 240.53491,66.25 C 247.23006,80.9625 253.08218,92.9154 253.53964,92.81199 C 260.26593,91.291541 274.46752,90.34635 283.74331,90.80179 C 319.19836,92.542612 349.63468,106.2306 375.24331,131.95169 C 398.8867,155.69893 414.3131,183.10052 429.31606,228 C 450.30975,290.82823 464.03886,370.81121 466.40086,444.04845 L 467.06046,464.5 L 312.48151,464.5 L 157.9025,464.5 L 157.19107,457.85678 z"
       transform="translate(572.76764,269.79076)"
       id="path2396"
       style="fill:#2B2B3C" />
    <path
       d="M 126.71787,187.20863 C 133.1463,184.03157 137.00938,181.20707 142.71787,175.51017 C 149.63334,168.60873 157.74331,156.86262 157.74331,153.748 C 157.7433,150.40128 148.39282,149.56742 142.23473,152.36498 C 136.74176,154.8604 133.16056,159.24084 123.95266,174.72725 C 112.70667,193.64144 113.08674,192.8234 115.90748,192.04308 C 117.19219,191.68769 122.05686,189.51218 126.71787,187.20863 z"
       transform="translate(572.76764,269.79076)"
       id="path2388"
       style="fill:#ffffff" />
    <path
       d="M 76.493179,304.54321 C 77.73075,302.70677 78.74331,300.12343 78.74331,298.80246 C 78.743311,293.11617 73.17068,287.49459 67.54297,287.50374 C 63.191671,287.5108 58.74246,291.26016 56.01453,297.21875 C 53.9536,301.72042 53.32172,304.93516 52.9401,312.86021 L 52.459759,322.83545 L 63.35141,315.3588 C 69.34181,311.24665 75.25561,306.37963 76.49318,304.5432 L 76.493179,304.54321 z"
       transform="translate(572.76764,269.79076)"
       id="path2386"
       style="fill:#ffffff" />
    <path
       d="M 458.38177,454.95245 C 460.88966,452.44459 460.91906,452.23831 460.27426,441.70246 C 456.62946,382.15204 450.26796,336.41494 438.13116,282.5 C 427.84986,236.82766 417.34543,205.15878 403.63476,178.5 C 394.60268,160.9382 385.61846,148.36319 373.25147,135.97327 C 353.97063,116.65666 333.1908,105.23071 306.66209,99.35855 C 288.13196,95.256899 253.18262,96.64714 247.75716,101.70173 C 244.81346,104.44419 245.3267,110.1201 248.74831,112.66299 C 251.12909,114.43234 251.74893,114.44996 261.24831,113.01822 C 298.67533,107.37727 333.28446,118.23552 360.8941,144.28106 C 387.95571,169.8096 406.94296,212.58752 423.13119,284.5 C 434.85635,336.58648 441.30086,381.69405 444.77586,435.99963 C 445.74017,451.0683 446.10386,453.25487 447.97786,455.24963 C 450.83465,458.29059 455.16736,458.16683 458.38176,454.95246 L 458.38177,454.95245 z"
       transform="translate(572.76764,269.79076)"
       id="path2384"
       style="fill:#ffffff" />
  </g>
  <path
     style="fill:#000000"
     d="m 158.44567,447.25774 c 1.49565,-25.83645 7.04773,-35.56047 39.65094,-69.44531 29.01327,-30.15381 37.72902,-42.74033 45.35482,-65.4974 5.07947,-15.15834 8.21251,-56.61166 4.66636,-61.74075 -1.61687,-2.3386 -4.51674,-1.24065 -14.55158,5.50953 -6.89277,4.63659 -22.14248,13.55324 -33.88824,19.8148 -26.09988,13.91356 -43.80169,25.98473 -49.43885,33.71318 -2.33295,3.19844 -9.68425,15.10142 -16.33624,26.45107 -12.74013,21.73731 -19.08796,28.3846 -29.23384,30.61301 -6.714573,1.47477 -14.95446,-1.78813 -15.006827,-5.94253 -0.06857,-5.44025 -3.76699,-7.95448 -14.770685,-10.0413 -23.839027,-4.52096 -36.45085,-19.16112 -36.45085,-42.31311 0,-17.81883 5.233885,-30.64774 26.479581,-64.90482 25.195693,-40.62615 27.13529,-45.4892 28.851551,-72.33795 l 1.442247,-22.56215 18.846463,-21.16788 18.84646,-21.16788 -1.54026,-31.940947 -1.54026,-31.940947 5.02745,3.213556 c 15.83932,10.12453 52.89371,31.738563 54.41154,31.738563 0.98211,0 10.001,-8.177289 20.04198,-18.171754 l 18.25634,-18.171753 12.68097,25.646329 12.68095,25.64633 22.57999,0 c 26.27077,0 41.74024,3.397652 63.23236,13.888083 25.70867,12.54856 55.10791,43.78384 71.30566,75.75884 27.1271,53.54991 50.54012,160.39544 54.64622,249.3785 l 1.50284,32.5678 -154.35382,0 -154.35383,0 0.96056,-16.59311 0,0 z m 300.65197,7.0491 c 5.10251,-6.14816 -4.92079,-97.25927 -17.2109,-156.44549 -20.49435,-98.69608 -46.3791,-150.13799 -90.34315,-179.54294 -23.29896,-15.58329 -41.41469,-20.7218 -73.05435,-20.7218 -27.73972,0 -33.68942,1.922643 -32.46518,10.49109 0.60419,4.22875 1.95517,4.46482 26.26408,4.58938 57.19402,0.29308 92.19548,22.85323 119.07557,76.75004 23.85468,47.83055 45.99286,148.78437 51.98294,237.05085 0.79711,11.74576 2.25318,23.51822 3.23575,26.16101 2.03392,5.47067 8.6297,6.34966 12.51524,1.66786 z M 65.502601,314.07619 c 13.590696,-10.48515 16.477825,-17.77954 9.328521,-23.56871 -6.38751,-5.17228 -9.054475,-4.93734 -14.928337,1.3151 -5.777124,6.14946 -11.587888,31.07911 -7.244121,31.07911 0.772435,0 6.552206,-3.97147 12.843937,-8.8255 l 0,0 z m 65.676779,-129.4059 c 14.34098,-9.25413 28.84685,-27.66467 25.74796,-32.67877 -1.85725,-3.0051 -8.87397,-2.54322 -15.80372,1.04029 -5.52268,2.85589 -10.0818,8.98589 -23.67921,31.83803 l -4.91263,8.25627 5.13242,-1.52324 c 2.82282,-0.83778 8.90466,-3.95744 13.51518,-6.93258 l 0,0 z"
     id="path2819" />
</svg>
