<?xml version="1.0" encoding="UTF-8" standalone="no"?>
<!-- Created with Inkscape (http://www.inkscape.org/) -->

<svg
   xmlns:dc="http://purl.org/dc/elements/1.1/"
   xmlns:cc="http://creativecommons.org/ns#"
   xmlns:rdf="http://www.w3.org/1999/02/22-rdf-syntax-ns#"
   xmlns:svg="http://www.w3.org/2000/svg"
   xmlns="http://www.w3.org/2000/svg"
   xmlns:sodipodi="http://sodipodi.sourceforge.net/DTD/sodipodi-0.dtd"
   xmlns:inkscape="http://www.inkscape.org/namespaces/inkscape"
   version="1.0"
   width="504"
   height="504"
   id="svg2"
   inkscape:version="0.47 r22583"
   sodipodi:docname="br.svg">
  <metadata
     id="metadata13">
    <rdf:RDF>
      <cc:Work
         rdf:about="">
        <dc:format>image/svg+xml</dc:format>
        <dc:type
           rdf:resource="http://purl.org/dc/dcmitype/StillImage" />
      </cc:Work>
    </rdf:RDF>
  </metadata>
  <sodipodi:namedview
     pagecolor="#ffffff"
     bordercolor="#666666"
     borderopacity="1"
     objecttolerance="10"
     gridtolerance="10"
     guidetolerance="10"
     inkscape:pageopacity="0"
     inkscape:pageshadow="2"
     inkscape:window-width="1365"
     inkscape:window-height="878"
     id="namedview11"
     showgrid="false"
     inkscape:zoom="0.46825397"
     inkscape:cx="252"
     inkscape:cy="252"
     inkscape:window-x="-8"
     inkscape:window-y="-8"
     inkscape:window-maximized="1"
     inkscape:current-layer="svg2" />
  <defs
     id="defs4">
    <inkscape:perspective
       sodipodi:type="inkscape:persp3d"
       inkscape:vp_x="0 : 252 : 1"
       inkscape:vp_y="0 : 1000 : 0"
       inkscape:vp_z="504 : 252 : 1"
       inkscape:persp3d-origin="252 : 168 : 1"
       id="perspective15" />
  </defs>
  <g
     transform="translate(-523.71429,-225.64789)"
     id="layer1">
    <path
       d="M 90,422.5 L 90,404 L 102.5,404 L 115,404 L 115,382.6452 L 115,361.29041 L 136,338.9288 L 157,316.5672 L 157,242.00885 L 157,167.4505 L 132.55624,148.97525 L 108.11248,130.50002 L 108.05624,96.750008 L 108,63.000011 L 136.5,63.000011 L 165,63.000011 L 165,78.000008 L 165,93.000008 L 191,93.000008 L 217,93.000008 L 217,78.000008 L 217,63.000011 L 252,63.000011 L 287,63.000011 L 287,78.000008 L 287,93.000008 L 313,93.000008 L 339,93.000008 L 339,78.000008 L 339,63.000011 L 367.5,63.000011 L 396,63.000011 L 395.94794,96.750008 L 395.89587,130.50002 L 371.44946,149.00002 L 347.00302,167.50002 L 347.0015,242.1962 L 347,316.8924 L 367.97107,339.1962 L 388.94214,361.5 L 388.97107,382.75 L 389,404 L 401.5,404 L 414,404 L 414,422.5 L 414,441 L 252,441 L 90,441 L 90,422.5 z"
       transform="translate(523.71429,225.64789)"
       id="path2406"
       style="fill:#2B2B3C" />
    <path
       d="M 387.54544,134.54546 C 388.89545,133.19546 390,130.92501 390,129.50001 C 390,128.075 388.89545,125.80456 387.54545,124.45456 L 385.09091,122.00001 L 252,122.00001 L 118.90909,122.00001 L 116.45455,124.45456 C 115.10455,125.80456 114,128.07501 114,129.50001 C 114,130.925 115.10455,133.19546 116.45455,134.54546 L 118.90909,137.00002 L 252,137.00002 L 385.09091,137.00002 L 387.54544,134.54546 z"
       transform="translate(523.71429,225.64789)"
       id="path2392"
       style="fill:#ffffff" />
    <path
       d="M 337.54544,172.54546 C 338.89545,171.19546 340,168.92501 340,167.50001 C 340,166.075 338.89545,163.80456 337.54545,162.45456 L 335.09091,160.00002 L 252,160.00002 L 168.90909,160.00002 L 166.45454,162.45456 C 165.10455,163.80456 164,166.07501 164,167.50001 C 164,168.925 165.10455,171.19546 166.45455,172.54546 L 168.90909,175.00002 L 252,175.00002 L 335.09091,175.00002 L 337.54544,172.54546 z"
       transform="translate(523.71429,225.64789)"
       id="path2390"
       style="fill:#ffffff" />
    <path
       d="M 337.54544,321.54547 C 338.89545,320.19546 340,317.92501 340,316.50001 C 340,315.07502 338.89545,312.80456 337.54545,311.45456 L 335.09091,309 L 252,309 L 168.90909,309 L 166.45454,311.45456 C 165.10455,312.80456 164,315.07501 164,316.50001 C 164,317.92502 165.10455,320.19546 166.45455,321.54546 L 168.90909,324 L 252,324 L 335.09091,324 L 337.54544,321.54547 z"
       transform="translate(523.71429,225.64789)"
       id="path2388"
       style="fill:#ffffff" />
    <path
       d="M 379.08667,367.7182 C 383.42932,364.38402 383.68969,359.65211 379.73331,355.96618 C 377.6582,354.03291 375.52016,354.00001 252,354.00001 C 128.47984,354.00002 126.3418,354.03292 124.26669,355.96618 C 120.31031,359.6521 120.57068,364.38402 124.91334,367.71821 C 127.22399,369.49227 376.77601,369.49226 379.08666,367.71821 L 379.08667,367.7182 z"
       transform="translate(523.71429,225.64789)"
       id="path2386"
       style="fill:#ffffff" />
    <path
       d="M 379.08667,409.7182 C 383.42932,406.38402 383.68969,401.65211 379.73331,397.96618 C 377.6582,396.03291 375.52016,396.00001 252,396.00001 C 128.47984,396.00002 126.3418,396.03292 124.26669,397.96618 C 120.31031,401.6521 120.57068,406.38402 124.91334,409.71821 C 127.22399,411.49227 376.77601,411.49226 379.08666,409.71821 L 379.08667,409.7182 z"
       transform="translate(523.71429,225.64789)"
       id="path2384"
       style="fill:#ffffff" />
  </g>
  <path
     style="fill:#000000"
     d="m 89.694915,422.20678 0,-18.15254 12.813555,0 12.81356,0 0,-21.32546 0,-21.32544 21.35594,-22.4847 21.35593,-22.48469 0,-74.50054 0,-74.50055 -19.65085,-14.62999 -19.65085,-14.62999 66.6339,-0.56432 c 36.64865,-0.31038 96.61915,-0.31038 133.2678,0 l 66.63389,0.56432 -19.65084,14.62999 -19.65085,14.62999 0,75.11503 0,75.11502 17.08475,16.98455 c 9.39661,9.3415 17.08515,17.4876 17.08564,18.10244 4.7e-4,0.61484 -52.61521,0.83491 -116.92374,0.48905 -64.30854,-0.34586 -122.21021,0.14789 -128.67038,1.09722 -10.6249,1.56134 -11.74576,2.23272 -11.74576,7.03561 0,4.91353 0.95576,5.41176 12.81356,6.67949 7.04746,0.75344 59.42288,1.3699 116.38983,1.3699 56.96695,0 109.34237,-0.61646 116.38983,-1.3699 11.27493,-1.20541 12.89747,-1.96188 13.51233,-6.29965 0.5665,-3.99666 1.2739,-4.45244 3.73728,-2.40801 2.25235,1.86928 3.03853,7.9796 3.03853,23.61618 l 0,21.09445 12.81356,0 12.81355,0 0,18.15254 0,18.15254 -162.30508,0 -162.305085,0 0,-18.15254 z M 379.60169,409.29154 c 3.3953,-1.05829 3.46009,-7.86366 0.10678,-11.21696 -1.93499,-1.935 -33.25714,-2.56272 -127.8741,-2.56272 -133.67435,0 -131.67882,-0.1544 -129.72087,10.04148 0.67621,3.52136 4.80964,3.93874 49.82889,5.03154 49.52933,1.2023 202.71351,0.24822 207.6593,-1.29334 l 0,0 z M 338.24845,320.2322 c 1.71868,-2.72537 1.71868,-4.7492 2e-5,-7.47457 -2.16826,-3.43835 -8.98034,-3.78202 -85.16344,-4.29653 -85.27688,-0.57592 -88.64435,-0.27703 -88.64435,7.86819 0,8.59606 1.96324,8.77832 88.31258,8.19848 76.49971,-0.5137 83.32658,-0.8567 85.49519,-4.29557 z m 0,-149.49152 c 1.71868,-2.72538 1.71868,-4.7492 2e-5,-7.47458 -2.16826,-3.43835 -8.98034,-3.78202 -85.16344,-4.29653 -85.27688,-0.57592 -88.64435,-0.27702 -88.64435,7.86819 0,8.59607 1.96324,8.77832 88.31258,8.19848 76.49971,-0.5137 83.32658,-0.8567 85.49519,-4.29556 z"
     id="path2821" />
  <path
     style="fill:#000000"
     d="m 111.47797,132.40678 c -1.76989,-1.76989 -2.56272,-12.67119 -2.56272,-35.237288 l 0,-32.674577 27.76272,0 27.76271,0 0,15.014884 0,15.014884 26.16101,-0.59963 26.16102,-0.599629 0.63148,-14.415255 0.63147,-14.415254 33.97434,0 33.97434,0 0.63147,14.415254 0.63148,14.415255 26.16102,0.599629 26.16101,0.59963 0,-15.014884 0,-15.014884 27.76271,0 27.76272,0 0,32.840202 c 0,28.019923 -0.52117,33.270413 -3.55068,35.771183 -3.04557,2.51403 -3.39043,2.47527 -2.42418,-0.2724 0.61958,-1.76187 0.26155,-4.88517 -0.79564,-6.94068 -1.79979,-3.49937 -10.47775,-3.73729 -136.31425,-3.73729 -125.83649,0 -134.51446,0.23792 -136.31425,3.73729 -1.05719,2.05551 -1.49142,4.93856 -0.96497,6.40678 1.2059,3.36314 0.0515,3.40115 -3.24281,0.10678 z"
     id="path2823" />
</svg>
