<?xml version="1.0" encoding="UTF-8" standalone="no"?>
<!-- Created with Inkscape (http://www.inkscape.org/) -->

<svg
   xmlns:dc="http://purl.org/dc/elements/1.1/"
   xmlns:cc="http://creativecommons.org/ns#"
   xmlns:rdf="http://www.w3.org/1999/02/22-rdf-syntax-ns#"
   xmlns:svg="http://www.w3.org/2000/svg"
   xmlns="http://www.w3.org/2000/svg"
   xmlns:sodipodi="http://sodipodi.sourceforge.net/DTD/sodipodi-0.dtd"
   xmlns:inkscape="http://www.inkscape.org/namespaces/inkscape"
   version="1.0"
   width="504"
   height="504"
   id="svg2"
   inkscape:version="0.47 r22583"
   sodipodi:docname="wk.svg">
  <metadata
     id="metadata14">
    <rdf:RDF>
      <cc:Work
         rdf:about="">
        <dc:format>image/svg+xml</dc:format>
        <dc:type
           rdf:resource="http://purl.org/dc/dcmitype/StillImage" />
      </cc:Work>
    </rdf:RDF>
  </metadata>
  <sodipodi:namedview
     pagecolor="#ffffff"
     bordercolor="#666666"
     borderopacity="1"
     objecttolerance="10"
     gridtolerance="10"
     guidetolerance="10"
     inkscape:pageopacity="0"
     inkscape:pageshadow="2"
     inkscape:window-width="1365"
     inkscape:window-height="878"
     id="namedview12"
     showgrid="false"
     inkscape:zoom="0.46825397"
     inkscape:cx="252"
     inkscape:cy="252"
     inkscape:window-x="-8"
     inkscape:window-y="-8"
     inkscape:window-maximized="1"
     inkscape:current-layer="svg2" />
  <defs
     id="defs4">
    <inkscape:perspective
       sodipodi:type="inkscape:persp3d"
       inkscape:vp_x="0 : 252 : 1"
       inkscape:vp_y="0 : 1000 : 0"
       inkscape:vp_z="504 : 252 : 1"
       inkscape:persp3d-origin="252 : 168 : 1"
       id="perspective16" />
  </defs>
  <g
     transform="translate(-213.41083,-9.6260986)"
     id="layer1">
    <path
       d="M 203.30591,470.98099 C 165.48764,468.60442 130.86518,459.99732 104.76136,446.48292 C 97.44679,442.69606 95.09189,440.96166 94.357,438.82011 C 93.687058,436.86785 94.13039,430.08946 95.86128,415.82011 L 98.315437,395.58817 L 95.94297,369.08817 L 93.570503,342.58817 L 87.551376,332.08817 C 79.26368,317.63076 69.35171,302.9647 57.47634,287.58818 C 40.545719,265.66597 34.87352,256.18739 30.24814,242.08818 C 27.85405,234.79046 27.44876,231.89084 27.38277,221.58818 C 27.319159,211.65692 27.70984,208.29522 29.64894,202.08818 C 36.843411,179.05885 52.38338,162.07504 73.16126,154.53307 C 92.699927,147.44092 111.07005,147.48808 133.97685,154.68922 C 156.24273,161.68887 184.10278,178.58122 204.44983,197.419 L 210.3712,202.90114 L 208.16141,194.1358 C 203.59467,176.02146 202.74007,162.16392 205.39655,149.30308 C 208.34713,135.0184 215.19275,122.25397 224.01852,114.58031 C 228.18791,110.95519 240.95651,104.08817 243.5277,104.08817 C 244.51663,104.08817 244.80591,100.1275 244.80591,86.588171 L 244.80591,69.088173 L 228.30591,69.088173 L 211.80591,69.088173 L 211.80591,61.588173 L 211.80591,54.088173 L 228.30591,54.088173 L 244.80591,54.088173 L 244.80591,43.088173 L 244.80591,32.088173 L 252.30591,32.088173 L 259.80591,32.088173 L 259.80591,43.088173 L 259.80591,54.088173 L 275.80591,54.088173 L 291.80591,54.088173 L 291.80591,61.588173 L 291.80591,69.088173 L 275.80591,69.088173 L 259.80591,69.088173 L 259.80701,86.338173 L 259.80807,103.58817 L 267.05701,106.85076 C 283.36544,114.19087 293.93806,128.59579 298.21527,149.30308 C 300.87175,162.16392 300.01715,176.02146 295.45042,194.1358 L 293.24063,202.90114 L 299.16199,197.41901 C 313.92829,183.74801 333.71213,170.31835 351.3059,162.02271 C 375.23869,150.73813 397.8227,146.80211 416.5012,150.66026 C 433.66321,154.20517 444.4502,159.81105 455.809,171.08818 C 472.19371,187.35495 479.8376,211.99775 475.3617,234.12333 C 472.06931,250.39862 465.3189,262.75692 446.1578,287.58818 C 434.26569,302.99942 424.3406,317.67811 416.0672,332.09088 L 410.04129,342.58817 L 407.66879,369.08817 L 405.29639,395.58817 L 407.75049,415.8201 C 409.4814,430.08946 409.9248,436.86784 409.2548,438.82011 C 408.51991,440.96167 406.165,442.69605 398.8505,446.48292 C 371.90281,460.43418 338.72529,468.5009 297.80591,471.05071 C 278.87076,472.23062 222.52991,472.18905 203.30591,470.98098 L 203.30591,470.98099 z"
       transform="translate(213.41083,9.6260986)"
       id="path2443"
       style="fill:#2B2B3C" />
    <path
       d="M 253.09496,266.3382 C 253.38223,265.37567 257.29341,254.01318 261.78648,241.08818 C 278.74116,192.31539 280.34271,186.4844 281.43605,169.54772 C 282.54944,152.3005 279.23592,140.40251 270.581,130.57 C 265.55615,124.86146 258.10795,121.10771 251.80591,121.10771 C 245.50387,121.10771 238.05568,124.86146 233.03082,130.57 C 224.3759,140.40251 221.06239,152.30049 222.17577,169.54772 C 223.26911,186.48441 224.87067,192.31539 241.82534,241.08818 C 246.31842,254.01318 250.22959,265.37567 250.51686,266.33818 C 250.80413,267.30066 251.3842,268.08818 251.80591,268.08818 C 252.22762,268.08817 252.80769,267.30067 253.09496,266.33818 L 253.09496,266.3382 z"
       transform="translate(213.41083,9.6260986)"
       id="path2397"
       style="fill:#ffffff" />
    <path
       d="M 401.72531,322.02051 C 408.1993,310.28814 421.5886,290.54896 433.8992,274.58818 C 452.5998,250.34267 457.5395,240.41357 458.4982,225.1423 C 459.5592,208.24074 454.5428,194.60117 443.0562,183.15576 C 431.11429,171.25656 417.1968,166.42067 397.8059,167.43266 C 379.68659,168.37829 363.5734,173.93411 342.9399,186.35039 C 309.496,206.47541 279.30645,241.42167 271.12765,269.47748 C 269.15327,276.25017 264.72837,296.3128 262.47414,308.71262 L 261.90613,311.83707 L 275.10602,312.50052 C 313.50869,314.43081 362.8127,321.40588 388.3059,328.51502 C 396.78289,330.87896 396.857,330.84312 401.7253,322.02051 L 401.72531,322.02051 z"
       transform="translate(213.41083,9.6260986)"
       id="path2395"
       style="fill:#ffffff" />
    <path
       d="M 125.30591,326.22357 C 154.56764,319.53248 188.38717,314.85123 220.80591,313.00459 C 232.08091,312.36236 241.40657,311.75527 241.52959,311.65551 C 242.0368,311.24426 234.70059,276.97636 232.49994,269.47748 C 224.24626,241.3524 194.10355,206.46802 160.67192,186.35039 C 140.03847,173.93412 123.92523,168.37829 105.80591,167.43266 C 86.415022,166.42067 72.49757,171.25656 60.5556,183.15576 C 49.060791,194.60942 44.02768,208.29981 45.13969,225.08818 C 46.16779,240.61002 51.32625,250.89141 70.48436,275.60302 C 82.16818,290.6737 95.46651,310.35695 101.85322,322.033 C 107.00705,331.45512 104.43614,330.99573 125.30591,326.22358 L 125.30591,326.22357 z"
       transform="translate(213.41083,9.6260986)"
       id="path2393"
       style="fill:#ffffff" />
    <path
       d="M 156.67171,372.63257 C 228.55919,356.64449 304.6193,359.16889 375.5286,379.89633 L 388.48279,383.68298 L 389.69629,368.63559 C 390.3638,360.3595 391.1469,352.20398 391.4365,350.51219 L 391.9632,347.43622 L 377.63449,344.18527 C 295.62431,325.57843 207.98751,325.57843 125.97727,344.18526 L 111.64862,347.43622 L 112.1753,350.51218 C 112.46497,352.20398 113.24805,360.3595 113.91548,368.63558 L 115.129,383.68298 L 128.08324,379.89633 C 135.20808,377.81368 148.07289,374.54499 156.6717,372.63258 L 156.67171,372.63257 z"
       transform="translate(213.41083,9.6260986)"
       id="path2391"
       style="fill:#ffffff" />
    <path
       d="M 153.30591,409.07761 C 190.03859,399.55616 213.07006,396.6504 251.80591,396.6504 C 273.00396,396.65041 284.02094,397.10559 294.80591,398.42705 C 322.44041,401.81303 353.2223,408.81044 378.0686,417.35454 C 387.9836,420.76411 390.728,421.39135 390.3687,420.16576 C 390.11439,419.29807 389.6012,415.33317 389.2285,411.35484 C 388.85581,407.37652 388.0457,403.45792 387.4283,402.64687 C 386.04709,400.83226 363.7672,394.27467 345.1449,390.20168 C 274.94159,374.84714 199.35409,377.31712 130.96695,397.20036 C 123.45338,399.3849 116.80082,401.83583 116.18348,402.64687 C 115.56614,403.45791 114.75607,407.37651 114.38333,411.35484 C 114.01058,415.33318 113.49747,419.29808 113.24309,420.16576 C 112.88378,421.39134 115.62821,420.76412 125.54324,417.35454 C 132.56271,414.94069 145.05591,411.21608 153.30591,409.0776 L 153.30591,409.07761 z"
       transform="translate(213.41083,9.6260986)"
       id="path2389"
       style="fill:#ffffff" />
    <path
       d="M 297.80591,453.05072 C 317.2115,451.84149 337.34354,449.06328 351.3059,445.66774 C 363.76739,442.63721 379.2367,437.1016 378.1333,436.06771 C 376.9381,434.94777 356.9917,428.66744 345.3059,425.73167 C 312.40461,417.46603 288.64751,414.6504 251.80591,414.6504 C 214.96431,414.65041 191.2072,417.46602 158.30591,425.73167 C 146.62017,428.66745 126.67372,434.94778 125.4785,436.06771 C 124.37596,437.10079 139.83595,442.63452 152.30591,445.67027 C 165.37835,448.85272 187.05206,451.95956 203.30591,452.98098 C 222.52991,454.18905 278.87076,454.23063 297.80591,453.05071 L 297.80591,453.05072 z"
       transform="translate(213.41083,9.6260986)"
       id="path2387"
       style="fill:#ffffff" />
  </g>
  <path
     style="fill:#000000"
     d="m 214.62712,469.94126 c -40.50001,-1.5441 -64.24702,-5.84794 -92.60251,-16.78296 -9.68168,-3.73366 -19.95054,-8.86158 -22.819704,-11.39542 -5.209549,-4.60067 -5.213333,-4.6355 -2.77704,-25.55575 1.836091,-15.76636 1.828388,-27.59251 -0.03114,-47.80451 -2.847055,-30.9459 -2.955494,-31.17737 -37.013386,-79.01483 -23.80249,-33.43278 -29.78729,-45.85987 -31.073549,-64.52239 -3.267262,-47.40519 41.0201,-82.63141 91.747566,-72.97612 18.51494,3.52406 52.95163,20.80985 72.09985,36.19112 8.78393,7.0559 16.32566,12.47402 16.75942,12.04026 0.43375,-0.43375 -0.26623,-5.70734 -1.55552,-11.71909 -7.60338,-35.45332 2.52182,-65.72006 26.51543,-79.26121 l 11.71668,-6.61249 0,-16.880882 0,-16.880886 -17.22005,0 -17.22006,0 0.66921,-6.940678 0.66921,-6.940678 16.55084,-0.62373 16.55085,-0.623732 0,-10.588133 c 0,-10.340865 0.14962,-10.588134 6.40678,-10.588134 6.2644,0 6.40678,0.237288 6.40678,10.677966 l 0,10.677966 16.01695,0 16.01695,0 0,7.474576 0,7.474577 -16.01695,0 -16.01695,0 0,16.881817 0,16.881821 9.07627,5.35139 c 24.8982,14.68002 35.4155,41.29116 29.57483,74.83087 -1.35495,7.78064 -3.10565,15.81995 -3.89048,17.86514 -0.78481,2.04518 5.72852,-2.13495 14.47403,-9.28918 48.04971,-39.30684 95.28116,-50.90893 131.3266,-32.25948 20.79753,10.76037 35.46671,35.40377 35.89225,60.29694 0.34891,20.41003 -2.96126,29.81058 -18.45193,52.4018 -38.66502,56.38808 -44.51646,65.57395 -46.82301,73.50499 -1.54117,5.29921 -2.55849,25.54995 -2.63315,52.41525 l -0.12172,43.77966 -11.74577,5.85071 c -14.05967,7.00332 -40.67545,15.39611 -59.79661,18.85577 -19.79716,3.58199 -78.22208,5.42569 -120.66101,3.80766 l 4e-5,0 z m 114.25424,-20.04579 c 23.30252,-3.32683 50.52187,-11.17003 47.77772,-13.76704 -2.96702,-2.80792 -34.84611,-12.26614 -55.52139,-16.47266 -26.398,-5.37087 -113.18365,-5.37593 -138.54447,-0.009 -21.81486,4.6173 -56.57895,14.93849 -56.58703,16.80024 -0.009,2.09252 24.5283,9.72705 40.57008,12.62289 34.02806,6.14276 121.92657,6.58936 162.30509,0.82466 l 0,4.5e-4 z M 133.47458,415.59419 c 35.1618,-11.29944 63.68894,-16.00642 104.92263,-17.3122 52.1734,-1.65227 91.00713,3.69002 137.06972,18.85639 7.41613,2.44179 13.99841,3.92509 14.62728,3.29622 0.62886,-0.62887 0.48392,-5.04681 -0.32212,-9.81766 l -1.4655,-8.67427 -18.27049,-5.57285 c -32.71033,-9.97726 -58.59479,-13.76674 -103.23084,-15.11295 -44.44062,-1.34032 -68.2134,0.47386 -105.43486,8.04612 -19.04449,3.87435 -42.95932,10.95034 -45.45973,13.45074 -1.95334,1.95334 -3.20971,18.38414 -1.40373,18.35798 1.03559,-0.0149 9.57103,-2.49787 18.96764,-5.51752 l 0,0 z m 62.27689,-48.91328 c 51.36436,-6.73329 112.37271,-2.95765 164.82495,10.20057 l 27.91293,7.00225 1.25189,-11.80458 c 0.68853,-6.49252 1.71127,-14.79855 2.27276,-18.45784 l 1.02085,-6.65325 -21.93269,-4.60895 c -81.38037,-17.10132 -163.60902,-16.44905 -248.8799,1.97427 l -11.25232,2.43111 1.23996,14.22963 c 2.24523,25.76598 -1.1728,24.01186 31.04185,15.93046 15.43649,-3.87241 39.06136,-8.48206 52.49972,-10.24367 l 0,0 z m -54.61823,-42.57068 c 14.78346,-2.84624 43.13346,-6.7724 63,-8.72482 19.86655,-1.9524 36.46455,-3.88614 36.88443,-4.29715 1.89666,-1.85665 -9.16124,-45.88278 -13.92915,-55.45775 -18.8221,-37.79879 -63.94454,-75.3811 -102.59026,-85.44703 -32.327925,-8.42036 -58.728626,0.4201 -72.815947,24.38291 -4.978143,8.46792 -5.762978,12.14702 -5.737231,26.89463 0.03547,20.31505 0.723088,21.8078 26.771481,58.11786 10.291774,14.34619 21.756264,31.40424 25.476642,37.90678 4.955185,8.66077 8.007545,11.8197 11.412685,11.81118 2.55659,-0.006 16.7439,-2.34038 31.52735,-5.18661 z m 263.56168,-5.8977 c 3.52372,-6.05616 14.48953,-22.13412 24.36846,-35.72882 25.87927,-35.61326 29.03068,-42.35578 28.97897,-62.00126 -0.0489,-18.60342 -3.07779,-25.76649 -16.33532,-38.63249 -9.69181,-9.40558 -24.40767,-14.84657 -40.15443,-14.84657 -33.35416,0 -78.3916,25.96557 -107.42183,61.9322 -16.05819,19.89508 -21.5576,31.71728 -27.90879,59.99621 l -4.99135,22.22413 15.13892,1.5904 c 47.2582,4.96463 74.81325,8.62555 90.95248,12.08381 29.28772,6.27563 29.93805,6.16048 37.37289,-6.61761 z M 267.07462,227.3339 c 10.87314,-32.49448 13.58325,-43.35746 14.37737,-57.62928 0.87976,-15.81059 0.41183,-18.72253 -4.63287,-28.83051 -6.70425,-13.4332 -14.60073,-19.6889 -24.85299,-19.6889 -18.00194,0 -29.86444,17.71535 -29.86444,44.59929 0,14.77372 1.58142,21.44541 14.01396,59.12235 7.70768,23.35819 14.81186,42.46942 15.78705,42.46942 0.97522,0 7.80258,-18.01907 15.17192,-40.04237 z"
     id="path2822" />
</svg>
