<?xml version="1.0" encoding="UTF-8" standalone="no"?>
<!-- Created with Inkscape (http://www.inkscape.org/) -->

<svg
   xmlns:dc="http://purl.org/dc/elements/1.1/"
   xmlns:cc="http://creativecommons.org/ns#"
   xmlns:rdf="http://www.w3.org/1999/02/22-rdf-syntax-ns#"
   xmlns:svg="http://www.w3.org/2000/svg"
   xmlns="http://www.w3.org/2000/svg"
   xmlns:sodipodi="http://sodipodi.sourceforge.net/DTD/sodipodi-0.dtd"
   xmlns:inkscape="http://www.inkscape.org/namespaces/inkscape"
   version="1.0"
   width="504"
   height="504"
   id="svg2383"
   inkscape:version="0.47 r22583"
   sodipodi:docname="wr.svg">
  <metadata
     id="metadata14">
    <rdf:RDF>
      <cc:Work
         rdf:about="">
        <dc:format>image/svg+xml</dc:format>
        <dc:type
           rdf:resource="http://purl.org/dc/dcmitype/StillImage" />
      </cc:Work>
    </rdf:RDF>
  </metadata>
  <sodipodi:namedview
     pagecolor="#ffffff"
     bordercolor="#666666"
     borderopacity="1"
     objecttolerance="10"
     gridtolerance="10"
     guidetolerance="10"
     inkscape:pageopacity="0"
     inkscape:pageshadow="2"
     inkscape:window-width="1365"
     inkscape:window-height="878"
     id="namedview12"
     showgrid="false"
     inkscape:zoom="0.46825397"
     inkscape:cx="252"
     inkscape:cy="252"
     inkscape:window-x="-8"
     inkscape:window-y="-8"
     inkscape:window-maximized="1"
     inkscape:current-layer="svg2383" />
  <defs
     id="defs2385">
    <inkscape:perspective
       sodipodi:type="inkscape:persp3d"
       inkscape:vp_x="0 : 252 : 1"
       inkscape:vp_y="0 : 1000 : 0"
       inkscape:vp_z="504 : 252 : 1"
       inkscape:persp3d-origin="252 : 168 : 1"
       id="perspective16" />
  </defs>
  <g
     transform="translate(-554.82183,-264.50049)"
     id="layer1">
    <path
       d="M 86.082672,448.54767 C 81.54705,446.07408 81.05113,443.12361 81.3861,420.60549 L 81.694618,399.86536 L 84.500381,397.45389 C 87.03724,395.27352 88.2113,395.0424 96.75038,395.0424 L 106.19462,395.04239 L 106.19836,377.29239 C 106.20169,361.46014 106.41072,359.21828 108.13308,356.5424 C 109.19512,354.89241 118.62795,344.5424 129.09494,333.5424 L 148.12581,313.54239 L 148.15186,242.5424 L 148.1779,171.5424 L 124.64217,153.64427 C 111.69752,143.8003 100.67628,134.94239 100.15053,133.96001 C 99.594712,132.92145 99.19462,117.4766 99.19462,97.05848 C 99.194622,58.645801 99.3576,57.46017 104.95668,55.14096 C 106.99966,54.294729 116.54524,54.04104 138.47744,54.2501 C 176.44868,54.612051 173.53786,53.19406 174.02618,71.56737 L 174.35773,84.042397 L 191.27618,84.042397 L 208.19463,84.042397 L 208.19463,73.510277 C 208.19462,61.28235 209.52675,56.9759 213.86514,55.17887 C 216.01055,54.290219 226.6119,54.04637 253.96141,54.2566 C 299.489,54.606571 295.53212,52.97821 296.02618,71.56737 L 296.35773,84.042397 L 313.27618,84.042397 L 330.19461,84.042397 L 330.19461,72.992737 C 330.19462,60.58032 331.33199,57.05657 335.95668,55.14096 C 337.99967,54.294729 347.54524,54.04104 369.47744,54.2501 C 399.86527,54.539761 400.16234,54.56293 402.41822,56.81912 C 404.69266,59.093872 404.69487,59.12751 404.98059,95.68975 C 405.21691,125.92969 405.02079,132.65339 403.85109,134.41303 C 403.07256,135.58419 392.03533,144.4174 379.32387,154.0424 L 356.21213,171.5424 L 356.20673,242.5424 L 356.20132,313.54239 L 376.31061,335.02353 C 387.3707,346.83815 396.81919,357.55495 397.30725,358.83863 C 397.7953,360.12232 398.19462,368.75114 398.19462,378.01379 L 398.19461,394.85498 L 408.16885,395.1987 C 423.29219,395.71984 422.69462,394.59496 422.69462,422.5424 C 422.69463,444.56566 422.65188,445.02959 420.41692,447.26462 L 418.13922,449.54239 L 253.41692,449.75726 C 112.47907,449.94111 88.31748,449.76646 86.08267,448.54766 L 86.082672,448.54767 z"
       transform="translate(554.82183,264.50049)"
       id="path2449"
       style="fill:#2B2B3C" />
    <path
       d="M 387.19461,96.542397 L 387.19461,72.042397 L 367.77618,72.042397 L 348.35773,72.042397 L 348.02618,84.517441 C 347.54065,102.78557 350.05045,101.46991 314.98525,101.83786 C 294.93287,102.04828 286.00398,101.79186 283.96433,100.94701 C 279.33171,99.028114 278.19462,95.50929 278.19462,83.09206 L 278.19461,72.042397 L 252.19463,72.042397 L 226.19463,72.042397 L 226.19463,83.986641 C 226.19462,95.16891 226.04075,96.10986 223.78254,98.73664 L 221.37047,101.5424 L 193.09941,101.83786 C 172.95914,102.04835 164.00465,101.79214 161.96433,100.94701 C 157.33171,99.028114 156.19462,95.50929 156.19462,83.09206 L 156.19463,72.042397 L 136.69463,72.042397 L 117.19462,72.042397 L 117.19462,96.542397 L 117.19462,121.0424 L 252.19463,121.0424 L 387.19461,121.0424 L 387.19461,96.542397 z"
       transform="translate(554.82183,264.50049)"
       id="path2394"
       style="fill:#ffffff" />
    <path
       d="M 357.46912,148.7924 L 369.60614,139.5424 L 310.90039,139.28441 C 278.61221,139.14251 225.80447,139.14251 193.54985,139.28441 L 134.90508,139.5424 L 146.79985,148.74146 L 158.69463,157.94052 L 252.01338,157.99146 L 345.33215,158.0424 L 357.46912,148.7924 z"
       transform="translate(554.82183,264.50049)"
       id="path2392"
       style="fill:#ffffff" />
    <path
       d="M 338.19461,242.0424 L 338.19461,176.0424 L 252.19463,176.0424 L 166.19463,176.0424 L 166.19463,242.0424 L 166.19463,308.04239 L 252.19463,308.04239 L 338.19461,308.04239 L 338.19461,242.0424 z"
       transform="translate(554.82183,264.50049)"
       id="path2390"
       style="fill:#ffffff" />
    <path
       d="M 366.51721,350.72964 C 365.51478,349.4576 359.96962,343.38281 354.19462,337.23009 L 343.69461,326.04333 L 252.11742,326.04285 L 160.54021,326.04239 L 147.78635,339.54239 L 135.0325,353.04239 L 251.68614,353.04239 L 368.33978,353.04239 L 366.51721,350.72964 z"
       transform="translate(554.82183,264.50049)"
       id="path2388"
       style="fill:#ffffff" />
    <path
       d="M 380.19461,383.04239 L 380.19461,371.04239 L 252.19463,371.04239 L 124.19462,371.04239 L 124.19462,383.04239 L 124.19462,395.04239 L 252.19463,395.04239 L 380.19461,395.04239 L 380.19461,383.04239 z"
       transform="translate(554.82183,264.50049)"
       id="path2386"
       style="fill:#ffffff" />
    <path
       d="M 405.19461,422.54239 L 405.19461,413.04239 L 252.19463,413.04239 L 99.194618,413.04239 L 99.194618,422.54239 L 99.194618,432.04239 L 252.19463,432.04239 L 405.19461,432.04239 L 405.19461,422.54239 z"
       transform="translate(554.82183,264.50049)"
       id="path2384"
       style="fill:#ffffff" />
  </g>
  <path
     style="fill:#000000"
     d="m 84.39664,446.83196 c -0.703538,-1.13833 -1.854165,-11.50798 -2.556949,-23.04365 -1.524402,-25.02193 0.257554,-28.27645 15.482343,-28.27645 l 9.457626,0 0,-18.17073 0,-18.17074 16.79297,-18.66825 c 9.23613,-10.26752 18.8463,-20.49896 21.35593,-22.73653 4.48676,-4.00032 4.56297,-5.2514 4.56297,-74.90973 l 0,-70.84146 -24.55933,-18.93851 -24.55932,-18.93852 0.0327,-36.422929 c 0.0179,-20.032614 0.77988,-37.598991 1.6931,-39.036391 2.31068,-3.636999 27.6612,-5.299521 50.59624,-3.31817 l 19.22033,1.660439 0.63581,13.347458 0.6358,13.347457 18.05064,0 18.05064,0 0.0327,-11.211864 c 0.0179,-6.166526 0.77988,-12.38792 1.6931,-13.82532 2.41204,-3.796548 27.55424,-5.268831 57.00301,-3.337996 l 25.62712,1.680265 0.63581,13.347458 0.63578,13.347457 18.05066,0 18.05063,0 0.0327,-11.211864 c 0.0523,-17.933935 -0.49733,-17.671579 36.13751,-17.249084 17.62466,0.203257 33.03374,0.980736 34.2424,1.727731 1.37334,0.848757 2.19759,15.630058 2.19759,39.409076 l 0,38.050897 -23.38137,17.88239 -23.38135,17.88238 -0.1102,72.88257 c -0.0989,65.3654 0.2552,73.18489 3.43209,75.81357 1.94822,1.61204 11.07788,11.3317 20.28814,21.59922 l 16.74589,18.66825 0,18.17074 0,18.17073 9.07627,0.0327 c 4.99195,0.0171 10.47058,0.91476 12.17472,1.99285 4.07005,2.5748 5.99888,40.07056 2.40655,46.78288 l -2.45187,4.58142 -166.37509,0 c -105.08327,0 -166.846336,-0.76247 -167.65426,-2.06973 z m 321.36607,-24.62518 0,-9.61017 -153.76271,0 -153.762712,0 0,9.61017 0,9.61017 153.762712,0 153.76271,0 0,-9.61017 z m -25.62712,-39.50847 0,-12.81356 -128.13559,0 -128.13559,0 0,12.81356 0,12.81355 128.13559,0 128.13559,0 0,-12.81355 z m -12.81356,-31.12465 c 0,-0.67449 -5.43188,-6.9211 -12.07084,-13.88136 l -12.07084,-12.65501 -91.03323,0 -91.03322,0 -13.75797,13.88135 -13.75797,13.88136 116.86204,0 c 64.27412,0 116.86203,-0.55186 116.86203,-1.22634 z m -27.76271,-109.82451 0,-66.20339 -86.49152,0 -86.49153,0 0,66.20339 0,66.20339 86.49153,0 86.49152,0 0,-66.20339 z m 16.72533,-91.18978 c 5.48328,-4.34591 10.88255,-8.67048 11.9984,-9.61017 1.11585,-0.93969 -51.18731,-1.70852 -116.22921,-1.70852 l -118.25803,0 12.376,9.61017 12.376,9.61017 93.88363,0 93.88364,0 9.96957,-7.90165 z m 31.32552,-54.030556 0,-24.559322 -19.75424,-0.614039 -19.75424,-0.614038 0,11.673361 c 0,17.682844 -1.34202,18.385224 -35.12833,18.385224 -20.4867,0 -29.04971,-0.763 -30.68569,-2.73423 -1.24806,-1.503827 -2.567,-7.990691 -2.93098,-14.415254 l -0.66177,-11.681024 -26.16102,-0.59963 -26.16102,-0.599629 0,9.536873 c 0,5.245282 -0.94703,12.027751 -2.10451,15.072154 l -2.10451,5.53528 -31.53108,-0.59117 -31.53109,-0.591167 -1.93839,-14.415254 -1.9384,-14.415254 -18.88364,0 -18.88363,0 0,25.643044 0,25.643041 135.07627,-0.54982 135.07627,-0.54982 0,-24.559326 z"
     id="path2822" />
</svg>
