<?xml version="1.0" encoding="UTF-8" standalone="no"?>
<!-- Created with Inkscape (http://www.inkscape.org/) -->
<svg
   xmlns:dc="http://purl.org/dc/elements/1.1/"
   xmlns:cc="http://web.resource.org/cc/"
   xmlns:rdf="http://www.w3.org/1999/02/22-rdf-syntax-ns#"
   xmlns:svg="http://www.w3.org/2000/svg"
   xmlns="http://www.w3.org/2000/svg"
   xmlns:xlink="http://www.w3.org/1999/xlink"
   xmlns:sodipodi="http://inkscape.sourceforge.net/DTD/sodipodi-0.dtd"
   xmlns:inkscape="http://www.inkscape.org/namespaces/inkscape"
   width="700pt"
   height="700pt"
   id="svg36220"
   sodipodi:version="0.32"
   inkscape:version="0.43"
   version="1.0"
   inkscape:export-filename="/home/maurizio/out/wn.png"
   inkscape:export-xdpi="90"
   inkscape:export-ydpi="90"
   sodipodi:docbase="/home/maurizio/out"
   sodipodi:docname="wn.svg">
  <defs
     id="defs36222">
    <linearGradient
       id="linearGradient4060">
      <stop
         style="stop-color:#ffffff;stop-opacity:1;"
         offset="0"
         id="stop4062" />
      <stop
         style="stop-color:#000000;stop-opacity:1;"
         offset="1"
         id="stop4064" />
    </linearGradient>
    <linearGradient
       inkscape:collect="always"
       xlink:href="#linearGradient4060"
       id="linearGradient4264"
       gradientUnits="userSpaceOnUse"
       gradientTransform="matrix(1.920068,0.274945,-0.274945,1.920068,-245.9254,-358.0604)"
       x1="462.73083"
       y1="428.60229"
       x2="618.62885"
       y2="428.60229" />
    <linearGradient
       inkscape:collect="always"
       xlink:href="#linearGradient4060"
       id="linearGradient4266"
       gradientUnits="userSpaceOnUse"
       gradientTransform="matrix(1.803335,0.714312,-0.714312,1.803335,42.09052,-554.4025)"
       x1="522.39294"
       y1="485.50229"
       x2="618.62885"
       y2="469.00677" />
    <linearGradient
       inkscape:collect="always"
       xlink:href="#linearGradient4060"
       id="linearGradient4268"
       gradientUnits="userSpaceOnUse"
       gradientTransform="matrix(1.939654,0,0,1.939654,-420.8046,-442.3758)"
       x1="419.67706"
       y1="352.28876"
       x2="483.55563"
       y2="352.28876" />
    <linearGradient
       inkscape:collect="always"
       xlink:href="#linearGradient4060"
       id="linearGradient4274"
       gradientUnits="userSpaceOnUse"
       gradientTransform="matrix(1.939654,0,0,1.939654,-420.8046,-442.3758)"
       x1="462.73083"
       y1="428.60229"
       x2="618.62885"
       y2="428.60229" />
    <linearGradient
       inkscape:collect="always"
       xlink:href="#linearGradient4060"
       id="linearGradient4278"
       gradientUnits="userSpaceOnUse"
       gradientTransform="matrix(1.939654,0,0,1.939654,-420.8046,-442.3758)"
       x1="456.65414"
       y1="391.58966"
       x2="566.70068"
       y2="425.28772" />
    <linearGradient
       inkscape:collect="always"
       xlink:href="#linearGradient4060"
       id="linearGradient4280"
       gradientUnits="userSpaceOnUse"
       gradientTransform="matrix(1.939654,0,0,1.939654,-410.8046,-442.3758)"
       x1="280.6785"
       y1="392.55249"
       x2="406.05249"
       y2="444.0405" />
    <linearGradient
       inkscape:collect="always"
       xlink:href="#linearGradient4060"
       id="linearGradient4282"
       gradientUnits="userSpaceOnUse"
       gradientTransform="matrix(1.939654,0,0,1.939654,-410.8046,-442.3758)"
       x1="433.81351"
       y1="323.27167"
       x2="357.96667"
       y2="397.28345" />
    <linearGradient
       inkscape:collect="always"
       xlink:href="#linearGradient4060"
       id="linearGradient4284"
       gradientUnits="userSpaceOnUse"
       gradientTransform="matrix(1.939654,0,0,1.939654,-410.8046,-442.3758)"
       x1="377.70755"
       y1="413.54922"
       x2="474.78088"
       y2="505.35657" />
    <linearGradient
       inkscape:collect="always"
       xlink:href="#linearGradient4060"
       id="linearGradient4288"
       gradientUnits="userSpaceOnUse"
       gradientTransform="matrix(1.939654,0,0,1.939654,-389.4726,-328.3882)"
       x1="462.73083"
       y1="428.60229"
       x2="618.62885"
       y2="428.60229" />
    <linearGradient
       inkscape:collect="always"
       xlink:href="#linearGradient4060"
       id="linearGradient2242"
       x1="354.36316"
       y1="724.97058"
       x2="456.54602"
       y2="864.27307"
       gradientUnits="userSpaceOnUse"
       gradientTransform="matrix(0.917252,0,0,0.917252,112.7375,73.418)" />
    <linearGradient
       inkscape:collect="always"
       xlink:href="#linearGradient4060"
       id="linearGradient2244"
       x1="794.93005"
       y1="722.53284"
       x2="770.78296"
       y2="895.88794"
       gradientUnits="userSpaceOnUse"
       gradientTransform="matrix(0.917252,0,0,0.917252,89.72287,71.15088)" />
    <linearGradient
       inkscape:collect="always"
       xlink:href="#linearGradient4060"
       id="linearGradient3120"
       gradientUnits="userSpaceOnUse"
       gradientTransform="matrix(1.939654,0,0,1.939654,-420.8046,-442.3758)"
       x1="462.73083"
       y1="428.60229"
       x2="618.62885"
       y2="428.60229" />
    <linearGradient
       inkscape:collect="always"
       xlink:href="#linearGradient4060"
       id="linearGradient3126"
       gradientUnits="userSpaceOnUse"
       gradientTransform="matrix(1.939654,0,0,1.939654,-420.8046,-442.3758)"
       x1="511.89685"
       y1="446.66107"
       x2="611.99969"
       y2="452.35666" />
    <linearGradient
       inkscape:collect="always"
       xlink:href="#linearGradient4060"
       id="linearGradient3132"
       gradientUnits="userSpaceOnUse"
       gradientTransform="matrix(1.939654,0,0,1.939654,-420.8046,-442.3758)"
       x1="522.39294"
       y1="485.50229"
       x2="618.62885"
       y2="469.00677" />
    <linearGradient
       inkscape:collect="always"
       xlink:href="#linearGradient4060"
       id="linearGradient3138"
       gradientUnits="userSpaceOnUse"
       gradientTransform="matrix(1.882426,0.467683,-0.467683,1.882426,-126.9624,-566.0042)"
       x1="522.39294"
       y1="485.50229"
       x2="618.62885"
       y2="469.00677" />
  </defs>
  <sodipodi:namedview
     id="base"
     pagecolor="#ffffff"
     bordercolor="#666666"
     borderopacity="1.0"
     inkscape:pageopacity="0.0"
     inkscape:pageshadow="2"
     inkscape:zoom="0.31"
     inkscape:cx="437.5"
     inkscape:cy="267.51443"
     inkscape:current-layer="layer1"
     inkscape:document-units="px"
     inkscape:window-width="1059"
     inkscape:window-height="817"
     inkscape:window-x="135"
     inkscape:window-y="127" />
  <metadata
     id="metadata36225">
    <rdf:RDF>
      <cc:Work
         rdf:about="">
        <dc:format>image/svg+xml</dc:format>
        <dc:type
           rdf:resource="http://purl.org/dc/dcmitype/StillImage" />
        <dc:publisher>
          <cc:Agent>
            <dc:title />
          </cc:Agent>
        </dc:publisher>
        <dc:creator>
          <cc:Agent>
            <dc:title>Maurizio Monge</dc:title>
          </cc:Agent>
        </dc:creator>
        <cc:license
           rdf:resource="http://creativecommons.org/licenses/GPL/2.0/" />
      </cc:Work>
      <cc:License
         rdf:about="http://creativecommons.org/licenses/GPL/2.0/">
        <cc:permits
           rdf:resource="http://web.resource.org/cc/Reproduction" />
        <cc:permits
           rdf:resource="http://web.resource.org/cc/Distribution" />
        <cc:requires
           rdf:resource="http://web.resource.org/cc/Notice" />
        <cc:permits
           rdf:resource="http://web.resource.org/cc/DerivativeWorks" />
        <cc:requires
           rdf:resource="http://web.resource.org/cc/ShareAlike" />
        <cc:requires
           rdf:resource="http://web.resource.org/cc/SourceCode" />
      </cc:License>
    </rdf:RDF>
  </metadata>
  <g
     id="layer1"
     inkscape:label="Layer 1"
     inkscape:groupmode="layer">
    <path
       style="fill:none;fill-opacity:0.75;fill-rule:evenodd;stroke:#000000;stroke-width:8;stroke-linecap:round;stroke-linejoin:round;stroke-opacity:1;stroke-miterlimit:4;stroke-dasharray:none"
       d="M 198.3871,518.54839 C 203.27944,526.95079 205.67717,531.66123 217.74194,534.67742 C 224.78842,536.43904 222.58065,523.13669 222.58065,515.32258 C 222.58065,503.09755 225.39136,501.82045 233.87097,497.58064 C 242.02964,493.50131 246.67783,507.06534 248.3871,510.48387 C 252.44753,518.60474 263.45853,514.76728 267.74194,510.48387 C 273.53875,504.68705 272.58065,497.57144 272.58065,487.90323 C 272.58065,484.79955 264.51613,481.54053 264.51613,471.77419 C 264.51613,469.37398 283.39422,470.16129 287.09677,470.16129 C 288.47762,470.16129 300.87083,487.16115 301.6129,487.90323 C 307.92357,494.2139 316.27473,490.83764 319.35484,484.67742 C 323.41615,476.5548 313.44039,471.23633 308.06452,468.54839 C 302.77517,465.90371 302.65057,453.34423 301.6129,449.19355 C 299.76883,441.81726 317.67377,448.50749 324.19355,452.41935 C 333.98445,458.29389 329.23331,465.27232 341.93548,462.09677 C 351.76133,459.64031 347.71288,449.12092 345.16129,442.74194 C 343.46701,438.50624 337.52405,437.14487 335.48387,433.06452"
       id="path2701" />
    <path
       style="fill:url(#linearGradient2242);fill-opacity:1;fill-rule:evenodd;stroke:#000000;stroke-width:16;stroke-linecap:butt;stroke-linejoin:miter;stroke-miterlimit:4;stroke-dasharray:none;stroke-opacity:1"
       d="M 512.35582,733.74102 C 483.86669,753.31037 523.81471,786.94234 496.59545,808.33078 C 469.00974,833.44793 486.67185,827.46342 452.30823,834.45737 C 428.5375,840.8181 349.07064,843.57489 372.70099,826.73306 C 404.01587,804.31995 416.56214,767.67132 442.29701,740.91286 C 458.09096,729.22595 524.79288,672.95704 512.35582,733.74102 z "
       id="path1343"
       sodipodi:nodetypes="cccccc" />
    <path
       style="fill:url(#linearGradient4264);fill-opacity:1;fill-rule:evenodd;stroke:#000000;stroke-width:16;stroke-linecap:round;stroke-linejoin:round;stroke-miterlimit:4;stroke-dasharray:none;stroke-opacity:1"
       d="M 671.8874,708.5138 C 672.52098,700.54813 678.83141,692.8299 675.25936,684.76065 C 671.85476,678.67386 669.18135,670.11482 674.2674,664.16143 C 682.83986,654.97702 695.91208,653.23515 706.80483,648.05878 C 712.92088,645.82877 719.10295,643.77045 725.37684,642.02884 C 732.60537,643.76585 735.03249,652.30712 734.12745,658.87109 C 733.50555,674.50589 731.20077,690.17046 732.88909,705.80452 C 733.40589,715.94773 732.18377,726.19966 734.36198,736.21625 C 735.27746,741.7123 736.25318,747.87657 732.56077,752.64893 C 728.52121,759.07245 719.95272,762.01539 712.92767,758.90968 C 704.8593,756.31863 700.67376,748.40643 694.51733,743.27264 C 687.66451,737.77174 678.37905,735.09358 673.14063,727.75792 C 670.10163,721.7733 671.74726,714.89016 671.8874,708.5138 z "
       id="path4260" />
    <path
       style="fill:url(#linearGradient4266);fill-opacity:1;fill-rule:evenodd;stroke:#000000;stroke-width:16;stroke-linecap:round;stroke-linejoin:round;stroke-miterlimit:4;stroke-dasharray:none;stroke-opacity:1"
       d="M 678.16424,717.59941 C 685.36496,711.90665 671.28649,713.09748 684.29521,710.6436 C 697.30392,708.18974 711.5842,714.1185 718.98935,725.11514 C 722.5965,729.43121 726.28003,735.29152 732.27328,736.0535 C 743.57459,735.56819 742.50013,721.92736 747.56603,715.47635 C 754.0814,710.54563 759.40999,718.10747 757.21893,724.33483 C 756.56275,732.87178 759.39023,740.81005 763.10814,748.21972 C 765.1172,756.45168 764.14233,765.53231 768.95295,772.93847 C 777.35886,790.53886 776.85446,810.50423 776.19624,829.52369 C 768.07678,831.05096 770.71884,817.82376 767.83225,812.8471 C 766.08086,802.63549 767.53611,791.85177 764.50029,781.93618 C 758.53257,774.58145 750.07444,785.82677 754.35717,792.08247 C 753.67027,800.53373 748.75544,809.26764 743.07227,814.95993 C 743.22763,809.27648 740.93687,801.18416 733.46115,802.56082 C 723.51383,805.1972 734.09066,817.32466 725.89844,820.9104 C 718.57566,821.52196 715.40252,812.06825 712.53155,806.65394 C 708.29772,795.44982 707.23834,783.34276 702.88706,772.1582 C 698.3016,759.89519 695.83409,745.64698 685.3793,736.77399 C 679.12512,733.60565 670.96352,723.29218 678.16424,717.59941 z "
       id="path4262"
       sodipodi:nodetypes="ccccccccccccccccccc" />
    <path
       id="path4241"
       d="M 670.25895,597.31702 C 669.757,589.34197 674.90966,580.80718 670.22986,573.32574 C 665.99684,567.78301 662.13719,559.68935 666.32799,553.07513 C 673.51201,542.76832 686.20532,539.19106 696.25434,532.52291 C 701.99253,529.44848 707.82041,526.53463 713.78408,523.92129 C 721.18584,524.61612 724.79917,532.7271 724.83371,539.35308 C 726.43431,554.91817 726.37325,570.75127 730.26064,585.98814 C 732.21001,595.95568 732.45344,606.27732 736.0295,615.88401 C 737.7148,621.1948 739.55445,627.15852 736.5758,632.40608 C 733.48756,639.33735 725.42275,643.46515 718.0284,641.3866 C 709.67422,639.9654 704.40939,632.72639 697.58742,628.51711 C 690.02404,624.04313 680.45271,622.70822 674.22736,616.18918 C 670.37073,610.69576 671.02407,603.64886 670.25895,597.31702 z "
       style="fill:url(#linearGradient4288);fill-opacity:1;fill-rule:evenodd;stroke:#000000;stroke-width:16;stroke-linecap:round;stroke-linejoin:round;stroke-miterlimit:4;stroke-dasharray:none;stroke-opacity:1" />
    <path
       style="fill:url(#linearGradient3138);fill-opacity:1;fill-rule:evenodd;stroke:#000000;stroke-width:16;stroke-linecap:round;stroke-linejoin:round;stroke-miterlimit:4;stroke-dasharray:none;stroke-opacity:1"
       d="M 672.91159,609.9125 C 676.55646,607.51434 670.25121,602.00422 677.30611,602.4074 C 691.73615,597.18759 708.35421,603.33433 717.65675,615.10913 C 722.60434,621.95904 734.7954,623.42846 737.24679,613.58312 C 739.10571,607.60396 739.38384,592.39512 749.20562,597.78564 C 754.92747,602.57259 750.80054,610.37797 754.29616,616.22931 C 757.60054,623.9298 763.00957,630.74471 764.16461,639.27796 C 765.49969,647.33028 771.19211,653.25274 774.58014,660.36295 C 781.62229,675.15392 783.38037,691.67694 784.98153,707.77798 C 776.66404,708.064 777.15563,697.59666 774.88821,691.98965 C 771.15,683.65173 771.68805,674.00909 768.37264,665.45711 C 765.73091,654.58948 752.69014,664.81302 757.08058,672.7361 C 760.97882,679.9759 753.52721,694.69962 750.18684,696.44549 C 751.22415,687.9828 736.18959,681.38601 735.47397,692.19245 C 736.76791,697.4475 737.7706,709.33855 728.90998,705.12865 C 718.47756,698.14682 715.26707,685.14801 710.66431,674.18335 C 706.24832,662.83192 700.53746,652.04232 694.81376,641.31558 C 690.90027,634.41266 685.0571,628.57497 677.7612,625.35695 C 673.12581,622.14925 667.72637,615.0962 672.91159,609.9125 z "
       id="path4243" />
    <path
       style="fill:url(#linearGradient4284);fill-opacity:1;fill-rule:evenodd;stroke:#000000;stroke-width:16;stroke-linecap:round;stroke-linejoin:round;stroke-miterlimit:4;stroke-dasharray:none;stroke-opacity:1"
       d="M 425.58633,258.07691 C 440.5388,278.98191 547.82773,415.75969 479.61393,482.16931 C 449.05304,513.74249 410.13108,525.21369 365.86476,522.03048 C 326.334,536.82799 183.00789,623.00918 138.36237,644.55116 C 121.39802,646.92578 92.557988,638.00494 94.555518,625.04224 C 114.58023,614.61447 133.23168,615.27978 145.6409,600.4322 C 172.01465,594.29332 198.84442,576.85027 210.05841,540.67147 C 235.01891,534.52998 323.28692,476.03958 351.077,449.80072 C 364.39121,434.30201 388.16561,417.85828 397.50532,399.46152 C 407.27024,376.75461 402.0142,315.78949 393.6393,288.31072 C 426.41278,328.66521 389.77426,226.18235 425.58633,258.07691 z "
       id="path1404"
       sodipodi:nodetypes="ccccccccccc" />
    <path
       style="fill:url(#linearGradient4282);fill-opacity:1;fill-rule:evenodd;stroke:#000000;stroke-width:16;stroke-linecap:round;stroke-linejoin:round;stroke-miterlimit:4;stroke-dasharray:none;stroke-opacity:1"
       d="M 402.97525,145.97636 C 417.82823,144.23546 436.96724,155.87484 431.06225,172.61401 C 428.68897,187.12871 417.86476,199.47746 403.70289,203.4721 C 388.05271,211.79138 368.53924,208.28143 353.38729,216.87433 C 341.01596,232.74618 370.02613,274.54111 382.49354,273.30657 C 379.68422,297.3638 378.47163,375.44619 376.46402,386.30987 C 372.32595,403.33596 324.09116,438.51793 302.73582,453.73528 C 291.14621,469.23279 267.51279,473.50871 256.37952,455.05395 C 244.90021,442.41269 260.3062,343.19191 271.9173,311.96088 C 278.30591,294.22776 304.12004,198.97518 325.71884,177.23204 C 333.1213,172.27576 385.01325,147.25503 402.97525,145.97636 z "
       id="path3182"
       sodipodi:nodetypes="ccccccccccc" />
    <path
       style="fill:url(#linearGradient4280);fill-opacity:1;fill-rule:evenodd;stroke:#000000;stroke-width:16;stroke-linecap:round;stroke-linejoin:round;stroke-miterlimit:4;stroke-dasharray:none;stroke-opacity:1"
       d="M 347.97524,160.09761 C 343.99701,154.9415 287.2519,198.60633 272.62079,216.07647 C 245.76982,249.54749 210.90867,293.82079 196.61055,320.45417 C 181.17234,335.89108 112.55427,418.56372 88.716693,495.62927 C 96.437882,490.97451 132.86261,451.03788 144.1181,445.62255 C 158.12823,431.29749 126.95788,505.4104 113.75091,525.63332 C 100.01821,533.5105 98.504968,549.60636 93.202692,564.48704 C 88.834744,579.08845 83.158609,594.29294 91.44487,608.00805 C 107.27175,601.58263 122.91367,584.39127 143.08819,581.21657 C 149.51451,563.62591 154.41175,528.66609 184.60893,525.20902 C 214.43018,520.72277 241.40054,505.53254 263.40744,485.26424 C 278.6167,469.11342 347.30505,423.79104 346.57016,419.31597 C 321.50457,425.3354 294.28286,439.13917 267.71104,435.98488 C 280.19559,418.37853 345.83812,350.10166 358.38993,327.54603 C 365.2964,306.60121 373.52289,286.04334 383.18114,266.14382 C 390.39061,248.64334 408.70047,234.61017 384.35035,212.29885 C 376.47522,208.27007 374.94466,227.61435 367.54267,238.07943 C 354.51054,258.79169 312.75615,258.55582 306.29099,232.14699 C 299.04905,202.49878 350.61158,163.51451 347.97524,160.09761 z "
       id="path2295"
       sodipodi:nodetypes="ccccccccccccccccccs" />
    <path
       style="fill:url(#linearGradient4278);fill-opacity:1;fill-rule:evenodd;stroke:#000000;stroke-width:16;stroke-linecap:round;stroke-linejoin:round;stroke-miterlimit:4;stroke-dasharray:none;stroke-opacity:1"
       d="M 500.7011,192.94788 C 507.0403,204.9359 519.25141,212.98231 532.21359,216.19659 C 543.18604,223.9198 530.7835,239.1926 539.46647,248.09624 C 548.05365,256.96078 554.13271,268.18871 556.48253,280.28322 C 562.57374,293.74471 569.34965,307.20758 571.19963,322.0591 C 576.13296,337.36416 590.83085,345.99488 601.0346,357.52924 C 607.55243,364.74834 615.20624,371.83694 618.37339,381.22548 C 621.43931,391.20318 611.38977,394.85239 603.65528,393.47656 C 597.96752,397.45933 604.87749,417.01533 593.33728,410.42928 C 583.44732,402.37065 580.63089,388.95151 582.06802,376.83578 C 581.24287,362.11004 572.41638,349.61507 567.34296,336.19105 C 558.01463,321.13478 544.0939,308.43046 527.14764,302.67603 C 516.40496,298.58236 505.76936,292.28637 500.63978,281.51762 C 493.0962,270.48418 486.38018,258.34322 485.71812,244.67222 C 483.16504,227.4732 483.85988,208.27331 495.03747,194.04592 C 496.54228,192.64997 498.7972,192.407 500.7011,192.94788 z "
       id="path4100" />
    <path
       style="fill:url(#linearGradient3120);fill-opacity:1;fill-rule:evenodd;stroke:#000000;stroke-width:16;stroke-linecap:round;stroke-linejoin:round;stroke-miterlimit:4;stroke-dasharray:none;stroke-opacity:1"
       d="M 568.20679,275.4548 C 576.45725,269.42569 586.79228,274.87546 595.93234,272.99924 C 608.65,271.78184 622.98242,271.03747 633.70293,279.25718 C 643.2832,289.51327 650.037,302.38066 652.77504,316.15525 C 656.11822,326.26137 663.70734,334.00993 669.9497,342.32033 C 673.72326,348.81771 675.62292,358.26848 670.151,364.34324 C 663.86991,368.97809 656.49213,362.78785 653.23014,357.35296 C 648.2686,350.89896 643.97705,342.25047 636.98317,338.35163 C 629.89884,341.20455 639.19403,350.44245 636.65467,356.22175 C 636.51955,363.59437 638.79585,370.84155 642.3353,377.25144 C 644.55471,384.21984 639.76809,395.08056 631.28454,393.22197 C 624.15221,390.93002 623.87368,382.39613 622.54625,376.24406 C 619.41214,365.70202 606.51069,363.25282 601.2312,354.18861 C 588.31194,333.72028 573.76921,313.02151 569.5848,288.6757 C 568.9528,284.2881 568.66895,279.8612 568.20679,275.4548 z "
       id="path4102" />
    <path
       style="fill:url(#linearGradient4274);fill-opacity:1;fill-rule:evenodd;stroke:#000000;stroke-width:16;stroke-linecap:round;stroke-linejoin:round;stroke-miterlimit:4;stroke-dasharray:none;stroke-opacity:1"
       d="M 638.92693,483.32932 C 638.42498,475.35427 643.57764,466.81948 638.89783,459.33804 C 634.6648,453.79531 630.80516,445.70165 634.99596,439.08743 C 642.17997,428.78062 654.8733,425.20336 664.92232,418.53521 C 670.6605,415.46078 676.48839,412.54693 682.45205,409.93359 C 689.85382,410.62842 693.46714,418.73941 693.50168,425.36538 C 695.10229,440.93047 695.04123,456.76357 698.9286,472.00044 C 700.87798,481.96798 701.1214,492.28962 704.69747,501.89631 C 706.38278,507.2071 708.22243,513.17082 705.24378,518.41838 C 702.15554,525.34965 694.09072,529.47745 686.69636,527.39891 C 678.34219,525.9777 673.07737,518.73869 666.25539,514.52941 C 658.69202,510.05543 649.12068,508.72052 642.89532,502.20148 C 639.03871,496.70806 639.69204,489.66116 638.92693,483.32932 z "
       id="path4106" />
    <path
       style="fill:url(#linearGradient3132);fill-opacity:1;fill-rule:evenodd;stroke:#000000;stroke-width:16;stroke-linecap:round;stroke-linejoin:round;stroke-miterlimit:4;stroke-dasharray:none;stroke-opacity:1"
       d="M 639.00299,505.98386 C 641.9621,502.77762 634.51427,498.95037 641.45825,497.6406 C 654.20395,489.09548 671.81381,491.05396 683.68097,500.23837 C 690.13422,505.69323 702.31991,504.17984 702.32511,494.03391 C 702.6875,487.78293 699.29033,472.95574 710.12208,475.81906 C 716.8293,479.08514 714.70617,487.6553 719.5095,492.49113 C 724.57309,499.1677 731.46573,504.47735 734.64419,512.48033 C 737.88144,519.97315 744.83392,524.34834 749.83638,530.43185 C 760.23711,543.08846 765.92727,558.70009 771.36343,573.94001 C 763.36031,576.22313 761.31353,565.94602 757.76107,561.05117 C 752.12275,553.86059 750.31991,544.3727 745.04029,536.87245 C 739.85614,526.96241 729.66524,540.02868 735.83649,546.65938 C 741.36536,552.74566 737.68373,568.83165 734.86287,571.33145 C 733.82906,562.86835 717.6475,560.09126 719.55861,570.75143 C 722.08147,575.53945 725.92168,586.83787 716.3074,584.88862 C 704.49933,580.62825 698.24937,568.787 691.13863,559.25565 C 684.11591,549.30392 675.972,540.20963 667.83078,531.17946 C 662.36834,525.42381 655.29,521.16724 647.43343,519.80334 C 642.16136,517.80795 635.22064,512.26486 639.00299,505.98386 z "
       id="path4108" />
    <path
       style="fill:url(#linearGradient3126);fill-opacity:1;fill-rule:evenodd;stroke:#000000;stroke-width:16;stroke-linecap:round;stroke-linejoin:round;stroke-miterlimit:4;stroke-dasharray:none;stroke-opacity:1"
       d="M 710.71869,432.96796 C 719.91955,437.28265 720.37335,450.13999 729.89043,454.13271 C 735.65242,458.31181 740.1007,467.4513 735.27842,473.841 C 729.06186,480.65795 719.3966,471.95083 718.87344,464.7148 C 717.65721,453.37569 705.07056,449.63052 699.19569,441.27424 C 697.05224,438.5493 696.30224,431.56657 691.77134,432.901 C 694.37264,439.31027 699.56548,448.84488 692.37013,454.28557 C 682.5753,456.91308 679.8866,444.74634 674.08202,440.05467 C 666.22139,434.68929 656.33577,445.49284 665.25666,451.55288 C 670.39488,453.9493 671.67464,466.12382 664.13572,462.17939 C 656.79467,457.56087 653.43506,448.3266 645.01017,445.06865 C 635.59796,440.3848 623.82135,438.74445 617.45906,429.45673 C 611.66415,422.40744 605.81196,415.27347 601.32448,407.31917 C 599.4204,397.84163 611.51524,397.44375 617.65662,400.11301 C 624.77159,401.64587 633.60307,404.65613 639.7321,399.08798 C 646.11634,391.63475 640.00591,379.27718 648.44605,372.95437 C 657.52465,367.49178 663.18357,378.60246 668.46288,383.71688 C 675.74677,387.90471 686.30311,386.56467 691.07936,394.70841 C 695.20577,402.38869 699.00925,410.28744 704.40811,417.20794 C 707.2076,421.98513 712.24046,426.98581 710.71869,432.96796 z "
       id="path4104" />
    <path
       style="fill:url(#linearGradient4268);fill-opacity:1;fill-rule:evenodd;stroke:#000000;stroke-width:16;stroke-linecap:round;stroke-linejoin:round;stroke-miterlimit:4;stroke-dasharray:none;stroke-opacity:1"
       d="M 450.33974,194.01941 C 441.80564,187.08979 428.32721,184.76976 419.17718,191.83395 C 403.31194,197.69953 393.72559,223.68315 407.857,232.38928 C 414.45136,238.74802 432.69561,240.5668 439.39027,236.22949 C 455.04741,240.52106 462.82206,252.31007 470.54694,254.12354 C 479.11505,259.00294 481.48717,269.356 486.07666,277.38561 C 489.54361,284.05894 493.31717,291.52132 500.16673,295.19165 C 508.26747,297.02945 514.5872,288.91562 508.85817,284.018 C 501.407,277.14984 501.05115,218.68086 499.29925,198.55034 C 498.96278,190.4799 483.99887,183.5418 480.23638,190.57035 C 473.4927,197.62928 470.08917,233.86814 471.79899,223.35582 C 469.09438,214.55331 457.55661,200.42731 450.33974,194.01941 z "
       id="path4084"
       sodipodi:nodetypes="cccccccccccc" />
    <path
       style="fill:url(#linearGradient2244);fill-opacity:1;fill-rule:evenodd;stroke:#000000;stroke-width:16;stroke-linecap:butt;stroke-linejoin:miter;stroke-miterlimit:4;stroke-dasharray:none;stroke-opacity:1"
       d="M 725.76456,781.68768 C 661.23668,746.19154 616.8922,724.88645 556.1297,691.21928 C 520.85768,675.47599 515.49672,736.32344 528.65469,764.00717 C 542.6537,793.46044 485.14304,805.30251 527.52335,833.90046 C 567.61987,842.69707 664.43057,845.50911 734.00167,845.20488 C 775.91173,853.71275 911.22103,801.05523 812.0034,767.1204 C 781.28325,759.68071 756.96097,791.60618 725.76456,781.68768 z "
       id="path1341"
       sodipodi:nodetypes="ccscccc" />
    <path
       style="fill:#000000;fill-opacity:1;fill-rule:evenodd;stroke:#000000;stroke-width:1px;stroke-linecap:butt;stroke-linejoin:miter;stroke-opacity:1"
       d="M 291.93548,294.35484 C 287.874,303.49318 295.68901,311.01159 300,315.32258 C 304.06035,319.38293 312.73347,321.73175 319.35484,323.3871 C 326.38816,325.14543 334.25571,321.3871 341.54839,321.3871 C 351.13103,321.3871 353.22581,307.25309 353.22581,299.19355 C 353.22581,291.53086 342.73343,284.66041 340.32258,279.83871 C 337.48168,274.1569 322.04477,274.78671 318.58065,271.32258 C 316.1464,268.88834 299.05347,278.33938 291.93548,294.35484 z "
       id="path2699"
       sodipodi:nodetypes="csssssss" />
  </g>
</svg>
