<?xml version="1.0" encoding="UTF-8" standalone="no"?>
<!-- Created with Inkscape (http://www.inkscape.org/) -->
<svg
   xmlns:svg="http://www.w3.org/2000/svg"
   xmlns="http://www.w3.org/2000/svg"
   xmlns:xlink="http://www.w3.org/1999/xlink"
   version="1.0"
   width="45"
   height="45"
   viewBox="0 0 45 45"
   id="Layer_1"
   xml:space="preserve"><defs
   id="defs7158"><linearGradient
   x1="8.3895998"
   y1="38.75"
   x2="36.610401"
   y2="38.75"
   id="linearGradient11397"
   gradientUnits="userSpaceOnUse"><stop
     id="stop11399"
     style="stop-color:#47423a;stop-opacity:1"
     offset="0" /><stop
     id="stop11401"
     style="stop-color:#6e665a;stop-opacity:1"
     offset="1" /></linearGradient><linearGradient
   x1="8.3895998"
   y1="38.75"
   x2="36.610401"
   y2="38.75"
   id="linearGradient11378"
   gradientUnits="userSpaceOnUse"><stop
     id="stop11380"
     style="stop-color:#6e665a;stop-opacity:1"
     offset="0" /><stop
     id="stop11382"
     style="stop-color:#47423a;stop-opacity:1"
     offset="1" /></linearGradient><radialGradient
   cx="22.67388"
   cy="35.990055"
   r="11.417765"
   fx="22.67388"
   fy="35.990055"
   id="radialGradient6090"
   xlink:href="#linearGradient11378"
   gradientUnits="userSpaceOnUse"
   gradientTransform="matrix(1,0,0,0.3956758,0,22.060739)" /><linearGradient
   x1="3.3896"
   y1="37.5"
   x2="41.610401"
   y2="37.5"
   id="linearGradient7727"
   gradientUnits="userSpaceOnUse">
		<stop
   id="stop7729"
   style="stop-color:#414141;stop-opacity:1"
   offset="0" />
		<stop
   id="stop7731"
   style="stop-color:#646464;stop-opacity:1"
   offset="1" />
	</linearGradient>
	<linearGradient
   x1="10"
   y1="32.499001"
   x2="35"
   y2="32.499001"
   id="SVGID_1_"
   gradientUnits="userSpaceOnUse">
		<stop
   id="stop7112"
   style="stop-color:#ffffff;stop-opacity:1"
   offset="0" />
		<stop
   id="stop7114"
   style="stop-color:#a6a6a6;stop-opacity:1"
   offset="1" />
	</linearGradient>
	
	<linearGradient
   x1="3.3896"
   y1="37.5"
   x2="41.610401"
   y2="37.5"
   id="SVGID_2_"
   gradientUnits="userSpaceOnUse">
		<stop
   id="stop7119"
   style="stop-color:#646464;stop-opacity:1"
   offset="0" />
		<stop
   id="stop7121"
   style="stop-color:#414141;stop-opacity:1"
   offset="1" />
	</linearGradient>
	

	<linearGradient
   x1="11.9214"
   y1="20"
   x2="33.078098"
   y2="20"
   id="SVGID_3_"
   gradientUnits="userSpaceOnUse">
		<stop
   id="stop7128"
   style="stop-color:#ffffff;stop-opacity:1"
   offset="0" />
		<stop
   id="stop7130"
   style="stop-color:#a6a6a6;stop-opacity:1"
   offset="1" />
	</linearGradient>
	
	<linearGradient
   x1="20"
   y1="7.4994998"
   x2="25"
   y2="7.4994998"
   id="SVGID_4_"
   gradientUnits="userSpaceOnUse">
		<stop
   id="stop7135"
   style="stop-color:#ffffff;stop-opacity:1"
   offset="0" />
		<stop
   id="stop7137"
   style="stop-color:#a6a6a6;stop-opacity:1"
   offset="1" />
	</linearGradient>
	

	<linearGradient
   x1="21.25"
   y1="20"
   x2="23.75"
   y2="20"
   id="SVGID_5_"
   gradientUnits="userSpaceOnUse">
		<stop
   id="stop7144"
   style="stop-color:#a6a6a6;stop-opacity:1"
   offset="0" />
		<stop
   id="stop7146"
   style="stop-color:#ffffff;stop-opacity:1"
   offset="1" />
	</linearGradient>
	
	<linearGradient
   x1="17.5"
   y1="20"
   x2="27.5"
   y2="20"
   id="SVGID_6_"
   gradientUnits="userSpaceOnUse">
		<stop
   id="stop7151"
   style="stop-color:#a6a6a6;stop-opacity:1"
   offset="0" />
		<stop
   id="stop7153"
   style="stop-color:#ffffff;stop-opacity:1"
   offset="1" />
	</linearGradient>
	
<linearGradient
   x1="17"
   y1="20"
   x2="28"
   y2="20"
   id="linearGradient7715"
   xlink:href="#linearGradient11397"
   gradientUnits="userSpaceOnUse" /><linearGradient
   x1="20.74975"
   y1="20"
   x2="24.25025"
   y2="20"
   id="linearGradient7717"
   xlink:href="#linearGradient11397"
   gradientUnits="userSpaceOnUse" /><linearGradient
   x1="19.25"
   y1="7.5"
   x2="25.75"
   y2="7.5"
   id="linearGradient7719"
   xlink:href="#linearGradient11378"
   gradientUnits="userSpaceOnUse" /><linearGradient
   x1="11.171488"
   y1="20"
   x2="33.82851"
   y2="20"
   id="linearGradient7721"
   xlink:href="#linearGradient11378"
   gradientUnits="userSpaceOnUse" /><linearGradient
   x1="2.641"
   y1="37.4995"
   x2="42.361"
   y2="37.4995"
   id="linearGradient7723"
   xlink:href="#linearGradient11378"
   gradientUnits="userSpaceOnUse" /><linearGradient
   x1="9.25"
   y1="32.499001"
   x2="35.75"
   y2="32.499001"
   id="linearGradient7725"
   xlink:href="#linearGradient11378"
   gradientUnits="userSpaceOnUse" /><radialGradient
   cx="22.67388"
   cy="35.990055"
   r="11.417765"
   fx="22.67388"
   fy="35.990055"
   id="radialGradient11389"
   xlink:href="#linearGradient11378"
   gradientUnits="userSpaceOnUse"
   gradientTransform="matrix(1,0,0,0.3956758,26.99487,10.453355)" /></defs>
<path
   d="M 35,32.499 C 35,33.88 33.881,34.999 32.5,34.999 L 12.5,34.999 C 11.119,34.999 10,33.88 10,32.499 L 10,32.499 C 10,31.118 11.119,29.999 12.5,29.999 L 32.5,29.999 C 33.881,29.999 35,31.118 35,32.499 L 35,32.499 z"
   id="path7116"
   style="fill:url(#linearGradient7725);fill-opacity:1;stroke:#47423a;stroke-width:1.5;stroke-opacity:1" /><path
   d="M 37.104,40 L 41.611,40 C 36.384,36.874 29.739,34.999 22.501,34.999 C 15.263,34.999 8.618,36.874 3.391,40 L 7.898,40 C 12.452,38.383 17.371,37.5 22.502,37.5 C 27.633,37.5 32.55,38.383 37.104,40 z"
   id="path7123"
   style="fill:url(#linearGradient7723);fill-opacity:1;stroke:#47423a;stroke-width:1.5;stroke-opacity:1" />
<path
   d="M 22.5,10 C 22.5,10 2.5,20 17.5,30 L 27.5,30 C 42.5,20 22.5,10 22.5,10 z"
   id="path7132"
   style="fill:url(#linearGradient7721);fill-opacity:1;stroke:#47423a;stroke-width:1.5;stroke-opacity:1" /><circle
   cx="22.5"
   cy="7.5"
   r="2.5"
   id="circle7139"
   style="fill:url(#linearGradient7719);fill-opacity:1;stroke:#47423a;stroke-width:1.5;stroke-opacity:1" />
<path
   d="M 22.5,20 C 24.167,21.667 24.167,25 22.5,25 C 20.833,25 20.833,21.667 22.5,20 C 24.167,18.333 24.167,15 22.5,15 C 20.833,15 20.833,18.333 22.5,20 z"
   id="path7148"
   style="fill:url(#linearGradient7717);fill-opacity:1;stroke:#cbefc0;stroke-opacity:1" /><path
   d="M 22.5,20 C 24.167,18.333 27.5,18.333 27.5,20 C 27.5,21.667 24.167,21.667 22.5,20 C 20.833,18.333 17.5,18.333 17.5,20 C 17.5,21.667 20.833,21.667 22.5,20 z"
   id="path7155"
   style="fill:url(#linearGradient7715);fill-opacity:1;stroke:#cbefc0;stroke-opacity:1" />
</svg>