<?xml version="1.0" encoding="UTF-8" standalone="no"?>
<!-- Created with Inkscape (http://www.inkscape.org/) -->
<svg
   xmlns:svg="http://www.w3.org/2000/svg"
   xmlns="http://www.w3.org/2000/svg"
   xmlns:xlink="http://www.w3.org/1999/xlink"
   version="1.0"
   width="45"
   height="45"
   id="svg3128">
  <defs
     id="defs3130">
    <linearGradient
       x1="8.3895998"
       y1="38.75"
       x2="36.610401"
       y2="38.75"
       id="linearGradient9317"
       gradientUnits="userSpaceOnUse">
      <stop
         id="stop9319"
         style="stop-color:#cbefc0;stop-opacity:1"
         offset="0" />
      <stop
         id="stop9321"
         style="stop-color:#a4d297;stop-opacity:1"
         offset="1" />
    </linearGradient>
    <linearGradient
       x1="4.2729435"
       y1="20.330038"
       x2="40.727062"
       y2="20.330038"
       id="linearGradient4200"
       xlink:href="#SVGID_1_-60"
       gradientUnits="userSpaceOnUse" />
    <linearGradient
       x1="21.25"
       y1="25"
       x2="23.75"
       y2="25"
       id="linearGradient4422"
       xlink:href="#SVGID_3_"
       gradientUnits="userSpaceOnUse"
       gradientTransform="matrix(1.25,0,0,1.25,-5.625,-10)" />
    <linearGradient
       x1="21.25"
       y1="25"
       x2="23.75"
       y2="25"
       id="SVGID_3_"
       gradientUnits="userSpaceOnUse">
      <stop
         id="stop28"
         style="stop-color:#a6a6a6;stop-opacity:1"
         offset="0" />
      <stop
         id="stop30"
         style="stop-color:#ffffff;stop-opacity:1"
         offset="1" />
    </linearGradient>
    <linearGradient
       x1="17.5"
       y1="25"
       x2="27.5"
       y2="25"
       id="linearGradient4419"
       xlink:href="#SVGID_4_"
       gradientUnits="userSpaceOnUse"
       gradientTransform="matrix(1.25,0,0,1.25,-10.125,-9.5)" />
    <linearGradient
       x1="17.5"
       y1="25"
       x2="27.5"
       y2="25"
       id="SVGID_4_"
       gradientUnits="userSpaceOnUse">
      <stop
         id="stop35"
         style="stop-color:#a6a6a6;stop-opacity:1"
         offset="0" />
      <stop
         id="stop37"
         style="stop-color:#ffffff;stop-opacity:1"
         offset="1" />
    </linearGradient>
    <linearGradient
       x1="21.25"
       y1="25"
       x2="23.75"
       y2="25"
       id="linearGradient9949"
       xlink:href="#SVGID_3_"
       gradientUnits="userSpaceOnUse"
       gradientTransform="matrix(1.25,0,0,1.25,-10.125,-9.5)" />
    <linearGradient
       x1="21.25"
       y1="25"
       x2="23.75"
       y2="25"
       id="linearGradient9984"
       xlink:href="#SVGID_3_"
       gradientUnits="userSpaceOnUse"
       gradientTransform="matrix(1.25,0,0,1.25,-10.125,-9.5)" />
    <linearGradient
       x1="17.5"
       y1="25"
       x2="27.5"
       y2="25"
       id="linearGradient9986"
       xlink:href="#SVGID_4_"
       gradientUnits="userSpaceOnUse"
       gradientTransform="matrix(1.25,0,0,1.25,-10.125,-9.5)" />
    <radialGradient
       cx="22.67388"
       cy="35.990055"
       r="11.417765"
       fx="22.67388"
       fy="35.990055"
       id="radialGradient5150"
       xlink:href="#SVGID_1_"
       gradientUnits="userSpaceOnUse"
       gradientTransform="matrix(1,0,0,0.362399,0,22.947296)" />
    <linearGradient
       x1="8.3895998"
       y1="38.75"
       x2="36.610401"
       y2="38.75"
       id="SVGID_1_"
       gradientUnits="userSpaceOnUse">
      <stop
         id="stop6"
         style="stop-color:#ffffff;stop-opacity:1"
         offset="0" />
      <stop
         id="stop8"
         style="stop-color:#b1b3b6;stop-opacity:1"
         offset="1" />
    </linearGradient>
    <radialGradient
       cx="22.67388"
       cy="35.990055"
       r="11.417765"
       fx="22.67388"
       fy="35.990055"
       id="radialGradient10005"
       xlink:href="#SVGID_1_"
       gradientUnits="userSpaceOnUse"
       gradientTransform="matrix(1.1014492,0,0,0.4011458,-2.224125,21.81274)" />
    <linearGradient
       x1="4.25"
       y1="18.75"
       x2="40.75"
       y2="18.75"
       id="linearGradient10034"
       xlink:href="#SVGID_1_"
       gradientUnits="userSpaceOnUse" />
    <linearGradient
       x1="8.3895998"
       y1="38.75"
       x2="36.610401"
       y2="38.75"
       id="SVGID_1_-68-5"
       gradientUnits="userSpaceOnUse">
      <stop
         id="stop6-7-7"
         style="stop-color:#ffffff;stop-opacity:1"
         offset="0" />
      <stop
         id="stop8-28-3"
         style="stop-color:#b1b3b6;stop-opacity:1"
         offset="1" />
    </linearGradient>
    <linearGradient
       x1="8.3895998"
       y1="38.75"
       x2="36.610401"
       y2="38.75"
       id="SVGID_1_-2-9"
       gradientUnits="userSpaceOnUse">
      <stop
         id="stop6-78-8"
         style="stop-color:#ffffff;stop-opacity:1"
         offset="0" />
      <stop
         id="stop8-47-7"
         style="stop-color:#b1b3b6;stop-opacity:1"
         offset="1" />
    </linearGradient>
    <linearGradient
       x1="8.3895998"
       y1="38.75"
       x2="36.610401"
       y2="38.75"
       id="SVGID_1_-60-3"
       gradientUnits="userSpaceOnUse">
      <stop
         id="stop6-96-4"
         style="stop-color:#b4b4b4;stop-opacity:1"
         offset="0" />
      <stop
         id="stop8-4-4"
         style="stop-color:#ffffff;stop-opacity:1"
         offset="1" />
    </linearGradient>
    <linearGradient
       x1="8.3895998"
       y1="38.75"
       x2="36.610401"
       y2="38.75"
       id="SVGID_1_-2"
       gradientUnits="userSpaceOnUse">
      <stop
         id="stop6-78"
         style="stop-color:#ffffff;stop-opacity:1"
         offset="0" />
      <stop
         id="stop8-47"
         style="stop-color:#b1b3b6;stop-opacity:1"
         offset="1" />
    </linearGradient>
    <linearGradient
       x1="8.3895998"
       y1="38.75"
       x2="36.610401"
       y2="38.75"
       id="SVGID_1_-60"
       gradientUnits="userSpaceOnUse">
      <stop
         id="stop6-96"
         style="stop-color:#a5d297;stop-opacity:1"
         offset="0" />
      <stop
         id="stop8-4"
         style="stop-color:#cbefc0;stop-opacity:1"
         offset="1" />
    </linearGradient>
    <linearGradient
       x1="8.3895998"
       y1="38.75"
       x2="36.610401"
       y2="38.75"
       id="SVGID_1_-61"
       gradientUnits="userSpaceOnUse">
      <stop
         id="stop6-42"
         style="stop-color:#ffffff;stop-opacity:1"
         offset="0" />
      <stop
         id="stop8-5"
         style="stop-color:#b1b3b6;stop-opacity:1"
         offset="1" />
    </linearGradient>
    <linearGradient
       x1="21.539345"
       y1="12.426229"
       x2="23.6"
       y2="12.426229"
       id="linearGradient5181-3"
       xlink:href="#SVGID_1_-68"
       gradientUnits="userSpaceOnUse" />
    <linearGradient
       x1="8.3895998"
       y1="38.75"
       x2="36.610401"
       y2="38.75"
       id="SVGID_1_-68"
       gradientUnits="userSpaceOnUse">
      <stop
         id="stop6-7"
         style="stop-color:#ffffff;stop-opacity:1"
         offset="0" />
      <stop
         id="stop8-28"
         style="stop-color:#b1b3b6;stop-opacity:1"
         offset="1" />
    </linearGradient>
    <linearGradient
       x1="21.389343"
       y1="12.426229"
       x2="23.75"
       y2="12.426229"
       id="linearGradient10234"
       xlink:href="#SVGID_1_-60"
       gradientUnits="userSpaceOnUse" />
    <linearGradient
       x1="21.389343"
       y1="12.426229"
       x2="23.75"
       y2="12.426229"
       id="linearGradient10236"
       xlink:href="#SVGID_1_-60"
       gradientUnits="userSpaceOnUse" />
    <linearGradient
       x1="21.389343"
       y1="12.426229"
       x2="23.75"
       y2="12.426229"
       id="linearGradient10238"
       xlink:href="#SVGID_1_-60"
       gradientUnits="userSpaceOnUse" />
    <linearGradient
       x1="21.389343"
       y1="12.426229"
       x2="23.75"
       y2="12.426229"
       id="linearGradient10240"
       xlink:href="#SVGID_1_-60"
       gradientUnits="userSpaceOnUse" />
    <linearGradient
       x1="21.389343"
       y1="12.426229"
       x2="23.75"
       y2="12.426229"
       id="linearGradient10242"
       xlink:href="#SVGID_1_-60"
       gradientUnits="userSpaceOnUse" />
    <linearGradient
       x1="21.389343"
       y1="12.426229"
       x2="23.75"
       y2="12.426229"
       id="linearGradient10244"
       xlink:href="#SVGID_1_-60"
       gradientUnits="userSpaceOnUse" />
    <linearGradient
       x1="21.389343"
       y1="12.426229"
       x2="23.75"
       y2="12.426229"
       id="linearGradient10246"
       xlink:href="#SVGID_1_-60"
       gradientUnits="userSpaceOnUse" />
    <radialGradient
       cx="22.67388"
       cy="35.990055"
       r="11.417765"
       fx="22.67388"
       fy="35.990055"
       id="radialGradient9301"
       xlink:href="#linearGradient9317"
       gradientUnits="userSpaceOnUse"
       gradientTransform="matrix(1.1014492,0,0,0.4011458,-2.224125,21.81274)" />
    <linearGradient
       x1="4.25"
       y1="18.75"
       x2="40.75"
       y2="18.75"
       id="linearGradient9307"
       xlink:href="#SVGID_1_-60"
       gradientUnits="userSpaceOnUse" />
    <linearGradient
       x1="4.2729435"
       y1="20.330038"
       x2="40.727062"
       y2="20.330038"
       id="linearGradient9315"
       xlink:href="#SVGID_1_-60"
       gradientUnits="userSpaceOnUse"
       gradientTransform="translate(31.893748,4.6449612)" />
    <linearGradient
       x1="21.25"
       y1="25"
       x2="23.75"
       y2="25"
       id="linearGradient9323"
       xlink:href="#SVGID_3_"
       gradientUnits="userSpaceOnUse"
       gradientTransform="matrix(1.25,0,0,1.25,-10.125,-9.5)" />
    <linearGradient
       x1="17.5"
       y1="25"
       x2="27.5"
       y2="25"
       id="linearGradient9325"
       xlink:href="#SVGID_4_"
       gradientUnits="userSpaceOnUse"
       gradientTransform="matrix(1.25,0,0,1.25,-10.125,-9.5)" />
    <linearGradient
       x1="17.653688"
       y1="21.00033"
       x2="27.346312"
       y2="21.00033"
       id="linearGradient9339"
       xlink:href="#linearGradient9317"
       gradientUnits="userSpaceOnUse" />
    <linearGradient
       x1="20.957771"
       y1="21"
       x2="24.042229"
       y2="21"
       id="linearGradient9341"
       xlink:href="#linearGradient9317"
       gradientUnits="userSpaceOnUse" />
    <linearGradient
       x1="32.519115"
       y1="29.930326"
       x2="33.189899"
       y2="29.930326"
       id="linearGradient9343"
       xlink:href="#linearGradient9317"
       gradientUnits="userSpaceOnUse" />
    <linearGradient
       x1="29.886393"
       y1="29.930326"
       x2="31.252947"
       y2="29.930326"
       id="linearGradient9345"
       xlink:href="#linearGradient9317"
       gradientUnits="userSpaceOnUse" />
    <linearGradient
       x1="26.49523"
       y1="29.930326"
       x2="28.283459"
       y2="29.930326"
       id="linearGradient9347"
       xlink:href="#linearGradient9317"
       gradientUnits="userSpaceOnUse" />
    <linearGradient
       x1="21.389343"
       y1="30"
       x2="23.75"
       y2="30"
       id="linearGradient9349"
       xlink:href="#linearGradient9317"
       gradientUnits="userSpaceOnUse" />
    <linearGradient
       x1="16.99523"
       y1="29.930326"
       x2="18.783459"
       y2="29.930326"
       id="linearGradient9351"
       xlink:href="#linearGradient9317"
       gradientUnits="userSpaceOnUse" />
    <linearGradient
       x1="13.886394"
       y1="30"
       x2="15.252948"
       y2="30"
       id="linearGradient9353"
       xlink:href="#linearGradient9317"
       gradientUnits="userSpaceOnUse" />
    <linearGradient
       x1="11.949443"
       y1="29.930326"
       x2="12.620227"
       y2="29.930326"
       id="linearGradient9355"
       xlink:href="#linearGradient9317"
       gradientUnits="userSpaceOnUse" />
  </defs>
  <path
     d="M 33.995902,32.45902 L 40,7.5 L 30,17.5 L 27.5,5 L 22.5,13.5 L 17.5,5 L 15,17.5 L 5,7.5 L 11.5,32.5 L 33.995902,32.45902 L 33.995902,32.45902 z"
     id="path10026"
     style="fill:url(#linearGradient9307);fill-opacity:1;stroke:#47423a;stroke-width:1.5;stroke-linecap:butt;stroke-linejoin:miter;stroke-miterlimit:4;stroke-dasharray:none;stroke-opacity:1" />
  <path
     d="M 22.499999,20.999999 C 23.968872,22.468872 23.968872,25.405737 22.499999,25.405737 C 21.031127,25.405737 21.031127,22.468872 22.499999,20.999999 C 23.968872,19.532008 23.968872,16.594262 22.499999,16.594262 C 21.031127,16.594262 21.031127,19.532008 22.499999,20.999999 z"
     id="path32"
     style="fill:url(#linearGradient9341);fill-opacity:1;stroke:#47423a;stroke-width:0.8811475;stroke-opacity:1" />
  <path
     d="M 22.499999,20.999999 C 23.968872,19.532008 26.905737,19.532008 26.905737,20.999999 C 26.905737,22.468872 23.968872,22.468872 22.499999,20.999999 C 21.031127,19.532008 18.094262,19.532008 18.094262,20.999999 C 18.094262,22.468872 21.031127,22.468872 22.499999,20.999999 z"
     id="path39"
     style="fill:url(#linearGradient9339);fill-opacity:1;stroke:#47423a;stroke-width:0.8811475;stroke-opacity:1" />
  <path
     d="M 11,32.5 C 12.622333,32.5 13.937502,34.178933 13.937502,36.25 C 13.937502,38.321069 12.622333,40 11,40 L 34.5,40 C 32.877666,40 31.562499,38.321069 31.562499,36.25 C 31.562499,34.178933 32.877666,32.5 34.5,32.5 L 11,32.5 z"
     id="path5090"
     style="fill:url(#radialGradient9301);fill-opacity:1;fill-rule:evenodd;stroke:#47423a;stroke-width:1.65626991;stroke-linecap:butt;stroke-linejoin:miter;stroke-miterlimit:4;stroke-dasharray:none;stroke-opacity:1" />
  <path
     d="M 5.75,6.75 C 5.75,7.4403559 5.1903559,8 4.5,8 C 3.8096441,8 3.25,7.4403559 3.25,6.75 C 3.25,6.0596441 3.8096441,5.5 4.5,5.5 C 5.1903559,5.5 5.75,6.0596441 5.75,6.75 L 5.75,6.75 z"
     id="path10036"
     style="fill:#47423a;fill-opacity:1;stroke:#47423a;stroke-width:1.5;stroke-linecap:round;stroke-linejoin:round;stroke-miterlimit:4;stroke-dasharray:none;stroke-opacity:1" />
  <path
     d="M 41.75,6.75 C 41.75,7.4403559 41.190356,8 40.5,8 C 39.809644,8 39.25,7.4403559 39.25,6.75 C 39.25,6.0596441 39.809644,5.5 40.5,5.5 C 41.190356,5.5 41.75,6.0596441 41.75,6.75 L 41.75,6.75 z"
     id="path10036-8"
     style="fill:#47423a;fill-opacity:1;stroke:#47423a;stroke-width:1.5;stroke-linecap:round;stroke-linejoin:round;stroke-miterlimit:4;stroke-dasharray:none;stroke-opacity:1" />
  <path
     d="M 29,4 C 29,4.6903559 28.440356,5.25 27.75,5.25 C 27.059644,5.25 26.5,4.6903559 26.5,4 C 26.5,3.3096441 27.059644,2.75 27.75,2.75 C 28.440356,2.75 29,3.3096441 29,4 L 29,4 z"
     id="path10036-3"
     style="fill:#47423a;fill-opacity:1;stroke:#47423a;stroke-width:1.5;stroke-linecap:round;stroke-linejoin:round;stroke-miterlimit:4;stroke-dasharray:none;stroke-opacity:1" />
  <path
     d="M 18.5,4 C 18.5,4.6903559 17.940356,5.25 17.25,5.25 C 16.559644,5.25 16,4.6903559 16,4 C 16,3.3096441 16.559644,2.75 17.25,2.75 C 17.940356,2.75 18.5,3.3096441 18.5,4 L 18.5,4 z"
     id="path10036-1"
     style="fill:#47423a;fill-opacity:1;stroke:#47423a;stroke-width:1.5;stroke-linecap:round;stroke-linejoin:round;stroke-miterlimit:4;stroke-dasharray:none;stroke-opacity:1" />
  <path
     d="M 10,27.479508 L 35,27.5"
     id="path10078"
     style="fill:none;stroke:#47423a;stroke-width:1.11746156px;stroke-linecap:butt;stroke-linejoin:miter;stroke-opacity:1" />
  <path
     d="M 33.06967,29.930327 C 33.06967,30.444133 32.973338,30.860655 32.854507,30.860655 C 32.735675,30.860655 32.639343,30.444133 32.639343,29.930327 C 32.639343,29.416521 32.735675,28.999999 32.854507,28.999999 C 32.973338,28.999999 33.06967,29.416521 33.06967,29.930327 L 33.06967,29.930327 z"
     id="path5154-82"
     style="fill:url(#linearGradient9343);fill-opacity:1;stroke:#47423a;stroke-width:0.24045645;stroke-linecap:round;stroke-linejoin:round;stroke-miterlimit:4;stroke-dasharray:none;stroke-opacity:1" />
  <path
     d="M 23.5,30 C 23.5,30.513806 23.083478,30.930328 22.569672,30.930328 C 22.055866,30.930328 21.639344,30.513806 21.639344,30 C 21.639344,29.486194 22.055866,29.069672 22.569672,29.069672 C 23.083478,29.069672 23.5,29.486194 23.5,30 L 23.5,30 z"
     id="path5154-80"
     style="fill:url(#linearGradient9349);fill-opacity:1;stroke:#47423a;stroke-width:0.5;stroke-linecap:round;stroke-linejoin:round;stroke-miterlimit:4;stroke-dasharray:none;stroke-opacity:1" />
  <path
     d="M 28.069672,29.930327 C 28.069672,30.444133 27.765079,30.860655 27.389344,30.860655 C 27.013609,30.860655 26.709016,30.444133 26.709016,29.930327 C 26.709016,29.416521 27.013609,28.999999 27.389344,28.999999 C 27.765079,28.999999 28.069672,29.416521 28.069672,29.930327 L 28.069672,29.930327 z"
     id="path5154-2"
     style="fill:url(#linearGradient9347);fill-opacity:1;stroke:#47423a;stroke-width:0.4275738;stroke-linecap:round;stroke-linejoin:round;stroke-miterlimit:4;stroke-dasharray:none;stroke-opacity:1" />
  <path
     d="M 31.06967,29.930327 C 31.06967,30.444133 30.845813,30.860655 30.56967,30.860655 C 30.293528,30.860655 30.06967,30.444133 30.06967,29.930327 C 30.06967,29.416521 30.293528,28.999999 30.56967,28.999999 C 30.845813,28.999999 31.06967,29.416521 31.06967,29.930327 L 31.06967,29.930327 z"
     id="path5154-0"
     style="fill:url(#linearGradient9345);fill-opacity:1;stroke:#47423a;stroke-width:0.36655316;stroke-linecap:round;stroke-linejoin:round;stroke-miterlimit:4;stroke-dasharray:none;stroke-opacity:1" />
  <path
     d="M 18.569672,29.930327 C 18.569672,30.444133 18.265079,30.860655 17.889345,30.860655 C 17.51361,30.860655 17.209017,30.444133 17.209017,29.930327 C 17.209017,29.416521 17.51361,28.999999 17.889345,28.999999 C 18.265079,28.999999 18.569672,29.416521 18.569672,29.930327 L 18.569672,29.930327 z"
     id="path5154-2-8"
     style="fill:url(#linearGradient9351);fill-opacity:1;stroke:#47423a;stroke-width:0.4275738;stroke-linecap:round;stroke-linejoin:round;stroke-miterlimit:4;stroke-dasharray:none;stroke-opacity:1" />
  <path
     d="M 15.069671,30 C 15.069671,30.513806 14.845814,30.930328 14.569671,30.930328 C 14.293529,30.930328 14.069671,30.513806 14.069671,30 C 14.069671,29.486194 14.293529,29.069672 14.569671,29.069672 C 14.845814,29.069672 15.069671,29.486194 15.069671,30 L 15.069671,30 z"
     id="path5154-0-2"
     style="fill:url(#linearGradient9353);fill-opacity:1;stroke:#47423a;stroke-width:0.36655316;stroke-linecap:round;stroke-linejoin:round;stroke-miterlimit:4;stroke-dasharray:none;stroke-opacity:1" />
  <path
     d="M 12.499999,29.930327 C 12.499999,30.444133 12.403667,30.860655 12.284835,30.860655 C 12.166003,30.860655 12.069671,30.444133 12.069671,29.930327 C 12.069671,29.416521 12.166003,28.999999 12.284835,28.999999 C 12.403667,28.999999 12.499999,29.416521 12.499999,29.930327 L 12.499999,29.930327 z"
     id="path5154-82-8"
     style="fill:url(#linearGradient9355);fill-opacity:1;stroke:#47423a;stroke-width:0.24045645;stroke-linecap:round;stroke-linejoin:round;stroke-miterlimit:4;stroke-dasharray:none;stroke-opacity:1" />
</svg>
