<?xml version="1.0" encoding="UTF-8" standalone="no"?>
<!-- Created with Inkscape (http://www.inkscape.org/) -->

<svg
   xmlns:dc="http://purl.org/dc/elements/1.1/"
   xmlns:cc="http://creativecommons.org/ns#"
   xmlns:rdf="http://www.w3.org/1999/02/22-rdf-syntax-ns#"
   xmlns:svg="http://www.w3.org/2000/svg"
   xmlns="http://www.w3.org/2000/svg"
   xmlns:sodipodi="http://sodipodi.sourceforge.net/DTD/sodipodi-0.dtd"
   xmlns:inkscape="http://www.inkscape.org/namespaces/inkscape"
   width="64px"
   height="64px"
   id="svg2816"
   version="1.1"
   inkscape:version="0.47 r22583"
   sodipodi:docname="bq.svg">
  <defs
     id="defs2818">
    <inkscape:perspective
       sodipodi:type="inkscape:persp3d"
       inkscape:vp_x="0 : 32 : 1"
       inkscape:vp_y="0 : 1000 : 0"
       inkscape:vp_z="64 : 32 : 1"
       inkscape:persp3d-origin="32 : 21.333333 : 1"
       id="perspective2824" />
  </defs>
  <sodipodi:namedview
     id="base"
     pagecolor="#ffffff"
     bordercolor="#666666"
     borderopacity="1.0"
     inkscape:pageopacity="0.0"
     inkscape:pageshadow="2"
     inkscape:zoom="5.5"
     inkscape:cx="49.921749"
     inkscape:cy="21.466403"
     inkscape:current-layer="layer1"
     showgrid="true"
     inkscape:document-units="px"
     inkscape:grid-bbox="true"
     inkscape:window-width="1365"
     inkscape:window-height="878"
     inkscape:window-x="-8"
     inkscape:window-y="-8"
     inkscape:window-maximized="1" />
  <metadata
     id="metadata2821">
    <rdf:RDF>
      <cc:Work
         rdf:about="">
        <dc:format>image/svg+xml</dc:format>
        <dc:type
           rdf:resource="http://purl.org/dc/dcmitype/StillImage" />
        <dc:title />
      </cc:Work>
    </rdf:RDF>
  </metadata>
  <g
     id="layer1"
     inkscape:label="Layer 1"
     inkscape:groupmode="layer">
    <text
       xml:space="preserve"
       style="font-size:64px;font-style:normal;font-weight:normal;fill:#000000;fill-opacity:1;stroke:none;font-family:Smart;-inkscape-font-specification:Smart"
       x="0.18181826"
       y="50.000004"
       id="text2826"><tspan
         sodipodi:role="line"
         id="tspan2828"
         x="0.18181826"
         y="50.000004">e</tspan></text>
    <path
       style="fill:#ffffff"
       d="m 16.967204,51.649241 c 0.125,-0.133604 0.227272,-0.541145 0.227272,-0.905646 0,-1.186708 0.238883,-1.283465 5.454546,-2.209302 l 3.363636,-0.597082 6.363636,0.01965 6.363637,0.01965 3.545454,0.64071 c 1.95,0.35239 3.885682,0.778164 4.301517,0.946165 0.732116,0.295782 0.758378,0.335271 0.829227,1.246928 0.04024,0.517809 0.0682,0.953745 0.06212,0.968745 -0.0061,0.015 -1.115593,-0.261584 -2.465593,-0.614632 -2.454147,-0.641801 -2.455387,-0.641923 -7.636364,-0.754546 -2.85,-0.06195 -7.390909,-0.06458 -10.090909,-0.0058 -5.15763,0.112214 -5.198285,0.117741 -10.090909,1.371627 -0.373905,0.09583 -0.414225,0.0734 -0.227272,-0.126426 z"
       id="path3028" />
    <path
       style="fill:#ffffff"
       d="m 17.921749,46.385675 c 0,-0.201357 -0.101676,-0.528912 -0.225946,-0.727901 -0.30518,-0.488669 -0.01136,-0.936428 0.789141,-1.2026 0.340243,-0.113133 2.09135,-0.399497 3.89135,-0.636364 2.994665,-0.394076 3.913818,-0.430428 10.818182,-0.427845 6.287097,0.0024 7.894157,0.05631 9.636364,0.323534 2.452524,0.376179 3.247213,0.572859 3.724354,0.921754 0.310215,0.226834 0.325784,0.332773 0.138559,0.94281 -0.116011,0.377994 -0.168704,0.75558 -0.117099,0.83908 0.148075,0.239591 -0.52869,0.184547 -3.92946,-0.3196 -5.916169,-0.877042 -14.257844,-0.798506 -21.269073,0.200245 -1.748996,0.249145 -3.242177,0.452991 -3.318182,0.452991 -0.076,0 -0.13819,-0.164747 -0.13819,-0.366104 z"
       id="path3030" />
    <path
       style="fill:#ffffff"
       d="m 15.966722,41.331741 c -0.171985,-0.268979 -0.420551,-0.57303 -0.552368,-0.675668 -0.695669,-0.541673 0.449001,-1.193006 3.00556,-1.710206 5.673879,-1.147844 11.894272,-1.625078 17.017219,-1.305577 6.110031,0.381063 12.965918,1.662791 13.280603,2.482849 0.05515,0.143718 -0.08093,0.458894 -0.302403,0.700391 -0.221471,0.241496 -0.498291,0.559021 -0.615153,0.70561 -0.185329,0.23247 -0.452502,0.21308 -2.090909,-0.151747 -2.834671,-0.631203 -5.824084,-0.807432 -13.696613,-0.807432 -7.679941,0 -11.066659,0.186307 -13.090909,0.720147 -2.260592,0.596169 -2.597422,0.600914 -2.955027,0.04163 z"
       id="path3032" />
  </g>
</svg>
