<?xml version="1.0" encoding="UTF-8" standalone="no"?>
<!-- Created with Inkscape (http://www.inkscape.org/) -->

<svg
   xmlns:dc="http://purl.org/dc/elements/1.1/"
   xmlns:cc="http://creativecommons.org/ns#"
   xmlns:rdf="http://www.w3.org/1999/02/22-rdf-syntax-ns#"
   xmlns:svg="http://www.w3.org/2000/svg"
   xmlns="http://www.w3.org/2000/svg"
   xmlns:sodipodi="http://sodipodi.sourceforge.net/DTD/sodipodi-0.dtd"
   xmlns:inkscape="http://www.inkscape.org/namespaces/inkscape"
   width="64px"
   height="64px"
   id="svg2985"
   version="1.1"
   inkscape:version="0.48.1 "
   sodipodi:docname="bk.svg">
  <defs
     id="defs2987" />
  <sodipodi:namedview
     id="base"
     pagecolor="#ffffff"
     bordercolor="#666666"
     borderopacity="1.0"
     inkscape:pageopacity="0.0"
     inkscape:pageshadow="2"
     inkscape:zoom="5.5"
     inkscape:cx="10.272727"
     inkscape:cy="37.545454"
     inkscape:current-layer="layer1"
     showgrid="true"
     inkscape:document-units="px"
     inkscape:grid-bbox="true"
     inkscape:window-width="1365"
     inkscape:window-height="878"
     inkscape:window-x="-8"
     inkscape:window-y="-8"
     inkscape:window-maximized="1" />
  <metadata
     id="metadata2990">
    <rdf:RDF>
      <cc:Work
         rdf:about="">
        <dc:format>image/svg+xml</dc:format>
        <dc:type
           rdf:resource="http://purl.org/dc/dcmitype/StillImage" />
        <dc:title></dc:title>
      </cc:Work>
    </rdf:RDF>
  </metadata>
  <g
     id="layer1"
     inkscape:label="Layer 1"
     inkscape:groupmode="layer">
    <text
       xml:space="preserve"
       style="font-size:64px;font-style:normal;font-variant:normal;font-weight:normal;font-stretch:normal;line-height:125%;letter-spacing:0px;word-spacing:0px;fill:#000000;fill-opacity:1;stroke:none;font-family:Chess Cases;-inkscape-font-specification:Chess Cases"
       x="-0.15917969"
       y="64.191406"
       id="text3085"
       sodipodi:linespacing="125%"><tspan
         sodipodi:role="line"
         id="tspan3087"
         x="-0.15917969"
         y="64.191406">l</tspan></text>
    <path
       style="fill:#ffffff;fill-opacity:1"
       d="m 20.743473,51.6946 c -0.483668,-0.195432 -0.668035,-0.658014 -0.435461,-1.092583 0.52717,-0.985027 5.354537,-1.66192 11.819261,-1.657296 7.589876,0.0054 11.636363,0.71371 11.636363,2.036786 0,0.935319 -2.211278,1.142427 -6.727272,0.630074 -4.362364,-0.494923 -5.041519,-0.503403 -9.172362,-0.114524 -4.185171,0.393994 -6.476984,0.457575 -7.120529,0.197543 z"
       id="path3089"
       inkscape:connector-curvature="0" />
    <path
       style="fill:#ffffff;fill-opacity:1"
       d="M 19.309091,42.442136 C 18.282805,42.169434 17.49047,41.637105 16.367715,40.46598 14.803579,38.834459 13.034027,36.304072 11.903118,34.081789 l -0.957663,-1.881849 0.0031,-1.845424 c 0.0038,-2.292455 0.415012,-3.361114 1.757666,-4.568275 1.377211,-1.238231 2.554611,-1.622989 4.966514,-1.622989 1.666067,0 2.182146,0.07113 3.090909,0.426041 2.572665,1.004723 5.669249,3.646712 7.050107,6.015115 1.128995,1.936415 1.949893,5.111151 1.949893,7.541007 0,1.158634 0.554349,1.545495 2.214602,1.545495 1.804451,0 2.050117,-0.282654 2.210591,-2.543422 0.304186,-4.285386 1.820704,-7.381033 4.900816,-10.003967 1.698326,-1.446244 3.800533,-2.593597 5.337326,-2.913029 1.390698,-0.289067 3.522342,-0.130671 4.817954,0.358006 1.358528,0.512406 2.559644,1.597295 3.19032,2.881605 0.455788,0.928163 0.51021,1.232928 0.51021,2.857171 0,1.763821 -0.02297,1.865982 -0.768115,3.416938 -1.127718,2.347238 -2.816675,4.71552 -4.774965,6.695531 -1.563042,1.58038 -1.824686,1.771136 -2.71631,1.980385 -1.415161,0.332113 -6.143027,0.119138 -9.773023,-0.440242 l -2.941502,-0.453285 -3.058498,0.459318 c -3.18304,0.47802 -8.560541,0.733467 -9.603951,0.456217 z m 7.408139,-2.338625 c 1.214428,-0.550861 1.342277,-0.919239 1.083753,-3.122692 -0.427288,-3.641856 -1.56767,-6.081881 -3.870884,-8.282359 -2.276761,-2.175205 -4.760888,-3.117497 -7.081044,-2.686019 -4.00968,0.745679 -5.389495,3.718834 -3.495695,7.532347 1.312305,2.642569 4.592941,6.147248 6.373287,6.808539 0.48937,0.181771 1.418536,0.235271 3.400626,0.195802 2.328912,-0.04637 2.853281,-0.111464 3.589957,-0.445618 z m 18.391794,-0.300686 c 2.135381,-1.471438 5.070563,-5.029165 5.913521,-7.167765 0.481693,-1.222068 0.496664,-2.936842 0.03452,-3.954297 -0.948038,-2.087207 -4.013467,-3.250131 -6.731645,-2.553766 -1.764146,0.451953 -2.864913,1.132036 -4.583718,2.831942 -2.345771,2.31998 -3.452037,4.828687 -3.731279,8.461522 -0.130109,1.692683 0.01655,2.114099 0.894964,2.571711 0.987262,0.514313 1.575798,0.587641 4.427556,0.551645 l 2.75113,-0.03472 1.024949,-0.706267 z"
       id="path3091"
       inkscape:connector-curvature="0" />
  </g>
</svg>
