<?xml version="1.0" encoding="UTF-8" standalone="no"?>
<!-- Created with Inkscape (http://www.inkscape.org/) -->

<svg
   xmlns:dc="http://purl.org/dc/elements/1.1/"
   xmlns:cc="http://creativecommons.org/ns#"
   xmlns:rdf="http://www.w3.org/1999/02/22-rdf-syntax-ns#"
   xmlns:svg="http://www.w3.org/2000/svg"
   xmlns="http://www.w3.org/2000/svg"
   xmlns:sodipodi="http://sodipodi.sourceforge.net/DTD/sodipodi-0.dtd"
   xmlns:inkscape="http://www.inkscape.org/namespaces/inkscape"
   width="64px"
   height="64px"
   id="svg2985"
   version="1.1"
   inkscape:version="0.48.1 "
   sodipodi:docname="wq.svg">
  <defs
     id="defs2987" />
  <sodipodi:namedview
     id="base"
     pagecolor="#ffffff"
     bordercolor="#666666"
     borderopacity="1.0"
     inkscape:pageopacity="0.0"
     inkscape:pageshadow="2"
     inkscape:zoom="5.5"
     inkscape:cx="10.272727"
     inkscape:cy="37.545454"
     inkscape:current-layer="layer1"
     showgrid="true"
     inkscape:document-units="px"
     inkscape:grid-bbox="true"
     inkscape:window-width="1365"
     inkscape:window-height="878"
     inkscape:window-x="-8"
     inkscape:window-y="-8"
     inkscape:window-maximized="1" />
  <metadata
     id="metadata2990">
    <rdf:RDF>
      <cc:Work
         rdf:about="">
        <dc:format>image/svg+xml</dc:format>
        <dc:type
           rdf:resource="http://purl.org/dc/dcmitype/StillImage" />
        <dc:title></dc:title>
      </cc:Work>
    </rdf:RDF>
  </metadata>
  <g
     id="layer1"
     inkscape:label="Layer 1"
     inkscape:groupmode="layer">
    <text
       xml:space="preserve"
       style="font-size:64px;font-style:normal;font-variant:normal;font-weight:normal;font-stretch:normal;line-height:125%;letter-spacing:0px;word-spacing:0px;fill:#000000;fill-opacity:1;stroke:none;font-family:Chess Cases;-inkscape-font-specification:Chess Cases"
       x="0.063476563"
       y="63.807617"
       id="text3023"
       sodipodi:linespacing="125%"><tspan
         sodipodi:role="line"
         id="tspan3025"
         x="0.063476563"
         y="63.807617">w</tspan></text>
    <path
       style="fill:#ffffff;fill-opacity:1"
       d="m 19.24247,50.260653 c -1.177911,-1.177911 0.458192,-2.21551 4.521166,-2.867274 2.395324,-0.384248 11.245256,-0.546051 14.304004,-0.261521 4.216715,0.392247 6.843951,1.180429 7.080844,2.124284 0.138918,0.553498 -0.212862,1.134764 -0.771631,1.275006 -0.256957,0.06449 -2.156868,0.01825 -4.222024,-0.10276 -6.576065,-0.385333 -8.573343,-0.417344 -12.573011,-0.201511 -8.70329,0.469653 -7.906697,0.466427 -8.339348,0.03378 z"
       id="path3027"
       inkscape:connector-curvature="0" />
    <path
       style="fill:#ffffff;fill-opacity:1"
       d="M 18.107225,40.571354 C 17.340913,39.932497 17.751393,39.044449 19.053894,38.523292 21.313328,37.619245 25.17401,37.255646 32.4,37.266356 c 9.464495,0.01403 13.713209,0.732974 13.872458,2.34743 0.03717,0.376829 -0.0658,0.658924 -0.326733,0.895061 -0.373156,0.337701 -0.52795,0.338205 -7.508821,0.02442 -5.913506,-0.265807 -7.747311,-0.285654 -10.764177,-0.116494 -6.85208,0.384206 -9.243707,0.422856 -9.565502,0.154582 z"
       id="path3029"
       inkscape:connector-curvature="0" />
    <path
       style="fill:#ffffff;fill-opacity:1"
       d="m 8.0026754,19.788427 c -1.7662665,-0.768201 -1.3449634,-3.431664 0.5791428,-3.66132 0.9988918,-0.119225 1.5807508,0.230942 1.8975648,1.141966 0.382999,1.101349 0.0391,2.171086 -0.8123363,2.526837 -0.753186,0.314702 -0.9253767,0.313927 -1.6643713,-0.0075 z"
       id="path3031"
       inkscape:connector-curvature="0" />
    <path
       style="fill:#ffffff;fill-opacity:1"
       d="m 18.192463,14.700869 c -1.071636,-0.466302 -1.265789,-2.320087 -0.334611,-3.194884 0.654919,-0.615263 2.059251,-0.620786 2.709062,-0.01065 0.3978,0.37351 0.468567,0.595509 0.463667,1.454545 -0.0064,1.120907 -0.23145,1.54194 -0.975416,1.824795 -0.655173,0.249096 -1.167258,0.228807 -1.862702,-0.0738 l 0,0 z"
       id="path3033"
       inkscape:connector-curvature="0" />
    <path
       style="fill:#ffffff;fill-opacity:1"
       d="m 30.846188,11.918183 c -0.399804,-0.357255 -0.588938,-0.719156 -0.662491,-1.26765 -0.09374,-0.6990183 -0.04559,-0.8249991 0.538499,-1.4090913 0.840995,-0.8409954 1.680412,-0.8776663 2.538572,-0.1109005 0.525473,0.4695098 0.593777,0.6386436 0.593777,1.4702878 0,0.804233 -0.07356,1.003025 -0.510138,1.378551 -0.725411,0.623972 -1.759804,0.598633 -2.498219,-0.0612 z"
       id="path3035"
       inkscape:connector-curvature="0" />
    <path
       style="fill:#ffffff;fill-opacity:1"
       d="m 43.854545,14.754452 c -0.62416,-0.375838 -0.806422,-0.759776 -0.812399,-1.711344 -0.005,-0.793763 0.07099,-0.994068 0.551692,-1.454545 0.461,-0.441602 0.702415,-0.530871 1.395014,-0.51584 1.142929,0.02481 1.683875,0.632263 1.683875,1.890914 0,1.209051 -0.523228,1.82451 -1.642363,1.931867 -0.454102,0.04356 -0.972505,-0.01863 -1.175819,-0.141052 z"
       id="path3037"
       inkscape:connector-curvature="0" />
    <path
       style="fill:#ffffff;fill-opacity:1"
       d="M 54.368861,19.795594 C 53.643415,19.472361 53.4,19.021266 53.4,18.00011 c 0,-1.02423 0.506817,-1.70591 1.391742,-1.871923 1.395959,-0.261883 2.590385,0.95847 2.324627,2.375085 -0.222378,1.185373 -1.567527,1.818079 -2.747508,1.292322 z"
       id="path3039"
       inkscape:connector-curvature="0" />
  </g>
</svg>
