<?xml version="1.0" encoding="UTF-8" standalone="no"?>
<!-- Created with Inkscape (http://www.inkscape.org/) -->

<svg
   xmlns:dc="http://purl.org/dc/elements/1.1/"
   xmlns:cc="http://creativecommons.org/ns#"
   xmlns:rdf="http://www.w3.org/1999/02/22-rdf-syntax-ns#"
   xmlns:svg="http://www.w3.org/2000/svg"
   xmlns="http://www.w3.org/2000/svg"
   xmlns:sodipodi="http://sodipodi.sourceforge.net/DTD/sodipodi-0.dtd"
   xmlns:inkscape="http://www.inkscape.org/namespaces/inkscape"
   width="64px"
   height="64px"
   id="svg2985"
   version="1.1"
   inkscape:version="0.48.1 "
   sodipodi:docname="bb.svg">
  <defs
     id="defs2987" />
  <sodipodi:namedview
     id="base"
     pagecolor="#ffffff"
     bordercolor="#666666"
     borderopacity="1.0"
     inkscape:pageopacity="0.0"
     inkscape:pageshadow="2"
     inkscape:zoom="5.5"
     inkscape:cx="10.272727"
     inkscape:cy="37.545454"
     inkscape:current-layer="layer1"
     showgrid="true"
     inkscape:document-units="px"
     inkscape:grid-bbox="true"
     inkscape:window-width="1365"
     inkscape:window-height="878"
     inkscape:window-x="-8"
     inkscape:window-y="-8"
     inkscape:window-maximized="1" />
  <metadata
     id="metadata2990">
    <rdf:RDF>
      <cc:Work
         rdf:about="">
        <dc:format>image/svg+xml</dc:format>
        <dc:type
           rdf:resource="http://purl.org/dc/dcmitype/StillImage" />
        <dc:title></dc:title>
      </cc:Work>
    </rdf:RDF>
  </metadata>
  <g
     id="layer1"
     inkscape:label="Layer 1"
     inkscape:groupmode="layer">
    <text
       xml:space="preserve"
       style="font-size:64px;font-style:normal;font-variant:normal;font-weight:normal;font-stretch:normal;line-height:125%;letter-spacing:0px;word-spacing:0px;fill:#000000;fill-opacity:1;stroke:none;font-family:Chess Cases;-inkscape-font-specification:Chess Cases"
       x="0"
       y="63.775391"
       id="text3105"
       sodipodi:linespacing="125%"><tspan
         sodipodi:role="line"
         id="tspan3107"
         x="0"
         y="63.775391">b</tspan></text>
    <path
       style="fill:#ffffff;fill-opacity:1"
       d="m 11.441629,55.023766 c -0.308583,-0.124158 -0.768902,-1.036428 -0.768902,-1.523827 0,-0.555875 1.070643,-1.554303 1.917623,-1.788279 0.395307,-0.109203 2.191468,-0.282469 3.991468,-0.385036 4.225107,-0.240753 5.93804,-0.472673 8.232248,-1.114594 1.966758,-0.550301 2.24096,-0.69653 4.858372,-2.590923 0.899842,-0.651274 1.774438,-1.220318 1.943547,-1.264541 0.443979,-0.116103 1.839026,0.631129 3.511288,1.880757 2.851754,2.131026 4.207422,2.43641 14.374863,3.238155 2.134513,0.168316 3.104419,0.568642 3.564609,1.471286 0.34417,0.675069 0.195919,1.392078 -0.399178,1.930634 -0.372202,0.336838 -0.935989,0.326489 -3.903931,-0.07167 -0.8,-0.107321 -2.518181,-0.284423 -3.818181,-0.393559 -6.335484,-0.531868 -10.687071,-2.12837 -12.455535,-4.569664 l -0.499867,-0.690046 -0.505333,0.729196 c -1.759262,2.538616 -6.633417,4.160801 -14.175629,4.71784 -1.4,0.103399 -2.913636,0.264975 -3.363636,0.359059 -0.879101,0.183797 -2.128228,0.216329 -2.503826,0.06521 z"
       id="path3109"
       inkscape:connector-curvature="0" />
    <path
       style="fill:#ffffff;fill-opacity:1"
       d="m 24.256049,44.161592 c -1.328386,-0.28524 -1.722021,-0.639534 -1.478832,-1.331038 0.244217,-0.694427 0.826275,-0.922277 3.010783,-1.17859 2.611858,-0.306456 12.307244,-0.294228 13.557125,0.0171 1.842086,0.458835 2.472728,1.705041 1.09122,2.156354 -1.751697,0.572247 -13.904944,0.824753 -16.180296,0.336176 z"
       id="path3111"
       inkscape:connector-curvature="0" />
    <path
       style="fill:#ffffff;fill-opacity:1"
       d="m 23.589737,39.392439 c 0.0044,-0.08584 0.07519,-0.503802 0.157404,-0.928802 0.140016,-0.72377 0.03639,-1.76656 -0.240772,-2.422924 -0.107436,-0.254425 0.01745,-0.266382 1.113585,-0.10662 1.627837,0.237256 13.277056,0.237251 14.742934,-6e-6 1.019879,-0.16507 1.131127,-0.153734 1.020178,0.103956 -0.23683,0.550063 -0.297343,2.362993 -0.09796,2.934933 0.192547,0.552341 0.18356,0.569953 -0.236969,0.464407 -2.974101,-0.746452 -13.050123,-0.740729 -16.057224,0.0091 -0.225,0.05611 -0.405528,0.03178 -0.401172,-0.05406 z"
       id="path3113"
       inkscape:connector-curvature="0" />
    <path
       style="fill:#ffffff;fill-opacity:1"
       d="m 27.127273,33.670799 c -2.415882,-0.182009 -4.488274,-0.611917 -5.406592,-1.121572 -1.277443,-0.708965 -1.9654,-2.094259 -2.345463,-4.722907 -0.208271,-1.440475 -0.196406,-1.625874 0.176807,-2.762759 0.220033,-0.670265 0.688953,-1.670278 1.042045,-2.22225 1.755795,-2.744749 6.583157,-6.309309 9.963569,-7.357172 1.10246,-0.341742 1.361133,-0.361831 2.210756,-0.171694 3.064618,0.685832 8.328018,4.335115 10.346281,7.173409 1.509679,2.123067 1.856997,3.45653 1.453846,5.581768 -0.525633,2.770915 -1.141262,3.88321 -2.538891,4.587177 -1.935946,0.975109 -9.02758,1.458597 -14.902358,1.016 l 0,0 z m 6.454545,-5.434434 0,-1.818182 1.272727,0 1.272728,0 0,-1.545455 0,-1.545454 -1.272728,0 -1.272727,0 0,-1.727273 0,-1.727273 -1.545454,0 -1.545455,0 0,1.727273 0,1.727273 -1.363636,0 -1.363637,0 0,1.545454 0,1.545455 1.363637,0 1.363636,0 0,1.818182 0,1.818181 1.545455,0 1.545454,0 0,-1.818181 z"
       id="path3115"
       inkscape:connector-curvature="0" />
    <path
       style="fill:#ffffff;fill-opacity:1"
       d="m 30.656809,11.45818 c -1.095758,-0.738431 -1.376882,-1.9062864 -0.718715,-2.9857156 0.974835,-1.5987831 3.461892,-1.4800931 4.260731,0.2033351 0.375517,0.7913426 0.367947,1.152057 -0.04015,1.9129895 -0.659864,1.230388 -2.34528,1.648817 -3.50187,0.869391 z"
       id="path3117"
       inkscape:connector-curvature="0" />
  </g>
</svg>
