<?xml version="1.0" encoding="UTF-8" standalone="no"?>
<!-- Created with Inkscape (http://www.inkscape.org/) -->

<svg
   xmlns:dc="http://purl.org/dc/elements/1.1/"
   xmlns:cc="http://creativecommons.org/ns#"
   xmlns:rdf="http://www.w3.org/1999/02/22-rdf-syntax-ns#"
   xmlns:svg="http://www.w3.org/2000/svg"
   xmlns="http://www.w3.org/2000/svg"
   xmlns:sodipodi="http://sodipodi.sourceforge.net/DTD/sodipodi-0.dtd"
   xmlns:inkscape="http://www.inkscape.org/namespaces/inkscape"
   width="64px"
   height="64px"
   id="svg2985"
   version="1.1"
   inkscape:version="0.48.1 "
   sodipodi:docname="New document 2">
  <defs
     id="defs2987" />
  <sodipodi:namedview
     id="base"
     pagecolor="#ffffff"
     bordercolor="#666666"
     borderopacity="1.0"
     inkscape:pageopacity="0.0"
     inkscape:pageshadow="2"
     inkscape:zoom="5.5"
     inkscape:cx="10.272727"
     inkscape:cy="32"
     inkscape:current-layer="layer1"
     showgrid="true"
     inkscape:document-units="px"
     inkscape:grid-bbox="true"
     inkscape:window-width="1365"
     inkscape:window-height="878"
     inkscape:window-x="-8"
     inkscape:window-y="-8"
     inkscape:window-maximized="1" />
  <metadata
     id="metadata2990">
    <rdf:RDF>
      <cc:Work
         rdf:about="">
        <dc:format>image/svg+xml</dc:format>
        <dc:type
           rdf:resource="http://purl.org/dc/dcmitype/StillImage" />
        <dc:title></dc:title>
      </cc:Work>
    </rdf:RDF>
  </metadata>
  <g
     id="layer1"
     inkscape:label="Layer 1"
     inkscape:groupmode="layer">
    <text
       xml:space="preserve"
       style="font-size:64px;font-style:normal;font-variant:normal;font-weight:normal;font-stretch:normal;line-height:125%;letter-spacing:0px;word-spacing:0px;fill:#000000;fill-opacity:1;stroke:none;font-family:Chess Cases;-inkscape-font-specification:Chess Cases"
       x="-0.16015625"
       y="63.936523"
       id="text2993"
       sodipodi:linespacing="125%"><tspan
         sodipodi:role="line"
         id="tspan2995"
         x="-0.16015625"
         y="63.936523">q</tspan></text>
    <path
       style="fill:#ffffff;fill-opacity:1"
       d="m 25.481881,54.320188 c -2.872755,-0.193645 -4.597189,-0.490601 -5.536426,-0.953401 -1.908696,-0.940491 -0.654147,-2.086984 2.727272,-2.492368 6.957511,-0.834108 18.695146,-0.492012 21.362848,0.622625 0.648838,0.271102 1.09007,0.880765 0.933234,1.289475 -0.422847,1.101923 -5.463205,1.739364 -13.386991,1.693019 -2.25,-0.01316 -4.994972,-0.08487 -6.099937,-0.15935 z"
       id="path2997"
       inkscape:connector-curvature="0" />
    <path
       style="fill:#ffffff;fill-opacity:1"
       d="m 19.972996,47.780967 c 0.263859,-0.756906 0.08716,-2.886317 -0.301953,-3.63877 -0.163821,-0.316794 -0.271369,-0.599365 -0.238995,-0.627935 0.03237,-0.02857 1.40692,-0.188391 3.054548,-0.355157 5.994759,-0.606768 13.057921,-0.569828 20.129635,0.105278 l 2.216231,0.211574 -0.368866,0.723034 c -0.396521,0.777246 -0.545329,2.704161 -0.281892,3.650245 0.134003,0.48125 0.112643,0.513757 -0.273837,0.416757 -3.006791,-0.754656 -15.22978,-1.003771 -20.506758,-0.417945 -1.54939,0.172006 -3.000387,0.358747 -3.224438,0.414981 -0.387259,0.0972 -0.397312,0.0734 -0.203675,-0.482062 z"
       id="path2999"
       inkscape:connector-curvature="0" />
    <path
       style="fill:#ffffff;fill-opacity:1"
       d="m 18.19932,40.070956 c -0.180832,-0.471241 0.443742,-1.333248 1.248173,-1.722666 2.275639,-1.101618 6.968912,-1.742793 12.67978,-1.732259 7.511347,0.01386 13.327145,1.234098 13.741012,2.883071 0.213384,0.850191 0.05239,0.891176 -2.995723,0.762657 -1.559909,-0.06577 -3.940744,-0.197122 -5.290744,-0.291891 -3.603576,-0.252967 -9.021173,-0.219076 -13.363636,0.0836 -4.927967,0.343488 -5.892688,0.346291 -6.018862,0.01749 z"
       id="path3001"
       inkscape:connector-curvature="0" />
    <path
       style="fill:#ffffff;fill-opacity:1"
       d="m 13.992985,36.372727 c -0.414294,-0.737399 -1.267682,-3.936673 -1.970878,-7.388639 -0.242159,-1.188752 -0.440289,-2.196385 -0.440289,-2.239184 0,-0.0428 0.503465,0.561633 1.118811,1.343185 1.557903,1.978694 4.17917,4.530171 5.743762,5.590836 0.724415,0.491094 1.347013,0.858329 1.383551,0.816078 0.03654,-0.04225 0.280353,-1.46773 0.541812,-3.16773 0.497238,-3.233032 0.841818,-6.714424 0.857902,-8.667653 l 0.0095,-1.150529 0.683864,1.727273 c 1.056908,2.669489 2.167903,5.047989 2.879791,6.165268 0.67825,1.064486 2.941429,3.837034 3.127626,3.831555 0.218011,-0.0064 1.563472,-2.461405 2.131793,-3.88977 0.32184,-0.808879 0.904862,-2.897733 1.295606,-4.641898 l 0.71044,-3.171207 0.222889,1.171207 c 0.61208,3.216263 1.691982,6.83114 2.492922,8.344834 1.326434,2.506825 1.203683,2.435144 2.211867,1.291632 2.169333,-2.460526 3.725702,-5.1779 5.158711,-9.006956 l 0.610996,-1.632608 0.04143,1.35988 c 0.09399,3.085332 1.140745,10.95422 1.508345,11.338883 0.428796,0.448701 4.847758,-3.50099 7.058689,-6.309095 0.615346,-0.781552 1.118811,-1.327422 1.118811,-1.213046 0,0.498465 -1.336451,6.361411 -1.736114,7.616248 -0.46952,1.47417 -1.046582,2.563254 -1.358168,2.563254 -0.104792,0 -0.592043,-0.20346 -1.082778,-0.452134 -3.921682,-1.987267 -8.486976,-2.955842 -14.754336,-3.130289 -7.125903,-0.198344 -12.56399,0.708911 -17.230136,2.874562 -0.838842,0.389324 -1.621503,0.707861 -1.739247,0.707861 -0.117743,0 -0.386459,-0.306818 -0.597145,-0.681818 l 0,0 z"
       id="path3003"
       inkscape:connector-curvature="0" />
    <path
       style="fill:#ffffff;fill-opacity:1"
       d="m 13.997688,36.372727 c -0.2081,-0.375 -0.585495,-1.459091 -0.838656,-2.409091 -0.480521,-1.803178 -1.577214,-6.732099 -1.577214,-7.088551 0,-0.113162 0.482431,0.392287 1.072069,1.12322 1.97677,2.450464 4.680275,4.987639 6.613024,6.206164 0.612809,0.386353 0.554628,0.528999 1.025204,-2.51356 0.417942,-2.702246 0.701323,-5.309011 0.887615,-8.165002 l 0.129361,-1.983183 0.77692,2.010279 c 1.336411,3.457959 2.60008,5.792478 4.242996,7.838564 l 1.511543,1.882476 0.41478,-0.51884 c 1.191617,-1.490568 2.302721,-4.510639 3.250001,-8.833764 0.278984,-1.273209 0.528905,-2.293263 0.555382,-2.266787 0.02648,0.02648 0.255534,1.00739 0.50902,2.179808 0.589943,2.728613 1.291907,5.165024 1.863138,6.466665 0.589614,1.343536 1.496238,2.756587 1.758811,2.74126 0.270656,-0.0158 2.068238,-2.159884 2.886063,-3.442385 0.89321,-1.400719 2.139635,-3.949633 2.976011,-6.085882 l 0.70988,-1.813155 0.124568,2.250203 c 0.178467,3.223884 1.059245,9.714587 1.402314,10.334061 0.313246,0.565624 4.6725,-3.272913 7.044926,-6.203401 0.635505,-0.784996 1.155465,-1.340838 1.155465,-1.235205 0,0.452231 -1.131093,5.578636 -1.549254,7.02163 -0.502206,1.733001 -1.069933,2.974413 -1.42207,3.10954 -0.125192,0.04804 -0.919223,-0.232038 -1.764512,-0.622398 -3.4132,-1.576235 -6.999549,-2.408792 -11.946766,-2.773392 -7.708258,-0.568085 -15.296099,0.593611 -20.19221,3.091421 -1.015738,0.51819 -1.181024,0.487481 -1.618409,-0.300695 z"
       id="path3005"
       inkscape:connector-curvature="0" />
    <path
       style="fill:#ffffff;fill-opacity:1"
       d="m 13.965604,36.366769 c -0.192983,-0.378277 -0.561561,-1.462368 -0.819063,-2.409091 -0.452375,-1.663182 -1.564723,-6.70403 -1.564723,-7.090882 0,-0.104329 0.599987,0.529325 1.333304,1.408121 2.435895,2.91914 6.416146,6.380918 6.839664,5.948718 0.258214,-0.263506 1.068787,-6.201706 1.307515,-9.57876 0.11843,-1.675319 0.235615,-3.025319 0.260411,-3 0.0248,0.02532 0.371556,0.864216 0.770578,1.864216 1.648836,4.13219 2.44816,5.579096 4.550516,8.237179 l 1.19423,1.509907 0.323661,-0.418998 c 0.627835,-0.812769 1.751852,-3.163504 2.199907,-4.600815 0.249385,-0.8 0.723892,-2.617971 1.054461,-4.039935 0.33057,-1.421964 0.619079,-2.567347 0.64113,-2.545295 0.02205,0.02205 0.301074,1.185477 0.620049,2.585389 0.318976,1.399912 0.78544,3.199841 1.036585,3.999841 0.457827,1.458355 1.584447,3.864326 2.128455,4.545454 0.283218,0.354607 0.313301,0.338806 1.211498,-0.636363 1.872667,-2.033148 3.459029,-4.807684 5.09384,-8.909091 0.60752,-1.524142 0.616623,-1.535426 0.660149,-0.818182 0.335207,5.523741 1.224705,11.909091 1.658974,11.909091 0.704282,0 4.467388,-3.409503 6.699799,-6.070248 l 1.367001,-1.62929 -0.12672,0.804315 c -0.521263,3.308569 -1.93847,8.416788 -2.54678,9.179681 l -0.404189,0.506902 -1.709747,-0.748008 c -4.762636,-2.083639 -9.057124,-2.847354 -15.982473,-2.842259 -6.358556,0.0047 -11.212837,0.909625 -15.597301,2.907689 -0.746453,0.34017 -1.468037,0.61849 -1.60352,0.61849 -0.135484,0 -0.404228,-0.309499 -0.597211,-0.687776 z"
       id="path3007"
       inkscape:connector-curvature="0" />
    <path
       style="fill:#ffffff;fill-opacity:1"
       d="m 13.944163,36.324741 c -0.514082,-1.007684 -2.362345,-8.333346 -2.362345,-9.363246 0,-0.152648 0.721567,0.56266 1.603483,1.589572 2.619417,3.050082 6.244296,6.134875 6.57679,5.596888 0.290599,-0.470199 1.040751,-6.261718 1.410642,-10.890802 l 0.136358,-1.706483 0.800298,1.979211 c 1.607857,3.976374 2.818503,6.052576 5.432108,9.315815 l 0.342406,0.427514 0.579536,-0.903129 c 1.040461,-1.621418 1.872577,-3.860712 2.743966,-7.384245 l 0.856293,-3.46249 0.691198,2.901963 c 1.028815,4.319414 2.243729,7.499641 3.193322,8.35901 0.3068,0.27765 0.38248,0.228333 1.250824,-0.815088 1.880778,-2.259983 3.285811,-4.734879 4.854553,-8.551049 l 0.710041,-1.727273 0.209597,2.727273 c 0.324425,4.221436 1.090963,9.542983 1.422343,9.874364 0.145166,0.145166 1.858499,-1.09369 3.228542,-2.334457 1.127097,-1.020744 3.129306,-3.177585 4.383389,-4.721925 L 52.524107,26.6 52.409256,27.418182 c -0.450467,3.209083 -2.032434,8.808711 -2.645254,9.363306 -0.331533,0.300033 -0.435918,0.276844 -2.310158,-0.513194 -3.941509,-1.661443 -7.526382,-2.415166 -12.574642,-2.643829 -7.51785,-0.340524 -13.081513,0.460881 -18.211546,2.623242 -1.052789,0.443761 -2.01249,0.806838 -2.132668,0.806838 -0.120179,0 -0.38605,-0.328412 -0.590825,-0.729804 z"
       id="path3009"
       inkscape:connector-curvature="0" />
    <path
       style="fill:#ffffff;fill-opacity:1"
       d="m 13.855522,36.1 c -0.572361,-1.260451 -2.273704,-8.115382 -2.273704,-9.161047 0,-0.141559 0.507785,0.337902 1.128411,1.065469 2.342319,2.745932 6.091356,6.141033 6.781229,6.141033 0.1283,0 0.281521,-0.125731 0.34049,-0.279402 0.203532,-0.530397 0.827906,-5.275732 1.111541,-8.447871 0.156474,-1.75 0.302747,-3.345455 0.32505,-3.545455 0.0223,-0.2 0.441049,0.618182 0.930546,1.818182 1.549301,3.79811 2.931321,6.199721 4.997282,8.684047 l 0.720052,0.865864 0.641562,-1.056125 c 0.991446,-1.632096 1.730357,-3.658993 2.599319,-7.13015 0.438091,-1.75 0.820118,-3.258236 0.848947,-3.351636 0.02883,-0.0934 0.404473,1.2566 0.83476,3 1.127244,4.567262 2.608546,8.169818 3.359275,8.169818 0.288887,0 1.921193,-1.975191 2.893796,-3.501674 0.839442,-1.317484 1.833824,-3.317911 2.866409,-5.766431 l 0.803149,-1.904469 0.133151,1.722651 c 0.330722,4.278728 1.191451,10.562404 1.487358,10.858311 0.415082,0.415083 4.814739,-3.654331 7.515855,-6.951708 0.736418,-0.89898 0.737464,-0.813819 0.03169,2.580843 -0.673691,3.240365 -1.674402,6.424816 -2.15594,6.860601 -0.3374,0.305343 -0.452488,0.278153 -2.86364,-0.676546 -2.673062,-1.058401 -4.489637,-1.565527 -7.421206,-2.071748 -2.663482,-0.459928 -12.307088,-0.463507 -14.909091,-0.0055 -2.760228,0.485822 -5.632481,1.299451 -7.814441,2.213611 -1.081601,0.453151 -2.081715,0.82391 -2.222475,0.82391 -0.140761,0 -0.450982,-0.429545 -0.68938,-0.954545 z"
       id="path3011"
       inkscape:connector-curvature="0" />
    <path
       style="fill:#ffffff;fill-opacity:1"
       d="M 54.041441,19.368713 C 53.512156,18.839428 53.4,18.594485 53.4,17.967832 c 0,-1.105985 0.748231,-1.822377 1.903369,-1.822377 1.217594,0 1.732995,0.555888 1.732995,1.869132 0,1.184992 -0.475321,1.743653 -1.613415,1.896303 -0.666232,0.08936 -0.804063,0.03527 -1.381508,-0.542177 l 0,0 z"
       id="path3013"
       inkscape:connector-curvature="0" />
    <path
       style="fill:#ffffff;fill-opacity:1"
       d="m 43.49582,14.277638 c -0.719719,-0.719719 -0.830589,-1.420512 -0.366665,-2.317641 0.355162,-0.686808 0.786002,-0.905452 1.784204,-0.905452 1.179913,0 1.613056,0.419951 1.716218,1.663947 0.110417,1.331477 -0.381266,1.962455 -1.639757,2.104305 -0.790575,0.08911 -0.899466,0.04938 -1.494,-0.545159 l 0,0 z"
       id="path3015"
       inkscape:connector-curvature="0" />
    <path
       style="fill:#ffffff;fill-opacity:1"
       d="m 31.080434,12.237442 c -0.665202,-0.289102 -0.953161,-0.866696 -0.953161,-1.911867 0,-1.0115564 0.596246,-1.6472386 1.642363,-1.7509899 1.081071,-0.1072181 1.660899,0.2226191 1.970212,1.1207616 0.377738,1.0968283 0.03002,2.2082723 -0.799265,2.5547703 -0.763656,0.319076 -1.102123,0.31677 -1.860149,-0.01267 l 0,0 z"
       id="path3017"
       inkscape:connector-curvature="0" />
    <path
       style="fill:#ffffff;fill-opacity:1"
       d="M 18.218182,14.662776 C 17.585573,14.316766 17.4,13.921625 17.4,12.920621 c 0,-1.343354 0.509306,-1.866076 1.818182,-1.866076 1.249057,0 1.818182,0.535404 1.818182,1.710454 0,1.024383 -0.276121,1.645848 -0.846787,1.905861 -0.559119,0.254751 -1.497892,0.250902 -1.971395,-0.0081 z"
       id="path3019"
       inkscape:connector-curvature="0" />
    <path
       style="fill:#ffffff;fill-opacity:1"
       d="M 7.8285452,19.783349 C 7.199437,19.529472 6.8545455,18.867864 6.8545455,17.914916 c 0,-1.199065 0.5532075,-1.769461 1.7161398,-1.769461 1.1565236,0 1.9698107,0.720589 1.9698107,1.745293 0,0.396624 -0.05786,0.903449 -0.128588,1.126278 -0.240917,0.759063 -1.6013433,1.162617 -2.5833628,0.766323 l 0,0 z"
       id="path3021"
       inkscape:connector-curvature="0" />
  </g>
</svg>
