<?xml version="1.0" encoding="UTF-8" standalone="no"?>
<!-- Created with Inkscape (http://www.inkscape.org/) -->
<svg
   xmlns:dc="http://purl.org/dc/elements/1.1/"
   xmlns:cc="http://web.resource.org/cc/"
   xmlns:rdf="http://www.w3.org/1999/02/22-rdf-syntax-ns#"
   xmlns:svg="http://www.w3.org/2000/svg"
   xmlns="http://www.w3.org/2000/svg"
   xmlns:xlink="http://www.w3.org/1999/xlink"
   xmlns:sodipodi="http://inkscape.sourceforge.net/DTD/sodipodi-0.dtd"
   xmlns:inkscape="http://www.inkscape.org/namespaces/inkscape"
   width="700pt"
   height="700pt"
   id="svg36220"
   sodipodi:version="0.32"
   inkscape:version="0.42+0.43pre2"
   version="1.0"
   inkscape:export-filename="/home/maurizio/out/wr.png"
   inkscape:export-xdpi="90"
   inkscape:export-ydpi="90"
   sodipodi:docbase="/home/monge/chess_pieces/chess_set"
   sodipodi:docname="br.svg">
  <defs
     id="defs36222">
    <linearGradient
       inkscape:collect="always"
       id="linearGradient3347">
      <stop
         style="stop-color:black;stop-opacity:1;"
         offset="0"
         id="stop3349" />
      <stop
         style="stop-color:black;stop-opacity:0;"
         offset="1"
         id="stop3351" />
    </linearGradient>
    <linearGradient
       id="linearGradient5175">
      <stop
         style="stop-color:#a08060;stop-opacity:1;"
         offset="0"
         id="stop5177" />
      <stop
         style="stop-color:#000000;stop-opacity:1;"
         offset="1"
         id="stop5179" />
    </linearGradient>
    <linearGradient
       inkscape:collect="always"
       xlink:href="#linearGradient5175"
       id="linearGradient2273"
       gradientUnits="userSpaceOnUse"
       x1="416.0477"
       y1="150.12955"
       x2="825.8576"
       y2="861.172"
       gradientTransform="matrix(0.554147,0.000000,0.000000,0.706050,220.5202,262.6425)" />
    <linearGradient
       inkscape:collect="always"
       xlink:href="#linearGradient5175"
       id="linearGradient2277"
       gradientUnits="userSpaceOnUse"
       x1="128.10062"
       y1="181.86472"
       x2="740.29462"
       y2="596.77478"
       gradientTransform="matrix(0.554147,0.000000,0.000000,0.706050,195.0293,238.4564)" />
    <linearGradient
       inkscape:collect="always"
       xlink:href="#linearGradient5175"
       id="linearGradient2225"
       x1="474.40475"
       y1="587.78589"
       x2="504.64395"
       y2="893.35999"
       gradientUnits="userSpaceOnUse"
       gradientTransform="matrix(0.955393,0,0,0.955393,-3.85768,25.10482)" />
    <linearGradient
       inkscape:collect="always"
       xlink:href="#linearGradient3347"
       id="linearGradient3353"
       x1="749.64923"
       y1="506.85049"
       x2="297.93896"
       y2="301.25592"
       gradientUnits="userSpaceOnUse"
       gradientTransform="matrix(1.034709,0.000000,0.000000,1.015443,-11.54700,-1.140841)" />
    <linearGradient
       inkscape:collect="always"
       xlink:href="#linearGradient5175"
       id="linearGradient3371"
       gradientUnits="userSpaceOnUse"
       x1="217.99556"
       y1="116.56352"
       x2="650.22534"
       y2="599.48517"
       gradientTransform="matrix(1.034709,0.000000,0.000000,1.015443,-11.19194,51.60242)" />
    <linearGradient
       inkscape:collect="always"
       xlink:href="#linearGradient5175"
       id="linearGradient3590"
       gradientUnits="userSpaceOnUse"
       gradientTransform="matrix(0.907934,0.000000,0.000000,0.886050,9.674390,93.71704)"
       x1="474.40475"
       y1="587.78589"
       x2="504.64395"
       y2="893.35999" />
    <linearGradient
       inkscape:collect="always"
       xlink:href="#linearGradient5175"
       id="linearGradient2267"
       x1="242.74734"
       y1="227.95091"
       x2="563.46429"
       y2="472.00671"
       gradientUnits="userSpaceOnUse"
       gradientTransform="matrix(0.922671,0.000000,0.000000,0.905491,35.69338,34.19809)" />
    <linearGradient
       inkscape:collect="always"
       xlink:href="#linearGradient5175"
       id="linearGradient3152"
       x1="313.02646"
       y1="310.0217"
       x2="436.50671"
       y2="310.0217"
       gradientUnits="userSpaceOnUse"
       gradientTransform="matrix(1.034709,0.000000,0.000000,1.015443,-11.54700,-1.140841)" />
    <linearGradient
       inkscape:collect="always"
       xlink:href="#linearGradient5175"
       id="linearGradient3160"
       x1="379.49451"
       y1="419.62323"
       x2="420.95035"
       y2="419.62323"
       gradientUnits="userSpaceOnUse"
       gradientTransform="matrix(1.034709,0.000000,0.000000,1.015443,-18.86350,0.295213)" />
    <linearGradient
       inkscape:collect="always"
       xlink:href="#linearGradient5175"
       id="linearGradient3170"
       x1="459"
       y1="322"
       x2="539"
       y2="322"
       gradientUnits="userSpaceOnUse"
       gradientTransform="matrix(1.034709,0.000000,0.000000,1.015443,-11.54700,-1.140841)" />
  </defs>
  <sodipodi:namedview
     id="base"
     pagecolor="#ffffff"
     bordercolor="#666666"
     borderopacity="1.0"
     inkscape:pageopacity="0.0"
     inkscape:pageshadow="2"
     inkscape:zoom="0.50000001"
     inkscape:cx="401.56301"
     inkscape:cy="470.13843"
     inkscape:current-layer="layer1"
     inkscape:document-units="px"
     inkscape:window-width="1050"
     inkscape:window-height="840"
     inkscape:window-x="180"
     inkscape:window-y="23" />
  <metadata
     id="metadata36225">
    <rdf:RDF>
      <cc:Work
         rdf:about="">
        <dc:format>image/svg+xml</dc:format>
        <dc:type
           rdf:resource="http://purl.org/dc/dcmitype/StillImage" />
        <dc:publisher>
          <cc:Agent>
            <dc:title />
          </cc:Agent>
        </dc:publisher>
        <dc:creator>
          <cc:Agent>
            <dc:title>Maurizio Monge</dc:title>
          </cc:Agent>
        </dc:creator>
        <cc:license
           rdf:resource="http://creativecommons.org/licenses/GPL/2.0/" />
      </cc:Work>
      <cc:License
         rdf:about="http://creativecommons.org/licenses/GPL/2.0/">
        <cc:permits
           rdf:resource="http://web.resource.org/cc/Reproduction" />
        <cc:permits
           rdf:resource="http://web.resource.org/cc/Distribution" />
        <cc:requires
           rdf:resource="http://web.resource.org/cc/Notice" />
        <cc:permits
           rdf:resource="http://web.resource.org/cc/DerivativeWorks" />
        <cc:requires
           rdf:resource="http://web.resource.org/cc/ShareAlike" />
        <cc:requires
           rdf:resource="http://web.resource.org/cc/SourceCode" />
      </cc:License>
    </rdf:RDF>
  </metadata>
  <g
     id="layer1"
     inkscape:label="Layer 1"
     inkscape:groupmode="layer">
    <path
       style="fill:url(#linearGradient3590);fill-opacity:1;fill-rule:evenodd;stroke:#000000;stroke-width:16.40049744;stroke-linecap:round;stroke-linejoin:round;stroke-miterlimit:4;stroke-dasharray:none;stroke-opacity:1"
       d="M 195.31347,714.00018 L 194.74382,779.5337 L 310.85126,854.80999 L 654.63078,848.63783 L 654.21739,792.43482 L 543.09485,703.50763 L 195.31347,714.00018 z "
       id="path2213"
       sodipodi:nodetypes="ccccccc" />
    <path
       style="fill:url(#linearGradient2277);fill-opacity:1;fill-rule:evenodd;stroke:#000000;stroke-width:16.40049744;stroke-linecap:round;stroke-linejoin:round;stroke-miterlimit:4;stroke-dasharray:none;stroke-opacity:1"
       d="M 340.90086,393.96163 C 337.47644,395.41988 335.52266,400.64037 335.40397,410.33564 C 334.1372,513.80922 310.45653,700.38822 298.73645,737.30824 L 348.14383,769.51682 L 521.94265,744.03555 C 521.94265,744.03555 460.13367,546.6961 393.83271,448.50995 C 383.05708,447.19936 372.76241,444.29637 363.21178,440.03735 C 352.36037,426.92562 344.56786,411.21021 340.90086,393.96163 z "
       id="path2275"
       sodipodi:nodetypes="cscccccc" />
    <path
       style="fill:url(#linearGradient2273);fill-opacity:1;fill-rule:evenodd;stroke:#000000;stroke-width:16.40049744;stroke-linecap:round;stroke-linejoin:round;stroke-miterlimit:4;stroke-dasharray:none;stroke-opacity:1"
       d="M 492.97079,406.33734 C 473.32742,432.41899 442.09743,449.30326 406.96059,449.30326 C 394.7581,449.30326 383.01034,447.27448 372.07148,443.52793 C 386.49944,594.10322 353.18654,761.94292 357.03586,769.80241 L 551.91689,766.02623 C 551.91689,766.02623 496.44156,558.17689 514.95836,437.81606 C 503.4036,429.74092 501.70335,411.23056 492.97079,406.33734 z "
       id="path1331"
       sodipodi:nodetypes="csccccc" />
    <path
       style="fill:none;fill-opacity:0.75;fill-rule:evenodd;stroke:#000000;stroke-width:16.40049744;stroke-linecap:round;stroke-linejoin:round;stroke-miterlimit:4;stroke-dasharray:none;stroke-opacity:1"
       d="M 217.15579,734.09612 L 317.04349,798.4136 L 315.22762,837.39984"
       id="path2215"
       sodipodi:nodetypes="ccc" />
    <path
       style="fill:none;fill-opacity:0.75;fill-rule:evenodd;stroke:#000000;stroke-width:16.40049744;stroke-linecap:round;stroke-linejoin:round;stroke-miterlimit:4;stroke-dasharray:none;stroke-opacity:1"
       d="M 331.57045,797.82134 L 625.13455,794.34718"
       id="path2217"
       sodipodi:nodetypes="cc" />
    <path
       style="fill:url(#linearGradient3152);fill-opacity:1;fill-rule:evenodd;stroke:#000000;stroke-width:16.40049362;stroke-linecap:round;stroke-linejoin:round;stroke-miterlimit:4;stroke-dasharray:none;stroke-opacity:1"
       d="M 330.86519,320.13072 L 389.39718,318.69466 L 389.39718,277.04912 L 428.90627,266.99676 L 431.83287,360.3402 L 320.62208,358.90414 L 330.86519,320.13072 z "
       id="path2271" />
    <path
       style="opacity:0.98999999;fill:url(#linearGradient3371);fill-opacity:1;fill-rule:evenodd;stroke:#000000;stroke-width:16.40049362;stroke-linecap:round;stroke-linejoin:round;stroke-miterlimit:4;stroke-dasharray:none;stroke-dashoffset:0;stroke-opacity:1"
       d="M 484.72545,81.998543 L 338.02308,85.362197 L 350.0839,185.25639 C 305.09718,197.37545 249.96561,247.59225 240.7604,302.12751 L 108.15593,291.90962 L 114.20252,427.75683 L 159.76206,444.25778 L 254.69664,422.74308 C 286.76688,502.82936 349.91264,520.09928 390.27589,533.93408 C 494.53817,569.67074 587.25565,499.1333 610.70131,421.21992 L 730.01623,423.15561 L 736.06282,285.27751 L 686.55845,273.66338 L 602.35897,282.67544 C 580.38608,237.44904 563.73082,211.861 504.38494,188.04886 L 511.75724,98.499489 L 484.72545,81.998543 z M 444.08078,263.82628 C 444.30997,263.82193 444.53028,263.82919 444.7598,263.82628 C 445.22249,263.82041 445.68613,263.82628 446.1502,263.82628 C 461.72223,263.82628 476.53213,267.13135 489.899,273.09219 C 505.31398,291.71807 514.57035,315.61575 514.57035,341.66632 C 514.57036,401.0819 466.36118,449.30326 406.96059,449.30326 C 391.38855,449.30326 376.57865,445.99819 363.21178,440.03735 C 347.7968,421.41147 338.54043,397.51379 338.54043,371.46322 C 338.54043,312.74212 385.63803,264.93543 444.08078,263.82628 z "
       id="path3341"
       sodipodi:nodetypes="ccccccccscccccccccsscsscsc" />
    <path
       sodipodi:type="arc"
       style="opacity:0.98999999;fill:none;fill-opacity:1;fill-rule:evenodd;stroke:#000000;stroke-width:8;stroke-linecap:round;stroke-linejoin:round;stroke-miterlimit:4;stroke-dasharray:none;stroke-dashoffset:0;stroke-opacity:1"
       id="path2446"
       sodipodi:cx="401.99997"
       sodipodi:cy="321.00003"
       sodipodi:rx="160"
       sodipodi:ry="162"
       d="M 561.99997 321.00003 A 160 162 0 1 1  241.99997,321.00003 A 160 162 0 1 1  561.99997 321.00003 z"
       transform="matrix(1.034709,0.000000,0.000000,1.015443,28.12701,43.47887)" />
    <path
       style="fill:none;fill-opacity:1;fill-rule:evenodd;stroke:#000000;stroke-width:8.20024681;stroke-linecap:round;stroke-linejoin:round;stroke-miterlimit:4;stroke-dasharray:none;stroke-opacity:1"
       d="M 356.7253,99.654992 L 382.84881,111.31303 L 491.49035,107.77231"
       id="path3329"
       sodipodi:nodetypes="ccc"
       inkscape:transform-center-x="-237.63425"
       inkscape:transform-center-y="-1423.5492" />
    <path
       style="opacity:0.98999999;fill:url(#linearGradient3353);fill-opacity:1;fill-rule:evenodd;stroke:#000000;stroke-width:13.93908215;stroke-linecap:round;stroke-linejoin:round;stroke-miterlimit:4;stroke-dasharray:none;stroke-dashoffset:0;stroke-opacity:1"
       d="M 489.899,273.09219 C 505.31398,291.71807 514.57035,315.61575 514.57035,341.66632 C 514.57036,401.0819 466.36118,449.30326 406.96059,449.30326 C 391.38855,449.30326 376.57865,445.99819 363.21178,440.03735 C 382.95498,463.89297 412.7936,479.10016 446.1502,479.10016 C 505.55079,479.10016 553.75995,430.87882 553.75997,371.46322 C 553.75997,327.6236 527.52099,289.86941 489.899,273.09219 z M 342.38826,342.87216 C 342.29126,343.22474 342.19073,343.56532 342.09724,343.91933 C 342.19006,343.56809 342.292,343.22199 342.38826,342.87216 z M 338.6051,375.42979 C 338.61232,375.62868 338.62913,375.8341 338.63744,376.03271 C 338.62904,375.83125 338.61238,375.63154 338.6051,375.42979 z M 338.63744,376.31831 C 338.64624,376.51665 338.65989,376.72315 338.66977,376.92123 C 338.65972,376.72019 338.64637,376.51963 338.63744,376.31831 z M 338.66977,377.01642 C 338.67863,377.19119 338.69241,377.3496 338.7021,377.52415 C 338.6926,377.35322 338.67846,377.18757 338.66977,377.01642 z M 338.89611,380.22142 C 338.91051,380.39993 338.91317,380.5826 338.92845,380.76087 C 338.91329,380.58387 338.9104,380.39866 338.89611,380.22142 z M 339.09012,382.47443 C 339.1252,382.81955 339.18112,383.14572 339.21946,383.48987 C 339.18149,383.14877 339.12489,382.81648 339.09012,382.47443 z M 339.4458,385.64769 C 339.46847,385.81969 339.51933,385.98366 339.54281,386.15541 C 339.51884,385.97999 339.46892,385.82337 339.4458,385.64769 z M 346.13908,411.22415 C 346.17891,411.32424 346.19595,411.44154 346.23608,411.54148 C 346.19319,411.43467 346.18163,411.33114 346.13908,411.22415 z M 359.42862,435.18226 C 359.52422,435.31217 359.62347,435.43359 359.71963,435.56305 C 359.62412,435.43447 359.52358,435.31128 359.42862,435.18226 z "
       id="path3345" />
    <path
       style="fill:none;fill-opacity:1;fill-rule:evenodd;stroke:#000000;stroke-width:8.20023823;stroke-linecap:round;stroke-linejoin:round;stroke-miterlimit:4;stroke-dasharray:none;stroke-opacity:1"
       d="M 128.73907,310.45307 L 159.07694,323.97834 L 159.51327,419.25332"
       id="path3357"
       sodipodi:nodetypes="ccc"
       inkscape:transform-center-x="1424.7529"
       inkscape:transform-center-y="228.57985" />
    <path
       style="fill:none;fill-opacity:1;fill-rule:evenodd;stroke:#000000;stroke-width:8.20024109;stroke-linecap:round;stroke-linejoin:round;stroke-miterlimit:4;stroke-dasharray:none;stroke-opacity:1"
       d="M 613.52803,309.17761 L 705.96927,299.05145"
       id="path3365"
       sodipodi:nodetypes="cc"
       inkscape:transform-center-x="-237.63425"
       inkscape:transform-center-y="-1423.5492" />
    <path
       style="fill:url(#linearGradient2267);fill-opacity:1;fill-rule:evenodd;stroke:#000000;stroke-width:14.62464046;stroke-linecap:round;stroke-linejoin:round;stroke-miterlimit:4;stroke-dasharray:none;stroke-opacity:1"
       d="M 441.58194,270.1915 C 430.52377,270.33303 419.91016,272.40122 410.06698,276.04888 L 412.14297,281.39693 L 412.14297,339.34832 L 353.09207,339.34832 L 351.88106,338.13156 C 349.20091,346.99603 347.75788,356.39932 347.75788,366.14516 C 347.75788,374.78587 348.89111,383.16482 351.01605,391.13104 L 412.14297,390.05578 L 412.14297,455.25107 L 411.16264,456.6376 C 421.06172,460.16678 431.73054,462.09884 442.82179,462.09884 C 454.64069,462.09884 462.83761,458.89897 473.2798,454.91475 L 472.11657,451.62911 L 473.03924,451.62911 L 471.19391,390.05578 L 534.33917,392.09312 C 536.63336,383.83919 537.85685,375.13557 537.85685,366.14516 C 537.85685,355.51586 536.15011,345.28507 532.98399,335.72635 L 471.19391,335.72635 L 474.88458,281.39693 L 478.02743,277.01097 C 467.13377,272.61836 455.26267,270.1915 442.82179,270.1915 C 442.41184,270.1915 441.99067,270.18626 441.58194,270.1915 z "
       id="path1369"
       sodipodi:nodetypes="ccccccsccccscccccsccccsc" />
    <path
       style="fill:url(#linearGradient3160);fill-opacity:1;fill-rule:evenodd;stroke:#000000;stroke-width:16.40049362;stroke-linecap:round;stroke-linejoin:round;stroke-miterlimit:4;stroke-dasharray:none;stroke-opacity:1"
       d="M 384.15009,393.36941 L 385.00728,440.75916 L 411.34668,455.1197 L 408.42007,394.80547 L 384.15009,393.36941 z "
       id="path2269"
       sodipodi:nodetypes="ccccc" />
    <path
       style="fill:url(#linearGradient3170);fill-opacity:1;fill-rule:evenodd;stroke:#000000;stroke-width:16.40049362;stroke-linecap:round;stroke-linejoin:round;stroke-miterlimit:4;stroke-dasharray:none;stroke-opacity:1"
       d="M 475.80108,316.69278 C 483.04404,316.69278 513.05061,316.69278 513.05061,316.69278 L 537.88364,334.97075 L 471.66224,334.97075 L 475.80108,316.69278 z "
       id="path3162" />
    <path
       style="fill:none;fill-opacity:1;fill-rule:evenodd;stroke:#000000;stroke-width:8.20023823;stroke-linecap:round;stroke-linejoin:round;stroke-miterlimit:4;stroke-dasharray:none;stroke-opacity:1"
       d="M 387.96056,193.41435 L 381.68652,124.54089"
       id="path3172"
       sodipodi:nodetypes="cc"
       inkscape:transform-center-x="1424.7529"
       inkscape:transform-center-y="228.57985" />
    <path
       style="fill:none;fill-opacity:1;fill-rule:evenodd;stroke:#000000;stroke-width:8.20023823;stroke-linecap:round;stroke-linejoin:round;stroke-miterlimit:4;stroke-dasharray:none;stroke-opacity:1"
       d="M 259.37391,325.84639 L 174.08167,325.90347"
       id="path3174"
       sodipodi:nodetypes="cc"
       inkscape:transform-center-x="1424.7529"
       inkscape:transform-center-y="228.57985" />
  </g>
</svg>
