<?xml version="1.0" encoding="UTF-8" standalone="no"?>
<!-- Created with Inkscape (http://www.inkscape.org/) -->
<svg
   xmlns:dc="http://purl.org/dc/elements/1.1/"
   xmlns:cc="http://web.resource.org/cc/"
   xmlns:rdf="http://www.w3.org/1999/02/22-rdf-syntax-ns#"
   xmlns:svg="http://www.w3.org/2000/svg"
   xmlns="http://www.w3.org/2000/svg"
   xmlns:xlink="http://www.w3.org/1999/xlink"
   xmlns:sodipodi="http://inkscape.sourceforge.net/DTD/sodipodi-0.dtd"
   xmlns:inkscape="http://www.inkscape.org/namespaces/inkscape"
   width="700pt"
   height="700pt"
   id="svg36220"
   sodipodi:version="0.32"
   inkscape:version="0.43"
   version="1.0"
   inkscape:export-filename="/home/maurizio/out/wp.png"
   inkscape:export-xdpi="90"
   inkscape:export-ydpi="90"
   sodipodi:docbase="/home/maurizio/out1"
   sodipodi:docname="wp.svg">
  <defs
     id="defs36222">
    <linearGradient
       inkscape:collect="always"
       xlink:href="#linearGradient5175"
       id="linearGradient2365"
       x1="317.82336"
       y1="251.51895"
       x2="716.78424"
       y2="1040.8939"
       gradientUnits="userSpaceOnUse"
       gradientTransform="matrix(0.75455,0,0,0.75455,109.5361,264.4223)" />
    <linearGradient
       inkscape:collect="always"
       xlink:href="#linearGradient5175"
       id="linearGradient2373"
       x1="403.64108"
       y1="286.73438"
       x2="535.96454"
       y2="715.77893"
       gradientUnits="userSpaceOnUse"
       gradientTransform="matrix(0.75455,0,0,0.75455,109.5361,264.4223)" />
    <linearGradient
       id="linearGradient5175">
      <stop
         style="stop-color:#ffffff;stop-opacity:1;"
         offset="0"
         id="stop5177" />
      <stop
         style="stop-color:#000000;stop-opacity:1;"
         offset="1"
         id="stop5179" />
    </linearGradient>
  </defs>
  <sodipodi:namedview
     id="base"
     pagecolor="#ffffff"
     bordercolor="#666666"
     borderopacity="1.0"
     inkscape:pageopacity="0.0"
     inkscape:pageshadow="2"
     inkscape:zoom="0.50000002"
     inkscape:cx="324.9247"
     inkscape:cy="287.58031"
     inkscape:current-layer="layer1"
     inkscape:document-units="px"
     inkscape:window-width="838"
     inkscape:window-height="720"
     inkscape:window-x="374"
     inkscape:window-y="0" />
  <metadata
     id="metadata36225">
    <rdf:RDF>
      <cc:Work
         rdf:about="">
        <dc:format>image/svg+xml</dc:format>
        <dc:type
           rdf:resource="http://purl.org/dc/dcmitype/StillImage" />
        <dc:publisher>
          <cc:Agent>
            <dc:title />
          </cc:Agent>
        </dc:publisher>
        <dc:creator>
          <cc:Agent>
            <dc:title>Maurizio Monge</dc:title>
          </cc:Agent>
        </dc:creator>
        <cc:license
           rdf:resource="http://creativecommons.org/licenses/GPL/2.0/" />
      </cc:Work>
      <cc:License
         rdf:about="http://creativecommons.org/licenses/GPL/2.0/">
        <cc:permits
           rdf:resource="http://web.resource.org/cc/Reproduction" />
        <cc:permits
           rdf:resource="http://web.resource.org/cc/Distribution" />
        <cc:requires
           rdf:resource="http://web.resource.org/cc/Notice" />
        <cc:permits
           rdf:resource="http://web.resource.org/cc/DerivativeWorks" />
        <cc:requires
           rdf:resource="http://web.resource.org/cc/ShareAlike" />
        <cc:requires
           rdf:resource="http://web.resource.org/cc/SourceCode" />
      </cc:License>
    </rdf:RDF>
  </metadata>
  <g
     id="layer1"
     inkscape:label="Layer 1"
     inkscape:groupmode="layer">
    <path
       style="fill:url(#linearGradient2365);fill-opacity:1;fill-rule:evenodd;stroke:#000000;stroke-width:16;stroke-linecap:round;stroke-linejoin:round;stroke-miterlimit:4;stroke-dasharray:none;stroke-opacity:1"
       d="M 278.55544,502.10602 C 279.20617,463.14783 296.63047,426.51122 323.9726,399.88091 C 345.15819,379.24689 369.05532,365.08495 397.07822,356.61737 C 422.91705,348.8097 457.72512,349.36015 483.45444,356.78254 C 514.76577,365.81516 538.38615,377.99591 563.26774,399.00278 C 600.99042,430.85097 614.36562,490.16262 603.66181,510.33072 C 599.35851,531.76944 573.48625,604.62761 563.39593,636.81228 C 555.0513,656.7112 555.88242,679.29511 554.72078,700.55275 C 557.71114,724.86557 546.88733,748.05506 534.30999,768.0266 C 521.19535,782.06134 502.98371,787.96383 491.41964,802.98641 C 475.5408,823.6143 454.90509,804.327 439.2644,807.92907 C 419.41882,804.70553 398.75715,825.93429 385.78288,801.94008 C 373.08696,778.4606 342.09557,767.77458 326.49595,745.64271 C 310.8,734.74191 316.32109,712.9843 315.58726,696.57109 C 317.49813,667.25587 316.04231,636.87886 303.0721,609.98382 C 301.8018,606.26316 283.26181,534.7303 278.55544,502.10602 z "
       id="path1328"
       sodipodi:nodetypes="cssssccccscscccc" />
    <path
       style="fill:url(#linearGradient2373);fill-opacity:1;fill-rule:evenodd;stroke:#000000;stroke-width:16;stroke-linecap:round;stroke-linejoin:round;stroke-miterlimit:4;stroke-dasharray:none;stroke-opacity:1"
       d="M 326.15654,512.57238 C 322.27944,533.14124 327.48974,559.09725 305.20232,571.13347 C 290.24589,585.03601 279.12875,618.72333 297.10423,638.66812 C 327.64185,653.28506 351.00629,645.71945 357.90223,685.66201 C 361.23911,721.3827 396.85846,723.57538 417.28374,721.5357 C 439.70213,721.90018 471.22816,722.84232 492.55541,721.32465 C 521.99792,720.23938 510.60702,660.71198 542.58927,659.60511 C 573.5266,655.81137 587.97535,628.09659 586.33188,600.95166 C 577.28931,577.91908 560.57536,558.28099 567.31999,530.89602"
       id="path2239"
       sodipodi:nodetypes="ccccccccc" />
    <path
       style="fill:#000000;fill-opacity:1;fill-rule:evenodd;stroke:none;stroke-width:16;stroke-linecap:round;stroke-linejoin:round;stroke-miterlimit:4;stroke-dasharray:none;stroke-opacity:1"
       d="M 475.65707,546.53626 C 465.44861,558.98158 463.61783,563.59968 461.01116,579.89475 C 461.25705,590.55064 474.37631,604.01465 483.24304,608.66972 C 495.99017,615.89058 508.0391,615.79137 522.7732,612.46479 C 530.86526,610.88436 541.48195,605.26661 542.62367,596.52612 C 544.68931,586.24023 549.17334,554.38448 544.27638,549.32999 C 537.57967,543.50696 513.2248,538.10941 504.97557,536.13774 C 500.0827,533.65329 479.75369,542.32701 475.65707,546.53626 z "
       id="path2206"
       sodipodi:nodetypes="cccccccc" />
    <path
       style="fill:#000000;fill-opacity:1;fill-rule:evenodd;stroke:none;stroke-width:16;stroke-linecap:round;stroke-linejoin:round;stroke-miterlimit:4;stroke-dasharray:none;stroke-opacity:1"
       d="M 349.63254,541.56702 C 340.30613,551.20414 336.59195,558.7685 338.41703,577.79213 C 339.72287,589.01519 340.56456,601.27489 349.29882,608.83845 C 378.99007,613.82645 405.57246,605.10019 410.36363,595.90925 C 420.23695,583.9406 423.25123,575.85138 423.6678,560.95291 C 422.15929,545.54772 408.07201,532.79889 393.99185,534.77528 C 381.13466,536.34087 369.81852,531.07817 349.63254,541.56702 z "
       id="path2204"
       sodipodi:nodetypes="ccccccc" />
    <path
       style="fill:#000000;fill-opacity:1;fill-rule:evenodd;stroke:none;stroke-width:16;stroke-linecap:round;stroke-linejoin:round;stroke-miterlimit:4;stroke-dasharray:none;stroke-opacity:1"
       d="M 441.9742,581.67458 C 438.1609,582.93098 435.10253,592.62463 433.33203,596.27151 C 426.67577,612.53174 416.6835,637.72659 421.02299,649.76281 C 426.15447,652.97462 436.15305,644.32836 439.94376,645.65722 C 444.51456,646.73387 450.06742,652.30877 457.29476,651.05779 C 462.94336,653.49228 457.74388,607.63601 451.16202,597.45929 C 448.2274,589.8231 446.74982,580.10117 441.9742,581.67458 z "
       id="path2228"
       sodipodi:nodetypes="ccccccs" />
    <path
       style="fill:none;fill-opacity:1;fill-rule:evenodd;stroke:#000000;stroke-width:16;stroke-linecap:butt;stroke-linejoin:round;stroke-miterlimit:4;stroke-dasharray:none;stroke-opacity:1"
       d="M 356.55301,674.95384 C 365.55273,698.19792 355.26265,724.569 375.41689,733.43421 C 396.8453,739.84129 416.95749,742.52816 439.22271,741.97849 C 467.35494,736.63295 493.81581,747.92989 511.06618,724.47726 C 517.52625,710.0191 514.33319,685.05217 525.18546,673.00279"
       id="path2244"
       sodipodi:nodetypes="ccccc" />
    <path
       style="fill:#ffffff;fill-opacity:1;fill-rule:evenodd;stroke:#000000;stroke-width:8;stroke-linecap:butt;stroke-linejoin:round;stroke-miterlimit:4;stroke-dasharray:none;stroke-opacity:1"
       d="M 430.22005,690.74362 C 428.9409,692.07958 424.62115,695.15031 422.67455,699.04362 C 421.22007,701.95246 421.04041,710.10728 420.41084,712.6255 C 419.06882,717.99355 421.12016,719.77116 424.93816,721.68016 C 428.40769,723.41483 432.31148,722.1435 434.7473,720.92559 C 438.14961,719.22443 437.6789,715.99031 438.52005,712.6255 C 439.39748,709.11606 438.52005,704.16621 438.52005,700.55275 C 438.52005,695.92408 438.09112,694.08735 435.50186,691.4981 C 433.32377,689.32 435.4727,689.69302 430.22005,690.74362 z "
       id="path2275"
       sodipodi:nodetypes="csssssssc" />
    <path
       style="fill:#ffffff;fill-opacity:1;fill-rule:evenodd;stroke:#000000;stroke-width:8;stroke-linecap:butt;stroke-linejoin:round;stroke-miterlimit:4;stroke-dasharray:none;stroke-opacity:1"
       d="M 443.04738,690.74362 C 443.00355,690.69979 439.81059,699.16336 439.27462,701.30723 C 438.43463,704.66733 440.90599,708.36363 440.02919,711.87094 C 438.79377,716.81244 437.84612,718.70225 440.78367,720.17102 C 444.66702,722.11265 446.72875,722.22324 450.5929,723.18921 C 455.21818,724.34551 458.08942,720.73935 459.64746,718.66197 C 461.59824,716.06089 458.5877,709.89553 458.1384,708.09827 C 457.11359,703.99917 455.53795,701.3884 453.61109,697.53456 C 452.50723,695.32695 448.53134,693.5361 446.82013,692.25267 C 445.73655,691.43996 444.30494,691.24661 443.04738,690.74362 z "
       id="path2277"
       sodipodi:nodetypes="cssssssssc" />
    <path
       style="fill:#ffffff;fill-opacity:1;fill-rule:evenodd;stroke:#000000;stroke-width:8;stroke-linecap:butt;stroke-linejoin:round;stroke-miterlimit:4;stroke-dasharray:none;stroke-opacity:1"
       d="M 459.64746,693.76181 C 455.82438,690.89448 459.64746,703.31936 459.64746,708.09827 C 459.64746,711.70265 459.7864,716.1994 460.40203,718.66197 C 460.95026,720.85483 467.89678,720.53559 469.45659,720.92559 C 474.26883,722.12865 477.53674,719.10184 479.26582,715.64369 C 480.86003,712.45526 477.00211,707.88393 477.00211,704.32551 C 477.00211,698.43875 474.60043,695.08684 472.47478,692.25267 C 469.46842,688.24407 462.03714,691.85004 459.64746,693.76181 z "
       id="path2279" />
    <path
       style="fill:#ffffff;fill-opacity:1;fill-rule:evenodd;stroke:#000000;stroke-width:8;stroke-linecap:butt;stroke-linejoin:round;stroke-miterlimit:4;stroke-dasharray:none;stroke-opacity:1"
       d="M 482.284,691.4981 C 482.26711,691.4756 480.77486,701.75679 480.77486,705.08 C 480.77486,709.44383 480.08306,711.99646 481.52943,714.88921 C 482.37477,716.5798 489.50495,716.93778 490.58399,716.39827 C 494.95406,714.21323 494.35676,706.052 494.35676,701.30723 C 494.35676,698.17907 490.10083,693.1429 488.32038,692.25267 C 486.06503,691.125 485.66765,691.4981 482.284,691.4981 z "
       id="path2281"
       sodipodi:nodetypes="csssssc" />
    <path
       style="fill:#ffffff;fill-opacity:1;fill-rule:evenodd;stroke:#000000;stroke-width:8;stroke-linecap:butt;stroke-linejoin:round;stroke-miterlimit:4;stroke-dasharray:none;stroke-opacity:1"
       d="M 496.62046,689.98905 C 492.11554,687.73654 495.8659,700.04345 495.8659,705.08 C 495.8659,710.1079 493.47809,711.45392 496.62046,715.64369 C 498.94897,718.74838 502.90389,712.87931 504.92046,711.87094 C 507.13776,710.76229 506.42959,703.67922 506.42959,701.30723 C 506.42959,697.41562 504.79911,693.51903 503.4114,690.74362 C 502.21306,688.34692 498.12569,689.68795 496.62046,689.98905 z "
       id="path2283" />
    <path
       style="fill:#ffffff;fill-opacity:1;fill-rule:evenodd;stroke:#000000;stroke-width:8;stroke-linecap:butt;stroke-linejoin:round;stroke-miterlimit:4;stroke-dasharray:none;stroke-opacity:1"
       d="M 403.81076,692.25267 C 403.82863,692.21702 405.3199,701.69918 405.3199,705.08 C 405.3199,707.58684 406.18585,712.42842 406.82895,715.64369 C 407.77705,720.38402 402.98925,719.41645 399.28343,719.41645 C 395.20548,719.41645 392.98791,716.0528 390.98344,713.38008 C 389.41633,711.29061 391.19866,702.71014 391.73791,700.55275 C 392.65997,696.86454 396.23617,694.90815 398.52895,693.76181 C 400.82849,692.612 399.7009,693.07462 403.81076,692.25267 z "
       id="path2287" />
    <path
       style="fill:#ffffff;fill-opacity:1;fill-rule:evenodd;stroke:#000000;stroke-width:8;stroke-linecap:butt;stroke-linejoin:round;stroke-miterlimit:4;stroke-dasharray:none;stroke-opacity:1"
       d="M 387.21068,696.02543 C 389.556,694.85276 387.21068,704.45904 387.21068,707.3437 C 387.21068,711.77741 389.16244,712.49474 387.21068,716.39827 C 385.6466,719.52642 378.02988,715.20338 377.40155,714.88921 C 374.35758,713.36718 374.38326,708.5809 374.38326,705.08 C 374.38326,701.3716 377.50404,697.12438 378.15603,694.51629 C 380.03089,687.01701 385.16762,693.47164 387.21068,696.02543 z "
       id="path2289"
       sodipodi:nodetypes="csssssc" />
    <path
       style="fill:#ffffff;fill-opacity:1;fill-rule:evenodd;stroke:#000000;stroke-width:8;stroke-linecap:butt;stroke-linejoin:round;stroke-miterlimit:4;stroke-dasharray:none;stroke-opacity:1"
       d="M 405.3199,698.28904 C 407.63179,694.59621 407.54564,692.07354 412.86532,690.74362 C 413.22269,690.65428 419.44735,697.45313 419.65636,698.28904 C 420.5416,701.8304 419.42388,707.16865 420.41084,711.11646 C 421.73124,716.39782 419.73379,717.69938 415.88359,718.66197 C 410.53351,719.99945 409.56231,719.78609 408.33809,714.88921 C 407.59124,711.90179 406.62901,707.29854 406.07438,705.08 C 405.52632,702.88758 405.3199,700.61445 405.3199,698.28904 z "
       id="path2291"
       sodipodi:nodetypes="cssssssc" />
    <path
       style="fill:#ffffff;fill-opacity:1;fill-rule:evenodd;stroke:#000000;stroke-width:8;stroke-linecap:butt;stroke-linejoin:round;stroke-miterlimit:4;stroke-dasharray:none;stroke-opacity:1"
       d="M 374.38326,693.00724 C 375.4304,695.72202 375.13784,704.26853 375.13784,709.60731 C 375.13784,715.45657 372.75465,714.88921 367.59232,714.88921 C 363.46948,714.88921 362.31051,711.52735 362.31051,707.3437 C 362.31051,702.26404 361.88345,699.89766 364.57413,694.51629 C 366.36375,690.93706 367.83572,689.74564 369.85603,687.72534 C 371.49567,686.0857 373.52211,690.85421 374.38326,693.00724 z "
       id="path2295" />
    <path
       style="fill:#ffffff;fill-opacity:1;fill-rule:evenodd;stroke:#000000;stroke-width:8;stroke-linecap:butt;stroke-linejoin:round;stroke-miterlimit:4;stroke-dasharray:none;stroke-opacity:1"
       d="M 380.41973,721.68016 C 377.5741,718.83452 380.41973,729.72866 380.41973,733.75291 C 380.41973,738.33233 381.89242,739.03481 386.45611,739.03481 C 387.7582,739.03481 389.86144,729.94068 390.22886,728.4711 C 391.12132,724.90112 390.91738,720.66147 390.22886,717.9074 C 388.30706,710.22027 381.24427,719.61878 380.41973,721.68016 z "
       id="path2299" />
    <path
       style="fill:#ffffff;fill-opacity:1;fill-rule:evenodd;stroke:#000000;stroke-width:8;stroke-linecap:butt;stroke-linejoin:round;stroke-miterlimit:4;stroke-dasharray:none;stroke-opacity:1"
       d="M 433.99272,744.31662 C 433.34296,741.71732 432.9167,733.97605 431.72911,729.22568 C 430.59814,724.70155 429.71423,723.43795 426.4473,720.17102 C 422.40803,716.13183 422.13128,728.16912 421.91997,729.22568 C 421.09607,733.34514 424.06536,735.54359 424.93816,739.03481 C 426.00796,743.31411 428.53126,744.31662 433.99272,744.31662 z "
       id="path2301" />
    <path
       style="fill:#ffffff;fill-opacity:1;fill-rule:evenodd;stroke:#000000;stroke-width:8;stroke-linecap:butt;stroke-linejoin:round;stroke-miterlimit:4;stroke-dasharray:none;stroke-opacity:1"
       d="M 435.50186,744.31662 C 436.72342,749.20291 434.7473,734.26221 434.7473,729.22568 C 434.7473,724.39298 433.41409,723.76794 436.25643,720.92559 C 439.29533,717.8866 443.95859,725.01172 444.55643,726.2074 C 446.19945,729.49343 446.82013,730.88185 446.82013,736.01662 C 446.82013,740.66805 443.31487,741.16473 440.02919,742.80756 C 435.59877,745.02274 449.60719,741.4956 435.50186,744.31662 z "
       id="path2303" />
    <path
       style="fill:#ffffff;fill-opacity:1;fill-rule:evenodd;stroke:#000000;stroke-width:8;stroke-linecap:butt;stroke-linejoin:round;stroke-miterlimit:4;stroke-dasharray:none;stroke-opacity:1"
       d="M 449.83832,744.31662 C 449.21693,744.62731 449.08376,733.18352 449.08376,729.98015 C 449.08376,725.26418 450.96164,725.08408 453.61109,722.43464 C 457.08265,718.96306 461.08415,727.3685 461.91117,728.4711 C 463.92569,731.15717 462.39006,737.11914 461.91117,739.03481 C 461.53717,740.53043 451.67292,743.58276 449.83832,744.31662 z "
       id="path2305" />
    <path
       style="fill:#ffffff;fill-opacity:1;fill-rule:evenodd;stroke:#000000;stroke-width:8;stroke-linecap:butt;stroke-linejoin:round;stroke-miterlimit:4;stroke-dasharray:none;stroke-opacity:1"
       d="M 422.67455,742.80756 C 421.63212,746.97717 420.72598,734.17304 418.14722,730.73472 C 414.5487,725.9367 416.65559,724.32978 411.35627,721.68016 C 408.32262,720.16329 407.07475,727.9795 406.07438,729.98015 C 404.04722,734.03446 408.23291,737.47313 409.84713,738.28024 C 412.83678,739.77506 413.58344,742.41205 417.39265,744.31662 C 419.15062,745.19564 419.9691,745.33806 421.91997,745.82575"
       id="path2307" />
    <path
       style="fill:#ffffff;fill-opacity:1;fill-rule:evenodd;stroke:#000000;stroke-width:8;stroke-linecap:butt;stroke-linejoin:round;stroke-miterlimit:4;stroke-dasharray:none;stroke-opacity:1"
       d="M 402.30162,739.78937 C 403.43409,740.35556 402.30162,728.54845 402.30162,725.45291 C 402.30162,719.58118 401.77943,720.92559 395.51067,720.92559 C 391.17821,720.92559 391.73791,728.2581 391.73791,732.24387 C 391.73791,737.50931 391.9911,738.78411 395.51067,740.54385 C 398.70932,742.14323 398.2931,742.79574 402.30162,739.78937 z "
       id="path2309" />
    <path
       style="fill:#ffffff;fill-opacity:1;fill-rule:evenodd;stroke:#000000;stroke-width:8;stroke-linecap:butt;stroke-linejoin:round;stroke-miterlimit:4;stroke-dasharray:none;stroke-opacity:1"
       d="M 466.4384,742.053 C 470.54364,744.10557 466.64944,732.57625 468.70211,728.4711 C 470.39535,725.08452 475.23596,723.94377 478.51124,723.94377 C 483.28891,723.94377 482.284,728.00164 482.284,732.24387 C 482.284,734.98318 478.13236,737.90455 476.24753,739.78937 C 474.2836,741.75332 469.52434,742.053 466.4384,742.053 z "
       id="path2311" />
    <path
       style="fill:#ffffff;fill-opacity:1;fill-rule:evenodd;stroke:#000000;stroke-width:8;stroke-linecap:butt;stroke-linejoin:round;stroke-miterlimit:4;stroke-dasharray:none;stroke-opacity:1"
       d="M 485.30219,737.52567 C 483.52333,739.30452 485.62427,730.2008 487.5658,722.43464 C 488.58459,718.35954 493.12951,719.48695 495.8659,720.17102 C 500.10972,721.23202 497.45611,728.30877 496.62046,729.98015 C 494.47223,734.27661 490.11266,737.52567 485.30219,737.52567 z "
       id="path2313" />
    <path
       style="fill:none;fill-opacity:0.75;fill-rule:evenodd;stroke:#000000;stroke-width:16;stroke-linecap:round;stroke-linejoin:round;stroke-miterlimit:4;stroke-dasharray:none;stroke-opacity:1"
       d="M 435.25795,364.94386 C 433.83514,368.85654 437.39213,369.31189 437.39213,375.61486 C 437.39213,378.48984 426.22952,391.70502 427.78827,394.8226 C 430.03455,399.31508 436.14196,403.17629 437.39213,404.42637 C 438.24298,405.27723 411.46144,401.77436 408.64673,410.82902 C 406.23652,418.58211 397.85857,403.93006 390.13997,405.85968 C 384.85451,407.18107 374.78776,425.62428 370.23127,427.90248 C 363.62203,431.20718 357.1641,419.71308 355.29199,427.2016 C 353.97985,432.44998 354.36451,436.24683 353.1578,441.07383 C 350.96833,449.83157 356.65684,437.81046 342.48681,440.17213 C 336.02709,441.24879 335.01712,437.4787 335.01712,451.91018 C 335.01712,452.25156 321.80145,458.6413 320.07783,461.51406 C 316.73563,467.08443 315.54498,468.83936 313.67526,476.31821 C 311.23365,486.08467 295.36222,480.49207 290.33229,485.52204"
       id="path2353"
       sodipodi:nodetypes="csssssssssssss" />
    <path
       style="fill:none;fill-opacity:0.75;fill-rule:evenodd;stroke:#000000;stroke-width:16;stroke-linecap:round;stroke-linejoin:round;stroke-miterlimit:4;stroke-dasharray:none;stroke-opacity:1"
       d="M 431.0557,410.34441 C 435.67975,405.72027 440.30388,401.09623 444.92794,396.47217 C 449.55198,391.84804 435.67975,405.72027 431.0557,410.34441 C 426.07598,415.32414 441.76955,401.03906 445.99507,395.40505 C 451.97011,387.43824 463.71918,397.77347 466.26985,402.87473 C 469.36289,409.06081 474.09664,414.18509 476.94077,412.47859 C 481.17811,409.93618 488.00568,408.21022 492.94718,408.21022 C 503.21609,408.21022 507.90931,416.79248 512.15492,425.28369 C 515.20982,431.39341 523.13688,421.01533 531.36265,421.01533 C 539.79297,421.01533 543.91794,425.21586 542.03357,432.75338 C 541.21784,436.0163 552.48908,440.00757 554.83875,442.35724 C 560.82818,448.34668 552.52988,453.78486 562.30844,456.22947 C 571.29766,458.47683 588.21074,464.30589 593.78805,465.70026"
       id="path2357"
       sodipodi:nodetypes="cssssssssssss" />
    <path
       style="fill:none;fill-opacity:0.75;fill-rule:evenodd;stroke:#000000;stroke-width:8;stroke-linecap:round;stroke-linejoin:round;stroke-miterlimit:4;stroke-dasharray:none;stroke-opacity:1"
       d="M 349.4831,511.16067 C 357.30936,511.5593 374.67486,506.63335 387.21068,506.63335 C 400.34478,506.63335 409.48238,505.69636 420.41084,511.16067 C 422.44954,512.17998 424.48923,513.19982 426.4473,514.17886"
       id="path2375"
       sodipodi:nodetypes="cssc" />
    <path
       style="fill:none;fill-opacity:0.75;fill-rule:evenodd;stroke:#000000;stroke-width:8;stroke-linecap:round;stroke-linejoin:round;stroke-miterlimit:4;stroke-dasharray:none;stroke-opacity:1"
       d="M 465.68384,514.17886 C 471.10859,509.72292 482.74271,503.61516 491.33857,503.61516 C 500.89185,503.61516 508.85314,503.61516 518.50234,503.61516 C 524.53881,503.61516 530.57519,503.61516 536.61157,503.61516"
       id="path2377"
       sodipodi:nodetypes="cssc" />
  </g>
</svg>
