<?xml version="1.0" encoding="UTF-8" standalone="no"?>
<!-- Created with Inkscape (http://www.inkscape.org/) -->

<svg
   xmlns:dc="http://purl.org/dc/elements/1.1/"
   xmlns:cc="http://creativecommons.org/ns#"
   xmlns:rdf="http://www.w3.org/1999/02/22-rdf-syntax-ns#"
   xmlns:svg="http://www.w3.org/2000/svg"
   xmlns="http://www.w3.org/2000/svg"
   xmlns:sodipodi="http://sodipodi.sourceforge.net/DTD/sodipodi-0.dtd"
   xmlns:inkscape="http://www.inkscape.org/namespaces/inkscape"
   width="64px"
   height="64px"
   id="svg2816"
   version="1.1"
   inkscape:version="0.47 r22583"
   sodipodi:docname="bb.svg">
  <defs
     id="defs2818">
    <inkscape:perspective
       sodipodi:type="inkscape:persp3d"
       inkscape:vp_x="0 : 32 : 1"
       inkscape:vp_y="0 : 1000 : 0"
       inkscape:vp_z="64 : 32 : 1"
       inkscape:persp3d-origin="32 : 21.333333 : 1"
       id="perspective2824" />
  </defs>
  <sodipodi:namedview
     id="base"
     pagecolor="#ffffff"
     bordercolor="#666666"
     borderopacity="1.0"
     inkscape:pageopacity="0.0"
     inkscape:pageshadow="2"
     inkscape:zoom="5.5"
     inkscape:cx="32"
     inkscape:cy="32"
     inkscape:current-layer="layer1"
     showgrid="true"
     inkscape:document-units="px"
     inkscape:grid-bbox="true"
     inkscape:window-width="1365"
     inkscape:window-height="878"
     inkscape:window-x="-8"
     inkscape:window-y="-8"
     inkscape:window-maximized="1" />
  <metadata
     id="metadata2821">
    <rdf:RDF>
      <cc:Work
         rdf:about="">
        <dc:format>image/svg+xml</dc:format>
        <dc:type
           rdf:resource="http://purl.org/dc/dcmitype/StillImage" />
        <dc:title />
      </cc:Work>
    </rdf:RDF>
  </metadata>
  <g
     id="layer1"
     inkscape:label="Layer 1"
     inkscape:groupmode="layer">
    <text
       xml:space="preserve"
       style="font-size:64px;font-style:normal;font-weight:normal;fill:#000000;fill-opacity:1;stroke:none;font-family:Chess Alpha;-inkscape-font-specification:Chess Alpha"
       x="0.54545456"
       y="63.272728"
       id="text2826"><tspan
         sodipodi:role="line"
         id="tspan2828"
         x="0.54545456"
         y="63.272728">n</tspan></text>
    <path
       style="fill:#ffffff"
       d="m 24.261461,43.222066 0.374903,-1.177933 7.909091,0 7.90909,0 0.374903,1.177933 0.374903,1.177934 -8.658896,0 -8.658897,0 0.374903,-1.177934 z"
       id="path3072" />
    <path
       style="fill:#ffffff"
       d="m 24.461893,38.622304 c -0.354041,-0.56601 -0.643711,-1.084069 -0.643711,-1.151243 0,-0.123947 1.922976,-0.666568 3.909091,-1.103058 1.480692,-0.325413 8.155671,-0.325413 9.636363,0 1.986115,0.43649 3.909091,0.979111 3.909091,1.103058 0,0.06717 -0.28967,0.585233 -0.643711,1.151243 l -0.643711,1.029108 -0.733241,-0.258702 c -3.401821,-1.200233 -10.011398,-1.200233 -13.413219,0 l -0.733241,0.258702 -0.643711,-1.029108 z"
       id="path3074" />
    <path
       style="fill:#ffffff"
       d="m 31.090909,30.218182 0,-2.545455 -1.454545,0 -1.454546,0 0,-1.363636 0,-1.363636 1.454546,0 1.454545,0 0,-1.636364 0,-1.636364 1.454546,0 1.454545,0 0,1.636364 0,1.636364 1.454545,0 1.454546,0 0,1.363636 0,1.363636 -1.454546,0 -1.454545,0 0,2.545455 0,2.545454 -1.454545,0 -1.454546,0 0,-2.545454 z"
       id="path3076" />
  </g>
</svg>
