<?xml version="1.0" encoding="UTF-8" standalone="no"?>
<!-- Created with Inkscape (http://www.inkscape.org/) -->

<svg
   xmlns:dc="http://purl.org/dc/elements/1.1/"
   xmlns:cc="http://creativecommons.org/ns#"
   xmlns:rdf="http://www.w3.org/1999/02/22-rdf-syntax-ns#"
   xmlns:svg="http://www.w3.org/2000/svg"
   xmlns="http://www.w3.org/2000/svg"
   xmlns:sodipodi="http://sodipodi.sourceforge.net/DTD/sodipodi-0.dtd"
   xmlns:inkscape="http://www.inkscape.org/namespaces/inkscape"
   width="64px"
   height="64px"
   id="svg2996"
   version="1.1"
   inkscape:version="0.48.1 "
   sodipodi:docname="bn.svg">
  <defs
     id="defs2998" />
  <sodipodi:namedview
     id="base"
     pagecolor="#ffffff"
     bordercolor="#666666"
     borderopacity="1.0"
     inkscape:pageopacity="0.0"
     inkscape:pageshadow="2"
     inkscape:zoom="8"
     inkscape:cx="41.927122"
     inkscape:cy="20.760742"
     inkscape:current-layer="layer1"
     showgrid="true"
     inkscape:document-units="px"
     inkscape:grid-bbox="true"
     inkscape:window-width="1365"
     inkscape:window-height="878"
     inkscape:window-x="-8"
     inkscape:window-y="-8"
     inkscape:window-maximized="1" />
  <metadata
     id="metadata3001">
    <rdf:RDF>
      <cc:Work
         rdf:about="">
        <dc:format>image/svg+xml</dc:format>
        <dc:type
           rdf:resource="http://purl.org/dc/dcmitype/StillImage" />
        <dc:title />
      </cc:Work>
    </rdf:RDF>
  </metadata>
  <g
     id="layer1"
     inkscape:label="Layer 1"
     inkscape:groupmode="layer">
    <path
       style="fill:#000000"
       d="m 11.283658,57.543504 c 0.976941,-5.419775 4.248858,-9.577744 11.380333,-14.462186 4.049429,-2.773507 5.688186,-3.567082 8.133266,-3.938568 5.528988,-0.840032 9.435822,-4.813575 9.343625,-9.503164 -0.04767,-2.424619 -0.236115,-2.186323 -0.763666,0.965678 -0.355707,2.125269 -2.840196,5.459196 -4.882987,6.552465 -0.626569,0.335329 -3.024659,0.799762 -5.32909,1.032073 -6.256333,0.630704 -8.612996,1.438838 -11.229693,3.850825 -1.292037,1.190957 -2.640714,2.165377 -2.997062,2.165377 -0.972393,0 -4.706093,-2.003236 -5.4866422,-2.94374 -0.5682413,-0.684689 -0.3991548,-1.034713 0.9992932,-2.068631 2.990479,-2.210956 1.545444,-4.918062 -1.6254,-3.044998 -0.8448297,0.499053 -1.6592796,0.907369 -1.8098894,0.907369 -0.5678893,0 -1.4814432,-3.552729 -1.4814432,-5.761199 0,-2.612738 0.3458725,-3.006025 6.3249996,-7.192085 2.1175,-1.482488 5.664998,-4.377462 7.883328,-6.433275 4.26913,-3.95637 7.047026,-5.661642 10.336024,-6.344995 1.874877,-0.389542 2.06241,-0.617093 2.762244,-3.3516893 0.412944,-1.613576 0.88636,-3.153104 1.052037,-3.421174 0.479639,-0.776073 4.308298,1.454855 6.205942,3.616152 1.852412,2.1097813 2.056875,3.2338473 1.169415,6.4290143 -0.502304,1.80847 -0.394069,2.261428 1.052563,4.404931 4.466974,6.618799 5.303264,15.981833 2.621946,29.35506 -0.785624,3.918343 -1.570143,8.052385 -1.743375,9.18676 l -0.314968,2.0625 -15.986287,0 -15.986289,0 0.371776,-2.0625 z m 1.400644,-27.950753 c 0,-0.573286 -0.401205,-0.804217 -1.194419,-0.6875 -1.760823,0.259097 -1.9494081,1.550753 -0.226414,1.550753 0.924279,0 1.420833,-0.30169 1.420833,-0.863253 z m 17.325001,-7.936747 c 0,-1.008 -0.330956,-1.421995 -1.239959,-1.551075 -1.351409,-0.191901 -2.118962,0.987582 -1.571344,2.414651 0.198771,0.51799 0.82759,0.793114 1.571344,0.6875 0.909003,-0.12908 1.239959,-0.543075 1.239959,-1.551076 z M 25.926451,19.87924 c 1.825055,-1.825054 3.156982,-1.918522 5.137644,-0.360533 1.920591,1.510737 2.533364,0.882646 0.868171,-0.889871 -2.151653,-2.290329 -4.388262,-1.885839 -7.822508,1.414697 -2.35825,2.266432 -2.601923,2.653999 -1.303499,2.073236 0.878326,-0.392862 2.282413,-1.399749 3.120192,-2.237529 z m 18.657852,37.598594 c 0,-1.170493 0.65289,-5.19237 1.450868,-8.937501 1.966406,-9.228887 2.080737,-18.969762 0.280024,-23.857665 -0.668313,-1.814086 -1.975432,-4.24445 -2.904708,-5.40081 -1.551105,-1.930144 -1.654685,-2.313467 -1.263706,-4.676663 0.234237,-1.415805 0.377696,-2.777239 0.318797,-3.02541 -0.247166,-1.041441 3.53382,1.767838 6.012295,4.467146 6.191763,6.743448 8.228853,14.709243 9.627339,37.646573 l 0.360486,5.9125 -6.940697,0 -6.940698,0 0,-2.12817 z"
       id="path3077"
       inkscape:connector-curvature="0" />
    <path
       style="fill:none;stroke:#000000;stroke-width:0.2;stroke-linecap:butt;stroke-linejoin:miter;stroke-miterlimit:4;stroke-opacity:1;stroke-dasharray:none"
       d="m 41.092512,59.506031 4.727271,0.005"
       id="path3079"
       inkscape:connector-curvature="0" />
    <path
       style="fill:none;stroke:#000000;stroke-width:0.2;stroke-linecap:butt;stroke-linejoin:miter;stroke-miterlimit:4;stroke-opacity:1;stroke-dasharray:none"
       d="M 43.341237,11.778264 41.414736,10.709667"
       id="path3081"
       inkscape:connector-curvature="0" />
    <path
       style="fill:#ffffff"
       d="m 27.809959,22.988506 c -0.490974,-0.213638 -0.751873,-0.882916 -0.647506,-1.661032 0.100044,-0.745881 0.550498,-1.110154 1.372798,-1.110154 0.861462,0 1.286129,0.36686 1.379059,1.191336 0.08871,0.78699 -0.135607,1.309679 -0.671102,1.563788 -0.515297,0.244525 -0.898341,0.248817 -1.433249,0.01606 l 0,0 z"
       id="path3085"
       inkscape:connector-curvature="0" />
    <path
       style="fill:#ffffff"
       d="m 22.4401,21.864649 c 0.21511,-0.244997 0.936878,-0.964304 1.603928,-1.598459 2.347262,-2.231509 3.56407,-2.937126 5.069765,-2.939914 0.723763,-0.0013 1.000635,0.05881 1.414214,0.307236 1.076193,0.64644 2.358947,2.114157 2.202972,2.520621 -0.09699,0.25275 -0.344838,0.15019 -1.477859,-0.61154 -1.281928,-0.86184 -1.892731,-1.119534 -2.653586,-1.119534 -0.888744,0 -1.472676,0.309687 -2.89271,1.534145 -1.217361,1.049698 -2.735199,2.075623 -3.339554,2.257245 -0.313907,0.09434 -0.312906,0.08953 0.07283,-0.3498 l 0,0 z"
       id="path3087"
       inkscape:connector-curvature="0" />
    <path
       style="fill:#ffffff"
       d="m 10.389706,30.124869 c -0.245902,-0.201797 -0.276859,-0.29331 -0.16309,-0.482118 0.299279,-0.496673 1.574354,-0.840836 2.090928,-0.564374 0.383779,0.205392 0.353364,0.701526 -0.06309,1.029106 -0.45301,0.356338 -1.440497,0.365545 -1.864751,0.01739 z"
       id="path3089"
       inkscape:connector-curvature="0" />
    <path
       style="fill:#ffffff;stroke-width:0.2;stroke-miterlimit:4;stroke-dasharray:none"
       d="m 43.11254,58.620508 c 0.04907,-0.395313 0.58842,-3.35427 1.19855,-6.575463 1.864802,-9.84526 2.152509,-12.122716 2.157791,-17.080787 0.0074,-6.936458 -1.108724,-11.27617 -4.134762,-16.076951 -0.908444,-1.441236 -1.281997,-2.236447 -1.281997,-2.72908 0,-0.165535 0.16875,-1.03124 0.375,-1.923789 0.20625,-0.892549 0.375,-1.937223 0.375,-2.321498 0,-0.737001 0.05679,-0.805019 0.438886,-0.525625 0.231837,0.169523 0.230995,0.217379 -0.04122,2.34375 -0.152837,1.193881 -0.276162,2.423818 -0.274057,2.733193 0.005,0.728622 0.393351,1.506299 1.498279,3 1.037914,1.403108 2.600204,4.469241 3.057185,6 0.732812,2.454715 1.160649,6.928512 1.010108,10.5625 -0.178718,4.31419 -0.575541,7.573804 -1.506526,12.375 -1.116493,5.757884 -1.315236,7.045974 -1.393452,9.03125 l -0.0751,1.90625 -0.746455,0 -0.746456,0 0.08922,-0.71875 0,0 z"
       id="path2997"
       inkscape:connector-curvature="0" />
  </g>
</svg>
