<?xml version="1.0" encoding="UTF-8" standalone="no"?>
<!-- Created with Inkscape (http://www.inkscape.org/) -->

<svg
   xmlns:dc="http://purl.org/dc/elements/1.1/"
   xmlns:cc="http://creativecommons.org/ns#"
   xmlns:rdf="http://www.w3.org/1999/02/22-rdf-syntax-ns#"
   xmlns:svg="http://www.w3.org/2000/svg"
   xmlns="http://www.w3.org/2000/svg"
   xmlns:sodipodi="http://sodipodi.sourceforge.net/DTD/sodipodi-0.dtd"
   xmlns:inkscape="http://www.inkscape.org/namespaces/inkscape"
   width="64px"
   height="64px"
   id="svg2996"
   version="1.1"
   inkscape:version="0.48.1 "
   sodipodi:docname="br.svg">
  <defs
     id="defs2998" />
  <sodipodi:namedview
     id="base"
     pagecolor="#ffffff"
     bordercolor="#666666"
     borderopacity="1.0"
     inkscape:pageopacity="0.0"
     inkscape:pageshadow="2"
     inkscape:zoom="8"
     inkscape:cx="36.70138"
     inkscape:cy="49.020455"
     inkscape:current-layer="layer1"
     showgrid="true"
     inkscape:document-units="px"
     inkscape:grid-bbox="true"
     inkscape:window-width="1365"
     inkscape:window-height="878"
     inkscape:window-x="-8"
     inkscape:window-y="-8"
     inkscape:window-maximized="1" />
  <metadata
     id="metadata3001">
    <rdf:RDF>
      <cc:Work
         rdf:about="">
        <dc:format>image/svg+xml</dc:format>
        <dc:type
           rdf:resource="http://purl.org/dc/dcmitype/StillImage" />
        <dc:title />
      </cc:Work>
    </rdf:RDF>
  </metadata>
  <g
     id="layer1"
     inkscape:label="Layer 1"
     inkscape:groupmode="layer">
    <path
       style="fill:#000000"
       d="M 7.8289196,55.2375 C 6.6576816,51.020073 7.6123886,48.307595 11.242589,45.538706 L 13.128831,44.1 l 18.87117,0 18.87117,0 1.886242,1.438706 c 3.630198,2.768889 4.584905,5.481367 3.413669,9.698794 l -0.572787,2.0625 -23.598294,0 -23.5982964,0 -0.572785,-2.0625 z M 15.773902,39.702802 c 0.710689,-1.813459 2.053548,-4.627961 2.98413,-6.25445 1.338593,-2.339615 1.691969,-3.603771 1.691969,-6.052802 l 0,-3.09555 11.55,0 11.55,0 0,3.09555 c 0,2.449031 0.353375,3.713187 1.691968,6.052802 0.930582,1.626489 2.273441,4.440991 2.98413,6.25445 L 49.518261,43 l -17.51826,0 -17.51826,0 1.292161,-3.297198 z M 18.525001,22.823736 C 16.769819,22.3713 14.993092,20.417827 14.402231,18.290841 14.101879,17.209629 13.854755,14.159375 13.853068,11.5125 l -0.0031,-4.8125 3.85,0 3.85,0 0,2.75 0,2.75 2.75,0 2.75,0 0,-2.75 0,-2.75 4.95,0 4.95,0 0,2.75 0,2.75 2.75,0 2.75,0 0,-2.75 0,-2.75 3.85,0 3.85,0 -0.0031,4.8125 c -0.0037,5.798948 -0.629124,8.305948 -2.514308,10.078341 -1.41516,1.330493 -1.455596,1.334409 -14.713336,1.425302 -7.311839,0.05013 -13.789263,-0.03646 -14.394263,-0.192407 z"
       id="path3158"
       inkscape:connector-curvature="0" />
    <path
       style="fill:none;stroke:#000000;stroke-width:0.2;stroke-linecap:butt;stroke-linejoin:miter;stroke-miterlimit:4;stroke-opacity:1;stroke-dasharray:none"
       d="M 14.87971,42.309638 13.471726,45.6531"
       id="path3160"
       inkscape:connector-curvature="0" />
    <path
       style="fill:none;stroke:#000000;stroke-width:0.2;stroke-linecap:butt;stroke-linejoin:miter;stroke-miterlimit:4;stroke-opacity:1;stroke-dasharray:none"
       d="m 49.055081,42.14816 1.28459,3.059774"
       id="path3162"
       inkscape:connector-curvature="0" />
    <path
       style="fill:none;stroke:#000000;stroke-width:0.2;stroke-linecap:butt;stroke-linejoin:miter;stroke-miterlimit:4;stroke-opacity:1;stroke-dasharray:none"
       d="m 20.549444,24.306567 0,-3"
       id="path3164"
       inkscape:connector-curvature="0" />
    <path
       style="fill:none;stroke:#000000;stroke-width:0.2;stroke-linecap:butt;stroke-linejoin:miter;stroke-miterlimit:4;stroke-opacity:1;stroke-dasharray:none"
       d="m 43.450555,24.311721 0,-2.818181"
       id="path3166"
       inkscape:connector-curvature="0" />
    <path
       style="fill:#ffffff"
       d="m 23.558072,44.016214 c 4.65473,-0.0187 12.233629,-0.0187 16.841998,7e-6 4.608369,0.01871 0.799955,0.03401 -8.463144,0.03401 -9.263099,-4e-6 -13.033583,-0.01531 -8.378854,-0.03402 z"
       id="path3168"
       inkscape:connector-curvature="0" />
    <path
       style="fill:#ffffff;stroke-width:0.2;stroke-miterlimit:4;stroke-dasharray:none"
       d="m 14.40138,43.948337 c 0,-0.07216 0.08582,-0.297164 0.19071,-0.5 l 0.19071,-0.368792 17.245113,0 17.245112,0 0.189178,0.452765 c 0.104047,0.249021 0.189177,0.474021 0.189177,0.5 0,0.02598 -7.93125,0.04724 -17.625,0.04724 -12.222565,0 -17.625,-0.04022 -17.625,-0.131208 z"
       id="path6511"
       inkscape:connector-curvature="0" />
    <path
       style="fill:#ffffff;stroke-width:0.2;stroke-miterlimit:4;stroke-dasharray:none"
       d="m 20.651529,23.610795 1.48e-4,-0.59375 11.312352,-0.0034 11.312351,-0.0034 0,0.597128 0,0.597127 -11.3125,0 -11.3125,0 1.49e-4,-0.59375 z"
       id="path6513"
       inkscape:connector-curvature="0" />
  </g>
</svg>
