<?xml version="1.0" encoding="UTF-8" standalone="no"?>
<!-- Created with Inkscape (http://www.inkscape.org/) -->

<svg
   xmlns:dc="http://purl.org/dc/elements/1.1/"
   xmlns:cc="http://creativecommons.org/ns#"
   xmlns:rdf="http://www.w3.org/1999/02/22-rdf-syntax-ns#"
   xmlns:svg="http://www.w3.org/2000/svg"
   xmlns="http://www.w3.org/2000/svg"
   xmlns:sodipodi="http://sodipodi.sourceforge.net/DTD/sodipodi-0.dtd"
   xmlns:inkscape="http://www.inkscape.org/namespaces/inkscape"
   width="64px"
   height="64px"
   id="svg2996"
   version="1.1"
   inkscape:version="0.48.1 "
   sodipodi:docname="wb.svg">
  <defs
     id="defs2998" />
  <sodipodi:namedview
     id="base"
     pagecolor="#ffffff"
     bordercolor="#666666"
     borderopacity="1.0"
     inkscape:pageopacity="0.0"
     inkscape:pageshadow="2"
     inkscape:zoom="7.7781746"
     inkscape:cx="22.538834"
     inkscape:cy="40.689171"
     inkscape:current-layer="layer1"
     showgrid="true"
     inkscape:document-units="px"
     inkscape:grid-bbox="true"
     inkscape:window-width="1365"
     inkscape:window-height="878"
     inkscape:window-x="-8"
     inkscape:window-y="-8"
     inkscape:window-maximized="1" />
  <metadata
     id="metadata3001">
    <rdf:RDF>
      <cc:Work
         rdf:about="">
        <dc:format>image/svg+xml</dc:format>
        <dc:type
           rdf:resource="http://purl.org/dc/dcmitype/StillImage" />
        <dc:title></dc:title>
      </cc:Work>
    </rdf:RDF>
  </metadata>
  <g
     id="layer1"
     inkscape:label="Layer 1"
     inkscape:groupmode="layer">
    <path
       style="fill:#000000"
       d="m 12.859999,59.640541 c -0.44652,-0.446523 -0.66,-3.003132 -0.66,-7.904104 l 0,-7.244104 L 10.253,43.183937 C 6.1724927,40.441809 3.5973553,34.78594 4.11746,29.708223 5.0089517,21.004699 14.061271,14.484824 22.15218,16.718831 c 1.626403,0.449072 2.203664,0.367437 3.2972,-0.466279 0.729091,-0.555861 1.981076,-1.157849 2.782188,-1.33775 1.415298,-0.317825 2.094254,-1.520378 2.110921,-3.738825 0.0052,-0.689066 -0.291473,-0.916182 -0.954989,-0.731141 -0.529375,0.147633 -1.519375,0.42849 -2.2,0.624127 -1.141158,0.328012 -1.2375,0.178658 -1.2375,-1.9184223 0,-2.0970807 0.09634,-2.2464343 1.2375,-1.9184226 3.589002,1.0316141 3.353923,1.1363237 2.961296,-1.3190292 L 29.787,3.6505407 l 2.213,0 2.212999,0 -0.361796,2.2625482 C 33.458576,8.3684418 33.223498,8.2637322 36.8125,7.2321181 37.953657,6.9041064 38.05,7.05346 38.05,9.1505407 c 0,2.0970803 -0.09634,2.2464343 -1.2375,1.9184223 -0.680625,-0.195637 -1.670625,-0.476494 -2.2,-0.624127 -0.663517,-0.185041 -0.960167,0.04207 -0.95499,0.731141 0.01666,2.218447 0.695623,3.421 2.110921,3.738825 0.801113,0.179901 2.053098,0.781889 2.782189,1.33775 1.093535,0.833716 1.670797,0.915351 3.297199,0.466279 8.090909,-2.234007 17.143227,4.285868 18.034722,12.989392 0.520102,5.077717 -2.055036,10.733586 -6.135541,13.475714 l -1.947,1.308396 0,7.244104 c 0,4.900972 -0.21348,7.457581 -0.66,7.904104 -0.945225,0.945225 -37.334776,0.945225 -38.280001,0 z m 36.739441,-3.0525 c -4.59e-4,-1.24212 -0.492062,-1.788554 -2.75,-3.056727 C 45.337248,52.681989 44.1,51.790859 44.1,51.551026 c 0,-0.239834 1.25394,-1.215554 2.786533,-2.168266 2.390237,-1.485853 2.761782,-1.94731 2.6125,-3.244711 L 49.325,44.625541 l -17.325,0 -17.325001,0 -0.174033,1.512508 c -0.149282,1.297401 0.222263,1.758858 2.6125,3.244711 C 18.64606,50.335472 19.9,51.311192 19.9,51.551026 c 0,0.239833 -1.237248,1.130963 -2.749441,1.980288 -2.257938,1.268173 -2.749541,1.814607 -2.75,3.056727 l -5.5e-4,1.5125 17.6,0 17.6,0 -5.5e-4,-1.5125 z M 29.122627,53.501158 c -1.431304,-0.949089 -2.60144,-1.849367 -2.600301,-2.000617 0.0012,-0.15125 1.234082,-1.060884 2.739872,-2.021411 L 32,47.73272 l 2.737801,1.74641 c 1.505791,0.960527 2.743291,1.871963 2.75,2.025416 C 37.498651,51.752702 32.691094,54.9427 32,55.145914 31.84875,55.190404 30.553932,54.450248 29.122627,53.501158 z M 31.45,36.301852 c 0,-7.821534 -0.537675,-10.268485 -2.880987,-13.111328 -4.572025,-5.54666 -12.769391,-5.958486 -18.206884,-0.914694 -5.1131303,4.742915 -5.2469717,13.428483 -0.278155,18.050673 2.825116,2.628034 4.109493,2.917067 12.978526,2.92065 l 8.3875,0.0034 0,-6.948689 z m 21.263324,4.974523 c 3.235711,-2.603621 4.847128,-5.891515 4.82795,-9.850834 C 57.484444,19.690059 42.818807,14.227817 35.430986,23.190524 33.085679,26.035788 32.55,28.48054 32.55,36.338866 l 0,6.985703 9.025822,-0.174513 9.025822,-0.174515 2.11168,-1.699166 z M 32.55,23.504918 c 0,-0.272593 1.151387,-1.630746 2.558638,-3.018118 l 2.558638,-2.522496 -1.990974,-0.831881 c -2.526033,-1.055445 -4.826571,-1.055445 -7.352605,0 l -1.990973,0.831881 2.558638,2.522496 c 1.407251,1.387372 2.558638,2.745525 2.558638,3.018118 0,0.272593 0.2475,0.495623 0.55,0.495623 0.3025,0 0.55,-0.22303 0.55,-0.495623 z"
       id="path3204"
       inkscape:connector-curvature="0" />
    <path
       style="fill:#ffffff"
       d="m 14.516386,56.96066 c 0,-1.606818 0.193182,-1.84383 2.824116,-3.464869 1.946086,-1.199073 2.575609,-1.684799 2.575609,-1.987282 0,-0.239757 -0.738701,-0.821789 -2.878339,-2.267884 -0.982046,-0.663724 -1.936641,-1.405401 -2.121321,-1.64817 -0.299646,-0.393897 -0.333242,-0.544946 -0.312179,-1.403584 0.01298,-0.529201 0.05747,-1.09714 0.09887,-1.262086 l 0.07527,-0.299901 17.222794,0 17.222794,0 0.07527,0.299901 c 0.0414,0.164946 0.08589,0.729024 0.09887,1.253508 0.03166,1.278951 -0.127102,1.479687 -2.391678,3.024089 -2.209981,1.507168 -2.920161,2.06753 -2.920161,2.304127 0,0.302483 0.629523,0.788209 2.57561,1.987282 2.630933,1.621039 2.824115,1.858051 2.824115,3.464869 l 0,1.036971 -17.484822,0 -17.484823,0 0,-1.036971 z m 18.570145,-2.32623 c 0.891544,-0.525409 3.566418,-2.313148 4.173764,-2.789514 0.194467,-0.152528 0.280126,-0.318753 0.230672,-0.447628 -0.09124,-0.237771 -5.250691,-3.68613 -5.509395,-3.682247 -0.292751,0.0044 -5.441858,3.519295 -5.483035,3.742848 -0.06899,0.374569 4.804883,3.711314 5.420997,3.711314 0.142761,0 0.66791,-0.240648 1.166997,-0.534773 z"
       id="path3206"
       inkscape:connector-curvature="0" />
    <path
       style="fill:#ffffff"
       d="M 17.694339,43.075474 C 16.649141,43.021421 15.318494,42.884031 14.737347,42.770161 11.660459,42.167275 8.6970878,39.493108 7.3737808,36.125227 6.8689965,34.840526 6.6538628,33.757239 6.5791627,32.123994 6.4368329,29.012091 7.2497984,26.326149 9.0806361,23.859425 c 0.4181317,-0.563357 1.1035159,-1.320406 1.5230749,-1.68233 3.872851,-3.340832 8.710077,-4.237429 13.132955,-2.43424 3.049664,1.243336 5.740451,4.023517 6.697525,6.920034 0.735812,2.226887 0.823036,3.228635 0.889696,10.217962 l 0.06039,6.33182 -5.894786,-0.01946 c -3.242134,-0.0107 -6.74995,-0.06368 -7.795148,-0.117737 l 0,0 z"
       id="path3208"
       inkscape:connector-curvature="0" />
    <path
       style="fill:#ffffff"
       d="m 32.678273,36.880851 c 0.06194,-6.522358 0.145082,-7.698019 0.679636,-9.610224 0.480997,-1.720625 1.317292,-3.150996 2.698075,-4.614699 3.326504,-3.526269 7.968772,-4.709064 12.58751,-3.207148 3.338853,1.085724 6.022911,3.391731 7.532934,6.471916 1.701383,3.470522 1.702381,7.71256 0.0026,11.028275 -0.902889,1.761234 -2.011573,3.024586 -4.278458,4.875328 l -1.333068,1.088347 -7.901071,0.152359 c -4.34559,0.0838 -8.384194,0.151303 -8.974677,0.150012 l -1.073607,-0.0023 0.06013,-6.33182 z"
       id="path3210"
       inkscape:connector-curvature="0" />
    <path
       style="fill:#ffffff"
       d="m 31.646154,23.778589 c -0.08756,-0.08756 -0.159205,-0.22922 -0.159205,-0.314794 0,-0.269752 -0.953547,-1.377217 -2.970177,-3.44961 -1.073707,-1.103397 -1.929427,-2.028386 -1.9016,-2.05553 0.151916,-0.14819 2.493109,-1.047149 3.256022,-1.250231 1.114179,-0.296586 3.064294,-0.314695 4.125412,-0.03831 0.900024,0.234426 3.404327,1.214457 3.404327,1.332245 0,0.04486 -0.497755,0.572039 -1.106124,1.171518 -1.722472,1.697307 -3.514947,3.714305 -3.755036,4.225388 -0.23011,0.48984 -0.618316,0.654626 -0.893619,0.379323 z"
       id="path3212"
       inkscape:connector-curvature="0" />
  </g>
</svg>
