<?xml version="1.0" encoding="UTF-8" standalone="no"?>
<!-- Created with Inkscape (http://www.inkscape.org/) -->
<svg
   xmlns:dc="http://purl.org/dc/elements/1.1/"
   xmlns:cc="http://creativecommons.org/ns#"
   xmlns:rdf="http://www.w3.org/1999/02/22-rdf-syntax-ns#"
   xmlns:svg="http://www.w3.org/2000/svg"
   xmlns="http://www.w3.org/2000/svg"
   xmlns:xlink="http://www.w3.org/1999/xlink"
   xmlns:sodipodi="http://sodipodi.sourceforge.net/DTD/sodipodi-0.dtd"
   xmlns:inkscape="http://www.inkscape.org/namespaces/inkscape"
   width="100"
   height="100"
   id="svg36220"
   sodipodi:version="0.32"
   inkscape:version="0.46"
   version="1.0"
   inkscape:export-filename="/home/maurizio/out/bn.png"
   inkscape:export-xdpi="90"
   inkscape:export-ydpi="90"
   sodipodi:docbase="/home/maurizio/out1"
   sodipodi:docname="bn.svg"
   inkscape:output_extension="org.inkscape.output.svg.inkscape">
  <defs
     id="defs36222">
    <inkscape:perspective
       sodipodi:type="inkscape:persp3d"
       inkscape:vp_x="0 : 437.5 : 1"
       inkscape:vp_y="0 : 1000 : 0"
       inkscape:vp_z="875 : 437.5 : 1"
       inkscape:persp3d-origin="437.5 : 291.66667 : 1"
       id="perspective4369" />
    <linearGradient
       id="linearGradient2672">
      <stop
         style="stop-color:#000000;stop-opacity:1"
         offset="0"
         id="stop2674" />
      <stop
         style="stop-color:#505070;stop-opacity:1"
         offset="1"
         id="stop2676" />
    </linearGradient>
    <linearGradient
       inkscape:collect="always"
       xlink:href="#linearGradient2672"
       id="linearGradient2230"
       gradientUnits="userSpaceOnUse"
       x1="705.29126"
       y1="378.28769"
       x2="787.12555"
       y2="465.62366"
       gradientTransform="matrix(0.1194703,0,0,0.1194703,-3.9210191,1.3623064)" />
    <linearGradient
       inkscape:collect="always"
       xlink:href="#linearGradient2672"
       id="linearGradient2233"
       gradientUnits="userSpaceOnUse"
       x1="667.0329"
       y1="299.32745"
       x2="739.15356"
       y2="348.42047"
       gradientTransform="matrix(0.1194703,0,0,0.1194703,-3.4431337,1.3623064)" />
    <linearGradient
       inkscape:collect="always"
       xlink:href="#linearGradient2672"
       id="linearGradient2236"
       gradientUnits="userSpaceOnUse"
       x1="598.67926"
       y1="209.76059"
       x2="705.53198"
       y2="232.28799"
       gradientTransform="matrix(0.1194703,0,0,0.1194703,-3.9210191,1.3623064)" />
    <linearGradient
       inkscape:collect="always"
       xlink:href="#linearGradient2672"
       id="linearGradient2239"
       gradientUnits="userSpaceOnUse"
       x1="493.79175"
       y1="157.9061"
       x2="625.8526"
       y2="159.48897"
       gradientTransform="matrix(0.1194703,0,0,0.1194703,-3.4431337,0.6454876)" />
    <linearGradient
       inkscape:collect="always"
       xlink:href="#linearGradient2672"
       id="linearGradient2319"
       gradientUnits="userSpaceOnUse"
       x1="265.6459"
       y1="255.9399"
       x2="753.20837"
       y2="854.32837"
       gradientTransform="matrix(0.1194703,0,0,0.1194703,-3.9210191,1.3623064)" />
  </defs>
  <sodipodi:namedview
     id="base"
     pagecolor="#ffffff"
     bordercolor="#666666"
     borderopacity="1.0"
     inkscape:pageopacity="0.0"
     inkscape:pageshadow="2"
     inkscape:zoom="2"
     inkscape:cx="85.25"
     inkscape:cy="95.033077"
     inkscape:current-layer="layer1"
     inkscape:document-units="px"
     inkscape:window-width="1009"
     inkscape:window-height="731"
     inkscape:window-x="100"
     inkscape:window-y="196"
     showgrid="false" />
  <metadata
     id="metadata36225">
    <rdf:RDF>
      <cc:Work
         rdf:about="">
        <dc:format>image/svg+xml</dc:format>
        <dc:type
           rdf:resource="http://purl.org/dc/dcmitype/StillImage" />
        <dc:creator>
          <cc:Agent>
            <dc:title>Maurizio Monge</dc:title>
          </cc:Agent>
        </dc:creator>
        <dc:rights>
          <cc:Agent>
            <dc:title>Maurizio Monge</dc:title>
          </cc:Agent>
        </dc:rights>
        <cc:license
           rdf:resource="http://creativecommons.org/licenses/GPL/2.0/" />
      </cc:Work>
      <cc:License
         rdf:about="http://creativecommons.org/licenses/GPL/2.0/">
        <cc:permits
           rdf:resource="http://web.resource.org/cc/Reproduction" />
        <cc:permits
           rdf:resource="http://web.resource.org/cc/Distribution" />
        <cc:requires
           rdf:resource="http://web.resource.org/cc/Notice" />
        <cc:permits
           rdf:resource="http://web.resource.org/cc/DerivativeWorks" />
        <cc:requires
           rdf:resource="http://web.resource.org/cc/ShareAlike" />
        <cc:requires
           rdf:resource="http://web.resource.org/cc/SourceCode" />
      </cc:License>
    </rdf:RDF>
  </metadata>
  <g
     id="layer1"
     inkscape:label="Layer 1"
     inkscape:groupmode="layer">
    <path
       style="opacity:1;fill:url(#linearGradient2319);fill-opacity:1;fill-rule:evenodd;stroke:#808080;stroke-width:1.9115243;stroke-linecap:round;stroke-linejoin:round;stroke-miterlimit:4;stroke-dasharray:none;stroke-opacity:1"
       d="M 59.229742,48.888626 C 59.255364,58.027162 48.689309,65.931359 38.267953,61.950745 C 36.671981,61.341134 22.191074,74.471617 19.870307,72.675086 C 18.039441,71.257797 21.898735,65.415054 21.618171,66.161304 C 20.282284,69.714467 14.384618,73.669303 9.6484341,68.564144 C 7.7962606,66.567669 8.3690164,60.825326 12.358508,56.147232 C 16.513298,51.275293 20.73198,43.772851 22.364955,39.445783 C 25.649468,30.742446 24.360758,30.552345 30.655166,22.659519 C 31.837652,21.176745 28.733053,15.420133 29.861434,11.662564 C 34.3186,12.457426 36.036812,16.938669 38.086409,18.819261 C 39.281187,16.053324 38.478385,8.6211511 40.602336,8.967467 C 42.726296,9.3137922 45.169404,15.752373 48.673182,18.580318 C 90.638601,31.494555 90.29556,98.649738 78.567196,98.867301 C 64.090806,99.135849 46.759377,99.075074 32.200206,98.843114 C 28.672554,98.786902 27.039525,94.223034 27.719756,91.495655 C 30.963973,78.487955 44.664599,69.383295 51.375822,64.871297 C 58.26893,60.237022 59.530996,55.682852 59.229742,48.888626 z"
       id="path9661"
       sodipodi:nodetypes="csssssssccscssssc" />
    <path
       style="fill:none;fill-opacity:0.75;fill-rule:evenodd;stroke:#808080;stroke-width:1.9115243;stroke-linecap:round;stroke-linejoin:round;stroke-miterlimit:4;stroke-dasharray:none;stroke-opacity:1"
       d="M 37.296974,36.0205 C 33.82364,35.379498 30.778123,36.388252 28.262989,38.891473"
       id="path31294"
       sodipodi:nodetypes="cs" />
    <path
       style="fill:none;fill-opacity:0.75;fill-rule:evenodd;stroke:#808080;stroke-width:1.9115243;stroke-linecap:round;stroke-linejoin:round;stroke-miterlimit:4;stroke-dasharray:none;stroke-opacity:1"
       d="M 31.697582,39.808181 C 32.945213,41.079392 34.53308,41.132403 34.794673,38.972286"
       id="path31298"
       sodipodi:nodetypes="cs" />
    <path
       style="fill:none;fill-opacity:0.75;fill-rule:evenodd;stroke:#808080;stroke-width:1.9115243;stroke-linecap:round;stroke-linejoin:round;stroke-miterlimit:4;stroke-dasharray:none;stroke-opacity:1"
       d="M 14.091652,62.804644 C 12.436415,62.232937 11.238923,64.899789 12.295038,65.008598"
       id="path31300"
       sodipodi:nodetypes="cs" />
    <path
       style="fill:none;fill-opacity:0.75;fill-rule:evenodd;stroke:#808080;stroke-width:1.9115243;stroke-linecap:round;stroke-linejoin:round;stroke-miterlimit:4;stroke-dasharray:none;stroke-opacity:1"
       d="M 33.936257,57.549718 L 35.069735,58.958331"
       id="path31308"
       sodipodi:nodetypes="cc" />
    <path
       style="fill:none;fill-opacity:0.75;fill-rule:evenodd;stroke:#808080;stroke-width:1.9115243;stroke-linecap:round;stroke-linejoin:round;stroke-miterlimit:4;stroke-dasharray:none;stroke-opacity:1"
       d="M 59.249255,44.99717 L 59.283994,42.020222"
       id="path31312"
       sodipodi:nodetypes="cc" />
    <path
       style="fill:none;fill-opacity:0.75;fill-rule:evenodd;stroke:#808080;stroke-width:1.9115243;stroke-linecap:round;stroke-linejoin:round;stroke-miterlimit:4;stroke-dasharray:none;stroke-opacity:1"
       d="M 35.011803,20.316222 L 33.803584,20.947149"
       id="path32040"
       sodipodi:nodetypes="cs" />
    <path
       style="fill:none;fill-opacity:0.75;fill-rule:evenodd;stroke:#808080;stroke-width:1.9115243;stroke-linecap:round;stroke-linejoin:round;stroke-miterlimit:4;stroke-dasharray:none;stroke-opacity:1"
       d="M 41.390482,13.891616 C 44.992782,18.923718 46.293433,19.941625 42.010112,19.219617"
       id="path32768"
       sodipodi:nodetypes="cs" />
    <path
       style="fill:url(#linearGradient2239);fill-opacity:1;fill-rule:evenodd;stroke:#808080;stroke-width:1.9115243;stroke-linecap:round;stroke-linejoin:round;stroke-miterlimit:4;stroke-dasharray:none;stroke-opacity:1"
       d="M 50.371494,16.550106 C 60.714357,19.582724 58.969869,17.393839 61.151201,20.946119 C 62.373302,22.936292 64.066702,20.267784 68.097925,20.520223 C 70.274997,20.656557 62.124304,17.268111 61.061279,15.913125 C 59.585488,14.032017 48.854054,16.105175 50.371494,16.550106 z"
       id="path1849"
       sodipodi:nodetypes="cssss" />
    <path
       style="fill:url(#linearGradient2236);fill-opacity:1;fill-rule:evenodd;stroke:#808080;stroke-width:1.9115243;stroke-linecap:round;stroke-linejoin:round;stroke-miterlimit:4;stroke-dasharray:none;stroke-opacity:1"
       d="M 65.318133,24.745355 C 68.566785,27.215115 70.946349,24.706576 70.818019,28.992024 C 70.72991,31.934518 74.701526,29.968549 76.630262,31.195978 C 78.407143,32.32676 80.189369,27.76535 79.059166,27.76535 C 77.358792,27.76535 74.471498,28.563083 74.993902,26.642976 C 76.140601,22.428305 64.385059,24.035988 65.318133,24.745355 z"
       id="path1851"
       sodipodi:nodetypes="csssss" />
    <path
       style="fill:url(#linearGradient2233);fill-opacity:1;fill-rule:evenodd;stroke:#808080;stroke-width:1.9115243;stroke-linecap:round;stroke-linejoin:round;stroke-miterlimit:4;stroke-dasharray:none;stroke-opacity:1"
       d="M 74.873382,34.063217 C 75.505727,34.28444 78.949787,36.616255 78.790323,37.725133 C 77.967805,43.444512 82.185154,43.073779 84.000123,43.678385 C 86.54342,44.525605 83.881609,41.489234 82.598317,39.928102 C 81.315017,38.366972 83.475235,37.667992 83.323996,36.677785 C 82.791969,33.194515 74.54325,33.94772 74.873382,34.063217 z"
       id="path1853"
       sodipodi:nodetypes="csssss" />
    <path
       style="fill:url(#linearGradient2230);fill-opacity:1;fill-rule:evenodd;stroke:#808080;stroke-width:1.9115243;stroke-linecap:round;stroke-linejoin:round;stroke-miterlimit:4;stroke-dasharray:none;stroke-opacity:1"
       d="M 80.949428,46.121539 C 81.553721,47.175236 82.970651,48.368669 83.419796,50.021627 C 83.868958,51.674592 84.038046,53.148268 84.936353,54.923667 C 85.83466,56.699076 89.449013,56.46764 91.007586,55.94657 C 93.107627,55.244481 85.930552,53.064125 87.547684,49.739913 C 88.571194,47.635953 80.623315,45.552887 80.949428,46.121539 z"
       id="path1855"
       sodipodi:nodetypes="csssss" />
    <path
       style="fill:none;fill-opacity:0.75;fill-rule:evenodd;stroke:#808080;stroke-width:1.9115243;stroke-linecap:round;stroke-linejoin:round;stroke-miterlimit:4;stroke-dasharray:none;stroke-opacity:1"
       d="M 48.424533,88.038144 L 45.344609,95.384647"
       id="path2732" />
  </g>
</svg>
