<?xml version="1.0" encoding="UTF-8" standalone="no"?>
<!-- Created with Inkscape (http://www.inkscape.org/) -->

<svg
   xmlns:svg="http://www.w3.org/2000/svg"
   xmlns="http://www.w3.org/2000/svg"
   xmlns:xlink="http://www.w3.org/1999/xlink"
   version="1.1"
   width="45"
   height="45"
   viewBox="0 0 45 45"
   id="Layer_1"
   xml:space="preserve"><defs
   id="defs2854"><linearGradient
     id="linearGradient3916"><stop
       id="stop3918"
       style="stop-color:#000000;stop-opacity:1"
       offset="0" /><stop
       id="stop3920"
       style="stop-color:#ff0101;stop-opacity:0"
       offset="1" /></linearGradient><linearGradient
     id="linearGradient3832"><stop
       id="stop3834"
       style="stop-color:#ffffff;stop-opacity:1"
       offset="0" /><stop
       id="stop3836"
       style="stop-color:#ff0101;stop-opacity:0"
       offset="1" /></linearGradient><radialGradient
     cx="25.665983"
     cy="13.75"
     r="7.4692621"
     fx="25.665983"
     fy="13.75"
     id="radialGradient3838-8"
     xlink:href="#linearGradient3832-6"
     gradientUnits="userSpaceOnUse"
     gradientTransform="matrix(1,0,0,1.1714678,0,-2.3576821)" /><linearGradient
     id="linearGradient3832-6"><stop
       id="stop3834-6"
       style="stop-color:#ffffff;stop-opacity:1"
       offset="0" /><stop
       id="stop3836-3"
       style="stop-color:#ff0101;stop-opacity:0"
       offset="1" /></linearGradient><radialGradient
     cx="25.665983"
     cy="13.75"
     r="7.4692621"
     fx="25.665983"
     fy="13.75"
     id="radialGradient3857"
     xlink:href="#linearGradient3832-6"
     gradientUnits="userSpaceOnUse"
     gradientTransform="matrix(1,0,0,1.1714678,0,-2.3576821)" /><radialGradient
     cx="25.665983"
     cy="13.75"
     r="7.4692621"
     fx="25.665983"
     fy="13.75"
     id="radialGradient3857-9"
     xlink:href="#linearGradient3832-6-6"
     gradientUnits="userSpaceOnUse"
     gradientTransform="matrix(1,0,0,1.1714678,0,-2.3576821)" /><linearGradient
     id="linearGradient3832-6-6"><stop
       id="stop3834-6-4"
       style="stop-color:#ffffff;stop-opacity:1"
       offset="0" /><stop
       id="stop3836-3-6"
       style="stop-color:#ff0101;stop-opacity:0"
       offset="1" /></linearGradient><radialGradient
     cx="25.665983"
     cy="13.75"
     r="7.4692621"
     fx="25.665983"
     fy="13.75"
     id="radialGradient3895"
     xlink:href="#linearGradient3916"
     gradientUnits="userSpaceOnUse"
     gradientTransform="matrix(1,0,0,1.1714678,0,-2.3576821)" /><clipPath
     id="clipPath3946"><path
       d="m 43.779377,19.608178 c -0.02503,-1.402989 -2.372077,-2.794224 -5.260361,-3.109385 -0.248822,-0.02715 -0.502055,-0.03938 -0.741321,-0.0492 -0.161055,-0.0066 -0.323427,-0.01096 -0.47929,-0.01004 -1.897043,-0.04527 -4.683697,-0.06751 -7.522589,-1.739922 -3.521454,-2.074511 -5.251964,-1.418209 -5.236855,-0.57143 l 0.06081,3.408284 0.06006,3.365945 c 0.01511,0.846779 1.775836,1.884034 5.236855,0.57143 2.790171,-1.058182 5.586902,-0.471184 7.489727,-0.101822 0.156504,0.03501 0.319354,0.06614 0.480801,0.09472 0.239849,0.04246 0.493633,0.08556 0.742454,0.112707 2.888284,0.315161 5.194741,-0.568298 5.169708,-1.971287 z"
       id="path3948"
       style="opacity:0.9;fill:#ff0101;fill-opacity:1;stroke:none" /></clipPath><clipPath
     id="clipPath3950"><path
       d="M 50.771691,1.1000234 C 46.598527,-0.28505799 37.353216,0.16087067 30.076129,2.1082306 29.449217,2.2759932 28.856393,2.4621484 28.301381,2.6397807 27.927789,2.7593487 27.55791,2.8822022 27.217833,3.0052388 22.912916,4.4462047 16.719119,6.6072133 5.5668061,7.1569781 -8.266887,7.8389243 -10.14628,9.8518382 -7.6275526,10.687809 L 2.510323,14.05259 12.522262,17.375573 c 2.518727,0.83597 9.435573,0.494997 13.194359,-3.530831 3.03022,-3.245503 10.90387,-4.8489657 16.172797,-5.969975 0.446939,-0.087569 0.896459,-0.1839895 1.335419,-0.2818614 0.652127,-0.1453994 1.336742,-0.3010892 1.963654,-0.4688518 7.277087,-1.9473599 9.756364,-4.6389491 5.5832,-6.0240304 z"
       id="path3952"
       style="opacity:0.9;fill:#ff0101;fill-opacity:1;stroke:none" /></clipPath><radialGradient
     cx="25.665983"
     cy="13.75"
     r="7.4692621"
     fx="25.665983"
     fy="13.75"
     id="radialGradient4201"
     xlink:href="#linearGradient3832"
     gradientUnits="userSpaceOnUse"
     gradientTransform="matrix(1,0,0,1.1714678,0,-2.3576821)" /><radialGradient
     cx="15.891394"
     cy="16.25"
     r="23.391394"
     fx="15.891394"
     fy="16.25"
     id="radialGradient8030"
     xlink:href="#linearGradient3916"
     gradientUnits="userSpaceOnUse"
     gradientTransform="matrix(1,0,0,0.16031537,0,13.644875)" /><clipPath
     id="clipPath8032"><path
       d="m 21.782787,16.25 c -4.905533,0 -12.4999997,0 -12.4999997,0 0,0 -0.02888,-0.02888 2.4999997,2.5 2.5,2.5 2.930736,8.875258 -1.8430027,13.648997 -5.9215017,5.921502 -2.9607509,8.882253 0,8.882253 l 11.9170217,0 11.768984,0 c 2.960751,0 5.921502,-2.960751 0,-8.882253 C 28.852051,27.625258 29.282787,21.25 31.782787,18.75 c 2.5,-2.5 2.5,-2.5 2.5,-2.5 0,0 -7.594467,0 -12.5,0 z"
       id="path8034"
       style="opacity:0.9;fill:#ff0101;fill-opacity:1;stroke:none" /></clipPath><radialGradient
     cx="25"
     cy="4.5696721"
     r="2.5"
     fx="25"
     fy="4.5696721"
     id="radialGradient8076"
     xlink:href="#linearGradient3832-6-6"
     gradientUnits="userSpaceOnUse"
     gradientTransform="matrix(1,0,0,0.82786884,0,0.78658295)" /><radialGradient
     cx="25"
     cy="4.5696721"
     r="2.5"
     fx="25"
     fy="4.5696721"
     id="radialGradient8076-1"
     xlink:href="#linearGradient3832-6-6-6"
     gradientUnits="userSpaceOnUse"
     gradientTransform="matrix(1,0,0,0.82786884,0,0.78658295)" /><linearGradient
     id="linearGradient3832-6-6-6"><stop
       id="stop3834-6-4-7"
       style="stop-color:#ffffff;stop-opacity:1"
       offset="0" /><stop
       id="stop3836-3-6-2"
       style="stop-color:#ff0101;stop-opacity:0"
       offset="1" /></linearGradient><radialGradient
     cx="25"
     cy="4.5696721"
     r="2.5"
     fx="25"
     fy="4.5696721"
     id="radialGradient8095"
     xlink:href="#linearGradient3832-6-6-6"
     gradientUnits="userSpaceOnUse"
     gradientTransform="matrix(1,0,0,0.82786884,0,0.78658295)" /><clipPath
     id="clipPath8190"><path
       d="m 19.875,3.7500003 a 1.250125,1.250125 0 0 0 -1.09375,0.9375 l -0.40625,1.5625 -3.375,0 a 1.250125,1.250125 0 0 0 -1.25,1.25 L 13.75,12.5 A 1.250125,1.250125 0 0 0 15,13.75 l 1.53125,0 -0.21875,0.90625 A 1.250125,1.250125 0 0 0 16.28125,15 L 10,15 l 2.5,2.5 c 2.5,2.5 2.929989,8.882511 -1.84375,13.65625 -5.921502,5.921502 -2.960752,8.875 0,8.875 l 11.90625,0 11.78125,0 c 2.960751,0 5.921502,-2.953498 0,-8.875 C 29.570011,26.382511 30,20 32.5,17.5 L 35,15 28.75,15 A 1.250125,1.250125 0 0 0 28.71875,14.6875 L 28.5,13.75 l 1.5,0 a 1.250125,1.250125 0 0 0 1.25,-1.25 l 0,-4.9999997 a 1.250125,1.250125 0 0 0 -1.25,-1.25 l -3.375,0 -0.40625,-1.5625 A 1.250125,1.250125 0 0 0 25,3.7500003 l -5,0 a 1.250125,1.250125 0 0 0 -0.125,0 z"
       id="path8192"
       style="opacity:0.9;fill:#ff0101;fill-opacity:1;stroke:none" /></clipPath><clipPath
     id="clipPath8194"><path
       d="m 27.5,4.5696721 a 2.5,2.0696721 0 1 1 -5,0 2.5,2.0696721 0 1 1 5,0 z"
       transform="translate(5,2.5)"
       id="path8196"
       style="opacity:0.56326533;fill:url(#radialGradient8198);fill-opacity:1;stroke:none" /></clipPath><radialGradient
     cx="25"
     cy="4.5696721"
     r="2.5"
     fx="25"
     fy="4.5696721"
     id="radialGradient8198"
     xlink:href="#linearGradient3832-6-6-6"
     gradientUnits="userSpaceOnUse"
     gradientTransform="matrix(1,0,0,0.82786884,0,0.78658295)" /><radialGradient
     cx="30"
     cy="7.0696721"
     r="2.5"
     fx="30"
     fy="7.0696721"
     id="radialGradient8206"
     xlink:href="#linearGradient3832-6-6-6"
     gradientUnits="userSpaceOnUse"
     gradientTransform="matrix(1,0,0,0.82786884,0,1.2169108)" /></defs>
<linearGradient
   x1="588.83112"
   y1="770.75"
   x2="590.17078"
   y2="765.75012"
   id="SVGID_1_"
   gradientUnits="userSpaceOnUse"
   gradientTransform="translate(-567,-747)">
	<stop
   id="stop2818"
   style="stop-color:#ff8080;stop-opacity:0.5"
   offset="0" />
	<stop
   id="stop2820"
   style="stop-color:#804040;stop-opacity:0.5"
   offset="1" />
</linearGradient>

<linearGradient
   x1="586.99902"
   y1="-729.07959"
   x2="591.99902"
   y2="-720.41931"
   id="SVGID_2_"
   gradientUnits="userSpaceOnUse"
   gradientTransform="matrix(1,0,0,-1,-567,-703.5)">
	<stop
   id="stop2825"
   style="stop-color:#ff8080;stop-opacity:0.5"
   offset="0" />
	<stop
   id="stop2827"
   style="stop-color:#ffc0c0;stop-opacity:0.5"
   offset="1" />
</linearGradient>

<linearGradient
   x1="585.08588"
   y1="790.22461"
   x2="596.4137"
   y2="770.60437"
   id="SVGID_3_"
   gradientUnits="userSpaceOnUse"
   gradientTransform="translate(-567,-747)">
	<stop
   id="stop2832"
   style="stop-color:#ff8080;stop-opacity:0.5"
   offset="0" />
	<stop
   id="stop2834"
   style="stop-color:#ffc0c0;stop-opacity:0.5"
   offset="1" />
</linearGradient>

<linearGradient
   x1="588.52832"
   y1="768.60352"
   x2="590.76111"
   y2="764.73621"
   id="SVGID_4_"
   gradientUnits="userSpaceOnUse"
   gradientTransform="translate(-567,-747)">
	<stop
   id="stop2839"
   style="stop-color:#ff8080;stop-opacity:0.5"
   offset="0" />
	<stop
   id="stop2841"
   style="stop-color:#ffc0c0;stop-opacity:0.5"
   offset="1" />
</linearGradient>

<linearGradient
   x1="586.75098"
   y1="766.75983"
   x2="591.99957"
   y2="757.66888"
   id="SVGID_5_"
   gradientUnits="userSpaceOnUse"
   gradientTransform="translate(-567,-747)">
	<stop
   id="stop2846"
   style="stop-color:#804040;stop-opacity:0.5"
   offset="0" />
	<stop
   id="stop2848"
   style="stop-color:#ffc0c0;stop-opacity:0.5"
   offset="1" />
</linearGradient>

<path
   d="M 19.875,3.75 A 1.250125,1.250125 0 0 0 18.78125,4.6875 L 18.375,6.25 15,6.25 A 1.250125,1.250125 0 0 0 13.75,7.5 l 0,5 A 1.250125,1.250125 0 0 0 15,13.75 l 1.53125,0 -0.21875,0.90625 A 1.250125,1.250125 0 0 0 16.28125,15 L 10,15 l 2.5,2.5 c 2.5,2.5 2.929989,8.882511 -1.84375,13.65625 -5.9215021,5.921502 -2.9607513,8.875 0,8.875 l 11.90625,0 11.78125,0 c 2.960751,0 5.921502,-2.953498 0,-8.875 C 29.570011,26.382511 30,20 32.5,17.5 L 35,15 28.75,15 A 1.250125,1.250125 0 0 0 28.71875,14.6875 L 28.5,13.75 l 1.5,0 a 1.250125,1.250125 0 0 0 1.25,-1.25 l 0,-5 A 1.250125,1.250125 0 0 0 30,6.25 l -3.375,0 -0.40625,-1.5625 A 1.250125,1.250125 0 0 0 25,3.75 l -5,0 a 1.250125,1.250125 0 0 0 -0.125,0 z"
   id="path3779"
   style="opacity:0.9;fill:#ff0101;fill-opacity:1;stroke:none" /><path
   d="m 33.135245,13.75 a 7.4692621,8.75 0 1 1 -14.938524,0 7.4692621,8.75 0 1 1 14.938524,0 z"
   transform="matrix(0.52470796,-0.37269448,1.9607807,1.1229052,-6.297215,25.187107)"
   clip-path="url(#clipPath3950)"
   id="path3830-5"
   style="opacity:0.61632649;fill:url(#radialGradient3857);fill-opacity:1;stroke:none" /><path
   d="m 33.135245,13.75 a 7.4692621,8.75 0 1 1 -14.938524,0 7.4692621,8.75 0 1 1 14.938524,0 z"
   transform="matrix(-0.38227065,-1.6994131,3.5033082,0.03032221,-29.457921,81.304684)"
   clip-path="url(#clipPath3946)"
   id="path3830-5-4"
   style="opacity:0.26938776;fill:url(#radialGradient3895);fill-opacity:1;stroke:none" /><path
   d="m 39.282787,16.25 a 23.391394,3.75 0 1 1 -46.782787,0 23.391394,3.75 0 1 1 46.782787,0 z"
   transform="translate(0.71721268,-1.25)"
   clip-path="url(#clipPath8032)"
   id="path8022"
   style="opacity:0.26122448;fill:url(#radialGradient8030);fill-opacity:1;stroke:none" /><path
   d="m 19.875,3.7500003 a 1.250125,1.250125 0 0 0 -1.09375,0.9375 l -0.40625,1.5625 -3.375,0 a 1.250125,1.250125 0 0 0 -1.25,1.25 L 13.75,12.5 A 1.250125,1.250125 0 0 0 15,13.75 l 1.53125,0 -0.21875,0.90625 A 1.250125,1.250125 0 0 0 16.28125,15 L 10,15 l 2.5,2.5 c 2.5,2.5 2.929989,8.882511 -1.84375,13.65625 -5.921502,5.921502 -2.960752,8.875 0,8.875 l 11.90625,0 11.78125,0 c 2.960751,0 5.921502,-2.953498 0,-8.875 C 29.570011,26.382511 30,20 32.5,17.5 L 35,15 28.75,15 A 1.250125,1.250125 0 0 0 28.71875,14.6875 L 28.5,13.75 l 1.5,0 a 1.250125,1.250125 0 0 0 1.25,-1.25 l 0,-4.9999997 a 1.250125,1.250125 0 0 0 -1.25,-1.25 l -3.375,0 -0.40625,-1.5625 A 1.250125,1.250125 0 0 0 25,3.7500003 l -5,0 a 1.250125,1.250125 0 0 0 -0.125,0 z"
   clip-path="url(#clipPath8194)"
   id="path3779-6"
   style="opacity:0.55510206;fill:url(#radialGradient8206);fill-opacity:1;stroke:none" /><path
   d="m 27.5,4.5696721 a 2.5,2.0696721 0 1 1 -5,0 2.5,2.0696721 0 1 1 5,0 z"
   clip-path="url(#clipPath8190)"
   id="path8068"
   style="opacity:0.60408164;fill:url(#radialGradient8076);fill-opacity:1;stroke:none" /></svg>