<?xml version="1.0" encoding="UTF-8" standalone="no"?>
<!-- Created with Inkscape (http://www.inkscape.org/) -->

<svg
   xmlns:svg="http://www.w3.org/2000/svg"
   xmlns="http://www.w3.org/2000/svg"
   xmlns:xlink="http://www.w3.org/1999/xlink"
   version="1.1"
   width="45"
   height="45"
   viewBox="0 0 45 45"
   id="Layer_1"
   xml:space="preserve"><defs
   id="defs2854"><linearGradient
     id="linearGradient13649"><stop
       id="stop13651"
       style="stop-color:#000000;stop-opacity:1"
       offset="0" /><stop
       id="stop13653"
       style="stop-color:#ffffff;stop-opacity:1"
       offset="1" /></linearGradient><linearGradient
     id="linearGradient3916"><stop
       id="stop3918"
       style="stop-color:#000000;stop-opacity:1"
       offset="0" /><stop
       id="stop3920"
       style="stop-color:#ff0101;stop-opacity:0"
       offset="1" /></linearGradient><linearGradient
     id="linearGradient3832"><stop
       id="stop3834"
       style="stop-color:#ffffff;stop-opacity:1"
       offset="0" /><stop
       id="stop3836"
       style="stop-color:#ff0101;stop-opacity:0"
       offset="1" /></linearGradient><radialGradient
     cx="25.665983"
     cy="13.75"
     r="7.4692621"
     fx="25.665983"
     fy="13.75"
     id="radialGradient3838"
     xlink:href="#linearGradient3832"
     gradientUnits="userSpaceOnUse"
     gradientTransform="matrix(1,0,0,1.1714678,0,-2.3576821)" /><radialGradient
     cx="25.665983"
     cy="13.75"
     r="7.4692621"
     fx="25.665983"
     fy="13.75"
     id="radialGradient3838-8"
     xlink:href="#linearGradient3832-6"
     gradientUnits="userSpaceOnUse"
     gradientTransform="matrix(1,0,0,1.1714678,0,-2.3576821)" /><linearGradient
     id="linearGradient3832-6"><stop
       id="stop3834-6"
       style="stop-color:#ffffff;stop-opacity:1"
       offset="0" /><stop
       id="stop3836-3"
       style="stop-color:#ff0101;stop-opacity:0"
       offset="1" /></linearGradient><radialGradient
     cx="25.665983"
     cy="13.75"
     r="7.4692621"
     fx="25.665983"
     fy="13.75"
     id="radialGradient3857"
     xlink:href="#linearGradient3832-6"
     gradientUnits="userSpaceOnUse"
     gradientTransform="matrix(0.60628802,-0.21595011,1.8526737,1.8905481,-7.4544214,10.568995)" /><radialGradient
     cx="25.665983"
     cy="13.75"
     r="7.4692621"
     fx="25.665983"
     fy="13.75"
     id="radialGradient3857-9"
     xlink:href="#linearGradient3832-6-6"
     gradientUnits="userSpaceOnUse"
     gradientTransform="matrix(1,0,0,1.1714678,0,-2.3576821)" /><linearGradient
     id="linearGradient3832-6-6"><stop
       id="stop3834-6-4"
       style="stop-color:#ffffff;stop-opacity:1"
       offset="0" /><stop
       id="stop3836-3-6"
       style="stop-color:#000000;stop-opacity:1"
       offset="1" /></linearGradient><radialGradient
     cx="25.665983"
     cy="13.75"
     r="7.4692621"
     fx="25.665983"
     fy="13.75"
     id="radialGradient3895"
     xlink:href="#linearGradient3916"
     gradientUnits="userSpaceOnUse"
     gradientTransform="matrix(1,0,0,1.1714678,0,-2.3576821)" /><clipPath
     id="clipPath3946"><path
       d="m 43.779377,19.608178 c -0.02503,-1.402989 -2.372077,-2.794224 -5.260361,-3.109385 -0.248822,-0.02715 -0.502055,-0.03938 -0.741321,-0.0492 -0.161055,-0.0066 -0.323427,-0.01096 -0.47929,-0.01004 -1.897043,-0.04527 -4.683697,-0.06751 -7.522589,-1.739922 -3.521454,-2.074511 -5.251964,-1.418209 -5.236855,-0.57143 l 0.06081,3.408284 0.06006,3.365945 c 0.01511,0.846779 1.775836,1.884034 5.236855,0.57143 2.790171,-1.058182 5.586902,-0.471184 7.489727,-0.101822 0.156504,0.03501 0.319354,0.06614 0.480801,0.09472 0.239849,0.04246 0.493633,0.08556 0.742454,0.112707 2.888284,0.315161 5.194741,-0.568298 5.169708,-1.971287 z"
       id="path3948"
       style="opacity:0.9;fill:#ff0101;fill-opacity:1;stroke:none" /></clipPath><clipPath
     id="clipPath3954"><path
       d="M 28.538377,8.5566628 C 26.217511,5.4256369 21.926431,4.6735844 18.935245,6.8907945 18.677558,7.0818043 18.440542,7.3108462 18.219455,7.5311753 18.070635,7.6794831 17.924378,7.8341895 17.792345,7.994172 16.092783,9.8143058 13.668747,12.587544 8.4954284,11.701231 2.0782748,10.601819 1.6712308,13.831595 3.071998,15.721337 l 5.6380855,7.606208 5.5680465,7.511721 c 1.400767,1.889741 4.609344,2.439447 5.423431,-4.020106 0.656293,-5.2075 4.014563,-6.720385 6.250249,-7.817245 0.191464,-0.07981 0.382013,-0.174761 0.567187,-0.274024 0.275097,-0.147465 0.563161,-0.307639 0.820848,-0.498649 2.991186,-2.21721 3.519399,-6.541553 1.198532,-9.6725792 z"
       id="path3956"
       style="opacity:0.9;fill:#ff0101;fill-opacity:1;stroke:none" /></clipPath><radialGradient
     cx="28.476587"
     cy="18.155006"
     r="11.523413"
     fx="28.476587"
     fy="18.155006"
     id="radialGradient13502"
     xlink:href="#linearGradient3916"
     gradientUnits="userSpaceOnUse"
     gradientTransform="matrix(1,0,0,0.1601083,0,15.248239)" /><radialGradient
     cx="28.476587"
     cy="18.155006"
     r="11.523413"
     fx="28.476587"
     fy="18.155006"
     id="radialGradient13502-8"
     xlink:href="#linearGradient3916-7"
     gradientUnits="userSpaceOnUse"
     gradientTransform="matrix(1,0,0,0.1601083,0,15.248239)" /><linearGradient
     id="linearGradient3916-7"><stop
       id="stop3918-4"
       style="stop-color:#000000;stop-opacity:1"
       offset="0" /><stop
       id="stop3920-7"
       style="stop-color:#ff0101;stop-opacity:0"
       offset="1" /></linearGradient><radialGradient
     cx="28.476587"
     cy="18.155006"
     r="11.523413"
     fx="28.476587"
     fy="18.155006"
     id="radialGradient13521"
     xlink:href="#linearGradient3832-6-6"
     gradientUnits="userSpaceOnUse"
     gradientTransform="matrix(1,0,0,0.1601083,0,15.248239)" /><clipPath
     id="clipPath13573"><path
       d="m 10,17.239182 c -1.385,0 -2.5,1.115 -2.5,2.5 l 0,5 c 0.150212,3.29079 3.250616,1.218804 3.875,3.40625 0.512591,1.972806 1.554989,7.976261 -3.21875,12.75 -5.921502,5.921502 -2.960751,8.875 0,8.875 l 11.90625,0 11.78125,0 c 2.960751,0 5.921502,-2.953498 0,-8.875 -4.773739,-4.773739 -3.533452,-11.006305 -3.21875,-12.75 0.722743,-1.818122 3.875,-0.662636 3.875,-3.40625 l 0,-5 c 0,-1.385 -1.115,-2.5 -2.5,-2.5 l -10,0 -10,0 z"
       id="path13575"
       style="opacity:0.9;fill:#ff0101;fill-opacity:1;stroke:none" /></clipPath><clipPath
     id="clipPath13577"><path
       d="m 24.453175,8.1550064 c -1.385,0 -2.5,1.115 -2.5,2.4999996 l 0,5 c 0.150212,3.29079 3.250616,1.218804 3.875,3.40625 0.512591,1.972806 1.554989,7.976261 -3.21875,12.75 -5.921503,5.921502 -2.960751,8.875 0,8.875 l 11.90625,0 11.78125,0 c 2.960751,0 5.921502,-2.953498 0,-8.875 -4.773739,-4.773739 -3.533452,-11.006305 -3.21875,-12.75 0.722743,-1.818122 3.875,-0.662636 3.875,-3.40625 l 0,-5 c 0,-1.3849996 -1.115,-2.4999996 -2.5,-2.4999996 l -10,0 -10,0 z"
       id="path13579"
       style="opacity:0.9;fill:#ff0101;fill-opacity:1;stroke:none" /></clipPath><linearGradient
     x1="-5.5000777"
     y1="13.749125"
     x2="-4.4999223"
     y2="13.749125"
     id="linearGradient13655"
     xlink:href="#linearGradient13649"
     gradientUnits="userSpaceOnUse"
     gradientTransform="matrix(0.7093304,-0.70487615,0.70487615,0.7093304,11.143225,2.2347529)" /><linearGradient
     x1="-5.5000777"
     y1="13.749125"
     x2="-4.4999223"
     y2="13.749125"
     id="linearGradient13655-8"
     xlink:href="#linearGradient13649-3"
     gradientUnits="userSpaceOnUse"
     gradientTransform="matrix(0.7093304,-0.70487615,0.70487615,0.7093304,11.143225,2.2347529)" /><linearGradient
     id="linearGradient13649-3"><stop
       id="stop13651-6"
       style="stop-color:#000000;stop-opacity:1"
       offset="0" /><stop
       id="stop13653-4"
       style="stop-color:#ffffff;stop-opacity:1"
       offset="1" /></linearGradient><linearGradient
     x1="-5.5000777"
     y1="13.749125"
     x2="-4.4999223"
     y2="13.749125"
     id="linearGradient13674"
     xlink:href="#linearGradient13649-3"
     gradientUnits="userSpaceOnUse"
     gradientTransform="matrix(0.7093304,-0.70487615,0.70487615,0.7093304,11.565987,6.209899)" /><linearGradient
     x1="-5.5000777"
     y1="13.749125"
     x2="-4.4999223"
     y2="13.749125"
     id="linearGradient13655-0"
     xlink:href="#linearGradient13649-2"
     gradientUnits="userSpaceOnUse"
     gradientTransform="matrix(0.7093304,-0.70487615,0.70487615,0.7093304,11.143225,2.2347529)" /><linearGradient
     id="linearGradient13649-2"><stop
       id="stop13651-5"
       style="stop-color:#000000;stop-opacity:1"
       offset="0" /><stop
       id="stop13653-9"
       style="stop-color:#ffffff;stop-opacity:1"
       offset="1" /></linearGradient><linearGradient
     x1="-5.5000777"
     y1="13.749125"
     x2="-4.4999223"
     y2="13.749125"
     id="linearGradient13674-9"
     xlink:href="#linearGradient13649-2"
     gradientUnits="userSpaceOnUse"
     gradientTransform="matrix(0.7093304,-0.70487615,0.70487615,0.7093304,11.916828,9.670898)" /><linearGradient
     x1="-2.5"
     y1="6.25"
     x2="0"
     y2="6.25"
     id="linearGradient13722"
     xlink:href="#linearGradient13649-3"
     gradientUnits="userSpaceOnUse" /><radialGradient
     cx="30.030737"
     cy="9.0676231"
     r="6.3012295"
     fx="30.030737"
     fy="9.0676231"
     id="radialGradient13734"
     xlink:href="#linearGradient3832-6"
     gradientUnits="userSpaceOnUse"
     gradientTransform="matrix(1,0,0,0.69756095,0,2.7424034)" /><clipPath
     id="clipPath13767"><path
       d="m 22.895007,20.037259 c 0.684624,4.796288 2.920667,10.090944 1.355054,16.018927 -1.942038,7.353263 -0.161212,9.34992 1.215207,8.513412 l 5.535079,-3.363905 5.476967,-3.328588 c 1.376419,-0.836508 2.348431,-4.506183 -1.215208,-8.513412 -2.872899,-3.230508 -6.937478,-7.911033 -6.681382,-9.02215 0.256097,-1.111117 2.121777,1.569724 2.857551,2.322151 0.851669,0.870944 1.590641,-2.419326 1.096814,-5.878944 -0.140855,-0.986789 -0.342312,-2.398144 -0.684624,-4.796288 -0.342312,-2.3981444 -0.684624,-4.7962887 -3.009067,-3.3836254 -0.421607,0.2562291 -2.345608,1.4255274 -4.648884,2.8253264 -2.324442,1.412663 -1.962836,3.945982 -1.297507,8.607096 z"
       id="path13769"
       style="opacity:0.9;fill:#ff0101;fill-opacity:1;stroke:none" /></clipPath><clipPath
     id="clipPath13771"><path
       d="m 12.5,15 c 0,5 2.929989,11.382511 -1.84375,16.15625 -5.9215021,5.921502 -2.9607521,8.875 0,8.875 l 11.90625,0 11.78125,0 c 2.960751,0 5.921502,-2.953498 0,-8.875 -4.773739,-4.773739 -11.496548,-11.633145 -10.675717,-12.549693 0.820831,-0.916547 3.756233,2.742728 5,3.893443 C 30.10771,23.831967 32.5,21.106557 32.5,17.5 c 0,-1.028701 0,-2.5 0,-5 0,-2.5000002 0,-5.0000002 -5,-5.0000002 -0.906901,0 -5.04553,0 -10,0 -5,0 -5,2.6409162 -5,7.5000002 z"
       id="path13773"
       style="opacity:0.9;fill:#ff0101;fill-opacity:1;stroke:none" /></clipPath><radialGradient
     cx="19.538935"
     cy="5.5635247"
     r="2.0389345"
     fx="19.538935"
     fy="5.5635247"
     id="radialGradient13786"
     xlink:href="#linearGradient3832-6"
     gradientUnits="userSpaceOnUse"
     gradientTransform="matrix(1,0,0,0.94974872,0,0.27957426)" /><clipPath
     id="clipPath13810"><path
       d="m 18.772541,5.0000001 c -1.312808,0 -2.375,1.1192881 -2.375,2.5 l -0.125,0 c -5,0 -5,2.6409159 -5,7.4999999 0,5 2.929989,11.382511 -1.8437497,16.15625 -5.9215021,5.921502 -2.9607513,8.875 0,8.875 l 11.9062497,0 11.78125,0 c 2.960751,0 5.921502,-2.953498 0,-8.875 -4.773739,-4.773739 -11.508331,-11.645952 -10.6875,-12.5625 0.820831,-0.916547 3.756233,2.755535 5,3.90625 1.439677,1.331967 3.84375,-1.393443 3.84375,-5 l 0,-5 c 0,-2.5 0,-4.9999999 -5,-4.9999999 l -5.125,0 c 0,-1.3807119 -1.062192,-2.5 -2.375,-2.5 z"
       id="path13812"
       style="opacity:0.9;fill:#ff0101;fill-opacity:1;stroke:none" /></clipPath></defs>
<linearGradient
   x1="588.83112"
   y1="770.75"
   x2="590.17078"
   y2="765.75012"
   id="SVGID_1_"
   gradientUnits="userSpaceOnUse"
   gradientTransform="translate(-567,-747)">
	<stop
   id="stop2818"
   style="stop-color:#ff8080;stop-opacity:0.5"
   offset="0" />
	<stop
   id="stop2820"
   style="stop-color:#804040;stop-opacity:0.5"
   offset="1" />
</linearGradient>

<linearGradient
   x1="586.99902"
   y1="-729.07959"
   x2="591.99902"
   y2="-720.41931"
   id="SVGID_2_"
   gradientUnits="userSpaceOnUse"
   gradientTransform="matrix(1,0,0,-1,-567,-703.5)">
	<stop
   id="stop2825"
   style="stop-color:#ff8080;stop-opacity:0.5"
   offset="0" />
	<stop
   id="stop2827"
   style="stop-color:#ffc0c0;stop-opacity:0.5"
   offset="1" />
</linearGradient>

<linearGradient
   x1="585.08588"
   y1="790.22461"
   x2="596.4137"
   y2="770.60437"
   id="SVGID_3_"
   gradientUnits="userSpaceOnUse"
   gradientTransform="translate(-567,-747)">
	<stop
   id="stop2832"
   style="stop-color:#ff8080;stop-opacity:0.5"
   offset="0" />
	<stop
   id="stop2834"
   style="stop-color:#ffc0c0;stop-opacity:0.5"
   offset="1" />
</linearGradient>

<linearGradient
   x1="588.52832"
   y1="768.60352"
   x2="590.76111"
   y2="764.73621"
   id="SVGID_4_"
   gradientUnits="userSpaceOnUse"
   gradientTransform="translate(-567,-747)">
	<stop
   id="stop2839"
   style="stop-color:#ff8080;stop-opacity:0.5"
   offset="0" />
	<stop
   id="stop2841"
   style="stop-color:#ffc0c0;stop-opacity:0.5"
   offset="1" />
</linearGradient>

<linearGradient
   x1="586.75098"
   y1="766.75983"
   x2="591.99957"
   y2="757.66888"
   id="SVGID_5_"
   gradientUnits="userSpaceOnUse"
   gradientTransform="translate(-567,-747)">
	<stop
   id="stop2846"
   style="stop-color:#804040;stop-opacity:0.5"
   offset="0" />
	<stop
   id="stop2848"
   style="stop-color:#ffc0c0;stop-opacity:0.5"
   offset="1" />
</linearGradient>

<path
   d="m 20,5 c -1.312808,0 -2.375,1.1192881 -2.375,2.5 l -0.125,0 c -5,0 -5,2.640916 -5,7.5 0,5 2.929989,11.382511 -1.84375,16.15625 -5.9215021,5.921502 -2.9607513,8.875 0,8.875 l 11.90625,0 11.78125,0 c 2.960751,0 5.921502,-2.953498 0,-8.875 -4.773739,-4.773739 -11.508331,-11.645952 -10.6875,-12.5625 0.820831,-0.916547 3.756233,2.755535 5,3.90625 1.439677,1.331967 3.84375,-1.393443 3.84375,-5 l 0,-5 c 0,-2.5 0,-5 -5,-5 l -5.125,0 C 22.375,6.1192881 21.312808,5 20,5 z"
   id="path3779"
   style="opacity:0.9;fill:#0000c0;fill-opacity:1;stroke:none" /><path
   d="m 38.109343,29.40847 a 19.878941,4.3396668 44.238964 1 1 -9.057048,3.225975 19.878941,4.3396668 44.238964 1 1 9.057048,-3.225975 z"
   clip-path="url(#clipPath13771)"
   id="path3830-5"
   style="opacity:0.61632649;fill:url(#radialGradient3857);fill-opacity:1;stroke:none" /><path
   d="m 33.135245,13.75 a 7.4692621,8.75 0 1 1 -14.938524,0 7.4692621,8.75 0 1 1 14.938524,0 z"
   transform="matrix(-0.38227065,-1.6994131,3.5033082,0.03032221,-29.45792,81.304683)"
   clip-path="url(#clipPath3946)"
   id="path3830-5-4"
   style="opacity:0.26938776;fill:url(#radialGradient3895);fill-opacity:1;stroke:none" /><path
   d="m 14.226397,12.563855 a 0.50005,0.50005 0 0 0 0.06427,0.641021 l 5.286571,5.319978 a 0.50005,0.50005 0 1 0 0.70933,-0.704876 L 15,12.5 a 0.50005,0.50005 0 0 0 -0.773603,0.06386 z"
   id="path13643"
   style="font-size:medium;font-style:normal;font-variant:normal;font-weight:normal;font-stretch:normal;text-indent:0;text-align:start;text-decoration:none;line-height:normal;letter-spacing:normal;word-spacing:normal;text-transform:none;direction:ltr;block-progression:tb;writing-mode:lr-tb;text-anchor:start;opacity:0.11836733;color:#000000;fill:url(#linearGradient13655);fill-opacity:1;stroke:none;stroke-width:1px;marker:none;visibility:visible;display:inline;overflow:visible;enable-background:accumulate;font-family:Bitstream Charter;-inkscape-font-specification:Bitstream Charter" /><path
   d="m 14.649159,16.539001 a 0.50005,0.50005 0 0 0 0.06427,0.641021 L 20,22.5 a 0.50005,0.50005 0 1 0 0.70933,-0.704876 l -5.286568,-5.319978 a 0.50005,0.50005 0 0 0 -0.773603,0.06386 z"
   id="path13643-4"
   style="font-size:medium;font-style:normal;font-variant:normal;font-weight:normal;font-stretch:normal;text-indent:0;text-align:start;text-decoration:none;line-height:normal;letter-spacing:normal;word-spacing:normal;text-transform:none;direction:ltr;block-progression:tb;writing-mode:lr-tb;text-anchor:start;opacity:0.11836733;color:#000000;fill:url(#linearGradient13674);fill-opacity:1;stroke:none;stroke-width:1px;marker:none;visibility:visible;display:inline;overflow:visible;enable-background:accumulate;font-family:Bitstream Charter;-inkscape-font-specification:Bitstream Charter" /><path
   d="m 15,20 a 0.50005,0.50005 0 0 0 0.06427,0.641021 l 5.286571,5.319978 a 0.50005,0.50005 0 1 0 0.70933,-0.704876 L 15.773603,19.936145 A 0.50005,0.50005 0 0 0 15,20.000005 z"
   id="path13643-45"
   style="font-size:medium;font-style:normal;font-variant:normal;font-weight:normal;font-stretch:normal;text-indent:0;text-align:start;text-decoration:none;line-height:normal;letter-spacing:normal;word-spacing:normal;text-transform:none;direction:ltr;block-progression:tb;writing-mode:lr-tb;text-anchor:start;opacity:0.11836733;color:#000000;fill:url(#linearGradient13674-9);fill-opacity:1;stroke:none;stroke-width:1px;marker:none;visibility:visible;display:inline;overflow:visible;enable-background:accumulate;font-family:Bitstream Charter;-inkscape-font-specification:Bitstream Charter" /><path
   d="m 0,6.25 a 1.25,1.25 0 1 1 -2.5,0 1.25,1.25 0 1 1 2.5,0 z"
   transform="matrix(0.80604645,-0.59185229,0.59185229,0.80604645,21.0401,5.5373294)"
   id="path13714"
   style="opacity:0.11836733;fill:url(#linearGradient13722);fill-opacity:1;stroke:none" /><path
   d="m 36.331966,9.0676231 a 6.3012295,4.3954916 0 1 1 -12.602459,0 6.3012295,4.3954916 0 1 1 12.602459,0 z"
   transform="matrix(1.9793464,0.58298201,-0.28253264,0.95925768,-26.851647,-17.37907)"
   clip-path="url(#clipPath13767)"
   id="path13726"
   style="opacity:0.37551018;fill:url(#radialGradient13734);fill-opacity:1;stroke:none" /><path
   d="m 21.577869,5.5635247 a 2.0389345,1.9364754 0 1 1 -4.077869,0 2.0389345,1.9364754 0 1 1 4.077869,0 z"
   transform="translate(1.3524587,-1.1920929e-7)"
   clip-path="url(#clipPath13810)"
   id="path13778"
   style="opacity:0.38367345;fill:url(#radialGradient13786);fill-opacity:1;stroke:none" /></svg>