<?xml version="1.0" encoding="UTF-8" standalone="no"?>
<!-- Created with Inkscape (http://www.inkscape.org/) -->
<svg
   xmlns:svg="http://www.w3.org/2000/svg"
   xmlns="http://www.w3.org/2000/svg"
   xmlns:xlink="http://www.w3.org/1999/xlink"
   version="1.0"
   width="45"
   height="45"
   viewBox="0 0 45 45"
   id="Layer_1"
   xml:space="preserve"><defs
   id="defs4080"><linearGradient
     x1="8.3895998"
     y1="38.75"
     x2="36.610401"
     y2="38.75"
     id="linearGradient11378"
     gradientUnits="userSpaceOnUse"><stop
       id="stop11380"
       style="stop-color:#6e665a;stop-opacity:1"
       offset="0" /><stop
       id="stop11382"
       style="stop-color:#47423a;stop-opacity:1"
       offset="1" /></linearGradient><radialGradient
     cx="22.67388"
     cy="35.990055"
     r="11.417765"
     fx="22.67388"
     fy="35.990055"
     id="radialGradient6090"
     xlink:href="#linearGradient11378"
     gradientUnits="userSpaceOnUse"
     gradientTransform="matrix(1,0,0,0.3956758,24.80112,-5.2966455)" /><linearGradient
     x1="8.3895998"
     y1="37.5"
     x2="36.610401"
     y2="37.5"
     id="linearGradient4095"
     xlink:href="#SVGID_1_"
     gradientUnits="userSpaceOnUse" /><linearGradient
     x1="15.0005"
     y1="26.25"
     x2="30"
     y2="26.25"
     id="linearGradient4097"
     xlink:href="#SVGID_2_"
     gradientUnits="userSpaceOnUse" /><linearGradient
     x1="12.5005"
     y1="33.75"
     x2="32.500999"
     y2="33.75"
     id="linearGradient4099"
     xlink:href="#SVGID_3_"
     gradientUnits="userSpaceOnUse" /><linearGradient
     x1="15.0005"
     y1="18.75"
     x2="30.000999"
     y2="18.75"
     id="linearGradient4101"
     xlink:href="#SVGID_4_"
     gradientUnits="userSpaceOnUse" /><linearGradient
     x1="17.5005"
     y1="12.5"
     x2="27.500999"
     y2="12.5"
     id="linearGradient4103"
     xlink:href="#SVGID_5_"
     gradientUnits="userSpaceOnUse" /><linearGradient
     x1="16.750999"
     y1="12.5"
     x2="28.250999"
     y2="12.5"
     id="linearGradient11389"
     xlink:href="#linearGradient11378"
     gradientUnits="userSpaceOnUse" /><linearGradient
     x1="15.705059"
     y1="22.647058"
     x2="29.294119"
     y2="22.647058"
     id="linearGradient11391"
     xlink:href="#linearGradient11378"
     gradientUnits="userSpaceOnUse" /><linearGradient
     x1="13.647059"
     y1="35"
     x2="31.352942"
     y2="35"
     id="linearGradient11393"
     xlink:href="#linearGradient11378"
     gradientUnits="userSpaceOnUse" /><linearGradient
     x1="15.705059"
     y1="28.823528"
     x2="29.293295"
     y2="28.823528"
     id="linearGradient11395"
     xlink:href="#linearGradient11378"
     gradientUnits="userSpaceOnUse" /><linearGradient
     x1="10.26153"
     y1="38.087822"
     x2="34.736824"
     y2="38.087822"
     id="linearGradient11397"
     xlink:href="#linearGradient11378"
     gradientUnits="userSpaceOnUse" /></defs>
<linearGradient
   x1="8.3895998"
   y1="37.5"
   x2="36.610401"
   y2="37.5"
   id="SVGID_1_"
   gradientUnits="userSpaceOnUse">
	<stop
   id="stop4044"
   style="stop-color:#646464;stop-opacity:1"
   offset="0" />
	<stop
   id="stop4046"
   style="stop-color:#3f4043;stop-opacity:1"
   offset="1" />
</linearGradient>

<linearGradient
   x1="15.0005"
   y1="26.25"
   x2="30"
   y2="26.25"
   id="SVGID_2_"
   gradientUnits="userSpaceOnUse">
	<stop
   id="stop4051"
   style="stop-color:#ffffff;stop-opacity:1"
   offset="0" />
	<stop
   id="stop4053"
   style="stop-color:#b1b3b6;stop-opacity:1"
   offset="1" />
</linearGradient>

<linearGradient
   x1="12.5005"
   y1="33.75"
   x2="32.500999"
   y2="33.75"
   id="SVGID_3_"
   gradientUnits="userSpaceOnUse">
	<stop
   id="stop4058"
   style="stop-color:#ffffff;stop-opacity:1"
   offset="0" />
	<stop
   id="stop4060"
   style="stop-color:#b1b3b6;stop-opacity:1"
   offset="1" />
</linearGradient>

<linearGradient
   x1="15.0005"
   y1="18.75"
   x2="30.000999"
   y2="18.75"
   id="SVGID_4_"
   gradientUnits="userSpaceOnUse">
	<stop
   id="stop4065"
   style="stop-color:#ffffff;stop-opacity:1"
   offset="0" />
	<stop
   id="stop4067"
   style="stop-color:#b1b3b6;stop-opacity:1"
   offset="1" />
</linearGradient>

<linearGradient
   x1="17.5005"
   y1="12.5"
   x2="27.500999"
   y2="12.5"
   id="SVGID_5_"
   gradientUnits="userSpaceOnUse">
	<stop
   id="stop4072"
   style="stop-color:#ffffff;stop-opacity:1"
   offset="0" />
	<stop
   id="stop4074"
   style="stop-color:#b1b3b6;stop-opacity:1"
   offset="1" />
</linearGradient>
<path
   d="M 22.499177,36.028588 C 18.098236,36.028588 14.058,37.572705 10.879177,40.147058 L 34.119177,40.147058 C 30.941177,37.572705 26.900941,36.028588 22.499177,36.028588 z"
   id="path4048"
   style="fill:url(#linearGradient11397);fill-opacity:1;stroke:#47423a;stroke-width:1.2352941;stroke-opacity:1" /><path
   d="M 16.322706,33.970588 L 28.675647,33.970588 C 28.675647,33.970588 28.675647,27.794117 26.616824,23.67647 L 18.38153,23.67647 C 16.322706,27.794117 16.322706,33.970588 16.322706,33.970588 z"
   id="path4055"
   style="fill:url(#linearGradient11395);fill-opacity:1;stroke:#47423a;stroke-width:1.2352941;stroke-opacity:1" /><path
   d="M 30.735294,35 C 30.735294,35.568235 30.274118,36.029411 29.705882,36.029411 L 15.294118,36.029411 C 14.725883,36.029411 14.264706,35.568235 14.264706,35 L 14.264706,35 C 14.264706,34.431764 14.725883,33.970588 15.294118,33.970588 L 29.705882,33.970588 C 30.274118,33.970588 30.735294,34.431764 30.735294,35 L 30.735294,35 z"
   id="path4062"
   style="fill:url(#linearGradient11393);fill-opacity:1;stroke:#47423a;stroke-width:1.2352941;stroke-opacity:1" /><path
   d="M 28.676471,22.647059 C 28.676471,23.215294 28.215294,23.67647 27.647059,23.67647 L 17.352941,23.67647 C 16.783883,23.67647 16.322706,23.215294 16.322706,22.647059 L 16.322706,22.647059 C 16.322706,22.078823 16.783883,21.617647 17.352118,21.617647 L 27.646235,21.617647 C 28.215294,21.617647 28.676471,22.078823 28.676471,22.647059 L 28.676471,22.647059 z"
   id="path4069"
   style="fill:url(#linearGradient11391);fill-opacity:1;stroke:#47423a;stroke-width:1.2352941;stroke-opacity:1" /><circle
   cx="22.500999"
   cy="12.5"
   r="5"
   transform="matrix(0.8235294,0,0,0.8235294,3.9697652,7.2058824)"
   id="circle4076"
   style="fill:url(#linearGradient11389);fill-opacity:1;stroke:#47423a;stroke-width:1.5;stroke-opacity:1" />
</svg>