<?xml version="1.0" encoding="UTF-8" standalone="no"?>
<!-- Created with Inkscape (http://www.inkscape.org/) -->
<svg
   xmlns:svg="http://www.w3.org/2000/svg"
   xmlns="http://www.w3.org/2000/svg"
   xmlns:xlink="http://www.w3.org/1999/xlink"
   version="1.0"
   width="45"
   height="45"
   viewBox="0 0 45 45"
   id="Layer_1"
   xml:space="preserve"><defs
   id="defs43"><linearGradient
   x1="8.3895998"
   y1="38.75"
   x2="36.610401"
   y2="38.75"
   id="linearGradient16589"
   gradientUnits="userSpaceOnUse"><stop
     id="stop16591"
     style="stop-color:#47423a;stop-opacity:1"
     offset="0" /><stop
     id="stop16593"
     style="stop-color:#6e665a;stop-opacity:1"
     offset="1" /></linearGradient><linearGradient
   x1="8.3895998"
   y1="38.75"
   x2="36.610401"
   y2="38.75"
   id="linearGradient11378"
   gradientUnits="userSpaceOnUse"><stop
     id="stop11380"
     style="stop-color:#6e665a;stop-opacity:1"
     offset="0" /><stop
     id="stop11382"
     style="stop-color:#47423a;stop-opacity:1"
     offset="1" /></linearGradient><radialGradient
   cx="22.67388"
   cy="35.990055"
   r="11.417765"
   fx="22.67388"
   fy="35.990055"
   id="radialGradient6090"
   xlink:href="#linearGradient11378"
   gradientUnits="userSpaceOnUse"
   gradientTransform="matrix(1,0,0,0.3956758,24.63237,1.3971045)" /><linearGradient
   x1="12.5"
   y1="26.25"
   x2="32.5"
   y2="26.25"
   id="linearGradient10581"
   gradientUnits="userSpaceOnUse">
		<stop
   id="stop10583"
   style="stop-color:#414141;stop-opacity:1"
   offset="0" />
		<stop
   id="stop10585"
   style="stop-color:#616267;stop-opacity:1"
   offset="1" />
	</linearGradient><linearGradient
   x1="8.3895998"
   y1="38.75"
   x2="36.610401"
   y2="38.75"
   id="SVGID_1_-9"
   gradientUnits="userSpaceOnUse"><stop
     id="stop6-9"
     style="stop-color:#ffffff;stop-opacity:1"
     offset="0" /><stop
     id="stop8-1"
     style="stop-color:#b1b3b6;stop-opacity:1"
     offset="1" /></linearGradient><linearGradient
   x1="8.3895998"
   y1="38.75"
   x2="36.610401"
   y2="38.75"
   id="linearGradient3647"
   xlink:href="#SVGID_1_-9"
   gradientUnits="userSpaceOnUse"
   gradientTransform="matrix(0.7385174,0,0,-1,5.9524233,52.5)" />
	<linearGradient
   x1="8.3895998"
   y1="38.75"
   x2="36.610401"
   y2="38.75"
   id="SVGID_1_"
   gradientUnits="userSpaceOnUse">
		<stop
   id="stop6"
   style="stop-color:#ffffff;stop-opacity:1"
   offset="0" />
		<stop
   id="stop8"
   style="stop-color:#b1b3b6;stop-opacity:1"
   offset="1" />
	</linearGradient>
	
	<linearGradient
   x1="12.5"
   y1="26.25"
   x2="32.5"
   y2="26.25"
   id="SVGID_2_"
   gradientUnits="userSpaceOnUse">
		<stop
   id="stop13"
   style="stop-color:#646464;stop-opacity:1"
   offset="0" />
		<stop
   id="stop15"
   style="stop-color:#3f4043;stop-opacity:1"
   offset="1" />
	</linearGradient>
	
	
<linearGradient
   x1="8.3895998"
   y1="38.75"
   x2="36.610401"
   y2="38.75"
   id="linearGradient3675"
   xlink:href="#SVGID_1_"
   gradientUnits="userSpaceOnUse" />
	<linearGradient
   x1="21.25"
   y1="25"
   x2="23.75"
   y2="25"
   id="SVGID_3_"
   gradientUnits="userSpaceOnUse">
		<stop
   id="stop28"
   style="stop-color:#a6a6a6;stop-opacity:1"
   offset="0" />
		<stop
   id="stop30"
   style="stop-color:#ffffff;stop-opacity:1"
   offset="1" />
	</linearGradient>
	
	<linearGradient
   x1="17.5"
   y1="25"
   x2="27.5"
   y2="25"
   id="SVGID_4_"
   gradientUnits="userSpaceOnUse">
		<stop
   id="stop35"
   style="stop-color:#a6a6a6;stop-opacity:1"
   offset="0" />
		<stop
   id="stop37"
   style="stop-color:#ffffff;stop-opacity:1"
   offset="1" />
	</linearGradient>
	
<linearGradient
   x1="17.5"
   y1="25"
   x2="27.5"
   y2="25"
   id="linearGradient3684"
   xlink:href="#SVGID_4_"
   gradientUnits="userSpaceOnUse" /><linearGradient
   x1="21.25"
   y1="25"
   x2="23.75"
   y2="25"
   id="linearGradient3687"
   xlink:href="#SVGID_3_"
   gradientUnits="userSpaceOnUse" /><linearGradient
   x1="8.3895998"
   y1="38.75"
   x2="36.610401"
   y2="38.75"
   id="linearGradient3695"
   xlink:href="#SVGID_1_"
   gradientUnits="userSpaceOnUse" /><linearGradient
   x1="12.5"
   y1="26.25"
   x2="32.5"
   y2="26.25"
   id="linearGradient3697"
   xlink:href="#SVGID_2_"
   gradientUnits="userSpaceOnUse" /><linearGradient
   x1="21.25"
   y1="25"
   x2="23.75"
   y2="25"
   id="linearGradient3699"
   xlink:href="#SVGID_3_"
   gradientUnits="userSpaceOnUse" /><linearGradient
   x1="17.5"
   y1="25"
   x2="27.5"
   y2="25"
   id="linearGradient3701"
   xlink:href="#SVGID_4_"
   gradientUnits="userSpaceOnUse" /><linearGradient
   x1="8.3895998"
   y1="38.75"
   x2="36.610401"
   y2="38.75"
   id="linearGradient3703"
   xlink:href="#SVGID_1_-9"
   gradientUnits="userSpaceOnUse"
   gradientTransform="matrix(0.7385174,0,0,-1,5.9524233,52.5)" /><linearGradient
   x1="4.3625002"
   y1="38.4375"
   x2="40.637501"
   y2="38.4375"
   id="linearGradient10569"
   xlink:href="#linearGradient16589"
   gradientUnits="userSpaceOnUse" /><linearGradient
   x1="12"
   y1="26.25"
   x2="33"
   y2="26.25"
   id="linearGradient10571"
   xlink:href="#linearGradient16589"
   gradientUnits="userSpaceOnUse" /><linearGradient
   id="linearGradient10573"
   xlink:href="#SVGID_2_" /><linearGradient
   x1="20.437187"
   y1="21.25"
   x2="24.562813"
   y2="21.25"
   id="linearGradient10575"
   xlink:href="#linearGradient11378"
   gradientUnits="userSpaceOnUse" /><linearGradient
   x1="15.75"
   y1="21.250469"
   x2="29.25"
   y2="21.250469"
   id="linearGradient10577"
   xlink:href="#linearGradient11378"
   gradientUnits="userSpaceOnUse" /><linearGradient
   x1="9.06073"
   y1="7.1875"
   x2="36.111931"
   y2="7.1875"
   id="linearGradient10579"
   xlink:href="#linearGradient16589"
   gradientUnits="userSpaceOnUse" /></defs>


<path
   d="M 40.1375,40 C 38.65,38.795 37.025,37.76 35.31125,36.875 L 9.68875,36.875 C 7.975,37.76 6.35,38.795 4.8625,40 L 40.1375,40 z"
   id="path10"
   style="fill:url(#linearGradient10569);fill-opacity:1;stroke:#47433a;stroke-opacity:1" /><polygon
   points="32.5,37.5 12.5,37.5 15,15 30,15 32.5,37.5 "
   transform="matrix(1.25,0,0,1.25,-5.625,-10)"
   id="polygon17"
   style="fill:url(#linearGradient10571);fill-opacity:1;stroke:#47433a;stroke-opacity:1" /><g
   transform="matrix(1.25,0,0,1.25,-5.625,-10)"
   id="g19"
   style="fill:url(#linearGradient10573);fill-opacity:1;stroke:#b4b4b4;stroke-opacity:1">
		
			
		
	</g><path
   d="M 22.5,21.25 C 24.58375,23.33375 24.58375,27.5 22.5,27.5 C 20.41625,27.5 20.41625,23.33375 22.5,21.25 C 24.58375,19.1675 24.58375,15 22.5,15 C 20.41625,15 20.41625,19.1675 22.5,21.25 z"
   id="path32"
   style="fill:url(#linearGradient10575);fill-opacity:1;stroke:#cbefc0;stroke-opacity:1" /><path
   d="M 22.5,21.25 C 24.58375,19.1675 28.75,19.1675 28.75,21.25 C 28.75,23.33375 24.58375,23.33375 22.5,21.25 C 20.41625,19.1675 16.25,19.1675 16.25,21.25 C 16.25,23.33375 20.41625,23.33375 22.5,21.25 z"
   id="path39"
   style="fill:url(#linearGradient10577);fill-opacity:1;stroke:#cbefc0;stroke-opacity:1" /><path
   d="M 35.611931,5.625 C 34.513386,6.83 33.313296,7.865 32.047661,8.75 L 13.125,8.75 C 11.859365,7.865 10.659275,6.83 9.56073,5.625 L 35.611931,5.625 L 35.611931,5.625 z"
   id="path10-9"
   style="fill:url(#linearGradient10579);fill-opacity:1;stroke:#47433a;stroke-opacity:1" /></svg>