<?xml version="1.0" encoding="UTF-8" standalone="no"?>
<!-- Created with Inkscape (http://www.inkscape.org/) -->

<svg
   xmlns:dc="http://purl.org/dc/elements/1.1/"
   xmlns:cc="http://creativecommons.org/ns#"
   xmlns:rdf="http://www.w3.org/1999/02/22-rdf-syntax-ns#"
   xmlns:svg="http://www.w3.org/2000/svg"
   xmlns="http://www.w3.org/2000/svg"
   xmlns:sodipodi="http://sodipodi.sourceforge.net/DTD/sodipodi-0.dtd"
   xmlns:inkscape="http://www.inkscape.org/namespaces/inkscape"
   width="64px"
   height="64px"
   id="svg2985"
   version="1.1"
   inkscape:version="0.48.1 "
   sodipodi:docname="bp.svg">
  <defs
     id="defs2987" />
  <sodipodi:namedview
     id="base"
     pagecolor="#ffffff"
     bordercolor="#666666"
     borderopacity="1.0"
     inkscape:pageopacity="0.0"
     inkscape:pageshadow="2"
     inkscape:zoom="5.5"
     inkscape:cx="36.311688"
     inkscape:cy="15.872316"
     inkscape:current-layer="layer1"
     showgrid="true"
     inkscape:document-units="px"
     inkscape:grid-bbox="true"
     inkscape:window-width="1365"
     inkscape:window-height="878"
     inkscape:window-x="-8"
     inkscape:window-y="-8"
     inkscape:window-maximized="1" />
  <metadata
     id="metadata2990">
    <rdf:RDF>
      <cc:Work
         rdf:about="">
        <dc:format>image/svg+xml</dc:format>
        <dc:type
           rdf:resource="http://purl.org/dc/dcmitype/StillImage" />
        <dc:title></dc:title>
      </cc:Work>
    </rdf:RDF>
  </metadata>
  <g
     id="layer1"
     inkscape:label="Layer 1"
     inkscape:groupmode="layer">
    <text
       xml:space="preserve"
       style="font-size:64px;font-style:normal;font-variant:normal;font-weight:bold;font-stretch:normal;line-height:125%;letter-spacing:0px;word-spacing:0px;fill:#000000;fill-opacity:1;stroke:none;font-family:ChessmasterX;-inkscape-font-specification:ChessmasterX Bold"
       x="0.25"
       y="51.734375"
       id="text3081"
       sodipodi:linespacing="125%"><tspan
         sodipodi:role="line"
         id="tspan3083"
         x="0.25"
         y="51.734375">—</tspan></text>
    <path
       style="fill:#ffffff;fill-opacity:1;fill-rule:evenodd"
       d="m 50.057626,56.500411 c 0.05616,-0.275 0.235631,-2.177272 0.39883,-4.227272 C 50.932494,46.293415 50.664148,40.215253 49.72928,35.802208 47.786573,26.631664 42.258651,20.28979 33.02987,16.643917 c -0.842983,-0.333025 -1.045454,-0.492681 -1.045454,-0.824382 0,-0.778991 0.754048,-0.874586 2.952509,-0.374306 7.048611,1.603974 12.064807,5.507192 15.55644,12.104825 1.757218,3.320365 3.098474,7.724461 3.888787,12.769076 0.361353,2.306538 0.406622,3.287654 0.413133,8.954009 0.004,3.5 -0.05776,6.670454 -0.137289,7.045454 l -0.144604,0.681818 -2.278935,0 -2.278934,0 0.102103,-0.5 0,0 z"
       id="path3085"
       inkscape:connector-curvature="0" />
    <path
       style="fill:#ffffff;fill-opacity:1;fill-rule:evenodd"
       d="m 20.166913,16.30701 c 0.0023,-0.426298 0.803737,-1.30221 1.478528,-1.615969 1.225355,-0.569755 2.135923,-0.863378 2.267969,-0.731332 0.191832,0.191832 -0.312581,1.227443 -0.729614,1.497972 -0.469007,0.304245 -3.017822,1.0218 -3.016883,0.849329 z"
       id="path3087"
       inkscape:connector-curvature="0" />
    <path
       style="fill:#ffffff;fill-opacity:1;fill-rule:evenodd"
       d="m 17.829914,26.904587 c -0.642689,-0.540787 -0.848609,-1.268885 -0.568169,-2.008953 0.448633,-1.183919 1.451141,-1.834295 3.736775,-2.42423 1.339231,-0.345662 1.45641,-0.350472 1.667714,-0.06846 0.396718,0.529479 0.250562,0.735686 -0.636364,0.897828 l -0.863636,0.157884 -0.002,0.968829 c -0.0025,1.200278 -0.316108,1.482013 -1.64964,1.482013 -1.050209,0 -1.277104,0.230925 -0.984102,1.001579 0.220622,0.58028 -0.0057,0.578182 -0.700556,-0.0065 l 0,0 z"
       id="path3089"
       inkscape:connector-curvature="0" />
    <path
       style="fill:#ffffff;fill-opacity:1;fill-rule:evenodd"
       d="m 8.2066894,40.353738 c -0.4759571,-0.333373 -0.5346952,-1.118826 -0.1406526,-1.88082 0.3540464,-0.684651 1.4822031,-1.654325 1.9247053,-1.654325 0.4428509,0 0.4454769,0.125918 0.017273,0.828107 -0.3361783,0.551281 -0.3355127,0.559059 0.0902,1.053975 0.41258,0.479653 0.417153,0.516485 0.120374,0.969427 -0.169675,0.258957 -0.5755113,0.582395 -0.9018591,0.718752 -0.7230737,0.302119 -0.6240972,0.30525 -1.110038,-0.03512 l 5e-7,0 z"
       id="path3091"
       inkscape:connector-curvature="0" />
  </g>
</svg>
