<?xml version="1.0" encoding="UTF-8" standalone="no"?>
<!-- Created with Inkscape (http://www.inkscape.org/) -->

<svg
   xmlns:dc="http://purl.org/dc/elements/1.1/"
   xmlns:cc="http://creativecommons.org/ns#"
   xmlns:rdf="http://www.w3.org/1999/02/22-rdf-syntax-ns#"
   xmlns:svg="http://www.w3.org/2000/svg"
   xmlns="http://www.w3.org/2000/svg"
   xmlns:sodipodi="http://sodipodi.sourceforge.net/DTD/sodipodi-0.dtd"
   xmlns:inkscape="http://www.inkscape.org/namespaces/inkscape"
   width="64px"
   height="64px"
   id="svg2985"
   version="1.1"
   inkscape:version="0.48.1 "
   sodipodi:docname="bn.svg">
  <defs
     id="defs2987" />
  <sodipodi:namedview
     id="base"
     pagecolor="#ffffff"
     bordercolor="#666666"
     borderopacity="1.0"
     inkscape:pageopacity="0.0"
     inkscape:pageshadow="2"
     inkscape:zoom="5.5"
     inkscape:cx="36.311688"
     inkscape:cy="15.872316"
     inkscape:current-layer="layer1"
     showgrid="true"
     inkscape:document-units="px"
     inkscape:grid-bbox="true"
     inkscape:window-width="1365"
     inkscape:window-height="878"
     inkscape:window-x="-8"
     inkscape:window-y="-8"
     inkscape:window-maximized="1" />
  <metadata
     id="metadata2990">
    <rdf:RDF>
      <cc:Work
         rdf:about="">
        <dc:format>image/svg+xml</dc:format>
        <dc:type
           rdf:resource="http://purl.org/dc/dcmitype/StillImage" />
        <dc:title></dc:title>
      </cc:Work>
    </rdf:RDF>
  </metadata>
  <g
     id="layer1"
     inkscape:label="Layer 1"
     inkscape:groupmode="layer">
    <text
       xml:space="preserve"
       style="font-size:64px;font-style:normal;font-variant:normal;font-weight:bold;font-stretch:normal;line-height:125%;letter-spacing:0px;word-spacing:0px;fill:#000000;fill-opacity:1;stroke:none;font-family:ChessmasterX;-inkscape-font-specification:ChessmasterX Bold"
       x="0.34375"
       y="51.734375"
       id="text3093"
       sodipodi:linespacing="125%"><tspan
         sodipodi:role="line"
         id="tspan3095"
         x="0.34375"
         y="51.734375">‡</tspan></text>
    <path
       style="fill:#ffffff;fill-opacity:1;fill-rule:evenodd"
       d="m 22.166234,56.404733 c 0,-0.88186 0.436966,-3.510336 0.744692,-4.479532 0.869904,-2.739811 1.775635,-3.832904 4.902771,-5.91697 4.504519,-3.002014 5.870517,-5.505363 5.510551,-10.098729 -0.175658,-2.241511 -0.131849,-3.18804 0.209755,-4.531934 0.22724,-0.893984 0.221898,-1.007578 -0.05699,-1.211504 -0.271829,-0.198767 -0.396117,-0.05529 -1.065109,1.229522 -0.416553,0.8 -0.939744,1.648676 -1.162646,1.885944 -0.804193,0.856025 -3.156794,1.866138 -7.173934,3.080201 -2.2,0.664886 -4.204546,1.305588 -4.454546,1.423782 -0.610643,0.288698 -1.630866,2.382306 -2.345674,4.813578 -0.836292,2.844475 -1.332324,3.391575 -2.702735,2.98099 -1.404546,-0.420813 -1.420612,-0.5223 -0.307622,-1.943306 1.488512,-1.900453 1.758667,-3.332245 0.704371,-3.733089 -0.637802,-0.242491 -1.326273,0.149435 -1.893794,1.078084 -2.013262,3.294345 -1.940572,3.234496 -3.0909094,2.544878 C 9.0483783,42.965502 8.3642994,42.275799 7.9296181,41.454957 7.6220004,40.874059 7.5430162,40.398342 7.5371786,39.091321 c -0.00877,-1.964022 -0.088797,-1.805446 3.3489924,-6.636364 3.243355,-4.557691 3.709457,-5.545909 4.202058,-8.909091 l 0.386145,-2.636364 1.337884,-2.341519 c 1.605455,-2.809812 1.785932,-3.511435 1.798848,-6.993224 l 0.0097,-2.6074702 0.649598,0.7309092 c 0.75166,0.845748 1.710744,2.586761 1.888451,3.428081 0.109227,0.517114 0.04196,0.653268 -0.616817,1.24843 -0.699158,0.631648 -0.934289,1.211074 -0.580247,1.429885 0.08754,0.0541 0.992707,-0.309249 2.011477,-0.807451 1.018771,-0.498202 1.873885,-0.905822 1.900253,-0.905822 0.02637,0 0.01207,0.244407 -0.03177,0.543127 -0.134275,0.914877 0.0892,1.456873 0.600703,1.456873 1.029932,0 1.775732,-1.423024 2.454323,-4.682973 0.278517,-1.337999 0.547084,-2.4734141 0.596817,-2.5231454 0.218125,-0.2181267 1.131949,1.1053331 2.226443,3.2244824 0.650815,1.2601 1.365184,2.4524 1.587489,2.649556 0.259289,0.229956 1.023413,0.471643 2.131464,0.674168 0.95,0.173638 2.694738,0.637385 3.877196,1.03055 6.263331,2.082542 10.444042,5.519243 13.161799,10.819491 2.904229,5.663911 3.86795,11.650078 3.869452,24.035143 l 6.44e-4,5.318182 -16.090909,0 c -12.927924,0 -16.090909,-0.04561 -16.090909,-0.232042 z M 10.648572,40.36961 c 0.596291,-0.417659 0.637537,-0.943239 0.122094,-1.555808 l -0.454939,-0.540663 0.470708,-0.559406 c 0.585637,-0.695989 0.592337,-0.89514 0.03011,-0.89514 -1.0298598,0 -2.0879129,1.584729 -1.8505238,2.771675 0.207754,1.038771 0.8725413,1.346694 1.6825488,0.779342 l 0,0 z m 8.279935,-13.95493 0.05591,-0.767551 0.858485,0.05369 c 0.710375,0.04443 0.935331,-0.02315 1.303904,-0.391726 0.367927,-0.367928 0.428767,-0.569567 0.349705,-1.159016 -0.09221,-0.687461 -0.07004,-0.724347 0.605187,-1.007128 0.385495,-0.161442 0.847611,-0.340162 1.026923,-0.397157 0.272384,-0.08658 0.291695,-0.167767 0.117373,-0.49349 -0.186576,-0.348622 -0.319418,-0.379821 -1.255734,-0.294918 -0.575897,0.05222 -1.42036,0.260063 -1.876586,0.461874 -1.008351,0.446042 -2.372265,1.66916 -2.674233,2.398175 -0.204758,0.494329 -0.170433,0.604964 0.449864,1.449978 0.369345,0.503148 0.741682,0.914815 0.827415,0.914815 0.08573,0 0.181038,-0.345399 0.211788,-0.76755 z"
       id="path3097"
       inkscape:connector-curvature="0" />
  </g>
</svg>
