<?xml version="1.0" encoding="UTF-8" standalone="no"?>
<!-- Created with Inkscape (http://www.inkscape.org/) -->

<svg
   xmlns:dc="http://purl.org/dc/elements/1.1/"
   xmlns:cc="http://creativecommons.org/ns#"
   xmlns:rdf="http://www.w3.org/1999/02/22-rdf-syntax-ns#"
   xmlns:svg="http://www.w3.org/2000/svg"
   xmlns="http://www.w3.org/2000/svg"
   xmlns:sodipodi="http://sodipodi.sourceforge.net/DTD/sodipodi-0.dtd"
   xmlns:inkscape="http://www.inkscape.org/namespaces/inkscape"
   width="64px"
   height="64px"
   id="svg2985"
   version="1.1"
   inkscape:version="0.48.1 "
   sodipodi:docname="br.svg">
  <defs
     id="defs2987" />
  <sodipodi:namedview
     id="base"
     pagecolor="#ffffff"
     bordercolor="#666666"
     borderopacity="1.0"
     inkscape:pageopacity="0.0"
     inkscape:pageshadow="2"
     inkscape:zoom="5.5"
     inkscape:cx="10.272727"
     inkscape:cy="32"
     inkscape:current-layer="layer1"
     showgrid="true"
     inkscape:document-units="px"
     inkscape:grid-bbox="true"
     inkscape:window-width="1365"
     inkscape:window-height="878"
     inkscape:window-x="-8"
     inkscape:window-y="-8"
     inkscape:window-maximized="1" />
  <metadata
     id="metadata2990">
    <rdf:RDF>
      <cc:Work
         rdf:about="">
        <dc:format>image/svg+xml</dc:format>
        <dc:type
           rdf:resource="http://purl.org/dc/dcmitype/StillImage" />
        <dc:title></dc:title>
      </cc:Work>
    </rdf:RDF>
  </metadata>
  <g
     id="layer1"
     inkscape:label="Layer 1"
     inkscape:groupmode="layer">
    <text
       xml:space="preserve"
       style="font-size:64px;font-style:normal;font-variant:normal;font-weight:bold;font-stretch:normal;line-height:125%;letter-spacing:0px;word-spacing:0px;fill:#000000;fill-opacity:1;stroke:none;font-family:ChessmasterX;-inkscape-font-specification:ChessmasterX Bold"
       x="0.109375"
       y="51.578125"
       id="text3019"
       sodipodi:linespacing="125%"><tspan
         sodipodi:role="line"
         id="tspan3021"
         x="0.109375"
         y="51.578125">ª</tspan></text>
    <path
       style="fill:#ffffff;fill-opacity:1;fill-rule:evenodd"
       d="m 27.309091,56.702784 c -5.247176,-0.824971 -8.505284,-1.802811 -9.789218,-2.937989 -0.966412,-0.854445 -1.004374,-1.706767 -0.116805,-2.622506 2.993047,-3.088041 17.520656,-4.005396 25.734772,-1.625038 1.986291,0.575605 2.790045,0.989473 3.506647,1.805637 0.666986,0.759654 0.713608,1.227216 0.205473,2.060656 -1.483551,2.433314 -12.871877,4.367751 -19.540869,3.31924 z"
       id="path3023"
       inkscape:connector-curvature="0" />
    <path
       style="fill:#ffffff;fill-opacity:1;fill-rule:evenodd"
       d="m 16.490909,48.829945 c 0,-0.383511 0.37902,-1.159126 1.181818,-2.418435 0.65,-1.019622 1.180251,-1.926149 1.178336,-2.014503 -0.0019,-0.08835 -0.533734,-0.470717 -1.181818,-0.849696 -1.418549,-0.829522 -1.469157,-1.094478 -0.425346,-2.226879 1.37797,-1.494921 4.345943,-2.602588 8.792465,-3.281405 2.765061,-0.422121 8.702709,-0.425576 11.600161,-0.0068 4.379946,0.633119 7.993451,1.928067 9.193199,3.294505 0.825965,0.940722 0.759729,1.443212 -0.270277,2.050422 -1.724754,1.01678 -1.689298,0.905157 -0.709898,2.234936 C 46.992124,47.163467 47.4,47.99594 47.4,48.776604 l 0,0.645636 -1.409091,-0.705912 c -7.351467,-3.682864 -20.051368,-3.649309 -28.181818,0.07446 l -1.318182,0.603732 0,-0.564576 z m 17.511215,-6.014208 c 0.981169,-0.696319 1.717532,-1.325624 1.636363,-1.398456 -0.413674,-0.371188 -3.613508,-2.423127 -3.77658,-2.421785 -0.104049,8.55e-4 -1.03742,0.551234 -2.074157,1.223063 l -1.884978,1.221507 1.157705,0.833003 c 0.636738,0.458152 1.524797,1.100634 1.973465,1.427738 0.448668,0.327104 0.898668,0.546637 1,0.48785 0.101332,-0.05879 0.987014,-0.676601 1.968182,-1.37292 l 0,0 z"
       id="path3025"
       inkscape:connector-curvature="0" />
    <path
       style="fill:#ffffff;fill-opacity:1;fill-rule:evenodd"
       d="m 16.861665,38.448171 c -0.08467,-0.216495 -1.313679,-3.325851 -2.73114,-6.909681 -1.417461,-3.58383 -2.54674,-6.546517 -2.509509,-6.583749 0.03723,-0.03723 2.221801,2.141836 4.8546,4.84237 2.632799,2.700535 4.827993,4.868976 4.87821,4.81876 0.05022,-0.05022 -0.05084,-3.350565 -0.224573,-7.334109 -0.173732,-3.983544 -0.286158,-7.393168 -0.249837,-7.576944 0.03856,-0.19509 1.541434,2.512627 3.611493,6.50679 1.95,3.76251 3.587048,6.841379 3.637885,6.841932 0.05084,5.53e-4 0.861872,-3.701267 1.802302,-8.226267 0.940429,-4.525 1.757926,-8.408837 1.81666,-8.630749 0.0639,-0.241406 0.869033,3.063347 2.004417,8.227273 1.043694,4.746912 1.943694,8.628948 2,8.626746 0.05631,-0.0022 1.694776,-3.107524 3.641049,-6.900718 1.946271,-3.793193 3.562125,-6.873265 3.590787,-6.844603 0.02866,0.02866 -0.110507,3.031711 -0.309264,6.673445 -0.198756,3.641733 -0.362338,7.152593 -0.363516,7.801911 l -0.0021,1.180578 5,-4.99752 c 2.75,-2.748636 4.999627,-4.91626 4.999171,-4.816942 -5.46e-4,0.09932 -1.207275,3.220078 -2.681818,6.935021 l -2.680989,6.754443 -1,-0.506514 c -7.332582,-3.71406 -20.861468,-3.772177 -27.740932,-0.119166 -1.182207,0.627755 -1.189788,0.629097 -1.342858,0.237693 l 0,0 z"
       id="path3027"
       inkscape:connector-curvature="0" />
    <path
       style="fill:#ffffff;fill-opacity:1;fill-rule:evenodd"
       d="m 5.0912161,16.781592 c -0.8640787,-0.605224 -0.6664306,-2.23219 0.3208521,-2.641136 1.0621116,-0.439941 2.16975,0.262954 2.16975,1.376899 0,1.251534 -1.45459,1.989888 -2.4906021,1.264237 z"
       id="path3029"
       inkscape:connector-curvature="0" />
    <path
       style="fill:#ffffff;fill-opacity:1;fill-rule:evenodd"
       d="m 18.036364,11.832345 c -0.946338,-0.229191 -1.395129,-1.292452 -0.927348,-2.1970413 0.31413,-0.6074599 0.610293,-0.7625764 1.455979,-0.7625764 0.801989,0 1.38046,0.6334732 1.38046,1.5117187 0,0.639431 -0.48503,1.397372 -0.894221,1.397372 -0.09182,0 -0.275912,0.03118 -0.409091,0.0693 -0.133179,0.03811 -0.405779,0.02967 -0.605779,-0.01877 z"
       id="path3031"
       inkscape:connector-curvature="0" />
    <path
       style="fill:#ffffff;fill-opacity:1;fill-rule:evenodd"
       d="m 30.833366,9.4375922 c -0.601007,-0.4866657 -0.601007,-1.7339733 0,-2.2206389 0.57641,-0.4667487 1.726976,-0.4566112 2.202998,0.01941 0.556023,0.5560237 0.49578,1.6878446 -0.115429,2.1686219 -0.597739,0.4701812 -1.52922,0.4847305 -2.087569,0.032607 l 0,0 z"
       id="path3033"
       inkscape:connector-curvature="0" />
    <path
       style="fill:#ffffff;fill-opacity:1;fill-rule:evenodd"
       d="m 44.391736,11.517355 c -0.439183,-0.439182 -0.576055,-1.185794 -0.333339,-1.8183 0.137925,-0.3594287 1.001503,-0.8263277 1.528378,-0.8263277 0.596809,0 1.449589,0.9592921 1.449589,1.6306417 0,1.30493 -1.70136,1.957254 -2.644628,1.013986 z"
       id="path3035"
       inkscape:connector-curvature="0" />
    <path
       style="fill:#ffffff;fill-opacity:1;fill-rule:evenodd"
       d="m 56.833366,16.710319 c -0.320548,-0.259563 -0.425102,-0.527646 -0.425102,-1.08999 0,-0.962994 0.54293,-1.547602 1.43727,-1.547602 1.334467,0 2.012621,1.441239 1.177633,2.502753 -0.46748,0.594306 -1.540768,0.660394 -2.189801,0.134839 l 0,0 z"
       id="path3037"
       inkscape:connector-curvature="0" />
  </g>
</svg>
