<?xml version="1.0" encoding="UTF-8" standalone="no"?>
<!-- Created with Inkscape (http://www.inkscape.org/) -->

<svg
   xmlns:dc="http://purl.org/dc/elements/1.1/"
   xmlns:cc="http://creativecommons.org/ns#"
   xmlns:rdf="http://www.w3.org/1999/02/22-rdf-syntax-ns#"
   xmlns:svg="http://www.w3.org/2000/svg"
   xmlns="http://www.w3.org/2000/svg"
   xmlns:sodipodi="http://sodipodi.sourceforge.net/DTD/sodipodi-0.dtd"
   xmlns:inkscape="http://www.inkscape.org/namespaces/inkscape"
   width="64px"
   height="64px"
   id="svg2816"
   version="1.1"
   inkscape:version="0.47 r22583"
   sodipodi:docname="bn.svg">
  <defs
     id="defs2818">
    <inkscape:perspective
       sodipodi:type="inkscape:persp3d"
       inkscape:vp_x="0 : 32 : 1"
       inkscape:vp_y="0 : 1000 : 0"
       inkscape:vp_z="64 : 32 : 1"
       inkscape:persp3d-origin="32 : 21.333333 : 1"
       id="perspective2824" />
  </defs>
  <sodipodi:namedview
     id="base"
     pagecolor="#ffffff"
     bordercolor="#666666"
     borderopacity="1.0"
     inkscape:pageopacity="0.0"
     inkscape:pageshadow="2"
     inkscape:zoom="5.5"
     inkscape:cx="32"
     inkscape:cy="32"
     inkscape:current-layer="layer1"
     showgrid="true"
     inkscape:document-units="px"
     inkscape:grid-bbox="true"
     inkscape:window-width="1365"
     inkscape:window-height="878"
     inkscape:window-x="-8"
     inkscape:window-y="-8"
     inkscape:window-maximized="1" />
  <metadata
     id="metadata2821">
    <rdf:RDF>
      <cc:Work
         rdf:about="">
        <dc:format>image/svg+xml</dc:format>
        <dc:type
           rdf:resource="http://purl.org/dc/dcmitype/StillImage" />
        <dc:title />
      </cc:Work>
    </rdf:RDF>
  </metadata>
  <g
     id="layer1"
     inkscape:label="Layer 1"
     inkscape:groupmode="layer">
    <text
       xml:space="preserve"
       style="font-size:64px;font-style:normal;font-weight:normal;fill:#000000;fill-opacity:1;stroke:none;font-family:Chess Alpha;-inkscape-font-specification:Chess Alpha"
       x="0.54545456"
       y="63.272728"
       id="text2826"><tspan
         sodipodi:role="line"
         id="tspan2828"
         x="0.54545456"
         y="63.272728">j</tspan></text>
    <path
       style="fill:#ffffff"
       d="M 14.954545,28.776053 C 14.429545,28.621815 14,28.415478 14,28.317526 c 0,-0.09795 0.133843,-0.528559 0.297429,-0.956902 0.292341,-0.765484 0.312137,-0.778806 1.157298,-0.778806 0.594328,0 1.007668,0.116258 1.338467,0.376465 0.532719,0.419036 0.495097,0.570773 -0.382498,1.542686 l -0.501605,0.555515 -0.954546,-0.280431 z"
       id="path3142" />
    <path
       style="fill:#ffffff"
       d="m 26.835457,20.193341 c 0.797783,-0.89479 3.545837,-3.247886 3.793031,-3.247886 0.686733,0 2.644239,2.400904 2.644239,3.24319 0,0.388968 -0.03628,0.393173 -3.391816,0.393173 l -3.391816,0 0.346362,-0.388477 z"
       id="path3144" />
    <path
       style="fill:#ffffff"
       d="m 50.931491,52.813036 c -1.34246,-1.416281 -2.170364,-2.805903 -2.683346,-4.503945 -0.279284,-0.924471 -0.324875,-1.687315 -0.298827,-5 0.01691,-2.15 0.116344,-4.85 0.220973,-6 0.415121,-4.562675 0.143681,-10.394828 -0.619851,-13.31808 -0.710965,-2.721993 -2.915817,-5.841019 -5.985129,-8.466675 -0.489079,-0.418385 -0.828845,-0.7607 -0.755036,-0.7607 0.372182,0 3.267331,1.668163 4.479997,2.58134 3.146437,2.369369 4.484583,4.727093 5.473304,9.643596 0.349974,1.740275 0.408853,2.580213 0.392079,5.593246 -0.01086,1.95 -0.158667,5.1 -0.328469,7 -0.169803,1.9 -0.354317,4.649957 -0.410032,6.111015 -0.121573,3.188111 0.151673,4.719212 1.222442,6.849807 0.385681,0.767422 0.661612,1.43494 0.613179,1.483373 -0.04843,0.04843 -0.643012,-0.497406 -1.321284,-1.212977 l 0,0 z"
       id="path3146" />
  </g>
</svg>
