<?xml version="1.0" encoding="UTF-8" standalone="no"?>
<!-- Created with Inkscape (http://www.inkscape.org/) -->

<svg
   xmlns:dc="http://purl.org/dc/elements/1.1/"
   xmlns:cc="http://creativecommons.org/ns#"
   xmlns:rdf="http://www.w3.org/1999/02/22-rdf-syntax-ns#"
   xmlns:svg="http://www.w3.org/2000/svg"
   xmlns="http://www.w3.org/2000/svg"
   xmlns:sodipodi="http://sodipodi.sourceforge.net/DTD/sodipodi-0.dtd"
   xmlns:inkscape="http://www.inkscape.org/namespaces/inkscape"
   width="64px"
   height="64px"
   id="svg2816"
   version="1.1"
   inkscape:version="0.47 r22583"
   sodipodi:docname="wb.svg">
  <defs
     id="defs2818">
    <inkscape:perspective
       sodipodi:type="inkscape:persp3d"
       inkscape:vp_x="0 : 32 : 1"
       inkscape:vp_y="0 : 1000 : 0"
       inkscape:vp_z="64 : 32 : 1"
       inkscape:persp3d-origin="32 : 21.333333 : 1"
       id="perspective2824" />
  </defs>
  <sodipodi:namedview
     id="base"
     pagecolor="#ffffff"
     bordercolor="#666666"
     borderopacity="1.0"
     inkscape:pageopacity="0.0"
     inkscape:pageshadow="2"
     inkscape:zoom="5.5"
     inkscape:cx="32"
     inkscape:cy="32"
     inkscape:current-layer="layer1"
     showgrid="true"
     inkscape:document-units="px"
     inkscape:grid-bbox="true"
     inkscape:window-width="1365"
     inkscape:window-height="878"
     inkscape:window-x="-8"
     inkscape:window-y="-8"
     inkscape:window-maximized="1" />
  <metadata
     id="metadata2821">
    <rdf:RDF>
      <cc:Work
         rdf:about="">
        <dc:format>image/svg+xml</dc:format>
        <dc:type
           rdf:resource="http://purl.org/dc/dcmitype/StillImage" />
        <dc:title />
      </cc:Work>
    </rdf:RDF>
  </metadata>
  <g
     id="layer1"
     inkscape:label="Layer 1"
     inkscape:groupmode="layer">
    <text
       xml:space="preserve"
       style="font-size:64px;font-style:normal;font-weight:normal;fill:#000000;fill-opacity:1;stroke:none;font-family:Chess Alpha;-inkscape-font-specification:Chess Alpha"
       x="0.54545456"
       y="63.272728"
       id="text2826"><tspan
         sodipodi:role="line"
         id="tspan2828"
         x="0.54545456"
         y="63.272728">b</tspan></text>
    <path
       style="fill:#ffffff"
       d="m 9.6363636,54.469814 c 0,-0.368955 1.4331054,-1.964857 2.0658744,-2.300552 0.714659,-0.379139 1.043476,-0.404664 6.570489,-0.510052 6.986145,-0.13321 7.2757,-0.191489 8.822945,-1.775819 0.605117,-0.619621 1.183664,-1.443442 1.454546,-2.071197 0.448726,-1.039904 0.451647,-1.042359 1.244362,-1.045455 l 0.79458,-0.0031 -0.07698,1.045455 c -0.203067,2.757685 -2.457965,5.164261 -5.95621,6.356858 -1.150275,0.392144 -1.434417,0.406647 -8.055966,0.411175 -3.775,0.0026 -6.8636364,-0.04571 -6.8636364,-0.10731 z"
       id="path3086" />
    <path
       style="fill:#ffffff"
       d="M 40.534943,54.165949 C 37.051226,52.978304 34.80465,50.612885 34.58717,47.903543 l -0.0915,-1.139907 0.79762,0.0031 c 0.796415,0.0031 0.7983,0.0047 1.247402,1.045455 0.270881,0.627755 0.849428,1.451576 1.454546,2.071197 1.547785,1.584882 1.836693,1.642972 8.822945,1.774001 6.052902,0.113523 6.086925,0.118042 7.159989,0.95083 0.460442,0.357343 1.462853,1.609052 1.471316,1.837233 0.0028,0.075 -3.083578,0.134251 -6.858578,0.131669 -6.621549,-0.0045 -6.905691,-0.01903 -8.055966,-0.411175 l 0,0 z"
       id="path3088" />
    <path
       style="fill:#ffffff"
       d="m 23.891437,44.081818 c 0.300669,-0.978599 0.648999,-2.770519 0.65133,-3.350649 0.0015,-0.367857 0.124491,-0.790635 0.273361,-0.939505 0.290792,-0.290792 1.897484,-0.699743 4.092963,-1.041781 1.781622,-0.277563 7.278995,-0.10598 9,0.280905 2.29676,0.516317 2.430646,0.586638 2.543406,1.33589 0.153727,1.021454 0.651881,3.493225 0.761682,3.779362 0.08259,0.215235 -1.238136,0.25396 -8.661524,0.25396 -8.257913,0 -8.753385,-0.0182 -8.661218,-0.318182 z"
       id="path3090" />
    <path
       style="fill:#ffffff"
       d="m 22.79016,36.536364 c -2.859131,-2.985186 -4.195692,-6.185074 -3.722145,-8.911268 0.436848,-2.514923 2.635675,-5.792724 5.739404,-8.555754 1.831001,-1.630011 4.36995,-3.584111 6.419854,-4.941037 l 1.318182,-0.872565 1.318181,0.874029 c 3.399862,2.2543 7.184346,5.428991 8.908957,7.473459 3.091202,3.664513 3.959883,6.597136 2.888092,9.750052 -0.498825,1.467411 -1.774749,3.475393 -3.141163,4.943396 L 41.522856,37.367442 39.9887,36.979804 c -2.621662,-0.662426 -4.148113,-0.829453 -7.534155,-0.824404 -3.276297,0.0049 -5.527067,0.267082 -7.623909,0.888125 -1.221284,0.36172 -1.204224,0.36596 -2.040476,-0.507161 l 0,0 z M 34,30.309091 l 0,-2.636364 1.553103,0 1.553102,0 -0.0531,-1.409091 L 37,24.854545 35.5,24.801738 34,24.74893 l 0,-1.62901 0,-1.629011 -1.454545,0 -1.454546,0 0,1.629011 0,1.62901 -1.5,0.05281 -1.5,0.05281 -0.0531,1.409091 -0.0531,1.409091 1.553103,0 1.553102,0 0,2.636364 0,2.636364 1.454546,0 1.454545,0 0,-2.636364 z"
       id="path3092" />
    <path
       style="fill:#ffffff"
       d="M 31.511359,10.133709 C 30.400813,9.6507115 30.24295,7.5200902 31.278871,6.9958962 c 0.55829,-0.2825047 1.831377,-0.2984945 2.419797,-0.030392 1.212819,0.5525969 1.039299,2.7780302 -0.251696,3.228073 -0.762576,0.265836 -1.219203,0.251713 -1.935613,-0.05987 z"
       id="path3094" />
  </g>
</svg>
