<?xml version="1.0" encoding="UTF-8" standalone="no"?>
<!-- Created with Inkscape (http://www.inkscape.org/) -->

<svg
   xmlns:dc="http://purl.org/dc/elements/1.1/"
   xmlns:cc="http://creativecommons.org/ns#"
   xmlns:rdf="http://www.w3.org/1999/02/22-rdf-syntax-ns#"
   xmlns:svg="http://www.w3.org/2000/svg"
   xmlns="http://www.w3.org/2000/svg"
   xmlns:sodipodi="http://sodipodi.sourceforge.net/DTD/sodipodi-0.dtd"
   xmlns:inkscape="http://www.inkscape.org/namespaces/inkscape"
   width="64px"
   height="64px"
   id="svg2816"
   version="1.1"
   inkscape:version="0.47 r22583"
   sodipodi:docname="wk.svg">
  <defs
     id="defs2818">
    <inkscape:perspective
       sodipodi:type="inkscape:persp3d"
       inkscape:vp_x="0 : 32 : 1"
       inkscape:vp_y="0 : 1000 : 0"
       inkscape:vp_z="64 : 32 : 1"
       inkscape:persp3d-origin="32 : 21.333333 : 1"
       id="perspective2824" />
  </defs>
  <sodipodi:namedview
     id="base"
     pagecolor="#ffffff"
     bordercolor="#666666"
     borderopacity="1.0"
     inkscape:pageopacity="0.0"
     inkscape:pageshadow="2"
     inkscape:zoom="5.5"
     inkscape:cx="32"
     inkscape:cy="32"
     inkscape:current-layer="layer1"
     showgrid="true"
     inkscape:document-units="px"
     inkscape:grid-bbox="true"
     inkscape:window-width="1365"
     inkscape:window-height="878"
     inkscape:window-x="-8"
     inkscape:window-y="-8"
     inkscape:window-maximized="1" />
  <metadata
     id="metadata2821">
    <rdf:RDF>
      <cc:Work
         rdf:about="">
        <dc:format>image/svg+xml</dc:format>
        <dc:type
           rdf:resource="http://purl.org/dc/dcmitype/StillImage" />
        <dc:title />
      </cc:Work>
    </rdf:RDF>
  </metadata>
  <g
     id="layer1"
     inkscape:label="Layer 1"
     inkscape:groupmode="layer">
    <text
       xml:space="preserve"
       style="font-size:64px;font-style:normal;font-weight:normal;fill:#000000;fill-opacity:1;stroke:none;font-family:Chess Alpha;-inkscape-font-specification:Chess Alpha"
       x="0.54545456"
       y="63.272728"
       id="text2826"><tspan
         sodipodi:role="line"
         id="tspan2828"
         x="0.54545456"
         y="63.272728">k</tspan></text>
    <path
       style="fill:#ffffff"
       d="m 17.473667,53.718182 c 0.08469,-0.475 0.20002,-1.126633 0.256278,-1.448073 0.08981,-0.513165 0.317615,-0.709864 1.867989,-1.612938 0.971136,-0.565675 1.997119,-1.170026 2.279962,-1.343003 l 0.514259,-0.314503 -1.829179,-1.07256 c -1.681957,-0.986235 -1.829441,-1.117322 -1.832441,-1.628718 -0.0018,-0.305887 0.09901,-0.687206 0.22401,-0.847376 0.494389,-0.633489 5.864953,-2.05942 9.404322,-2.496928 1.979882,-0.244737 6.393294,-0.244737 8.373175,0 3.539369,0.437508 8.909933,1.863439 9.404322,2.496928 0.125,0.16017 0.225805,0.541489 0.224011,0.847376 -0.003,0.511396 -0.150484,0.642483 -1.832442,1.628718 l -1.829178,1.07256 0.514258,0.314503 c 0.282843,0.172977 1.308825,0.777328 2.279962,1.343003 1.550374,0.903074 1.778178,1.099773 1.867989,1.612938 0.05626,0.32144 0.171583,0.973073 0.256278,1.448073 l 0.153993,0.863636 -15.22578,0 -15.22578,0 0.153992,-0.863636 z m 18.035558,-5.136364 c 0.767473,-0.45 1.393793,-0.859091 1.391822,-0.909091 -0.002,-0.05 -0.973892,-0.686116 -2.159827,-1.413592 l -2.156243,-1.322684 -2.196267,1.318905 c -1.207947,0.725398 -2.131176,1.383996 -2.051621,1.463551 0.07956,0.07955 1.038528,0.706414 2.131051,1.393018 l 1.986405,1.248373 0.829637,-0.480149 c 0.4563,-0.264082 1.457569,-0.848331 2.225043,-1.298331 z"
       id="path3126" />
    <path
       style="fill:#ffffff"
       d="M 15.592412,41.354545 C 12.424771,38.254184 9.9879385,34.659232 9.1090591,31.789939 8.6603358,30.324984 8.5987991,27.896367 8.9747914,26.490909 9.7546681,23.575733 12.607464,20.603016 15.727273,19.45458 c 1.414873,-0.520831 3.588416,-0.555125 4.967686,-0.07838 1.392883,0.48145 3.431769,1.910265 4.80861,3.369789 3.161726,3.351596 5.385396,9.350523 5.713413,15.413416 l 0.109943,2.032131 -0.618007,0.09522 c -0.339905,0.05237 -1.272554,0.143882 -2.072554,0.203362 -2.212394,0.164489 -5.727063,0.926223 -8.43061,1.827169 -1.336836,0.445494 -2.514206,0.809989 -2.616378,0.809989 -0.102172,0 -1.000806,-0.797728 -1.996964,-1.772728 z"
       id="path3128" />
    <path
       style="fill:#ffffff"
       d="M 45.047254,42.385764 C 42.582046,41.509656 39.470893,40.8082 36.954435,40.561118 35.879496,40.455575 34.721901,40.329242 34.382003,40.28038 l -0.617996,-0.08884 0.109912,-2.123044 c 0.335617,-6.482739 2.71999,-12.49234 6.315155,-15.91679 3.831964,-3.650006 7.468526,-4.124057 11.43062,-1.490063 0.690124,0.458794 1.714737,1.330989 2.276919,1.938212 1.761218,1.902326 2.461227,3.714685 2.464865,6.381666 0.0037,2.687821 -1.096685,5.359683 -3.570367,8.669513 -1.454539,1.9462 -4.97652,5.482397 -5.430554,5.452475 -0.198306,-0.01307 -1.239293,-0.336055 -2.313303,-0.717747 l 0,0 z"
       id="path3130" />
    <path
       style="fill:#ffffff"
       d="m 31.949258,29.354151 c -0.626403,-1.971756 -1.84815,-4.557477 -2.85154,-6.035033 l -0.760199,-1.119443 1.032541,-1.262072 c 2.709305,-3.311578 3.845002,-3.173847 7.045172,0.854396 0.317131,0.399192 0.309949,0.428253 -0.323917,1.310548 -0.986696,1.373409 -2.19868,3.90645 -2.860219,5.977847 -0.327103,1.024217 -0.635641,1.862676 -0.685641,1.863243 -0.05,5.63e-4 -0.318289,-0.714702 -0.596197,-1.589486 l 0,0 z"
       id="path3132" />
  </g>
</svg>
