<?xml version="1.0" encoding="UTF-8" standalone="no"?>
<!-- Created with Inkscape (http://www.inkscape.org/) -->

<svg
   xmlns:dc="http://purl.org/dc/elements/1.1/"
   xmlns:cc="http://creativecommons.org/ns#"
   xmlns:rdf="http://www.w3.org/1999/02/22-rdf-syntax-ns#"
   xmlns:svg="http://www.w3.org/2000/svg"
   xmlns="http://www.w3.org/2000/svg"
   xmlns:sodipodi="http://sodipodi.sourceforge.net/DTD/sodipodi-0.dtd"
   xmlns:inkscape="http://www.inkscape.org/namespaces/inkscape"
   width="64px"
   height="64px"
   id="svg2816"
   version="1.1"
   inkscape:version="0.47 r22583"
   sodipodi:docname="wp.svg">
  <defs
     id="defs2818">
    <inkscape:perspective
       sodipodi:type="inkscape:persp3d"
       inkscape:vp_x="0 : 32 : 1"
       inkscape:vp_y="0 : 1000 : 0"
       inkscape:vp_z="64 : 32 : 1"
       inkscape:persp3d-origin="32 : 21.333333 : 1"
       id="perspective2824" />
  </defs>
  <sodipodi:namedview
     id="base"
     pagecolor="#ffffff"
     bordercolor="#666666"
     borderopacity="1.0"
     inkscape:pageopacity="0.0"
     inkscape:pageshadow="2"
     inkscape:zoom="5.5"
     inkscape:cx="32"
     inkscape:cy="32"
     inkscape:current-layer="layer1"
     showgrid="true"
     inkscape:document-units="px"
     inkscape:grid-bbox="true"
     inkscape:window-width="1365"
     inkscape:window-height="878"
     inkscape:window-x="-8"
     inkscape:window-y="-8"
     inkscape:window-maximized="1" />
  <metadata
     id="metadata2821">
    <rdf:RDF>
      <cc:Work
         rdf:about="">
        <dc:format>image/svg+xml</dc:format>
        <dc:type
           rdf:resource="http://purl.org/dc/dcmitype/StillImage" />
        <dc:title />
      </cc:Work>
    </rdf:RDF>
  </metadata>
  <g
     id="layer1"
     inkscape:label="Layer 1"
     inkscape:groupmode="layer">
    <text
       xml:space="preserve"
       style="font-size:64px;font-style:normal;font-weight:normal;fill:#000000;fill-opacity:1;stroke:none;font-family:Chess Alpha;-inkscape-font-specification:Chess Alpha"
       x="0.54545456"
       y="63.272728"
       id="text2826"><tspan
         sodipodi:role="line"
         id="tspan2828"
         x="0.54545456"
         y="63.272728">p</tspan></text>
    <path
       style="fill:#ffffff"
       d="m 16.909091,53.911949 c 0,-1.471587 1.243892,-3.056898 3.818182,-4.866182 1.681265,-1.181641 3.922016,-3.505543 5.026748,-5.213284 1.603051,-2.478063 2.914289,-5.96255 3.431586,-9.119109 0.151156,-0.922356 0.31812,-1.942919 0.371031,-2.267919 l 0.0962,-0.59091 2.892614,0 2.892612,0 0.0962,0.59091 c 0.05291,0.325 0.219876,1.345563 0.371031,2.267919 0.517298,3.156559 1.828534,6.641046 3.431585,9.119109 1.104093,1.706753 3.312024,3.991283 5.116329,5.29383 2.52692,1.824211 3.728602,3.384516 3.728602,4.841345 l 0,0.61416 -15.636363,0 -15.636364,0 0,-0.669869 z"
       id="path3166" />
    <path
       style="fill:#ffffff"
       d="m 27.802489,26.734349 3.463006,-2.938379 -1.012194,-0.411387 c -2.028065,-0.824266 -2.941515,-2.097358 -3.11079,-4.335562 -0.132219,-1.748241 0.251114,-3.049332 1.224064,-4.154661 2.196489,-2.495344 6.147168,-2.511364 8.328033,-0.03377 0.973543,1.106003 1.38368,2.470984 1.254737,4.175902 -0.170296,2.251717 -1.079464,3.522115 -3.111737,4.348092 l -1.012194,0.411387 3.463006,2.938379 3.463007,2.938378 -8.205972,0 -8.205973,0 3.463007,-2.938378 z"
       id="path3168" />
  </g>
</svg>
