<?xml version="1.0" encoding="UTF-8" standalone="no"?>
<!-- Created with Inkscape (http://www.inkscape.org/) -->

<svg
   xmlns:dc="http://purl.org/dc/elements/1.1/"
   xmlns:cc="http://creativecommons.org/ns#"
   xmlns:rdf="http://www.w3.org/1999/02/22-rdf-syntax-ns#"
   xmlns:svg="http://www.w3.org/2000/svg"
   xmlns="http://www.w3.org/2000/svg"
   xmlns:sodipodi="http://sodipodi.sourceforge.net/DTD/sodipodi-0.dtd"
   xmlns:inkscape="http://www.inkscape.org/namespaces/inkscape"
   width="64px"
   height="64px"
   id="svg2816"
   version="1.1"
   inkscape:version="0.47 r22583"
   sodipodi:docname="wq.svg">
  <defs
     id="defs2818">
    <inkscape:perspective
       sodipodi:type="inkscape:persp3d"
       inkscape:vp_x="0 : 32 : 1"
       inkscape:vp_y="0 : 1000 : 0"
       inkscape:vp_z="64 : 32 : 1"
       inkscape:persp3d-origin="32 : 21.333333 : 1"
       id="perspective2824" />
  </defs>
  <sodipodi:namedview
     id="base"
     pagecolor="#ffffff"
     bordercolor="#666666"
     borderopacity="1.0"
     inkscape:pageopacity="0.0"
     inkscape:pageshadow="2"
     inkscape:zoom="5.5"
     inkscape:cx="32"
     inkscape:cy="32"
     inkscape:current-layer="layer1"
     showgrid="true"
     inkscape:document-units="px"
     inkscape:grid-bbox="true"
     inkscape:window-width="1365"
     inkscape:window-height="878"
     inkscape:window-x="-8"
     inkscape:window-y="-8"
     inkscape:window-maximized="1" />
  <metadata
     id="metadata2821">
    <rdf:RDF>
      <cc:Work
         rdf:about="">
        <dc:format>image/svg+xml</dc:format>
        <dc:type
           rdf:resource="http://purl.org/dc/dcmitype/StillImage" />
        <dc:title />
      </cc:Work>
    </rdf:RDF>
  </metadata>
  <g
     id="layer1"
     inkscape:label="Layer 1"
     inkscape:groupmode="layer">
    <text
       xml:space="preserve"
       style="font-size:64px;font-style:normal;font-weight:normal;fill:#000000;fill-opacity:1;stroke:none;font-family:Chess Alpha;-inkscape-font-specification:Chess Alpha"
       x="0.54545456"
       y="63.272728"
       id="text2826"><tspan
         sodipodi:role="line"
         id="tspan2828"
         x="0.54545456"
         y="63.272728">q</tspan></text>
    <path
       style="fill:#ffffff"
       d="m 17.901308,53.9 c 0.144101,-0.375 0.346132,-1.009091 0.448958,-1.409091 0.17191,-0.668734 0.356015,-0.835383 2.287311,-2.070429 1.155194,-0.738736 2.05147,-1.393281 1.991724,-1.454545 -0.05975,-0.06126 -0.859871,-0.567263 -1.778056,-1.124442 -1.483254,-0.900077 -1.669427,-1.071401 -1.669427,-1.536273 0,-0.503164 0.07667,-0.549499 2,-1.208678 4.873258,-1.670201 8.313581,-2.252309 12.423365,-2.102054 2.902528,0.106118 4.759088,0.437035 8.303908,1.480104 3.537611,1.040948 4,1.254649 4,1.848667 0,0.44213 -0.208364,0.631623 -1.669427,1.518234 -0.918184,0.557179 -1.718309,1.063178 -1.778055,1.124442 -0.05975,0.06126 0.8194,0.705868 1.953658,1.432454 l 2.062291,1.321064 0.464347,1.431183 0.464348,1.431182 -14.883473,0 -14.883472,0 0.262,-0.681818 z m 16.925837,-4.248256 c 1.155322,-0.711541 2.068286,-1.32601 2.028808,-1.365487 -0.202689,-0.202691 -4.188252,-2.61353 -4.320646,-2.61353 -0.180609,0 -3.795465,2.138945 -4.116066,2.435516 -0.1631,0.150874 0.289285,0.52513 1.818182,1.504172 1.119417,0.716828 2.137417,1.31001 2.262221,1.318182 0.124804,0.0082 1.17218,-0.567312 2.327501,-1.278853 z"
       id="path3230" />
    <path
       style="fill:#ffffff"
       d="m 18.623161,42.809091 c -0.752773,-3.389653 -1.716315,-6.040004 -3.477303,-9.564775 -0.642302,-1.285626 -1.126196,-2.37913 -1.075318,-2.430008 0.05088,-0.05088 1.45327,0.86764 3.116426,2.04115 1.663157,1.17351 3.090005,2.062467 3.170773,1.975462 0.08077,-0.087 0.936313,-4.044556 1.90121,-8.794556 0.964896,-4.75 1.81602,-8.830333 1.891385,-9.067407 0.112927,-0.35523 0.853491,1.059827 4.210556,8.045455 2.24044,4.662073 4.123494,8.476497 4.184565,8.476497 0.06107,0 1.944125,-3.814424 4.184565,-8.476497 3.357064,-6.985628 4.097627,-8.400685 4.210555,-8.045455 0.07536,0.237074 0.926489,4.317407 1.891385,9.067407 0.964896,4.75 1.820442,8.707551 1.901209,8.794556 0.08077,0.087 1.507616,-0.801952 3.170773,-1.975462 1.663158,-1.17351 3.061229,-2.096348 3.106825,-2.050751 0.0456,0.0456 -0.41002,1.057282 -1.012485,2.24819 -1.445009,2.85639 -2.472202,5.513958 -3.116442,8.062908 -0.289065,1.143695 -0.551485,2.105355 -0.583155,2.137026 -0.03167,0.03167 -1.032285,-0.261616 -2.223589,-0.651746 -4.651807,-1.523381 -7.715221,-2.0746 -11.529641,-2.0746 -3.813898,0 -6.877921,0.55125 -11.527632,2.07394 -1.190197,0.389766 -2.190911,0.708666 -2.223808,0.708666 -0.0329,0 -0.109782,-0.225 -0.170854,-0.5 z"
       id="path3232" />
    <path
       style="fill:#ffffff"
       d="m 7.9403714,26.028485 c -0.8093728,-0.636652 -0.870709,-2.152693 -0.1175648,-2.905837 0.2601415,-0.260142 0.6052756,-0.359012 1.2532321,-0.359012 1.1545213,0 1.4253343,0.114633 1.7488673,0.740277 C 11.561403,24.928141 10.745917,26.4 9.220324,26.4 8.6822752,26.4 8.2550169,26.275985 7.9403714,26.028485 z"
       id="path3234" />
    <path
       style="fill:#ffffff"
       d="m 22.513637,13.847614 c -0.427178,-0.249245 -0.753298,-1.355004 -0.615797,-2.08795 0.344504,-1.8363625 3.315984,-1.8277134 3.660864,0.01066 0.273839,1.459687 -0.365376,2.268743 -1.785977,2.260515 -0.525,-0.003 -1.09159,-0.08549 -1.25909,-0.183221 z"
       id="path3236" />
    <path
       style="fill:#ffffff"
       d="m 40.004625,13.677352 c -0.459,-0.459 -0.621222,-1.113848 -0.47242,-1.907032 0.34488,-1.8383694 3.31636,-1.8470185 3.660864,-0.01066 0.142428,0.759208 -0.19708,1.853763 -0.650222,2.096277 -0.610821,0.326901 -2.14035,0.219284 -2.538222,-0.178589 z"
       id="path3238" />
    <path
       style="fill:#ffffff"
       d="m 54.531469,25.868531 c -0.607534,-0.607533 -0.708592,-1.507707 -0.265466,-2.364618 0.323533,-0.625644 0.594346,-0.740277 1.748867,-0.740277 1.357764,0 1.994023,0.835505 1.725653,2.266044 -0.260526,1.388719 -2.16211,1.885796 -3.209054,0.838851 z"
       id="path3240" />
  </g>
</svg>
