<?xml version="1.0" encoding="UTF-8" standalone="no"?>
<!-- Created with Inkscape (http://www.inkscape.org/) -->

<svg
   xmlns:dc="http://purl.org/dc/elements/1.1/"
   xmlns:cc="http://creativecommons.org/ns#"
   xmlns:rdf="http://www.w3.org/1999/02/22-rdf-syntax-ns#"
   xmlns:svg="http://www.w3.org/2000/svg"
   xmlns="http://www.w3.org/2000/svg"
   xmlns:sodipodi="http://sodipodi.sourceforge.net/DTD/sodipodi-0.dtd"
   xmlns:inkscape="http://www.inkscape.org/namespaces/inkscape"
   width="64px"
   height="64px"
   id="svg2816"
   version="1.1"
   inkscape:version="0.47 r22583"
   sodipodi:docname="wr.svg">
  <defs
     id="defs2818">
    <inkscape:perspective
       sodipodi:type="inkscape:persp3d"
       inkscape:vp_x="0 : 32 : 1"
       inkscape:vp_y="0 : 1000 : 0"
       inkscape:vp_z="64 : 32 : 1"
       inkscape:persp3d-origin="32 : 21.333333 : 1"
       id="perspective2824" />
  </defs>
  <sodipodi:namedview
     id="base"
     pagecolor="#ffffff"
     bordercolor="#666666"
     borderopacity="1.0"
     inkscape:pageopacity="0.0"
     inkscape:pageshadow="2"
     inkscape:zoom="5.5"
     inkscape:cx="32"
     inkscape:cy="32"
     inkscape:current-layer="layer1"
     showgrid="true"
     inkscape:document-units="px"
     inkscape:grid-bbox="true"
     inkscape:window-width="1365"
     inkscape:window-height="878"
     inkscape:window-x="-8"
     inkscape:window-y="-8"
     inkscape:window-maximized="1" />
  <metadata
     id="metadata2821">
    <rdf:RDF>
      <cc:Work
         rdf:about="">
        <dc:format>image/svg+xml</dc:format>
        <dc:type
           rdf:resource="http://purl.org/dc/dcmitype/StillImage" />
        <dc:title />
      </cc:Work>
    </rdf:RDF>
  </metadata>
  <g
     id="layer1"
     inkscape:label="Layer 1"
     inkscape:groupmode="layer">
    <text
       xml:space="preserve"
       style="font-size:64px;font-style:normal;font-weight:normal;fill:#000000;fill-opacity:1;stroke:none;font-family:Chess Alpha;-inkscape-font-specification:Chess Alpha"
       x="0.54545456"
       y="63.272728"
       id="text2826"><tspan
         sodipodi:role="line"
         id="tspan2828"
         x="0.54545456"
         y="63.272728">r</tspan></text>
    <path
       style="fill:#ffffff"
       d="m 15.346296,53.172727 c 0.06805,-0.775 0.170026,-1.818285 0.226615,-2.318411 l 0.102888,-0.909321 2.523395,-1.863406 2.523395,-1.863407 11.822866,0 11.822865,0 2.523395,1.863407 2.523396,1.863406 0.102887,0.909321 c 0.05659,0.500126 0.158566,1.543411 0.226615,2.318411 l 0.123725,1.409091 -17.322883,0 -17.322885,0 0.123726,-1.409091 z"
       id="path3216" />
    <path
       style="fill:#ffffff"
       d="m 20.909091,43.534006 c 0,-0.176297 0.286186,-4.164933 0.635969,-8.863636 0.349783,-4.698704 0.636146,-8.64537 0.636363,-8.77037 3.12e-4,-0.179155 2.194545,-0.227273 10.364032,-0.227273 8.169487,0 10.36372,0.04812 10.36403,0.227273 1.82e-4,0.125 0.286582,4.071666 0.636364,8.77037 0.349784,4.698703 0.635969,8.687339 0.635969,8.863636 0,0.302834 -0.64272,0.320539 -11.636363,0.320539 -10.993644,0 -11.636364,-0.0177 -11.636364,-0.320539 z"
       id="path3218" />
    <path
       style="fill:#ffffff"
       d="m 19.975911,21.489142 -2.296817,-1.63795 -0.109386,-1.498323 c -0.06016,-0.824078 -0.16212,-2.418778 -0.226574,-3.543778 l -0.11719,-2.045455 2.114301,0 2.1143,0 0,2.272728 0,2.272727 4.454546,0 4.454545,0 0,-2.272727 0,-2.272728 2.181819,0 2.181818,0 0,2.272728 0,2.272727 4.454545,0 4.454546,0 0,-2.272727 0,-2.272728 2.1143,0 2.114301,0 -0.117189,2.045455 c -0.06445,1.125 -0.166414,2.7197 -0.226576,3.543778 l -0.109385,1.498323 -2.296817,1.63795 -2.296816,1.637949 -10.272727,0 -10.272728,0 -2.296816,-1.637949 z"
       id="path3220" />
  </g>
</svg>
