<?xml version="1.0" encoding="UTF-8" standalone="no"?>
<!-- Created with Inkscape (http://www.inkscape.org/) -->
<svg
   xmlns:dc="http://purl.org/dc/elements/1.1/"
   xmlns:cc="http://web.resource.org/cc/"
   xmlns:rdf="http://www.w3.org/1999/02/22-rdf-syntax-ns#"
   xmlns:svg="http://www.w3.org/2000/svg"
   xmlns="http://www.w3.org/2000/svg"
   xmlns:xlink="http://www.w3.org/1999/xlink"
   xmlns:sodipodi="http://inkscape.sourceforge.net/DTD/sodipodi-0.dtd"
   xmlns:inkscape="http://www.inkscape.org/namespaces/inkscape"
   width="700pt"
   height="700pt"
   id="svg36220"
   sodipodi:version="0.32"
   inkscape:version="0.43"
   version="1.0"
   inkscape:export-filename="/home/maurizio/out/bn.png"
   inkscape:export-xdpi="90"
   inkscape:export-ydpi="90"
   sodipodi:docbase="/home/maurizio/out1"
   sodipodi:docname="skull.svg">
  <defs
     id="defs36222">
    <linearGradient
       id="linearGradient5175">
      <stop
         style="stop-color:#ffffff;stop-opacity:1;"
         offset="0"
         id="stop5177" />
      <stop
         style="stop-color:#000000;stop-opacity:1;"
         offset="1"
         id="stop5179" />
    </linearGradient>
    <linearGradient
       inkscape:collect="always"
       xlink:href="#linearGradient5175"
       id="linearGradient5181"
       x1="236.1839"
       y1="299.5538"
       x2="619.89868"
       y2="718.16101"
       gradientUnits="userSpaceOnUse"
       gradientTransform="matrix(0.835187,0,0,0.917964,61.07502,61.00731)" />
    <linearGradient
       inkscape:collect="always"
       xlink:href="#linearGradient5175"
       id="linearGradient5189"
       x1="508.63553"
       y1="493.57452"
       x2="603.85291"
       y2="818.84363"
       gradientUnits="userSpaceOnUse"
       gradientTransform="matrix(0.835187,0,0,0.917964,61.07502,61.00731)" />
    <linearGradient
       inkscape:collect="always"
       xlink:href="#linearGradient5175"
       id="linearGradient5209"
       x1="588.7981"
       y1="217.56953"
       x2="720.76361"
       y2="435.35843"
       gradientUnits="userSpaceOnUse"
       gradientTransform="matrix(1.032326,0,0,0.962283,-3.629279,48.87955)" />
    <linearGradient
       inkscape:collect="always"
       xlink:href="#linearGradient5175"
       id="linearGradient2365"
       x1="317.82336"
       y1="251.51895"
       x2="667.58679"
       y2="928.92725"
       gradientUnits="userSpaceOnUse"
       gradientTransform="matrix(1.103423,0,0,1.103423,-22.33938,-11.03742)" />
    <linearGradient
       inkscape:collect="always"
       xlink:href="#linearGradient5175"
       id="linearGradient2373"
       x1="403.64108"
       y1="286.73438"
       x2="507.12466"
       y2="636.0451"
       gradientUnits="userSpaceOnUse"
       gradientTransform="matrix(1.103423,0,0,1.103423,-22.33938,-11.03742)" />
  </defs>
  <sodipodi:namedview
     id="base"
     pagecolor="#ffffff"
     bordercolor="#666666"
     borderopacity="1.0"
     inkscape:pageopacity="0.0"
     inkscape:pageshadow="2"
     inkscape:zoom="0.3535534"
     inkscape:cx="324.9247"
     inkscape:cy="443.56011"
     inkscape:current-layer="layer1"
     inkscape:document-units="px"
     inkscape:window-width="838"
     inkscape:window-height="720"
     inkscape:window-x="83"
     inkscape:window-y="60" />
  <metadata
     id="metadata36225">
    <rdf:RDF>
      <cc:Work
         rdf:about="">
        <dc:format>image/svg+xml</dc:format>
        <dc:type
           rdf:resource="http://purl.org/dc/dcmitype/StillImage" />
        <dc:publisher>
          <cc:Agent>
            <dc:title />
          </cc:Agent>
        </dc:publisher>
        <dc:creator>
          <cc:Agent>
            <dc:title>Maurizio Monge</dc:title>
          </cc:Agent>
        </dc:creator>
        <cc:license
           rdf:resource="http://creativecommons.org/licenses/GPL/2.0/" />
      </cc:Work>
      <cc:License
         rdf:about="http://creativecommons.org/licenses/GPL/2.0/">
        <cc:permits
           rdf:resource="http://web.resource.org/cc/Reproduction" />
        <cc:permits
           rdf:resource="http://web.resource.org/cc/Distribution" />
        <cc:requires
           rdf:resource="http://web.resource.org/cc/Notice" />
        <cc:permits
           rdf:resource="http://web.resource.org/cc/DerivativeWorks" />
        <cc:requires
           rdf:resource="http://web.resource.org/cc/ShareAlike" />
        <cc:requires
           rdf:resource="http://web.resource.org/cc/SourceCode" />
      </cc:License>
    </rdf:RDF>
  </metadata>
  <g
     id="layer1"
     inkscape:label="Layer 1"
     inkscape:groupmode="layer">
    <path
       style="fill:url(#linearGradient2365);fill-opacity:1;fill-rule:evenodd;stroke:#000000;stroke-width:17.6547699;stroke-linecap:round;stroke-linejoin:round;stroke-miterlimit:4;stroke-dasharray:none;stroke-opacity:1"
       d="M 224.82737,336.54085 C 225.77897,279.57 251.25955,225.99404 291.24357,187.05104 C 322.22453,156.8767 357.17067,136.16688 398.15023,123.78423 C 435.93592,112.36666 486.83774,113.17162 524.46321,124.02574 C 570.2516,137.23469 604.79308,155.04728 641.17893,185.76688 C 696.34299,232.34042 715.90241,319.07524 700.24957,348.56827 C 693.95654,379.91941 656.12201,486.46418 641.36636,533.52977 C 629.16351,562.6291 630.37887,595.6548 628.68019,626.74112 C 633.05316,662.29523 617.22494,696.20657 598.8323,725.4121 C 579.65394,745.93589 553.02207,754.56758 536.11126,776.53598 C 512.8907,806.70123 482.71389,778.49629 459.84151,783.76387 C 430.82015,779.04993 400.60544,810.09397 381.6324,775.00585 C 363.06635,740.67043 317.7458,725.0436 294.93356,692.67885 C 271.98051,676.73802 280.05431,644.92047 278.9812,620.9185 C 281.77558,578.04921 279.64665,533.62703 260.67954,494.2969 C 258.8219,488.85587 231.7098,384.24928 224.82737,336.54085 z "
       id="path1328"
       sodipodi:nodetypes="cssssccccscscccc" />
    <path
       style="fill:url(#linearGradient2373);fill-opacity:1;fill-rule:evenodd;stroke:#000000;stroke-width:17.6547699;stroke-linecap:round;stroke-linejoin:round;stroke-miterlimit:4;stroke-dasharray:none;stroke-opacity:1"
       d="M 294.43723,351.84635 C 288.76757,381.92544 296.38692,419.8825 263.79468,437.48371 C 241.92302,457.81417 225.66577,507.07719 251.95237,536.24358 C 296.60934,557.61881 330.7765,546.55512 340.86088,604.96558 C 345.74059,657.20196 397.82886,660.40848 427.69798,657.42577 C 460.48172,657.95873 506.584,659.33655 537.7721,657.11709 C 580.82759,655.53001 564.17009,568.47968 610.93952,566.86105 C 656.18101,561.31319 677.31024,520.7843 674.90701,481.08858 C 661.68347,447.40671 637.24166,418.68873 647.10474,378.64218"
       id="path2239"
       sodipodi:nodetypes="ccccccccc" />
    <path
       style="fill:#000000;fill-opacity:1;fill-rule:evenodd;stroke:none;stroke-width:16;stroke-linecap:round;stroke-linejoin:round;stroke-miterlimit:4;stroke-dasharray:none;stroke-opacity:1"
       d="M 513.06067,401.51383 C 498.13231,419.71326 495.45494,426.46661 491.64317,450.29593 C 492.0027,465.87854 511.18777,485.56778 524.15415,492.37526 C 542.79492,502.93471 560.41483,502.78958 581.96139,497.92499 C 593.79485,495.61383 609.32025,487.39863 610.9899,474.61696 C 614.01056,459.5752 620.5678,412.99073 613.40674,405.59919 C 603.61375,397.08392 567.99816,389.19072 555.93486,386.30736 C 548.77976,382.67433 519.05138,395.35836 513.06067,401.51383 z "
       id="path2206"
       sodipodi:nodetypes="cccccccc" />
    <path
       style="fill:#000000;fill-opacity:1;fill-rule:evenodd;stroke:none;stroke-width:16;stroke-linecap:round;stroke-linejoin:round;stroke-miterlimit:4;stroke-dasharray:none;stroke-opacity:1"
       d="M 328.76766,394.24692 C 315.12911,408.33988 309.69758,419.40174 312.36648,447.22105 C 314.27617,463.63319 315.50697,481.56131 328.27962,492.62194 C 371.69883,499.91621 410.57182,487.15526 417.5783,473.71479 C 432.01658,456.21229 436.4246,444.38307 437.03375,422.59605 C 434.82777,400.0682 414.22707,381.42486 393.63678,384.31505 C 374.835,386.60451 358.28675,378.90848 328.76766,394.24692 z "
       id="path2204"
       sodipodi:nodetypes="ccccccc" />
    <path
       style="fill:#000000;fill-opacity:1;fill-rule:evenodd;stroke:none;stroke-width:16;stroke-linecap:round;stroke-linejoin:round;stroke-miterlimit:4;stroke-dasharray:none;stroke-opacity:1"
       d="M 463.80428,452.89863 C 458.22781,454.73592 453.75543,468.9115 451.16631,474.24458 C 441.43241,498.0228 426.82014,534.86679 433.16601,552.46797 C 440.67018,557.1648 455.29159,544.5209 460.83503,546.46422 C 467.51915,548.03862 475.63943,556.19115 486.20839,554.36173 C 494.46869,557.92189 486.86519,490.86354 477.24009,475.98147 C 472.94867,464.81468 470.78791,450.59772 463.80428,452.89863 z "
       id="path2228"
       sodipodi:nodetypes="ccccccs" />
    <path
       style="fill:none;fill-opacity:1;fill-rule:evenodd;stroke:#000000;stroke-width:17.6547699;stroke-linecap:butt;stroke-linejoin:round;stroke-miterlimit:4;stroke-dasharray:none;stroke-opacity:1"
       d="M 338.88781,589.30642 C 352.04864,623.29758 337.00088,661.86157 366.47356,674.8257 C 397.80961,684.19506 427.22084,688.12424 459.7806,687.32042 C 500.91999,679.50334 539.61529,696.02355 564.84153,661.72736 C 574.28849,640.58439 569.61905,604.07377 585.48893,586.4532"
       id="path2244"
       sodipodi:nodetypes="ccccc" />
    <path
       style="fill:#ffffff;fill-opacity:1;fill-rule:evenodd;stroke:#000000;stroke-width:8.82738495;stroke-linecap:butt;stroke-linejoin:round;stroke-miterlimit:4;stroke-dasharray:none;stroke-opacity:1"
       d="M 446.61541,612.39662 C 444.74485,614.3503 438.4279,618.84083 435.58118,624.53427 C 433.45428,628.78806 433.19154,640.71334 432.27091,644.39588 C 430.30844,652.24578 433.30819,654.84533 438.89145,657.63696 C 443.96509,660.17378 449.67389,658.31456 453.23595,656.53354 C 458.21132,654.04585 457.52293,649.31639 458.75306,644.39588 C 460.0361,639.26374 458.75306,632.02532 458.75306,626.74112 C 458.75306,619.9724 458.12577,617.28644 454.33937,613.50004 C 451.15423,610.3149 454.29673,610.86035 446.61541,612.39662 z "
       id="path2275"
       sodipodi:nodetypes="csssssssc" />
    <path
       style="fill:#ffffff;fill-opacity:1;fill-rule:evenodd;stroke:#000000;stroke-width:8.82738495;stroke-linecap:butt;stroke-linejoin:round;stroke-miterlimit:4;stroke-dasharray:none;stroke-opacity:1"
       d="M 465.3736,612.39662 C 465.30954,612.33255 460.64027,624.70939 459.85649,627.84454 C 458.6281,632.75807 462.24215,638.16348 460.95991,643.29246 C 459.15335,650.51867 457.76746,653.28218 462.06333,655.43012 C 467.74212,658.26951 470.7571,658.43112 476.40783,659.84381 C 483.17165,661.53476 487.37049,656.26115 489.64891,653.22327 C 492.50161,649.41967 488.09914,640.40367 487.44206,637.77535 C 485.94349,631.78107 483.63937,627.96312 480.82152,622.32742 C 479.20737,619.09912 473.39309,616.48024 470.89072,614.60346 C 469.30615,613.41503 467.21264,613.13222 465.3736,612.39662 z "
       id="path2277"
       sodipodi:nodetypes="cssssssssc" />
    <path
       style="fill:#ffffff;fill-opacity:1;fill-rule:evenodd;stroke:#000000;stroke-width:8.82738495;stroke-linecap:butt;stroke-linejoin:round;stroke-miterlimit:4;stroke-dasharray:none;stroke-opacity:1"
       d="M 489.64891,616.81031 C 484.05823,612.6173 489.64891,630.78699 489.64891,637.77535 C 489.64891,643.0463 489.85205,649.62213 490.75233,653.22327 C 491.55402,656.43003 501.71236,655.96327 503.99341,656.53354 C 511.03061,658.29284 515.8094,653.86659 518.33791,648.80958 C 520.66924,644.14691 515.02764,637.46202 515.02764,632.25823 C 515.02764,623.64966 511.51551,618.74801 508.4071,614.60346 C 504.01062,608.74149 493.14352,614.01462 489.64891,616.81031 z "
       id="path2279" />
    <path
       style="fill:#ffffff;fill-opacity:1;fill-rule:evenodd;stroke:#000000;stroke-width:8.82738495;stroke-linecap:butt;stroke-linejoin:round;stroke-miterlimit:4;stroke-dasharray:none;stroke-opacity:1"
       d="M 522.7516,613.50004 C 522.72695,613.46717 520.54475,628.50186 520.54475,633.36165 C 520.54475,639.74307 519.53308,643.47596 521.64818,647.70615 C 522.88431,650.17841 533.3112,650.70201 534.88925,649.913 C 541.27985,646.7177 540.40637,634.78297 540.40637,627.84454 C 540.40637,623.27 534.1827,615.90531 531.57899,614.60346 C 528.28079,612.95436 527.6998,613.50004 522.7516,613.50004 z "
       id="path2281"
       sodipodi:nodetypes="csssssc" />
    <path
       style="fill:#ffffff;fill-opacity:1;fill-rule:evenodd;stroke:#000000;stroke-width:8.82738495;stroke-linecap:butt;stroke-linejoin:round;stroke-miterlimit:4;stroke-dasharray:none;stroke-opacity:1"
       d="M 543.71664,611.29319 C 537.12887,607.99931 542.61322,625.99631 542.61322,633.36165 C 542.61322,640.71418 539.12137,642.68256 543.71664,648.80958 C 547.12176,653.34974 552.90531,644.76695 555.85429,643.29246 C 559.09675,641.67122 558.06114,631.31316 558.06114,627.84454 C 558.06114,622.1535 555.67678,616.4553 553.64745,612.39662 C 551.89507,608.89187 545.91787,610.85295 543.71664,611.29319 z "
       id="path2283" />
    <path
       style="fill:#ffffff;fill-opacity:1;fill-rule:evenodd;stroke:#000000;stroke-width:8.82738495;stroke-linecap:butt;stroke-linejoin:round;stroke-miterlimit:4;stroke-dasharray:none;stroke-opacity:1"
       d="M 407.9956,614.60346 C 408.02169,614.55129 410.20245,628.4176 410.20245,633.36165 C 410.20245,637.02752 411.4689,644.10764 412.40929,648.80958 C 413.79569,655.74155 406.79422,654.32669 401.37506,654.32669 C 395.41165,654.32669 392.16873,649.40773 389.23741,645.49931 C 386.94576,642.44376 389.55213,629.89596 390.34083,626.74112 C 391.68921,621.34764 396.91886,618.48669 400.27164,616.81031 C 403.63448,615.12889 401.98546,615.80549 407.9956,614.60346 z "
       id="path2287" />
    <path
       style="fill:#ffffff;fill-opacity:1;fill-rule:evenodd;stroke:#000000;stroke-width:8.82738495;stroke-linecap:butt;stroke-linejoin:round;stroke-miterlimit:4;stroke-dasharray:none;stroke-opacity:1"
       d="M 383.7203,620.12058 C 387.14998,618.40574 383.7203,632.4535 383.7203,636.67192 C 383.7203,643.15563 386.57451,644.20456 383.7203,649.913 C 381.43309,654.48741 370.29465,648.16558 369.3758,647.70615 C 364.92448,645.48049 364.9621,638.48123 364.9621,633.36165 C 364.9621,627.93858 369.52575,621.72759 370.47922,617.91373 C 373.22088,606.94709 380.73268,616.38605 383.7203,620.12058 z "
       id="path2289"
       sodipodi:nodetypes="csssssc" />
    <path
       style="fill:#ffffff;fill-opacity:1;fill-rule:evenodd;stroke:#000000;stroke-width:8.82738495;stroke-linecap:butt;stroke-linejoin:round;stroke-miterlimit:4;stroke-dasharray:none;stroke-opacity:1"
       d="M 410.20245,623.43085 C 413.58334,618.03061 413.45735,614.34144 421.23668,612.39662 C 421.75917,612.26599 430.86187,622.20839 431.16749,623.43085 C 432.46217,628.60954 430.82765,636.41602 432.27091,642.18904 C 434.20173,649.91234 431.28072,651.81568 425.65037,653.22327 C 417.82672,655.17919 416.40641,654.86725 414.61614,647.70615 C 413.52398,643.33753 412.11695,636.60598 411.30587,633.36165 C 410.50433,630.15549 410.20245,626.83142 410.20245,623.43085 z "
       id="path2291"
       sodipodi:nodetypes="cssssssc" />
    <path
       style="fill:#ffffff;fill-opacity:1;fill-rule:evenodd;stroke:#000000;stroke-width:8.82738495;stroke-linecap:butt;stroke-linejoin:round;stroke-miterlimit:4;stroke-dasharray:none;stroke-opacity:1"
       d="M 364.9621,615.70689 C 366.49338,619.67685 366.06553,632.17496 366.06553,639.98219 C 366.06553,648.53588 362.58045,647.70615 355.0313,647.70615 C 349.00214,647.70615 347.30733,642.78996 347.30733,636.67192 C 347.30733,629.24366 346.68288,625.78317 350.6176,617.91373 C 353.23468,612.67958 355.38726,610.93723 358.34156,607.98292 C 360.73938,605.58511 363.70271,612.5584 364.9621,615.70689 z "
       id="path2295" />
    <path
       style="fill:#ffffff;fill-opacity:1;fill-rule:evenodd;stroke:#000000;stroke-width:8.82738495;stroke-linecap:butt;stroke-linejoin:round;stroke-miterlimit:4;stroke-dasharray:none;stroke-opacity:1"
       d="M 373.78949,657.63696 C 369.62821,653.47569 373.78949,669.4068 373.78949,675.29173 C 373.78949,681.98847 375.94308,683.01569 382.61687,683.01569 C 384.52097,683.01569 387.59671,669.71688 388.13399,667.56777 C 389.43913,662.3472 389.14087,656.14738 388.13399,652.11985 C 385.32367,640.87858 374.99524,654.62258 373.78949,657.63696 z "
       id="path2299" />
    <path
       style="fill:#ffffff;fill-opacity:1;fill-rule:evenodd;stroke:#000000;stroke-width:8.82738495;stroke-linecap:butt;stroke-linejoin:round;stroke-miterlimit:4;stroke-dasharray:none;stroke-opacity:1"
       d="M 452.13252,690.73965 C 451.18225,686.93852 450.55897,675.61802 448.82226,668.67119 C 447.16831,662.05541 445.87572,660.20754 441.09829,655.43012 C 435.19153,649.52335 434.78675,667.12621 434.47776,668.67119 C 433.27291,674.69544 437.61509,677.91025 438.89145,683.01569 C 440.45594,689.27362 444.1459,690.73965 452.13252,690.73965 z "
       id="path2301" />
    <path
       style="fill:#ffffff;fill-opacity:1;fill-rule:evenodd;stroke:#000000;stroke-width:8.82738495;stroke-linecap:butt;stroke-linejoin:round;stroke-miterlimit:4;stroke-dasharray:none;stroke-opacity:1"
       d="M 454.33937,690.73965 C 456.12572,697.88508 453.23595,676.03653 453.23595,668.67119 C 453.23595,661.60416 451.28627,660.69007 455.44279,656.53354 C 459.88682,652.08951 466.70616,662.50894 467.58045,664.2575 C 469.98313,669.06286 470.89072,671.09312 470.89072,678.602 C 470.89072,685.40407 465.76474,686.13039 460.95991,688.53281 C 454.48105,691.77224 474.96645,686.61423 454.33937,690.73965 z "
       id="path2303" />
    <path
       style="fill:#ffffff;fill-opacity:1;fill-rule:evenodd;stroke:#000000;stroke-width:8.82738495;stroke-linecap:butt;stroke-linejoin:round;stroke-miterlimit:4;stroke-dasharray:none;stroke-opacity:1"
       d="M 475.30441,690.73965 C 474.39571,691.194 474.20099,674.45905 474.20099,669.77462 C 474.20099,662.8781 476.94711,662.61479 480.82152,658.74038 C 485.89825,653.66366 491.74987,665.95536 492.95918,667.56777 C 495.90519,671.49578 493.65951,680.21437 492.95918,683.01569 C 492.41239,685.20282 477.98728,689.6665 475.30441,690.73965 z "
       id="path2305" />
    <path
       style="fill:#ffffff;fill-opacity:1;fill-rule:evenodd;stroke:#000000;stroke-width:8.82738495;stroke-linecap:butt;stroke-linejoin:round;stroke-miterlimit:4;stroke-dasharray:none;stroke-opacity:1"
       d="M 435.58118,688.53281 C 434.05682,694.63025 432.7317,675.90612 428.96064,670.87804 C 423.69829,663.86157 426.77936,661.51172 419.02983,657.63696 C 414.59352,655.41881 412.7687,666.84894 411.30587,669.77462 C 408.34147,675.70342 414.46243,680.73198 416.82299,681.91227 C 421.19489,684.09822 422.28682,687.95445 427.85722,690.73965 C 430.42799,692.02503 431.62487,692.23327 434.47776,692.9465"
       id="path2307" />
    <path
       style="fill:#ffffff;fill-opacity:1;fill-rule:evenodd;stroke:#000000;stroke-width:8.82738495;stroke-linecap:butt;stroke-linejoin:round;stroke-miterlimit:4;stroke-dasharray:none;stroke-opacity:1"
       d="M 405.78876,684.11911 C 407.44477,684.94712 405.78876,667.68092 405.78876,663.15408 C 405.78876,654.56759 405.02502,656.53354 395.85795,656.53354 C 389.5223,656.53354 390.34083,667.25633 390.34083,673.08488 C 390.34083,680.78495 390.711,682.64906 395.85795,685.22254 C 400.53546,687.56129 399.92685,688.51554 405.78876,684.11911 z "
       id="path2309" />
    <path
       style="fill:#ffffff;fill-opacity:1;fill-rule:evenodd;stroke:#000000;stroke-width:8.82738495;stroke-linecap:butt;stroke-linejoin:round;stroke-miterlimit:4;stroke-dasharray:none;stroke-opacity:1"
       d="M 499.57972,687.42938 C 505.58299,690.43101 499.88834,673.57103 502.88999,667.56777 C 505.3662,662.61534 512.44483,660.94723 517.23449,660.94723 C 524.22116,660.94723 522.7516,666.88129 522.7516,673.08488 C 522.7516,677.09076 516.68042,681.3629 513.92422,684.11911 C 511.05215,686.99117 504.09247,687.42938 499.57972,687.42938 z "
       id="path2311" />
    <path
       style="fill:#ffffff;fill-opacity:1;fill-rule:evenodd;stroke:#000000;stroke-width:8.82738495;stroke-linecap:butt;stroke-linejoin:round;stroke-miterlimit:4;stroke-dasharray:none;stroke-opacity:1"
       d="M 527.16529,680.80885 C 524.564,683.41013 527.63636,670.0972 530.47556,658.74038 C 531.96538,652.78108 538.61163,654.42972 542.61322,655.43012 C 548.8192,656.98161 544.93876,667.33036 543.71664,669.77462 C 540.57516,676.05757 534.19999,680.80885 527.16529,680.80885 z "
       id="path2313" />
    <path
       style="fill:none;fill-opacity:0.75;fill-rule:evenodd;stroke:#000000;stroke-width:8.82738495;stroke-linecap:round;stroke-linejoin:round;stroke-miterlimit:4;stroke-dasharray:none;stroke-opacity:1"
       d="M 447.36384,122.72414 C 445.2832,128.44589 450.48479,129.11166 450.48479,138.32889 C 450.48479,142.53315 434.16103,161.85851 436.44051,166.41747 C 439.72533,172.98712 448.65659,178.63355 450.48479,180.46175 C 451.72896,181.70591 421.83098,176.58352 417.7148,189.8246 C 414.19025,201.16246 401.93862,179.73585 390.65124,182.5577 C 382.92208,184.48998 368.20087,211.46062 361.53767,214.79222 C 351.8725,219.6248 342.42873,202.81633 339.69101,213.76722 C 337.77224,221.44229 338.33474,226.99466 336.57006,234.05339 C 333.36833,246.86031 341.68694,229.28122 320.96529,232.73482 C 311.51886,234.30923 310.04197,228.79604 310.04197,249.90006 C 310.04197,250.3993 290.71587,259.74341 288.19531,263.94434 C 283.3078,272.09018 281.56666,274.65656 278.83245,285.59338 C 275.26195,299.87536 252.05223,291.69704 244.69666,299.05261"
       id="path2353"
       sodipodi:nodetypes="csssssssssssss" />
    <path
       style="fill:none;fill-opacity:0.75;fill-rule:evenodd;stroke:#000000;stroke-width:8.82738495;stroke-linecap:round;stroke-linejoin:round;stroke-miterlimit:4;stroke-dasharray:none;stroke-opacity:1"
       d="M 450.48479,185.14317 C 457.24686,178.38111 464.00892,171.61905 470.77097,164.85699 C 477.53304,158.09493 457.24686,178.38111 450.48479,185.14317 C 443.20258,192.42539 466.15229,171.53541 472.33146,163.29651 C 481.0692,151.64619 498.25056,166.75998 501.98049,174.21985 C 506.50365,183.26615 513.42605,190.75964 517.58525,188.26413 C 523.78173,184.54624 533.76611,182.02222 540.99239,182.02222 C 556.00912,182.02222 562.87232,194.57256 569.08096,206.98984 C 573.54822,215.92436 585.14056,200.74794 597.16952,200.74794 C 609.49772,200.74794 615.52991,206.89064 612.77428,217.91317 C 611.58139,222.68469 628.06395,228.52142 631.49999,231.95745 C 640.25874,240.7162 628.12359,248.66871 642.42332,252.24363 C 655.56888,255.53002 680.30185,264.05424 688.45788,266.09325"
       id="path2357"
       sodipodi:nodetypes="cssssssssssss" />
    <path
       style="fill:none;fill-opacity:0.75;fill-rule:evenodd;stroke:#000000;stroke-width:8.82738495;stroke-linecap:round;stroke-linejoin:round;stroke-miterlimit:4;stroke-dasharray:none;stroke-opacity:1"
       d="M 328.54914,349.78193 C 339.99384,350.36492 365.3884,343.16139 383.7203,343.16139 C 402.92707,343.16139 416.28953,341.79124 432.27091,349.78193 C 435.25224,351.2726 438.23489,352.76393 441.09829,354.19562"
       id="path2375"
       sodipodi:nodetypes="cssc" />
    <path
       style="fill:none;fill-opacity:0.75;fill-rule:evenodd;stroke:#000000;stroke-width:8.82738495;stroke-linecap:round;stroke-linejoin:round;stroke-miterlimit:4;stroke-dasharray:none;stroke-opacity:1"
       d="M 498.47629,354.19562 C 506.40915,347.67953 523.42247,338.7477 535.99268,338.7477 C 549.96303,338.7477 561.60521,338.7477 575.71591,338.7477 C 584.54329,338.7477 593.37068,338.7477 602.19806,338.7477"
       id="path2377"
       sodipodi:nodetypes="cssc" />
  </g>
</svg>
