<?xml version="1.0" encoding="UTF-8" standalone="no"?>
<!-- Created with Inkscape (http://www.inkscape.org/) -->
<svg
   xmlns:svg="http://www.w3.org/2000/svg"
   xmlns="http://www.w3.org/2000/svg"
   xmlns:xlink="http://www.w3.org/1999/xlink"
   version="1.0"
   width="45"
   height="45"
   viewBox="0 0 45 45"
   id="Layer_1"
   xml:space="preserve"><defs
   id="defs43"><linearGradient
   x1="8.3895998"
   y1="38.75"
   x2="36.610401"
   y2="38.75"
   id="linearGradient10721"
   gradientUnits="userSpaceOnUse"><stop
     id="stop10723"
     style="stop-color:#cbefc0;stop-opacity:1"
     offset="0" /><stop
     id="stop10725"
     style="stop-color:#a4d297;stop-opacity:1"
     offset="1" /></linearGradient><linearGradient
   x1="8.3895998"
   y1="38.75"
   x2="36.610401"
   y2="38.75"
   id="SVGID_1_-60"
   gradientUnits="userSpaceOnUse"><stop
     id="stop6-96"
     style="stop-color:#a5d297;stop-opacity:1"
     offset="0" /><stop
     id="stop8-4"
     style="stop-color:#cbefc0;stop-opacity:1"
     offset="1" /></linearGradient><linearGradient
   x1="4.2729435"
   y1="20.330038"
   x2="40.727062"
   y2="20.330038"
   id="linearGradient4200"
   xlink:href="#SVGID_1_-60"
   gradientUnits="userSpaceOnUse"
   gradientTransform="translate(32.456248,-1.0362888)" /><linearGradient
   x1="8.3895998"
   y1="38.75"
   x2="36.610401"
   y2="38.75"
   id="SVGID_1_-9"
   gradientUnits="userSpaceOnUse"><stop
     id="stop6-9"
     style="stop-color:#ffffff;stop-opacity:1"
     offset="0" /><stop
     id="stop8-1"
     style="stop-color:#b1b3b6;stop-opacity:1"
     offset="1" /></linearGradient><linearGradient
   x1="8.3895998"
   y1="38.75"
   x2="36.610401"
   y2="38.75"
   id="linearGradient3647"
   xlink:href="#SVGID_1_-9"
   gradientUnits="userSpaceOnUse"
   gradientTransform="matrix(0.7385174,0,0,-1,5.9524233,52.5)" />
	<linearGradient
   x1="8.3895998"
   y1="38.75"
   x2="36.610401"
   y2="38.75"
   id="SVGID_1_"
   gradientUnits="userSpaceOnUse">
		<stop
   id="stop6"
   style="stop-color:#ffffff;stop-opacity:1"
   offset="0" />
		<stop
   id="stop8"
   style="stop-color:#b1b3b6;stop-opacity:1"
   offset="1" />
	</linearGradient>
	
	<linearGradient
   x1="12.5"
   y1="26.25"
   x2="32.5"
   y2="26.25"
   id="SVGID_2_"
   gradientUnits="userSpaceOnUse">
		<stop
   id="stop13"
   style="stop-color:#ffffff;stop-opacity:1"
   offset="0" />
		<stop
   id="stop15"
   style="stop-color:#b1b3b6;stop-opacity:1"
   offset="1" />
	</linearGradient>
	
	
<linearGradient
   x1="8.3895998"
   y1="38.75"
   x2="36.610401"
   y2="38.75"
   id="linearGradient3675"
   xlink:href="#SVGID_1_"
   gradientUnits="userSpaceOnUse" />
	<linearGradient
   x1="21.25"
   y1="25"
   x2="23.75"
   y2="25"
   id="SVGID_3_"
   gradientUnits="userSpaceOnUse">
		<stop
   id="stop28"
   style="stop-color:#a6a6a6;stop-opacity:1"
   offset="0" />
		<stop
   id="stop30"
   style="stop-color:#ffffff;stop-opacity:1"
   offset="1" />
	</linearGradient>
	
	<linearGradient
   x1="17.5"
   y1="25"
   x2="27.5"
   y2="25"
   id="SVGID_4_"
   gradientUnits="userSpaceOnUse">
		<stop
   id="stop35"
   style="stop-color:#a6a6a6;stop-opacity:1"
   offset="0" />
		<stop
   id="stop37"
   style="stop-color:#ffffff;stop-opacity:1"
   offset="1" />
	</linearGradient>
	
<linearGradient
   x1="17.5"
   y1="25"
   x2="27.5"
   y2="25"
   id="linearGradient3684"
   xlink:href="#SVGID_4_"
   gradientUnits="userSpaceOnUse" /><linearGradient
   x1="21.25"
   y1="25"
   x2="23.75"
   y2="25"
   id="linearGradient3687"
   xlink:href="#SVGID_3_"
   gradientUnits="userSpaceOnUse" /><linearGradient
   x1="8.3895998"
   y1="38.75"
   x2="36.610401"
   y2="38.75"
   id="linearGradient3695"
   xlink:href="#SVGID_1_"
   gradientUnits="userSpaceOnUse" /><linearGradient
   x1="12.5"
   y1="26.25"
   x2="32.5"
   y2="26.25"
   id="linearGradient3697"
   xlink:href="#SVGID_2_"
   gradientUnits="userSpaceOnUse" /><linearGradient
   x1="21.25"
   y1="25"
   x2="23.75"
   y2="25"
   id="linearGradient3699"
   xlink:href="#SVGID_3_"
   gradientUnits="userSpaceOnUse" /><linearGradient
   x1="17.5"
   y1="25"
   x2="27.5"
   y2="25"
   id="linearGradient3701"
   xlink:href="#SVGID_4_"
   gradientUnits="userSpaceOnUse" /><linearGradient
   x1="8.3895998"
   y1="38.75"
   x2="36.610401"
   y2="38.75"
   id="linearGradient3703"
   xlink:href="#SVGID_1_-9"
   gradientUnits="userSpaceOnUse"
   gradientTransform="matrix(0.7385174,0,0,-1,5.9524233,52.5)" /><linearGradient
   x1="3.925"
   y1="38.4375"
   x2="41.075001"
   y2="38.4375"
   id="linearGradient10705"
   xlink:href="#SVGID_1_-60"
   gradientUnits="userSpaceOnUse" /><linearGradient
   x1="11.75"
   y1="26.25"
   x2="33.25"
   y2="26.25"
   id="linearGradient10707"
   xlink:href="#SVGID_1_-60"
   gradientUnits="userSpaceOnUse" /><linearGradient
   x1="8.7550697"
   y1="7.1875"
   x2="36.417591"
   y2="7.1875"
   id="linearGradient10709"
   xlink:href="#SVGID_1_-60"
   gradientUnits="userSpaceOnUse" /><linearGradient
   x1="20.312187"
   y1="21.25"
   x2="24.687813"
   y2="21.25"
   id="linearGradient10717"
   xlink:href="#linearGradient10721"
   gradientUnits="userSpaceOnUse" /><linearGradient
   x1="15.625"
   y1="21.250469"
   x2="29.375"
   y2="21.250469"
   id="linearGradient10719"
   xlink:href="#linearGradient10721"
   gradientUnits="userSpaceOnUse" /></defs>


<path
   d="M 40.1375,40 C 38.65,38.795 37.025,37.76 35.31125,36.875 L 9.68875,36.875 C 7.975,37.76 6.35,38.795 4.8625,40 L 40.1375,40 z"
   id="path10"
   style="fill:url(#linearGradient10705);fill-opacity:1;stroke:#47423a;stroke-width:1.875;stroke-opacity:1" /><polygon
   points="12.5,37.5 15,15 30,15 32.5,37.5 12.5,37.5 "
   transform="matrix(1.25,0,0,1.25,-5.625,-10)"
   id="polygon17"
   style="fill:url(#linearGradient10707);fill-opacity:1;stroke:#47423a;stroke-width:1.5;stroke-opacity:1" /><g
   transform="matrix(1.25,0,0,1.25,-5.625,-10)"
   id="g19"
   style="stroke:#47423a;stroke-opacity:1">
		
			
		
	</g><path
   d="M 22.5,21.25 C 24.58375,23.33375 24.58375,27.5 22.5,27.5 C 20.41625,27.5 20.41625,23.33375 22.5,21.25 C 24.58375,19.1675 24.58375,15 22.5,15 C 20.41625,15 20.41625,19.1675 22.5,21.25 z"
   id="path32"
   style="fill:url(#linearGradient10717);fill-opacity:1;stroke:#47423a;stroke-width:1.25;stroke-opacity:1" /><path
   d="M 22.5,21.25 C 24.58375,19.1675 28.75,19.1675 28.75,21.25 C 28.75,23.33375 24.58375,23.33375 22.5,21.25 C 20.41625,19.1675 16.25,19.1675 16.25,21.25 C 16.25,23.33375 20.41625,23.33375 22.5,21.25 z"
   id="path39"
   style="fill:url(#linearGradient10719);fill-opacity:1;stroke:#47423a;stroke-width:1.25;stroke-opacity:1" /><path
   d="M 35.611931,5.625 C 34.513386,6.83 33.313296,7.865 32.047661,8.75 L 13.125,8.75 C 11.859365,7.865 10.659275,6.83 9.56073,5.625 L 35.611931,5.625 z"
   id="path10-9"
   style="fill:url(#linearGradient10709);fill-opacity:1;stroke:#47423a;stroke-width:1.61131954;stroke-opacity:1" /></svg>