<?xml version="1.0" encoding="UTF-8" standalone="no"?>
<!-- Created with Inkscape (http://www.inkscape.org/) -->

<svg
   xmlns:dc="http://purl.org/dc/elements/1.1/"
   xmlns:cc="http://creativecommons.org/ns#"
   xmlns:rdf="http://www.w3.org/1999/02/22-rdf-syntax-ns#"
   xmlns:svg="http://www.w3.org/2000/svg"
   xmlns="http://www.w3.org/2000/svg"
   xmlns:sodipodi="http://sodipodi.sourceforge.net/DTD/sodipodi-0.dtd"
   xmlns:inkscape="http://www.inkscape.org/namespaces/inkscape"
   width="64px"
   height="64px"
   id="svg2985"
   version="1.1"
   inkscape:version="0.48.1 "
   sodipodi:docname="wk.svg">
  <defs
     id="defs2987" />
  <sodipodi:namedview
     id="base"
     pagecolor="#ffffff"
     bordercolor="#666666"
     borderopacity="1.0"
     inkscape:pageopacity="0.0"
     inkscape:pageshadow="2"
     inkscape:zoom="5.5"
     inkscape:cx="10.272727"
     inkscape:cy="32"
     inkscape:current-layer="layer1"
     showgrid="true"
     inkscape:document-units="px"
     inkscape:grid-bbox="true"
     inkscape:window-width="1365"
     inkscape:window-height="878"
     inkscape:window-x="-8"
     inkscape:window-y="-8"
     inkscape:window-maximized="1" />
  <metadata
     id="metadata2990">
    <rdf:RDF>
      <cc:Work
         rdf:about="">
        <dc:format>image/svg+xml</dc:format>
        <dc:type
           rdf:resource="http://purl.org/dc/dcmitype/StillImage" />
        <dc:title></dc:title>
      </cc:Work>
    </rdf:RDF>
  </metadata>
  <g
     id="layer1"
     inkscape:label="Layer 1"
     inkscape:groupmode="layer">
    <text
       xml:space="preserve"
       style="font-size:64px;font-style:normal;font-variant:normal;font-weight:normal;font-stretch:normal;line-height:125%;letter-spacing:0px;word-spacing:0px;fill:#000000;fill-opacity:1;stroke:none;font-family:Chess-7;-inkscape-font-specification:Chess-7"
       x="-0.60839844"
       y="64.671875"
       id="text3115"
       sodipodi:linespacing="125%"><tspan
         sodipodi:role="line"
         id="tspan3117"
         x="-0.60839844"
         y="64.671875">l</tspan></text>
    <path
       style="fill:#ffffff;fill-opacity:1;fill-rule:evenodd"
       d="m 17.218182,55.285737 0,-1.625896 1.042723,-0.290227 c 0.573498,-0.159625 1.063461,-0.26949 1.088806,-0.244145 0.137697,0.137696 0.544932,2.765223 0.443463,2.861273 -0.06625,0.06271 -0.570447,0.258716 -1.120447,0.435574 -0.55,0.176857 -1.102272,0.359304 -1.227272,0.405438 -0.171128,0.06316 -0.227273,-0.317778 -0.227273,-1.542017 z"
       id="path3119"
       inkscape:connector-curvature="0" />
    <path
       style="fill:#ffffff;fill-opacity:1;fill-rule:evenodd"
       d="m 22.236164,55.033654 c -0.0442,-0.13851 -0.130639,-0.753316 -0.192082,-1.366236 -0.08875,-0.885359 -0.05692,-1.135426 0.154884,-1.216704 0.146629,-0.05627 1.172301,-0.159613 2.279271,-0.229659 l 2.012672,-0.127356 0,1.378784 c 0,0.758331 -0.06312,1.417797 -0.140278,1.46548 -0.07715,0.04768 -1.016388,0.145383 -2.087189,0.217112 -1.58333,0.10606 -1.96192,0.08339 -2.027278,-0.121421 z"
       id="path3121"
       inkscape:connector-curvature="0" />
    <path
       style="fill:#ffffff;fill-opacity:1;fill-rule:evenodd"
       d="m 30.423014,55.041036 -1.442653,-1.468055 1.524987,-1.53295 c 0.838743,-0.843122 1.567252,-1.512043 1.61891,-1.48649 0.05166,0.02555 0.744353,0.723668 1.539323,1.551369 l 1.445398,1.50491 -1.441133,1.449635 c -0.792623,0.7973 -1.522369,1.449636 -1.621656,1.449636 -0.09929,0 -0.829717,-0.660625 -1.623176,-1.468055 z"
       id="path3123"
       inkscape:connector-curvature="0" />
    <path
       style="fill:#ffffff;fill-opacity:1;fill-rule:evenodd"
       d="m 38.536364,55.103235 -0.772728,-0.0696 0,-1.467584 0,-1.467584 1.318182,0.124746 c 0.725,0.06861 1.633781,0.172862 2.019512,0.231669 0.690643,0.105293 0.699679,0.116912 0.592911,0.762383 -0.05963,0.360503 -0.109321,0.962278 -0.110422,1.337278 l -0.002,0.681819 -1.136363,-0.03177 c -0.625,-0.01747 -1.484091,-0.06308 -1.909091,-0.101364 z"
       id="path3125"
       inkscape:connector-curvature="0" />
    <path
       style="fill:#ffffff;fill-opacity:1;fill-rule:evenodd"
       d="m 44.891884,56.281661 c -0.953917,-0.271229 -1.299453,-0.447067 -1.230683,-0.626277 0.05259,-0.137043 0.193289,-0.779263 0.312667,-1.427156 0.170834,-0.927148 0.278029,-1.160638 0.503411,-1.096518 1.797494,0.511384 1.831812,0.528712 1.831812,0.924944 0,0.219502 0.05256,0.902006 0.11681,1.516675 0.06526,0.62436 0.0452,1.110488 -0.04545,1.101511 -0.08925,-0.0088 -0.759099,-0.185769 -1.488563,-0.393179 z"
       id="path3127"
       inkscape:connector-curvature="0" />
    <path
       style="fill:#ffffff;fill-opacity:1;fill-rule:evenodd"
       d="m 43.945455,46.753693 c -2.917373,-1.646362 -4.4387,-2.060538 -8.59091,-2.338849 L 33.4,44.283836 l 0,-5.594972 0,-5.594974 0.823882,-3.519672 c 2.294166,-9.800811 3.239051,-12.283492 5.072448,-13.327842 0.902666,-0.514181 1.251645,-0.598469 3.408431,-0.823229 1.872396,-0.195123 5.159878,0.01359 7.326419,0.465135 1.61614,0.336832 2.747036,1.085432 4.91704,3.254849 1.844067,1.843568 2.48878,2.965146 3.252738,5.658631 1.222335,4.309592 1.041651,8.943342 -0.532323,13.651749 -0.636226,1.903214 -1.783368,3.688669 -3.392786,5.28066 -2.167658,2.144189 -3.755258,3.118129 -5.830392,3.576754 -2.432994,0.537717 -2.595366,0.517611 -4.500002,-0.557232 z m 4.811113,-2.880924 c 2.104076,-0.918514 2.96515,-1.579856 4.229263,-3.248254 1.898831,-2.506108 2.788504,-4.939791 3.148605,-8.612961 0.236188,-2.409173 0.0519,-4.005279 -0.743483,-6.439241 -0.944729,-2.890981 -2.069004,-4.560872 -3.723435,-5.530433 -1.708749,-1.001393 -5.723985,-1.579912 -8.239518,-1.187157 -1.694701,0.264598 -2.301835,0.58261 -2.7317,1.430842 -0.885703,1.74772 -3.194964,10.225554 -3.753436,13.779739 -0.195087,1.24156 -0.267601,2.74084 -0.231615,4.788852 l 0.05239,2.981428 4.909091,1.324671 c 2.7,0.728569 5.072728,1.329109 5.272728,1.334532 0.2,0.0054 1.015001,-0.274483 1.811113,-0.622018 z"
       id="path3129"
       inkscape:connector-curvature="0" />
    <path
       style="fill:#ffffff;fill-opacity:1;fill-rule:evenodd"
       d="m 16.127273,47.395544 c -0.95,-0.198251 -2.136364,-0.548742 -2.636364,-0.778869 C 11.550019,45.723373 8.4877513,42.926504 7.3268064,40.9868 6.1862786,39.081211 5.1471963,35.106075 4.9206658,31.781818 4.7315923,29.00723 5.6247446,24.039664 6.6964809,21.905026 c 0.878248,-1.749255 3.2349618,-4.170118 5.1836661,-5.324763 2.012744,-1.19259 8.769578,-1.636934 11.934113,-0.784813 0.390284,0.105092 1.073855,0.526828 1.519044,0.93719 1.517669,1.398937 2.336527,3.701167 4.239543,11.919526 l 0.918062,3.964739 0,5.846946 0,5.846944 -0.681818,0.104516 c -4.101975,0.628794 -8.747909,1.889027 -10.812138,2.932847 -0.471675,0.238513 -0.921675,0.427851 -1,0.420751 -0.07832,-0.0071 -0.91968,-0.175114 -1.86968,-0.373365 z m 6.247266,-4.603459 c 2.685996,-0.744305 4.928892,-1.398547 4.984214,-1.453869 0.212676,-0.212676 0.258732,-4.828976 0.06271,-6.285541 C 27.004764,31.956361 24.52346,22.374659 23.555856,20.1254 c -0.305341,-0.709783 -0.536351,-0.95405 -1.220777,-1.290838 -0.761593,-0.374759 -1.10206,-0.41538 -3.480534,-0.415258 -2.905355,1.49e-4 -3.991948,0.193646 -5.767661,1.027089 -2.350278,1.10312 -3.7512531,3.126454 -4.7025109,6.791518 C 7.9500765,27.911195 7.921134,28.255407 8.0175935,30.6 c 0.065549,1.593265 0.2423492,3.113689 0.4726343,4.064495 0.6829066,2.819601 3.1332172,6.802809 4.8298632,7.851394 0.976274,0.603371 3.739671,1.790735 3.968478,1.705158 0.111287,-0.04162 2.399973,-0.684654 5.08597,-1.428962 l 0,0 z"
       id="path3131"
       inkscape:connector-curvature="0" />
    <path
       style="fill:#ffffff;fill-opacity:1;fill-rule:evenodd"
       d="m 31.870011,25.418182 c -0.342248,-1.590076 -1.281857,-4.613752 -1.949252,-6.272727 -0.530106,-1.31771 -0.708714,-1.994641 -0.648869,-2.459245 0.08944,-0.69434 1.219027,-2.829176 2.241896,-4.237006 l 0.637967,-0.878068 0.59062,0.968977 c 0.324841,0.532938 0.841411,1.378069 1.147934,1.878069 1.04591,1.70609 1.07613,2.038093 0.35106,3.856879 -0.589085,1.477676 -1.344674,4.036471 -1.975077,6.688575 l -0.259307,1.090909 -0.136972,-0.636363 0,0 z"
       id="path3133"
       inkscape:connector-curvature="0" />
  </g>
</svg>
