<?xml version="1.0" encoding="UTF-8" standalone="no"?>
<!-- Created with Inkscape (http://www.inkscape.org/) -->

<svg
   xmlns:dc="http://purl.org/dc/elements/1.1/"
   xmlns:cc="http://creativecommons.org/ns#"
   xmlns:rdf="http://www.w3.org/1999/02/22-rdf-syntax-ns#"
   xmlns:svg="http://www.w3.org/2000/svg"
   xmlns="http://www.w3.org/2000/svg"
   xmlns:sodipodi="http://sodipodi.sourceforge.net/DTD/sodipodi-0.dtd"
   xmlns:inkscape="http://www.inkscape.org/namespaces/inkscape"
   width="64px"
   height="64px"
   id="svg2985"
   version="1.1"
   inkscape:version="0.48.1 "
   sodipodi:docname="wn.svg">
  <defs
     id="defs2987" />
  <sodipodi:namedview
     id="base"
     pagecolor="#ffffff"
     bordercolor="#666666"
     borderopacity="1.0"
     inkscape:pageopacity="0.0"
     inkscape:pageshadow="2"
     inkscape:zoom="5.5"
     inkscape:cx="10.272727"
     inkscape:cy="32"
     inkscape:current-layer="layer1"
     showgrid="true"
     inkscape:document-units="px"
     inkscape:grid-bbox="true"
     inkscape:window-width="1365"
     inkscape:window-height="878"
     inkscape:window-x="-8"
     inkscape:window-y="-8"
     inkscape:window-maximized="1" />
  <metadata
     id="metadata2990">
    <rdf:RDF>
      <cc:Work
         rdf:about="">
        <dc:format>image/svg+xml</dc:format>
        <dc:type
           rdf:resource="http://purl.org/dc/dcmitype/StillImage" />
        <dc:title></dc:title>
      </cc:Work>
    </rdf:RDF>
  </metadata>
  <g
     id="layer1"
     inkscape:label="Layer 1"
     inkscape:groupmode="layer">
    <text
       xml:space="preserve"
       style="font-size:64px;font-style:normal;font-variant:normal;font-weight:normal;font-stretch:normal;line-height:125%;letter-spacing:0px;word-spacing:0px;fill:#000000;fill-opacity:1;stroke:none;font-family:Chess-7;-inkscape-font-specification:Chess-7"
       x="0.38378906"
       y="64.160156"
       id="text3169"
       sodipodi:linespacing="125%"><tspan
         sodipodi:role="line"
         id="tspan3171"
         x="0.38378906"
         y="64.160156">m</tspan></text>
    <path
       style="fill:#ffffff;fill-opacity:1;fill-rule:evenodd"
       d="m 21.907642,54.159106 c -0.470797,-0.06577 -0.908555,-0.172141 -0.972796,-0.236381 -0.06424,-0.06424 0.150219,-0.82428 0.476576,-1.688977 l 0.593378,-1.572175 0.576704,0.10819 c 0.475379,0.08918 6.123155,0.45108 7.227587,0.463129 0.272034,0.003 0.318182,0.185904 0.318182,1.261329 0,1.980741 0.302183,1.836609 -3.79218,1.808758 -1.964301,-0.01336 -3.956654,-0.0781 -4.427451,-0.143873 z"
       id="path3173"
       inkscape:connector-curvature="0" />
    <path
       style="fill:#ffffff;fill-opacity:1;fill-rule:evenodd"
       d="m 34.399666,54.508756 -1.631004,-1.638597 1.678021,-1.678021 1.678022,-1.678022 1.629858,1.622307 1.629859,1.622308 -1.505859,1.637305 c -0.828223,0.900518 -1.582817,1.662958 -1.676876,1.694311 -0.09406,0.03135 -0.904968,-0.680363 -1.802021,-1.581591 l 0,0 z"
       id="path3175"
       inkscape:connector-curvature="0" />
    <path
       style="fill:#ffffff;fill-opacity:1;fill-rule:evenodd"
       d="m 45.169267,54.208012 c 0.123097,-0.0498 0.368551,-0.05284 0.545454,-0.0067 0.176904,0.0461 0.07619,0.08685 -0.223812,0.09055 -0.3,0.0037 -0.444739,-0.03401 -0.321642,-0.08382 z"
       id="path3177"
       inkscape:connector-curvature="0" />
    <path
       style="fill:#ffffff;fill-opacity:1;fill-rule:evenodd"
       d="m 51.331529,45.054545 c -0.431314,-1.574367 -0.551776,-2.482903 -0.687054,-5.181818 -0.34806,-6.94406 -1.38272,-13.847967 -2.515588,-16.78559 -0.687505,-1.782763 -1.854723,-3.678746 -3.552318,-5.770251 -2.281611,-2.811035 -3.938318,-4.135987 -6.48442,-5.185915 -1.332739,-0.549578 -5.321628,-1.602102 -7.561932,-1.995322 -0.72838,-0.127846 -1.255069,-0.3017063 -1.170419,-0.3863566 0.08465,-0.08465 1.04878,-0.2023564 2.142511,-0.2615692 2.235588,-0.1210311 4.370784,0.2264119 7.421256,1.2076008 2.822175,0.907757 4.369916,2.174979 7.584131,6.209557 2.693533,3.381002 3.768882,5.796006 4.600382,10.331483 0.984507,5.370061 1.189362,9.441247 0.859984,17.090909 l -0.113517,2.636363 -0.523016,-1.909091 z"
       id="path3179"
       inkscape:connector-curvature="0" />
    <path
       style="fill:#ffffff;fill-opacity:1;fill-rule:evenodd"
       d="m 17.770268,24.166154 c -0.812149,-0.226415 -0.965878,-1.717115 -0.263196,-2.552204 0.432659,-0.514186 0.561256,-0.559121 1.590909,-0.555897 1.668951,0.0052 2.923963,0.374136 2.997794,0.881202 0.08709,0.598105 -0.258356,0.910465 -1.867976,1.689074 -1.474051,0.713032 -1.672938,0.756558 -2.457531,0.537825 l 0,0 z"
       id="path3181"
       inkscape:connector-curvature="0" />
    <path
       style="fill:#ffffff;fill-opacity:1;fill-rule:evenodd"
       d="m 9.712006,37.871317 c 0.083999,-1.533496 0.060513,-1.677264 -0.3784727,-2.316772 -0.37418,-0.5451 -0.4104294,-0.681818 -0.1807771,-0.681818 0.4097433,0 2.4501218,1.11605 2.5589728,1.399712 0.185463,0.483307 -0.159082,1.160128 -1.111425,2.183275 l -0.9778543,1.050556 0.089556,-1.634953 0,0 z"
       id="path3183"
       inkscape:connector-curvature="0" />
  </g>
</svg>
