<?xml version="1.0" encoding="UTF-8" standalone="no"?>
<!-- Created with Inkscape (http://www.inkscape.org/) -->

<svg
   xmlns:dc="http://purl.org/dc/elements/1.1/"
   xmlns:cc="http://creativecommons.org/ns#"
   xmlns:rdf="http://www.w3.org/1999/02/22-rdf-syntax-ns#"
   xmlns:svg="http://www.w3.org/2000/svg"
   xmlns="http://www.w3.org/2000/svg"
   xmlns:sodipodi="http://sodipodi.sourceforge.net/DTD/sodipodi-0.dtd"
   xmlns:inkscape="http://www.inkscape.org/namespaces/inkscape"
   width="64px"
   height="64px"
   id="svg2985"
   version="1.1"
   inkscape:version="0.48.1 "
   sodipodi:docname="wp.svg">
  <defs
     id="defs2987" />
  <sodipodi:namedview
     id="base"
     pagecolor="#ffffff"
     bordercolor="#666666"
     borderopacity="1.0"
     inkscape:pageopacity="0.0"
     inkscape:pageshadow="2"
     inkscape:zoom="5.5"
     inkscape:cx="10.272727"
     inkscape:cy="32"
     inkscape:current-layer="layer1"
     showgrid="true"
     inkscape:document-units="px"
     inkscape:grid-bbox="true"
     inkscape:window-width="1365"
     inkscape:window-height="878"
     inkscape:window-x="-8"
     inkscape:window-y="-8"
     inkscape:window-maximized="1" />
  <metadata
     id="metadata2990">
    <rdf:RDF>
      <cc:Work
         rdf:about="">
        <dc:format>image/svg+xml</dc:format>
        <dc:type
           rdf:resource="http://purl.org/dc/dcmitype/StillImage" />
        <dc:title></dc:title>
      </cc:Work>
    </rdf:RDF>
  </metadata>
  <g
     id="layer1"
     inkscape:label="Layer 1"
     inkscape:groupmode="layer">
    <text
       xml:space="preserve"
       style="font-size:64px;font-style:normal;font-variant:normal;font-weight:normal;font-stretch:normal;line-height:125%;letter-spacing:0px;word-spacing:0px;fill:#000000;fill-opacity:1;stroke:none;font-family:Chess-7;-inkscape-font-specification:Chess-7"
       x="-0.60839844"
       y="64.671875"
       id="text3091"
       sodipodi:linespacing="125%"><tspan
         sodipodi:role="line"
         id="tspan3093"
         x="-0.60839844"
         y="64.671875">k</tspan></text>
    <path
       style="fill:#ffffff;fill-opacity:1;fill-rule:evenodd"
       d="m 19.970648,57.554545 c 1.036144,-1.125 1.952603,-2.095729 2.036577,-2.157177 0.08397,-0.06145 1.106701,-0.156707 2.272727,-0.211686 L 26.4,55.085719 l 2,1.95908 c 1.1,1.077494 2.202296,2.093207 2.449547,2.25714 C 31.270317,59.580921 30.876227,59.6 24.692922,59.6 l -6.606171,0 1.883897,-2.045455 z"
       id="path3095"
       inkscape:connector-curvature="0" />
    <path
       style="fill:#ffffff;fill-opacity:1;fill-rule:evenodd"
       d="m 18.005193,54.587697 c 0.06494,-0.393234 0.118978,-0.903224 0.120079,-1.133314 l 0.002,-0.418343 0.639029,0.487411 c 0.706948,0.539215 0.674935,0.672583 -0.333869,1.390915 l -0.545317,0.3883 0.118077,-0.714969 z"
       id="path3097"
       inkscape:connector-curvature="0" />
    <path
       style="fill:#ffffff;fill-opacity:1;fill-rule:evenodd"
       d="m 30.532353,55.005297 -1.495982,-1.503795 1.590905,-1.58121 1.590906,-1.58121 1.48684,1.60211 1.48684,1.602111 -1.490638,1.482894 c -0.819851,0.815592 -1.531644,1.482894 -1.581763,1.482894 -0.05012,0 -0.764318,-0.676708 -1.587108,-1.503794 z"
       id="path3099"
       inkscape:connector-curvature="0" />
    <path
       style="fill:#ffffff;fill-opacity:1;fill-rule:evenodd"
       d="m 33.330026,59.207964 c 0.288486,-0.21562 1.346567,-1.199898 2.351291,-2.187284 l 1.826771,-1.795249 2.08232,0.122935 2.082319,0.122935 1.788216,1.746168 c 0.983518,0.960392 1.865942,1.889349 1.960942,2.064349 C 45.58489,59.582091 45.234698,59.6 39.200059,59.6 l -6.394553,0 0.52452,-0.392036 z"
       id="path3101"
       inkscape:connector-curvature="0" />
    <path
       style="fill:#ffffff;fill-opacity:1;fill-rule:evenodd"
       d="m 44.717012,54.459825 -0.751217,-0.768916 0.702493,-0.50129 0.702492,-0.50129 0.127583,1.191348 c 0.07017,0.655241 0.0921,1.226833 0.04873,1.270205 -0.04337,0.04337 -0.416906,-0.267154 -0.830076,-0.690057 z"
       id="path3103"
       inkscape:connector-curvature="0" />
    <path
       style="fill:#ffffff;fill-opacity:1;fill-rule:evenodd"
       d="m 39.078907,52.152383 -1.321092,-0.121563 -2.35833,-2.333464 -2.358329,-2.333464 2.133967,0.122515 c 2.925146,0.167937 4.309573,0.496903 6.176375,1.467622 0.876676,0.455864 1.709121,0.902766 1.849878,0.993116 0.20348,0.130611 0.07308,0.389188 -0.636363,1.261873 -0.993044,1.221543 -0.85854,1.185145 -3.486106,0.943365 l 0,0 z"
       id="path3105"
       inkscape:connector-curvature="0" />
    <path
       style="fill:#ffffff;fill-opacity:1;fill-rule:evenodd"
       d="m 20.696035,51.350874 -0.96427,-0.976399 1.334117,-0.55079 c 1.715062,-0.708063 2.674835,-1.026337 4.501039,-1.492609 1.258,-0.321196 4.606231,-0.908377 5.199408,-0.911822 0.101481,-5.89e-4 -0.839428,1.031706 -2.090909,2.29399 L 26.4,52.008306 24.581818,52.159864 c -2.973457,0.247858 -2.808054,0.282294 -3.885783,-0.80899 z"
       id="path3107"
       inkscape:connector-curvature="0" />
    <path
       style="fill:#ffffff;fill-opacity:1;fill-rule:evenodd"
       d="m 16.127273,47.395544 c -0.95,-0.198251 -2.136364,-0.548742 -2.636364,-0.778869 C 11.550019,45.723373 8.4877513,42.926504 7.3268064,40.9868 6.1862786,39.081211 5.1471963,35.106075 4.9206658,31.781818 4.7315923,29.00723 5.6247446,24.039664 6.6964809,21.905026 c 0.878248,-1.749255 3.2349618,-4.170118 5.1836661,-5.324763 2.02034,-1.197091 8.739374,-1.635152 11.963088,-0.779958 1.129447,0.299622 2.44441,1.756582 3.179881,3.523262 0.663708,1.594297 1.822588,6.037946 2.815649,10.79642 l 0.652144,3.124889 0,5.53296 0,5.532959 -0.681818,0.104516 c -4.101975,0.628794 -8.747909,1.889027 -10.812138,2.932847 -0.471675,0.238513 -0.921675,0.427851 -1,0.420751 -0.07832,-0.0071 -0.91968,-0.175114 -1.86968,-0.373365 z"
       id="path3109"
       inkscape:connector-curvature="0" />
    <path
       style="fill:#ffffff;fill-opacity:1;fill-rule:evenodd"
       d="m 43.945455,46.753693 c -2.915734,-1.645437 -4.439482,-2.060602 -8.581804,-2.338229 l -1.94544,-0.130388 0.101614,-5.66072 0.101613,-5.66072 0.712087,-3.359758 c 1.957825,-9.237373 3.092854,-12.29233 4.962805,-13.357502 0.902666,-0.514181 1.251645,-0.598469 3.408431,-0.823229 1.872396,-0.195123 5.159878,0.01359 7.326419,0.465135 1.61614,0.336832 2.747036,1.085432 4.91704,3.254849 1.844067,1.843568 2.48878,2.965146 3.252738,5.658631 1.222335,4.309592 1.041651,8.943342 -0.532323,13.651749 -0.636226,1.903214 -1.783368,3.688669 -3.392786,5.28066 -2.167658,2.144189 -3.755258,3.118129 -5.830392,3.576754 -2.432994,0.537717 -2.595366,0.517611 -4.500002,-0.557232 z"
       id="path3111"
       inkscape:connector-curvature="0" />
    <path
       style="fill:#ffffff;fill-opacity:1;fill-rule:evenodd"
       d="m 31.870011,25.418182 c -0.342248,-1.590076 -1.281857,-4.613752 -1.949252,-6.272727 -0.530106,-1.31771 -0.708714,-1.994641 -0.648869,-2.459245 0.08944,-0.69434 1.219027,-2.829176 2.241896,-4.237006 l 0.637967,-0.878068 0.59062,0.968977 c 0.324841,0.532938 0.841411,1.378069 1.147934,1.878069 1.04591,1.70609 1.07613,2.038093 0.35106,3.856879 -0.589085,1.477676 -1.344674,4.036471 -1.975077,6.688575 l -0.259307,1.090909 -0.136972,-0.636363 0,0 z"
       id="path3113"
       inkscape:connector-curvature="0" />
  </g>
</svg>
