<?xml version="1.0" encoding="UTF-8" standalone="no"?>
<!-- Created with Inkscape (http://www.inkscape.org/) -->

<svg
   xmlns:dc="http://purl.org/dc/elements/1.1/"
   xmlns:cc="http://creativecommons.org/ns#"
   xmlns:rdf="http://www.w3.org/1999/02/22-rdf-syntax-ns#"
   xmlns:svg="http://www.w3.org/2000/svg"
   xmlns="http://www.w3.org/2000/svg"
   xmlns:sodipodi="http://sodipodi.sourceforge.net/DTD/sodipodi-0.dtd"
   xmlns:inkscape="http://www.inkscape.org/namespaces/inkscape"
   width="64px"
   height="64px"
   id="svg2985"
   version="1.1"
   inkscape:version="0.48.1 "
   sodipodi:docname="wb.svg">
  <defs
     id="defs2987" />
  <sodipodi:namedview
     id="base"
     pagecolor="#ffffff"
     bordercolor="#666666"
     borderopacity="1.0"
     inkscape:pageopacity="0.0"
     inkscape:pageshadow="2"
     inkscape:zoom="5.5"
     inkscape:cx="10.272727"
     inkscape:cy="32"
     inkscape:current-layer="layer1"
     showgrid="true"
     inkscape:document-units="px"
     inkscape:grid-bbox="true"
     inkscape:window-width="1365"
     inkscape:window-height="878"
     inkscape:window-x="-8"
     inkscape:window-y="-8"
     inkscape:window-maximized="1" />
  <metadata
     id="metadata2990">
    <rdf:RDF>
      <cc:Work
         rdf:about="">
        <dc:format>image/svg+xml</dc:format>
        <dc:type
           rdf:resource="http://purl.org/dc/dcmitype/StillImage" />
        <dc:title></dc:title>
      </cc:Work>
    </rdf:RDF>
  </metadata>
  <g
     id="layer1"
     inkscape:label="Layer 1"
     inkscape:groupmode="layer">
    <text
       xml:space="preserve"
       style="font-size:64px;font-style:normal;font-variant:normal;font-weight:normal;font-stretch:normal;line-height:125%;letter-spacing:0px;word-spacing:0px;fill:#000000;fill-opacity:1;stroke:none;font-family:Chess-7;-inkscape-font-specification:Chess-7"
       x="0.38378906"
       y="64.160156"
       id="text3157"
       sodipodi:linespacing="125%"><tspan
         sodipodi:role="line"
         id="tspan3159"
         x="0.38378906"
         y="64.160156">n</tspan></text>
    <path
       style="fill:#ffffff;fill-opacity:1;fill-rule:evenodd"
       d="m 20.122773,59.133618 c -0.262017,-0.689155 -0.2163,-2.156839 0.119946,-3.850776 l 0.297546,-1.498976 1.202595,0.09499 c 1.914453,0.15121 6.953413,0.448167 7.654037,0.451069 0.586018,0.0024 0.81423,0.194419 2.730376,2.297032 1.360733,1.493152 2.344883,2.411489 2.818182,2.629723 0.720364,0.332152 0.654259,0.335376 -6.959046,0.339331 L 20.300091,59.6 20.122773,59.133618 z"
       id="path3161"
       inkscape:connector-curvature="0" />
    <path
       style="fill:#ffffff;fill-opacity:1;fill-rule:evenodd"
       d="m 37.036364,59.285045 c 0.35,-0.168672 1.659091,-1.301349 2.909091,-2.517062 l 2.272727,-2.210386 4.706696,-0.302405 c 2.588683,-0.166323 4.736691,-0.27241 4.773353,-0.235749 0.05933,0.05933 0.600393,1.839314 1.406163,4.626012 L 53.3804,59.6 44.8902,59.59586 c -8.096484,-0.0039 -8.46069,-0.01836 -7.853836,-0.310815 z"
       id="path3163"
       inkscape:connector-curvature="0" />
    <path
       style="fill:#ffffff;fill-opacity:1;fill-rule:evenodd"
       d="m 34.399666,54.508756 -1.631004,-1.638597 1.678021,-1.678021 1.678022,-1.678022 1.629858,1.622307 1.629859,1.622308 -1.505859,1.637305 c -0.828223,0.900518 -1.582817,1.662958 -1.676876,1.694311 -0.09406,0.03135 -0.904968,-0.680363 -1.802021,-1.581591 l 0,0 z"
       id="path3165"
       inkscape:connector-curvature="0" />
    <path
       style="fill:#ffffff;fill-opacity:1;fill-rule:evenodd"
       d="m 40.016651,49.136893 c -2.683002,-2.873698 -3.759364,-3.444097 -5.146009,-2.727035 -0.281215,0.145422 -1.444915,1.257082 -2.586,2.470358 l -2.0747,2.205955 -4.086789,-0.312491 c -2.247734,-0.171871 -4.113082,-0.334824 -4.145217,-0.362118 -0.03214,-0.0273 0.941022,-1.427882 2.16257,-3.112413 1.755902,-2.421413 2.93077,-3.786196 5.610418,-6.517331 5.592681,-5.700143 7.127058,-8.299836 6.867947,-11.636363 -0.226406,-2.9154 -2.305629,-7.418979 -4.03376,-8.737089 -0.716915,-0.546817 -2.377046,-0.878607 -3.573086,-0.714109 -1.341252,0.184469 -1.191385,0.575632 0.706157,1.843095 2.029169,1.355384 2.202011,1.679995 1.763856,3.312674 -0.413833,1.542045 -1.370643,3.834427 -2.134354,5.11361 -0.499111,0.835988 -0.804709,1.110884 -1.863266,1.676071 -0.696431,0.371838 -1.470782,0.678962 -1.720782,0.682497 -0.614949,0.0087 -1.309892,0.465471 -2.805244,1.843836 -1.285114,1.184576 -2.285665,2.534447 -2.285665,3.083658 0,0.168177 0.122728,0.407631 0.272728,0.53212 0.715595,0.593891 -2.73e-4,1.656689 -2.548585,3.783731 -0.933298,0.779009 -2.108859,1.640593 -2.612358,1.914631 L 14.86906,43.978431 14.179985,43.623633 C 13.225546,43.132198 10.853602,41.061045 9.9601639,39.938935 9.1802316,38.95938 9.1004037,38.660725 9.4046303,37.860549 c 0.2211798,-0.581747 0.075614,-1.16964 -0.2896099,-1.16964 -0.1432612,0 -0.2604749,-0.12086 -0.2604749,-0.268576 0,-0.794344 1.6466815,-4.285797 4.3752755,-9.276878 1.725999,-3.15716 2.739643,-5.475016 2.776378,-6.348626 0.02632,-0.625927 -0.02778,-0.731464 -0.424381,-0.827927 -0.718986,-0.174873 -0.667322,-0.861308 0.194138,-2.579409 1.493017,-2.977682 2.406124,-3.98552 4.176965,-4.610309 0.432159,-0.152475 1.052345,-0.480573 1.37819,-0.729107 0.711797,-0.542914 1.641203,-2.3876035 1.808619,-3.5897569 l 0.120735,-0.8669527 0.361644,0.6851345 c 0.529099,1.0023777 1.006764,1.4561623 2.054574,1.9518561 0.927934,0.438983 0.942099,0.439927 2.010735,0.133963 0.809022,-0.231633 1.730758,-0.303187 3.712582,-0.288207 3.113793,0.02354 4.189385,0.24419 7.439071,1.526098 1.983236,0.782329 2.482704,1.068552 3.747574,2.147564 2.841351,2.423847 5.345373,5.580194 6.472284,8.158383 2.343098,5.360634 3.115433,11.525434 2.619289,20.907283 -0.152383,2.881507 -0.277322,5.787669 -0.27764,6.458138 l -5.45e-4,1.219033 -0.590909,0.09333 c -0.325,0.05133 -2.022728,0.178324 -3.772728,0.282207 -1.75,0.103886 -3.600125,0.233715 -4.111389,0.288511 l -0.929569,0.09963 -1.978754,-2.119396 -3.3e-5,0 z M 12.104116,37.513153 c 0.936535,-1.01602 0.966759,-1.477684 0.119906,-1.831522 -0.346789,-0.144896 -0.881485,-0.263449 -1.188216,-0.263449 -0.520637,0 -0.543264,0.02696 -0.340549,0.405733 0.119428,0.223154 0.212696,0.8777 0.207263,1.454545 -0.01221,1.296475 0.187012,1.335387 1.201596,0.234693 l 0,0 z m 8.204975,-14.325484 c 1.708707,-0.68872 1.909091,-0.817114 1.909091,-1.22324 0,-0.599678 -0.942852,-0.91602 -2.875601,-0.964808 -1.356521,-0.03424 -1.446807,-0.0113 -1.865858,0.474154 -0.591574,0.685315 -0.609975,1.804984 -0.03627,2.206824 0.567836,0.397728 0.726606,0.370446 2.868635,-0.49293 z"
       id="path3167"
       inkscape:connector-curvature="0" />
  </g>
</svg>
