<?xml version="1.0" encoding="UTF-8" standalone="no"?>
<!-- Created with Inkscape (http://www.inkscape.org/) -->

<svg
   xmlns:dc="http://purl.org/dc/elements/1.1/"
   xmlns:cc="http://creativecommons.org/ns#"
   xmlns:rdf="http://www.w3.org/1999/02/22-rdf-syntax-ns#"
   xmlns:svg="http://www.w3.org/2000/svg"
   xmlns="http://www.w3.org/2000/svg"
   xmlns:sodipodi="http://sodipodi.sourceforge.net/DTD/sodipodi-0.dtd"
   xmlns:inkscape="http://www.inkscape.org/namespaces/inkscape"
   width="64px"
   height="64px"
   id="svg2985"
   version="1.1"
   inkscape:version="0.48.1 "
   sodipodi:docname="bk.svg">
  <defs
     id="defs2987" />
  <sodipodi:namedview
     id="base"
     pagecolor="#ffffff"
     bordercolor="#666666"
     borderopacity="1.0"
     inkscape:pageopacity="0.0"
     inkscape:pageshadow="2"
     inkscape:zoom="5.5"
     inkscape:cx="53.14394"
     inkscape:cy="32"
     inkscape:current-layer="layer1"
     showgrid="true"
     inkscape:document-units="px"
     inkscape:grid-bbox="true"
     inkscape:window-width="1365"
     inkscape:window-height="878"
     inkscape:window-x="-8"
     inkscape:window-y="-8"
     inkscape:window-maximized="1" />
  <metadata
     id="metadata2990">
    <rdf:RDF>
      <cc:Work
         rdf:about="">
        <dc:format>image/svg+xml</dc:format>
        <dc:type
           rdf:resource="http://purl.org/dc/dcmitype/StillImage" />
        <dc:title></dc:title>
      </cc:Work>
    </rdf:RDF>
  </metadata>
  <g
     id="layer1"
     inkscape:label="Layer 1"
     inkscape:groupmode="layer">
    <path
       style="fill:#000000"
       d="m 18.821153,54.933612 c 0,-1.827539 0.528437,-4.347594 1.174305,-5.600124 1.146411,-2.22323 5.524778,-6.414434 9.7903,-9.371794 2.145096,-1.487232 2.758505,-3.370447 1.37678,-4.226832 -1.544098,-0.957024 -5.542621,1.43149 -10.336971,6.17478 -4.92385,4.871411 -4.962977,4.890985 -7.369881,3.686842 -1.330863,-0.665812 -3.6260978,-2.45875 -5.1005234,-3.984306 l -2.680774,-2.773737 3.1842198,-6.9064 c 1.7513206,-3.79852 4.0465096,-8.867546 5.1004196,-11.264502 1.14873,-2.612609 2.833843,-4.901712 4.207345,-5.715371 2.490015,-1.475078 2.807451,-2.658159 1.343835,-5.0084578 -1.212705,-1.9473818 -0.361657,-4.2001203 1.586737,-4.2001203 0.829932,0 2.56719,1.1076924 3.860571,2.4615385 1.293382,1.3538462 2.570183,2.4615386 2.837335,2.4615386 0.267152,0 0.90265,-1.1076924 1.412218,-2.4615386 0.509569,-1.3538461 1.472601,-2.4615385 2.140074,-2.4615385 1.208975,0 6.292191,5.2126401 6.292191,6.4523971 0,0.358438 1.916302,1.54559 4.25845,2.638116 2.342147,1.092525 5.305702,2.865275 6.585678,3.939444 5.190156,4.355635 8.504474,15.217742 9.355896,30.66235 l 0.486253,8.820513 -19.752229,0 -19.752229,0 0,-3.322798 z m 35.987574,-2.62592 C 54.795199,49.404313 52.025622,33.421904 51.076347,30.769231 48.262158,22.905214 46.136218,20.244978 40.33102,17.323365 c -6.10875,-3.074383 -7.415312,-1.707208 -1.417772,1.483544 6.173399,3.284312 9.711425,11.693231 11.946275,28.393026 0.873334,6.525942 1.274969,7.774424 2.501021,7.774424 1.10496,0 1.457582,-0.649315 1.448183,-2.666667 z m -38.42571,-10.07111 c 0.569225,-0.687829 0.807296,-1.478907 0.529045,-1.75795 -0.594237,-0.595929 -3,1.239268 -3,2.288502 0,1.130213 1.333512,0.843887 2.470955,-0.530552 z m -2.470955,-7.491957 c 0,-0.606979 -0.294545,-1.103599 -0.654545,-1.103599 -1.192976,0 -2.618182,1.945137 -2.618182,3.573323 0,1.552119 0.05302,1.555975 1.636364,0.118984 0.9,-0.816809 1.636363,-1.981728 1.636363,-2.588708 z m 7.92454,-11.09278 c 1.041503,-0.981229 1.893642,-2.088922 1.893642,-2.461539 0,-1.029137 -2.814264,-0.80905 -3.927273,0.30713 -1.048174,1.051161 -1.356748,3.938461 -0.420914,3.938461 0.308497,0 1.413042,-0.802823 2.454545,-1.784052 z m 6.802732,-10.52364 c 0,-0.451282 -0.736363,-0.820513 -1.636363,-0.820513 -0.9,0 -1.636364,0.369231 -1.636364,0.820513 0,0.451282 0.736364,0.820513 1.636364,0.820513 0.9,0 1.636363,-0.369231 1.636363,-0.820513 z"
       id="path3059"
       inkscape:connector-curvature="0" />
    <path
       style="fill:#ffffff;fill-opacity:1;fill-rule:evenodd"
       d="m 52.486132,54.418967 c -0.48082,-0.611263 -0.809343,-2.16246 -1.670232,-7.886369 -1.526809,-10.1515 -2.984026,-15.810122 -5.226718,-20.296234 -1.856806,-3.714216 -3.720819,-5.729162 -7.232547,-7.818182 -2.205758,-1.312139 -3.176331,-2.098627 -3.176331,-2.573887 0,-0.528423 2.211945,0.134353 4.918384,1.473721 5.5391,2.741199 7.912969,5.50075 10.385406,12.072724 0.829001,2.203564 1.139083,3.479517 2.127573,8.754715 1.862311,9.938461 2.442348,15.242281 1.777837,16.256452 -0.42456,0.647962 -1.400225,0.656708 -1.903372,0.01705 l 0,5e-6 z"
       id="path3061"
       inkscape:connector-curvature="0" />
    <path
       style="fill:#ffffff;fill-opacity:1;fill-rule:evenodd"
       d="m 14.117277,43.1 c -0.245219,-0.467965 0.0084,-0.955905 0.946167,-1.820304 1.248924,-1.151218 2.340683,-0.984432 1.691702,0.258439 -0.433261,0.829742 -1.709106,1.880047 -2.283765,1.880047 -0.103056,0 -0.262403,-0.143182 -0.354104,-0.318182 z"
       id="path3063"
       inkscape:connector-curvature="0" />
    <path
       style="fill:#ffffff;fill-opacity:1;fill-rule:evenodd"
       d="m 10.743933,38.036345 c -0.503443,-1.311952 1.102399,-4.254527 2.32181,-4.254527 1.238555,0 0.846719,1.847444 -0.713438,3.363743 -1.093558,1.062817 -1.463692,1.267813 -1.608372,0.890784 z"
       id="path3065"
       inkscape:connector-curvature="0" />
    <path
       style="fill:#ffffff;fill-opacity:1;fill-rule:evenodd"
       d="m 18.987237,24.93405 c -0.229576,-0.603831 0.05411,-2.100253 0.55398,-2.922228 0.193652,-0.318435 0.698315,-0.755601 1.121473,-0.97148 0.872283,-0.445006 2.338867,-0.542305 2.770806,-0.183827 0.360288,0.299012 0.112011,0.825045 -0.96777,2.050446 -0.756788,0.85885 -2.813759,2.511221 -3.126119,2.511221 -0.09257,0 -0.251133,-0.217859 -0.35237,-0.484132 z"
       id="path3067"
       inkscape:connector-curvature="0" />
    <path
       style="fill:#ffffff;fill-opacity:1;fill-rule:evenodd"
       d="m 26.453031,13.824157 c -0.589701,-0.09794 -1.092904,-0.552854 -0.968923,-0.875942 0.171179,-0.446086 1.417546,-0.707513 2.222836,-0.466242 0.389651,0.116742 0.752315,0.326551 0.80592,0.466242 0.208555,0.543485 -0.990773,1.053499 -2.059833,0.875942 z"
       id="path3069"
       inkscape:connector-curvature="0" />
  </g>
</svg>
