<?xml version="1.0" encoding="UTF-8" standalone="no"?>
<!-- Created with Inkscape (http://www.inkscape.org/) -->

<svg
   xmlns:dc="http://purl.org/dc/elements/1.1/"
   xmlns:cc="http://creativecommons.org/ns#"
   xmlns:rdf="http://www.w3.org/1999/02/22-rdf-syntax-ns#"
   xmlns:svg="http://www.w3.org/2000/svg"
   xmlns="http://www.w3.org/2000/svg"
   xmlns:sodipodi="http://sodipodi.sourceforge.net/DTD/sodipodi-0.dtd"
   xmlns:inkscape="http://www.inkscape.org/namespaces/inkscape"
   width="64px"
   height="64px"
   id="svg2985"
   version="1.1"
   inkscape:version="0.48.1 "
   sodipodi:docname="wn.svg">
  <defs
     id="defs2987" />
  <sodipodi:namedview
     id="base"
     pagecolor="#ffffff"
     bordercolor="#666666"
     borderopacity="1.0"
     inkscape:pageopacity="0.0"
     inkscape:pageshadow="2"
     inkscape:zoom="5.5"
     inkscape:cx="50.780304"
     inkscape:cy="32"
     inkscape:current-layer="layer1"
     showgrid="true"
     inkscape:document-units="px"
     inkscape:grid-bbox="true"
     inkscape:window-width="1365"
     inkscape:window-height="878"
     inkscape:window-x="-8"
     inkscape:window-y="-8"
     inkscape:window-maximized="1" />
  <metadata
     id="metadata2990">
    <rdf:RDF>
      <cc:Work
         rdf:about="">
        <dc:format>image/svg+xml</dc:format>
        <dc:type
           rdf:resource="http://purl.org/dc/dcmitype/StillImage" />
        <dc:title></dc:title>
      </cc:Work>
    </rdf:RDF>
  </metadata>
  <g
     id="layer1"
     inkscape:label="Layer 1"
     inkscape:groupmode="layer">
    <path
       style="fill:#000000"
       d="m 11.487179,50.133089 c 0,-4.530302 0.247563,-5.209493 3.020953,-8.288026 1.661525,-1.844333 4.523063,-4.112593 6.358974,-5.040576 4.381023,-2.214442 4.339828,-2.148766 2.262878,-3.607651 -1.428965,-1.00373 -1.796651,-2.079457 -1.796651,-5.256413 0,-3.468658 0.339511,-4.280906 2.579422,-6.171021 1.935635,-1.633357 2.345211,-2.411481 1.641025,-3.117667 -1.614254,-1.618841 -1.069128,-5.492688 1.07559,-7.643499 4.306903,-4.3191378 12.755245,-1.4306142 12.755245,4.361072 0,1.28775 -0.422277,2.764842 -0.938396,3.282427 -0.704185,0.706186 -0.294609,1.48431 1.641027,3.117667 2.23991,1.890115 2.579422,2.702363 2.579422,6.171021 0,3.176956 -0.367686,4.252683 -1.796651,5.256413 -2.07695,1.458885 -2.118145,1.393209 2.262877,3.607651 1.835912,0.927983 4.69745,3.196243 6.358975,5.040576 2.77339,3.078533 3.020952,3.757724 3.020952,8.288026 l 0,4.934692 -20.51282,0 -20.512821,0 0,-4.934692 z m 37.74359,-1.476736 c 0,-2.592955 -0.58912,-3.68992 -3.487179,-6.493273 -1.917949,-1.855272 -4.663766,-3.966272 -6.101816,-4.691112 -3.538188,-1.783402 -4.041797,-2.878736 -1.987135,-4.321965 1.355636,-0.952222 1.729976,-2.079495 1.729976,-5.20958 0,-3.479418 -0.336842,-4.278653 -2.612607,-6.199024 -2.23997,-1.890166 -2.47403,-2.427136 -1.641025,-3.764777 C 37.248071,14.576995 35.749739,11.45706 32,11.45706 c -3.74974,0 -5.248071,3.119935 -3.130983,6.519562 0.833005,1.337641 0.598945,1.874611 -1.641025,3.764777 -2.275766,1.920371 -2.612607,2.719606 -2.612607,6.199024 0,3.130085 0.37434,4.257358 1.729976,5.20958 2.054662,1.443229 1.551053,2.538563 -1.987135,4.321965 -1.43805,0.72484 -4.183867,2.83584 -6.101816,4.691112 -2.898059,2.803353 -3.487179,3.900318 -3.487179,6.493273 l 0,3.120053 17.230769,0 17.230769,0 0,-3.120053 z"
       id="path3208"
       inkscape:connector-curvature="0" />
    <path
       style="fill:#ffffff;fill-opacity:1;fill-rule:evenodd"
       d="m 14.783905,50.190909 c 0.0053,-2.319656 0.291439,-3.986251 0.849378,-4.946302 0.607534,-1.045389 3.489424,-3.915154 5.52393,-5.500689 0.8573,-0.668113 2.466825,-1.75052 3.576723,-2.405349 3.172219,-1.871578 3.444892,-2.512009 1.75788,-4.128753 -0.558669,-0.5354 -1.134202,-1.199814 -1.278962,-1.47648 -0.670866,-1.282154 -0.629447,-6.341776 0.06286,-7.678791 0.207121,-0.4 1.203112,-1.518115 2.213313,-2.484702 1.382815,-1.323111 1.83673,-1.871366 1.83673,-2.218466 0,-0.25357 -0.286363,-1.112345 -0.636363,-1.908389 -1.175516,-2.673606 -0.736119,-4.572201 1.272727,-5.499344 0.844512,-0.389767 2.679007,-0.454412 3.754153,-0.132291 1.474983,0.441916 2.494516,2.060339 2.284463,3.626399 -0.0489,0.364593 -0.387054,1.323215 -0.75145,2.13027 -0.462466,1.024257 -0.62785,1.605577 -0.547671,1.925036 0.06318,0.251716 0.928807,1.236257 1.923623,2.18787 2.470773,2.36347 2.609609,2.68805 2.609609,6.10089 0,3.447053 -0.150283,3.935353 -1.653894,5.37382 -1.386824,1.326738 -1.475666,1.760815 -0.545311,2.664362 0.340436,0.330629 1.3018,0.982149 2.136364,1.447822 2.310836,1.289411 4.384338,2.911576 6.805769,5.324367 2.891552,2.881233 3.028069,3.169058 3.129771,6.59872 l 0.07683,2.590909 -17.202037,0 -17.202037,0 0.0036,-1.590909 -10e-7,0 z"
       id="path3210"
       inkscape:connector-curvature="0" />
  </g>
</svg>
