<?xml version="1.0" encoding="UTF-8" standalone="no"?>
<!-- Created with Inkscape (http://www.inkscape.org/) -->

<svg
   xmlns:dc="http://purl.org/dc/elements/1.1/"
   xmlns:cc="http://creativecommons.org/ns#"
   xmlns:rdf="http://www.w3.org/1999/02/22-rdf-syntax-ns#"
   xmlns:svg="http://www.w3.org/2000/svg"
   xmlns="http://www.w3.org/2000/svg"
   xmlns:sodipodi="http://sodipodi.sourceforge.net/DTD/sodipodi-0.dtd"
   xmlns:inkscape="http://www.inkscape.org/namespaces/inkscape"
   width="64px"
   height="64px"
   id="svg2985"
   version="1.1"
   inkscape:version="0.48.1 "
   sodipodi:docname="wq.svg">
  <defs
     id="defs2987" />
  <sodipodi:namedview
     id="base"
     pagecolor="#ffffff"
     bordercolor="#666666"
     borderopacity="1.0"
     inkscape:pageopacity="0.0"
     inkscape:pageshadow="2"
     inkscape:zoom="5.5"
     inkscape:cx="50.780304"
     inkscape:cy="32"
     inkscape:current-layer="layer1"
     showgrid="true"
     inkscape:document-units="px"
     inkscape:grid-bbox="true"
     inkscape:window-width="1365"
     inkscape:window-height="878"
     inkscape:window-x="-8"
     inkscape:window-y="-8"
     inkscape:window-maximized="1" />
  <metadata
     id="metadata2990">
    <rdf:RDF>
      <cc:Work
         rdf:about="">
        <dc:format>image/svg+xml</dc:format>
        <dc:type
           rdf:resource="http://purl.org/dc/dcmitype/StillImage" />
        <dc:title></dc:title>
      </cc:Work>
    </rdf:RDF>
  </metadata>
  <g
     id="layer1"
     inkscape:label="Layer 1"
     inkscape:groupmode="layer">
    <path
       style="fill:#000000"
       d="M 9.0256409,54.090909 C 9.0256409,50.545454 9.2444446,50 10.666666,50 c 1.275321,0 1.641026,-0.545455 1.641026,-2.447612 0,-1.561516 0.594092,-2.817576 1.641026,-3.469539 0.902564,-0.562059 1.641025,-1.612661 1.641025,-2.33467 0,-0.72201 0.738462,-1.979145 1.641026,-2.793634 1.4012,-1.264466 1.641026,-2.519972 1.641026,-8.590908 0,-6.070936 -0.239826,-7.326443 -1.641026,-8.590909 -0.902564,-0.814489 -1.641026,-2.160189 -1.641026,-2.990445 0,-0.9641 -0.592959,-1.509555 -1.641025,-1.509555 -1.484738,0 -1.641026,-0.545455 -1.641026,-5.727273 l 0,-5.7272726 4.923077,0 c 4.376068,0 4.923077,0.1818181 4.923077,1.6363635 0,1.2727276 0.547009,1.6363636 2.461538,1.6363636 1.91453,0 2.461539,-0.363636 2.461539,-1.6363636 0,-1.4545454 0.547009,-1.6363635 4.923077,-1.6363635 4.376068,0 4.923077,0.1818181 4.923077,1.6363635 0,1.2727276 0.547009,1.6363636 2.461538,1.6363636 1.91453,0 2.461539,-0.363636 2.461539,-1.6363636 0,-1.4545454 0.547008,-1.6363635 4.923077,-1.6363635 l 4.923076,0 0,5.7272726 c 0,5.181818 -0.156288,5.727273 -1.641025,5.727273 -1.048067,0 -1.641026,0.545455 -1.641026,1.509555 0,0.830256 -0.738461,2.175956 -1.641025,2.990445 -1.40027,1.263627 -1.641026,2.519973 -1.641026,8.563439 0,5.95162 0.262036,7.363015 1.641026,8.838981 0.902564,0.966037 1.641025,2.242818 1.641025,2.837292 0,0.594475 0.738462,1.611604 1.641026,2.260287 0.963668,0.692599 1.641025,2.11802 1.641025,3.453348 0,1.72847 0.393639,2.273925 1.641026,2.273925 1.422222,0 1.641026,0.545454 1.641026,4.090909 l 0,4.090909 -22.974359,0 -22.9743591,0 0,-4.090909 z m 43.4871791,0 c 0,-1.592728 -0.547009,-1.636364 -20.51282,-1.636364 -19.965812,0 -20.512821,0.04363 -20.512821,1.636364 0,1.592727 0.547009,1.636363 20.512821,1.636363 19.965811,0 20.51282,-0.04363 20.51282,-1.636363 z m -3.282051,-5.727273 c 0,-1.584416 -0.547009,-1.636364 -17.230769,-1.636364 -16.683761,0 -17.230769,0.05195 -17.230769,1.636364 C 14.769231,49.948052 15.316239,50 32,50 48.68376,50 49.230769,49.94805 49.230769,48.363636 z m -3.282051,-5.318182 c 0,-1.04278 -2.096867,-1.227272 -13.948718,-1.227272 -11.851852,0 -13.948718,0.184492 -13.948718,1.227272 0,1.042781 2.096866,1.227273 13.948718,1.227273 11.851851,0 13.948718,-0.184492 13.948718,-1.227273 z m -3.282052,-12.272727 0,-8.590908 -10.666666,0 -10.666667,0 0,8.590908 0,8.590909 10.666667,0 10.666666,0 0,-8.590909 z m 2.461539,-12.272726 c 0,-1.039773 -2.005698,-1.227273 -13.128205,-1.227273 -11.122508,0 -13.128205,0.1875 -13.128205,1.227273 0,1.039772 2.005697,1.227272 13.128205,1.227272 11.122507,0 13.128205,-0.1875 13.128205,-1.227272 z m 4.102564,-7.363637 c 0,-2.6363634 -0.19536,-2.8636363 -2.461538,-2.8636363 -1.91453,0 -2.461539,0.363636 -2.461539,1.6363639 0,1.4545454 -0.547009,1.6363634 -4.923077,1.6363634 -4.376068,0 -4.923077,-0.181818 -4.923077,-1.6363634 0,-1.2727279 -0.547009,-1.6363639 -2.461538,-1.6363639 -1.91453,0 -2.461539,0.363636 -2.461539,1.6363639 0,1.4545454 -0.547008,1.6363634 -4.923077,1.6363634 -4.376068,0 -4.923077,-0.181818 -4.923077,-1.6363634 0,-1.2727279 -0.547008,-1.6363639 -2.461538,-1.6363639 -2.266178,0 -2.461538,0.2272729 -2.461538,2.8636363 l 0,2.863637 17.230769,0 17.230769,0 0,-2.863637 z"
       id="path3256"
       inkscape:connector-curvature="0" />
    <path
       style="fill:#ffffff;fill-opacity:1;fill-rule:evenodd"
       d="m 14.14394,55.407712 c -1.834867,-0.180059 -2.413646,-0.399632 -2.556793,-0.969977 -0.173373,-0.690771 0.0609,-1.151155 0.700586,-1.376768 1.127194,-0.397554 6.345041,-0.540487 19.765298,-0.541433 14.080184,-9.92e-4 18.591086,0.139474 19.727495,0.614296 0.611025,0.255302 0.65454,0.324724 0.601936,0.960301 -0.07374,0.890983 -0.548307,1.121285 -2.749518,1.334316 -2.038815,0.197314 -33.454048,0.17896 -35.489004,-0.02074 z"
       id="path3258"
       inkscape:connector-curvature="0" />
    <path
       style="fill:#ffffff;fill-opacity:1;fill-rule:evenodd"
       d="m 18.416668,49.773726 c -1.25,-0.0737 -2.498733,-0.22312 -2.774962,-0.332035 -0.665372,-0.26235 -0.988448,-0.963689 -0.717682,-1.557957 0.404066,-0.886827 0.573469,-0.897088 15.939328,-0.965512 17.582768,-0.07829 18.280588,-0.02106 18.280588,1.499482 0,0.961026 -0.572183,1.163124 -3.867392,1.365981 -3.195635,0.196728 -23.482128,0.189206 -26.85988,-0.01 z"
       id="path3260"
       inkscape:connector-curvature="0" />
    <path
       style="fill:#ffffff;fill-opacity:1;fill-rule:evenodd"
       d="m 20.689395,43.964884 c -1.776915,-0.156752 -2.219312,-0.288982 -2.457814,-0.734627 -0.312978,-0.584805 0.462803,-0.907849 2.674375,-1.113641 1.169622,-0.108837 6.308197,-0.153886 12.69253,-0.111274 11.507522,0.07681 12.114591,0.124977 12.235596,0.970921 0.07906,0.552696 -0.66736,0.821 -2.781051,0.999659 -2.158738,0.182467 -20.271435,0.173527 -22.363636,-0.01104 l 0,0 z"
       id="path3262"
       inkscape:connector-curvature="0" />
    <path
       style="fill:#ffffff;fill-opacity:1;fill-rule:evenodd"
       d="m 21.325758,30.781818 0,-8.454545 10.636364,0 10.636364,0 0,8.454545 0,8.454546 -10.636364,0 -10.636364,0 0,-8.454546 z"
       id="path3264"
       inkscape:connector-curvature="0" />
    <path
       style="fill:#ffffff;fill-opacity:1;fill-rule:evenodd"
       d="m 21.416668,19.421087 c -1.904187,-0.187126 -2.497817,-0.421861 -2.421699,-0.957594 0.131189,-0.923327 0.528911,-0.952543 12.967153,-0.952543 12.5861,0 12.909091,0.02497 12.909091,0.998141 0,0.932598 -0.459471,0.972388 -11.727273,1.015568 -5.65,0.02165 -10.927272,-0.02495 -11.727272,-0.103572 z"
       id="path3266"
       inkscape:connector-curvature="0" />
    <path
       style="fill:#ffffff;fill-opacity:1;fill-rule:evenodd"
       d="m 14.788222,12.190909 c 0.0087,-1.944099 0.1977,-3.2328903 0.52165,-3.5568412 0.339795,-0.3397944 2.747816,-0.3856979 3.510748,-0.066925 0.595026,0.248618 0.672809,0.3626014 0.787736,1.1543566 0.07014,0.4831751 0.198625,1.0158281 0.285532,1.1836741 0.274542,0.530225 1.974392,0.739211 5.429044,0.667468 3.823308,-0.0794 4.078016,-0.172739 4.269442,-1.564567 0.06657,-0.484006 0.178658,-0.9732523 0.249091,-1.0872138 0.369453,-0.5977889 2.638007,-0.8001327 3.752032,-0.334663 0.617136,0.2578556 0.682903,0.4000054 0.880732,1.9036238 0.01834,0.139402 0.26434,0.425766 0.546664,0.636364 0.459522,0.342777 0.808678,0.389737 3.331658,0.448098 3.358335,0.07768 5.008551,-0.07012 5.534064,-0.49565 0.254671,-0.20622 0.416543,-0.597473 0.479958,-1.1600763 0.145278,-1.2889131 0.487245,-1.5003759 2.426325,-1.5003759 2.248928,0 2.244215,-0.00629 2.319675,3.0968822 l 0.05954,2.448572 -17.195906,0 -17.195905,0 0.0079,-1.772727 z"
       id="path3268"
       inkscape:connector-curvature="0" />
  </g>
</svg>
