<?xml version="1.0" encoding="UTF-8" standalone="no"?>
<!-- Created with Inkscape (http://www.inkscape.org/) -->
<svg
   xmlns:dc="http://purl.org/dc/elements/1.1/"
   xmlns:cc="http://web.resource.org/cc/"
   xmlns:rdf="http://www.w3.org/1999/02/22-rdf-syntax-ns#"
   xmlns:svg="http://www.w3.org/2000/svg"
   xmlns="http://www.w3.org/2000/svg"
   xmlns:xlink="http://www.w3.org/1999/xlink"
   xmlns:sodipodi="http://inkscape.sourceforge.net/DTD/sodipodi-0.dtd"
   xmlns:inkscape="http://www.inkscape.org/namespaces/inkscape"
   width="700pt"
   height="700pt"
   id="svg36220"
   sodipodi:version="0.32"
   inkscape:version="0.43"
   version="1.0"
   inkscape:export-filename="/home/maurizio/out/wp.png"
   inkscape:export-xdpi="90"
   inkscape:export-ydpi="90"
   sodipodi:docbase="/home/maurizio/chess_pieces/chess_set"
   sodipodi:docname="bp.svg">
  <defs
     id="defs36222">
    <linearGradient
       id="linearGradient3284">
      <stop
         style="stop-color:#808080;stop-opacity:1;"
         offset="0"
         id="stop3286" />
      <stop
         style="stop-color:#000000;stop-opacity:0;"
         offset="1"
         id="stop3288" />
    </linearGradient>
    <linearGradient
       id="linearGradient3268">
      <stop
         style="stop-color:#8accae;stop-opacity:1;"
         offset="0"
         id="stop3270" />
      <stop
         style="stop-color:#9fc1cd;stop-opacity:0;"
         offset="1"
         id="stop3272" />
    </linearGradient>
    <linearGradient
       inkscape:collect="always"
       id="linearGradient2305">
      <stop
         style="stop-color:#000000;stop-opacity:1;"
         offset="0"
         id="stop2307" />
      <stop
         style="stop-color:#000000;stop-opacity:0;"
         offset="1"
         id="stop2309" />
    </linearGradient>
    <linearGradient
       id="linearGradient2507">
      <stop
         style="stop-color:#000000;stop-opacity:1;"
         offset="0"
         id="stop2509" />
      <stop
         style="stop-color:#505070;stop-opacity:1;"
         offset="1"
         id="stop2511" />
    </linearGradient>
    <linearGradient
       inkscape:collect="always"
       xlink:href="#linearGradient2305"
       id="linearGradient2311"
       x1="2394.7349"
       y1="-485"
       x2="2394.7349"
       y2="-938.33337"
       gradientUnits="userSpaceOnUse"
       gradientTransform="matrix(0.172296,0,0,0.172296,-8.565428,632.0951)" />
    <linearGradient
       inkscape:collect="always"
       xlink:href="#linearGradient2305"
       id="linearGradient2313"
       x1="2087.1404"
       y1="-485"
       x2="2033.2518"
       y2="-862.51611"
       gradientUnits="userSpaceOnUse"
       gradientTransform="matrix(0.172296,0,0,0.172296,9.474464,623.1773)" />
    <linearGradient
       inkscape:collect="always"
       xlink:href="#linearGradient2305"
       id="linearGradient2317"
       gradientUnits="userSpaceOnUse"
       gradientTransform="matrix(1.681728e-2,-0.171473,0.171473,1.681728e-2,339.9256,1003.6)"
       x1="2470.0815"
       y1="-364.98831"
       x2="2309.7107"
       y2="-733.76135" />
    <linearGradient
       inkscape:collect="always"
       xlink:href="#linearGradient2305"
       id="linearGradient2323"
       gradientUnits="userSpaceOnUse"
       x1="2234.7434"
       y1="-614.40747"
       x2="1987.2833"
       y2="-832.36462"
       gradientTransform="matrix(6.907793e-3,-0.172157,0.172157,6.907793e-3,463.981,1009.366)" />
    <linearGradient
       inkscape:collect="always"
       xlink:href="#linearGradient2305"
       id="linearGradient2333"
       gradientUnits="userSpaceOnUse"
       x1="2087.1404"
       y1="-485"
       x2="2033.2518"
       y2="-862.51611"
       gradientTransform="matrix(-0.172296,0,0,0.172296,889.8839,626.4261)" />
    <linearGradient
       inkscape:collect="always"
       xlink:href="#linearGradient2305"
       id="linearGradient2335"
       gradientUnits="userSpaceOnUse"
       gradientTransform="matrix(-0.172296,0,0,0.172296,902.2034,631.5868)"
       x1="2394.7349"
       y1="-485"
       x2="2394.7349"
       y2="-938.33337" />
    <linearGradient
       inkscape:collect="always"
       xlink:href="#linearGradient2305"
       id="linearGradient2337"
       gradientUnits="userSpaceOnUse"
       gradientTransform="matrix(-1.681728e-2,-0.171473,-0.171473,1.681728e-2,554.3554,1005.224)"
       x1="2437.9685"
       y1="-388.63342"
       x2="2293.6538"
       y2="-745.58392" />
    <linearGradient
       inkscape:collect="always"
       xlink:href="#linearGradient2305"
       id="linearGradient2339"
       gradientUnits="userSpaceOnUse"
       gradientTransform="matrix(-6.907793e-3,-0.172157,-0.172157,6.907793e-3,428.6757,1012.614)"
       x1="2234.7434"
       y1="-614.40747"
       x2="1987.2833"
       y2="-832.36462" />
    <linearGradient
       inkscape:collect="always"
       xlink:href="#linearGradient2305"
       id="linearGradient2363"
       gradientUnits="userSpaceOnUse"
       x1="1647.1403"
       y1="-382.90863"
       x2="2633.2517"
       y2="-582.90863"
       gradientTransform="matrix(0.155805,0,0,0.155805,-41.94562,535.8173)" />
    <linearGradient
       inkscape:collect="always"
       xlink:href="#linearGradient2305"
       id="linearGradient2367"
       gradientUnits="userSpaceOnUse"
       gradientTransform="matrix(-0.155805,0,0,0.155805,948.4112,533.4479)"
       x1="1647.1403"
       y1="-382.90863"
       x2="2633.2517"
       y2="-582.90863" />
    <linearGradient
       inkscape:collect="always"
       xlink:href="#linearGradient2305"
       id="linearGradient3256"
       gradientUnits="userSpaceOnUse"
       gradientTransform="matrix(0.170105,-2.738572e-2,-2.738572e-2,-0.170105,25.9725,498.9411)"
       x1="2653.51"
       y1="1167.8967"
       x2="2228.9055"
       y2="-1469.516" />
    <linearGradient
       inkscape:collect="always"
       xlink:href="#linearGradient2305"
       id="linearGradient3260"
       gradientUnits="userSpaceOnUse"
       gradientTransform="matrix(-1.681728e-2,-0.171473,-0.171473,1.681728e-2,544.3032,944.911)"
       x1="2437.9685"
       y1="-388.63342"
       x2="2293.6538"
       y2="-745.58392" />
    <linearGradient
       inkscape:collect="always"
       xlink:href="#linearGradient2305"
       id="linearGradient3264"
       gradientUnits="userSpaceOnUse"
       gradientTransform="matrix(1.681728e-2,-0.171473,0.171473,1.681728e-2,353.3285,949.9882)"
       x1="2470.0815"
       y1="-364.98831"
       x2="2309.7107"
       y2="-733.76135" />
    <linearGradient
       inkscape:collect="always"
       xlink:href="#linearGradient3268"
       id="linearGradient3274"
       x1="337.50623"
       y1="472.64157"
       x2="352.78772"
       y2="578.18219"
       gradientUnits="userSpaceOnUse"
       gradientTransform="matrix(0.710798,0,0,0.710798,115.3628,215.2881)" />
    <linearGradient
       inkscape:collect="always"
       xlink:href="#linearGradient3268"
       id="linearGradient3278"
       gradientUnits="userSpaceOnUse"
       x1="337.50623"
       y1="472.64157"
       x2="352.78772"
       y2="578.18219"
       gradientTransform="matrix(-0.710798,0,0,0.710798,778.7826,216.4727)" />
    <linearGradient
       inkscape:collect="always"
       xlink:href="#linearGradient3284"
       id="linearGradient3290"
       x1="466.62888"
       y1="160.41989"
       x2="466.62888"
       y2="546.33032"
       gradientUnits="userSpaceOnUse"
       gradientTransform="matrix(0.710798,0,0,0.710798,115.3628,215.2882)" />
    <linearGradient
       inkscape:collect="always"
       xlink:href="#linearGradient2507"
       id="linearGradient3296"
       gradientUnits="userSpaceOnUse"
       x1="472.81"
       y1="747.08655"
       x2="472.81"
       y2="566.33026"
       gradientTransform="matrix(0.710798,0,0,0.710798,115.3628,215.2882)" />
  </defs>
  <sodipodi:namedview
     id="base"
     pagecolor="#ffffff"
     bordercolor="#666666"
     borderopacity="1.0"
     inkscape:pageopacity="0.0"
     inkscape:pageshadow="2"
     inkscape:zoom="0.60000002"
     inkscape:cx="726.32677"
     inkscape:cy="421.01658"
     inkscape:current-layer="layer1"
     inkscape:document-units="px"
     inkscape:window-width="1009"
     inkscape:window-height="736"
     inkscape:window-x="21"
     inkscape:window-y="137" />
  <metadata
     id="metadata36225">
    <rdf:RDF>
      <cc:Work
         rdf:about="">
        <dc:format>image/svg+xml</dc:format>
        <dc:type
           rdf:resource="http://purl.org/dc/dcmitype/StillImage" />
        <dc:creator>
          <cc:Agent>
            <dc:title>Maurizio Monge</dc:title>
          </cc:Agent>
        </dc:creator>
        <dc:rights>
          <cc:Agent>
            <dc:title>Maurizio Monge</dc:title>
          </cc:Agent>
        </dc:rights>
        <cc:license
           rdf:resource="http://creativecommons.org/licenses/GPL/2.0/" />
      </cc:Work>
      <cc:License
         rdf:about="http://creativecommons.org/licenses/GPL/2.0/">
        <cc:permits
           rdf:resource="http://web.resource.org/cc/Reproduction" />
        <cc:permits
           rdf:resource="http://web.resource.org/cc/Distribution" />
        <cc:requires
           rdf:resource="http://web.resource.org/cc/Notice" />
        <cc:permits
           rdf:resource="http://web.resource.org/cc/DerivativeWorks" />
        <cc:requires
           rdf:resource="http://web.resource.org/cc/ShareAlike" />
        <cc:requires
           rdf:resource="http://web.resource.org/cc/SourceCode" />
      </cc:License>
    </rdf:RDF>
  </metadata>
  <g
     id="layer1"
     inkscape:label="Layer 1"
     inkscape:groupmode="layer">
    <path
       style="fill:url(#linearGradient3296);fill-opacity:1;fill-rule:evenodd;stroke:#000000;stroke-width:16.00003624;stroke-linecap:round;stroke-linejoin:round;stroke-miterlimit:4;stroke-dasharray:none;stroke-opacity:1"
       d="M 381.83945,443.29546 C 334.689,423.04968 332.71374,378.97513 249.31861,361.75601 C 220.50218,355.80609 256.45915,433.34561 261.51726,499.0044 C 266.57608,564.67188 233.77104,622.13809 264.55354,674.99436 C 305.46142,745.2368 335.54585,752.11004 363.23787,777.8078 C 413.67475,824.6124 479.42698,820.92227 519.22653,783.00663 C 552.89714,750.9298 600.20136,734.89545 637.21501,663.59207 C 666.83093,606.53973 649.0939,563.76538 652.92461,503.05008 C 657.39311,432.22549 678.67199,352.585 649.60092,357.35257 C 560.68924,371.93382 555.36922,438.86348 516.04353,450.48959 C 474.14482,462.87638 420.60445,459.94062 381.83945,443.29546 z "
       id="path3294"
       sodipodi:nodetypes="cssssssssss" />
    <path
       sodipodi:nodetypes="cssssssssss"
       id="path3280"
       d="M 381.83945,443.29546 C 334.689,423.04968 332.71374,378.97513 249.31861,361.75601 C 220.50218,355.80609 256.45915,433.34561 261.51726,499.0044 C 266.57608,564.67188 233.77104,622.13809 264.55354,674.99436 C 305.46142,745.2368 335.54585,752.11004 363.23787,777.8078 C 413.67475,824.6124 479.42698,820.92227 519.22653,783.00663 C 552.89714,750.9298 600.20136,734.89545 637.21501,663.59207 C 666.83093,606.53973 649.0939,563.76538 652.92461,503.05008 C 657.39311,432.22549 678.67199,352.585 649.60092,357.35257 C 560.68924,371.93382 555.36922,438.86348 516.04353,450.48959 C 474.14482,462.87638 420.60445,459.94062 381.83945,443.29546 z "
       style="fill:url(#linearGradient3290);fill-opacity:1;fill-rule:evenodd;stroke:#000000;stroke-width:16.00003624;stroke-linecap:round;stroke-linejoin:round;stroke-miterlimit:4;stroke-dasharray:none;stroke-opacity:1" />
    <path
       style="fill:url(#linearGradient3278);fill-opacity:1;fill-rule:evenodd;stroke:none;stroke-width:16.00002098;stroke-linecap:round;stroke-linejoin:round;stroke-miterlimit:4;stroke-dasharray:none;stroke-opacity:1"
       d="M 492.48206,596.47126 C 506.28731,552.14653 544.62764,538.72786 583.22307,567.96468 C 592.84077,575.25029 569.85839,636.78469 492.48206,596.47126 z "
       id="path3276"
       sodipodi:nodetypes="csc" />
    <path
       sodipodi:nodetypes="csc"
       id="path3266"
       d="M 401.66323,595.2866 C 387.85798,550.96187 349.51764,537.5432 310.92222,566.78002 C 301.30452,574.06562 324.2869,635.60002 401.66323,595.2866 z "
       style="fill:url(#linearGradient3274);fill-opacity:1;fill-rule:evenodd;stroke:none;stroke-width:16.00002098;stroke-linecap:round;stroke-linejoin:round;stroke-miterlimit:4;stroke-dasharray:none;stroke-opacity:1" />
    <path
       sodipodi:nodetypes="ccscccc"
       id="path2267"
       d="M 408.36906,685.56652 C 410.40521,694.58132 428.36992,702.88257 435.65582,698.79245 C 439.13717,720.58969 442.67423,710.63402 446.217,710.07187 C 449.35531,709.5739 454.2299,722.04396 454.62026,698.88676 C 462.5741,700.18275 480.61551,697.20048 481.87078,685.4915 L 482.4451,684.91719 C 459.32099,682.01696 426.89893,682.34105 408.36906,685.56652 z "
       style="fill:#c1856e;fill-opacity:1;fill-rule:evenodd;stroke:#000000;stroke-width:16.00003624;stroke-linecap:round;stroke-linejoin:round;stroke-miterlimit:4;stroke-dasharray:none;stroke-opacity:1" />
    <path
       style="fill:none;fill-opacity:0.75;fill-rule:evenodd;stroke:#000000;stroke-width:16.00003624;stroke-linecap:round;stroke-linejoin:round;stroke-miterlimit:4;stroke-dasharray:none;stroke-opacity:1"
       d="M 404.70567,695.82927 C 357.06507,681.20455 310.69765,680.58444 264.57154,682.61991"
       id="path2281"
       sodipodi:nodetypes="cc" />
    <path
       sodipodi:nodetypes="cc"
       id="path2283"
       d="M 368.52314,701.94257 C 319.05365,695.91952 273.29907,703.45923 228.2489,713.57075"
       style="fill:none;fill-opacity:0.75;fill-rule:evenodd;stroke:#000000;stroke-width:16.00003815;stroke-linecap:round;stroke-linejoin:round;stroke-miterlimit:4;stroke-dasharray:none;stroke-opacity:1" />
    <path
       style="fill:none;fill-opacity:0.75;fill-rule:evenodd;stroke:#000000;stroke-width:16.00003624;stroke-linecap:round;stroke-linejoin:round;stroke-miterlimit:4;stroke-dasharray:none;stroke-opacity:1"
       d="M 396.08832,709.78984 C 346.3419,712.75769 297.81479,720.27746 255.31624,738.32259"
       id="path2285"
       sodipodi:nodetypes="cc" />
    <path
       sodipodi:nodetypes="csss"
       id="path2289"
       d="M 529.64813,747.37609 C 487.08661,762.80617 443.23698,742.68134 447.75687,723.5959 C 450.63468,711.44419 440.22057,714.75835 442.912,723.58802 C 447.64214,739.10618 389.12136,762.95587 358.60466,747.00989"
       style="fill:none;fill-opacity:0.75;fill-rule:evenodd;stroke:#000000;stroke-width:16.00003624;stroke-linecap:round;stroke-linejoin:round;stroke-miterlimit:4;stroke-dasharray:none;stroke-opacity:1" />
    <path
       style="fill:none;fill-opacity:0.75;fill-rule:evenodd;stroke:#000000;stroke-width:16.00003624;stroke-linecap:round;stroke-linejoin:round;stroke-miterlimit:4;stroke-dasharray:none;stroke-opacity:1"
       d="M 411.90172,680.50163 C 409.2464,664.57336 425.05035,652.46327 410.29419,605.08552 C 396.48892,560.76075 355.61248,535.99319 310.92247,566.78049 C 303.70673,571.75146 316.93209,635.16437 393.76811,599.37301"
       id="path2291"
       sodipodi:nodetypes="cssc" />
    <path
       style="fill:#000000;fill-opacity:1;fill-rule:evenodd;stroke:#000000;stroke-width:16.00002098;stroke-linecap:round;stroke-linejoin:round;stroke-miterlimit:4;stroke-dasharray:none;stroke-opacity:1"
       d="M 350.42606,567.24509 C 360.85955,576.11049 358.38523,586.82683 353.21983,597.92906 C 348.60858,589.64914 345.58656,580.5279 350.42606,567.24509 z "
       id="path2293"
       sodipodi:nodetypes="ccc" />
    <path
       style="fill:url(#linearGradient2313);fill-opacity:1;fill-rule:evenodd;stroke:none;stroke-width:16;stroke-linecap:round;stroke-linejoin:round;stroke-miterlimit:4;stroke-dasharray:none;stroke-opacity:1"
       d="M 331.25614,496.68628 C 351.13159,514.52365 351.28975,517.48974 365.55196,539.61383 C 375.38841,513.57805 379.80558,487.54225 406.90297,461.50646 L 331.25614,496.68628 z "
       id="path2299"
       sodipodi:nodetypes="cccc" />
    <path
       style="fill:url(#linearGradient2311);fill-opacity:1;fill-rule:evenodd;stroke:none;stroke-width:16;stroke-linecap:round;stroke-linejoin:round;stroke-miterlimit:4;stroke-dasharray:none;stroke-opacity:1"
       d="M 395.91495,474.21426 L 410.53471,555.43521 L 412.15917,472.58984 L 395.91495,474.21426 z "
       id="path2303" />
    <path
       id="path2315"
       d="M 261.26498,616.50496 C 276.66121,604.98116 296.92932,598.32914 304.53897,579.01878 C 284.02905,581.55212 287.67253,558.68207 252.94844,593.17251 L 261.26498,616.50496 z "
       style="fill:url(#linearGradient2317);fill-opacity:1;fill-rule:evenodd;stroke:none;stroke-width:16;stroke-linecap:round;stroke-linejoin:round;stroke-miterlimit:4;stroke-dasharray:none;stroke-opacity:1"
       sodipodi:nodetypes="cccc" />
    <path
       sodipodi:nodetypes="cccc"
       id="path2321"
       d="M 356.99092,669.77577 C 375.61075,650.63141 372.08313,663.58763 394.76127,650.22391 C 369.14079,639.35157 356.29839,630.64525 307.00359,620.39444 C 278.72529,644.25491 323.60625,650.02615 356.99092,669.77577 z "
       style="fill:url(#linearGradient2323);fill-opacity:1;fill-rule:evenodd;stroke:none;stroke-width:16;stroke-linecap:round;stroke-linejoin:round;stroke-miterlimit:4;stroke-dasharray:none;stroke-opacity:1" />
    <path
       sodipodi:nodetypes="cccc"
       id="path2325"
       d="M 568.10217,499.93511 C 548.2267,517.77249 548.06848,520.73858 533.80633,542.86268 C 523.96988,516.82688 519.55271,490.79109 492.45534,464.7553 L 568.10217,499.93511 z "
       style="fill:url(#linearGradient2333);fill-opacity:1;fill-rule:evenodd;stroke:none;stroke-width:16;stroke-linecap:round;stroke-linejoin:round;stroke-miterlimit:4;stroke-dasharray:none;stroke-opacity:1" />
    <path
       id="path2327"
       d="M 497.72329,473.70585 L 483.10353,554.9268 L 481.47907,472.08143 L 497.72329,473.70585 z "
       style="fill:url(#linearGradient2335);fill-opacity:1;fill-rule:evenodd;stroke:none;stroke-width:16;stroke-linecap:round;stroke-linejoin:round;stroke-miterlimit:4;stroke-dasharray:none;stroke-opacity:1" />
    <path
       sodipodi:nodetypes="cccc"
       style="fill:url(#linearGradient2337);fill-opacity:1;fill-rule:evenodd;stroke:none;stroke-width:16;stroke-linecap:round;stroke-linejoin:round;stroke-miterlimit:4;stroke-dasharray:none;stroke-opacity:1"
       d="M 633.01631,618.12938 C 617.62001,606.60558 597.35198,599.95355 589.74226,580.64319 C 610.25217,583.17654 622.68963,578.68469 657.41373,613.17513 L 633.01631,618.12938 z "
       id="path2329" />
    <path
       style="fill:url(#linearGradient2339);fill-opacity:1;fill-rule:evenodd;stroke:none;stroke-width:16;stroke-linecap:round;stroke-linejoin:round;stroke-miterlimit:4;stroke-dasharray:none;stroke-opacity:1"
       d="M 535.66592,673.02461 C 517.04608,653.88024 520.5737,666.83648 497.89556,653.47275 C 523.51605,642.60041 536.35845,633.89407 585.65318,623.64327 C 613.93154,647.50375 569.05058,653.275 535.66592,673.02461 z "
       id="path2331"
       sodipodi:nodetypes="cccc" />
    <path
       style="fill:none;fill-opacity:0.75;fill-rule:evenodd;stroke:#000000;stroke-width:16.00003815;stroke-linecap:round;stroke-linejoin:round;stroke-miterlimit:4;stroke-dasharray:none;stroke-opacity:1"
       d="M 386.53085,724.41226 C 341.22642,745.17326 306.18636,775.5463 273.09265,807.74198"
       id="path2341"
       sodipodi:nodetypes="cc" />
    <path
       style="fill:none;fill-opacity:0.75;fill-rule:evenodd;stroke:#000000;stroke-width:16.00003815;stroke-linecap:round;stroke-linejoin:round;stroke-miterlimit:4;stroke-dasharray:none;stroke-opacity:1"
       d="M 372.65522,722.64091 C 324.01616,733.49223 283.40997,755.88577 244.32708,780.46787"
       id="path2343"
       sodipodi:nodetypes="cc" />
    <path
       sodipodi:nodetypes="cc"
       id="path2345"
       d="M 491.40542,694.20484 C 539.04603,679.58013 585.41345,678.96002 631.53956,680.99548"
       style="fill:none;fill-opacity:0.75;fill-rule:evenodd;stroke:#000000;stroke-width:16.00003624;stroke-linecap:round;stroke-linejoin:round;stroke-miterlimit:4;stroke-dasharray:none;stroke-opacity:1" />
    <path
       style="fill:none;fill-opacity:0.75;fill-rule:evenodd;stroke:#000000;stroke-width:16.00003815;stroke-linecap:round;stroke-linejoin:round;stroke-miterlimit:4;stroke-dasharray:none;stroke-opacity:1"
       d="M 527.58796,700.31815 C 577.05745,694.2951 622.81202,701.83481 667.86212,711.94633"
       id="path2347"
       sodipodi:nodetypes="cc" />
    <path
       sodipodi:nodetypes="cc"
       id="path2349"
       d="M 500.02278,708.16542 C 549.76913,711.13327 598.29632,718.65304 640.79486,736.69817"
       style="fill:none;fill-opacity:0.75;fill-rule:evenodd;stroke:#000000;stroke-width:16.00003624;stroke-linecap:round;stroke-linejoin:round;stroke-miterlimit:4;stroke-dasharray:none;stroke-opacity:1" />
    <path
       sodipodi:nodetypes="cc"
       id="path2351"
       d="M 509.58017,722.78784 C 554.88467,743.5488 589.92467,773.92184 623.01837,806.11759"
       style="fill:none;fill-opacity:0.75;fill-rule:evenodd;stroke:#000000;stroke-width:16.00003815;stroke-linecap:round;stroke-linejoin:round;stroke-miterlimit:4;stroke-dasharray:none;stroke-opacity:1" />
    <path
       sodipodi:nodetypes="cc"
       id="path2353"
       d="M 523.45588,721.01649 C 572.09495,731.86781 612.70106,754.26131 651.78401,778.84349"
       style="fill:none;fill-opacity:0.75;fill-rule:evenodd;stroke:#000000;stroke-width:16.00003815;stroke-linecap:round;stroke-linejoin:round;stroke-miterlimit:4;stroke-dasharray:none;stroke-opacity:1" />
    <path
       sodipodi:nodetypes="cccc"
       id="path2361"
       d="M 254.06735,384.62414 C 257.49873,398.67683 271.30767,461.01953 280.04999,510.10951 C 288.9449,486.56572 332.40974,485.87326 356.91349,462.32947 C 300.70349,371.88578 270.91313,386.87437 254.06735,384.62414 z "
       style="fill:url(#linearGradient2363);fill-opacity:1;fill-rule:evenodd;stroke:none;stroke-width:16;stroke-linecap:round;stroke-linejoin:round;stroke-miterlimit:4;stroke-dasharray:none;stroke-opacity:1" />
    <path
       style="fill:url(#linearGradient2367);fill-opacity:1;fill-rule:evenodd;stroke:none;stroke-width:16;stroke-linecap:round;stroke-linejoin:round;stroke-miterlimit:4;stroke-dasharray:none;stroke-opacity:1"
       d="M 650.31632,375.21888 C 646.88494,389.27157 642.04889,458.6502 633.30658,507.74018 C 624.41166,484.19639 574.055,483.50393 549.55126,459.96015 C 605.76126,369.51645 628.73182,377.46911 650.31632,375.21888 z "
       id="path2365"
       sodipodi:nodetypes="cccc" />
    <path
       sodipodi:nodetypes="cssc"
       id="path3250"
       d="M 482.68403,678.31872 C 485.33936,662.39044 469.53541,650.28036 484.29157,602.90261 C 498.09684,558.57784 538.97328,533.81029 583.66329,564.59757 C 590.87902,569.56855 577.65368,632.98146 500.81765,597.19009"
       style="fill:none;fill-opacity:0.75;fill-rule:evenodd;stroke:#000000;stroke-width:16.00003624;stroke-linecap:round;stroke-linejoin:round;stroke-miterlimit:4;stroke-dasharray:none;stroke-opacity:1" />
    <path
       sodipodi:nodetypes="ccc"
       id="path3252"
       d="M 541.31651,562.21899 C 530.88302,571.08439 533.35734,581.80073 538.52274,592.90296 C 543.13399,584.62305 546.15601,575.5018 541.31651,562.21899 z "
       style="fill:#000000;fill-opacity:1;fill-rule:evenodd;stroke:#000000;stroke-width:16.00002098;stroke-linecap:round;stroke-linejoin:round;stroke-miterlimit:4;stroke-dasharray:none;stroke-opacity:1" />
    <path
       style="fill:url(#linearGradient3256);fill-opacity:1;fill-rule:evenodd;stroke:none;stroke-width:16;stroke-linecap:round;stroke-linejoin:round;stroke-miterlimit:4;stroke-dasharray:none;stroke-opacity:1"
       d="M 432.63548,642.64964 C 411.65128,568.75337 413.05296,473.12321 449.56025,473.65713 C 478.84257,474.09975 473.87329,591.19512 464.33198,649.9641 C 464.33198,649.9641 444.69681,685.12388 432.63548,642.64964 z "
       id="path3254"
       sodipodi:nodetypes="cscs" />
    <path
       id="path3258"
       d="M 622.96411,557.81622 C 607.56782,546.29242 587.29978,539.64039 579.69006,520.33003 C 600.19997,522.86338 612.63743,518.37153 647.36153,552.86196 L 622.96411,557.81622 z "
       style="fill:url(#linearGradient3260);fill-opacity:1;fill-rule:evenodd;stroke:none;stroke-width:16;stroke-linecap:round;stroke-linejoin:round;stroke-miterlimit:4;stroke-dasharray:none;stroke-opacity:1"
       sodipodi:nodetypes="cccc" />
    <path
       sodipodi:nodetypes="cccc"
       style="fill:url(#linearGradient3264);fill-opacity:1;fill-rule:evenodd;stroke:none;stroke-width:16;stroke-linecap:round;stroke-linejoin:round;stroke-miterlimit:4;stroke-dasharray:none;stroke-opacity:1"
       d="M 274.6679,562.89325 C 290.06413,551.36946 310.33224,544.71745 317.94189,525.40708 C 297.43198,527.94043 301.07545,505.07038 266.35136,539.5608 L 274.6679,562.89325 z "
       id="path3262" />
  </g>
</svg>
