<?xml version="1.0" encoding="UTF-8" standalone="no"?>
<!-- Created with Inkscape (http://www.inkscape.org/) -->
<svg
   xmlns:dc="http://purl.org/dc/elements/1.1/"
   xmlns:cc="http://web.resource.org/cc/"
   xmlns:rdf="http://www.w3.org/1999/02/22-rdf-syntax-ns#"
   xmlns:svg="http://www.w3.org/2000/svg"
   xmlns="http://www.w3.org/2000/svg"
   xmlns:xlink="http://www.w3.org/1999/xlink"
   xmlns:sodipodi="http://inkscape.sourceforge.net/DTD/sodipodi-0.dtd"
   xmlns:inkscape="http://www.inkscape.org/namespaces/inkscape"
   width="700pt"
   height="700pt"
   id="svg36220"
   sodipodi:version="0.32"
   inkscape:version="0.43"
   version="1.0"
   inkscape:export-filename="/home/maurizio/out/wb.png"
   inkscape:export-xdpi="90"
   inkscape:export-ydpi="90"
   sodipodi:docbase="/home/maurizio/chess_pieces/chess_set"
   sodipodi:docname="wb.svg">
  <defs
     id="defs36222">
    <linearGradient
       inkscape:collect="always"
       xlink:href="#linearGradient2507"
       id="linearGradient3296"
       gradientUnits="userSpaceOnUse"
       x1="472.81"
       y1="747.08655"
       x2="472.81"
       y2="566.33026"
       gradientTransform="matrix(0.756161,0,0,0.756161,96.07502,212.7173)" />
    <linearGradient
       id="linearGradient3284">
      <stop
         style="stop-color:#808080;stop-opacity:1;"
         offset="0"
         id="stop3286" />
      <stop
         style="stop-color:#000000;stop-opacity:0;"
         offset="1"
         id="stop3288" />
    </linearGradient>
    <linearGradient
       inkscape:collect="always"
       xlink:href="#linearGradient3284"
       id="linearGradient3290"
       x1="466.62888"
       y1="160.41989"
       x2="466.62888"
       y2="546.33032"
       gradientUnits="userSpaceOnUse"
       gradientTransform="matrix(0.756161,0,0,0.756161,96.07502,212.7173)" />
    <linearGradient
       inkscape:collect="always"
       xlink:href="#linearGradient3268"
       id="linearGradient3278"
       gradientUnits="userSpaceOnUse"
       x1="337.50623"
       y1="472.64157"
       x2="352.78772"
       y2="578.18219"
       gradientTransform="matrix(-0.756161,0,0,0.756161,801.8343,213.9775)" />
    <linearGradient
       id="linearGradient3268">
      <stop
         style="stop-color:#8accae;stop-opacity:1;"
         offset="0"
         id="stop3270" />
      <stop
         style="stop-color:#9fc1cd;stop-opacity:0;"
         offset="1"
         id="stop3272" />
    </linearGradient>
    <linearGradient
       inkscape:collect="always"
       xlink:href="#linearGradient3268"
       id="linearGradient3274"
       x1="337.50623"
       y1="472.64157"
       x2="352.78772"
       y2="578.18219"
       gradientUnits="userSpaceOnUse"
       gradientTransform="matrix(0.756161,0,0,0.756161,96.07502,212.7173)" />
    <linearGradient
       inkscape:collect="always"
       xlink:href="#linearGradient2305"
       id="linearGradient2313"
       x1="2087.1404"
       y1="-485"
       x2="2033.2518"
       y2="-862.51611"
       gradientUnits="userSpaceOnUse"
       gradientTransform="matrix(0.183292,0,0,0.183292,-16.57108,646.6376)" />
    <linearGradient
       inkscape:collect="always"
       xlink:href="#linearGradient2305"
       id="linearGradient2311"
       x1="2394.7349"
       y1="-485"
       x2="2394.7349"
       y2="-938.33337"
       gradientUnits="userSpaceOnUse"
       gradientTransform="matrix(0.183292,0,0,0.183292,-35.76228,656.1246)" />
    <linearGradient
       inkscape:collect="always"
       xlink:href="#linearGradient2305"
       id="linearGradient2317"
       gradientUnits="userSpaceOnUse"
       gradientTransform="matrix(1.789056e-2,-0.182416,0.182416,1.789056e-2,334.9694,1051.34)"
       x1="2470.0815"
       y1="-364.98831"
       x2="2309.7107"
       y2="-733.76135" />
    <linearGradient
       inkscape:collect="always"
       xlink:href="#linearGradient2305"
       id="linearGradient2323"
       gradientUnits="userSpaceOnUse"
       x1="2234.7434"
       y1="-614.40747"
       x2="1987.2833"
       y2="-832.36462"
       gradientTransform="matrix(7.348649e-3,-0.183144,0.183144,7.348649e-3,466.9423,1057.473)" />
    <linearGradient
       inkscape:collect="always"
       xlink:href="#linearGradient2305"
       id="linearGradient2333"
       gradientUnits="userSpaceOnUse"
       x1="2087.1404"
       y1="-485"
       x2="2033.2518"
       y2="-862.51611"
       gradientTransform="matrix(-0.183292,0,0,0.183292,920.0253,650.0946)" />
    <linearGradient
       inkscape:collect="always"
       xlink:href="#linearGradient2305"
       id="linearGradient2335"
       gradientUnits="userSpaceOnUse"
       gradientTransform="matrix(-0.183292,0,0,0.183292,933.1313,655.5846)"
       x1="2394.7349"
       y1="-485"
       x2="2394.7349"
       y2="-938.33337" />
    <linearGradient
       inkscape:collect="always"
       xlink:href="#linearGradient2305"
       id="linearGradient2337"
       gradientUnits="userSpaceOnUse"
       gradientTransform="matrix(-1.789056e-2,-0.182416,-0.182416,1.789056e-2,563.0843,1053.067)"
       x1="2437.9685"
       y1="-388.63342"
       x2="2293.6538"
       y2="-745.58392" />
    <linearGradient
       inkscape:collect="always"
       xlink:href="#linearGradient2305"
       id="linearGradient2339"
       gradientUnits="userSpaceOnUse"
       gradientTransform="matrix(-7.348649e-3,-0.183144,-0.183144,7.348649e-3,429.3836,1060.929)"
       x1="2234.7434"
       y1="-614.40747"
       x2="1987.2833"
       y2="-832.36462" />
    <linearGradient
       inkscape:collect="always"
       xlink:href="#linearGradient2305"
       id="linearGradient2363"
       gradientUnits="userSpaceOnUse"
       x1="1647.1403"
       y1="-382.90863"
       x2="2633.2517"
       y2="-582.90863"
       gradientTransform="matrix(0.165748,0,0,0.165748,-71.27288,553.7026)" />
    <linearGradient
       inkscape:collect="always"
       xlink:href="#linearGradient2305"
       id="linearGradient2367"
       gradientUnits="userSpaceOnUse"
       gradientTransform="matrix(-0.165748,0,0,0.165748,982.2883,551.1816)"
       x1="1647.1403"
       y1="-382.90863"
       x2="2633.2517"
       y2="-582.90863" />
    <linearGradient
       inkscape:collect="always"
       xlink:href="#linearGradient2305"
       id="linearGradient3256"
       gradientUnits="userSpaceOnUse"
       gradientTransform="matrix(0.180961,-2.913348e-2,-2.913348e-2,-0.180961,0.979815,514.4726)"
       x1="2653.51"
       y1="1167.8967"
       x2="2228.9055"
       y2="-1469.516" />
    <linearGradient
       inkscape:collect="always"
       xlink:href="#linearGradient2305"
       id="linearGradient3260"
       gradientUnits="userSpaceOnUse"
       gradientTransform="matrix(-1.789056e-2,-0.182416,-0.182416,1.789056e-2,552.3903,988.9046)"
       x1="2437.9685"
       y1="-388.63342"
       x2="2293.6538"
       y2="-745.58392" />
    <linearGradient
       inkscape:collect="always"
       id="linearGradient2305">
      <stop
         style="stop-color:#000000;stop-opacity:1;"
         offset="0"
         id="stop2307" />
      <stop
         style="stop-color:#000000;stop-opacity:0;"
         offset="1"
         id="stop2309" />
    </linearGradient>
    <linearGradient
       inkscape:collect="always"
       xlink:href="#linearGradient2305"
       id="linearGradient3264"
       gradientUnits="userSpaceOnUse"
       gradientTransform="matrix(1.789056e-2,-0.182416,0.182416,1.789056e-2,349.2277,994.3056)"
       x1="2470.0815"
       y1="-364.98831"
       x2="2309.7107"
       y2="-733.76135" />
    <linearGradient
       id="linearGradient2507">
      <stop
         style="stop-color:#ffffff;stop-opacity:1;"
         offset="0"
         id="stop2509" />
      <stop
         style="stop-color:#d0b090;stop-opacity:1;"
         offset="1"
         id="stop2511" />
    </linearGradient>
    <linearGradient
       inkscape:collect="always"
       xlink:href="#linearGradient2507"
       id="linearGradient7567"
       gradientUnits="userSpaceOnUse"
       x1="696.98621"
       y1="124.25547"
       x2="216.33333"
       y2="486.99237"
       gradientTransform="matrix(-0.821076,0,0,0.659347,793.4967,-2.893583)" />
    <linearGradient
       inkscape:collect="always"
       xlink:href="#linearGradient2507"
       id="linearGradient7571"
       gradientUnits="userSpaceOnUse"
       gradientTransform="matrix(0.821076,0,0,0.659347,109.3671,68.15133)"
       x1="-32.538746"
       y1="195.9679"
       x2="575.18024"
       y2="588.12415" />
    <linearGradient
       inkscape:collect="always"
       xlink:href="#linearGradient2507"
       id="linearGradient3723"
       gradientUnits="userSpaceOnUse"
       gradientTransform="matrix(0.263763,-1.745969e-2,3.317125e-2,0.374229,495.2371,151.8994)"
       x1="-1567.2875"
       y1="-173.39944"
       x2="-199.66586"
       y2="439.2937" />
    <linearGradient
       inkscape:collect="always"
       xlink:href="#linearGradient2507"
       id="linearGradient3939"
       gradientUnits="userSpaceOnUse"
       gradientTransform="matrix(0.821076,0,0,0.659347,101.1563,3.699977)"
       x1="-153.95351"
       y1="-67.192932"
       x2="615.71777"
       y2="620.05176" />
  </defs>
  <sodipodi:namedview
     id="base"
     pagecolor="#ffffff"
     bordercolor="#666666"
     borderopacity="1.0"
     inkscape:pageopacity="0.0"
     inkscape:pageshadow="2"
     inkscape:zoom="0.29999999"
     inkscape:cx="449.28046"
     inkscape:cy="250.48423"
     inkscape:current-layer="layer1"
     inkscape:document-units="px"
     inkscape:window-width="885"
     inkscape:window-height="635"
     inkscape:window-x="26"
     inkscape:window-y="320" />
  <metadata
     id="metadata36225">
    <rdf:RDF>
      <cc:Work
         rdf:about="">
        <dc:format>image/svg+xml</dc:format>
        <dc:type
           rdf:resource="http://purl.org/dc/dcmitype/StillImage" />
        <dc:creator>
          <cc:Agent>
            <dc:title>Maurizio Monge</dc:title>
          </cc:Agent>
        </dc:creator>
        <dc:rights>
          <cc:Agent>
            <dc:title>Maurizio Monge</dc:title>
          </cc:Agent>
        </dc:rights>
        <cc:license
           rdf:resource="http://creativecommons.org/licenses/GPL/2.0/" />
      </cc:Work>
      <cc:License
         rdf:about="http://creativecommons.org/licenses/GPL/2.0/">
        <cc:permits
           rdf:resource="http://web.resource.org/cc/Reproduction" />
        <cc:permits
           rdf:resource="http://web.resource.org/cc/Distribution" />
        <cc:requires
           rdf:resource="http://web.resource.org/cc/Notice" />
        <cc:permits
           rdf:resource="http://web.resource.org/cc/DerivativeWorks" />
        <cc:requires
           rdf:resource="http://web.resource.org/cc/ShareAlike" />
        <cc:requires
           rdf:resource="http://web.resource.org/cc/SourceCode" />
      </cc:License>
    </rdf:RDF>
  </metadata>
  <g
     id="layer1"
     inkscape:label="Layer 1"
     inkscape:groupmode="layer">
    <path
       style="fill:url(#linearGradient3296);fill-opacity:1;fill-rule:evenodd;stroke:#000000;stroke-width:16.00002861;stroke-linecap:round;stroke-linejoin:round;stroke-miterlimit:4;stroke-dasharray:none;stroke-opacity:1"
       d="M 379.55807,455.27584 C 329.3985,433.73804 327.29718,386.85064 238.57981,368.53264 C 207.92432,362.20294 246.17605,444.69104 251.55697,514.54014 C 256.93864,584.39854 222.04,645.53214 254.78702,701.76174 C 298.30563,776.48704 330.31003,783.79884 359.76935,811.13664 C 413.42509,860.92834 483.37362,857.00264 525.71312,816.66724 C 561.53262,782.54334 611.85572,765.48564 651.23162,689.63174 C 682.73762,628.93834 663.86862,583.43414 667.94382,518.84404 C 672.69742,443.49944 695.33432,358.77634 664.40792,363.84814 C 569.82202,379.35994 564.16242,450.56104 522.32702,462.92914 C 477.75432,476.10644 420.79704,472.98334 379.55807,455.27584 z "
       id="path3294"
       sodipodi:nodetypes="cssssssssss" />
    <path
       sodipodi:nodetypes="cssssssssss"
       id="path3280"
       d="M 379.55807,455.27584 C 329.3985,433.73804 327.29718,386.85064 238.57981,368.53264 C 207.92432,362.20294 246.17605,444.69104 251.55697,514.54014 C 256.93864,584.39854 222.04,645.53214 254.78702,701.76174 C 298.30563,776.48704 330.31003,783.79884 359.76935,811.13664 C 413.42509,860.92834 483.37362,857.00264 525.71312,816.66724 C 561.53262,782.54334 611.85572,765.48564 651.23162,689.63174 C 682.73762,628.93834 663.86862,583.43414 667.94382,518.84404 C 672.69742,443.49944 695.33432,358.77634 664.40792,363.84814 C 569.82202,379.35994 564.16242,450.56104 522.32702,462.92914 C 477.75432,476.10644 420.79704,472.98334 379.55807,455.27584 z "
       style="fill:url(#linearGradient3290);fill-opacity:1;fill-rule:evenodd;stroke:#000000;stroke-width:16.00002861;stroke-linecap:round;stroke-linejoin:round;stroke-miterlimit:4;stroke-dasharray:none;stroke-opacity:1" />
    <path
       style="fill:url(#linearGradient3278);fill-opacity:1;fill-rule:evenodd;stroke:none;stroke-width:16.00002098;stroke-linecap:round;stroke-linejoin:round;stroke-miterlimit:4;stroke-dasharray:none;stroke-opacity:1"
       d="M 497.26212,618.22754 C 511.94842,571.07404 552.73562,556.79904 593.79422,587.90174 C 604.02572,595.65224 579.57652,661.11384 497.26212,618.22754 z "
       id="path3276"
       sodipodi:nodetypes="csc" />
    <path
       sodipodi:nodetypes="csc"
       id="path3266"
       d="M 400.64718,616.96734 C 385.96088,569.81374 345.17366,555.53874 304.11507,586.64144 C 293.88357,594.39204 318.33269,659.85354 400.64718,616.96734 z "
       style="fill:url(#linearGradient3274);fill-opacity:1;fill-rule:evenodd;stroke:none;stroke-width:16.00002098;stroke-linecap:round;stroke-linejoin:round;stroke-miterlimit:4;stroke-dasharray:none;stroke-opacity:1" />
    <path
       sodipodi:nodetypes="ccscccc"
       id="path2267"
       d="M 407.78079,713.00854 C 409.94689,722.59874 429.0581,731.42974 436.80898,727.07854 C 440.51251,750.26694 444.27531,739.67584 448.04417,739.07784 C 451.38277,738.54814 456.56845,751.81404 456.98373,727.17894 C 465.44522,728.55764 484.63802,725.38504 485.97332,712.92874 L 486.58432,712.31784 C 461.98445,709.23244 427.49323,709.57724 407.78079,713.00854 z "
       style="fill:#c1856e;fill-opacity:1;fill-rule:evenodd;stroke:#000000;stroke-width:16.00002861;stroke-linecap:round;stroke-linejoin:round;stroke-miterlimit:4;stroke-dasharray:none;stroke-opacity:1" />
    <path
       style="fill:none;fill-opacity:0.75;fill-rule:evenodd;stroke:#000000;stroke-width:16.00002861;stroke-linecap:round;stroke-linejoin:round;stroke-miterlimit:4;stroke-dasharray:none;stroke-opacity:1"
       d="M 403.88361,723.92634 C 353.2026,708.36824 303.87603,707.70854 254.80617,709.87394"
       id="path2281"
       sodipodi:nodetypes="cc" />
    <path
       sodipodi:nodetypes="cc"
       id="path2283"
       d="M 365.39192,730.42974 C 312.76531,724.02234 264.09069,732.04324 216.16544,742.80004"
       style="fill:none;fill-opacity:0.75;fill-rule:evenodd;stroke:#000000;stroke-width:16.00003052;stroke-linecap:round;stroke-linejoin:round;stroke-miterlimit:4;stroke-dasharray:none;stroke-opacity:1" />
    <path
       style="fill:none;fill-opacity:0.75;fill-rule:evenodd;stroke:#000000;stroke-width:16.00002861;stroke-linecap:round;stroke-linejoin:round;stroke-miterlimit:4;stroke-dasharray:none;stroke-opacity:1"
       d="M 394.7163,738.77784 C 341.79508,741.93504 290.17099,749.93474 244.9602,769.13154"
       id="path2285"
       sodipodi:nodetypes="cc" />
    <path
       sodipodi:nodetypes="csss"
       id="path2289"
       d="M 536.79982,778.76284 C 491.52202,795.17764 444.87397,773.76844 449.68232,753.46494 C 452.74379,740.53774 441.66505,744.06344 444.52825,753.45664 C 449.56027,769.96514 387.30471,795.33684 354.84045,778.37324"
       style="fill:none;fill-opacity:0.75;fill-rule:evenodd;stroke:#000000;stroke-width:16.00002861;stroke-linecap:round;stroke-linejoin:round;stroke-miterlimit:4;stroke-dasharray:none;stroke-opacity:1" />
    <path
       style="fill:none;fill-opacity:0.75;fill-rule:evenodd;stroke:#000000;stroke-width:16.00002861;stroke-linecap:round;stroke-linejoin:round;stroke-miterlimit:4;stroke-dasharray:none;stroke-opacity:1"
       d="M 411.53891,707.62044 C 408.71412,690.67564 425.52668,677.79274 409.82878,627.39134 C 395.14247,580.23774 351.65731,553.88954 304.1152,586.64164 C 296.43896,591.92984 310.50835,659.38974 392.24802,621.31424"
       id="path2291"
       sodipodi:nodetypes="cssc" />
    <path
       style="fill:#000000;fill-opacity:1;fill-rule:evenodd;stroke:#000000;stroke-width:16.00001335;stroke-linecap:round;stroke-linejoin:round;stroke-miterlimit:4;stroke-dasharray:none;stroke-opacity:1"
       d="M 346.13989,587.13594 C 357.23924,596.56714 354.60701,607.96734 349.11196,619.77814 C 344.20642,610.96984 340.99154,601.26644 346.13989,587.13594 z "
       id="path2293"
       sodipodi:nodetypes="ccc" />
    <path
       style="fill:url(#linearGradient2313);fill-opacity:1;fill-rule:evenodd;stroke:none;stroke-width:16;stroke-linecap:round;stroke-linejoin:round;stroke-miterlimit:4;stroke-dasharray:none;stroke-opacity:1"
       d="M 325.7467,512.07434 C 346.89061,531.05004 347.05886,534.20544 362.23129,557.74154 C 372.6955,530.04414 377.39458,502.34674 406.22132,474.64934 L 325.7467,512.07434 z "
       id="path2299"
       sodipodi:nodetypes="cccc" />
    <path
       style="fill:url(#linearGradient2311);fill-opacity:1;fill-rule:evenodd;stroke:none;stroke-width:16;stroke-linecap:round;stroke-linejoin:round;stroke-miterlimit:4;stroke-dasharray:none;stroke-opacity:1"
       d="M 394.53205,488.16814 L 410.08484,574.57264 L 411.81297,486.44004 L 394.53205,488.16814 z "
       id="path2303" />
    <path
       id="path2315"
       d="M 251.2887,639.53984 C 267.66752,627.28054 289.22914,620.20404 297.32444,599.66124 C 275.50558,602.35634 279.38158,578.02664 242.4414,614.71834 L 251.2887,639.53984 z "
       style="fill:url(#linearGradient2317);fill-opacity:1;fill-rule:evenodd;stroke:none;stroke-width:16;stroke-linecap:round;stroke-linejoin:round;stroke-miterlimit:4;stroke-dasharray:none;stroke-opacity:1"
       sodipodi:nodetypes="cccc" />
    <path
       sodipodi:nodetypes="cccc"
       id="path2321"
       d="M 353.12388,696.21044 C 372.93203,675.84424 369.17928,689.62734 393.30474,675.41074 C 366.04916,663.84454 352.38715,654.58254 299.94635,643.67754 C 269.86333,669.06074 317.6086,675.20034 353.12388,696.21044 z "
       style="fill:url(#linearGradient2323);fill-opacity:1;fill-rule:evenodd;stroke:none;stroke-width:16;stroke-linecap:round;stroke-linejoin:round;stroke-miterlimit:4;stroke-dasharray:none;stroke-opacity:1" />
    <path
       sodipodi:nodetypes="cccc"
       id="path2325"
       d="M 577.70822,515.53044 C 556.56432,534.50624 556.39602,537.66164 541.22362,561.19774 C 530.75942,533.50034 526.06042,505.80294 497.23362,478.10554 L 577.70822,515.53044 z "
       style="fill:url(#linearGradient2333);fill-opacity:1;fill-rule:evenodd;stroke:none;stroke-width:16;stroke-linecap:round;stroke-linejoin:round;stroke-miterlimit:4;stroke-dasharray:none;stroke-opacity:1" />
    <path
       id="path2327"
       d="M 502.83782,487.62724 L 487.28502,574.03174 L 485.55692,485.89914 L 502.83782,487.62724 z "
       style="fill:url(#linearGradient2335);fill-opacity:1;fill-rule:evenodd;stroke:none;stroke-width:16;stroke-linecap:round;stroke-linejoin:round;stroke-miterlimit:4;stroke-dasharray:none;stroke-opacity:1" />
    <path
       sodipodi:nodetypes="cccc"
       style="fill:url(#linearGradient2337);fill-opacity:1;fill-rule:evenodd;stroke:none;stroke-width:16;stroke-linecap:round;stroke-linejoin:round;stroke-miterlimit:4;stroke-dasharray:none;stroke-opacity:1"
       d="M 646.76522,641.26794 C 630.38632,629.00864 608.82482,621.93214 600.72942,601.38934 C 622.54832,604.08444 635.77952,599.30584 672.71972,635.99754 L 646.76522,641.26794 z "
       id="path2329" />
    <path
       style="fill:url(#linearGradient2339);fill-opacity:1;fill-rule:evenodd;stroke:none;stroke-width:16;stroke-linecap:round;stroke-linejoin:round;stroke-miterlimit:4;stroke-dasharray:none;stroke-opacity:1"
       d="M 543.20192,699.66654 C 523.39382,679.30044 527.14652,693.08354 503.02102,678.86694 C 530.27662,667.30074 543.93862,658.03874 596.37942,647.13374 C 626.46252,672.51694 578.71722,678.65654 543.20192,699.66654 z "
       id="path2331"
       sodipodi:nodetypes="cccc" />
    <path
       style="fill:none;fill-opacity:0.75;fill-rule:evenodd;stroke:#000000;stroke-width:16.00003052;stroke-linecap:round;stroke-linejoin:round;stroke-miterlimit:4;stroke-dasharray:none;stroke-opacity:1"
       d="M 384.54888,754.33344 C 336.35314,776.41944 299.07683,808.73084 263.8711,842.98124"
       id="path2341"
       sodipodi:nodetypes="cc" />
    <path
       style="fill:none;fill-opacity:0.75;fill-rule:evenodd;stroke:#000000;stroke-width:16.00003052;stroke-linecap:round;stroke-linejoin:round;stroke-miterlimit:4;stroke-dasharray:none;stroke-opacity:1"
       d="M 369.78771,752.44904 C 318.04452,763.99294 274.84686,787.81554 233.26972,813.96654"
       id="path2343"
       sodipodi:nodetypes="cc" />
    <path
       sodipodi:nodetypes="cc"
       id="path2345"
       d="M 496.11652,722.19824 C 546.79752,706.64014 596.12412,705.98044 645.19392,708.14584"
       style="fill:none;fill-opacity:0.75;fill-rule:evenodd;stroke:#000000;stroke-width:16.00002861;stroke-linecap:round;stroke-linejoin:round;stroke-miterlimit:4;stroke-dasharray:none;stroke-opacity:1" />
    <path
       style="fill:none;fill-opacity:0.75;fill-rule:evenodd;stroke:#000000;stroke-width:16.00003052;stroke-linecap:round;stroke-linejoin:round;stroke-miterlimit:4;stroke-dasharray:none;stroke-opacity:1"
       d="M 534.60822,728.70164 C 587.23482,722.29424 635.90942,730.31514 683.83462,741.07194"
       id="path2347"
       sodipodi:nodetypes="cc" />
    <path
       sodipodi:nodetypes="cc"
       id="path2349"
       d="M 505.28382,737.04974 C 558.20492,740.20704 609.82912,748.20664 655.03992,767.40344"
       style="fill:none;fill-opacity:0.75;fill-rule:evenodd;stroke:#000000;stroke-width:16.00002861;stroke-linecap:round;stroke-linejoin:round;stroke-miterlimit:4;stroke-dasharray:none;stroke-opacity:1" />
    <path
       sodipodi:nodetypes="cc"
       id="path2351"
       d="M 515.45112,752.60534 C 563.64692,774.69124 600.92322,807.00274 636.12892,841.25314"
       style="fill:none;fill-opacity:0.75;fill-rule:evenodd;stroke:#000000;stroke-width:16.00003052;stroke-linecap:round;stroke-linejoin:round;stroke-miterlimit:4;stroke-dasharray:none;stroke-opacity:1" />
    <path
       sodipodi:nodetypes="cc"
       id="path2353"
       d="M 530.21242,750.72094 C 581.95562,762.26484 625.15322,786.08744 666.73042,812.23844"
       style="fill:none;fill-opacity:0.75;fill-rule:evenodd;stroke:#000000;stroke-width:16.00003052;stroke-linecap:round;stroke-linejoin:round;stroke-miterlimit:4;stroke-dasharray:none;stroke-opacity:1" />
    <path
       sodipodi:nodetypes="cccc"
       id="path2361"
       d="M 243.63172,392.86034 C 247.28209,407.80994 261.97232,474.13134 271.27257,526.35424 C 280.73516,501.30784 326.97393,500.57124 353.04151,475.52484 C 293.24418,379.30904 261.5526,395.25424 243.63172,392.86034 z "
       style="fill:url(#linearGradient2363);fill-opacity:1;fill-rule:evenodd;stroke:none;stroke-width:16;stroke-linecap:round;stroke-linejoin:round;stroke-miterlimit:4;stroke-dasharray:none;stroke-opacity:1" />
    <path
       style="fill:url(#linearGradient2367);fill-opacity:1;fill-rule:evenodd;stroke:none;stroke-width:16;stroke-linecap:round;stroke-linejoin:round;stroke-miterlimit:4;stroke-dasharray:none;stroke-opacity:1"
       d="M 665.16932,382.85484 C 661.51892,397.80434 656.37432,471.61074 647.07402,523.83364 C 637.61142,498.78734 584.04102,498.05064 557.97342,473.00434 C 617.77072,376.78854 642.20732,385.24874 665.16932,382.85484 z "
       id="path2365"
       sodipodi:nodetypes="cccc" />
    <path
       sodipodi:nodetypes="cccc"
       id="path7569"
       d="M 321.47854,492.33093 C 306.54569,394.01368 283.41907,393.37512 424.11313,235.1858 C 620.26889,352.47222 560.72792,391.54599 573.38368,491.67529 C 453.47301,479.75914 423.7197,482.02277 321.47854,492.33093 z "
       style="fill:url(#linearGradient7571);fill-opacity:1;fill-rule:evenodd;stroke:#000000;stroke-width:16.00001335;stroke-linecap:round;stroke-linejoin:round;stroke-miterlimit:4;stroke-dasharray:none;stroke-opacity:1" />
    <path
       sodipodi:nodetypes="cssc"
       id="path3250"
       d="M 486.83852,705.29824 C 489.66332,688.35344 472.85072,675.47044 488.54862,625.06914 C 503.23492,577.91554 546.72012,551.56734 594.26222,584.31944 C 601.93842,589.60764 587.86912,657.06754 506.12942,618.99204"
       style="fill:none;fill-opacity:0.75;fill-rule:evenodd;stroke:#000000;stroke-width:16.00002861;stroke-linecap:round;stroke-linejoin:round;stroke-miterlimit:4;stroke-dasharray:none;stroke-opacity:1" />
    <path
       sodipodi:nodetypes="ccc"
       id="path3252"
       d="M 549.21292,581.78904 C 538.11352,591.22024 540.74572,602.62054 546.24082,614.43124 C 551.14632,605.62294 554.36122,595.91954 549.21292,581.78904 z "
       style="fill:#000000;fill-opacity:1;fill-rule:evenodd;stroke:#000000;stroke-width:16.00001335;stroke-linecap:round;stroke-linejoin:round;stroke-miterlimit:4;stroke-dasharray:none;stroke-opacity:1" />
    <path
       style="fill:url(#linearGradient3256);fill-opacity:1;fill-rule:evenodd;stroke:none;stroke-width:16;stroke-linecap:round;stroke-linejoin:round;stroke-miterlimit:4;stroke-dasharray:none;stroke-opacity:1"
       d="M 433.59608,667.35304 C 411.27267,588.74074 412.76381,487.00744 451.601,487.57544 C 482.75212,488.04634 477.46572,612.61474 467.31542,675.13434 C 467.31542,675.13434 446.42717,712.53804 433.59608,667.35304 z "
       id="path3254"
       sodipodi:nodetypes="cscs" />
    <path
       sodipodi:nodetypes="cccc"
       id="path7565"
       d="M 593.53545,421.18985 C 655.77217,290.55633 628.20412,173.58331 521.60231,63.137406 C 453.88307,105.08756 327.28509,276.16024 318.64081,387.21985 C 430.66107,368.33845 482.48201,397.4762 593.53545,421.18985 z "
       style="fill:url(#linearGradient7567);fill-opacity:1;fill-rule:evenodd;stroke:#000000;stroke-width:16.00001335;stroke-linecap:round;stroke-linejoin:round;stroke-miterlimit:4;stroke-dasharray:none;stroke-opacity:1" />
    <path
       style="fill:url(#linearGradient3939);fill-opacity:1;fill-rule:evenodd;stroke:#000000;stroke-width:16.00001335;stroke-linecap:round;stroke-linejoin:round;stroke-miterlimit:4;stroke-dasharray:none;stroke-opacity:1"
       d="M 304.27484,444.25656 C 218.57977,352.37365 280.91436,178.14554 379.775,56.447704 C 538.7116,181.81988 627.6282,319.92083 589.78515,444.04907 C 477.7649,425.16765 415.32833,420.54294 304.27484,444.25656 z "
       id="path5801"
       sodipodi:nodetypes="cccc" />
    <path
       style="opacity:0.98999999;fill:url(#linearGradient3723);fill-opacity:1;fill-rule:evenodd;stroke:#000000;stroke-width:16.00001335;stroke-linecap:round;stroke-linejoin:round;stroke-miterlimit:4;stroke-dasharray:none;stroke-dashoffset:0;stroke-opacity:1"
       d="M 410.94252,239.45796 C 398.58747,239.16298 387.84188,249.48041 388.79586,260.01094 C 388.65892,266.07393 388.35154,272.13273 388.08493,278.19214 C 379.80133,277.75255 371.37889,276.10064 363.12904,277.43196 C 352.19437,279.93461 344.0861,290.28484 346.79249,300.00245 C 348.81722,308.90417 358.91004,315.73499 369.39304,315.38627 C 376.6453,315.71142 383.87774,316.29022 391.11056,316.84061 C 392.92504,332.42599 396.38646,347.85874 400.96453,363.00444 C 402.81029,372.97242 414.63281,381.04458 426.36001,379.22822 C 438.2481,377.82936 447.48941,367.04017 445.06769,356.78925 C 444.03023,351.66732 441.89839,346.7578 440.91144,341.62079 C 438.75795,333.06204 436.92287,324.42081 435.91638,315.71189 C 444.77973,314.95043 454.13457,315.61192 462.4444,312.40425 C 471.87795,308.24231 477.35483,297.82114 473.5016,289.07055 C 470.17361,280.57853 459.52383,274.98424 449.25967,276.06165 C 443.65766,276.25125 438.0906,276.85753 432.50222,277.21343 C 432.63194,274.93713 432.33883,272.60107 432.56326,270.29868 C 432.6736,265.32625 433.50651,260.33323 433.10996,255.37214 C 431.04637,246.59743 421.57841,239.09279 410.94252,239.45796 z "
       id="rect3643" />
    <path
       style="fill:none;fill-opacity:0.75;fill-rule:evenodd;stroke:#000000;stroke-width:16.00001335;stroke-linecap:round;stroke-linejoin:round;stroke-miterlimit:4;stroke-dasharray:none;stroke-opacity:1"
       d="M 423.11013,448.29381 C 413.44478,470.05268 470.69194,476.10256 465.5984,448.62336"
       id="path3941"
       sodipodi:nodetypes="cc" />
    <path
       id="path3258"
       d="M 636.07152,577.10554 C 619.69262,564.84634 598.13112,557.76974 590.03572,537.22704 C 611.85452,539.92204 625.08582,535.14354 662.02592,571.83514 L 636.07152,577.10554 z "
       style="fill:url(#linearGradient3260);fill-opacity:1;fill-rule:evenodd;stroke:none;stroke-width:16;stroke-linecap:round;stroke-linejoin:round;stroke-miterlimit:4;stroke-dasharray:none;stroke-opacity:1"
       sodipodi:nodetypes="cccc" />
    <path
       sodipodi:nodetypes="cccc"
       style="fill:url(#linearGradient3264);fill-opacity:1;fill-rule:evenodd;stroke:none;stroke-width:16;stroke-linecap:round;stroke-linejoin:round;stroke-miterlimit:4;stroke-dasharray:none;stroke-opacity:1"
       d="M 265.547,582.50664 C 281.92582,570.24734 303.48744,563.17084 311.58274,542.62804 C 289.76388,545.32314 293.63988,520.99344 256.6997,557.68514 L 265.547,582.50664 z "
       id="path3262" />
  </g>
</svg>
