<?xml version="1.0" encoding="UTF-8" standalone="no"?>
<!-- Created with Inkscape (http://www.inkscape.org/) -->
<svg
   xmlns:dc="http://purl.org/dc/elements/1.1/"
   xmlns:cc="http://web.resource.org/cc/"
   xmlns:rdf="http://www.w3.org/1999/02/22-rdf-syntax-ns#"
   xmlns:svg="http://www.w3.org/2000/svg"
   xmlns="http://www.w3.org/2000/svg"
   xmlns:sodipodi="http://sodipodi.sourceforge.net/DTD/sodipodi-0.dtd"
   xmlns:inkscape="http://www.inkscape.org/namespaces/inkscape"
   width="54.9375"
   height="112.8125"
   id="svg2"
   sodipodi:version="0.32"
   inkscape:version="0.45.1"
   version="1.0"
   sodipodi:docbase="/home/akiross/Works/Painting"
   sodipodi:docname="BBishop.svg"
   inkscape:output_extension="org.inkscape.output.svg.inkscape"
   inkscape:export-filename="/home/akiross/Works/Painting/chess.png"
   inkscape:export-xdpi="56.25"
   inkscape:export-ydpi="56.25">
  <defs
     id="defs4" />
  <sodipodi:namedview
     id="base"
     pagecolor="#ffffff"
     bordercolor="#666666"
     borderopacity="1.0"
     gridtolerance="10000"
     guidetolerance="10"
     objecttolerance="10"
     inkscape:pageopacity="0.0"
     inkscape:pageshadow="2"
     inkscape:zoom="1"
     inkscape:cx="464.70289"
     inkscape:cy="110.2768"
     inkscape:document-units="px"
     inkscape:current-layer="layer1"
     width="480px"
     height="280px"
     inkscape:window-width="1272"
     inkscape:window-height="946"
     inkscape:window-x="0"
     inkscape:window-y="0" />
  <metadata
     id="metadata7">
    <rdf:RDF>
      <cc:Work
         rdf:about="">
        <dc:format>image/svg+xml</dc:format>
        <dc:type
           rdf:resource="http://purl.org/dc/dcmitype/StillImage" />
        <dc:title>Chess Pieces Set</dc:title>
        <dc:date>21 jan 2008</dc:date>
        <dc:creator>
          <cc:Agent>
            <dc:title>Alessandro [AkiRoss] Re</dc:title>
          </cc:Agent>
        </dc:creator>
        <dc:rights>
          <cc:Agent>
            <dc:title>Alessandro Re</dc:title>
          </cc:Agent>
        </dc:rights>
        <dc:description>http://www.ale-re.net</dc:description>
        <cc:license
           rdf:resource="http://creativecommons.org/licenses/by-sa/2.5/" />
      </cc:Work>
      <cc:License
         rdf:about="http://creativecommons.org/licenses/by-sa/2.5/">
        <cc:permits
           rdf:resource="http://web.resource.org/cc/Reproduction" />
        <cc:permits
           rdf:resource="http://web.resource.org/cc/Distribution" />
        <cc:requires
           rdf:resource="http://web.resource.org/cc/Notice" />
        <cc:requires
           rdf:resource="http://web.resource.org/cc/Attribution" />
        <cc:permits
           rdf:resource="http://web.resource.org/cc/DerivativeWorks" />
        <cc:requires
           rdf:resource="http://web.resource.org/cc/ShareAlike" />
      </cc:License>
    </rdf:RDF>
  </metadata>
  <g
     inkscape:label="Layer 1"
     inkscape:groupmode="layer"
     id="layer1"
     transform="translate(-206.33702,-175.6875)">
    <path
       id="BBishop"
       d="M 233.77452,178.1875 L 255.14952,195.9375 L 247.27452,218.53125 C 251.36966,222.22127 253.96202,227.55724 253.96202,233.5 C 253.96202,240.34041 250.52091,246.39059 245.30577,250.03125 C 252.84723,250.66733 258.02452,251.8914 258.02452,253.3125 C 258.02452,254.9881 250.86826,256.36345 241.05577,256.84375 C 242.73,277.46238 258.77452,260.55123 258.77452,280.03125 L 258.77452,286 L 208.83702,286 L 208.83702,280.03125 C 208.83702,260.55773 224.87254,277.41256 226.55577,256.84375 C 216.72713,256.36494 209.52452,254.98988 209.52452,253.3125 C 209.52452,251.8914 214.73306,250.66733 222.27452,250.03125 C 217.0478,246.39468 213.64952,240.34863 213.64952,233.5 C 213.64952,227.57301 216.1983,222.25148 220.27452,218.5625 L 212.39952,195.9375 L 233.77452,178.1875 z M 233.80577,191.625 C 233.18252,191.625 232.68077,192.12675 232.68077,192.75 L 232.68077,198.1875 L 227.02452,198.1875 C 226.40127,198.1875 225.89952,198.60563 225.89952,199.125 C 225.89952,199.64438 226.40127,200.0625 227.02452,200.0625 L 232.68077,200.0625 L 232.68077,209.5 C 232.68077,210.12325 233.18252,210.625 233.80577,210.625 C 234.42902,210.625 234.93077,210.12325 234.93077,209.5 L 234.93077,200.0625 L 240.58702,200.0625 C 241.21027,200.0625 241.71202,199.64438 241.71202,199.125 C 241.71202,198.60563 241.21027,198.1875 240.58702,198.1875 L 234.93077,198.1875 L 234.93077,192.75 C 234.93077,192.12675 234.42902,191.625 233.80577,191.625 z "
       style="opacity:1;fill:#404040;fill-opacity:1;fill-rule:nonzero;stroke:#919191;stroke-width:5;stroke-linecap:round;stroke-linejoin:round;stroke-miterlimit:4;stroke-dasharray:none;stroke-dashoffset:0;stroke-opacity:1"
       inkscape:label="Black Bishop" />
  </g>
</svg>
