<?xml version="1.0" encoding="UTF-8" standalone="no"?>
<!-- Created with Inkscape (http://www.inkscape.org/) -->
<svg
   xmlns:dc="http://purl.org/dc/elements/1.1/"
   xmlns:cc="http://creativecommons.org/ns#"
   xmlns:rdf="http://www.w3.org/1999/02/22-rdf-syntax-ns#"
   xmlns:svg="http://www.w3.org/2000/svg"
   xmlns="http://www.w3.org/2000/svg"
   xmlns:xlink="http://www.w3.org/1999/xlink"
   xmlns:sodipodi="http://sodipodi.sourceforge.net/DTD/sodipodi-0.dtd"
   xmlns:inkscape="http://www.inkscape.org/namespaces/inkscape"
   width="100"
   height="100"
   id="svg36220"
   sodipodi:version="0.32"
   inkscape:version="0.46"
   version="1.0"
   inkscape:export-filename="/home/maurizio/out/bb.png"
   inkscape:export-xdpi="90"
   inkscape:export-ydpi="90"
   sodipodi:docbase="/home/maurizio/chess_pieces/chess_set"
   sodipodi:docname="bb.svg"
   inkscape:output_extension="org.inkscape.output.svg.inkscape">
  <defs
     id="defs36222">
    <inkscape:perspective
       sodipodi:type="inkscape:persp3d"
       inkscape:vp_x="0 : 437.5 : 1"
       inkscape:vp_y="0 : 1000 : 0"
       inkscape:vp_z="875 : 437.5 : 1"
       inkscape:persp3d-origin="437.5 : 291.66667 : 1"
       id="perspective4153" />
    <linearGradient
       id="linearGradient3099">
      <stop
         style="stop-color:#000000;stop-opacity:1"
         offset="0"
         id="stop3101" />
      <stop
         style="stop-color:#505090;stop-opacity:1"
         offset="1"
         id="stop3103" />
    </linearGradient>
    <linearGradient
       inkscape:collect="always"
       xlink:href="#linearGradient3099"
       id="linearGradient3105"
       x1="721.62231"
       y1="220.04175"
       x2="586.80768"
       y2="554.59656"
       gradientUnits="userSpaceOnUse" />
    <linearGradient
       inkscape:collect="always"
       xlink:href="#linearGradient3099"
       id="linearGradient3135"
       x1="136.09714"
       y1="629.62048"
       x2="784.78107"
       y2="865.10339"
       gradientUnits="userSpaceOnUse"
       gradientTransform="matrix(0.1242271,0,0,0.1242271,-3.2907833,-0.8146557)" />
    <linearGradient
       inkscape:collect="always"
       xlink:href="#linearGradient3099"
       id="linearGradient3153"
       x1="321.15759"
       y1="90.161285"
       x2="395.43152"
       y2="128.46291"
       gradientUnits="userSpaceOnUse"
       gradientTransform="matrix(0.1242271,0,0,0.1242271,-3.2907833,-0.8146557)" />
    <linearGradient
       inkscape:collect="always"
       xlink:href="#linearGradient3099"
       id="linearGradient3157"
       gradientUnits="userSpaceOnUse"
       x1="321.15759"
       y1="90.161285"
       x2="395.43152"
       y2="128.46291"
       gradientTransform="matrix(0.1242271,0,0,0.1242271,14.01364,-1.2982235)" />
    <linearGradient
       inkscape:collect="always"
       xlink:href="#linearGradient3099"
       id="linearGradient2366"
       gradientUnits="userSpaceOnUse"
       x1="721.62231"
       y1="220.04175"
       x2="541.26611"
       y2="599.38" />
    <linearGradient
       inkscape:collect="always"
       xlink:href="#linearGradient3099"
       id="linearGradient7270"
       gradientUnits="userSpaceOnUse"
       x1="192.30013"
       y1="446.01318"
       x2="825.77911"
       y2="717.33643"
       gradientTransform="matrix(0.1242271,0,0,0.1242271,-3.2907833,-0.8146557)" />
    <linearGradient
       inkscape:collect="always"
       xlink:href="#linearGradient3099"
       id="linearGradient7273"
       gradientUnits="userSpaceOnUse"
       x1="192.30013"
       y1="446.01318"
       x2="825.77911"
       y2="717.33643"
       gradientTransform="matrix(0.1242271,0,0,0.1242271,-3.2907833,-0.8146557)" />
    <linearGradient
       inkscape:collect="always"
       xlink:href="#linearGradient3099"
       id="linearGradient2211"
       gradientUnits="userSpaceOnUse"
       x1="721.62231"
       y1="220.04175"
       x2="541.26611"
       y2="599.38"
       gradientTransform="matrix(0.1242271,0,0,0.1242271,-3.2907833,-0.8146557)" />
  </defs>
  <sodipodi:namedview
     id="base"
     pagecolor="#ffffff"
     bordercolor="#666666"
     borderopacity="1.0"
     inkscape:pageopacity="0.0"
     inkscape:pageshadow="2"
     inkscape:zoom="2"
     inkscape:cx="90.45566"
     inkscape:cy="-29.246679"
     inkscape:current-layer="layer1"
     inkscape:document-units="px"
     inkscape:window-width="989"
     inkscape:window-height="726"
     inkscape:window-x="184"
     inkscape:window-y="136"
     showgrid="false" />
  <metadata
     id="metadata36225">
    <rdf:RDF>
      <cc:Work
         rdf:about="">
        <dc:format>image/svg+xml</dc:format>
        <dc:type
           rdf:resource="http://purl.org/dc/dcmitype/StillImage" />
        <dc:rights>
          <cc:Agent>
            <dc:title>Maurizio Monge</dc:title>
          </cc:Agent>
        </dc:rights>
        <dc:creator>
          <cc:Agent>
            <dc:title>Maurizio Monge</dc:title>
          </cc:Agent>
        </dc:creator>
        <cc:license
           rdf:resource="http://creativecommons.org/licenses/GPL/2.0/" />
      </cc:Work>
      <cc:License
         rdf:about="http://creativecommons.org/licenses/GPL/2.0/">
        <cc:permits
           rdf:resource="http://web.resource.org/cc/Reproduction" />
        <cc:permits
           rdf:resource="http://web.resource.org/cc/Distribution" />
        <cc:requires
           rdf:resource="http://web.resource.org/cc/Notice" />
        <cc:permits
           rdf:resource="http://web.resource.org/cc/DerivativeWorks" />
        <cc:requires
           rdf:resource="http://web.resource.org/cc/ShareAlike" />
        <cc:requires
           rdf:resource="http://web.resource.org/cc/SourceCode" />
      </cc:License>
    </rdf:RDF>
  </metadata>
  <g
     id="layer1"
     inkscape:label="Layer 1"
     inkscape:groupmode="layer">
    <path
       style="fill:url(#linearGradient2211);fill-opacity:1;fill-rule:evenodd;stroke:#808080;stroke-width:1.9876349;stroke-linecap:round;stroke-linejoin:round;stroke-miterlimit:4;stroke-dasharray:none;stroke-opacity:1"
       d="M 50.860646,26.126373 C 52.204749,23.858357 55.725016,19.854218 59.355029,17.771811 C 63.856158,22.002479 69.993856,31.855557 73.02993,41.323589 C 75.396193,48.70282 75.886918,52.018535 76.010114,59.901582 C 76.133311,67.784629 71.987521,75.549972 69.442852,78.422683"
       id="path9790"
       sodipodi:nodetypes="ccsss" />
    <path
       style="fill:url(#linearGradient7273);fill-opacity:1;fill-rule:evenodd;stroke:#808080;stroke-width:1.9876349;stroke-linecap:round;stroke-linejoin:round;stroke-miterlimit:4;stroke-dasharray:none;stroke-opacity:1"
       d="M 66.955886,84.536617 C 67.706059,77.894303 30.418017,78.384586 31.942797,84.910062 C 33.174771,87.62905 32.20311,91.125775 32.20311,91.125775 C 32.20311,91.125775 40.809263,89.904574 50.38787,90.05676 C 59.966467,90.208936 66.44919,90.96841 66.44919,90.96841 C 66.44919,90.96841 66.205723,86.494035 66.955886,84.536617 z"
       id="path9792"
       sodipodi:nodetypes="cccscc" />
    <path
       style="fill:url(#linearGradient7270);fill-opacity:1;fill-rule:evenodd;stroke:#808080;stroke-width:1.9876349;stroke-linecap:round;stroke-linejoin:round;stroke-miterlimit:4;stroke-dasharray:none;stroke-opacity:1"
       d="M 31.42254,83.943552 C 28.59134,82.939194 26.530193,78.920308 24.744097,76.357038 C 21.893126,72.265546 20.212268,63.756792 21.881948,54.215445 C 23.551637,44.674108 32.625985,26.237067 41.918114,18.058775 C 53.242907,26.237067 60.546238,38.601279 66.309967,55.076321 C 69.394424,63.892905 70.925369,73.54133 68.094168,83.656587 C 61.488046,82.293542 39.118184,81.0006 31.42254,83.943552 z"
       id="path9786"
       sodipodi:nodetypes="csscscc" />
    <path
       style="fill:url(#linearGradient3153);fill-opacity:1;fill-rule:evenodd;stroke:#808080;stroke-width:1.9876349;stroke-linecap:round;stroke-linejoin:round;stroke-miterlimit:4;stroke-dasharray:none;stroke-opacity:1"
       d="M 40.242041,16.417947 C 41.79236,13.784858 37.790927,12.104994 39.884006,10.265998 C 41.059419,9.2332677 43.07027,9.1299523 44.199287,10.46952 C 45.827135,12.400929 41.373754,14.076478 43.564868,16.392297"
       id="path12426"
       sodipodi:nodetypes="csss" />
    <path
       style="fill:none;fill-opacity:0.75;fill-rule:evenodd;stroke:#808080;stroke-width:1.9876349;stroke-linecap:round;stroke-linejoin:round;stroke-miterlimit:4;stroke-dasharray:none;stroke-opacity:1"
       d="M 50.919452,87.678381 C 49.735225,87.358655 48.670663,87.921461 48.236444,87.561661 C 47.703629,87.120155 47.734826,85.283267 48.08758,84.816977 C 48.3892,84.418288 52.265523,84.368525 52.645895,84.735815 C 53.000479,85.077629 52.635619,87.302949 52.307098,87.866023"
       id="path13305"
       sodipodi:nodetypes="cssss" />
    <path
       style="fill:#000000;fill-opacity:1;fill-rule:evenodd;stroke:#808080;stroke-width:1.9876349;stroke-linecap:round;stroke-linejoin:round;stroke-miterlimit:4;stroke-dasharray:none;stroke-opacity:1"
       d="M 44.078593,42.486251 C 42.658949,42.711392 41.952384,44.267958 42.130109,45.587975 C 42.105655,46.71645 42.599968,48.1704 41.671694,49.054763 C 40.415929,49.472561 39.056959,48.949341 37.777403,48.839963 C 36.723945,48.743713 35.453552,48.345475 34.516979,49.023704 C 33.800128,49.872887 34.637489,51.156077 35.561265,51.442251 C 37.418826,52.250309 39.6242,51.828823 41.411593,52.785461 C 42.028597,53.354671 41.902428,54.346057 42.090954,55.103075 C 42.672032,59.612787 42.641331,64.248465 44.004837,68.616663 C 44.36174,69.575721 44.91921,70.906373 46.112811,70.914865 C 47.034232,70.599564 46.917899,69.375696 46.966879,68.585604 C 46.855274,63.632436 45.480646,58.804452 45.262635,53.860797 C 45.238126,53.37411 45.281642,52.763335 45.910946,52.711696 C 48.142319,52.069475 50.749483,52.783851 52.778374,51.426721 C 53.611595,50.975215 54.307065,49.290586 52.956955,49.070293 C 50.577149,48.720042 48.17164,49.745725 45.806131,49.299335 C 45.073825,49.040071 45.137957,48.026366 45.052996,47.389343 C 44.914353,45.888639 45.370403,44.291262 44.80066,42.858931 C 44.657794,42.609107 44.370691,42.450141 44.078593,42.486251 z"
       id="path18555" />
    <path
       style="fill:url(#linearGradient3135);fill-opacity:1;fill-rule:evenodd;stroke:#808080;stroke-width:1.9876349;stroke-linecap:round;stroke-linejoin:round;stroke-miterlimit:4;stroke-dasharray:none;stroke-opacity:1"
       d="M 36.19699,98.975619 C 43.131744,98.897944 46.47033,94.95298 49.539892,94.948316 C 52.609463,94.943651 55.41001,98.879296 62.875913,98.892406 C 66.881716,98.899435 87.969666,99.320314 86.797658,96.123968 C 85.625667,92.927621 72.30778,97.220077 67.84852,94.946742 C 65.514356,93.756794 64.829567,93.474779 61.810099,93.017311 C 53.664651,91.78324 45.336446,91.832432 37.971006,92.970658 C 34.691999,93.477382 33.358246,94.041633 31.511458,95.284656 C 28.404986,97.375556 15.319259,93.028075 14.289325,96.082356 C 13.259393,99.136646 27.7703,99.070011 36.19699,98.975619 z"
       id="path5000"
       sodipodi:nodetypes="csssssssss" />
    <path
       sodipodi:nodetypes="csss"
       id="path3155"
       d="M 57.546467,15.934379 C 59.096787,13.3013 55.095344,11.621426 57.188424,9.7824309 C 58.363836,8.7497092 60.374696,8.6463938 61.503713,9.9859521 C 63.131552,11.91737 58.67818,13.59292 60.869285,15.90873"
       style="fill:url(#linearGradient3157);fill-opacity:1;fill-rule:evenodd;stroke:#808080;stroke-width:1.9876349;stroke-linecap:round;stroke-linejoin:round;stroke-miterlimit:4;stroke-dasharray:none;stroke-opacity:1" />
  </g>
</svg>
