<?xml version="1.0" encoding="UTF-8" standalone="no"?>
<!-- Created with Inkscape (http://www.inkscape.org/) -->
<svg
   xmlns:dc="http://purl.org/dc/elements/1.1/"
   xmlns:cc="http://creativecommons.org/ns#"
   xmlns:rdf="http://www.w3.org/1999/02/22-rdf-syntax-ns#"
   xmlns:svg="http://www.w3.org/2000/svg"
   xmlns="http://www.w3.org/2000/svg"
   xmlns:xlink="http://www.w3.org/1999/xlink"
   xmlns:sodipodi="http://sodipodi.sourceforge.net/DTD/sodipodi-0.dtd"
   xmlns:inkscape="http://www.inkscape.org/namespaces/inkscape"
   width="100"
   height="100"
   id="svg36220"
   sodipodi:version="0.32"
   inkscape:version="0.46"
   version="1.0"
   inkscape:export-filename="/home/maurizio/out/bq.png"
   inkscape:export-xdpi="90"
   inkscape:export-ydpi="90"
   sodipodi:docbase="/home/maurizio/out1"
   sodipodi:docname="bq.svg"
   inkscape:output_extension="org.inkscape.output.svg.inkscape">
  <defs
     id="defs36222">
    <inkscape:perspective
       sodipodi:type="inkscape:persp3d"
       inkscape:vp_x="0 : 437.5 : 1"
       inkscape:vp_y="0 : 1000 : 0"
       inkscape:vp_z="875 : 437.5 : 1"
       inkscape:persp3d-origin="437.5 : 291.66667 : 1"
       id="perspective4573" />
    <linearGradient
       id="linearGradient2508">
      <stop
         style="stop-color:#000000;stop-opacity:1"
         offset="0"
         id="stop2510" />
      <stop
         style="stop-color:#505090;stop-opacity:1"
         offset="1"
         id="stop2512" />
    </linearGradient>
    <linearGradient
       inkscape:collect="always"
       xlink:href="#linearGradient2508"
       id="linearGradient2538"
       x1="785.14124"
       y1="294.75864"
       x2="840.91125"
       y2="363.08893"
       gradientUnits="userSpaceOnUse"
       gradientTransform="matrix(0.1204219,0,0,0.1204219,-2.8249047,-1.5736534)" />
    <linearGradient
       inkscape:collect="always"
       xlink:href="#linearGradient2508"
       id="linearGradient2546"
       x1="649.86255"
       y1="171.18027"
       x2="711.11725"
       y2="227.74881"
       gradientUnits="userSpaceOnUse"
       gradientTransform="matrix(0.1204219,0,0,0.1204219,-2.8249047,-1.5736534)" />
    <linearGradient
       inkscape:collect="always"
       xlink:href="#linearGradient2508"
       id="linearGradient2554"
       x1="406.01202"
       y1="103.53159"
       x2="470.8349"
       y2="132.99438"
       gradientUnits="userSpaceOnUse"
       gradientTransform="matrix(0.1204219,0,0,0.1204219,-2.8249047,-1.5736534)" />
    <linearGradient
       inkscape:collect="always"
       xlink:href="#linearGradient2508"
       id="linearGradient2562"
       x1="167.87183"
       y1="174.99733"
       x2="234.62003"
       y2="174.99733"
       gradientUnits="userSpaceOnUse"
       gradientTransform="matrix(0.1204219,0,0,0.1204219,-2.8249047,-1.5736534)" />
    <linearGradient
       inkscape:collect="always"
       xlink:href="#linearGradient2508"
       id="linearGradient2570"
       x1="23.458433"
       y1="337.85495"
       x2="87.371216"
       y2="315.46323"
       gradientUnits="userSpaceOnUse"
       gradientTransform="matrix(0.1204219,0,0,0.1204219,-2.8249047,-1.5736534)" />
    <linearGradient
       inkscape:collect="always"
       xlink:href="#linearGradient2508"
       id="linearGradient2578"
       x1="339.47086"
       y1="530.60559"
       x2="514.54016"
       y2="571.59277"
       gradientUnits="userSpaceOnUse" />
    <linearGradient
       inkscape:collect="always"
       xlink:href="#linearGradient2508"
       id="linearGradient2586"
       x1="339.47086"
       y1="530.60559"
       x2="495.02243"
       y2="584.75751"
       gradientUnits="userSpaceOnUse" />
    <linearGradient
       inkscape:collect="always"
       xlink:href="#linearGradient2508"
       id="linearGradient2594"
       x1="339.47086"
       y1="530.60559"
       x2="487.21536"
       y2="584.75751"
       gradientUnits="userSpaceOnUse" />
    <linearGradient
       inkscape:collect="always"
       xlink:href="#linearGradient2508"
       id="linearGradient2602"
       x1="339.47086"
       y1="530.60559"
       x2="498.92599"
       y2="584.75751"
       gradientUnits="userSpaceOnUse" />
    <linearGradient
       inkscape:collect="always"
       xlink:href="#linearGradient2508"
       id="linearGradient2610"
       x1="339.47086"
       y1="530.60559"
       x2="510.6366"
       y2="584.75751"
       gradientUnits="userSpaceOnUse" />
    <linearGradient
       inkscape:collect="always"
       xlink:href="#linearGradient2508"
       id="linearGradient5283"
       gradientUnits="userSpaceOnUse"
       x1="153.6037"
       y1="380.53995"
       x2="761.36395"
       y2="682.2066"
       gradientTransform="matrix(0.1204219,0,0,0.1204219,-2.8249047,-1.5736534)" />
    <linearGradient
       inkscape:collect="always"
       xlink:href="#linearGradient2508"
       id="linearGradient5286"
       gradientUnits="userSpaceOnUse"
       x1="153.6037"
       y1="380.53995"
       x2="761.36395"
       y2="682.2066"
       gradientTransform="matrix(0.1204219,0,0,0.1204219,-2.8249047,-1.5736534)" />
    <linearGradient
       inkscape:collect="always"
       xlink:href="#linearGradient2508"
       id="linearGradient5289"
       gradientUnits="userSpaceOnUse"
       x1="153.6037"
       y1="380.53995"
       x2="761.36395"
       y2="682.2066"
       gradientTransform="matrix(0.1204219,0,0,0.1204219,-2.8249047,-1.5736534)" />
    <linearGradient
       inkscape:collect="always"
       xlink:href="#linearGradient2508"
       id="linearGradient5292"
       gradientUnits="userSpaceOnUse"
       x1="153.6037"
       y1="380.53995"
       x2="761.36395"
       y2="682.2066"
       gradientTransform="matrix(0.1204219,0,0,0.1204219,-2.8249047,-1.5736534)" />
    <linearGradient
       inkscape:collect="always"
       xlink:href="#linearGradient2508"
       id="linearGradient5295"
       gradientUnits="userSpaceOnUse"
       x1="153.6037"
       y1="380.53995"
       x2="761.36395"
       y2="682.2066"
       gradientTransform="matrix(0.1204219,0,0,0.1204219,-2.8249047,-1.5736534)" />
  </defs>
  <sodipodi:namedview
     id="base"
     pagecolor="#ffffff"
     bordercolor="#666666"
     borderopacity="1.0"
     inkscape:pageopacity="0.0"
     inkscape:pageshadow="2"
     inkscape:zoom="2"
     inkscape:cx="89.819418"
     inkscape:cy="95.25"
     inkscape:current-layer="layer1"
     inkscape:document-units="px"
     inkscape:window-width="935"
     inkscape:window-height="730"
     inkscape:window-x="78"
     inkscape:window-y="156"
     showgrid="false" />
  <metadata
     id="metadata36225">
    <rdf:RDF>
      <cc:Work
         rdf:about="">
        <dc:format>image/svg+xml</dc:format>
        <dc:type
           rdf:resource="http://purl.org/dc/dcmitype/StillImage" />
        <dc:creator>
          <cc:Agent>
            <dc:title>Maurizio Monge</dc:title>
          </cc:Agent>
        </dc:creator>
        <dc:rights>
          <cc:Agent>
            <dc:title>Maurizio Monge</dc:title>
          </cc:Agent>
        </dc:rights>
        <cc:license
           rdf:resource="http://creativecommons.org/licenses/GPL/2.0/" />
      </cc:Work>
      <cc:License
         rdf:about="http://creativecommons.org/licenses/GPL/2.0/">
        <cc:permits
           rdf:resource="http://web.resource.org/cc/Reproduction" />
        <cc:permits
           rdf:resource="http://web.resource.org/cc/Distribution" />
        <cc:requires
           rdf:resource="http://web.resource.org/cc/Notice" />
        <cc:permits
           rdf:resource="http://web.resource.org/cc/DerivativeWorks" />
        <cc:requires
           rdf:resource="http://web.resource.org/cc/ShareAlike" />
        <cc:requires
           rdf:resource="http://web.resource.org/cc/SourceCode" />
      </cc:License>
    </rdf:RDF>
  </metadata>
  <g
     id="layer1"
     inkscape:label="Layer 1"
     inkscape:groupmode="layer">
    <path
       style="fill:url(#linearGradient5295);fill-opacity:1;fill-rule:evenodd;stroke:none;stroke-width:16;stroke-linecap:butt;stroke-linejoin:miter;stroke-miterlimit:4;stroke-dasharray:none;stroke-opacity:1"
       d="M 26.550225,97.761207 L 20.483585,77.745627 L 72.718765,77.904337 L 66.755635,98.337637 L 26.550225,97.761207 z"
       id="path25586"
       sodipodi:nodetypes="ccccc" />
    <path
       style="fill:url(#linearGradient5292);fill-opacity:1;fill-rule:evenodd;stroke:#808080;stroke-width:1.92675066;stroke-linecap:round;stroke-linejoin:round;stroke-miterlimit:4;stroke-dasharray:none;stroke-opacity:1"
       d="M 70.959195,84.682117 C 56.243675,79.423447 36.830835,79.392907 22.502165,84.669587 C 24.017575,88.346027 24.419045,95.868597 24.419045,95.868597 C 36.547855,92.475917 57.168335,92.579067 69.202165,96.372917 C 69.202165,96.372917 69.480315,88.339997 70.959195,84.682117 z"
       id="path9792"
       sodipodi:nodetypes="ccccc" />
    <path
       style="fill:url(#linearGradient5289);fill-opacity:1;fill-rule:evenodd;stroke:#808080;stroke-width:1.92675066;stroke-linecap:round;stroke-linejoin:round;stroke-miterlimit:4;stroke-dasharray:none;stroke-opacity:1"
       d="M 20.669865,82.470657 C 35.343345,76.125997 58.311485,76.025737 73.122925,82.520047 C 74.583185,69.871377 79.185855,54.257427 87.896625,43.057857 C 81.291745,45.642367 71.702375,62.188437 66.127315,65.306737 C 61.755505,56.122977 70.407635,32.286577 73.771555,27.237897 C 68.123885,30.636057 56.172145,51.685467 52.641175,61.532247 C 47.551435,50.159057 48.742795,28.888067 48.621035,19.973647 C 44.792115,28.349397 39.767855,47.595187 39.253585,61.195807 C 29.476245,53.866447 26.025755,34.068237 23.418005,26.224597 C 21.982165,37.519897 24.487855,57.193767 26.142355,65.148137 C 19.785005,60.862007 12.361325,51.429747 6.1991553,43.435467 C 14.033715,62.169947 16.869515,67.844137 20.669865,82.470657 z"
       id="path28221"
       sodipodi:nodetypes="cccccccccccc" />
    <path
       style="fill:url(#linearGradient5286);fill-opacity:1;fill-rule:evenodd;stroke:#808080;stroke-width:1.92675066;stroke-linecap:round;stroke-linejoin:round;stroke-miterlimit:4;stroke-dasharray:none;stroke-opacity:1"
       d="M 46.278745,82.695397 C 43.990955,82.683627 45.244875,84.457847 44.795285,85.238117 C 43.767175,85.834077 40.430545,84.776697 41.504595,86.964967 C 42.265515,88.515277 43.403175,87.785477 44.680975,88.284987 C 45.316225,89.160037 44.242275,91.821267 46.491705,91.765437 C 48.349505,91.719327 47.336855,89.064257 47.733945,88.348887 C 48.857025,87.615027 50.330515,88.609567 51.073775,86.728967 C 51.638055,85.301247 48.844465,85.830807 47.741335,85.215977 C 47.279245,84.525807 48.659035,82.707857 46.278745,82.695397 z"
       id="path7672"
       sodipodi:nodetypes="ccscscscs" />
    <path
       style="fill:url(#linearGradient5283);fill-opacity:1;fill-rule:evenodd;stroke:#808080;stroke-width:1.92675066;stroke-linecap:round;stroke-linejoin:round;stroke-miterlimit:4;stroke-dasharray:none;stroke-opacity:1"
       d="M 26.627085,97.807287 C 37.323225,99.083617 54.651865,99.536617 66.722515,98.337977 C 59.910415,95.293567 35.426035,95.319307 26.627085,97.807287 z"
       id="path8563"
       sodipodi:nodetypes="ccc" />
    <path
       style="fill:url(#linearGradient2554);fill-opacity:1;fill-rule:evenodd;stroke:#808080;stroke-width:1.92675066;stroke-linecap:round;stroke-linejoin:round;stroke-miterlimit:4;stroke-dasharray:none;stroke-opacity:1"
       d="M 54.329745,8.3633766 C 53.298935,8.3859766 50.121785,8.9196466 48.212505,9.8719766 C 47.633305,11.330287 47.934175,15.604767 48.228375,19.100997 C 50.056915,16.166317 54.097275,11.122657 54.329745,8.3633766 z"
       id="path1323"
       sodipodi:nodetypes="cccc" />
    <path
       sodipodi:type="arc"
       style="opacity:1;fill:url(#linearGradient2586);fill-opacity:1;fill-rule:evenodd;stroke:#808080;stroke-width:18.73698616;stroke-linecap:round;stroke-linejoin:round;stroke-miterlimit:4;stroke-dasharray:none;stroke-dashoffset:0;stroke-opacity:1"
       id="path29102"
       sodipodi:cx="394.8013"
       sodipodi:cy="530.60559"
       sodipodi:rx="45.961941"
       sodipodi:ry="44.783428"
       d="M 440.76324,530.60559 A 45.961941,44.783428 0 1 1 348.83936,530.60559 A 45.961941,44.783428 0 1 1 440.76324,530.60559 z"
       transform="matrix(0.1028314,0,0,0.1028314,7.6801353,-34.268963)" />
    <path
       sodipodi:nodetypes="cccc"
       id="path2211"
       d="M 83.265005,23.233807 C 82.696895,22.553067 83.059055,21.307067 78.447675,18.771677 L 72.564355,26.120807 C 75.865255,25.091237 81.085955,23.536567 83.265005,23.233807 z"
       style="fill:url(#linearGradient2546);fill-opacity:1;fill-rule:evenodd;stroke:#808080;stroke-width:1.92675066;stroke-linecap:round;stroke-linejoin:round;stroke-miterlimit:4;stroke-dasharray:none;stroke-opacity:1" />
    <path
       transform="matrix(0.1028314,0,0,0.1028314,32.727895,-27.043653)"
       d="M 440.76324,530.60559 A 45.961941,44.783428 0 1 1 348.83936,530.60559 A 45.961941,44.783428 0 1 1 440.76324,530.60559 z"
       sodipodi:ry="44.783428"
       sodipodi:rx="45.961941"
       sodipodi:cy="530.60559"
       sodipodi:cx="394.8013"
       id="path2203"
       style="opacity:1;fill:url(#linearGradient2594);fill-opacity:1;fill-rule:evenodd;stroke:#808080;stroke-width:18.73698616;stroke-linecap:round;stroke-linejoin:round;stroke-miterlimit:4;stroke-dasharray:none;stroke-dashoffset:0;stroke-opacity:1"
       sodipodi:type="arc" />
    <path
       style="fill:url(#linearGradient2538);fill-opacity:1;fill-rule:evenodd;stroke:#808080;stroke-width:1.92675066;stroke-linecap:round;stroke-linejoin:round;stroke-miterlimit:4;stroke-dasharray:none;stroke-opacity:1"
       d="M 98.999065,40.801777 C 99.321105,39.136677 97.533465,38.601867 95.818585,36.307127 C 93.429835,37.285197 90.662475,38.451797 88.712965,41.186827 C 93.634255,40.171907 95.871345,41.675517 98.999065,40.801777 z"
       id="path2213"
       sodipodi:nodetypes="cccc" />
    <path
       sodipodi:type="arc"
       style="opacity:1;fill:url(#linearGradient2602);fill-opacity:1;fill-rule:evenodd;stroke:#808080;stroke-width:18.73698616;stroke-linecap:round;stroke-linejoin:round;stroke-miterlimit:4;stroke-dasharray:none;stroke-dashoffset:0;stroke-opacity:1"
       id="path2205"
       sodipodi:cx="394.8013"
       sodipodi:cy="530.60559"
       sodipodi:rx="45.961941"
       sodipodi:ry="44.783428"
       d="M 440.76324,530.60559 A 45.961941,44.783428 0 1 1 348.83936,530.60559 A 45.961941,44.783428 0 1 1 440.76324,530.60559 z"
       transform="matrix(0.1028314,0,0,0.1028314,47.493425,-11.899703)" />
    <path
       sodipodi:nodetypes="cccc"
       id="path2215"
       d="M 24.465115,17.033757 C 23.193455,15.611287 21.708255,15.815427 18.353915,15.322687 C 18.471035,19.384107 20.895355,20.517167 22.337665,23.677027 C 24.166195,20.742357 23.871375,20.635987 24.465115,17.033757 z"
       style="fill:url(#linearGradient2562);fill-opacity:1;fill-rule:evenodd;stroke:#808080;stroke-width:1.92675066;stroke-linecap:round;stroke-linejoin:round;stroke-miterlimit:4;stroke-dasharray:none;stroke-opacity:1" />
    <path
       transform="matrix(0.1028314,0,0,0.1028314,-17.728915,-28.007023)"
       d="M 440.76324,530.60559 A 45.961941,44.783428 0 1 1 348.83936,530.60559 A 45.961941,44.783428 0 1 1 440.76324,530.60559 z"
       sodipodi:ry="44.783428"
       sodipodi:rx="45.961941"
       sodipodi:cy="530.60559"
       sodipodi:cx="394.8013"
       id="path2207"
       style="opacity:1;fill:url(#linearGradient2578);fill-opacity:1;fill-rule:evenodd;stroke:#808080;stroke-width:18.73698616;stroke-linecap:round;stroke-linejoin:round;stroke-miterlimit:4;stroke-dasharray:none;stroke-dashoffset:0;stroke-opacity:1"
       sodipodi:type="arc" />
    <path
       style="fill:url(#linearGradient2570);fill-opacity:1;fill-rule:evenodd;stroke:#808080;stroke-width:1.92675066;stroke-linecap:round;stroke-linejoin:round;stroke-miterlimit:4;stroke-dasharray:none;stroke-opacity:1"
       d="M 3.2278353,33.322477 C 1.6085253,33.659657 1.4715053,36.972647 0.96337533,38.672277 C 2.7765353,40.670697 4.6201853,41.809237 6.2041953,44.900487 C 7.8978653,41.885957 5.1493553,35.635787 3.2278353,33.322477 z"
       id="path2217"
       sodipodi:nodetypes="cccc" />
    <path
       sodipodi:type="arc"
       style="opacity:1;fill:url(#linearGradient2610);fill-opacity:1;fill-rule:evenodd;stroke:#808080;stroke-width:18.73698616;stroke-linecap:round;stroke-linejoin:round;stroke-miterlimit:4;stroke-dasharray:none;stroke-dashoffset:0;stroke-opacity:1"
       id="path2209"
       sodipodi:cx="394.8013"
       sodipodi:cy="530.60559"
       sodipodi:rx="45.961941"
       sodipodi:ry="44.783428"
       d="M 440.76324,530.60559 A 45.961941,44.783428 0 1 1 348.83936,530.60559 A 45.961941,44.783428 0 1 1 440.76324,530.60559 z"
       transform="matrix(0.1028314,0,0,0.1028314,-32.822985,-9.8731932)" />
  </g>
</svg>
