<?xml version="1.0" encoding="UTF-8" standalone="no"?>
<!-- Created with Inkscape (http://www.inkscape.org/) -->

<svg
   xmlns:dc="http://purl.org/dc/elements/1.1/"
   xmlns:cc="http://creativecommons.org/ns#"
   xmlns:rdf="http://www.w3.org/1999/02/22-rdf-syntax-ns#"
   xmlns:svg="http://www.w3.org/2000/svg"
   xmlns="http://www.w3.org/2000/svg"
   xmlns:sodipodi="http://sodipodi.sourceforge.net/DTD/sodipodi-0.dtd"
   xmlns:inkscape="http://www.inkscape.org/namespaces/inkscape"
   width="45"
   height="45"
   id="svg3128"
   sodipodi:version="0.32"
   inkscape:version="0.47 r22583"
   version="1.0"
   sodipodi:docname="bb.svg">
  <defs
     id="defs3130">
    <inkscape:perspective
       sodipodi:type="inkscape:persp3d"
       inkscape:vp_x="0 : 22.5 : 1"
       inkscape:vp_y="0 : 1000 : 0"
       inkscape:vp_z="45 : 22.5 : 1"
       inkscape:persp3d-origin="22.5 : 15 : 1"
       id="perspective14" />
  </defs>
  <sodipodi:namedview
     id="base"
     pagecolor="#ffffff"
     bordercolor="#666666"
     borderopacity="1.0"
     gridtolerance="10000"
     guidetolerance="10"
     objecttolerance="10"
     inkscape:pageopacity="0.0"
     inkscape:pageshadow="2"
     inkscape:zoom="16"
     inkscape:cx="21.47589"
     inkscape:cy="21.674445"
     inkscape:document-units="px"
     inkscape:current-layer="layer1"
     height="45px"
     width="45px"
     inkscape:grid-points="true"
     showgrid="true"
     inkscape:window-width="1365"
     inkscape:window-height="878"
     inkscape:window-x="-8"
     inkscape:window-y="-8"
     inkscape:window-maximized="1">
    <inkscape:grid
       id="GridFromPre046Settings"
       type="xygrid"
       originx="0px"
       originy="0px"
       spacingx="0.5px"
       spacingy="0.5px"
       color="#0000ff"
       empcolor="#0000ff"
       opacity="0.2"
       empopacity="0.4"
       empspacing="5" />
  </sodipodi:namedview>
  <metadata
     id="metadata3133">
    <rdf:RDF>
      <cc:Work
         rdf:about="">
        <dc:format>image/svg+xml</dc:format>
        <dc:type
           rdf:resource="http://purl.org/dc/dcmitype/StillImage" />
      </cc:Work>
    </rdf:RDF>
  </metadata>
  <g
     inkscape:label="Layer 1"
     inkscape:groupmode="layer"
     id="layer1"
     style="display:inline">
    <path
       style="fill:#2B2B3C;fill-opacity:1;fill-rule:evenodd;stroke:#303042;stroke-width:1.5;stroke-linecap:butt;stroke-linejoin:round;stroke-miterlimit:4;stroke-dasharray:none;stroke-opacity:1"
       d="M 9,36 C 12.385255,35.027671 19.114744,36.430821 22.5,34 C 25.885256,36.430821 32.614745,35.027671 36,36 C 36,36 37.645898,36.541507 39,38 C 38.322949,38.972328 37.354102,38.986164 36,38.5 C 32.614745,37.527672 25.885256,38.958493 22.5,37.5 C 19.114744,38.958493 12.385255,37.527672 9,38.5 C 7.6458978,38.986164 6.6770511,38.972328 6,38 C 7.3541023,36.055343 9,36 9,36 z "
       id="path4582"
       sodipodi:nodetypes="ccccccccc" />
    <path
       style="fill:#2B2B3C;fill-opacity:1;fill-rule:evenodd;stroke:#303042;stroke-width:1.5;stroke-linecap:butt;stroke-linejoin:round;stroke-miterlimit:4;stroke-dasharray:none;stroke-opacity:1"
       d="M 15,32 C 17.5,34.5 27.5,34.5 30,32 C 30.5,30.5 30,30 30,30 C 30,27.5 27.5,26 27.5,26 C 33,24.5 33.5,14.5 22.5,10.5 C 11.5,14.5 12,24.5 17.5,26 C 17.5,26 15,27.5 15,30 C 15,30 14.5,30.5 15,32 z "
       id="path4584"
       sodipodi:nodetypes="cccccccc" />
    <path
       sodipodi:type="arc"
       style="opacity:1;fill:#2B2B3C;fill-opacity:1;stroke:#303042;stroke-width:1.5;stroke-linecap:butt;stroke-linejoin:round;stroke-miterlimit:4;stroke-dasharray:none;stroke-opacity:1"
       id="path4586"
       sodipodi:cx="22.5"
       sodipodi:cy="10"
       sodipodi:rx="2.5"
       sodipodi:ry="2.5"
       d="M 25 10 A 2.5 2.5 0 1 1  20,10 A 2.5 2.5 0 1 1  25 10 z"
       transform="translate(0,-2)" />
    <path
       style="fill:none;fill-opacity:0.75;fill-rule:evenodd;stroke:white;stroke-width:1.5;stroke-linecap:round;stroke-linejoin:miter;stroke-miterlimit:4;stroke-dasharray:none;stroke-opacity:1"
       d="M 17.5,26 L 27.5,26"
       id="path4588"
       sodipodi:nodetypes="cc" />
    <path
       style="fill:none;fill-opacity:0.75;fill-rule:evenodd;stroke:white;stroke-width:1.5;stroke-linecap:round;stroke-linejoin:miter;stroke-miterlimit:4;stroke-dasharray:none;stroke-opacity:1"
       d="M 15,30 L 30,30"
       id="path4590"
       sodipodi:nodetypes="cc" />
    <path
       style="fill:none;fill-opacity:0.75;fill-rule:evenodd;stroke:white;stroke-width:1.5;stroke-linecap:round;stroke-linejoin:miter;stroke-miterlimit:4;stroke-dasharray:none;stroke-opacity:1"
       d="M 22.5,15.5 L 22.5,20.5"
       id="path4592" />
    <path
       style="fill:none;fill-opacity:0.75;fill-rule:evenodd;stroke:white;stroke-width:1.5;stroke-linecap:round;stroke-linejoin:miter;stroke-miterlimit:4;stroke-dasharray:none;stroke-opacity:1"
       d="M 20,18 L 25,18"
       id="path4594" />
    <path
       style="fill:#000000"
       d="m 14.29564,29.582428 c -0.01322,-0.295269 0.238445,-1.14335 0.493045,-1.661471 0.257609,-0.524246 0.571843,-0.969221 1.023934,-1.449958 0.170547,-0.181353 0.229751,-0.283316 0.175967,-0.303059 -0.201153,-0.07384 -1.074978,-0.777871 -1.346111,-1.084544 -0.706412,-0.79901 -1.162621,-1.672693 -1.463755,-2.80323 -0.141097,-0.52972 -0.160081,-0.727416 -0.16548,-1.723361 -0.0069,-1.263838 0.100249,-1.916878 0.49176,-2.998444 0.99075,-2.736988 3.352273,-5.201051 6.47089,-6.751862 0.257812,-0.128203 0.477266,-0.24066 0.487674,-0.249904 0.01041,-0.0092 -0.11963,-0.161316 -0.288975,-0.33794 -1.644097,-1.7147612 -0.92015,-4.5248406 1.363801,-5.2937369 0.474234,-0.1596516 1.464109,-0.1594883 1.9375,3.197e-4 0.980259,0.3309176 1.771136,1.1216779 2.100626,2.1003172 0.159472,0.4736566 0.159478,1.4638155 1.1e-5,1.9375 -0.167266,0.4968503 -0.427595,0.9306744 -0.762061,1.269933 -0.160953,0.163259 -0.281883,0.305268 -0.268734,0.315576 0.01315,0.01031 0.333283,0.18081 0.711408,0.378894 2.649171,1.387794 4.668189,3.334812 5.772707,5.566847 0.702043,1.418703 0.963587,2.487022 0.971624,3.96875 0.0055,1.018596 -0.08171,1.615288 -0.35135,2.403287 -0.426615,1.246735 -1.269282,2.380553 -2.267981,3.051595 -0.20625,0.138584 -0.386144,0.261102 -0.399763,0.272265 -0.01362,0.01116 0.08984,0.144627 0.229911,0.296586 0.842924,0.914464 1.304685,1.839513 1.484951,2.974811 l 0.04443,0.279794 -0.168744,-0.20054 c -0.09281,-0.110297 -0.272139,-0.230582 -0.398512,-0.267301 -0.158963,-0.04619 -2.570637,-0.06098 -7.826033,-0.048 l -7.596264,0.01876 -0.195956,0.15625 c -0.107776,0.08594 -0.208851,0.198438 -0.224611,0.25 -0.01576,0.05156 -0.03192,0.0209 -0.0359,-0.06813 l 0,0 z m 13.716321,-3.07158 c 0.176366,-0.192466 0.213929,-0.282161 0.213929,-0.51083 0,-0.343519 -0.21667,-0.629052 -0.551481,-0.726756 -0.157697,-0.04602 -1.828328,-0.06108 -5.326048,-0.048 l -5.09628,0.01905 -0.192098,0.15625 c -0.453791,0.369107 -0.391529,1.019045 0.122069,1.274253 0.178858,0.08888 0.752665,0.09784 5.408034,0.08446 l 5.207947,-0.01496 0.213928,-0.233457 z m -5.090693,-5.396669 c 0.282342,-0.144195 0.367122,-0.481216 0.367122,-1.459398 l 0,-0.868243 1.004905,-0.02112 1.004906,-0.02112 0.213844,-0.233457 c 0.175375,-0.191459 0.213845,-0.282702 0.213845,-0.507197 0,-0.186169 -0.04334,-0.328843 -0.135494,-0.445991 -0.226529,-0.287985 -0.45974,-0.344605 -1.419389,-0.344605 l -0.871398,0 -0.02124,-0.956071 c -0.0174,-0.78358 -0.04112,-0.986391 -0.13148,-1.12413 -0.332249,-0.506482 -1.035254,-0.493412 -1.299298,0.02416 -0.103969,0.203797 -0.121706,0.370043 -0.121706,1.140754 l 0,0.902191 -0.986908,0.02217 c -0.943615,0.0212 -0.995335,0.02903 -1.179003,0.178424 -0.458069,0.372594 -0.390188,1.028004 0.132142,1.275866 0.160917,0.07636 0.41726,0.09913 1.115848,0.09913 l 0.906938,0 0.02112,0.986065 c 0.01972,0.920701 0.03075,0.998302 0.166456,1.170673 0.262617,0.33357 0.602844,0.394312 1.018788,0.181886 z"
       id="path2820" />
    <path
       style="fill:#000000"
       d="M 6.8332339,39.461149 C 6.1012052,39.276954 5.28839,38.513912 5.28839,38.010906 c 0,-0.620312 1.3649919,-1.959332 2.4635281,-2.416654 0.5492355,-0.228647 2.0657523,-0.539231 3.0677219,-0.628272 0.4125,-0.03666 1.917187,-0.09423 3.34375,-0.127944 1.426562,-0.03371 2.945312,-0.09052 3.375,-0.126237 0.697902,-0.05801 1.874285,-0.227196 1.923753,-0.276664 0.01039,-0.01039 -0.256484,-0.06655 -0.593055,-0.12479 -1.75515,-0.303729 -3.352909,-0.90507 -4.09847,-1.542523 -0.366387,-0.31326 -0.505191,-0.575338 -0.633365,-1.195869 -0.117416,-0.568446 -0.123597,-0.862993 -0.02747,-1.308947 0.06583,-0.30543 0.07606,-0.319043 0.131472,-0.174951 0.126384,0.328671 0.231673,0.46909 0.432789,0.577185 0.197205,0.105995 0.611276,0.110991 7.910032,0.09546 l 7.701934,-0.01639 0.199655,-0.199666 c 0.137197,-0.137204 0.212235,-0.283842 0.239871,-0.468749 l 0.04022,-0.269085 0.08506,0.28125 c 0.180202,0.595829 0.04112,1.806653 -0.264656,2.303997 -0.274457,0.446409 -1.34456,1.068924 -2.485264,1.445764 -0.326563,0.107882 -1.036054,0.283985 -1.576647,0.391339 -0.540593,0.107355 -0.976217,0.201869 -0.968054,0.210032 0.0082,0.0082 0.267653,0.05823 0.576646,0.111255 0.916569,0.157296 1.978455,0.222557 4.686805,0.288042 4.47048,0.10809 5.327135,0.250622 6.789781,1.129698 0.594693,0.357421 1.057592,0.704486 1.569581,1.176813 0.604847,0.557992 0.679897,0.845823 0.350289,1.34344 -0.258992,0.391006 -0.73879,0.744284 -1.240901,0.913682 -0.344001,0.116056 -0.49723,0.132075 -1,0.104542 -0.326563,-0.01788 -0.748438,-0.07741 -0.9375,-0.132285 -1.583954,-0.459727 -1.804973,-0.475827 -6.488802,-0.472688 -3.780481,0.0025 -4.602844,-0.02551 -5.667448,-0.19324 -0.528839,-0.08332 -1.387873,-0.293658 -1.546885,-0.378759 -0.0832,-0.04453 -0.215984,-0.02696 -0.475747,0.06294 -0.462409,0.160026 -1.545566,0.36256 -2.383618,0.4457 -0.382661,0.03796 -2.340261,0.06427 -4.695633,0.06311 -4.47286,-0.0022 -4.919052,0.02545 -6.116867,0.379213 -0.7135937,0.210755 -1.6941506,0.293362 -2.1426561,0.180507 l 0,0 z"
       id="path2822" />
  </g>
</svg>
