<?xml version="1.0" encoding="UTF-8" standalone="no"?>
<!-- Created with Inkscape (http://www.inkscape.org/) -->

<svg
   xmlns:dc="http://purl.org/dc/elements/1.1/"
   xmlns:cc="http://creativecommons.org/ns#"
   xmlns:rdf="http://www.w3.org/1999/02/22-rdf-syntax-ns#"
   xmlns:svg="http://www.w3.org/2000/svg"
   xmlns="http://www.w3.org/2000/svg"
   xmlns:sodipodi="http://sodipodi.sourceforge.net/DTD/sodipodi-0.dtd"
   xmlns:inkscape="http://www.inkscape.org/namespaces/inkscape"
   width="45"
   height="45"
   id="svg3128"
   sodipodi:version="0.32"
   inkscape:version="0.47 r22583"
   version="1.0"
   sodipodi:docname="wp.svg">
  <defs
     id="defs3130">
    <inkscape:perspective
       sodipodi:type="inkscape:persp3d"
       inkscape:vp_x="0 : 22.5 : 1"
       inkscape:vp_y="0 : 1000 : 0"
       inkscape:vp_z="45 : 22.5 : 1"
       inkscape:persp3d-origin="22.5 : 15 : 1"
       id="perspective8" />
  </defs>
  <sodipodi:namedview
     id="base"
     pagecolor="#ffffff"
     bordercolor="#666666"
     borderopacity="1.0"
     gridtolerance="10000"
     guidetolerance="10"
     objecttolerance="10"
     inkscape:pageopacity="0.0"
     inkscape:pageshadow="2"
     inkscape:zoom="11.2"
     inkscape:cx="22.89394"
     inkscape:cy="17.72157"
     inkscape:document-units="px"
     inkscape:current-layer="layer1"
     height="45px"
     width="45px"
     inkscape:grid-points="true"
     showgrid="true"
     inkscape:window-width="977"
     inkscape:window-height="878"
     inkscape:window-x="0"
     inkscape:window-y="31"
     inkscape:window-maximized="0">
    <inkscape:grid
       id="GridFromPre046Settings"
       type="xygrid"
       originx="0px"
       originy="0px"
       spacingx="0.5px"
       spacingy="0.5px"
       color="#0000ff"
       empcolor="#0000ff"
       opacity="0.2"
       empopacity="0.4"
       empspacing="5" />
  </sodipodi:namedview>
  <metadata
     id="metadata3133">
    <rdf:RDF>
      <cc:Work
         rdf:about="">
        <dc:format>image/svg+xml</dc:format>
        <dc:type
           rdf:resource="http://purl.org/dc/dcmitype/StillImage" />
      </cc:Work>
    </rdf:RDF>
  </metadata>
  <g
     inkscape:label="Layer 1"
     inkscape:groupmode="layer"
     id="layer1">
    <path
       style="opacity:1;fill:white;fill-opacity:1;fill-rule:nonzero;stroke:#303042;stroke-width:1.5;stroke-linecap:round;stroke-linejoin:miter;stroke-miterlimit:4;stroke-dasharray:none;stroke-dashoffset:10;stroke-opacity:1"
       d="M 22 9 C 19.792 9 18 10.792 18 13 C 18 13.885103 18.29397 14.712226 18.78125 15.375 C 16.829274 16.496917 15.5 18.588492 15.5 21 C 15.5 23.033947 16.442042 24.839082 17.90625 26.03125 C 14.907101 27.08912 10.5 31.578049 10.5 39.5 L 33.5 39.5 C 33.5 31.578049 29.092899 27.08912 26.09375 26.03125 C 27.557958 24.839082 28.5 23.033948 28.5 21 C 28.5 18.588492 27.170726 16.496917 25.21875 15.375 C 25.70603 14.712226 26 13.885103 26 13 C 26 10.792 24.208 9 22 9 z "
       id="path3194" />
    <path
       style="fill:#000000"
       d="m 9.7798269,39.193609 c 0.1006704,-3.37351 0.9129231,-6.462736 2.3136401,-8.799427 0.962359,-1.605418 2.501907,-3.27843 3.792319,-4.121075 0.362967,-0.23702 0.673463,-0.442066 0.68999,-0.455659 0.01653,-0.01359 -0.135684,-0.234386 -0.338249,-0.49065 -0.876114,-1.108367 -1.431145,-2.773558 -1.432247,-4.296995 -0.0016,-2.198758 0.894295,-4.112126 2.617033,-5.589267 l 0.340874,-0.292278 -0.198331,-0.555449 c -0.272211,-0.762358 -0.328388,-1.968759 -0.12773,-2.74295 0.410155,-1.582482 1.590344,-2.8313363 3.1711,-3.3555982 0.746809,-0.2476813 2.100125,-0.2295344 2.880913,0.038631 2.465927,0.8469337 3.791849,3.5030664 2.970343,5.9502934 l -0.22829,0.680062 0.282042,0.240627 c 0.155123,0.132345 0.333374,0.271073 0.396113,0.308285 0.06274,0.03721 0.364607,0.378729 0.670817,0.758928 1.631866,2.026171 2.058746,4.678689 1.145694,7.119039 -0.240357,0.642413 -0.714022,1.463491 -1.093765,1.895994 -0.181266,0.206451 -0.243371,0.335214 -0.172994,0.358672 0.366563,0.122188 1.774187,1.263784 2.514946,2.039646 1.497957,1.56894 2.637228,3.515372 3.342251,5.710199 0.550894,1.714998 0.788267,3.172894 0.904352,5.554329 l 0.05332,1.09375 -12.262722,0 -12.262722,0 0.031307,-1.049107 z M 32.723545,38.667835 c 0.09141,-0.238219 -0.228362,-2.555152 -0.502426,-3.640326 -0.673418,-2.666441 -1.965213,-4.92412 -3.795891,-6.634105 -0.851021,-0.794916 -1.613781,-1.276307 -2.794681,-1.763771 -0.454241,-0.187507 -0.822891,-0.365333 -0.819222,-0.395169 0.0037,-0.02984 0.305939,-0.315409 0.671712,-0.634605 1.632296,-1.424443 2.332454,-2.941541 2.245748,-4.866072 -0.08774,-1.947476 -1.018059,-3.507294 -2.769133,-4.642857 -0.378623,-0.245536 -0.688925,-0.477547 -0.689558,-0.515581 -6.25e-4,-0.03803 0.156059,-0.319284 0.348208,-0.625 0.504125,-0.802078 0.664589,-1.363627 0.614168,-2.149296 -0.05205,-0.811126 -0.341495,-1.470545 -0.894833,-2.038655 -1.775835,-1.823246 -4.832395,-1.0354207 -5.469268,1.409699 -0.258178,0.991212 -0.130381,1.708176 0.48691,2.731658 0.198049,0.32837 0.359571,0.629371 0.358936,0.668892 -6.25e-4,0.03952 -0.298229,0.265122 -0.661321,0.501338 -0.660993,0.43002 -1.422879,1.136233 -1.757731,1.629289 -0.955132,1.406394 -1.277823,3.095343 -0.884914,4.631604 0.329629,1.288835 0.902169,2.177006 2.099762,3.257321 0.34375,0.310086 0.635812,0.591635 0.649027,0.625664 0.01321,0.03403 -0.408661,0.250013 -0.9375,0.479964 -1.327828,0.577373 -1.976439,1.022048 -3.015098,2.067091 -2.171751,2.185102 -3.496215,5.220253 -3.886889,8.907227 -0.05573,0.525919 -0.07549,0.998017 -0.04391,1.049107 0.03924,0.06349 3.433389,0.09289 10.724586,0.09289 9.800749,0 10.671735,-0.01188 10.723319,-0.146309 z"
       id="path2814" />
  </g>
</svg>
