<?xml version="1.0" encoding="UTF-8" standalone="no"?>
<!-- Created with Inkscape (http://www.inkscape.org/) -->

<svg
   xmlns:dc="http://purl.org/dc/elements/1.1/"
   xmlns:cc="http://creativecommons.org/ns#"
   xmlns:rdf="http://www.w3.org/1999/02/22-rdf-syntax-ns#"
   xmlns:svg="http://www.w3.org/2000/svg"
   xmlns="http://www.w3.org/2000/svg"
   xmlns:sodipodi="http://sodipodi.sourceforge.net/DTD/sodipodi-0.dtd"
   xmlns:inkscape="http://www.inkscape.org/namespaces/inkscape"
   version="1.0"
   width="504"
   height="504"
   id="svg2"
   inkscape:version="0.47 r22583"
   sodipodi:docname="bb.svg">
  <metadata
     id="metadata11">
    <rdf:RDF>
      <cc:Work
         rdf:about="">
        <dc:format>image/svg+xml</dc:format>
        <dc:type
           rdf:resource="http://purl.org/dc/dcmitype/StillImage" />
      </cc:Work>
    </rdf:RDF>
  </metadata>
  <sodipodi:namedview
     pagecolor="#ffffff"
     bordercolor="#666666"
     borderopacity="1"
     objecttolerance="10"
     gridtolerance="10"
     guidetolerance="10"
     inkscape:pageopacity="0"
     inkscape:pageshadow="2"
     inkscape:window-width="1365"
     inkscape:window-height="878"
     id="namedview9"
     showgrid="false"
     inkscape:zoom="0.46825397"
     inkscape:cx="252"
     inkscape:cy="252"
     inkscape:window-x="-8"
     inkscape:window-y="-8"
     inkscape:window-maximized="1"
     inkscape:current-layer="svg2" />
  <defs
     id="defs4">
    <inkscape:perspective
       sodipodi:type="inkscape:persp3d"
       inkscape:vp_x="0 : 252 : 1"
       inkscape:vp_y="0 : 1000 : 0"
       inkscape:vp_z="504 : 252 : 1"
       inkscape:persp3d-origin="252 : 168 : 1"
       id="perspective13" />
  </defs>
  <g
     transform="translate(-644.5291,-535.39502)"
     id="layer1">
    <path
       d="M 62.694889,460.19522 L 47.957668,445.43338 L 51.22884,442.3385 C 60.97637,433.1163 80.03121,422.28006 95.61091,417.09899 C 114.2867,410.8883 117.01485,410.59874 158.00001,410.47705 C 193.19537,410.37255 195.99167,410.232 203.50001,408.19006 C 214.73316,405.13514 224.93149,399.71406 232.511,392.76881 C 240.21442,385.71004 240.67556,384 234.87565,384 C 228.90106,384 206.96825,379.37976 196.50001,375.91601 C 184.36043,371.89924 163.00001,361.40755 163.00001,359.46166 C 163,358.62852 166.15001,345.37078 170.00001,330 C 173.85,314.62922 176.98849,301.70367 176.97442,301.27656 C 176.96034,300.84946 173.75831,298.475 169.85879,296 C 138.92741,276.36808 127.40305,234.1804 143.46467,199.37811 C 153.12011,178.45669 167.35727,164.48053 207.59987,136.41863 C 227.18811,122.75941 244.25731,109.63182 248.82918,104.71 L 251.15836,102.20255 L 247.05431,101.50917 C 241.249,100.52837 234.08541,95.35644 230.52915,89.57842 C 227.84923,85.224207 227.50001,83.77414 227.50001,77 C 227.5,70.22586 227.84922,68.77579 230.52915,64.42158 C 240.57863,48.093753 263.4214,48.09375 273.47087,64.42158 C 276.15081,68.775793 276.50001,70.22586 276.50001,77 C 276.50002,83.77414 276.1508,85.22421 273.47087,89.57842 C 269.91462,95.356437 262.75102,100.52837 256.94572,101.50917 L 252.84167,102.20255 L 255.17084,104.71 C 259.74271,109.63182 276.81191,122.7594 296.40015,136.41863 C 336.64275,164.48054 350.8799,178.45669 360.5353,199.37811 C 376.59699,234.1804 365.0726,276.36808 334.14123,296 C 330.2417,298.475 327.03967,300.84945 327.0256,301.27656 C 327.01153,301.70368 330.15001,314.62922 334.00001,330 C 337.85002,345.37078 341.00001,358.62853 341.00001,359.46166 C 341.00002,361.40754 319.63958,371.89925 307.50001,375.91601 C 297.03178,379.37975 275.09895,384 269.12437,384 C 263.32447,384 263.7856,385.71003 271.48902,392.76881 C 279.06854,399.71407 289.26685,405.13514 300.50001,408.19006 C 308.00836,410.232 310.80464,410.37255 346.00001,410.47705 C 377.98321,410.57201 384.6769,410.84985 391.5,412.36564 C 410.9909,416.69567 430.6876,425.41815 444.8753,436.0023 C 457.84769,445.67986 458.2036,443.32513 441.2032,460.29718 L 426.4693,475.00647 L 420.53241,470.56589 C 405.4095,459.2544 386.1527,451.34895 367,448.5893 C 361.225,447.75721 345.02501,446.61863 331.00001,446.05916 C 316.97502,445.49967 301.47957,444.34073 296.5657,443.48371 C 283.69902,441.23965 269.98409,436.39959 260.72773,430.83635 C 256.30192,428.17635 252.37444,426 252.00001,426 C 251.62557,426 247.69811,428.17636 243.27229,430.83635 C 234.01593,436.39958 220.301,441.23964 207.43432,443.48371 C 202.52044,444.34074 187.02501,445.49968 173.00001,446.05916 C 136.5724,447.51229 121.91576,450.06883 104.24853,458.05134 C 98.951942,460.44448 86.93819,467.90878 79.46606,473.44898 C 77.533333,474.88199 76.69875,474.22248 62.69489,460.19521 L 62.694889,460.19522 z"
       transform="translate(644.5291,535.39502)"
       id="path2496"
       style="fill:#2B2B3C" />
    <path
       d="M 260,226.5 L 260,214 L 272,214 L 284,214 L 284,206.5 L 284,199 L 272,199 L 260,199 L 260,186.5 L 260,174 L 252.50002,174 L 245.00002,174 L 245.00002,186.5 L 245.00002,199 L 232.50002,199 L 220.00002,199 L 220.00002,206.5 L 220.00002,214 L 232.50002,214 L 245.00002,214 L 245.00002,226.5 L 245.00002,239 L 252.50002,239 L 260,239 L 260,226.5 z"
       transform="translate(644.5291,535.39502)"
       id="path2395"
       style="fill:#ffffff" />
    <path
       d="M 205.27051,302.48074 C 210.09428,300.49725 218.41928,297.70585 223.77051,296.27762 C 232.58107,293.9261 235.24732,293.68084 252.00001,293.68084 C 268.75269,293.68083 271.41895,293.9261 280.22951,296.27762 C 287.98555,298.34769 301.24055,303.16628 308.51083,306.55874 C 309.37016,306.95972 316.00001,296.40856 316.00001,294.63998 C 316.00002,293.60996 306.92432,289.37631 297.88051,286.18753 C 281.44568,280.39275 270.31767,278.53721 252.00001,278.53721 C 233.68234,278.53722 222.55433,280.39275 206.11951,286.18753 C 197.0757,289.37631 188.00001,293.60996 188.00001,294.63998 C 188,296.40856 194.62986,306.95973 195.48919,306.55874 C 196.04513,306.29932 200.44673,304.46422 205.27051,302.48074 z"
       transform="translate(644.5291,535.39502)"
       id="path2393"
       style="fill:#ffffff" />
    <path
       d="M 185.31982,363.13092 C 202.96836,351.01785 229.50256,343.01179 252.00001,343.01179 C 274.49745,343.0118 301.03166,351.01785 318.68019,363.13093 C 320.97929,364.70893 323.06272,366 323.31004,366 C 323.81663,366 332.00001,355.32141 332.00001,354.66037 C 332.00002,353.58494 318.48377,345.62082 309.00001,341.10817 C 285.07995,329.72629 258.97729,325.73996 233.31736,329.55009 C 219.1081,331.65997 207.49349,335.16341 195.00001,341.10817 C 185.51624,345.62081 172.00001,353.58494 172.00001,354.66037 C 172,355.32141 180.1834,366 180.68998,366 C 180.93729,366 183.02074,364.70892 185.31983,363.13093 L 185.31982,363.13092 z"
       transform="translate(644.5291,535.39502)"
       id="path2391"
       style="fill:#ffffff" />
  </g>
  <path
     style="fill:#000000"
     d="m 413.37646,465.7073 c -19.30309,-12.69489 -35.09952,-16.67454 -79.73117,-20.08692 -43.17044,-3.30065 -51.28224,-4.94448 -69.31175,-14.04574 L 252,425.34869 l -12.33354,6.22595 c -17.95354,9.06291 -25.70715,10.63795 -69.1419,14.04516 -43.93393,3.4464 -60.28312,7.42958 -78.694052,19.17242 -6.460169,4.12043 -12.734542,7.51628 -13.943048,7.54633 -1.208509,0.0301 -8.245579,-6.04787 -15.637936,-13.50652 l -13.440648,-13.56119 6.491637,-5.46235 c 10.238071,-8.61477 27.835822,-17.92801 42.936775,-22.7234 11.165692,-3.54572 22.863932,-4.75739 59.796612,-6.19356 39.09706,-1.52031 47.35843,-2.43188 55.63392,-6.1387 10.34877,-4.63549 26.47409,-17.53973 24.44877,-19.56506 -0.66732,-0.66731 -9.36627,-2.86392 -19.33101,-4.88133 -18.66022,-3.77786 -43.67832,-12.63338 -51.0545,-18.07147 -4.12315,-3.03981 -4.08048,-3.50703 2.9262,-32.04003 l 7.11036,-28.95523 -5.06178,-3.5422 C 160.01819,288.8188 151.09704,278.62198 145.19229,266.2497 136.88598,248.8454 135.08394,232.05813 139.62091,214.34858 146.7337,186.58464 158.344,173.65413 212.57915,133.09417 247.64863,106.86733 254.04514,100.8 246.62542,100.8 c -1.9772,0 -6.86237,-3.267458 -10.85593,-7.261017 -7.93547,-7.935469 -9.53355,-17.448642 -4.70965,-28.035945 6.87382,-15.086401 33.71393,-15.539313 41.38847,-0.698408 5.41725,10.475828 3.93367,20.582873 -4.2178,28.734353 -3.99356,3.993559 -8.87873,7.261017 -10.85593,7.261017 -7.41972,0 -1.02321,6.06733 34.04627,32.29417 54.23514,40.55996 65.84544,53.49047 72.95823,81.25441 8.06951,31.49835 -4.59975,63.41526 -33.08493,83.34893 l -5.06178,3.5422 7.11035,28.95523 c 7.00669,28.533 7.04936,29.00022 2.92619,32.04003 -7.37617,5.43809 -32.39428,14.29361 -51.0545,18.07147 -9.96472,2.01741 -18.66367,4.21402 -19.331,4.88133 -2.01263,2.01264 14.06303,14.9096 24.44876,19.61446 8.40469,3.8074 15.78214,4.59618 54.56614,5.83403 40.72042,1.29966 46.41966,1.95589 61.9322,7.13113 17.86238,5.95918 40.67856,18.86788 44.64009,25.256 1.94179,3.13123 0.0824,5.92781 -11.55275,17.37561 l -13.867,13.64377 -12.67439,-8.33547 0,0 z M 195.77061,358.27523 c 37.39206,-18.81308 75.13806,-18.77869 112.66071,0.10251 14.69884,7.39642 14.81233,7.41581 18.98316,3.24497 2.31714,-2.31712 3.63467,-5.65853 2.94249,-7.46236 -1.65727,-4.31877 -33.6019,-19.41399 -48.45866,-22.89883 -6.46017,-1.51531 -19.91441,-2.75511 -29.89831,-2.75511 -9.9839,0 -23.43814,1.2398 -29.89831,2.75511 -14.69654,3.44725 -46.79425,18.56148 -48.42093,22.80053 -0.96291,2.50932 4.46777,11.55142 6.93779,11.55142 0.3117,0 7.13013,-3.30224 15.15206,-7.33832 l 0,8e-5 z m 17.78871,-57.79726 c 23.08177,-7.85062 54.25932,-7.67718 77.66621,0.43205 l 16.80182,5.82092 4.02021,-4.96478 c 2.21113,-2.73062 4.02024,-5.70097 4.02024,-6.60078 0,-2.69576 -20.8397,-10.81674 -36.0073,-14.03162 -18.04418,-3.82459 -38.07681,-3.82459 -56.12099,0 -14.55676,3.08542 -36.00731,11.30229 -36.00731,13.79303 0,2.31464 6.52754,10.89016 8.28942,10.89016 0.90224,0 8.70421,-2.40254 17.3377,-5.33898 z M 260.54237,226.8 l 0,-12.81356 11.74577,0 11.74576,0 0,-7.47458 0,-7.47457 -11.74576,0 -11.74577,0 0,-12.94248 0,-12.94247 -8.00847,0.66281 -8.00848,0.66282 -0.64047,12.27966 -0.64047,12.27966 -11.63919,0 -11.63919,0 0,7.47457 0,7.47458 11.74576,0 11.74577,0 0,11.38983 c 0,6.26441 0.64068,12.03051 1.42373,12.81356 0.78305,0.78305 4.62711,1.42373 8.54237,1.42373 l 7.11864,0 0,-12.81356 z"
     id="path2819" />
</svg>
