<?xml version="1.0" encoding="UTF-8" standalone="no"?>
<!-- Created with Inkscape (http://www.inkscape.org/) -->

<svg
   xmlns:dc="http://purl.org/dc/elements/1.1/"
   xmlns:cc="http://creativecommons.org/ns#"
   xmlns:rdf="http://www.w3.org/1999/02/22-rdf-syntax-ns#"
   xmlns:svg="http://www.w3.org/2000/svg"
   xmlns="http://www.w3.org/2000/svg"
   xmlns:sodipodi="http://sodipodi.sourceforge.net/DTD/sodipodi-0.dtd"
   xmlns:inkscape="http://www.inkscape.org/namespaces/inkscape"
   version="1.0"
   width="504"
   height="504"
   id="svg2429"
   inkscape:version="0.47 r22583"
   sodipodi:docname="wn.svg">
  <metadata
     id="metadata12">
    <rdf:RDF>
      <cc:Work
         rdf:about="">
        <dc:format>image/svg+xml</dc:format>
        <dc:type
           rdf:resource="http://purl.org/dc/dcmitype/StillImage" />
      </cc:Work>
    </rdf:RDF>
  </metadata>
  <sodipodi:namedview
     pagecolor="#ffffff"
     bordercolor="#666666"
     borderopacity="1"
     objecttolerance="10"
     gridtolerance="10"
     guidetolerance="10"
     inkscape:pageopacity="0"
     inkscape:pageshadow="2"
     inkscape:window-width="1365"
     inkscape:window-height="878"
     id="namedview10"
     showgrid="false"
     inkscape:zoom="0.46825397"
     inkscape:cx="252"
     inkscape:cy="252"
     inkscape:window-x="-8"
     inkscape:window-y="-8"
     inkscape:window-maximized="1"
     inkscape:current-layer="svg2429" />
  <defs
     id="defs2431">
    <inkscape:perspective
       sodipodi:type="inkscape:persp3d"
       inkscape:vp_x="0 : 252 : 1"
       inkscape:vp_y="0 : 1000 : 0"
       inkscape:vp_z="504 : 252 : 1"
       inkscape:persp3d-origin="252 : 168 : 1"
       id="perspective14" />
  </defs>
  <g
     transform="translate(267.6926,-489.51905)"
     id="layer1">
    <path
       d="M 155.20596,472.75244 C 147.13061,468.7204 145.92946,444.9437 152.78315,424.793 C 158.64052,407.57159 165.3996,398.47162 191.23793,373.01996 C 214.51589,350.09033 220.71671,342.54245 227.96045,328.31974 C 236.60545,311.34574 240.01483,297.91858 240.92285,277.26996 C 241.24331,269.98246 241.26477,264.01996 240.97052,264.01996 C 240.67627,264.01996 235.77137,266.87098 230.07074,270.35556 C 224.37011,273.84015 211.53596,280.83921 201.55041,285.90904 C 163.65142,305.15099 157.70128,310.80052 140.79138,343.59837 C 137.64989,349.69151 133.0657,357.24268 130.6043,360.37876 C 122.71771,370.42711 110.0405,378.01996 101.15019,378.01996 C 97.355798,378.01996 90.40389,375.4083 86.72115,372.59934 C 85.003957,371.28959 82.78697,368.41722 81.7945,366.21631 C 80.160768,362.59334 79.55073,362.14993 75.34799,361.5306 C 46.642228,357.3004 26.28452,332.32655 28.54121,304.11029 C 29.99211,285.96931 38.15482,267.83335 58.68287,237.14142 C 72.731971,216.13631 78.44159,205.94971 82.35861,194.90128 C 84.389038,189.17419 84.62534,186.6233 84.66347,170.01996 L 84.705963,151.51996 L 87.945137,144.68082 C 90.64384,138.98283 93.48399,135.56227 104.96669,124.18082 C 112.547,116.66735 120.0536,108.58505 121.64803,106.22016 L 124.54698,101.92037 L 122.35243,74.220169 C 119.32742,36.03771 119.31967,36.13701 125.52774,33.52671 C 129.75652,31.748639 129.55204,31.65003 161.52252,50.88546 C 176.27161,59.75943 188.68138,67.01996 189.09977,67.01996 C 189.51815,67.019962 197.41928,58.92983 206.65783,49.0419 C 220.5779,34.143379 224.04878,30.95248 226.92045,30.41375 C 233.0268,29.26819 234.47448,31.31256 246.90358,58.63321 L 258.29666,83.676537 L 264.50131,82.767982 C 273.41,81.46346 295.10035,82.61364 306.36453,84.98788 C 326.81806,89.299033 347.12879,98.09364 363.57109,109.7585 C 374.54871,117.54649 392.22874,135.4277 400.41334,147.01996 C 418.09868,172.06857 430.91623,200.10426 442.66558,239.4378 C 462.84046,306.97764 475.26885,385.96007 475.59949,448.73296 C 475.70361,468.50051 475.65576,468.99637 473.42826,471.23296 L 471.15057,473.51996 L 314.42825,473.76031 C 190.77898,473.94995 157.17839,473.73726 155.20596,472.75243 L 155.20596,472.75244 z"
       transform="translate(-267.6926,489.51905)"
       id="path2452"
       style="fill:#2B2B3C" />
    <path
       d="M 155.79091,67.8592 C 146.94419,62.54578 139.57925,58.32248 139.42439,58.4741 C 139.26953,58.625722 139.68086,65.9448 140.33847,74.73872 L 141.53412,90.727676 L 156.70499,84.123817 L 171.87585,77.519958 L 155.79091,67.8592 z"
       transform="translate(-267.6926,489.51905)"
       id="path2390"
       style="fill:#ffffff" />
    <path
       d="M 458.84439,455.47241 C 461.73176,452.58506 461.73112,452.46078 458.6248,413.01996 C 452.82163,339.33725 434.8525,252.62798 415.00203,202.51996 C 409.18851,187.84507 398.10736,166.86804 390.43831,156.01996 C 373.97659,132.73442 349.50834,113.66501 324.62474,104.72797 C 309.69546,99.366064 298.13706,97.51258 280.20596,97.60508 C 269.48868,97.66036 261.08989,98.23383 256.24146,99.24138 C 252.13598,100.09453 248.25436,100.59203 247.61562,100.34692 C 246.97689,100.10182 242.94531,92.16548 238.65657,82.71062 C 234.36782,73.255763 229.74097,63.07447 228.37466,60.08553 L 225.89047,54.6511 L 210.29822,70.75264 L 194.70595,86.854179 L 167.54065,98.544601 L 140.37534,110.23501 L 133.8251,119.00661 C 130.22247,123.83099 122.7552,131.94871 117.23117,137.046 C 102.4008,150.73067 102.72048,149.98666 102.63404,171.01996 C 102.57215,186.08206 102.25126,189.56477 100.33064,196.01996 C 96.544327,208.74566 88.11017,224.64135 73.80094,246.01996 C 58.104319,269.47138 49.93767,285.06312 47.6056,296.03198 C 45.623552,305.35454 46.20716,316.9995 48.96428,323.14218 C 53.831741,333.98655 65.79529,342.58995 77.53155,343.6859 L 83.952751,344.28552 L 90.650879,335.40274 C 94.33485,330.51721 98.32932,325.97341 99.52748,325.3054 C 104.37285,322.60397 109.58769,324.3199 111.68397,329.30549 C 113.44792,333.5007 112.57023,335.52192 104.07524,346.8277 C 100.22871,351.94695 97.22578,356.89695 97.40207,357.8277 C 97.982191,360.89053 104.19641,360.5339 108.83825,357.17137 C 115.26491,352.51593 119.55051,346.51329 128.26743,329.95789 C 132.73812,321.46703 138.35095,311.77754 140.74037,308.42568 C 149.91381,295.55727 163.74598,285.53876 192.55041,270.90012 C 220.88953,256.49795 245.95268,240.51531 253.34912,232.1291 C 262.07024,222.24095 265.76697,210.70816 264.90225,196.08648 C 264.25444,185.13274 265.36179,181.85849 270.29577,180.1385 C 272.80015,179.26546 274.12527,179.36237 276.75653,180.61098 C 280.93836,182.59539 282.2311,186.04232 282.92262,197.05205 C 283.97802,213.85497 276.45094,233.69698 264.35167,246.00668 L 257.70596,252.76797 L 258.51123,259.14395 C 259.7102,268.63707 258.50722,290.23202 256.20632,300.51996 C 251.67148,320.79639 243.13761,340.1057 231.96819,355.36277 C 228.65598,359.88715 216.30409,373.09502 204.23304,385.01996 C 182.70122,406.29116 176.47496,413.82209 171.57878,424.5168 C 168.46332,431.32181 166.24552,441.77971 166.22332,449.76996 L 166.20596,456.01996 L 307.64694,456.01996 C 400.86224,456.01996 449.29865,456.36092 449.70596,457.01996 C 450.9153,458.97671 456.24219,458.07463 458.8444,455.47242 L 458.84439,455.47241 z"
       transform="translate(-267.6926,489.51905)"
       id="path2384"
       style="fill:#ffffff" />
    <path
       d="M 115.27895,190.86459 C 119.80312,182.3421 132.84738,161.35902 135.49791,158.34023 C 140.89089,152.19796 149.24919,149.5651 155.64086,151.99521 C 157.05168,152.5316 158.20596,153.55433 158.20596,154.26796 C 158.20596,157.38258 150.09598,169.1287 143.18052,176.03013 C 137.47202,181.72702 133.60895,184.55153 127.18052,187.72859 C 122.51951,190.03214 117.65484,192.20765 116.37013,192.56304 C 114.18543,193.16742 114.11483,193.05752 115.27895,190.86459 z"
       transform="translate(-267.6926,489.51905)"
       id="path2388"
       style="fill:#2B2B3C" />
    <path
       d="M 53.402748,313.38016 C 53.78437,305.45512 54.41625,302.24038 56.47718,297.73871 C 59.20512,291.78012 63.65432,288.03077 68.00562,288.0237 C 73.633327,288.01454 79.20596,293.63613 79.20596,299.32242 C 79.205957,303.63414 74.89259,308.27383 63.81406,315.87876 L 52.922409,323.35541 L 53.402748,313.38016 z"
       transform="translate(-267.6926,489.51905)"
       id="path2386"
       style="fill:#2B2B3C" />
  </g>
  <path
     style="fill:#000000"
     d="m 151.37793,466.53394 c -1.25918,-3.23756 -1.87111,-12.72074 -1.35984,-21.07371 1.52102,-24.84989 8.85452,-37.50087 42.0318,-72.50871 23.13291,-24.40927 29.7181,-32.83425 36.6165,-46.84644 8.96587,-18.21169 12.65564,-33.17366 12.65564,-51.31839 l 0,-11.22694 -33.30139,18.24581 c -40.53123,22.20701 -50.46667,31.03162 -66.61068,59.16315 -14.80548,25.79907 -25.57998,35.32282 -39.9618,35.32282 -7.808366,0 -10.370217,-1.16576 -16.241775,-7.39074 -3.834122,-4.06491 -9.918555,-8.02626 -13.520962,-8.803 -16.258471,-3.50562 -32.490862,-16.94544 -38.850882,-32.16709 -3.987844,-9.54427 -3.698016,-29.79516 0.607258,-42.43044 3.811052,-11.18483 14.780515,-31.37438 29.652656,-54.57643 18.490099,-28.84644 20.800847,-35.05407 22.204,-59.64925 0.728609,-12.77145 2.555684,-24.72189 4.244575,-27.76272 1.630918,-2.93644 10.48741,-13.39418 19.6811,-23.23942 12.81091,-13.71883 16.45623,-18.95711 15.6047,-22.423734 -0.61111,-2.487806 -1.31835,-17.497011 -1.57166,-33.353791 -0.45339,-28.381421 -0.38616,-28.84108 4.31603,-29.509204 2.98362,-0.423939 15.07532,5.387828 32.21331,15.483051 15.0902,8.88896 27.99072,16.161746 28.66783,16.161746 0.6771,0 9.38427,-8.282563 19.34926,-18.405696 9.96498,-10.123133 19.42093,-18.022201 21.01321,-17.553485 1.59228,0.468716 8.66116,12.530519 15.70861,26.804007 l 12.81356,25.951795 19.22034,0.181141 c 70.67485,0.666083 120.5401,40.06325 153.38348,121.18412 15.00091,37.0512 32.85558,113.63319 40.23306,172.56693 1.47037,11.74576 2.71493,37.69322 2.76572,57.66102 l 0.0923,36.30508 -159.68328,0.54751 -159.68327,0.5475 -2.28942,-5.88649 7e-5,0 z M 460.90388,448.02002 C 461.88892,435.97815 455.63729,376.41627 449.34052,337.85085 438.27387,270.07177 422.93811,215.77853 405.1492,181.40013 386.98816,146.30259 364.92722,123.30567 336.30241,109.63238 315.44548,99.669601 306.72402,98.009303 275.83202,98.120693 L 247.34201,98.223415 236.45627,75.833749 225.57052,53.444083 210.48865,69.674735 c -14.43028,15.529433 -16.27689,16.748195 -42.74229,28.209834 -18.07754,7.829031 -29.14876,13.923511 -31.95644,17.591371 -2.36281,3.0867 -10.57748,12.18328 -18.25483,20.21461 l -13.95882,14.60243 -1.21846,21.84777 c -1.42678,25.58287 -4.846658,34.20763 -29.534081,74.48339 -22.237689,36.2792 -25.794891,44.73495 -25.819816,61.37573 -0.01879,12.51152 0.66905,14.76564 6.760088,22.15513 6.92539,8.4017 17.21305,14.10263 25.449017,14.10263 2.788015,0 7.980385,-3.83527 13.162099,-9.72201 15.163323,-17.22645 25.334173,-8.19985 12.226723,10.85118 -7.02373,10.20865 -7.28763,16.9079 -0.57251,14.53355 7.28983,-2.57756 13.43443,-10.05799 25.2396,-30.72662 18.09932,-31.68853 20.99453,-34.19862 72.76595,-63.08688 53.46602,-29.83384 60.32021,-36.97226 62.82205,-65.42718 1.37285,-15.6143 3.54511,-20.70962 8.88036,-20.83002 4.64369,-0.10479 8.16102,7.60338 8.16102,17.88477 0,16.15321 -5.24769,31.48686 -14.99682,43.82044 l -8.50746,10.76272 -0.80241,23.01241 c -0.6266,17.96986 -2.10689,26.92086 -6.75552,40.84935 -7.91993,23.73013 -16.84644,36.69579 -47.73878,69.34011 -14.25105,15.05924 -27.94543,31.36825 -30.43196,36.24225 -2.51851,4.9367 -4.99828,14.80814 -5.5986,22.2869 l -1.07764,13.42509 147.11561,-0.54872 147.11561,-0.5487 0.68354,-8.35625 0,0 z M 157.5,84.468809 c 7.3411,-3.116025 13.34746,-6.300835 13.34746,-7.077354 0,-2.689423 -30.96567,-19.267969 -31.73157,-16.988599 -1.18492,3.526413 1.99151,29.718398 3.60494,29.725316 0.78744,0.0034 7.43807,-2.543338 14.77917,-5.659363 z"
     id="path2820" />
  <path
     style="fill:#000000"
     d="m 117.45763,189.37477 c 0,-2.51708 17.99374,-30.11728 21.89434,-33.58324 4.10124,-3.64425 14.48414,-5.08763 17.18306,-2.3887 3.63207,3.63207 -16.51766,26.75927 -28.75227,33.0009 -8.38213,4.27625 -10.32513,4.83534 -10.32513,2.97104 z"
     id="path2822" />
  <path
     style="fill:#000000"
     d="m 54.179628,310.62203 c 2.466401,-18.25757 14.498469,-27.74065 21.547412,-16.98261 1.862741,2.84291 2.785081,6.73698 2.04964,8.65351 -1.331656,3.47024 -20.304674,18.47317 -23.361553,18.47317 -0.883219,0 -0.989194,-4.56483 -0.235499,-10.14407 z"
     id="path2824" />
</svg>
