<?xml version="1.0" encoding="UTF-8" standalone="no"?>
<!-- Created with Inkscape (http://www.inkscape.org/) -->
<svg
   xmlns:dc="http://purl.org/dc/elements/1.1/"
   xmlns:cc="http://creativecommons.org/ns#"
   xmlns:rdf="http://www.w3.org/1999/02/22-rdf-syntax-ns#"
   xmlns:svg="http://www.w3.org/2000/svg"
   xmlns="http://www.w3.org/2000/svg"
   xmlns:xlink="http://www.w3.org/1999/xlink"
   xmlns:sodipodi="http://sodipodi.sourceforge.net/DTD/sodipodi-0.dtd"
   xmlns:inkscape="http://www.inkscape.org/namespaces/inkscape"
   width="100"
   height="100"
   id="svg36220"
   sodipodi:version="0.32"
   inkscape:version="0.46"
   version="1.0"
   inkscape:export-filename="/home/maurizio/out/wq.png"
   inkscape:export-xdpi="90"
   inkscape:export-ydpi="90"
   sodipodi:docbase="/home/maurizio/out1"
   sodipodi:docname="wq.svg"
   inkscape:output_extension="org.inkscape.output.svg.inkscape">
  <defs
     id="defs36222">
    <inkscape:perspective
       sodipodi:type="inkscape:persp3d"
       inkscape:vp_x="0 : 437.5 : 1"
       inkscape:vp_y="0 : 1000 : 0"
       inkscape:vp_z="875 : 437.5 : 1"
       inkscape:persp3d-origin="437.5 : 291.66667 : 1"
       id="perspective5290" />
    <linearGradient
       id="linearGradient2508">
      <stop
         style="stop-color:#ffffff;stop-opacity:1;"
         offset="0"
         id="stop2510" />
      <stop
         style="stop-color:#d0b090;stop-opacity:1"
         offset="1"
         id="stop2512" />
    </linearGradient>
    <linearGradient
       inkscape:collect="always"
       xlink:href="#linearGradient2508"
       id="linearGradient2538"
       x1="785.14124"
       y1="294.75864"
       x2="840.91125"
       y2="363.08893"
       gradientUnits="userSpaceOnUse"
       gradientTransform="matrix(0.1204219,0,0,0.1204219,-2.8249047,-1.573645)" />
    <linearGradient
       inkscape:collect="always"
       xlink:href="#linearGradient2508"
       id="linearGradient2546"
       x1="649.86255"
       y1="171.18027"
       x2="711.11725"
       y2="227.74881"
       gradientUnits="userSpaceOnUse"
       gradientTransform="matrix(0.1204219,0,0,0.1204219,-2.8249047,-1.573645)" />
    <linearGradient
       inkscape:collect="always"
       xlink:href="#linearGradient2508"
       id="linearGradient2554"
       x1="406.01202"
       y1="103.53159"
       x2="470.8349"
       y2="132.99438"
       gradientUnits="userSpaceOnUse"
       gradientTransform="matrix(0.1204219,0,0,0.1204219,-2.8249047,-1.573645)" />
    <linearGradient
       inkscape:collect="always"
       xlink:href="#linearGradient2508"
       id="linearGradient2562"
       x1="167.87183"
       y1="174.99733"
       x2="234.62003"
       y2="174.99733"
       gradientUnits="userSpaceOnUse"
       gradientTransform="matrix(0.1204219,0,0,0.1204219,-2.8249047,-1.573645)" />
    <linearGradient
       inkscape:collect="always"
       xlink:href="#linearGradient2508"
       id="linearGradient2570"
       x1="23.458433"
       y1="337.85495"
       x2="87.371216"
       y2="315.46323"
       gradientUnits="userSpaceOnUse"
       gradientTransform="matrix(0.1204219,0,0,0.1204219,-2.8249047,-1.573645)" />
    <linearGradient
       inkscape:collect="always"
       xlink:href="#linearGradient2508"
       id="linearGradient2578"
       x1="339.47086"
       y1="530.60559"
       x2="514.54016"
       y2="571.59277"
       gradientUnits="userSpaceOnUse" />
    <linearGradient
       inkscape:collect="always"
       xlink:href="#linearGradient2508"
       id="linearGradient2586"
       x1="339.47086"
       y1="530.60559"
       x2="495.02243"
       y2="584.75751"
       gradientUnits="userSpaceOnUse" />
    <linearGradient
       inkscape:collect="always"
       xlink:href="#linearGradient2508"
       id="linearGradient2594"
       x1="339.47086"
       y1="530.60559"
       x2="487.21536"
       y2="584.75751"
       gradientUnits="userSpaceOnUse" />
    <linearGradient
       inkscape:collect="always"
       xlink:href="#linearGradient2508"
       id="linearGradient2602"
       x1="339.47086"
       y1="530.60559"
       x2="498.92599"
       y2="584.75751"
       gradientUnits="userSpaceOnUse" />
    <linearGradient
       inkscape:collect="always"
       xlink:href="#linearGradient2508"
       id="linearGradient2610"
       x1="339.47086"
       y1="530.60559"
       x2="510.6366"
       y2="584.75751"
       gradientUnits="userSpaceOnUse" />
    <linearGradient
       inkscape:collect="always"
       xlink:href="#linearGradient2508"
       id="linearGradient2279"
       x1="153.6037"
       y1="380.53995"
       x2="761.36395"
       y2="682.2066"
       gradientUnits="userSpaceOnUse" />
    <linearGradient
       inkscape:collect="always"
       xlink:href="#linearGradient2508"
       id="linearGradient5292"
       gradientUnits="userSpaceOnUse"
       x1="153.6037"
       y1="380.53995"
       x2="761.36395"
       y2="682.2066" />
    <linearGradient
       inkscape:collect="always"
       xlink:href="#linearGradient2508"
       id="linearGradient5294"
       gradientUnits="userSpaceOnUse"
       x1="153.6037"
       y1="380.53995"
       x2="761.36395"
       y2="682.2066" />
    <linearGradient
       inkscape:collect="always"
       xlink:href="#linearGradient2508"
       id="linearGradient5296"
       gradientUnits="userSpaceOnUse"
       x1="153.6037"
       y1="380.53995"
       x2="761.36395"
       y2="682.2066" />
    <linearGradient
       inkscape:collect="always"
       xlink:href="#linearGradient2508"
       id="linearGradient5298"
       gradientUnits="userSpaceOnUse"
       x1="153.6037"
       y1="380.53995"
       x2="761.36395"
       y2="682.2066" />
    <linearGradient
       inkscape:collect="always"
       xlink:href="#linearGradient2508"
       id="linearGradient5300"
       gradientUnits="userSpaceOnUse"
       x1="153.6037"
       y1="380.53995"
       x2="761.36395"
       y2="682.2066" />
  </defs>
  <sodipodi:namedview
     id="base"
     pagecolor="#ffffff"
     bordercolor="#666666"
     borderopacity="1.0"
     inkscape:pageopacity="0.0"
     inkscape:pageshadow="2"
     inkscape:zoom="0.3"
     inkscape:cx="-183.44723"
     inkscape:cy="370.27772"
     inkscape:current-layer="layer1"
     inkscape:document-units="px"
     inkscape:window-width="979"
     inkscape:window-height="851"
     inkscape:window-x="265"
     inkscape:window-y="23"
     showgrid="false" />
  <metadata
     id="metadata36225">
    <rdf:RDF>
      <cc:Work
         rdf:about="">
        <dc:format>image/svg+xml</dc:format>
        <dc:type
           rdf:resource="http://purl.org/dc/dcmitype/StillImage" />
        <dc:creator>
          <cc:Agent>
            <dc:title>Maurizio Monge</dc:title>
          </cc:Agent>
        </dc:creator>
        <dc:rights>
          <cc:Agent>
            <dc:title>Maurizio Monge</dc:title>
          </cc:Agent>
        </dc:rights>
        <cc:license
           rdf:resource="http://creativecommons.org/licenses/GPL/2.0/" />
      </cc:Work>
      <cc:License
         rdf:about="http://creativecommons.org/licenses/GPL/2.0/">
        <cc:permits
           rdf:resource="http://web.resource.org/cc/Reproduction" />
        <cc:permits
           rdf:resource="http://web.resource.org/cc/Distribution" />
        <cc:requires
           rdf:resource="http://web.resource.org/cc/Notice" />
        <cc:permits
           rdf:resource="http://web.resource.org/cc/DerivativeWorks" />
        <cc:requires
           rdf:resource="http://web.resource.org/cc/ShareAlike" />
        <cc:requires
           rdf:resource="http://web.resource.org/cc/SourceCode" />
      </cc:License>
    </rdf:RDF>
  </metadata>
  <g
     id="layer1"
     inkscape:label="Layer 1"
     inkscape:groupmode="layer">
    <g
       id="g2266"
       style="fill:url(#linearGradient2279);fill-opacity:1"
       transform="matrix(0.1204219,0,0,0.1204219,-2.8249047,-1.573645)">
      <path
         sodipodi:nodetypes="ccccc"
         id="path25586"
         d="M 243.93513,824.89024 L 193.55693,658.67811 L 627.32493,659.99608 L 577.80633,829.67702 L 243.93513,824.89024 z"
         style="fill:url(#linearGradient5292);fill-opacity:1;fill-rule:evenodd;stroke:none;stroke-width:16;stroke-linecap:butt;stroke-linejoin:miter;stroke-miterlimit:4;stroke-dasharray:none;stroke-opacity:1" />
      <path
         sodipodi:nodetypes="ccccc"
         id="path9792"
         d="M 612.71323,716.27973 C 490.51354,672.61099 329.30672,672.35739 210.31943,716.17567 C 222.90363,746.70532 226.23753,809.17377 226.23753,809.17377 C 326.95677,781.0005 498.19209,781.85702 598.12263,813.36171 C 598.12263,813.36171 600.43243,746.65519 612.71323,716.27973 z"
         style="fill:url(#linearGradient5294);fill-opacity:1;fill-rule:evenodd;stroke:#000000;stroke-width:16;stroke-linecap:round;stroke-linejoin:round;stroke-miterlimit:4;stroke-dasharray:none;stroke-opacity:1" />
      <path
         sodipodi:nodetypes="cccccccccccc"
         id="path28221"
         d="M 195.10383,697.9154 C 316.95436,645.2285 507.68493,644.39592 630.68113,698.3256 C 642.80733,593.28931 681.02853,463.62895 753.36393,370.62614 C 698.51613,392.08833 618.88473,529.48915 572.58863,555.38393 C 536.28453,479.12072 608.13303,281.17996 636.06743,239.25506 C 589.16843,267.47386 489.91953,442.27105 460.59793,524.04002 C 418.33203,429.59549 428.22523,252.95831 427.21413,178.93171 C 395.41823,248.48509 353.69613,408.30478 349.42553,521.24619 C 268.23313,460.38218 239.57983,295.97511 217.92473,230.84046 C 206.00133,324.63817 226.80893,488.01266 240.54813,554.0669 C 187.75583,518.47425 126.10853,440.14746 74.937033,373.76193 C 139.99633,529.33555 163.54513,576.45484 195.10383,697.9154 z"
         style="fill:url(#linearGradient5296);fill-opacity:1;fill-rule:evenodd;stroke:#000000;stroke-width:16;stroke-linecap:round;stroke-linejoin:round;stroke-miterlimit:4;stroke-dasharray:none;stroke-opacity:1" />
      <path
         sodipodi:nodetypes="ccscscscs"
         id="path7672"
         d="M 407.76343,699.78166 C 388.76533,699.68393 399.17803,714.41733 395.44453,720.89683 C 386.90703,725.84571 359.19913,717.06509 368.11823,735.23678 C 374.43703,748.1108 383.88433,742.0504 394.49533,746.19839 C 399.77053,753.46495 390.85233,775.56417 409.53183,775.10053 C 424.95933,774.71763 416.55013,752.6696 419.84763,746.72904 C 429.17383,740.63497 441.40983,748.89379 447.58203,733.27703 C 452.26783,721.42105 429.06953,725.81861 419.90893,720.71295 C 416.07173,714.98167 427.52963,699.88519 407.76343,699.78166 z"
         style="fill:url(#linearGradient5298);fill-opacity:1;fill-rule:evenodd;stroke:#000000;stroke-width:16;stroke-linecap:round;stroke-linejoin:round;stroke-miterlimit:4;stroke-dasharray:none;stroke-opacity:1" />
      <path
         sodipodi:nodetypes="ccc"
         id="path8563"
         d="M 244.57333,825.27293 C 333.39553,835.87175 477.29493,839.6335 577.53123,829.67981 C 520.96269,804.39859 317.64103,804.61237 244.57333,825.27293 z"
         style="fill:url(#linearGradient5300);fill-opacity:1;fill-rule:evenodd;stroke:#000000;stroke-width:16;stroke-linecap:round;stroke-linejoin:round;stroke-miterlimit:4;stroke-dasharray:none;stroke-opacity:1" />
    </g>
    <path
       style="fill:url(#linearGradient2554);fill-opacity:1;fill-rule:evenodd;stroke:#000000;stroke-width:1.92675066;stroke-linecap:round;stroke-linejoin:round;stroke-miterlimit:4;stroke-dasharray:none;stroke-opacity:1"
       d="M 54.329745,8.363385 C 53.298935,8.385985 50.121785,8.919655 48.212505,9.871985 C 47.633305,11.330295 47.934175,15.604775 48.228375,19.101005 C 50.056915,16.166325 54.097275,11.122665 54.329745,8.363385 z"
       id="path1323"
       sodipodi:nodetypes="cccc" />
    <path
       sodipodi:type="arc"
       style="opacity:1;fill:url(#linearGradient2586);fill-opacity:1;fill-rule:evenodd;stroke:#000000;stroke-width:18.73698616;stroke-linecap:round;stroke-linejoin:round;stroke-miterlimit:4;stroke-dasharray:none;stroke-dashoffset:0;stroke-opacity:1"
       id="path29102"
       sodipodi:cx="394.8013"
       sodipodi:cy="530.60559"
       sodipodi:rx="45.961941"
       sodipodi:ry="44.783428"
       d="M 440.76324,530.60559 A 45.961941,44.783428 0 1 1 348.83936,530.60559 A 45.961941,44.783428 0 1 1 440.76324,530.60559 z"
       transform="matrix(0.1028314,0,0,0.1028314,7.6801353,-34.268955)" />
    <path
       sodipodi:nodetypes="cccc"
       id="path2211"
       d="M 83.265005,23.233815 C 82.696895,22.553075 83.059055,21.307075 78.447675,18.771685 L 72.564355,26.120815 C 75.865255,25.091245 81.085955,23.536575 83.265005,23.233815 z"
       style="fill:url(#linearGradient2546);fill-opacity:1;fill-rule:evenodd;stroke:#000000;stroke-width:1.92675066;stroke-linecap:round;stroke-linejoin:round;stroke-miterlimit:4;stroke-dasharray:none;stroke-opacity:1" />
    <path
       transform="matrix(0.1028314,0,0,0.1028314,32.727895,-27.043645)"
       d="M 440.76324,530.60559 A 45.961941,44.783428 0 1 1 348.83936,530.60559 A 45.961941,44.783428 0 1 1 440.76324,530.60559 z"
       sodipodi:ry="44.783428"
       sodipodi:rx="45.961941"
       sodipodi:cy="530.60559"
       sodipodi:cx="394.8013"
       id="path2203"
       style="opacity:1;fill:url(#linearGradient2594);fill-opacity:1;fill-rule:evenodd;stroke:#000000;stroke-width:18.73698616;stroke-linecap:round;stroke-linejoin:round;stroke-miterlimit:4;stroke-dasharray:none;stroke-dashoffset:0;stroke-opacity:1"
       sodipodi:type="arc" />
    <path
       style="fill:url(#linearGradient2538);fill-opacity:1;fill-rule:evenodd;stroke:#000000;stroke-width:1.92675066;stroke-linecap:round;stroke-linejoin:round;stroke-miterlimit:4;stroke-dasharray:none;stroke-opacity:1"
       d="M 98.999065,40.801785 C 99.321105,39.136685 97.533465,38.601875 95.818585,36.307135 C 93.429835,37.285205 90.662475,38.451805 88.712965,41.186835 C 93.634255,40.171915 95.871345,41.675525 98.999065,40.801785 z"
       id="path2213"
       sodipodi:nodetypes="cccc" />
    <path
       sodipodi:type="arc"
       style="opacity:1;fill:url(#linearGradient2602);fill-opacity:1;fill-rule:evenodd;stroke:#000000;stroke-width:18.73698616;stroke-linecap:round;stroke-linejoin:round;stroke-miterlimit:4;stroke-dasharray:none;stroke-dashoffset:0;stroke-opacity:1"
       id="path2205"
       sodipodi:cx="394.8013"
       sodipodi:cy="530.60559"
       sodipodi:rx="45.961941"
       sodipodi:ry="44.783428"
       d="M 440.76324,530.60559 A 45.961941,44.783428 0 1 1 348.83936,530.60559 A 45.961941,44.783428 0 1 1 440.76324,530.60559 z"
       transform="matrix(0.1028314,0,0,0.1028314,47.493425,-11.899695)" />
    <path
       sodipodi:nodetypes="cccc"
       id="path2215"
       d="M 24.465115,17.033765 C 23.193455,15.611295 21.708255,15.815435 18.353915,15.322695 C 18.471035,19.384115 20.895355,20.517175 22.337665,23.677035 C 24.166195,20.742365 23.871375,20.635995 24.465115,17.033765 z"
       style="fill:url(#linearGradient2562);fill-opacity:1;fill-rule:evenodd;stroke:#000000;stroke-width:1.92675066;stroke-linecap:round;stroke-linejoin:round;stroke-miterlimit:4;stroke-dasharray:none;stroke-opacity:1" />
    <path
       transform="matrix(0.1028314,0,0,0.1028314,-17.728915,-28.007015)"
       d="M 440.76324,530.60559 A 45.961941,44.783428 0 1 1 348.83936,530.60559 A 45.961941,44.783428 0 1 1 440.76324,530.60559 z"
       sodipodi:ry="44.783428"
       sodipodi:rx="45.961941"
       sodipodi:cy="530.60559"
       sodipodi:cx="394.8013"
       id="path2207"
       style="opacity:1;fill:url(#linearGradient2578);fill-opacity:1;fill-rule:evenodd;stroke:#000000;stroke-width:18.73698616;stroke-linecap:round;stroke-linejoin:round;stroke-miterlimit:4;stroke-dasharray:none;stroke-dashoffset:0;stroke-opacity:1"
       sodipodi:type="arc" />
    <path
       style="fill:url(#linearGradient2570);fill-opacity:1;fill-rule:evenodd;stroke:#000000;stroke-width:1.92675066;stroke-linecap:round;stroke-linejoin:round;stroke-miterlimit:4;stroke-dasharray:none;stroke-opacity:1"
       d="M 3.2278353,33.322485 C 1.6085253,33.659665 1.4715053,36.972655 0.96337533,38.672285 C 2.7765353,40.670705 4.6201853,41.809245 6.2041953,44.900495 C 7.8978653,41.885965 5.1493553,35.635795 3.2278353,33.322485 z"
       id="path2217"
       sodipodi:nodetypes="cccc" />
    <path
       sodipodi:type="arc"
       style="opacity:1;fill:url(#linearGradient2610);fill-opacity:1;fill-rule:evenodd;stroke:#000000;stroke-width:18.73698616;stroke-linecap:round;stroke-linejoin:round;stroke-miterlimit:4;stroke-dasharray:none;stroke-dashoffset:0;stroke-opacity:1"
       id="path2209"
       sodipodi:cx="394.8013"
       sodipodi:cy="530.60559"
       sodipodi:rx="45.961941"
       sodipodi:ry="44.783428"
       d="M 440.76324,530.60559 A 45.961941,44.783428 0 1 1 348.83936,530.60559 A 45.961941,44.783428 0 1 1 440.76324,530.60559 z"
       transform="matrix(0.1028314,0,0,0.1028314,-32.822985,-9.873185)" />
  </g>
</svg>
