<?xml version="1.0" encoding="UTF-8" standalone="no"?>
<!-- Created with Inkscape (http://www.inkscape.org/) -->

<svg
   xmlns:dc="http://purl.org/dc/elements/1.1/"
   xmlns:cc="http://creativecommons.org/ns#"
   xmlns:rdf="http://www.w3.org/1999/02/22-rdf-syntax-ns#"
   xmlns:svg="http://www.w3.org/2000/svg"
   xmlns="http://www.w3.org/2000/svg"
   xmlns:sodipodi="http://sodipodi.sourceforge.net/DTD/sodipodi-0.dtd"
   xmlns:inkscape="http://www.inkscape.org/namespaces/inkscape"
   width="64px"
   height="64px"
   id="svg2996"
   version="1.1"
   inkscape:version="0.48.1 "
   sodipodi:docname="bk.svg">
  <defs
     id="defs2998" />
  <sodipodi:namedview
     id="base"
     pagecolor="#ffffff"
     bordercolor="#666666"
     borderopacity="1.0"
     inkscape:pageopacity="0.0"
     inkscape:pageshadow="2"
     inkscape:zoom="11.313709"
     inkscape:cx="32.424719"
     inkscape:cy="32.453698"
     inkscape:current-layer="layer1"
     showgrid="true"
     inkscape:document-units="px"
     inkscape:grid-bbox="true"
     inkscape:window-width="1365"
     inkscape:window-height="878"
     inkscape:window-x="-8"
     inkscape:window-y="-8"
     inkscape:window-maximized="1" />
  <metadata
     id="metadata3001">
    <rdf:RDF>
      <cc:Work
         rdf:about="">
        <dc:format>image/svg+xml</dc:format>
        <dc:type
           rdf:resource="http://purl.org/dc/dcmitype/StillImage" />
        <dc:title />
      </cc:Work>
    </rdf:RDF>
  </metadata>
  <g
     id="layer1"
     inkscape:label="Layer 1"
     inkscape:groupmode="layer">
    <path
       style="fill:#000000"
       d="m 12.82759,59.640542 c -0.441789,-0.441788 -0.66,-2.896669 -0.66,-7.425 l 0,-6.765002 19.8,0 19.800008,0 0,6.765003 c 0,4.528331 -0.21822,6.983212 -0.66,7.425 -0.94523,0.945224 -37.334783,0.945224 -38.280008,0 z m 7.279816,-7.003233 c 0.09912,-0.171473 -1.151789,-1.094994 -2.779799,-2.05228 l -2.960017,-1.74051 0,3.780295 0,3.780293 2.779798,-1.728017 c 1.52889,-0.950411 2.860898,-1.868312 2.960018,-2.039785 z m 14.747684,1.886995 c 1.436875,-0.902418 2.6125,-1.791185 2.6125,-1.975044 0,-0.183865 -1.2375,-1.10357 -2.75,-2.043789 l -2.75,-1.709496 -2.75,1.709496 c -1.512499,0.940219 -2.745442,1.858125 -2.739871,2.039785 0.01205,0.392953 5.09237,3.817539 5.489871,3.700658 0.15125,-0.04449 1.450625,-0.819197 2.8875,-1.72161 z m 14.608201,-3.721976 -0.170698,-1.798217 -2.929159,1.755482 -2.929155,1.755479 2.929155,1.876528 2.929159,1.876529 0.170698,-1.833794 c 0.09389,-1.008584 0.09389,-2.642992 0,-3.632007 z M 9.9477221,42.960881 c -10.255757,-7.566458 -6.365099,-24.05413 6.2149169,-26.337319 3.434623,-0.623361 8.4633,1.106378 11.214392,3.857471 3.302757,3.302757 4.040559,6.223305 4.040559,15.994331 l 0,7.875174 -9.793146,0 c -9.609914,0 -9.828388,-0.026 -11.6767219,-1.389658 z M 32.51759,36.475365 c 0,-9.771027 0.737802,-12.691575 4.040559,-15.994332 2.751092,-2.751093 7.779769,-4.480832 11.214392,-3.857471 6.395867,1.160806 11.412997,6.596282 12.077597,13.084659 0.51263,5.00481 -1.81495,10.266341 -5.86268,13.25266 -1.84833,1.363658 -2.06681,1.389658 -11.676722,1.389658 l -9.793146,0 0,-7.875174 z M 31.172497,23.648882 c -0.200389,-0.798411 -1.700231,-2.755899 -3.332982,-4.349975 l -2.968637,-2.898318 1.843976,-0.875025 c 1.014188,-0.481265 2.115949,-0.875025 2.448357,-0.875025 0.332408,0 0.607759,-0.433125 0.611889,-0.9625 0.0041,-0.529375 0.164116,-1.547554 0.355523,-2.26262 0.36877,-1.377667 0.515937,-1.360037 -2.975532,-0.356457 -1.136279,0.326609 -1.2375,0.175863 -1.2375,-1.8429665 l 0,-2.19867 1.783868,0.511607 c 2.611133,0.748863 2.66114,0.711788 2.277336,-1.688393 l -0.351794,-2.2 2.340589,0 2.340589,0 -0.351793,2.2 c -0.383805,2.400181 -0.333798,2.437256 2.277336,1.688393 l 1.783868,-0.511607 0,2.19867 c 0,2.3416515 0.17977,2.2706665 -3.243023,1.2805645 -1.179945,-0.34132 -1.281565,-0.245059 -0.97001,0.918859 0.191407,0.715066 0.351392,1.733245 0.355523,2.26262 0.0041,0.529375 0.279481,0.9625 0.611889,0.9625 0.332409,0 1.434169,0.39376 2.448358,0.875025 l 1.843977,0.875025 -2.968638,2.898318 c -1.632752,1.594076 -3.132593,3.551564 -3.332982,4.349975 -0.200389,0.798412 -0.558181,1.451657 -0.795094,1.451657 -0.236913,0 -0.594705,-0.653245 -0.795093,-1.451657 z"
       id="path3040"
       inkscape:connector-curvature="0" />
    <path
       style="fill:none;stroke:#000000;stroke-width:0.2;stroke-linecap:butt;stroke-linejoin:miter;stroke-miterlimit:4;stroke-opacity:1;stroke-dasharray:none"
       d="m 25.548221,16.192239 -3.485956,1.580149"
       id="path3050"
       inkscape:connector-curvature="0" />
    <path
       style="fill:none;stroke:#000000;stroke-width:0.2;stroke-linecap:butt;stroke-linejoin:miter;stroke-miterlimit:4;stroke-opacity:1;stroke-dasharray:none"
       d="m 38.529364,16.260713 3.090909,1.454546"
       id="path3052"
       inkscape:connector-curvature="0" />
    <path
       style="fill:none;stroke:#000000;stroke-width:0.2;stroke-linecap:butt;stroke-linejoin:miter;stroke-miterlimit:4;stroke-opacity:1;stroke-dasharray:none"
       d="m 51.666709,45.662182 0.01034,-1.955047"
       id="path3054"
       inkscape:connector-curvature="0" />
    <path
       style="fill:none;stroke:#000000;stroke-width:0.2;stroke-linecap:butt;stroke-linejoin:miter;stroke-miterlimit:4;stroke-opacity:1;stroke-dasharray:none"
       d="m 12.264914,46.179549 0,-9.383867"
       id="path3056"
       inkscape:connector-curvature="0" />
    <path
       style="fill:#ffffff"
       d="M 31.65353,56.087631 C 30.904496,55.772685 27.2253,53.275369 26.738763,52.751649 l -0.204476,-0.220102 0.24993,-0.235216 c 0.429951,-0.404636 1.631708,-1.226137 3.440578,-2.351922 l 1.743362,-1.085014 1.623904,1.011879 c 2.759844,1.7197 3.827454,2.501998 3.736823,2.73818 -0.08503,0.221593 -1.481737,1.224942 -3.083129,2.214825 -2.329557,1.439991 -2.256641,1.404454 -2.592225,1.263352 z"
       id="path3058"
       inkscape:connector-curvature="0" />
    <path
       style="fill:#ffffff"
       d="m 14.443239,52.578117 0,-3.64682 0.204545,0.131072 c 0.1125,0.07209 0.920455,0.553257 1.795455,1.06926 1.777472,1.048207 3.037978,1.883023 3.358712,2.224429 0.185686,0.197654 0.197055,0.246913 0.08746,0.378966 -0.217647,0.26225 -5.202255,3.489912 -5.38961,3.489912 -0.03111,0 -0.05656,-1.641069 -0.05656,-3.646819 z"
       id="path3060"
       inkscape:connector-curvature="0" />
    <path
       style="fill:#ffffff"
       d="m 46.400151,54.360771 c -1.498698,-0.9669 -2.734766,-1.791876 -2.746818,-1.833281 -0.02165,-0.07438 5.515422,-3.425523 5.569919,-3.371026 0.0155,0.0155 0.07675,0.491944 0.136095,1.058757 0.157703,1.506154 0.02572,5.937607 -0.176054,5.911177 -0.03203,-0.0042 -1.284444,-0.798727 -2.783142,-1.765627 l 0,0 z"
       id="path3062"
       inkscape:connector-curvature="0" />
    <path
       style="fill:#ffffff;stroke-width:0.2;stroke-miterlimit:4;stroke-dasharray:none"
       d="m 12.413597,44.777041 0,-0.628947 0.287262,0.05573 c 0.441671,0.08568 8.659517,0.217244 13.973814,0.22371 l 4.759328,0.0058 -0.04061,-6.960582 c -0.03715,-6.367323 -0.05646,-7.093282 -0.226551,-8.517508 -0.448768,-3.75773 -1.217549,-5.700883 -3.081158,-7.787866 -1.299396,-1.455142 -3.111838,-2.749848 -4.800313,-3.429071 l -0.397748,-0.160002 0.763312,-0.355667 c 0.419821,-0.195617 0.901666,-0.413475 1.070767,-0.48413 l 0.307455,-0.128463 1.994436,2.001315 c 1.09694,1.100723 2.209199,2.25985 2.471687,2.575839 0.756882,0.911151 1.445795,1.97252 1.614274,2.487022 0.19613,0.598939 0.518919,1.247389 0.692747,1.391654 0.291919,0.24227 0.574042,-0.157993 1.067975,-1.515192 0.371078,-1.019629 1.928793,-2.913727 4.296632,-5.224477 0.928126,-0.905747 1.739196,-1.646813 1.802379,-1.646813 0.06318,0 0.540273,0.203207 1.060202,0.451572 l 0.945325,0.451572 -0.969017,0.467334 c -1.408957,0.679508 -2.406851,1.377853 -3.472644,2.430221 -2.376301,2.346367 -3.343603,4.520727 -3.745958,8.420395 -0.239112,2.317489 -0.308524,4.580808 -0.308982,10.074867 l -4.54e-4,5.45798 4.795068,-0.0057 c 5.215324,-0.0062 13.431523,-0.138892 13.969629,-0.225691 l 0.335726,-0.05415 -0.02637,0.606789 -0.02637,0.60679 -19.555922,0.02229 -19.555922,0.02229 0,-0.628946 z"
       id="path4365"
       inkscape:connector-curvature="0" />
  </g>
</svg>
