<?xml version="1.0" encoding="UTF-8" standalone="no"?>
<!-- Created with Inkscape (http://www.inkscape.org/) -->

<svg
   xmlns:dc="http://purl.org/dc/elements/1.1/"
   xmlns:cc="http://creativecommons.org/ns#"
   xmlns:rdf="http://www.w3.org/1999/02/22-rdf-syntax-ns#"
   xmlns:svg="http://www.w3.org/2000/svg"
   xmlns="http://www.w3.org/2000/svg"
   xmlns:sodipodi="http://sodipodi.sourceforge.net/DTD/sodipodi-0.dtd"
   xmlns:inkscape="http://www.inkscape.org/namespaces/inkscape"
   width="64px"
   height="64px"
   id="svg2996"
   version="1.1"
   inkscape:version="0.48.1 "
   sodipodi:docname="bq.svg">
  <defs
     id="defs2998" />
  <sodipodi:namedview
     id="base"
     pagecolor="#ffffff"
     bordercolor="#666666"
     borderopacity="1.0"
     inkscape:pageopacity="0.0"
     inkscape:pageshadow="2"
     inkscape:zoom="11.313709"
     inkscape:cx="46.48861"
     inkscape:cy="26.480858"
     inkscape:current-layer="layer1"
     showgrid="true"
     inkscape:document-units="px"
     inkscape:grid-bbox="true"
     inkscape:window-width="1365"
     inkscape:window-height="878"
     inkscape:window-x="-8"
     inkscape:window-y="-8"
     inkscape:window-maximized="1" />
  <metadata
     id="metadata3001">
    <rdf:RDF>
      <cc:Work
         rdf:about="">
        <dc:format>image/svg+xml</dc:format>
        <dc:type
           rdf:resource="http://purl.org/dc/dcmitype/StillImage" />
        <dc:title />
      </cc:Work>
    </rdf:RDF>
  </metadata>
  <g
     id="layer1"
     inkscape:label="Layer 1"
     inkscape:groupmode="layer">
    <path
       style="fill:#000000"
       d="m 12.86,57.990541 c -0.441789,-0.441787 -0.66,-2.896668 -0.66,-7.425 l 0,-6.765 19.8,0 19.8,0 0,6.765 c 0,4.528332 -0.218211,6.983213 -0.66,7.425 -0.945225,0.945225 -37.334775,0.945225 -38.28,0 z m 7.279816,-7.003235 c 0.09912,-0.171471 -1.151789,-1.094995 -2.779799,-2.052277 L 14.4,47.194517 l 0,3.780294 0,3.780295 2.779798,-1.728018 c 1.52889,-0.95041 2.860897,-1.868312 2.960018,-2.039782 z M 34.8875,52.874304 C 36.324375,51.971888 37.5,51.083119 37.5,50.899257 37.5,50.715396 36.2625,49.795692 34.75,48.85547 L 32,47.145977 29.25,48.85547 c -1.5125,0.940222 -2.745443,1.858124 -2.739872,2.039783 0.01205,0.392957 5.09237,3.817541 5.489872,3.700661 0.15125,-0.0445 1.450625,-0.819198 2.8875,-1.72161 z M 49.495701,49.152327 49.325,47.354112 l -2.929156,1.75548 -2.929155,1.75548 2.929155,1.876528 2.929156,1.876528 0.170701,-1.833793 c 0.09389,-1.008587 0.09389,-2.64299 0,-3.632008 z M 10.662163,38.713041 C 9.7598948,36.519916 8.4686735,33.185624 7.7927812,31.303504 7.0292723,29.177403 6.1785197,27.759156 5.5462903,27.558494 4.0256574,27.075864 2.3,24.603062 2.3,22.906681 c 0,-2.118406 2.2838909,-4.40614 4.3987383,-4.40614 2.3085023,0 4.3963827,2.133089 4.4168607,4.5125 0.0138,1.603684 0.36643,2.024875 3.060775,3.655892 1.674846,1.013865 3.110661,1.756365 3.190698,1.65 0.08004,-0.106365 0.811738,-3.389298 1.626003,-7.295406 l 1.480482,-7.102014 -1.111779,-1.183434 c -1.3422,-1.428708 -1.467862,-4.4844004 -0.255591,-6.2151604 0.665181,-0.949679 1.398546,-1.222378 3.287321,-1.222378 3.279614,0 4.397599,1.585756 3.9259,5.5685194 -0.306576,2.588555 -0.128408,3.165718 2.537934,8.221503 1.577212,2.990629 2.991408,5.437507 3.142658,5.437507 0.15125,0 1.565446,-2.446878 3.142658,-5.437507 2.666342,-5.055785 2.84451,-5.632948 2.537934,-8.221503 -0.471699,-3.9827634 0.646286,-5.5685194 3.9259,-5.5685194 1.888775,0 2.622139,0.272699 3.287321,1.222378 1.212271,1.73076 1.086609,4.7864524 -0.255591,6.2151604 l -1.111779,1.183434 1.480482,7.102014 c 0.814265,3.906108 1.545966,7.189041 1.626003,7.295406 0.08004,0.106365 1.515851,-0.636135 3.190698,-1.65 2.694344,-1.631017 3.046971,-2.052208 3.060776,-3.655892 0.02048,-2.379411 2.108359,-4.5125 4.416857,-4.5125 2.114849,0 4.398741,2.287734 4.398741,4.40614 0,1.696381 -1.725658,4.169183 -3.246293,4.651813 -0.632224,0.200662 -1.482981,1.618909 -2.246485,3.74501 -0.675895,1.88212 -1.967119,5.216412 -2.869383,7.409537 l -1.640488,3.9875 -19.697351,0 -19.697351,0 -1.640486,-3.9875 z"
       id="path3133"
       inkscape:connector-curvature="0" />
    <path
       style="fill:none;stroke:#000000;stroke-width:0.2;stroke-linecap:butt;stroke-linejoin:miter;stroke-miterlimit:4;stroke-opacity:1;stroke-dasharray:none"
       d="m 12.298763,43.837443 0,-2.727272"
       id="path3135"
       inkscape:connector-curvature="0" />
    <path
       style="fill:none;stroke:#000000;stroke-width:0.2;stroke-linecap:butt;stroke-linejoin:miter;stroke-miterlimit:4;stroke-opacity:1;stroke-dasharray:none"
       d="m 51.697134,43.973231 0.0278,-3.36475"
       id="path3137"
       inkscape:connector-curvature="0" />
    <path
       style="fill:#ffffff"
       d="m 14.452151,51.009852 c 0,-1.983907 0.03681,-3.607104 0.0818,-3.607104 0.1531,0 3.707037,2.158935 4.650298,2.824949 l 0.939439,0.663315 -0.526852,0.416913 c -0.464938,0.367918 -3.286945,2.196305 -4.649573,3.012472 l -0.495117,0.296558 0,-3.607103 z"
       id="path3139"
       inkscape:connector-curvature="0" />
    <path
       style="fill:#ffffff"
       d="m 31.190855,54.154407 c -1.709059,-0.97709 -4.525041,-3.022234 -4.525041,-3.28637 0,-0.06297 0.332661,-0.360605 0.739248,-0.661411 0.773861,-0.572527 4.469001,-2.932443 4.5916,-2.932443 0.241759,0 5.120107,3.219411 5.286631,3.488853 0.122104,0.197568 -0.300654,0.593359 -1.490691,1.395602 -1.420682,0.957727 -3.709458,2.315611 -3.899731,2.31363 -0.08181,-8.52e-4 -0.397717,-0.143889 -0.702016,-0.317861 z"
       id="path3141"
       inkscape:connector-curvature="0" />
    <path
       style="fill:#ffffff"
       d="m 46.526047,52.734721 c -1.483253,-0.948061 -2.696823,-1.783606 -2.696823,-1.856767 0,-0.136209 5.331577,-3.393361 5.416131,-3.308807 0.151598,0.151599 0.262578,3.605675 0.163654,5.093484 -0.06306,0.948391 -0.130736,1.740433 -0.150395,1.760092 -0.01966,0.01966 -1.249315,-0.739942 -2.732567,-1.688002 l 0,0 z"
       id="path3143"
       inkscape:connector-curvature="0" />
    <path
       style="fill:#ffffff;stroke-width:0.2;stroke-miterlimit:4;stroke-dasharray:none"
       d="m 12.423741,43.246707 0,-0.53033 19.578019,0 19.578019,0 0,0.53033 0,0.53033 -19.578019,0 -19.578019,0 0,-0.53033 z"
       id="path5977"
       inkscape:connector-curvature="0" />
  </g>
</svg>
