<?xml version="1.0" encoding="UTF-8" standalone="no"?>
<!-- Created with Inkscape (http://www.inkscape.org/) -->

<svg
   xmlns:dc="http://purl.org/dc/elements/1.1/"
   xmlns:cc="http://creativecommons.org/ns#"
   xmlns:rdf="http://www.w3.org/1999/02/22-rdf-syntax-ns#"
   xmlns:svg="http://www.w3.org/2000/svg"
   xmlns="http://www.w3.org/2000/svg"
   xmlns:sodipodi="http://sodipodi.sourceforge.net/DTD/sodipodi-0.dtd"
   xmlns:inkscape="http://www.inkscape.org/namespaces/inkscape"
   width="64px"
   height="64px"
   id="svg2996"
   version="1.1"
   inkscape:version="0.48.1 "
   sodipodi:docname="br.svg">
  <defs
     id="defs2998" />
  <sodipodi:namedview
     id="base"
     pagecolor="#ffffff"
     bordercolor="#666666"
     borderopacity="1.0"
     inkscape:pageopacity="0.0"
     inkscape:pageshadow="2"
     inkscape:zoom="7.7781746"
     inkscape:cx="22.538834"
     inkscape:cy="40.689171"
     inkscape:current-layer="layer1"
     showgrid="true"
     inkscape:document-units="px"
     inkscape:grid-bbox="true"
     inkscape:window-width="1365"
     inkscape:window-height="878"
     inkscape:window-x="-8"
     inkscape:window-y="-8"
     inkscape:window-maximized="1" />
  <metadata
     id="metadata3001">
    <rdf:RDF>
      <cc:Work
         rdf:about="">
        <dc:format>image/svg+xml</dc:format>
        <dc:type
           rdf:resource="http://purl.org/dc/dcmitype/StillImage" />
        <dc:title></dc:title>
      </cc:Work>
    </rdf:RDF>
  </metadata>
  <g
     id="layer1"
     inkscape:label="Layer 1"
     inkscape:groupmode="layer">
    <path
       style="fill:#000000"
       d="m 6.0951878,57.969756 c 0,-1.621103 1.5116717,-4.987941 2.9137504,-6.489586 2.3941358,-2.56415 4.1579868,-3.103015 11.1053658,-3.392748 5.714198,-0.238304 6.618632,-0.403436 6.777829,-1.2375 0.156783,-0.821417 -0.255732,-0.9625 -2.814273,-0.9625 -3.705355,0 -4.365301,-0.687695 -4.171107,-4.346496 0.127625,-2.404567 -0.03644,-2.900423 -1.284431,-3.882098 -2.025593,-1.593332 -4.279586,-6.384995 -4.265056,-9.066895 0.02364,-4.362771 4.129832,-10.555253 9.747212,-14.699604 1.74114,-1.284566 3.22328,-2.36187 3.293645,-2.394009 0.07036,-0.03214 -0.170067,-0.847933 -0.534292,-1.8128735 -0.609308,-1.61424 -0.541617,-1.87505 0.847065,-3.2637318 1.239552,-1.2395521 1.996302,-1.5092919 4.234291,-1.5092919 2.23799,0 2.99474,0.2697398 4.234292,1.5092919 1.388682,1.3886818 1.456372,1.6494918 0.847065,3.2637318 -0.364225,0.9649405 -0.604656,1.7807345 -0.534292,1.8128735 0.07037,0.03214 1.552505,1.109443 3.293645,2.394009 5.61738,4.144351 9.723574,10.336833 9.747211,14.699604 0.01453,2.6819 -2.239462,7.473563 -4.265055,9.066895 -1.247997,0.981675 -1.412056,1.477531 -1.284432,3.882098 0.194194,3.658801 -0.465751,4.346496 -4.171107,4.346496 -2.558541,0 -2.971055,0.141083 -2.814272,0.9625 0.159196,0.834064 1.063631,0.999196 6.777828,1.2375 8.451473,0.352459 11.061394,1.685845 13.167867,6.727342 1.824042,4.365542 2.003199,4.272658 -8.241415,4.272658 -10.089405,0 -11.833501,-0.40029 -14.969835,-3.435767 l -1.7875,-1.730014 -1.7875,1.730014 c -3.136333,3.035477 -4.880429,3.435767 -14.969834,3.435767 -8.7739034,0 -9.0926652,-0.03918 -9.0926652,-1.117666 z M 26.42078,55.799874 c 2.866254,-1.462252 4.542217,-3.958053 4.856871,-7.232721 0.23059,-2.399792 0.142449,-2.679731 -0.843738,-2.679731 -0.772831,0 -1.195492,0.471333 -1.417335,1.58055 -0.173861,0.869302 -0.761673,1.784248 -1.30625,2.033213 -0.544577,0.248964 -4.040001,0.589592 -7.767608,0.75695 l -6.777467,0.304287 -2.160032,2.316203 c -3.5741756,3.832588 -3.3296979,4.008797 5.561877,4.008797 6.607049,0 8.029689,-0.157014 9.853682,-1.087548 z m 28.624408,0.241252 c 0,-0.465465 -0.972015,-1.88859 -2.160032,-3.162501 l -2.160034,-2.316203 -6.777468,-0.304287 c -3.727607,-0.167358 -7.22303,-0.507986 -7.767607,-0.75695 -0.544577,-0.248965 -1.132389,-1.163911 -1.30625,-2.033213 -0.221843,-1.109217 -0.644504,-1.58055 -1.417336,-1.58055 -0.986186,0 -1.074327,0.279939 -0.843738,2.679731 0.309407,3.220054 1.967861,5.741572 4.739231,7.205535 1.715813,0.906367 3.192636,1.069761 9.855733,1.090424 6.698193,0.02079 7.837501,-0.09871 7.837501,-0.821986 z m -13.305877,-14.691204 -0.169124,-2.3375 -9.625,0 -9.625,0 -0.169124,2.3375 -0.169124,2.3375 9.963248,0 9.963248,0 -0.169124,-2.3375 z m 2.436509,-5.775 C 47.671567,31.976906 48.247643,28.381765 46.02976,24.004983 44.418309,20.824938 39.800958,15.949288 35.955293,13.366941 33.134095,11.472519 33.107365,11.428649 34.202821,10.490691 35.692027,9.2155935 35.343269,7.3009825 33.457687,6.4000634 30.29919,4.890953 27.144788,8.3135075 29.687554,10.490691 c 1.095455,0.937958 1.068726,0.981828 -1.752472,2.87625 -3.845665,2.582347 -8.463016,7.457997 -10.074467,10.638042 -2.217884,4.376782 -1.641807,7.971923 1.85394,11.569939 l 2.003875,2.0625 10.226757,0 10.226758,0 2.003875,-2.0625 z m -14.40668,-3.85 c 0.01317,-0.529375 0.227442,-2.014375 0.47615,-3.3 0.497985,-2.574191 0.520821,-2.553511 -2.016234,-1.825893 l -1.783869,0.511607 0,-2.398214 0,-2.398214 1.783869,0.511608 c 2.546129,0.73022 2.593515,0.700488 2.027738,-1.272263 -0.741196,-2.5844 -0.720718,-2.616131 1.688393,-2.616131 2.409111,0 2.42959,0.03173 1.688394,2.616131 -0.565778,1.972751 -0.518391,2.002483 2.027737,1.272263 l 1.783869,-0.511608 0,2.398214 0,2.398214 -1.783869,-0.511607 c -2.537054,-0.727618 -2.514218,-0.748298 -2.016233,1.825893 0.797116,4.120466 0.740472,4.2625 -1.699898,4.2625 -1.737696,0 -2.194966,-0.202257 -2.176047,-0.9625 z"
       id="path3183"
       inkscape:connector-curvature="0" />
    <path
       style="fill:#ffffff"
       d="m 42.86494,56.715336 c -3.128327,-0.13206 -3.832224,-0.264017 -5.335442,-1.000217 -2.176438,-1.065908 -3.773371,-2.975677 -4.487925,-5.367098 -0.431463,-1.443994 -0.557467,-3.932722 -0.216382,-4.273807 0.05094,-0.05093 0.331609,-0.08634 0.623721,-0.07868 0.680415,0.01784 1.023606,0.398117 1.369262,1.517222 0.30406,0.98443 0.714248,1.646502 1.196637,1.931457 0.668412,0.39484 4.0885,0.710846 11.01608,1.017852 l 3.651691,0.16183 1.075032,1.147713 c 2.275623,2.429473 3.366445,3.980843 3.121234,4.439026 -0.06901,0.128939 -0.4031,0.284797 -0.795292,0.371012 -0.857482,0.188497 -7.925176,0.272724 -11.218616,0.133693 l 0,0 z"
       id="path3185"
       inkscape:connector-curvature="0" />
    <path
       style="fill:#ffffff"
       d="M 11.277037,56.698475 C 9.5505742,56.565609 8.9880971,56.354949 8.9880971,55.841218 c 0,-0.497724 0.5181688,-1.194672 2.4916729,-3.351357 1.941182,-2.121362 1.227211,-1.87913 6.122173,-2.07709 5.931122,-0.239864 9.524194,-0.567005 10.217537,-0.930283 0.488216,-0.255803 0.953079,-0.977418 1.242297,-1.928442 0.317113,-1.04275 0.616569,-1.453355 1.135651,-1.557171 1.013501,-0.202701 1.212358,0.262223 1.008724,2.35839 -0.242418,2.495397 -0.940011,4.044164 -2.54763,5.656143 -0.860829,0.863163 -1.324773,1.211587 -2.185603,1.641395 -1.422854,0.710424 -2.240707,0.902446 -4.500809,1.056738 -2.177074,0.148623 -8.707879,0.141866 -10.695073,-0.01107 l 0,0 z"
       id="path3187"
       inkscape:connector-curvature="0" />
    <path
       style="fill:#ffffff"
       d="m 22.150452,42.280575 c 0.04702,-0.724784 0.121127,-1.737233 0.164677,-2.249885 l 0.07918,-0.932095 9.543743,0 9.543744,0 0.07866,0.739248 c 0.04326,0.406586 0.117079,1.419035 0.164039,2.249885 l 0.08538,1.510637 -9.872459,0 -9.872459,0 0.0855,-1.31779 z"
       id="path3189"
       inkscape:connector-curvature="0" />
    <path
       style="fill:#ffffff"
       d="m 20.297352,36.045179 c -2.688538,-2.813276 -3.643695,-4.711745 -3.638445,-7.231774 0.0063,-3.019446 1.684238,-6.219996 5.265249,-10.043036 2.271111,-2.424607 3.95172,-3.876783 6.628737,-5.727741 1.278917,-0.884277 1.905537,-1.453994 1.905537,-1.7325 0,-0.06179 -0.314852,-0.454825 -0.699673,-0.873413 -0.807633,-0.8785036 -1.074725,-1.5842729 -0.84701,-2.2381651 0.261188,-0.750013 0.733088,-1.3058962 1.431976,-1.6868209 0.57376,-0.3127233 0.837287,-0.3763682 1.528921,-0.3692515 0.479342,0.00493 1.042467,0.099518 1.320654,0.221824 0.726685,0.3194914 1.465484,1.0522888 1.712191,1.6982823 0.305124,0.7989564 0.107086,1.3978974 -0.781969,2.3649672 -0.531592,0.578239 -0.672802,0.815386 -0.615653,1.033924 0.07735,0.295776 0.564648,0.695413 2.607418,2.138353 4.280244,3.023413 8.508424,7.620855 10.035741,10.912199 1.610072,3.469679 1.479372,6.050298 -0.458119,9.045352 -0.308566,0.476995 -1.235993,1.571778 -2.060949,2.43285 l -1.499919,1.565587 -10.195515,0 -10.195515,0 -1.443657,-1.510637 0,0 z m 13.461367,-3.570192 c 0.476636,-0.312304 0.485189,-0.890268 0.05144,-3.475836 -0.41271,-2.460165 -0.404044,-2.757043 0.08047,-2.757043 0.102627,0 0.905219,0.20249 1.783538,0.449977 0.878319,0.247487 1.655081,0.449977 1.726138,0.449977 0.08201,0 0.129192,-0.892041 0.129192,-2.442733 0,-1.343502 -0.02314,-2.442732 -0.05142,-2.442732 -0.02828,0 -0.790249,0.20249 -1.693257,0.449977 -1.790621,0.490754 -2.21395,0.541057 -2.315969,0.275198 -0.03689,-0.09613 0.08064,-0.757473 0.261164,-1.469653 0.180528,-0.712181 0.328234,-1.531703 0.328234,-1.821159 0,-0.692255 -0.231488,-0.77705 -2.121321,-0.77705 -0.803966,0 -1.610159,0.05642 -1.791538,0.125383 -0.43543,0.165551 -0.43415,0.623017 0.0067,2.382215 0.185045,0.738478 0.302569,1.430966 0.261164,1.538865 -0.110654,0.288374 -0.501786,0.245663 -2.324175,-0.253799 -0.90301,-0.247487 -1.664976,-0.449977 -1.693259,-0.449977 -0.02828,0 -0.05142,1.09923 -0.05142,2.442732 0,1.550692 0.04718,2.442733 0.129193,2.442733 0.07106,0 0.847818,-0.20249 1.726137,-0.449977 1.808549,-0.509602 1.910291,-0.522083 2.127029,-0.260929 0.124731,0.150292 0.09049,0.591771 -0.167031,2.153462 -0.566077,3.43288 -0.574079,3.70585 -0.114193,3.895718 0.814089,0.336107 3.197341,0.332675 3.71323,-0.0053 l 0,-1e-6 z"
       id="path3191"
       inkscape:connector-curvature="0" />
  </g>
</svg>
