<?xml version="1.0" encoding="UTF-8" standalone="no"?>
<!-- Created with Inkscape (http://www.inkscape.org/) -->

<svg
   xmlns:dc="http://purl.org/dc/elements/1.1/"
   xmlns:cc="http://creativecommons.org/ns#"
   xmlns:rdf="http://www.w3.org/1999/02/22-rdf-syntax-ns#"
   xmlns:svg="http://www.w3.org/2000/svg"
   xmlns="http://www.w3.org/2000/svg"
   xmlns:sodipodi="http://sodipodi.sourceforge.net/DTD/sodipodi-0.dtd"
   xmlns:inkscape="http://www.inkscape.org/namespaces/inkscape"
   width="64px"
   height="64px"
   id="svg2996"
   version="1.1"
   inkscape:version="0.48.1 "
   sodipodi:docname="wn.svg">
  <defs
     id="defs2998" />
  <sodipodi:namedview
     id="base"
     pagecolor="#ffffff"
     bordercolor="#666666"
     borderopacity="1.0"
     inkscape:pageopacity="0.0"
     inkscape:pageshadow="2"
     inkscape:zoom="7.7781746"
     inkscape:cx="22.538834"
     inkscape:cy="40.689171"
     inkscape:current-layer="layer1"
     showgrid="true"
     inkscape:document-units="px"
     inkscape:grid-bbox="true"
     inkscape:window-width="1365"
     inkscape:window-height="878"
     inkscape:window-x="-8"
     inkscape:window-y="-8"
     inkscape:window-maximized="1" />
  <metadata
     id="metadata3001">
    <rdf:RDF>
      <cc:Work
         rdf:about="">
        <dc:format>image/svg+xml</dc:format>
        <dc:type
           rdf:resource="http://purl.org/dc/dcmitype/StillImage" />
        <dc:title></dc:title>
      </cc:Work>
    </rdf:RDF>
  </metadata>
  <g
     id="layer1"
     inkscape:label="Layer 1"
     inkscape:groupmode="layer">
    <path
       style="fill:#000000"
       d="m 12.51878,54.850136 c -0.518762,-1.351872 0.215511,-4.688596 1.29661,-5.892131 0.542305,-0.60372 2.269642,-1.921129 3.838525,-2.927574 1.568884,-1.006445 3.151956,-2.39992 3.517938,-3.096611 0.365981,-0.696691 1.619224,-2.414809 2.784984,-3.81804 1.90447,-2.292421 2.119563,-2.864512 2.119563,-5.6375 0,-3.077118 -0.005,-3.086171 -1.686158,-3.086171 -5.117926,0 -5.600763,-3.978122 -0.743611,-6.126671 l 2.426154,-1.073204 -1.091348,-1.171424 c -2.567255,-2.755625 -2.068011,-7.715727 1.094963,-10.878701 3.670545,-3.6705454 8.429454,-3.6705454 12.099999,0 3.162974,3.162974 3.662218,8.123076 1.094963,10.878701 l -1.091348,1.171424 2.426154,1.073204 c 2.803463,1.240105 3.938901,2.853546 3.104861,4.411964 -0.660994,1.235079 -1.760163,1.714707 -3.929613,1.714707 -1.582664,0 -1.605017,0.04298 -1.605017,3.086171 0,2.772988 0.215093,3.345079 2.119563,5.6375 1.16576,1.403231 2.419003,3.121349 2.784984,3.81804 0.365982,0.696691 1.949054,2.090166 3.517938,3.096611 4.171895,2.676289 4.98047,3.770953 5.019268,6.795183 l 0.03325,2.591495 -19.402056,0.144551 C 15.110508,55.689354 12.808969,55.606375 12.51878,54.850136 z m 36.657619,-2.980037 c 0,-1.193011 -0.486496,-1.993079 -1.839415,-3.025 l -1.839415,-1.40299 -13.37117,0 -13.371169,0 -1.839415,1.40299 c -1.352919,1.031921 -1.839415,1.831989 -1.839415,3.025 l 0,1.62201 17.049999,0 17.05,0 0,-1.62201 z m -7.502129,-7.59049 c -0.829461,-1.134375 -2.173608,-2.805 -2.986993,-3.7125 -2.254305,-2.515142 -2.710878,-3.759589 -2.710878,-7.388842 l 0,-3.336158 -3.85,0 -3.85,0 0,3.336158 c 0,3.629253 -0.456572,4.8737 -2.710877,7.388842 -0.813385,0.9075 -2.157533,2.578125 -2.986993,3.7125 l -1.50811,2.0625 11.05598,0 11.055981,0 -1.50811,-2.0625 z m 0.07713,-16.9125 c 0,-2.014682 -3.169824,-3.023187 -9.505165,-3.024145 -7.210932,-0.0011 -10.699561,1.284496 -9.805829,3.613524 0.261134,0.680504 1.84695,0.78737 9.811236,0.661162 9.082912,-0.143935 9.499758,-0.198808 9.499758,-1.250541 z m -5.74976,-4.829991 c 5.011634,-3.949279 2.417632,-11.945009 -3.87524,-11.945009 -4.967216,0 -8.379076,5.973965 -5.662739,9.915122 1.549873,2.248726 2.496152,2.699894 5.662739,2.699894 1.66375,0 3.407608,-0.301503 3.87524,-0.670007 z"
       id="path3248"
       inkscape:connector-curvature="0" />
    <path
       style="fill:#ffffff"
       d="m 15.162034,52.308635 c 0.0046,-1.713738 0.369528,-2.295793 2.42972,-3.874968 l 1.276363,-0.978356 13.261685,0 13.261683,0 0.793766,0.602633 c 2.500282,1.898233 2.915085,2.502106 2.915085,4.243793 l 0,1.067558 -16.970562,0 -16.970563,0 0.0028,-1.06066 z"
       id="path3250"
       inkscape:connector-curvature="0" />
    <path
       style="fill:#ffffff"
       d="m 21.971731,45.237567 c 0.738479,-1.008628 2.467658,-3.18696 4.311865,-5.431865 1.647234,-2.005136 1.937087,-3.009312 2.068879,-7.167492 l 0.08863,-2.796286 3.708526,0 3.708526,0 0.0038,1.639202 c 0.0056,2.428255 0.207276,4.748634 0.48569,5.586861 0.327602,0.986321 0.879155,1.86796 2.03462,3.252273 1.615019,1.934885 2.786537,3.408884 3.754946,4.72446 l 0.922722,1.253507 -10.932363,0 -10.932362,0 0.776573,-1.06066 -4e-6,0 z"
       id="path3252"
       inkscape:connector-curvature="0" />
    <path
       style="fill:#ffffff"
       d="m 23.901622,28.482732 c -0.894135,-0.162121 -1.250414,-0.325404 -1.393038,-0.638429 -0.480825,-1.055297 0.406741,-2.072716 2.292122,-2.627463 1.714202,-0.50438 3.085344,-0.664819 6.300549,-0.737236 4.513581,-0.101659 7.284319,0.208359 8.9544,1.001909 1.038143,0.493282 1.587919,1.113238 1.587919,1.790624 0,0.671587 -0.283168,0.845413 -1.671343,1.025979 -1.070799,0.139284 -15.412002,0.304032 -16.070609,0.184616 z"
       id="path3254"
       inkscape:connector-curvature="0" />
    <path
       style="fill:#ffffff"
       d="m 30.096087,23.012749 c -1.13012,-0.187996 -1.892326,-0.592586 -2.628135,-1.395054 -2.097728,-2.287767 -2.436759,-4.685468 -1.039417,-7.35098 0.506139,-0.965491 1.662073,-2.180652 2.582334,-2.714649 2.570073,-1.491326 5.710621,-1.030242 7.736952,1.135912 1.937894,2.071615 2.343576,4.92736 1.067079,7.511581 -0.486808,0.985524 -1.871668,2.382125 -2.535287,2.55678 -1.44732,0.380914 -3.75027,0.494832 -5.183526,0.25641 z"
       id="path3256"
       inkscape:connector-curvature="0" />
  </g>
</svg>
