<?xml version="1.0" encoding="UTF-8" standalone="no"?>
<!-- Created with Inkscape (http://www.inkscape.org/) -->

<svg
   xmlns:dc="http://purl.org/dc/elements/1.1/"
   xmlns:cc="http://creativecommons.org/ns#"
   xmlns:rdf="http://www.w3.org/1999/02/22-rdf-syntax-ns#"
   xmlns:svg="http://www.w3.org/2000/svg"
   xmlns="http://www.w3.org/2000/svg"
   xmlns:sodipodi="http://sodipodi.sourceforge.net/DTD/sodipodi-0.dtd"
   xmlns:inkscape="http://www.inkscape.org/namespaces/inkscape"
   width="64px"
   height="64px"
   id="svg2996"
   version="1.1"
   inkscape:version="0.48.1 "
   sodipodi:docname="wp.svg">
  <defs
     id="defs2998" />
  <sodipodi:namedview
     id="base"
     pagecolor="#ffffff"
     bordercolor="#666666"
     borderopacity="1.0"
     inkscape:pageopacity="0.0"
     inkscape:pageshadow="2"
     inkscape:zoom="7.7781746"
     inkscape:cx="22.538834"
     inkscape:cy="40.689171"
     inkscape:current-layer="layer1"
     showgrid="true"
     inkscape:document-units="px"
     inkscape:grid-bbox="true"
     inkscape:window-width="1365"
     inkscape:window-height="878"
     inkscape:window-x="-8"
     inkscape:window-y="-8"
     inkscape:window-maximized="1" />
  <metadata
     id="metadata3001">
    <rdf:RDF>
      <cc:Work
         rdf:about="">
        <dc:format>image/svg+xml</dc:format>
        <dc:type
           rdf:resource="http://purl.org/dc/dcmitype/StillImage" />
        <dc:title></dc:title>
      </cc:Work>
    </rdf:RDF>
  </metadata>
  <g
     id="layer1"
     inkscape:label="Layer 1"
     inkscape:groupmode="layer">
    <path
       style="fill:#000000"
       d="m 12.84691,57.933671 c -0.334632,-0.40321 -0.673308,-4.133992 -0.786368,-8.6625 l -0.19859,-7.95427 -2.6358353,-6.6 C 7.7764077,31.086901 6.3079731,28.014569 5.962929,27.889497 4.3882207,27.318694 2.2999994,24.53949 2.2999994,23.014521 c 0,-2.237939 2.2220995,-4.52262 4.3987383,-4.52262 2.308502,0 4.3963833,2.133089 4.4168613,4.5125 0.0138,1.603684 0.36643,2.024875 3.060775,3.655892 1.674846,1.013865 3.11066,1.756365 3.190698,1.65 0.08004,-0.106366 0.811738,-3.389298 1.626003,-7.295406 l 1.480482,-7.102014 -1.111779,-1.183434 c -1.3422,-1.428707 -1.467863,-4.4843997 -0.255591,-6.2151595 0.665181,-0.949679 1.398546,-1.2223783 3.287321,-1.2223783 3.284849,0 4.397767,1.5843437 3.923836,5.5859508 -0.309102,2.609875 -0.141722,3.153999 2.447902,7.957738 1.528829,2.835971 2.984468,5.156311 3.234754,5.156311 0.250285,0 1.705924,-2.32034 3.234754,-5.156311 2.589624,-4.803739 2.757003,-5.347863 2.447902,-7.957738 -0.473931,-4.0016071 0.638986,-5.5859508 3.923836,-5.5859508 1.888774,0 2.622139,0.2726993 3.28732,1.2223783 1.212272,1.7307598 1.08661,4.7864525 -0.255591,6.2151595 l -1.111778,1.183434 1.480481,7.102014 c 0.814265,3.906108 1.545967,7.18904 1.626004,7.295406 0.08004,0.106365 1.515851,-0.636135 3.190698,-1.65 2.694344,-1.631017 3.046971,-2.052208 3.060776,-3.655892 0.02048,-2.379411 2.10836,-4.5125 4.416859,-4.5125 2.176641,0 4.39874,2.284681 4.39874,4.52262 0,1.524969 -2.088223,4.304173 -3.662928,4.874976 -0.345048,0.125072 -1.813482,3.197404 -3.263189,6.827404 l -2.635838,6.6 -0.198588,7.95427 c -0.113058,4.528508 -0.451736,8.25929 -0.786369,8.6625 -0.856957,1.03257 -37.449221,1.03257 -38.306179,0 z m 36.75253,-3.00427 c -4.59e-4,-1.24212 -0.492062,-1.788556 -2.75,-3.056727 C 45.337248,51.023349 44.1,50.132219 44.1,49.892385 c 0,-0.239833 1.25394,-1.215553 2.786533,-2.168265 2.390237,-1.485853 2.761782,-1.94731 2.6125,-3.244711 L 49.325,42.966901 l -17.325,0 -17.325,0 -0.174033,1.512508 c -0.149283,1.297401 0.222262,1.758858 2.6125,3.244711 C 18.64606,48.676832 19.9,49.652552 19.9,49.892385 c 0,0.239834 -1.237248,1.130964 -2.749441,1.980289 -2.257937,1.268171 -2.749541,1.814607 -2.75,3.056727 l -5.5e-4,1.5125 17.6,0 17.6,0 -5.5e-4,-1.5125 z M 29.122627,51.842518 c -1.431304,-0.949089 -2.60144,-1.849367 -2.600301,-2.000617 0.0012,-0.15125 1.234082,-1.060885 2.739872,-2.021411 L 32,46.07408 l 2.737801,1.74641 c 1.505791,0.960526 2.743291,1.871963 2.75,2.025416 0.01085,0.248156 -4.796707,3.438154 -5.487801,3.641368 -0.15125,0.04449 -1.446068,-0.695668 -2.877373,-1.644756 z M 49.99821,40.904401 c 0.622431,-0.803007 4.405821,-10.562716 5.176041,-13.352219 0.402864,-1.459043 0.82016,-1.910281 1.7666,-1.910281 1.552128,0 2.55915,-0.973911 2.55915,-2.475 0,-1.497604 -1.006197,-2.475 -2.547935,-2.475 -1.414017,0 -2.124612,1.58922 -1.616247,3.614695 0.222321,0.885807 0.100183,1.33947 -0.36284,1.347679 -0.383889,0.0068 -2.677979,1.352013 -5.097979,2.989348 -3.747611,2.535577 -4.455721,2.83955 -4.775803,2.050126 -0.206691,-0.509767 -0.901559,-4.055695 -1.544151,-7.87984 -0.642591,-3.824146 -1.367066,-7.660396 -1.609944,-8.525 -0.367716,-1.309014 -0.210428,-1.763116 0.940165,-2.714325 2.535813,-2.0963878 0.273183,-5.6392384 -2.614492,-4.0938011 -1.428135,0.7643141 -1.46815,3.0848581 -0.06827,3.9590971 1.016079,0.634552 0.996424,0.753681 -0.56794,3.442161 -0.891245,1.531673 -2.872825,5.197985 -4.403511,8.14736 -1.530687,2.949375 -2.984661,5.3625 -3.231054,5.3625 -0.246394,0 -1.700368,-2.413125 -3.231055,-5.3625 -1.530686,-2.949375 -3.512266,-6.615687 -4.403511,-8.14736 -1.564364,-2.68848 -1.584019,-2.807609 -0.56794,-3.442161 1.39988,-0.874239 1.359865,-3.194783 -0.06827,-3.9590971 -1.582172,-0.8467525 -3.21391,-0.1656204 -3.636461,1.5179585 -0.281277,1.1207006 -0.05826,1.6828016 1.021968,2.5758426 1.150593,0.951209 1.307882,1.405311 0.940165,2.714325 -0.242877,0.864604 -0.967352,4.700854 -1.609944,8.525 -0.642592,3.824145 -1.337459,7.370073 -1.544151,7.87984 -0.320082,0.789424 -1.028192,0.485451 -4.775802,-2.050126 -2.42,-1.637335 -4.7140903,-2.982542 -5.0979793,-2.989348 -0.4630212,-0.0082 -0.5851619,-0.461872 -0.3628382,-1.347679 0.7334032,-2.922111 -1.5833246,-4.875553 -3.5041831,-2.954695 -1.5748816,1.574882 -0.3729209,4.29 1.8991478,4.29 0.9464422,0 1.3637404,0.451238 1.7666015,1.910281 0.77022,2.789503 4.5536093,12.549212 5.1760413,13.352219 0.40646,0.524379 4.676841,0.6875 17.99821,0.6875 13.321369,0 17.59175,-0.163121 17.99821,-0.6875 z"
       id="path3269"
       inkscape:connector-curvature="0" />
    <path
       style="fill:#ffffff"
       d="m 14.516386,55.252498 c 0,-1.627703 0.0093,-1.637315 4.057455,-4.19737 1.262509,-0.79841 1.514647,-1.13921 1.145016,-1.547648 -0.130928,-0.144674 -1.179572,-0.900854 -2.33032,-1.680401 -1.150748,-0.779547 -2.236513,-1.588783 -2.412811,-1.798302 -0.400548,-0.476023 -0.490285,-0.97894 -0.364848,-2.044717 l 0.09836,-0.835672 17.291975,0 17.291975,0 0.09836,0.835672 c 0.125437,1.065777 0.0357,1.568694 -0.364848,2.044717 -0.176299,0.209519 -1.262064,1.018755 -2.412812,1.798302 -2.26543,1.534662 -2.573795,1.800288 -2.504951,2.15777 0.02484,0.128975 0.56506,0.570898 1.200495,0.982049 4.328167,2.800502 4.176607,2.644986 4.176607,4.2856 l 0,1.073789 -17.484822,0 -17.484823,0 0,-1.073789 z m 18.374381,-2.158234 c 1.675333,-0.942378 4.638731,-3.015429 4.638731,-3.245034 0,-0.08551 -0.274807,-0.363696 -0.610683,-0.618183 -0.886479,-0.67167 -4.768643,-3.189949 -4.917606,-3.189949 -0.148963,0 -4.031127,2.518279 -4.917607,3.189949 -0.335875,0.254487 -0.610683,0.537183 -0.610683,0.628214 0,0.356277 4.906406,3.638599 5.438968,3.638599 0.143759,0 0.584254,-0.181618 0.97888,-0.403596 z"
       id="path3271"
       inkscape:connector-curvature="0" />
    <path
       style="fill:#ffffff"
       d="M 19.594699,41.419616 C 16.403242,41.323994 15.393448,41.244092 14.502065,41.016655 14.080853,40.909183 13.995294,40.805275 13.580103,39.896983 12.540387,37.622452 9.9926611,30.947171 9.0344908,27.987052 8.4067732,26.047815 8.0994998,25.677103 7.0164098,25.552316 6.6037333,25.50477 6.1060973,25.383135 5.9105519,25.282014 5.1593967,24.893577 4.4916285,23.817686 4.4890437,22.991715 c -0.00118,-0.377401 0.3754637,-1.160719 0.7453511,-1.550127 0.4705261,-0.495356 0.95077,-0.72777 1.5038171,-0.72777 0.6620186,0 1.1635671,0.305558 1.5311366,0.932812 0.4278752,0.730165 0.520802,1.425343 0.3365506,2.51771 -0.084284,0.499694 -0.119942,1.012514 -0.079239,1.139599 0.041079,0.128256 0.5177042,0.441282 1.0712517,0.703548 0.9717562,0.460409 1.8618292,1.004286 5.4327342,3.319657 2.119299,1.374153 3.000461,1.827753 3.449676,1.775807 0.290361,-0.03358 0.376845,-0.145361 0.563647,-0.728555 0.121364,-0.378891 0.659524,-3.126965 1.195911,-6.106831 0.536388,-2.979865 1.203854,-6.575021 1.483259,-7.989235 0.710218,-3.594781 0.721897,-3.472935 -0.448079,-4.67524 -1.073691,-1.103359 -1.281503,-1.508292 -1.1606,-2.2614942 0.262809,-1.6372615 1.7788,-2.5399439 3.240185,-1.9293381 0.929931,0.3885496 1.355098,1.0334414 1.355098,2.055401 0,0.8418893 -0.158938,1.1414533 -1.026006,1.9337893 -0.644049,0.588537 -0.704614,0.688896 -0.627534,1.03984 0.04692,0.213638 0.751311,1.592333 1.565306,3.063767 0.813996,1.471433 2.393709,4.387976 3.510471,6.481205 2.182464,4.090751 2.968174,5.459539 3.499264,6.096087 0.295483,0.354157 0.363494,0.382218 0.550411,0.22709 0.378392,-0.314037 1.554037,-2.332234 3.685259,-6.326384 1.145954,-2.147648 2.663581,-4.94619 3.372505,-6.218982 1.527569,-2.742581 1.802086,-3.333154 1.69954,-3.656247 -0.0423,-0.13327 -0.335867,-0.454509 -0.652377,-0.713864 -0.729375,-0.597669 -0.993908,-1.111231 -0.993908,-1.9295676 0,-1.4462979 1.091982,-2.3665053 2.632595,-2.218472 1.364042,0.1310672 2.263135,1.4629465 1.899412,2.8137096 -0.103162,0.383112 -0.414618,0.818858 -1.098269,1.536543 -0.916223,0.961833 -0.954247,1.026452 -0.953612,1.620601 3.85e-4,0.340353 0.141775,1.284147 0.314249,2.09732 0.172474,0.813173 0.842919,4.400133 1.489878,7.971022 0.646959,3.570889 1.272116,6.781797 1.389235,7.13535 0.366559,1.106542 0.811543,0.977313 4.198457,-1.219287 3.392852,-2.200454 4.782992,-3.042272 5.513427,-3.338734 0.409689,-0.16628 0.745328,-0.391351 0.789053,-0.529119 0.04185,-0.131862 0.01495,-0.570497 -0.05978,-0.974745 -0.464712,-2.513858 0.388738,-3.90284 2.154877,-3.50704 1.157768,0.259461 1.823328,1.100486 1.823328,2.304017 0,1.512953 -0.995084,2.440673 -2.620399,2.443008 -0.792799,0.0012 -1.199308,0.541392 -1.797201,2.388486 -0.958169,2.960119 -3.505895,9.6354 -4.545611,11.909931 -0.537773,1.176456 -0.547171,1.180998 -2.880648,1.392169 -1.797079,0.162631 -23.493053,0.263912 -27.946968,0.130464 l 0,0 z"
       id="path3273"
       inkscape:connector-curvature="0" />
  </g>
</svg>
