<?xml version="1.0" encoding="UTF-8" standalone="no"?>
<!-- Created with Inkscape (http://www.inkscape.org/) -->
<svg
   xmlns:dc="http://purl.org/dc/elements/1.1/"
   xmlns:cc="http://web.resource.org/cc/"
   xmlns:rdf="http://www.w3.org/1999/02/22-rdf-syntax-ns#"
   xmlns:svg="http://www.w3.org/2000/svg"
   xmlns="http://www.w3.org/2000/svg"
   xmlns:xlink="http://www.w3.org/1999/xlink"
   xmlns:sodipodi="http://inkscape.sourceforge.net/DTD/sodipodi-0.dtd"
   xmlns:inkscape="http://www.inkscape.org/namespaces/inkscape"
   width="700pt"
   height="700pt"
   id="svg36220"
   sodipodi:version="0.32"
   inkscape:version="0.42+0.43pre2"
   version="1.0"
   inkscape:export-filename="/home/maurizio/out/wb.png"
   inkscape:export-xdpi="90"
   inkscape:export-ydpi="90"
   sodipodi:docbase="/home/monge/chess_pieces/chess_set"
   sodipodi:docname="bb.svg">
  <defs
     id="defs36222">
    <linearGradient
       id="linearGradient2507">
      <stop
         style="stop-color:#000000;stop-opacity:1"
         offset="0"
         id="stop2509" />
      <stop
         style="stop-color:#505070;stop-opacity:1"
         offset="1"
         id="stop2511" />
    </linearGradient>
    <linearGradient
       inkscape:collect="always"
       xlink:href="#linearGradient2507"
       id="linearGradient7567"
       gradientUnits="userSpaceOnUse"
       x1="500.21057"
       y1="376.73962"
       x2="216.33333"
       y2="486.99237"
       gradientTransform="matrix(-1.04121,0,0,0.973953,875.2446,-39.19881)" />
    <linearGradient
       inkscape:collect="always"
       xlink:href="#linearGradient2507"
       id="linearGradient7571"
       gradientUnits="userSpaceOnUse"
       gradientTransform="matrix(1.04121,0,0,0.973953,7.697545,65.74496)"
       x1="193.54391"
       y1="362.5"
       x2="628"
       y2="362.5" />
    <linearGradient
       inkscape:collect="always"
       xlink:href="#linearGradient2507"
       id="linearGradient3723"
       gradientUnits="userSpaceOnUse"
       gradientTransform="matrix(0.334479,-2.579055e-2,4.206458e-2,0.552791,497.0202,189.453)"
       x1="-685.27356"
       y1="274.73871"
       x2="-199.66586"
       y2="439.2937" />
    <linearGradient
       inkscape:collect="always"
       xlink:href="#linearGradient2507"
       id="linearGradient3939"
       gradientUnits="userSpaceOnUse"
       gradientTransform="matrix(1.04121,0,0,0.973953,-2.714557,-29.45928)"
       x1="193.54391"
       y1="362.5"
       x2="641.33331"
       y2="550.2157" />
    <linearGradient
       inkscape:collect="always"
       xlink:href="#linearGradient2507"
       id="linearGradient4955"
       gradientUnits="userSpaceOnUse"
       gradientTransform="matrix(0.933725,0.000000,0.000000,0.884302,19.44835,103.3473)"
       x1="470.95712"
       y1="633.10419"
       x2="616.90588"
       y2="694.43842" />
    <linearGradient
       inkscape:collect="always"
       xlink:href="#linearGradient2507"
       id="linearGradient4957"
       gradientUnits="userSpaceOnUse"
       gradientTransform="matrix(0.933725,0.000000,0.000000,0.884302,22.53548,102.3567)"
       x1="300.95712"
       y1="606.8822"
       x2="470.23923"
       y2="701.10504" />
  </defs>
  <sodipodi:namedview
     id="base"
     pagecolor="#ffffff"
     bordercolor="#666666"
     borderopacity="1.0"
     inkscape:pageopacity="0.0"
     inkscape:pageshadow="2"
     inkscape:zoom="0.29999999"
     inkscape:cx="449.28046"
     inkscape:cy="250.48423"
     inkscape:current-layer="layer1"
     inkscape:document-units="px"
     inkscape:window-width="1268"
     inkscape:window-height="931"
     inkscape:window-x="3"
     inkscape:window-y="16" />
  <metadata
     id="metadata36225">
    <rdf:RDF>
      <cc:Work
         rdf:about="">
        <dc:format>image/svg+xml</dc:format>
        <dc:type
           rdf:resource="http://purl.org/dc/dcmitype/StillImage" />
        <dc:creator>
          <cc:Agent>
            <dc:title>Maurizio Monge</dc:title>
          </cc:Agent>
        </dc:creator>
        <dc:rights>
          <cc:Agent>
            <dc:title>Maurizio Monge</dc:title>
          </cc:Agent>
        </dc:rights>
        <cc:license
           rdf:resource="http://creativecommons.org/licenses/GPL/2.0/" />
      </cc:Work>
      <cc:License
         rdf:about="http://creativecommons.org/licenses/GPL/2.0/">
        <cc:permits
           rdf:resource="http://web.resource.org/cc/Reproduction" />
        <cc:permits
           rdf:resource="http://web.resource.org/cc/Distribution" />
        <cc:requires
           rdf:resource="http://web.resource.org/cc/Notice" />
        <cc:permits
           rdf:resource="http://web.resource.org/cc/DerivativeWorks" />
        <cc:requires
           rdf:resource="http://web.resource.org/cc/ShareAlike" />
        <cc:requires
           rdf:resource="http://web.resource.org/cc/SourceCode" />
      </cc:License>
    </rdf:RDF>
  </metadata>
  <g
     id="layer1"
     inkscape:label="Layer 1"
     inkscape:groupmode="layer">
    <path
       style="opacity:0.98999999;fill:url(#linearGradient4955);fill-opacity:1;fill-rule:evenodd;stroke:#808080;stroke-width:16;stroke-linecap:round;stroke-linejoin:round;stroke-miterlimit:4;stroke-dasharray:none;stroke-dashoffset:0;stroke-opacity:1"
       d="M 559.49215,670.27775 C 523.61062,688.45037 490.16116,710.078 446.48212,717.17347 C 441.55657,727.9428 438.80806,739.85372 438.80806,752.37977 C 438.80806,800.51829 479.20895,839.5942 529.00016,839.59418 C 578.7914,839.59418 619.22144,800.5183 619.22143,752.37977 C 619.22143,714.58352 594.29666,682.3713 559.49215,670.27775 z "
       id="path1345"
       sodipodi:nodetypes="ccsssc" />
    <path
       style="opacity:0.98999999;fill:url(#linearGradient4957);fill-opacity:1;fill-rule:evenodd;stroke:#808080;stroke-width:16;stroke-linecap:round;stroke-linejoin:round;stroke-miterlimit:4;stroke-dasharray:none;stroke-dashoffset:0;stroke-opacity:1"
       d="M 313.79966,674.0127 C 278.84574,686.02888 253.77859,718.29798 253.77859,756.19762 C 253.77859,804.33614 294.20861,843.41201 343.99985,843.41203 C 393.79111,843.41203 434.19196,804.33617 434.19195,756.19762 C 434.19195,741.58277 430.44377,727.81654 423.86261,715.71313 C 384.09394,710.5668 349.71989,690.09325 313.79966,674.0127 z "
       id="path5795"
       sodipodi:nodetypes="cssscc" />
    <path
       sodipodi:type="arc"
       style="opacity:0.98999999;fill:#808080;fill-opacity:1;fill-rule:evenodd;stroke:#808080;stroke-width:19.93559612;stroke-linecap:round;stroke-linejoin:round;stroke-miterlimit:4;stroke-dasharray:none;stroke-dashoffset:0;stroke-opacity:1"
       id="path2231"
       sodipodi:cx="398.85242"
       sodipodi:cy="340.25049"
       sodipodi:rx="23.201941"
       sodipodi:ry="22.097088"
       d="M 422.05436 340.25049 A 23.201941 22.097088 0 1 1  375.65048,340.25049 A 23.201941 22.097088 0 1 1  422.05436 340.25049 z"
       transform="matrix(0.815452,0.000000,0.000000,0.789920,190.9798,498.2442)" />
    <path
       transform="matrix(0.815452,0.000000,0.000000,0.789920,30.24078,498.0572)"
       d="M 422.05436 340.25049 A 23.201941 22.097088 0 1 1  375.65048,340.25049 A 23.201941 22.097088 0 1 1  422.05436 340.25049 z"
       sodipodi:ry="22.097088"
       sodipodi:rx="23.201941"
       sodipodi:cy="340.25049"
       sodipodi:cx="398.85242"
       id="path5797"
       style="opacity:0.98999999;fill:#808080;fill-opacity:1;fill-rule:evenodd;stroke:#808080;stroke-width:19.93559612;stroke-linecap:round;stroke-linejoin:round;stroke-miterlimit:4;stroke-dasharray:none;stroke-dashoffset:0;stroke-opacity:1"
       sodipodi:type="arc" />
    <path
       sodipodi:nodetypes="cccc"
       id="path7569"
       d="M 276.67683,692.32105 C 257.74043,547.0919 228.41348,546.14866 406.8281,312.47958 C 655.57395,485.729 580.06985,543.44676 596.11863,691.35257 C 444.05948,673.75067 406.32918,677.09437 276.67683,692.32105 z "
       style="fill:url(#linearGradient7571);fill-opacity:1;fill-rule:evenodd;stroke:#808080;stroke-width:16;stroke-linecap:round;stroke-linejoin:round;stroke-miterlimit:4;stroke-dasharray:none;stroke-opacity:1" />
    <path
       sodipodi:nodetypes="cccc"
       id="path7565"
       d="M 621.67317,587.23513 C 700.59577,394.27005 665.63664,221.48356 530.45452,58.338611 C 444.57947,120.3052 284.04014,373.00491 273.07829,537.05642 C 415.13158,509.16578 480.84586,552.20656 621.67317,587.23513 z "
       style="fill:url(#linearGradient7567);fill-opacity:1;fill-rule:evenodd;stroke:#808080;stroke-width:16;stroke-linecap:round;stroke-linejoin:round;stroke-miterlimit:4;stroke-dasharray:none;stroke-opacity:1" />
    <path
       style="fill:url(#linearGradient3939);fill-opacity:1;fill-rule:evenodd;stroke:#808080;stroke-width:16;stroke-linecap:round;stroke-linejoin:round;stroke-miterlimit:4;stroke-dasharray:none;stroke-opacity:1"
       d="M 254.86075,621.30809 C 146.19053,485.5834 225.23725,228.22267 350.60275,48.456921 C 552.15078,233.6502 664.90633,437.6458 616.91734,621.00158 C 474.86405,593.11094 395.68806,586.27953 254.86075,621.30809 z "
       id="path5801"
       sodipodi:nodetypes="cccc" />
    <path
       style="opacity:0.98999999;fill:url(#linearGradient3723);fill-opacity:1;fill-rule:evenodd;stroke:#808080;stroke-width:16;stroke-linecap:round;stroke-linejoin:round;stroke-miterlimit:4;stroke-dasharray:none;stroke-dashoffset:0;stroke-opacity:1"
       d="M 390.12641,318.79018 C 374.45893,318.35446 360.83241,333.59484 362.04216,349.14999 C 361.8685,358.10593 361.47872,367.05567 361.14062,376.00633 C 350.63616,375.35699 339.95563,372.91686 329.49397,374.88342 C 315.62767,378.58021 305.34556,393.86903 308.77753,408.22338 C 311.3451,421.37253 324.14384,431.46267 337.43736,430.94757 C 346.63398,431.42784 355.80547,432.28282 364.97743,433.09583 C 367.27838,456.11775 371.66781,478.91421 377.47329,501.28665 C 379.8139,516.01085 394.80607,527.93461 409.67739,525.25157 C 424.75271,523.18526 436.47165,507.24804 433.40065,492.10589 C 432.08505,484.54004 429.38165,477.28796 428.13009,469.69984 C 425.39925,457.05729 423.07218,444.29291 421.79585,431.42853 C 433.0355,430.30376 444.89839,431.28088 455.43612,426.54267 C 467.39877,420.39488 474.34402,405.00124 469.45783,392.07534 C 465.23752,379.53136 451.73254,371.26776 438.71651,372.85927 C 431.61259,373.13934 424.55298,374.03489 417.46633,374.56062 C 417.63084,371.19817 417.25914,367.74748 417.54374,364.34651 C 417.68366,357.0015 418.73989,349.62606 418.23701,342.2978 C 415.62018,329.33624 403.61382,318.25077 390.12641,318.79018 z "
       id="rect3643" />
    <path
       style="fill:none;fill-opacity:0.75;fill-rule:evenodd;stroke:#808080;stroke-width:16;stroke-linecap:round;stroke-linejoin:round;stroke-miterlimit:4;stroke-dasharray:none;stroke-opacity:1"
       d="M 405.55619,627.27168 C 393.29953,659.41276 465.89491,668.34934 459.43574,627.7585"
       id="path3941"
       sodipodi:nodetypes="cc" />
  </g>
</svg>
