<?xml version="1.0" encoding="UTF-8" standalone="no"?>
<!-- Created with Inkscape (http://www.inkscape.org/) -->
<svg
   xmlns:dc="http://purl.org/dc/elements/1.1/"
   xmlns:cc="http://web.resource.org/cc/"
   xmlns:rdf="http://www.w3.org/1999/02/22-rdf-syntax-ns#"
   xmlns:svg="http://www.w3.org/2000/svg"
   xmlns="http://www.w3.org/2000/svg"
   xmlns:xlink="http://www.w3.org/1999/xlink"
   xmlns:sodipodi="http://inkscape.sourceforge.net/DTD/sodipodi-0.dtd"
   xmlns:inkscape="http://www.inkscape.org/namespaces/inkscape"
   width="700pt"
   height="700pt"
   id="svg36220"
   sodipodi:version="0.32"
   inkscape:version="0.43"
   version="1.0"
   inkscape:export-filename="/home/maurizio/out/wq.png"
   inkscape:export-xdpi="90"
   inkscape:export-ydpi="90"
   sodipodi:docbase="/home/monge/chess_pieces/chess_set"
   sodipodi:docname="wq.svg">
  <defs
     id="defs36222">
    <linearGradient
       inkscape:collect="always"
       xlink:href="#linearGradient2507"
       id="linearGradient2229"
       x1="460.95712"
       y1="666.4375"
       x2="617.15698"
       y2="756.83856"
       gradientUnits="userSpaceOnUse"
       gradientTransform="translate(0,-3.333333)" />
    <linearGradient
       id="linearGradient2507">
      <stop
         style="stop-color:#ffffff;stop-opacity:1"
         offset="0"
         id="stop2509" />
      <stop
         style="stop-color:#d0b090;stop-opacity:1"
         offset="1"
         id="stop2511" />
    </linearGradient>
    <linearGradient
       inkscape:collect="always"
       xlink:href="#linearGradient2507"
       id="linearGradient5799"
       gradientUnits="userSpaceOnUse"
       x1="290.95712"
       y1="590.21552"
       x2="448.875"
       y2="663.43127"
       gradientTransform="translate(0,-3.333333)" />
    <linearGradient
       inkscape:collect="always"
       xlink:href="#linearGradient2507"
       id="linearGradient9438"
       x1="32"
       y1="385"
       x2="733.7486"
       y2="624.01056"
       gradientUnits="userSpaceOnUse"
       gradientTransform="matrix(0.843809,0,0,0.941381,63.33365,40.14039)" />
    <linearGradient
       inkscape:collect="always"
       xlink:href="#linearGradient2507"
       id="linearGradient10327"
       x1="31.999996"
       y1="245.83333"
       x2="128.88431"
       y2="288.96759"
       gradientUnits="userSpaceOnUse" />
    <linearGradient
       inkscape:collect="always"
       xlink:href="#linearGradient2507"
       id="linearGradient1334"
       gradientUnits="userSpaceOnUse"
       x1="31.999996"
       y1="245.83333"
       x2="127.46282"
       y2="290.53751" />
    <linearGradient
       inkscape:collect="always"
       xlink:href="#linearGradient2507"
       id="linearGradient1338"
       gradientUnits="userSpaceOnUse"
       x1="31.999996"
       y1="245.83333"
       x2="126.04134"
       y2="285.82776" />
    <linearGradient
       inkscape:collect="always"
       xlink:href="#linearGradient2507"
       id="linearGradient1342"
       gradientUnits="userSpaceOnUse"
       x1="31.999996"
       y1="245.83333"
       x2="120.35538"
       y2="290.53751" />
  </defs>
  <sodipodi:namedview
     id="base"
     pagecolor="#ffffff"
     bordercolor="#666666"
     borderopacity="1.0"
     inkscape:pageopacity="0.0"
     inkscape:pageshadow="2"
     inkscape:zoom="0.42426405"
     inkscape:cx="334.06899"
     inkscape:cy="493.17638"
     inkscape:current-layer="layer1"
     inkscape:document-units="px"
     inkscape:window-width="1076"
     inkscape:window-height="847"
     inkscape:window-x="92"
     inkscape:window-y="41" />
  <metadata
     id="metadata36225">
    <rdf:RDF>
      <cc:Work
         rdf:about="">
        <dc:format>image/svg+xml</dc:format>
        <dc:type
           rdf:resource="http://purl.org/dc/dcmitype/StillImage" />
        <dc:creator>
          <cc:Agent>
            <dc:title>Maurizio Monge</dc:title>
          </cc:Agent>
        </dc:creator>
        <dc:rights>
          <cc:Agent>
            <dc:title>Maurizio Monge</dc:title>
          </cc:Agent>
        </dc:rights>
        <cc:license
           rdf:resource="http://creativecommons.org/licenses/GPL/2.0/" />
      </cc:Work>
      <cc:License
         rdf:about="http://creativecommons.org/licenses/LGPL/2.1/">
        <cc:permits
           rdf:resource="http://web.resource.org/cc/Reproduction" />
        <cc:permits
           rdf:resource="http://web.resource.org/cc/Distribution" />
        <cc:requires
           rdf:resource="http://web.resource.org/cc/Notice" />
        <cc:permits
           rdf:resource="http://web.resource.org/cc/DerivativeWorks" />
        <cc:requires
           rdf:resource="http://web.resource.org/cc/ShareAlike" />
        <cc:requires
           rdf:resource="http://web.resource.org/cc/SourceCode" />
      </cc:License>
    </rdf:RDF>
  </metadata>
  <g
     id="layer1"
     inkscape:label="Layer 1"
     inkscape:groupmode="layer">
    <path
       style="opacity:0.98999999;fill:url(#linearGradient2229);fill-opacity:1;fill-rule:evenodd;stroke:#000000;stroke-width:16;stroke-linecap:round;stroke-linejoin:round;stroke-miterlimit:4;stroke-dasharray:none;stroke-dashoffset:0;stroke-opacity:1"
       d="M 578.375,641.10417 C 538.03125,662.31335 497.6875,687.74489 457.34375,694.13542 C 452.06859,706.31376 449.125,719.78303 449.125,733.94792 C 449.125,788.38458 492.39345,832.57294 545.71875,832.57292 C 599.04408,832.57292 642.34376,788.38459 642.34375,733.94792 C 642.34375,691.20663 615.64986,654.77996 578.375,641.10417 z "
       id="path1345"
       sodipodi:nodetypes="ccsssc" />
    <path
       style="opacity:0.98999999;fill:url(#linearGradient5799);fill-opacity:1;fill-rule:evenodd;stroke:#000000;stroke-width:16;stroke-linecap:round;stroke-linejoin:round;stroke-miterlimit:4;stroke-dasharray:none;stroke-dashoffset:0;stroke-opacity:1"
       d="M 311.9375,646.44792 C 274.50263,660.03621 247.65625,696.5272 247.65625,739.38542 C 247.65625,793.82208 290.95592,838.01039 344.28125,838.01042 C 397.60658,838.01042 440.87501,793.8221 440.875,739.38542 C 440.875,722.85844 436.86078,707.29113 429.8125,693.60417 C 382.09287,679.99241 347.48629,663.10239 311.9375,646.44792 z "
       id="path5795"
       sodipodi:nodetypes="cssscc" />
    <path
       sodipodi:type="arc"
       style="opacity:0.98999999;fill:#000000;fill-opacity:1;fill-rule:evenodd;stroke:#000000;stroke-width:18.75409126;stroke-linecap:round;stroke-linejoin:round;stroke-miterlimit:4;stroke-dasharray:none;stroke-dashoffset:0;stroke-opacity:1"
       id="path2231"
       sodipodi:cx="398.85242"
       sodipodi:cy="340.25049"
       sodipodi:rx="23.201941"
       sodipodi:ry="22.097088"
       d="M 422.05436 340.25049 A 23.201941 22.097088 0 1 1  375.65048,340.25049 A 23.201941 22.097088 0 1 1  422.05436 340.25049 z"
       transform="matrix(0.843572,0,0,0.862831,214.6081,432.3414)" />
    <path
       transform="matrix(0.843572,0,0,0.862831,21.07207,435.6924)"
       d="M 422.05436 340.25049 A 23.201941 22.097088 0 1 1  375.65048,340.25049 A 23.201941 22.097088 0 1 1  422.05436 340.25049 z"
       sodipodi:ry="22.097088"
       sodipodi:rx="23.201941"
       sodipodi:cy="340.25049"
       sodipodi:cx="398.85242"
       id="path5797"
       style="opacity:0.98999999;fill:#000000;fill-opacity:1;fill-rule:evenodd;stroke:#000000;stroke-width:18.75409126;stroke-linecap:round;stroke-linejoin:round;stroke-miterlimit:4;stroke-dasharray:none;stroke-dashoffset:0;stroke-opacity:1"
       sodipodi:type="arc" />
    <path
       style="fill:url(#linearGradient9438);fill-opacity:1;fill-rule:evenodd;stroke:#000000;stroke-width:15.99999905;stroke-linecap:round;stroke-linejoin:round;stroke-miterlimit:4;stroke-dasharray:none;stroke-opacity:1"
       d="M 115.36853,286.46842 C 154.26267,357.29571 222.65663,473.12966 305.7205,496.76729 C 257.46672,399.56579 283.32592,256.16369 302.7874,159.24404 C 342.95699,260.62368 354.03594,361.66618 421.95237,437.12508 C 462.45172,387.99722 515.02406,262.88487 531.6475,156.24405 C 575.42134,263.08653 565.96134,379.84914 555.06041,482.62516 C 642.28648,445.02431 696.82321,375.38993 749.63143,283.33047 C 768.89016,496.25186 636.68087,571.42884 623.06011,656.33113 C 503.05176,645.23012 383.0434,643.94616 263.03505,659.46906 C 263.38381,584.49667 91.193702,560.25082 115.36853,286.46842 z "
       id="path8557"
       sodipodi:nodetypes="cccccccccc" />
    <path
       sodipodi:type="arc"
       style="opacity:0.98999999;fill:url(#linearGradient10327);fill-opacity:1;fill-rule:evenodd;stroke:#000000;stroke-width:14.34101582;stroke-linecap:round;stroke-linejoin:round;stroke-miterlimit:4;stroke-dasharray:none;stroke-dashoffset:0;stroke-opacity:1"
       id="path9446"
       sodipodi:cx="86.666664"
       sodipodi:cy="245.83333"
       sodipodi:rx="46.666668"
       sodipodi:ry="50.833332"
       d="M 133.33333 245.83333 A 46.666668 50.833332 0 1 1  39.999996,245.83333 A 46.666668 50.833332 0 1 1  133.33333 245.83333 z"
       transform="matrix(1.172481,0,0,1.061634,11.6456,17.34841)" />
    <path
       style="fill:none;fill-opacity:0.75;fill-rule:evenodd;stroke:#000000;stroke-width:16;stroke-linecap:round;stroke-linejoin:round;stroke-miterlimit:4;stroke-dasharray:none;stroke-opacity:1"
       d="M 288.33334,603.33333 C 337.35225,591.69817 542.81444,584.13515 598.33335,603.33333"
       id="path1677"
       sodipodi:nodetypes="cc" />
    <path
       transform="matrix(1.172481,0,0,1.061634,203.3123,-97.65163)"
       d="M 133.33333 245.83333 A 46.666668 50.833332 0 1 1  39.999996,245.83333 A 46.666668 50.833332 0 1 1  133.33333 245.83333 z"
       sodipodi:ry="50.833332"
       sodipodi:rx="46.666668"
       sodipodi:cy="245.83333"
       sodipodi:cx="86.666664"
       id="path1332"
       style="opacity:0.98999999;fill:url(#linearGradient1334);fill-opacity:1;fill-rule:evenodd;stroke:#000000;stroke-width:14.34101582;stroke-linecap:round;stroke-linejoin:round;stroke-miterlimit:4;stroke-dasharray:none;stroke-dashoffset:0;stroke-opacity:1"
       sodipodi:type="arc" />
    <path
       sodipodi:type="arc"
       style="opacity:0.98999999;fill:url(#linearGradient1338);fill-opacity:1;fill-rule:evenodd;stroke:#000000;stroke-width:14.34101582;stroke-linecap:round;stroke-linejoin:round;stroke-miterlimit:4;stroke-dasharray:none;stroke-dashoffset:0;stroke-opacity:1"
       id="path1336"
       sodipodi:cx="86.666664"
       sodipodi:cy="245.83333"
       sodipodi:rx="46.666668"
       sodipodi:ry="50.833332"
       d="M 133.33333 245.83333 A 46.666668 50.833332 0 1 1  39.999996,245.83333 A 46.666668 50.833332 0 1 1  133.33333 245.83333 z"
       transform="matrix(1.172481,0,0,1.061634,433.3123,-95.98497)" />
    <path
       transform="matrix(1.172481,0,0,1.061634,649.979,19.01504)"
       d="M 133.33333 245.83333 A 46.666668 50.833332 0 1 1  39.999996,245.83333 A 46.666668 50.833332 0 1 1  133.33333 245.83333 z"
       sodipodi:ry="50.833332"
       sodipodi:rx="46.666668"
       sodipodi:cy="245.83333"
       sodipodi:cx="86.666664"
       id="path1340"
       style="opacity:0.98999999;fill:url(#linearGradient1342);fill-opacity:1;fill-rule:evenodd;stroke:#000000;stroke-width:14.34101582;stroke-linecap:round;stroke-linejoin:round;stroke-miterlimit:4;stroke-dasharray:none;stroke-dashoffset:0;stroke-opacity:1"
       sodipodi:type="arc" />
  </g>
</svg>
