<?xml version="1.0" encoding="UTF-8" standalone="no"?>
<!-- Created with Inkscape (http://www.inkscape.org/) -->

<svg
   xmlns:dc="http://purl.org/dc/elements/1.1/"
   xmlns:cc="http://creativecommons.org/ns#"
   xmlns:rdf="http://www.w3.org/1999/02/22-rdf-syntax-ns#"
   xmlns:svg="http://www.w3.org/2000/svg"
   xmlns="http://www.w3.org/2000/svg"
   xmlns:sodipodi="http://sodipodi.sourceforge.net/DTD/sodipodi-0.dtd"
   xmlns:inkscape="http://www.inkscape.org/namespaces/inkscape"
   width="64px"
   height="64px"
   id="svg2985"
   version="1.1"
   inkscape:version="0.47 r22583"
   sodipodi:docname="wq.svg">
  <defs
     id="defs2987">
    <inkscape:perspective
       sodipodi:type="inkscape:persp3d"
       inkscape:vp_x="0 : 32 : 1"
       inkscape:vp_y="0 : 1000 : 0"
       inkscape:vp_z="64 : 32 : 1"
       inkscape:persp3d-origin="32 : 21.333333 : 1"
       id="perspective13" />
    <filter
       id="filter2819"
       inkscape:label="Eroded metal"
       inkscape:menu="Materials"
       inkscape:menu-tooltip="Eroded metal texture with ridges, grooves, holes and bumps"
       color-interpolation-filters="sRGB">
      <feGaussianBlur
         id="feGaussianBlur2821"
         result="result0"
         in="SourceGraphic"
         stdDeviation="0.9" />
      <feTurbulence
         id="feTurbulence2823"
         type="turbulence"
         baseFrequency="0.01"
         seed="4"
         numOctaves="4"
         result="result1" />
      <feDisplacementMap
         id="feDisplacementMap2825"
         in2="result1"
         xChannelSelector="R"
         result="result91" />
      <feComposite
         id="feComposite2827"
         in2="result91"
         result="result2"
         operator="out"
         in="result0" />
      <feComposite
         id="feComposite2829"
         in2="result2"
         k1="0.1"
         k3="1.2"
         in="SourceAlpha"
         operator="arithmetic"
         result="result5" />
      <feBlend
         id="feBlend2831"
         in2="result5"
         result="fbSourceGraphic"
         mode="multiply" />
      <feGaussianBlur
         id="feGaussianBlur2833"
         stdDeviation="3"
         in="fbSourceGraphic"
         result="result0" />
      <feSpecularLighting
         id="feSpecularLighting2835"
         in="result0"
         result="result1"
         lighting-color="rgb(240,248,255)"
         surfaceScale="3"
         specularConstant="0.35"
         specularExponent="5">
        <feDistantLight
           azimuth="225"
           elevation="45"
           id="feDistantLight14" />
      </feSpecularLighting>
      <feComposite
         id="feComposite2839"
         in2="fbSourceGraphic"
         in="result1"
         result="result2"
         operator="in" />
      <feComposite
         id="feComposite2841"
         in2="result2"
         k1="-1"
         in="fbSourceGraphic"
         result="result4"
         operator="arithmetic"
         k2="2.5"
         k3="3.5" />
      <feBlend
         id="feBlend2843"
         in2="result4"
         mode="multiply" />
    </filter>
  </defs>
  <sodipodi:namedview
     id="base"
     pagecolor="#ffffff"
     bordercolor="#666666"
     borderopacity="1.0"
     inkscape:pageopacity="0.0"
     inkscape:pageshadow="2"
     inkscape:zoom="5.5"
     inkscape:cx="-15.699533"
     inkscape:cy="32"
     inkscape:current-layer="layer1"
     showgrid="true"
     inkscape:document-units="px"
     inkscape:grid-bbox="true"
     inkscape:window-width="1270"
     inkscape:window-height="743"
     inkscape:window-x="0"
     inkscape:window-y="0"
     inkscape:window-maximized="1" />
  <metadata
     id="metadata2990">
    <rdf:RDF>
      <cc:Work
         rdf:about="">
        <dc:format>image/svg+xml</dc:format>
        <dc:type
           rdf:resource="http://purl.org/dc/dcmitype/StillImage" />
        <dc:title />
      </cc:Work>
    </rdf:RDF>
  </metadata>
  <g
     id="layer1"
     inkscape:label="Layer 1"
     inkscape:groupmode="layer">
    <path
       style="fill:#000000"
       d="M 26.424666,60.401089 C 26.155578,60.362219 25.142829,60.2326 24.174113,60.113042 20.514251,59.661352 17.340012,58.576084 15.116164,57.016146 L 13.985899,56.223308 13.062201,48.342978 12.138503,40.462645 9.0465858,33.326984 5.954669,26.191322 5.0057143,25.851812 C 3.3298171,25.252219 2.3535291,23.975153 2.3535291,22.38253 c 0,-1.385356 0.7520096,-2.615551 1.9962095,-3.265551 0.6858004,-0.358279 2.3733163,-0.354175 3.072667,0.0075 0.8246869,0.426462 1.7447614,1.576768 1.8929364,2.366612 0.115018,0.613096 0.08645,1.06562 -0.155338,2.460782 -0.044984,0.259567 3.211104,3.017343 7.435451,6.297522 0.137145,0.106493 0.290099,0.152877 0.339897,0.10308 0.0498,-0.0498 1.062353,-3.7831 2.25012,-8.296225 1.187767,-4.513125 2.207612,-8.359796 2.266321,-8.548158 0.0671,-0.215287 0.0037,-0.342475 -0.170633,-0.342475 -0.557748,0 -1.935516,-1.206858 -2.303781,-2.018003 -1.424989,-3.1386844 1.358998,-6.5254668 4.780203,-5.8152274 1.223725,0.2540444 2.56647,1.2822186 2.986099,2.2865321 0.438285,1.0489634 0.340311,2.7701753 -0.212742,3.7374663 l -0.476111,0.832722 2.831683,5.806492 c 1.659378,3.402629 2.902518,5.731517 3.002779,5.625389 0.0941,-0.09961 1.492246,-2.721935 3.106987,-5.827394 l 2.935895,-5.646289 -0.459709,-0.67742 c -0.90842,-1.338632 -0.815976,-3.3222989 0.218726,-4.69342 1.353722,-1.7938633 4.772998,-2.0048478 6.516425,-0.4020937 1.148723,1.0560341 1.524227,3.2206486 0.825583,4.7591107 -0.333845,0.735151 -1.463758,1.832146 -1.894627,1.839432 -0.736847,0.01246 -0.693527,0.287916 1.385587,8.810572 1.138563,4.66717 2.108974,8.524626 2.156471,8.572121 0.112739,0.112739 0.22419,0.03258 4.581531,-3.295269 2.755502,-2.104469 3.680108,-2.913501 3.57851,-3.131205 -0.07534,-0.161452 -0.137065,-0.910006 -0.137151,-1.663452 -1.29e-4,-1.122057 0.08248,-1.485774 0.456647,-2.010358 1.154465,-1.618594 3.834292,-1.906985 5.293246,-0.569636 0.612811,0.561736 1.187634,1.83144 1.193011,2.635205 0.0056,0.829754 -0.470414,1.958478 -1.105426,2.621449 -0.497819,0.519737 -1.079986,0.813165 -2.02148,1.018881 -0.429512,0.09385 -0.889373,0.985897 -3.766179,7.305745 l -3.276927,7.198842 -0.75807,7.807722 c -0.876969,9.03231 -0.456675,7.935927 -3.647292,9.514377 -3.966,1.962043 -8.518612,2.7522 -15.617123,2.710532 -2.497005,-0.01466 -4.760171,-0.05845 -5.029259,-0.09732 z m 10.959217,-2.246702 c 2.99387,-0.289432 6.230235,-0.876622 7.553507,-1.37047 1.21408,-0.453096 2.427208,-1.468705 2.427208,-2.032012 0,-0.622364 -1.22053,-1.583932 -2.585864,-2.037217 -3.398823,-1.128394 -8.697704,-1.681196 -14.607166,-1.523887 -9.489111,0.252603 -14.983649,1.947794 -13.703831,4.227946 1.235595,2.201367 11.948823,3.602559 20.916146,2.73564 z M 16.987707,51.545842 c 3.901406,-1.965541 10.197296,-2.827123 17.523757,-2.398094 5.761177,0.337368 9.492867,1.075953 12.113677,2.397566 0.615834,0.310551 1.166241,0.564637 1.223127,0.564637 0.05689,0 0.102629,-0.726538 0.10165,-1.614528 l -0.0018,-1.614527 -1.580039,-1.712378 -1.580039,-1.712378 1.858674,0 1.85867,0 0.119699,-1.516677 c 0.06584,-0.834173 0.156808,-1.808639 0.202166,-2.165479 0.08014,-0.630519 0.04713,-0.664654 -1.171533,-1.211434 -4.453477,-1.998139 -9.443781,-2.924312 -15.790364,-2.930602 -5.997827,-0.006 -10.368468,0.740772 -14.899686,2.545588 l -2.087358,0.831401 0.0016,1.196175 c 9.39e-4,0.657895 0.05724,1.658517 0.125109,2.223602 l 0.123408,1.027426 1.85307,0 1.853071,0 -1.58678,1.738106 -1.58678,1.738107 0,1.588798 c 0,0.873839 0.04655,1.5888 0.103431,1.5888 0.05689,0 0.607294,-0.25385 1.223127,-0.564109 z M 29.66353,44.844313 c -0.948261,-0.222177 -1.477561,-0.674859 -1.477561,-1.263678 0,-1.057664 1.376893,-1.530821 4.109706,-1.412256 2.257366,0.09793 3.131205,0.462254 3.131205,1.305452 0,0.679006 -0.443805,1.094665 -1.467752,1.374666 -0.926684,0.253404 -3.205665,0.251185 -4.295598,-0.0042 z M 15.393224,38.295294 c 2.002612,-0.755344 5.949127,-1.800358 8.42097,-2.229822 7.970732,-1.384853 16.888551,-0.612013 24.096905,2.088298 1.006565,0.377069 1.863538,0.652157 1.904385,0.61131 0.145047,-0.145045 5.905261,-12.39077 5.857029,-12.451543 -0.02699,-0.034 -2.149487,1.586516 -4.716666,3.60115 -2.567181,2.014637 -4.779809,3.75026 -4.916955,3.856942 -0.137146,0.106684 -0.296285,0.147037 -0.353645,0.08967 -0.05736,-0.05736 -1.246135,-4.533898 -2.641724,-9.947866 -1.395587,-5.413969 -2.557425,-9.863056 -2.581859,-9.88686 -0.02443,-0.0238 -0.355152,-0.101311 -0.734928,-0.172228 l -0.690501,-0.128946 -3.594623,7.265052 c -1.977041,3.995779 -3.655417,7.19428 -3.729724,7.107778 -0.07431,-0.0865 -1.665234,-3.352537 -3.535395,-7.257859 l -3.400293,-7.100585 -0.594594,0.12716 c -0.327027,0.06994 -0.612409,0.142026 -0.63418,0.160195 -0.02177,0.01817 -1.248148,4.433154 -2.725276,9.811079 -1.477129,5.377926 -2.753156,9.856589 -2.835617,9.952585 C 17.862549,33.935141 14.2627,31.048201 8.6552138,26.30745 l -1.0370747,-0.876779 0.6640757,1.450844 c 3.6482462,7.970525 5.5134782,11.92081 5.6287272,11.92081 0.0759,0 0.74293,-0.228165 1.482282,-0.507036 z M 59.32659,23.809291 c 0.499391,-0.451944 0.495466,-1.831037 -0.007,-2.451532 -0.292489,-0.361213 -0.565524,-0.462007 -1.251503,-0.462007 -1.224801,0 -1.701288,0.465892 -1.701288,1.663453 0,0.910134 0.261308,1.345811 0.978501,1.631438 0.477074,0.189999 1.585736,-0.02339 1.981276,-0.381352 z m -52.251981,-0.1957 c 0.5361111,-0.485174 0.5086877,-2.039816 -0.04482,-2.540732 -0.6215481,-0.562494 -2.0538551,-0.512211 -2.5408475,0.0892 -0.6775066,0.836685 -0.4124325,2.400274 0.4704087,2.774797 0.582136,0.246954 1.6686523,0.08091 2.115258,-0.323264 z M 23.968947,11.323005 c 0.841708,-0.351689 1.085817,-0.816482 1.085817,-2.0674511 0,-1.4113761 -0.562654,-1.9626445 -1.997034,-1.9566208 -1.473087,0.00618 -2.308373,0.77558 -2.308373,2.1262771 0,1.7196548 1.512361,2.6111208 3.21959,1.8977948 z M 42.567686,11.130209 C 43.552554,10.4849 43.584451,8.2717812 42.618626,7.5952961 42.100621,7.2324713 40.166212,7.1992472 39.71532,7.5454301 38.548939,8.4409504 38.735525,10.7547 40.021086,11.337025 c 0.704858,0.319283 1.890641,0.222982 2.546593,-0.206815 z"
       id="path3060"
       inkscape:connector-curvature="0" />
    <path
       style="fill:#000000;filter:url(#filter2819)"
       d="m 29.011762,56.673665 c -3.024894,-0.130302 -6.65715,-0.632678 -8.819813,-1.219866 -2.541191,-0.689962 -3.671264,-1.571417 -3.266732,-2.548044 0.55109,-1.330448 3.674259,-2.27872 9.386683,-2.85003 2.114291,-0.211454 9.261058,-0.214933 11.185144,-0.0054 3.58167,0.389961 6.155165,0.93045 7.535457,1.582606 0.763265,0.360626 1.849778,1.344029 1.849778,1.674235 0,0.245688 -1.043943,1.171824 -1.739638,1.543324 -2.26813,1.211175 -10.014311,2.086701 -16.130879,1.82322 z"
       id="path3062"
       inkscape:connector-curvature="0"
       transform="matrix(1.0300016,0,0,1.0300016,-0.960051,-0.09153298)" />
    <path
       style="fill:#000000;filter:url(#filter2819)"
       d="m 16.234142,49.970519 c -0.04338,-0.316469 -0.07873,-0.957839 -0.07857,-1.425267 l 3e-4,-0.849869 1.53697,-1.671343 c 0.845334,-0.919239 1.539449,-1.714734 1.542478,-1.767767 0.003,-0.05303 -0.798579,-0.09642 -1.781352,-0.09642 l -1.78686,0 -0.07501,-0.867813 c -0.04126,-0.477297 -0.110138,-1.417427 -0.153073,-2.089179 l -0.07806,-1.221366 1.907792,-0.729558 c 3.065918,-1.172437 5.032402,-1.715604 7.564646,-2.089449 4.429082,-0.653882 10.812523,-0.576705 15.127155,0.18289 1.308295,0.230327 3.678778,0.851944 4.920252,1.290248 1.526596,0.538968 3.27371,1.353467 3.352718,1.563027 0.03495,0.09269 -0.0092,1.007422 -0.09809,2.032727 l -0.161631,1.864191 -1.825857,0.06428 -1.825855,0.06428 1.535101,1.671343 1.5351,1.671343 0.0021,1.509016 0.0021,1.509016 -0.739248,-0.33666 C 43.725359,48.912983 41.382254,48.357066 36.98274,47.95285 28.976301,47.21724 22.458599,47.86869 17.883206,49.86187 l -1.570241,0.684045 -0.07887,-0.575397 z m 17.820759,-6.327445 c 0.69272,-0.176753 1.196263,-0.613992 1.296259,-1.125572 0.208268,-1.065521 -0.751971,-1.474138 -3.510971,-1.494043 -2.046524,-0.01476 -2.788439,0.127723 -3.293182,0.632466 -0.599823,0.599822 -0.250218,1.561492 0.679169,1.868217 1.173227,0.3872 3.548096,0.445693 4.828725,0.118932 l 0,0 z"
       id="path3064"
       inkscape:connector-curvature="0"
       transform="matrix(1.0300016,0,0,1.0300016,-0.960051,-0.09153298)" />
    <path
       style="fill:#000000;filter:url(#filter2819)"
       d="M 13.425342,35.578144 C 11.73688,32.05328 8.675762,25.369274 8.7266252,25.318411 c 0.026892,-0.02689 1.5502408,1.198319 3.3852188,2.722694 3.528354,2.931114 6.058868,4.933601 6.234522,4.933601 0.05816,0 0.135084,-0.101245 0.170937,-0.224989 0.03585,-0.123744 0.221963,-0.745676 0.413577,-1.382072 0.191614,-0.636396 1.374307,-4.848122 2.628207,-9.35939 1.253899,-4.511269 2.303261,-8.225751 2.331916,-8.254406 0.02866,-0.02866 0.281719,-0.08882 0.562366,-0.133694 l 0.510265,-0.0816 1.21273,2.550581 c 0.667001,1.40282 2.154132,4.481972 3.304732,6.84256 1.1506,2.360589 2.11653,4.356559 2.146511,4.435488 0.03262,0.08589 0.138074,0.04026 0.26262,-0.11362 0.114459,-0.141421 1.726551,-3.284481 3.582428,-6.984578 l 3.37432,-6.727448 0.573348,0.07545 c 0.315341,0.0415 0.617908,0.120012 0.672373,0.174476 0.05446,0.05446 0.710592,2.440394 1.458061,5.302067 1.337964,5.122369 3.477468,13.216249 3.60982,13.656181 0.03723,0.123744 0.156142,0.224989 0.264253,0.224989 0.108113,0 1.593959,-1.087667 3.301882,-2.417037 4.781448,-3.721662 5.880538,-4.557548 5.926722,-4.507426 0.03881,0.04212 -2.557909,5.655479 -4.556253,9.849313 -0.446436,0.936917 -0.87732,1.703485 -0.957519,1.703485 -0.0802,0 -0.895727,-0.264907 -1.812284,-0.588682 -7.817926,-2.761697 -16.764379,-3.35371 -24.900948,-1.64777 -1.729459,0.362605 -4.442035,1.118071 -6.392839,1.780439 -0.738678,0.250807 -1.40948,0.456013 -1.490672,0.456013 -0.08119,0 -0.584101,-0.911204 -1.117577,-2.024897 l 0,0 z"
       id="path3066"
       inkscape:connector-curvature="0"
       transform="matrix(1.0300016,0,0,1.0300016,-0.960051,-0.09153298)" />
    <path
       style="fill:#000000;filter:url(#filter2819)"
       d="M 22.248769,11.070594 C 21.27296,10.628409 20.842818,9.062411 21.449761,8.1616859 21.917564,7.46745 22.479772,7.2348723 23.528596,7.3017005 c 0.736268,0.046913 0.935977,0.1113033 1.217087,0.3924138 0.283401,0.2834014 0.34416,0.4755359 0.386319,1.2216418 0.06325,1.1192989 -0.183412,1.7026099 -0.854933,2.0217949 -0.626098,0.297595 -1.533781,0.357133 -2.0283,0.133043 l 0,0 z"
       id="path3068"
       inkscape:connector-curvature="0"
       transform="matrix(1.0300016,0,0,1.0300016,-0.960051,-0.09153298)" />
    <path
       style="fill:#000000;filter:url(#filter2819)"
       d="M 5.436653,22.942861 C 4.8230481,22.213633 4.8870918,20.989858 5.5620019,20.54764 c 0.7818575,-0.512292 2.1051959,-0.277407 2.370645,0.420778 0.1650922,0.434225 0.156111,1.419082 -0.015872,1.740434 -0.1866683,0.348793 -0.8832906,0.623488 -1.5811546,0.623488 -0.4781175,0 -0.624669,-0.06349 -0.8989677,-0.389479 z"
       id="path3070"
       inkscape:connector-curvature="0"
       transform="matrix(1.0300016,0,0,1.0300016,-0.960051,-0.09153298)" />
    <path
       style="fill:#000000;filter:url(#filter2819)"
       d="M 39.854164,10.988692 C 39.255039,10.684558 38.907103,10.102926 38.81984,9.2596517 38.75391,8.6225632 39.206126,7.6608688 39.682646,7.4247704 c 0.416589,-0.2064047 1.901386,-0.2054819 2.310309,0.00144 1.168641,0.5913394 1.212168,2.7983896 0.06814,3.4551746 -0.656492,0.376893 -1.586764,0.422126 -2.206932,0.107311 l 0,0 z"
       id="path3072"
       inkscape:connector-curvature="0"
       transform="matrix(1.0300016,0,0,1.0300016,-0.960051,-0.09153298)" />
    <path
       style="fill:#000000;filter:url(#filter2819)"
       d="m 56.574543,23.47028 c -0.530473,-0.227644 -0.821288,-0.764136 -0.821288,-1.515098 0,-0.601887 0.05252,-0.752174 0.375805,-1.075464 0.333551,-0.333551 0.464339,-0.375805 1.163223,-0.375805 0.682482,0 0.828628,0.04447 1.096651,0.333669 0.581465,0.627411 0.542459,1.934249 -0.0713,2.388888 -0.368558,0.273007 -1.353891,0.410827 -1.743088,0.24381 l 0,0 z"
       id="path3074"
       inkscape:connector-curvature="0"
       transform="matrix(1.0300016,0,0,1.0300016,-0.960051,-0.09153298)" />
  </g>
</svg>
