<?xml version="1.0" encoding="UTF-8" standalone="no"?>
<!-- Created with Inkscape (http://www.inkscape.org/) -->

<svg
   xmlns:dc="http://purl.org/dc/elements/1.1/"
   xmlns:cc="http://creativecommons.org/ns#"
   xmlns:rdf="http://www.w3.org/1999/02/22-rdf-syntax-ns#"
   xmlns:svg="http://www.w3.org/2000/svg"
   xmlns="http://www.w3.org/2000/svg"
   xmlns:sodipodi="http://sodipodi.sourceforge.net/DTD/sodipodi-0.dtd"
   xmlns:inkscape="http://www.inkscape.org/namespaces/inkscape"
   width="64px"
   height="64px"
   id="svg2985"
   version="1.1"
   inkscape:version="0.48.1 "
   sodipodi:docname="wk.svg">
  <defs
     id="defs2987" />
  <sodipodi:namedview
     id="base"
     pagecolor="#ffffff"
     bordercolor="#666666"
     borderopacity="1.0"
     inkscape:pageopacity="0.0"
     inkscape:pageshadow="2"
     inkscape:zoom="5.5"
     inkscape:cx="-9.6363636"
     inkscape:cy="50.465909"
     inkscape:current-layer="layer1"
     showgrid="true"
     inkscape:document-units="px"
     inkscape:grid-bbox="true"
     inkscape:window-width="1365"
     inkscape:window-height="878"
     inkscape:window-x="-8"
     inkscape:window-y="-8"
     inkscape:window-maximized="1" />
  <metadata
     id="metadata2990">
    <rdf:RDF>
      <cc:Work
         rdf:about="">
        <dc:format>image/svg+xml</dc:format>
        <dc:type
           rdf:resource="http://purl.org/dc/dcmitype/StillImage" />
        <dc:title></dc:title>
      </cc:Work>
    </rdf:RDF>
  </metadata>
  <g
     id="layer1"
     inkscape:label="Layer 1"
     inkscape:groupmode="layer">
    <text
       xml:space="preserve"
       style="font-size:68px;font-style:normal;font-variant:normal;font-weight:normal;font-stretch:normal;line-height:125%;letter-spacing:0px;word-spacing:0px;fill:#000000;fill-opacity:1;stroke:none;font-family:Chess Usual;-inkscape-font-specification:Chess Usual"
       x="-2"
       y="57.818184"
       id="text2993"
       sodipodi:linespacing="125%"><tspan
         sodipodi:role="line"
         id="tspan2995"
         x="-2"
         y="57.818184" /></text>
    <text
       xml:space="preserve"
       style="font-size:64px;font-style:normal;font-variant:normal;font-weight:normal;font-stretch:normal;line-height:125%;letter-spacing:0px;word-spacing:0px;fill:#000000;fill-opacity:1;stroke:none;font-family:Chess Usual;-inkscape-font-specification:Chess Usual"
       x="0"
       y="64.34375"
       id="text3051"
       sodipodi:linespacing="125%"><tspan
         sodipodi:role="line"
         id="tspan3053"
         x="0"
         y="64.34375">l</tspan></text>
    <path
       style="fill:#ffffff"
       d="m 25.321359,36.975195 c -0.106748,-0.199459 -0.194086,-0.710381 -0.194086,-1.135383 0,-0.962726 -0.486218,-1.983311 -1.505583,-3.160266 -1.263409,-1.458727 -1.645457,-2.195383 -1.524654,-2.939806 0.346305,-2.134024 2.110213,-1.957806 2.622607,0.262004 0.112569,0.487676 0.577175,1.657867 1.032458,2.600424 0.676167,1.399846 0.827474,1.896905 0.826072,2.713741 -0.0027,1.566802 -0.766574,2.575308 -1.256814,1.659286 l 0,0 z"
       id="path3055"
       inkscape:connector-curvature="0" />
    <path
       style="fill:#ffffff"
       d="m 37.13954,36.975195 c -0.106747,-0.199459 -0.194085,-0.867506 -0.194085,-1.48455 0,-0.93531 0.149611,-1.477588 0.899574,-3.260565 0.494766,-1.176267 0.950176,-2.340281 1.012023,-2.586698 0.163789,-0.652589 0.944601,-1.418382 1.446201,-1.418382 0.445136,0 1.077358,0.638778 1.287489,1.300843 0.194967,0.614289 -0.07001,1.204554 -1.069883,2.383298 -1.674518,1.974072 -2.120051,2.682492 -2.131121,3.388593 -0.02344,1.495002 -0.794301,2.529311 -1.250198,1.677461 z"
       id="path3057"
       inkscape:connector-curvature="0" />
  </g>
</svg>
