<?xml version="1.0" encoding="UTF-8" standalone="no"?>
<!-- Created with Inkscape (http://www.inkscape.org/) -->

<svg
   xmlns:dc="http://purl.org/dc/elements/1.1/"
   xmlns:cc="http://creativecommons.org/ns#"
   xmlns:rdf="http://www.w3.org/1999/02/22-rdf-syntax-ns#"
   xmlns:svg="http://www.w3.org/2000/svg"
   xmlns="http://www.w3.org/2000/svg"
   xmlns:sodipodi="http://sodipodi.sourceforge.net/DTD/sodipodi-0.dtd"
   xmlns:inkscape="http://www.inkscape.org/namespaces/inkscape"
   width="64px"
   height="64px"
   id="svg2985"
   version="1.1"
   inkscape:version="0.48.1 "
   sodipodi:docname="bb.svg">
  <defs
     id="defs2987" />
  <sodipodi:namedview
     id="base"
     pagecolor="#ffffff"
     bordercolor="#666666"
     borderopacity="1.0"
     inkscape:pageopacity="0.0"
     inkscape:pageshadow="2"
     inkscape:zoom="5.5"
     inkscape:cx="-9.6363636"
     inkscape:cy="50.465909"
     inkscape:current-layer="layer1"
     showgrid="true"
     inkscape:document-units="px"
     inkscape:grid-bbox="true"
     inkscape:window-width="1365"
     inkscape:window-height="878"
     inkscape:window-x="-8"
     inkscape:window-y="-8"
     inkscape:window-maximized="1" />
  <metadata
     id="metadata2990">
    <rdf:RDF>
      <cc:Work
         rdf:about="">
        <dc:format>image/svg+xml</dc:format>
        <dc:type
           rdf:resource="http://purl.org/dc/dcmitype/StillImage" />
        <dc:title></dc:title>
      </cc:Work>
    </rdf:RDF>
  </metadata>
  <g
     id="layer1"
     inkscape:label="Layer 1"
     inkscape:groupmode="layer">
    <text
       xml:space="preserve"
       style="font-size:64px;font-style:normal;font-variant:normal;font-weight:normal;font-stretch:normal;line-height:125%;letter-spacing:0px;word-spacing:0px;fill:#000000;fill-opacity:1;stroke:none;font-family:Chess Usual;-inkscape-font-specification:Chess Usual"
       x="0.0625"
       y="64.34375"
       id="text3085"
       sodipodi:linespacing="125%"><tspan
         sodipodi:role="line"
         id="tspan3087"
         x="0.0625"
         y="64.34375">b</tspan></text>
    <path
       style="fill:#ffffff"
       d="m 11.403594,52.725 c -0.472669,-2.051751 -0.634976,-2.792673 -0.63727,-2.909091 -0.0015,-0.075 3.296374,-0.136363 7.32856,-0.136363 6.081415,0 7.469471,-0.0471 8.142034,-0.276264 1.553537,-0.529342 2.381684,-1.691516 2.380586,-3.340776 -9.09e-4,-1.445004 -0.363281,-2.19769 -2.613651,-5.429653 -3.062426,-4.398229 -3.57165,-5.762987 -3.339691,-8.950627 0.221745,-3.047275 0.918474,-5.540248 2.121805,-7.592053 0.3505,-0.597639 1.604801,-2.038597 2.922524,-3.357433 2.569329,-2.571499 2.678389,-2.785772 2.342556,-4.602455 -0.108076,-0.584639 -0.196502,-1.731308 -0.196502,-2.548153 0,-1.784547 0.407804,-2.5811 1.506928,-2.94344 2.08926,-0.688751 3.146305,1.009273 2.677474,4.301062 -0.340838,2.393122 -0.293707,3.016974 0.291813,3.862723 0.288082,0.416116 1.071204,1.154901 1.740269,1.641744 2.830767,2.059795 4.373986,4.671081 5.136713,8.691848 0.809216,4.265842 0.15526,6.325327 -3.595793,11.324126 -2.247851,2.995574 -2.666494,3.800934 -2.666494,5.12964 0,1.174405 0.400418,2.079672 1.302249,2.944132 1.195958,1.146397 1.189178,1.145579 9.486687,1.145579 l 7.527887,0 -0.390245,1.681818 -0.390248,1.681818 -7.775801,0.04741 -7.7758,0.04741 -1.727717,-1.645907 c -3.213869,-3.061689 -3.655525,-3.081364 -6.180178,-0.275298 -0.692258,0.769422 -1.47959,1.515576 -1.749624,1.65812 -0.402463,0.212449 -1.868583,0.259169 -8.132899,0.259169 l -7.641929,0 -0.09424,-0.409091 z m 22.814588,-17.136364 0,-3.181818 2.181818,0 2.181818,0 0,-2.181818 0,-2.181818 -2.181818,0 -2.181818,0 0,-2.090909 0,-2.090909 -2.181818,0 -2.181819,0 0,2.085139 0,2.085139 -2.136363,0.05122 -2.136364,0.05123 -0.05122,2.136364 -0.05123,2.136363 2.187588,0 2.187588,0 0,3.181818 0,3.181819 2.181819,0 2.181818,0 0,-3.181819 z"
       id="path3089"
       inkscape:connector-curvature="0" />
  </g>
</svg>
