<?xml version="1.0" encoding="UTF-8" standalone="no"?>
<!-- Created with Inkscape (http://www.inkscape.org/) -->

<svg
   xmlns:dc="http://purl.org/dc/elements/1.1/"
   xmlns:cc="http://creativecommons.org/ns#"
   xmlns:rdf="http://www.w3.org/1999/02/22-rdf-syntax-ns#"
   xmlns:svg="http://www.w3.org/2000/svg"
   xmlns="http://www.w3.org/2000/svg"
   xmlns:sodipodi="http://sodipodi.sourceforge.net/DTD/sodipodi-0.dtd"
   xmlns:inkscape="http://www.inkscape.org/namespaces/inkscape"
   width="64px"
   height="64px"
   id="svg2985"
   version="1.1"
   inkscape:version="0.48.1 "
   sodipodi:docname="wq.svg">
  <defs
     id="defs2987" />
  <sodipodi:namedview
     id="base"
     pagecolor="#ffffff"
     bordercolor="#666666"
     borderopacity="1.0"
     inkscape:pageopacity="0.0"
     inkscape:pageshadow="2"
     inkscape:zoom="5.5"
     inkscape:cx="10.272727"
     inkscape:cy="32"
     inkscape:current-layer="layer1"
     showgrid="true"
     inkscape:document-units="px"
     inkscape:grid-bbox="true"
     inkscape:window-width="1365"
     inkscape:window-height="878"
     inkscape:window-x="-8"
     inkscape:window-y="-8"
     inkscape:window-maximized="1" />
  <metadata
     id="metadata2990">
    <rdf:RDF>
      <cc:Work
         rdf:about="">
        <dc:format>image/svg+xml</dc:format>
        <dc:type
           rdf:resource="http://purl.org/dc/dcmitype/StillImage" />
        <dc:title></dc:title>
      </cc:Work>
    </rdf:RDF>
  </metadata>
  <g
     id="layer1"
     inkscape:label="Layer 1"
     inkscape:groupmode="layer">
    <text
       xml:space="preserve"
       style="font-size:64px;font-style:normal;font-variant:normal;font-weight:normal;font-stretch:normal;line-height:125%;letter-spacing:0px;word-spacing:0px;fill:#000000;fill-opacity:1;stroke:none;font-family:SeederChess;-inkscape-font-specification:SeederChess"
       x="0"
       y="52.319336"
       id="text3025"
       sodipodi:linespacing="125%"><tspan
         sodipodi:role="line"
         id="tspan3027"
         x="0"
         y="52.319336">5</tspan></text>
    <path
       style="fill:#ffffff;fill-opacity:1;fill-rule:evenodd"
       d="m 14.4,58.470229 c -1.342962,-0.479629 -2.090909,-1.409836 -2.090909,-2.600425 0,-1.299299 0.607836,-1.771499 2.697756,-2.09576 l 1.278119,-0.198308 1.575618,1.357208 c 1.755513,1.512165 2.568761,1.850916 4.328795,1.803123 2.660945,-0.07226 4.781739,-2.25804 5.490892,-5.659154 0.226409,-1.085864 0.268278,-2.572668 0.226073,-8.028088 -0.04979,-6.436274 -0.06631,-6.714836 -0.426669,-7.197249 -0.206179,-0.276009 -0.60069,-0.670527 -0.87669,-0.876705 -0.481347,-0.359578 -0.763978,-0.376995 -6.928441,-0.426909 L 13.24792,34.495924 13.121733,33.749031 C 12.908719,32.488211 11.900453,31.587789 9.8075273,30.789313 7.7583896,30.007544 7.0466767,29.603907 6.6890814,29.020742 6.0397466,27.961807 6.1154463,26.322198 6.8886935,24.697264 7.5114095,23.388661 9.6452771,21.404491 11.318621,20.578109 l 1.42833,-0.705382 2.826524,0.0036 c 4.637178,0.0059 6.488701,0.644133 10.553798,3.638151 2.288005,1.685158 3.076245,2.041707 3.854927,1.74372 1.042269,-0.398855 1.139855,-0.904466 1.197338,-6.20363 0.07284,-6.71521 0.216098,-6.517452 -4.734083,-6.535192 l -2.863637,-0.01026 0,-0.727273 0,-0.727273 2.772727,-0.001 c 1.525,-5.63e-4 3.077133,-0.08556 3.449186,-0.188884 1.092854,-0.303511 1.232633,-0.667993 1.232633,-3.2141895 l 0,-2.2322717 0.882407,0 0.882409,0 0.125549,2.1000035 c 0.06905,1.1550018 0.200273,2.2965376 0.2916,2.5367457 0.320682,0.84346 0.986711,0.999614 4.263551,0.999614 l 3.009029,0 0,0.709613 0,0.709612 -3.227273,0.0662 c -3.436931,0.0705 -3.827547,0.164426 -4.214334,1.013329 -0.122955,0.269856 -0.194653,2.217403 -0.194475,5.282527 3.64e-4,5.324832 0.08583,5.815383 1.113078,6.384883 0.423408,0.234734 0.568762,0.229398 1.293799,-0.0475 0.44924,-0.171567 1.515067,-0.840352 2.368501,-1.486191 1.999139,-1.512851 4.052306,-2.722604 5.365279,-3.161294 1.493747,-0.49909 4.308027,-0.804973 6.458091,-0.701928 2.147627,0.102929 3.143141,0.470207 4.992096,1.841748 2.653969,1.968694 4.022424,5.231236 2.939373,7.007774 -0.555562,0.911293 -0.956199,1.200848 -3.213164,2.322273 -2.180158,1.08326 -3.242073,2.000824 -3.435631,2.968609 l -0.106351,0.531758 -6.420078,0.05202 c -6.157865,0.04989 -6.440575,0.06733 -6.921896,0.426889 -0.276,0.206178 -0.670511,0.600696 -0.876689,0.876705 -0.36045,0.482529 -0.376868,0.760702 -0.426768,7.231037 -0.03136,4.066609 0.02214,7.136929 0.135228,7.759658 0.252136,1.388462 1.294916,3.456833 2.198154,4.360071 1.088042,1.088042 2.150331,1.542043 3.608122,1.542043 1.569087,0 2.476927,-0.415054 4.100189,-1.874561 l 1.262525,-1.13516 1.304622,0.09867 c 1.376069,0.104071 2.675977,0.618318 2.875178,1.137429 0.439499,1.145314 -0.24483,2.678293 -1.466474,3.285071 -0.663671,0.32964 -1.418198,0.34554 -17.874738,0.376683 C 20.290813,58.654916 14.775761,58.604429 14.4,58.470229 l 0,0 z"
       id="path3029"
       inkscape:connector-curvature="0" />
  </g>
</svg>
