<?xml version="1.0" encoding="UTF-8" standalone="no"?>
<!-- Created with Inkscape (http://www.inkscape.org/) -->

<svg
   xmlns:dc="http://purl.org/dc/elements/1.1/"
   xmlns:cc="http://creativecommons.org/ns#"
   xmlns:rdf="http://www.w3.org/1999/02/22-rdf-syntax-ns#"
   xmlns:svg="http://www.w3.org/2000/svg"
   xmlns="http://www.w3.org/2000/svg"
   xmlns:sodipodi="http://sodipodi.sourceforge.net/DTD/sodipodi-0.dtd"
   xmlns:inkscape="http://www.inkscape.org/namespaces/inkscape"
   width="64px"
   height="64px"
   id="svg2985"
   version="1.1"
   inkscape:version="0.48.1 "
   sodipodi:docname="New document 2">
  <defs
     id="defs2987" />
  <sodipodi:namedview
     id="base"
     pagecolor="#ffffff"
     bordercolor="#666666"
     borderopacity="1.0"
     inkscape:pageopacity="0.0"
     inkscape:pageshadow="2"
     inkscape:zoom="5.5"
     inkscape:cx="10.272727"
     inkscape:cy="32"
     inkscape:current-layer="layer1"
     showgrid="true"
     inkscape:document-units="px"
     inkscape:grid-bbox="true"
     inkscape:window-width="1365"
     inkscape:window-height="878"
     inkscape:window-x="-8"
     inkscape:window-y="-8"
     inkscape:window-maximized="1" />
  <metadata
     id="metadata2990">
    <rdf:RDF>
      <cc:Work
         rdf:about="">
        <dc:format>image/svg+xml</dc:format>
        <dc:type
           rdf:resource="http://purl.org/dc/dcmitype/StillImage" />
        <dc:title></dc:title>
      </cc:Work>
    </rdf:RDF>
  </metadata>
  <g
     id="layer1"
     inkscape:label="Layer 1"
     inkscape:groupmode="layer">
    <text
       xml:space="preserve"
       style="font-size:64px;font-style:normal;font-variant:normal;font-weight:normal;font-stretch:normal;line-height:125%;letter-spacing:0px;word-spacing:0px;fill:#000000;fill-opacity:1;stroke:none;font-family:SeederChess;-inkscape-font-specification:SeederChess"
       x="0"
       y="49.983398"
       id="text2993"
       sodipodi:linespacing="125%"><tspan
         sodipodi:role="line"
         id="tspan2995"
         x="0"
         y="49.983398">1</tspan></text>
    <path
       style="fill:#ffffff;fill-opacity:1;fill-rule:evenodd"
       d="m 14.121811,55.918182 c -1.032309,-0.521507 -1.632762,-1.404764 -1.625119,-2.390524 0.0032,-0.410213 0.113838,-0.888154 0.245906,-1.062093 0.371169,-0.488845 1.494982,-0.881443 2.818133,-0.984498 l 1.202905,-0.09369 1.587372,1.180831 c 1.940837,1.443773 2.934131,1.851068 4.503537,1.846646 2.83704,-0.008 5.985188,-2.687953 6.568297,-5.591468 0.11228,-0.559081 0.149818,-1.306105 0.08342,-1.660052 -0.255923,-1.364186 -1.639154,-2.367122 -3.756798,-2.723933 l -1.207049,-0.203382 2.278354,-1.999827 c 3.466981,-3.043146 4.316638,-4.590453 4.184147,-7.61974 -0.09229,-2.110195 -0.690437,-3.494611 -1.837523,-4.252995 -0.670529,-0.443312 -0.901572,-0.49042 -2.391182,-0.487525 -1.606045,0.0031 -1.700958,0.02776 -3.648935,0.947325 -1.849412,0.873035 -5.488105,2.017039 -7.303111,2.296095 -0.715224,0.109965 -0.787718,0.07832 -1.294427,-0.565067 -0.815179,-1.035062 -1.542958,-2.600771 -1.542958,-3.319448 0,-0.862778 0.513674,-1.816914 2.123364,-3.944095 2.388446,-3.156296 4.135595,-5.02889 7.143094,-7.65597 4.346467,-3.796683 5.476269,-5.070365 6.046188,-6.816172 0.228443,-0.699776 0.19226,-2.1369376 -0.06844,-2.718599 -0.123854,-0.2763317 -0.03842,-0.3178677 0.649568,-0.3157932 0.435699,0.00131 1.551229,0.1590216 2.478957,0.350462 4.04934,0.8355988 7.703365,3.5487222 10.588427,7.8619362 2.651364,3.963833 3.815705,7.86517 3.815705,12.785213 0,3.71726 -0.597051,6.462493 -1.805207,8.300326 -0.771885,1.17418 -5.688833,6.294803 -6.065673,6.316931 -0.571005,0.03353 -1.722485,0.720769 -2.102985,1.25513 -1.452435,2.039759 -0.621333,5.479124 1.943862,8.044319 1.027711,1.027711 1.413311,1.2871 2.293907,1.543096 1.938131,0.563431 3.336727,0.158107 5.900507,-1.710013 1.675177,-1.220632 2.025051,-1.302912 3.863624,-0.908609 0.627804,0.13464 1.137009,0.3868 1.486162,0.735955 0.465585,0.465583 0.520109,0.628996 0.441767,1.324031 -0.115736,1.026812 -0.673304,1.791752 -1.651,2.265047 -0.777205,0.376238 -0.919415,0.379242 -17.960205,0.379242 l -17.176799,0 -0.809785,-0.409091 0,0 z"
       id="path2997"
       inkscape:connector-curvature="0" />
  </g>
</svg>
