<?xml version="1.0" encoding="UTF-8" standalone="no"?>
<!-- Created with Inkscape (http://www.inkscape.org/) -->

<svg
   xmlns:dc="http://purl.org/dc/elements/1.1/"
   xmlns:cc="http://creativecommons.org/ns#"
   xmlns:rdf="http://www.w3.org/1999/02/22-rdf-syntax-ns#"
   xmlns:svg="http://www.w3.org/2000/svg"
   xmlns="http://www.w3.org/2000/svg"
   xmlns:sodipodi="http://sodipodi.sourceforge.net/DTD/sodipodi-0.dtd"
   xmlns:inkscape="http://www.inkscape.org/namespaces/inkscape"
   width="64px"
   height="64px"
   id="svg2816"
   version="1.1"
   inkscape:version="0.47 r22583"
   sodipodi:docname="bk.svg">
  <defs
     id="defs2818">
    <inkscape:perspective
       sodipodi:type="inkscape:persp3d"
       inkscape:vp_x="0 : 32 : 1"
       inkscape:vp_y="0 : 1000 : 0"
       inkscape:vp_z="64 : 32 : 1"
       inkscape:persp3d-origin="32 : 21.333333 : 1"
       id="perspective2824" />
    <inkscape:perspective
       id="perspective2838"
       inkscape:persp3d-origin="0.5 : 0.33333333 : 1"
       inkscape:vp_z="1 : 0.5 : 1"
       inkscape:vp_y="0 : 1000 : 0"
       inkscape:vp_x="0 : 0.5 : 1"
       sodipodi:type="inkscape:persp3d" />
    <inkscape:perspective
       id="perspective2870"
       inkscape:persp3d-origin="0.5 : 0.33333333 : 1"
       inkscape:vp_z="1 : 0.5 : 1"
       inkscape:vp_y="0 : 1000 : 0"
       inkscape:vp_x="0 : 0.5 : 1"
       sodipodi:type="inkscape:persp3d" />
    <inkscape:perspective
       id="perspective2900"
       inkscape:persp3d-origin="0.5 : 0.33333333 : 1"
       inkscape:vp_z="1 : 0.5 : 1"
       inkscape:vp_y="0 : 1000 : 0"
       inkscape:vp_x="0 : 0.5 : 1"
       sodipodi:type="inkscape:persp3d" />
    <inkscape:perspective
       id="perspective2922"
       inkscape:persp3d-origin="0.5 : 0.33333333 : 1"
       inkscape:vp_z="1 : 0.5 : 1"
       inkscape:vp_y="0 : 1000 : 0"
       inkscape:vp_x="0 : 0.5 : 1"
       sodipodi:type="inkscape:persp3d" />
    <inkscape:perspective
       id="perspective2954"
       inkscape:persp3d-origin="0.5 : 0.33333333 : 1"
       inkscape:vp_z="1 : 0.5 : 1"
       inkscape:vp_y="0 : 1000 : 0"
       inkscape:vp_x="0 : 0.5 : 1"
       sodipodi:type="inkscape:persp3d" />
    <inkscape:perspective
       id="perspective2972"
       inkscape:persp3d-origin="0.5 : 0.33333333 : 1"
       inkscape:vp_z="1 : 0.5 : 1"
       inkscape:vp_y="0 : 1000 : 0"
       inkscape:vp_x="0 : 0.5 : 1"
       sodipodi:type="inkscape:persp3d" />
    <inkscape:perspective
       id="perspective2988"
       inkscape:persp3d-origin="0.5 : 0.33333333 : 1"
       inkscape:vp_z="1 : 0.5 : 1"
       inkscape:vp_y="0 : 1000 : 0"
       inkscape:vp_x="0 : 0.5 : 1"
       sodipodi:type="inkscape:persp3d" />
    <inkscape:perspective
       id="perspective3037"
       inkscape:persp3d-origin="0.5 : 0.33333333 : 1"
       inkscape:vp_z="1 : 0.5 : 1"
       inkscape:vp_y="0 : 1000 : 0"
       inkscape:vp_x="0 : 0.5 : 1"
       sodipodi:type="inkscape:persp3d" />
  </defs>
  <sodipodi:namedview
     id="base"
     pagecolor="#ffffff"
     bordercolor="#666666"
     borderopacity="1.0"
     inkscape:pageopacity="0.0"
     inkscape:pageshadow="2"
     inkscape:zoom="5.5"
     inkscape:cx="32"
     inkscape:cy="32"
     inkscape:current-layer="layer1"
     showgrid="true"
     inkscape:document-units="px"
     inkscape:grid-bbox="true"
     inkscape:window-width="1365"
     inkscape:window-height="878"
     inkscape:window-x="-8"
     inkscape:window-y="-8"
     inkscape:window-maximized="1" />
  <metadata
     id="metadata2821">
    <rdf:RDF>
      <cc:Work
         rdf:about="">
        <dc:format>image/svg+xml</dc:format>
        <dc:type
           rdf:resource="http://purl.org/dc/dcmitype/StillImage" />
        <dc:title></dc:title>
      </cc:Work>
    </rdf:RDF>
  </metadata>
  <g
     id="layer1"
     inkscape:label="Layer 1"
     inkscape:groupmode="layer">
    <text
       xml:space="preserve"
       style="font-size:64px;font-style:normal;font-weight:normal;fill:#000000;fill-opacity:1;stroke:none;font-family:babaschess fritzright;-inkscape-font-specification:babaschess fritzright"
       x="0"
       y="64"
       id="text2826"><tspan
         sodipodi:role="line"
         id="tspan2828"
         x="0"
         y="64" /></text>
    <path
       style="fill:#000000"
       d="M 22.515105,57.735665 C 20.198413,57.241037 17.799428,56.335692 17.184026,55.723787 16.50736,55.050966 15.672984,51.786186 15.073,47.463674 13.865921,38.767429 10.06423,28.529306 7.7070098,27.626735 5.6119741,26.824554 5.0462854,25.764129 5.5817514,23.642785 c 0.3466665,-1.373382 0.9229632,-1.766752 2.588334,-1.766752 2.2555796,0 3.9612996,1.962716 3.2676746,3.760005 -0.404087,1.04705 6.450239,6.59585 7.212037,5.83838 0.242611,-0.241233 0.448082,-1.116549 0.4566,-1.945148 0.0085,-0.828598 0.950401,-4.254155 2.09307,-7.612349 1.764967,-5.187066 1.926786,-6.255745 1.07542,-7.102273 -1.199036,-1.192224 -1.249896,-1.974253 -0.249299,-3.833262 0.910943,-1.6924425 3.797132,-1.8332777 5.377009,-0.262377 1.360693,1.352962 1.368685,1.431713 0.339339,3.344135 -0.658737,1.223869 -0.363891,2.385288 1.636364,6.445762 1.341934,2.724098 2.603518,4.939264 2.803518,4.922591 0.2,-0.01668 1.457717,-2.252664 2.794926,-4.968869 1.980426,-4.022735 2.283877,-5.212432 1.636364,-6.415447 -1.0199,-1.894872 -1.011355,-1.97661 0.347931,-3.328172 1.579876,-1.5709007 4.466065,-1.4300655 5.377009,0.262377 1.000597,1.859009 0.949736,2.641038 -0.249299,3.833262 -0.851366,0.846528 -0.689547,1.915207 1.075419,7.102273 1.142669,3.358194 2.084551,6.783751 2.09307,7.612349 0.0085,0.828599 0.208833,1.698789 0.445142,1.933755 0.720574,0.71648 7.215495,-4.669952 7.080435,-5.872017 -0.239949,-2.135583 1.210098,-3.714975 3.410735,-3.714975 1.665371,0 2.241668,0.39337 2.588334,1.766752 0.535466,2.121344 -0.03023,3.181769 -2.125258,3.98395 -2.367464,0.906493 -6.158923,11.140975 -7.376501,19.911764 -0.781779,5.631531 -1.330288,7.486201 -2.490197,8.420102 -3.19278,2.570667 -16.124014,3.517312 -24.274823,1.777064 z m 1.666713,-5.541122 c 6.79307,-1.123186 15.399202,-0.638099 21.272727,1.199045 0.919848,0.287714 1.272727,-8.72e-4 1.272727,-1.040842 0,-2.363487 -4.310691,-3.358944 -14.545454,-3.358944 -10.284295,0 -14.545455,0.992408 -14.545455,3.387581 0,1.10474 0.314658,1.344813 1.272727,0.971049 0.7,-0.273084 3.072728,-0.794135 5.272728,-1.157889 z M 19.13872,47.883648 c 1.701244,-0.905304 1.834949,-2.548995 0.256344,-3.151321 -2.048586,-0.78165 -2.485974,-0.477184 -2.485974,1.730483 0,2.394607 0.181901,2.510524 2.22963,1.420838 z m 28.504784,-1.116263 c 0.418187,-2.175177 -1.082461,-3.114064 -2.762023,-1.728072 -0.977558,0.806691 -0.96398,1.057169 0.12198,2.250323 1.643043,1.805226 2.2143,1.692221 2.640043,-0.522251 z M 35.711826,44.782381 c 1.199275,-1.436827 -0.422825,-2.658414 -3.530008,-2.658414 -1.44,0 -3.003122,0.382754 -3.473605,0.850563 -1.37578,1.367963 0.379372,2.76514 3.473605,2.76514 1.502044,0 3.090548,-0.43078 3.530008,-0.957289 z M 23.454545,40.384434 c 5.108796,-1.450723 12.345749,-1.450723 17.454545,0 7.250897,2.059006 7.272728,2.060201 7.272728,0.398368 0,-2.182024 -8.638554,-4.7426 -16,-4.7426 -7.361447,0 -16,2.560576 -16,4.7426 0,1.661833 0.02183,1.660638 7.272727,-0.398368 z"
       id="path3043" />
    <path
       style="fill:#ffffff"
       d="m 17.806173,53.004777 c -0.621728,-1.635269 1.085734,-2.822151 4.999232,-3.475039 2.667296,-0.444984 16.060551,-0.44329 18.752826,0.0024 2.897891,0.479699 4.616056,1.255281 4.996273,2.255324 0.197549,0.519594 0.03559,1.465621 -0.271057,1.583292 -0.12166,0.04669 -1.188856,-0.151163 -2.371545,-0.439665 -7.822778,-1.908264 -17.692853,-1.79256 -24.704251,0.289601 -1.185262,0.351986 -1.185593,0.351934 -1.401478,-0.215886 z"
       id="path3045" />
    <path
       style="fill:#ffffff"
       d="m 30.131132,45.414507 c -1.640547,-0.441216 -2.227831,-1.514336 -1.299558,-2.374631 1.143552,-1.059808 5.202922,-1.105586 6.650254,-0.075 1.123119,0.799732 0.343082,2.11767 -1.485469,2.509824 -1.200376,0.257434 -2.775401,0.232904 -3.865227,-0.0602 z"
       id="path3047" />
    <path
       style="fill:#ffffff"
       d="m 17.156138,48.176631 c -0.07593,-0.122854 -0.133738,-0.905586 -0.128469,-1.739405 0.0117,-1.851825 0.203937,-2.137572 1.312074,-1.950354 1.056297,0.17846 1.919222,0.805524 1.993364,1.44852 0.08932,0.774643 -0.305631,1.350378 -1.329066,1.937422 -0.97509,0.559313 -1.624055,0.66601 -1.847903,0.303817 l 0,0 z"
       id="path3049" />
    <path
       style="fill:#ffffff"
       d="m 45.337385,47.445455 c -0.507606,-0.525 -0.970694,-1.092506 -1.029084,-1.261123 -0.141121,-0.407525 0.441619,-1.121913 1.214232,-1.488541 0.844157,-0.400579 1.143494,-0.373565 1.66755,0.15049 0.535607,0.535608 0.587796,1.437253 0.156462,2.703148 -0.393136,1.153791 -0.81413,1.132004 -2.00916,-0.103974 z"
       id="path3051" />
    <path
       style="fill:#ffffff"
       d="m 16.296416,41.445455 c -0.180876,-0.674935 -0.137836,-0.824517 0.420075,-1.459943 1.474957,-1.679883 7.268986,-3.34494 13.056236,-3.752033 6.737338,-0.473924 15.842006,1.437244 17.874418,3.752033 0.557911,0.635426 0.600951,0.785008 0.420075,1.459943 -0.167329,0.624391 -1.182304,0.534274 -4.585671,-0.407148 -5.6209,-1.554825 -6.09052,-1.622246 -11.299731,-1.622246 -5.209212,0 -5.678831,0.06742 -11.299732,1.622246 -3.403367,0.941422 -4.41834,1.031539 -4.58567,0.407148 z"
       id="path3053" />
  </g>
</svg>
