<?xml version="1.0" encoding="UTF-8" standalone="no"?>
<!-- Created with Inkscape (http://www.inkscape.org/) -->

<svg
   xmlns:dc="http://purl.org/dc/elements/1.1/"
   xmlns:cc="http://creativecommons.org/ns#"
   xmlns:rdf="http://www.w3.org/1999/02/22-rdf-syntax-ns#"
   xmlns:svg="http://www.w3.org/2000/svg"
   xmlns="http://www.w3.org/2000/svg"
   xmlns:sodipodi="http://sodipodi.sourceforge.net/DTD/sodipodi-0.dtd"
   xmlns:inkscape="http://www.inkscape.org/namespaces/inkscape"
   width="64px"
   height="64px"
   id="svg2816"
   version="1.1"
   inkscape:version="0.47 r22583"
   sodipodi:docname="bq.svg">
  <defs
     id="defs2818">
    <inkscape:perspective
       sodipodi:type="inkscape:persp3d"
       inkscape:vp_x="0 : 32 : 1"
       inkscape:vp_y="0 : 1000 : 0"
       inkscape:vp_z="64 : 32 : 1"
       inkscape:persp3d-origin="32 : 21.333333 : 1"
       id="perspective2824" />
    <inkscape:perspective
       id="perspective2838"
       inkscape:persp3d-origin="0.5 : 0.33333333 : 1"
       inkscape:vp_z="1 : 0.5 : 1"
       inkscape:vp_y="0 : 1000 : 0"
       inkscape:vp_x="0 : 0.5 : 1"
       sodipodi:type="inkscape:persp3d" />
    <inkscape:perspective
       id="perspective2870"
       inkscape:persp3d-origin="0.5 : 0.33333333 : 1"
       inkscape:vp_z="1 : 0.5 : 1"
       inkscape:vp_y="0 : 1000 : 0"
       inkscape:vp_x="0 : 0.5 : 1"
       sodipodi:type="inkscape:persp3d" />
    <inkscape:perspective
       id="perspective2900"
       inkscape:persp3d-origin="0.5 : 0.33333333 : 1"
       inkscape:vp_z="1 : 0.5 : 1"
       inkscape:vp_y="0 : 1000 : 0"
       inkscape:vp_x="0 : 0.5 : 1"
       sodipodi:type="inkscape:persp3d" />
    <inkscape:perspective
       id="perspective2922"
       inkscape:persp3d-origin="0.5 : 0.33333333 : 1"
       inkscape:vp_z="1 : 0.5 : 1"
       inkscape:vp_y="0 : 1000 : 0"
       inkscape:vp_x="0 : 0.5 : 1"
       sodipodi:type="inkscape:persp3d" />
    <inkscape:perspective
       id="perspective2954"
       inkscape:persp3d-origin="0.5 : 0.33333333 : 1"
       inkscape:vp_z="1 : 0.5 : 1"
       inkscape:vp_y="0 : 1000 : 0"
       inkscape:vp_x="0 : 0.5 : 1"
       sodipodi:type="inkscape:persp3d" />
    <inkscape:perspective
       id="perspective2972"
       inkscape:persp3d-origin="0.5 : 0.33333333 : 1"
       inkscape:vp_z="1 : 0.5 : 1"
       inkscape:vp_y="0 : 1000 : 0"
       inkscape:vp_x="0 : 0.5 : 1"
       sodipodi:type="inkscape:persp3d" />
    <inkscape:perspective
       id="perspective2988"
       inkscape:persp3d-origin="0.5 : 0.33333333 : 1"
       inkscape:vp_z="1 : 0.5 : 1"
       inkscape:vp_y="0 : 1000 : 0"
       inkscape:vp_x="0 : 0.5 : 1"
       sodipodi:type="inkscape:persp3d" />
    <inkscape:perspective
       id="perspective3037"
       inkscape:persp3d-origin="0.5 : 0.33333333 : 1"
       inkscape:vp_z="1 : 0.5 : 1"
       inkscape:vp_y="0 : 1000 : 0"
       inkscape:vp_x="0 : 0.5 : 1"
       sodipodi:type="inkscape:persp3d" />
    <inkscape:perspective
       id="perspective3063"
       inkscape:persp3d-origin="0.5 : 0.33333333 : 1"
       inkscape:vp_z="1 : 0.5 : 1"
       inkscape:vp_y="0 : 1000 : 0"
       inkscape:vp_x="0 : 0.5 : 1"
       sodipodi:type="inkscape:persp3d" />
  </defs>
  <sodipodi:namedview
     id="base"
     pagecolor="#ffffff"
     bordercolor="#666666"
     borderopacity="1.0"
     inkscape:pageopacity="0.0"
     inkscape:pageshadow="2"
     inkscape:zoom="5.5"
     inkscape:cx="32"
     inkscape:cy="32"
     inkscape:current-layer="layer1"
     showgrid="true"
     inkscape:document-units="px"
     inkscape:grid-bbox="true"
     inkscape:window-width="1365"
     inkscape:window-height="878"
     inkscape:window-x="-8"
     inkscape:window-y="-8"
     inkscape:window-maximized="1" />
  <metadata
     id="metadata2821">
    <rdf:RDF>
      <cc:Work
         rdf:about="">
        <dc:format>image/svg+xml</dc:format>
        <dc:type
           rdf:resource="http://purl.org/dc/dcmitype/StillImage" />
        <dc:title></dc:title>
      </cc:Work>
    </rdf:RDF>
  </metadata>
  <g
     id="layer1"
     inkscape:label="Layer 1"
     inkscape:groupmode="layer">
    <text
       xml:space="preserve"
       style="font-size:64px;font-style:normal;font-weight:normal;fill:#000000;fill-opacity:1;stroke:none;font-family:babaschess fritzright;-inkscape-font-specification:babaschess fritzright"
       x="0"
       y="64"
       id="text2826"><tspan
         sodipodi:role="line"
         id="tspan2828"
         x="0"
         y="64" /></text>
    <path
       style="fill:#000000"
       d="m 11.752064,55.256092 c 0,-2.142826 0.808963,-3.911933 3.615703,-7.907119 l 3.615702,-5.146683 0,-9.724763 0,-9.724763 -2.169421,-2.084376 c -1.9948,-1.916601 -2.169422,-2.482067 -2.169422,-7.025142 l 0,-4.9407667 2.84453,0 c 2.565558,0 2.86697,0.1955882 3.073347,1.9943177 0.209545,1.826338 0.518139,2.012936 3.663735,2.215355 3.396273,0.21855 3.434917,0.196113 3.434917,-1.994318 l 0,-2.2153547 4.338843,0 4.338843,0 0,2.2153547 c 0,2.190431 0.03864,2.212868 3.434918,1.994318 3.145596,-0.202419 3.45419,-0.389017 3.663735,-2.215355 0.206377,-1.7987295 0.507789,-1.9943177 3.073347,-1.9943177 l 2.844529,0 0,4.9407667 c 0,4.543075 -0.174621,5.108541 -2.169421,7.025142 l -2.169422,2.084376 0,9.717392 0,9.717393 3.615703,5.245242 c 2.736599,3.969941 3.615702,5.894229 3.615702,7.91449 l 0,2.669246 -20.247934,0 -20.247934,0 0,-2.760435 z M 43.439756,42.605887 c -0.228288,-1.612 -0.366505,-1.631714 -11.439758,-1.631714 -11.073252,0 -11.211469,0.01972 -11.439758,1.631714 l -0.23108,1.631715 11.670838,0 11.670839,0 -0.231081,-1.631715 z m 0.13049,-20.124483 c 0,-1.389979 -0.482093,-1.450413 -11.570248,-1.450413 -11.088154,0 -11.570248,0.06043 -11.570248,1.450413 0,1.38998 0.482094,1.450414 11.570248,1.450414 11.088155,0 11.570248,-0.06043 11.570248,-1.450414 z"
       id="path3069" />
    <path
       style="fill:#ffffff"
       d="m 20.42701,43.9 c 0.04833,-0.175 0.14091,-0.708369 0.205728,-1.185265 0.199858,-1.470465 0.23938,-1.480552 6.222186,-1.588123 2.829792,-0.05088 7.46036,-0.05088 10.290152,0 5.982806,0.107571 6.022328,0.117658 6.222186,1.588123 C 43.43208,43.191631 43.524658,43.725 43.572991,43.9 43.656022,44.200636 43.017855,44.218182 32,44.218182 20.982146,44.218182 20.343978,44.200636 20.42701,43.9 z"
       id="path3071" />
    <path
       style="fill:#ffffff"
       d="M 22.594303,23.671679 C 20.828081,23.517539 20.506127,23.316804 20.581716,22.416853 20.68439,21.194419 20.458028,21.218182 32,21.218182 c 11.541971,0 11.315609,-0.02376 11.418284,1.198671 0.0348,0.414345 -0.04513,0.73344 -0.220086,0.878644 -0.151105,0.125405 -1.075696,0.299575 -2.054649,0.387043 -2.093589,0.18706 -16.37719,0.178696 -18.549246,-0.01086 l 0,1e-6 z"
       id="path3073" />
  </g>
</svg>
