<?xml version="1.0" encoding="UTF-8" standalone="no"?>
<!-- Created with Inkscape (http://www.inkscape.org/) -->

<svg
   xmlns:dc="http://purl.org/dc/elements/1.1/"
   xmlns:cc="http://creativecommons.org/ns#"
   xmlns:rdf="http://www.w3.org/1999/02/22-rdf-syntax-ns#"
   xmlns:svg="http://www.w3.org/2000/svg"
   xmlns="http://www.w3.org/2000/svg"
   xmlns:sodipodi="http://sodipodi.sourceforge.net/DTD/sodipodi-0.dtd"
   xmlns:inkscape="http://www.inkscape.org/namespaces/inkscape"
   width="64px"
   height="64px"
   id="svg2816"
   version="1.1"
   inkscape:version="0.47 r22583"
   sodipodi:docname="wr.svg">
  <defs
     id="defs2818">
    <inkscape:perspective
       sodipodi:type="inkscape:persp3d"
       inkscape:vp_x="0 : 32 : 1"
       inkscape:vp_y="0 : 1000 : 0"
       inkscape:vp_z="64 : 32 : 1"
       inkscape:persp3d-origin="32 : 21.333333 : 1"
       id="perspective2824" />
    <inkscape:perspective
       id="perspective2838"
       inkscape:persp3d-origin="0.5 : 0.33333333 : 1"
       inkscape:vp_z="1 : 0.5 : 1"
       inkscape:vp_y="0 : 1000 : 0"
       inkscape:vp_x="0 : 0.5 : 1"
       sodipodi:type="inkscape:persp3d" />
    <inkscape:perspective
       id="perspective2870"
       inkscape:persp3d-origin="0.5 : 0.33333333 : 1"
       inkscape:vp_z="1 : 0.5 : 1"
       inkscape:vp_y="0 : 1000 : 0"
       inkscape:vp_x="0 : 0.5 : 1"
       sodipodi:type="inkscape:persp3d" />
    <inkscape:perspective
       id="perspective2900"
       inkscape:persp3d-origin="0.5 : 0.33333333 : 1"
       inkscape:vp_z="1 : 0.5 : 1"
       inkscape:vp_y="0 : 1000 : 0"
       inkscape:vp_x="0 : 0.5 : 1"
       sodipodi:type="inkscape:persp3d" />
    <inkscape:perspective
       id="perspective2922"
       inkscape:persp3d-origin="0.5 : 0.33333333 : 1"
       inkscape:vp_z="1 : 0.5 : 1"
       inkscape:vp_y="0 : 1000 : 0"
       inkscape:vp_x="0 : 0.5 : 1"
       sodipodi:type="inkscape:persp3d" />
  </defs>
  <sodipodi:namedview
     id="base"
     pagecolor="#ffffff"
     bordercolor="#666666"
     borderopacity="1.0"
     inkscape:pageopacity="0.0"
     inkscape:pageshadow="2"
     inkscape:zoom="5.5"
     inkscape:cx="32"
     inkscape:cy="32"
     inkscape:current-layer="layer1"
     showgrid="true"
     inkscape:document-units="px"
     inkscape:grid-bbox="true"
     inkscape:window-width="1365"
     inkscape:window-height="878"
     inkscape:window-x="-8"
     inkscape:window-y="-8"
     inkscape:window-maximized="1" />
  <metadata
     id="metadata2821">
    <rdf:RDF>
      <cc:Work
         rdf:about="">
        <dc:format>image/svg+xml</dc:format>
        <dc:type
           rdf:resource="http://purl.org/dc/dcmitype/StillImage" />
        <dc:title></dc:title>
      </cc:Work>
    </rdf:RDF>
  </metadata>
  <g
     id="layer1"
     inkscape:label="Layer 1"
     inkscape:groupmode="layer">
    <text
       xml:space="preserve"
       style="font-size:64px;font-style:normal;font-weight:normal;fill:#000000;fill-opacity:1;stroke:none;font-family:babaschess fritzright;-inkscape-font-specification:babaschess fritzright"
       x="0"
       y="64"
       id="text2826"><tspan
         sodipodi:role="line"
         id="tspan2828"
         x="0"
         y="64" /></text>
    <path
       style="fill:#000000"
       d="m 5.243802,56.918709 c 0,-1.222575 0.89541,-2.818253 2.4586777,-4.38152 2.3626503,-2.362651 2.6722643,-2.458678 7.9273373,-2.458678 l 5.468659,0 -0.426826,-4.881198 c -0.265987,-3.041827 -1.000567,-5.833742 -1.949376,-7.408991 -2.359828,-3.917874 -2.060908,-9.311902 0.860748,-15.53221 1.302895,-2.77391 3.165492,-6.087859 4.139105,-7.364331 1.436184,-1.882935 1.639908,-2.663563 1.079673,-4.137094 -0.536253,-1.4104512 -0.393735,-2.1827645 0.637894,-3.4567713 1.1891,-1.4684773 1.536427,-1.5457639 3.311671,-0.7369085 1.737902,0.7918415 1.934194,1.2059001 1.586731,3.3470627 -0.302445,1.8637521 -0.0525,2.7547651 1.053555,3.7557301 1.403478,1.27013 1.476686,1.266309 2.278482,-0.118936 0.455627,-0.787176 0.835714,-2.530689 0.844636,-3.874473 0.01953,-2.9419372 1.849921,-4.5023886 3.812711,-3.2504333 0.804707,0.5132781 1.265496,1.7155835 1.265496,3.3019737 0,1.5312676 0.795077,3.6967156 2.058652,5.6068876 4.678683,7.072854 5.920043,14.978098 3.436887,21.886821 -0.755864,2.102988 -1.564408,5.857447 -1.796765,8.343243 l -0.422467,4.519628 5.48478,0 c 5.273406,0 5.579534,0.09475 7.943458,2.458678 1.563268,1.563267 2.458678,3.158945 2.458678,4.38152 0,1.368199 -0.260738,1.75409 -0.903926,1.33781 -0.497159,-0.321768 -4.971591,-0.759756 -9.943181,-0.973306 -7.603116,-0.326586 -9.584991,-0.662902 -12.474174,-2.116817 l -3.434917,-1.728543 -3.434918,1.728543 c -2.889183,1.453915 -4.871058,1.790231 -12.474173,2.116817 -4.971591,0.21355 -9.4460233,0.651538 -9.9431823,0.973306 -0.643188,0.41628 -0.9039257,0.03039 -0.9039257,-1.33781 z m 19.204572,-1.864062 c 1.767031,-0.444943 3.212784,-1.028278 3.212784,-1.296298 0,-0.949968 -6.599156,-2.233557 -11.483105,-2.233557 -3.916936,0 -5.352977,0.31377 -6.8594562,1.498766 -1.0479557,0.824322 -1.9053733,1.800562 -1.9053733,2.169422 0,0.94409 13.1608895,0.837217 17.0351505,-0.138333 z m 32.138404,0.138333 c 0,-0.36886 -0.857418,-1.3451 -1.905374,-2.169422 -1.506479,-1.184996 -2.94252,-1.498766 -6.859456,-1.498766 -4.915908,0 -11.483104,1.285386 -11.483104,2.247568 0,1.048684 5.702814,1.944614 12.835743,2.016537 4.126372,0.04161 7.412191,-0.222563 7.412191,-0.595917 z M 38.432079,51.076347 c 1.270074,-0.260192 1.517448,-0.568971 0.92803,-1.158389 -0.471238,-0.471238 -3.515507,-0.803634 -7.360108,-0.803634 -9.017374,0 -10.699677,1.733277 -2.530992,2.607681 2.24092,0.239876 5.941872,-0.02672 8.96307,-0.645658 z m -6.432078,-3.528828 c 2.585227,0 5.758006,0.235925 7.050619,0.524277 1.999867,0.446124 2.350207,0.322911 2.350207,-0.826557 0,-0.742959 -0.48812,-1.538144 -1.084711,-1.767077 -0.596591,-0.228934 -1.08471,-0.75187 -1.08471,-1.162079 0,-0.41021 0.488119,-0.745837 1.08471,-0.745837 1.850655,0 1.191551,-2.16423 -0.903925,-2.968128 -1.09375,-0.4196 -4.987618,-0.655606 -8.653039,-0.524456 -5.204897,0.186231 -6.946005,0.520314 -7.950262,1.525492 -1.232461,1.23359 -1.218469,1.304663 0.336922,1.711407 1.861542,0.486804 2.126922,1.553901 0.538073,2.163601 -0.596591,0.228933 -1.084711,1.024118 -1.084711,1.767077 0,1.149468 0.35034,1.272681 2.350207,0.826557 1.292613,-0.288352 4.465392,-0.524277 7.05062,-0.524277 z m -2.727845,-3.386714 c 0.368188,-1.104565 4.809093,-1.304822 5.078051,-0.228988 0.09943,0.397727 -1.073863,0.826185 -2.607321,0.952128 -2.054796,0.168761 -2.704632,-0.02143 -2.47073,-0.72314 z m 4.921442,-5.539441 c 9.1442,0.312985 8.813864,0.668134 6.218031,-6.685084 -2.438975,-6.908888 -10.443173,-18.737935 -12.679141,-18.737935 -1.165779,0 -4.159905,4.364793 -6.662174,9.71202 -2.757342,5.892304 -2.961355,9.638367 -0.758885,13.934545 1.501019,2.927913 1.635945,3.00953 3.754387,2.271037 1.243122,-0.433355 5.641407,-0.648142 10.127782,-0.494583 z m 10.498437,-6.254969 c 0.66113,-4.408735 0.01009,-7.309611 -2.983385,-13.293214 -2.883525,-5.763826 -4.845618,-7.040865 -6.812175,-4.433742 -1.171533,1.553137 -1.105318,1.774254 1.851911,6.184257 2.935998,4.378341 6.098722,11.500847 6.098722,13.734421 0,2.453986 1.39716,0.794197 1.844927,-2.191722 z M 28.873938,9.8712302 c 0.511593,-1.333189 -1.237265,-2.7227798 -2.206681,-1.753364 -0.789305,0.7893042 -0.06489,2.9110578 0.993901,2.9110578 0.422692,0 0.968443,-0.520962 1.21278,-1.1576938 z m 9.391473,0.024377 C 38.868119,8.3249736 37.33803,6.8479211 36.242823,7.943128 c -0.925644,0.9256422 -0.352207,3.085796 0.819161,3.085796 0.422692,0 0.964235,-0.509993 1.203427,-1.1333181 z"
       id="path2928" />
    <path
       style="fill:#ffffff"
       d="M 10.245002,55.669926 C 8.1265587,55.519933 7.4545455,55.383857 7.4545455,55.104887 c 0,-0.35197 2.1119254,-2.274977 2.9372615,-2.674516 1.227668,-0.594304 2.474267,-0.757752 5.769373,-0.756453 4.118081,0.0016 8.952136,0.719933 10.747911,1.597071 0.35,0.170956 0.636364,0.392647 0.636364,0.492647 0,0.29163 -2.74117,1.168796 -4.574381,1.463789 -1.652153,0.265858 -7.905998,0.643673 -9.880165,0.596893 -0.55,-0.01303 -1.830658,-0.08251 -2.845907,-0.154392 z"
       id="path2930" />
    <path
       style="fill:#ffffff"
       d="m 44.636364,55.547558 c -1.805514,-0.118417 -5.474829,-0.601189 -6.394633,-0.841341 -1.276774,-0.333354 -1.970266,-0.794262 -1.694684,-1.126318 0.321187,-0.387007 2.225362,-0.952719 4.72568,-1.403954 1.942937,-0.350645 2.892734,-0.409606 6.545455,-0.406329 4.813257,0.0043 5.130233,0.06729 6.841218,1.359095 0.970673,0.732864 2.016,1.929223 1.839709,2.105514 -0.359689,0.359688 -8.05635,0.562982 -11.862745,0.313333 z"
       id="path2932" />
    <path
       style="fill:#ffffff"
       d="m 27.545455,51.387194 c -2.29314,-0.391802 -3.09091,-0.672126 -3.09091,-1.086099 0,-0.513585 1.228012,-0.774636 4.78871,-1.017984 2.187816,-0.149521 3.720864,-0.149477 5.818182,1.69e-4 3.056234,0.218066 4.032873,0.409935 4.41202,0.86678 0.470135,0.566478 -0.45324,0.871282 -4.057436,1.339351 -1.888764,0.245289 -6.16146,0.189799 -7.870566,-0.102217 z"
       id="path2934" />
    <path
       style="fill:#ffffff"
       d="m 22.848485,48.09697 c -0.204229,-0.20423 -0.122155,-1.399315 0.126939,-1.848354 0.129396,-0.233262 0.556043,-0.603497 0.948103,-0.822745 0.503967,-0.281828 0.729197,-0.53865 0.768672,-0.876489 0.06895,-0.590129 -0.408556,-0.961189 -1.737654,-1.350285 C 22.429545,43.045402 22,42.81225 22,42.680983 c 0,-0.42104 1.376623,-1.498845 2.293433,-1.795607 1.539048,-0.498173 3.847836,-0.702465 8.070203,-0.714087 4.13709,-0.01139 6.542493,0.212429 7.478342,0.695837 0.263089,0.135897 0.692635,0.501757 0.954546,0.813021 0.757225,0.899911 0.5609,1.810762 -0.390295,1.810762 -1.196901,0 -1.507488,0.925713 -0.574096,1.71111 0.307671,0.25889 0.632843,0.470708 0.722603,0.470708 0.581902,0 0.973579,2.276971 0.427709,2.486441 -0.159656,0.06127 -1.284656,-0.04105 -2.5,-0.227375 -2.958696,-0.453592 -10.242952,-0.461075 -12.889579,-0.01324 -1.920414,0.324952 -2.556495,0.366305 -2.744381,0.178419 z m 10.833333,-3.570807 c 1.437098,-0.610036 0.587104,-1.299437 -1.590909,-1.290332 -1.970951,0.0082 -3.078827,0.586324 -2.752652,1.43632 0.109722,0.285934 0.3195,0.311705 1.892572,0.232508 1.01445,-0.05107 2.060032,-0.212537 2.450989,-0.378496 z"
       id="path2936" />
    <path
       style="fill:#ffffff"
       d="m 21.731447,39.057067 c -0.551989,-0.551989 -1.864803,-3.144367 -2.312363,-4.566158 -0.188871,-0.6 -0.391858,-1.830147 -0.451081,-2.733662 -0.189649,-2.893324 0.648812,-5.871161 2.88138,-10.233364 2.480564,-4.84676 4.892715,-8.214792 5.883351,-8.214792 1.674642,0 7.324791,7.585381 10.773659,14.463742 1.255607,2.504161 2.667596,6.162843 3.198729,8.288403 0.354873,1.420175 0.202642,2.06276 -0.557104,2.351615 -0.304911,0.115927 -3.429316,0.205991 -8.139624,0.234631 -7.229664,0.04396 -7.722847,0.06812 -9.082933,0.444956 -1.765885,0.489269 -1.667792,0.490851 -2.194014,-0.03537 l 0,0 z"
       id="path2938" />
    <path
       style="fill:#ffffff"
       d="m 43.022457,35.263636 c -0.04146,-0.225 -0.172648,-0.940909 -0.29153,-1.590909 -0.490167,-2.680027 -3.2767,-8.70427 -5.933916,-12.828612 -2.591798,-4.022803 -2.743774,-4.390395 -2.260985,-5.46874 0.17379,-0.388172 0.628452,-0.98012 1.010361,-1.31544 0.618909,-0.54341 0.781794,-0.599821 1.498653,-0.51902 1.456189,0.164134 2.805977,1.91154 5.042491,6.527905 2.354194,4.859266 3.065756,7.875626 2.663159,11.289303 -0.264802,2.245292 -0.98201,4.314604 -1.49541,4.314604 -0.08659,0 -0.191364,-0.184091 -0.232823,-0.409091 l 0,0 z"
       id="path2940" />
    <path
       style="fill:#ffffff"
       d="M 36.238657,10.464429 C 35.50397,9.3431536 36.013918,7.6727273 37.090909,7.6727273 c 1.089823,0 1.595456,1.475043 0.872563,2.5454547 -0.570835,0.845252 -1.267191,0.944669 -1.724815,0.246247 l 0,0 z"
       id="path2942" />
    <path
       style="fill:#ffffff"
       d="m 27.040835,10.62694 c -0.346808,-0.383219 -0.677199,-1.2093532 -0.677199,-1.6933218 0,-0.4640109 0.629781,-1.0790727 1.104895,-1.0790727 0.525924,0 1.44056,0.9634982 1.44056,1.5175184 0,0.551493 -0.818816,1.5733911 -1.26071,1.5733911 -0.175612,0 -0.449008,-0.143332 -0.607546,-0.318515 z"
       id="path2944" />
  </g>
</svg>
