<?xml version="1.0" encoding="UTF-8" standalone="no"?>
<!-- Created with Inkscape (http://www.inkscape.org/) -->

<svg
   xmlns:dc="http://purl.org/dc/elements/1.1/"
   xmlns:cc="http://creativecommons.org/ns#"
   xmlns:rdf="http://www.w3.org/1999/02/22-rdf-syntax-ns#"
   xmlns:svg="http://www.w3.org/2000/svg"
   xmlns="http://www.w3.org/2000/svg"
   xmlns:sodipodi="http://sodipodi.sourceforge.net/DTD/sodipodi-0.dtd"
   xmlns:inkscape="http://www.inkscape.org/namespaces/inkscape"
   width="64px"
   height="64px"
   id="svg2816"
   version="1.1"
   inkscape:version="0.47 r22583"
   sodipodi:docname="wb.svg">
  <defs
     id="defs2818">
    <inkscape:perspective
       sodipodi:type="inkscape:persp3d"
       inkscape:vp_x="0 : 32 : 1"
       inkscape:vp_y="0 : 1000 : 0"
       inkscape:vp_z="64 : 32 : 1"
       inkscape:persp3d-origin="32 : 21.333333 : 1"
       id="perspective2824" />
    <inkscape:perspective
       id="perspective2838"
       inkscape:persp3d-origin="0.5 : 0.33333333 : 1"
       inkscape:vp_z="1 : 0.5 : 1"
       inkscape:vp_y="0 : 1000 : 0"
       inkscape:vp_x="0 : 0.5 : 1"
       sodipodi:type="inkscape:persp3d" />
    <inkscape:perspective
       id="perspective2870"
       inkscape:persp3d-origin="0.5 : 0.33333333 : 1"
       inkscape:vp_z="1 : 0.5 : 1"
       inkscape:vp_y="0 : 1000 : 0"
       inkscape:vp_x="0 : 0.5 : 1"
       sodipodi:type="inkscape:persp3d" />
    <inkscape:perspective
       id="perspective2900"
       inkscape:persp3d-origin="0.5 : 0.33333333 : 1"
       inkscape:vp_z="1 : 0.5 : 1"
       inkscape:vp_y="0 : 1000 : 0"
       inkscape:vp_x="0 : 0.5 : 1"
       sodipodi:type="inkscape:persp3d" />
    <inkscape:perspective
       id="perspective2922"
       inkscape:persp3d-origin="0.5 : 0.33333333 : 1"
       inkscape:vp_z="1 : 0.5 : 1"
       inkscape:vp_y="0 : 1000 : 0"
       inkscape:vp_x="0 : 0.5 : 1"
       sodipodi:type="inkscape:persp3d" />
    <inkscape:perspective
       id="perspective2954"
       inkscape:persp3d-origin="0.5 : 0.33333333 : 1"
       inkscape:vp_z="1 : 0.5 : 1"
       inkscape:vp_y="0 : 1000 : 0"
       inkscape:vp_x="0 : 0.5 : 1"
       sodipodi:type="inkscape:persp3d" />
  </defs>
  <sodipodi:namedview
     id="base"
     pagecolor="#ffffff"
     bordercolor="#666666"
     borderopacity="1.0"
     inkscape:pageopacity="0.0"
     inkscape:pageshadow="2"
     inkscape:zoom="5.5"
     inkscape:cx="32"
     inkscape:cy="32"
     inkscape:current-layer="layer1"
     showgrid="true"
     inkscape:document-units="px"
     inkscape:grid-bbox="true"
     inkscape:window-width="1365"
     inkscape:window-height="878"
     inkscape:window-x="-8"
     inkscape:window-y="-8"
     inkscape:window-maximized="1" />
  <metadata
     id="metadata2821">
    <rdf:RDF>
      <cc:Work
         rdf:about="">
        <dc:format>image/svg+xml</dc:format>
        <dc:type
           rdf:resource="http://purl.org/dc/dcmitype/StillImage" />
        <dc:title></dc:title>
      </cc:Work>
    </rdf:RDF>
  </metadata>
  <g
     id="layer1"
     inkscape:label="Layer 1"
     inkscape:groupmode="layer">
    <text
       xml:space="preserve"
       style="font-size:64px;font-style:normal;font-weight:normal;fill:#000000;fill-opacity:1;stroke:none;font-family:babaschess fritzright;-inkscape-font-specification:babaschess fritzright"
       x="0"
       y="64"
       id="text2826"><tspan
         sodipodi:role="line"
         id="tspan2828"
         x="0"
         y="64" /></text>
    <path
       style="fill:#000000"
       d="m 20.455197,56.070401 c -1.358713,-2.54603 -0.806308,-3.602753 5.398111,-10.326305 3.380682,-3.66355 6.146694,-6.966931 6.146694,-7.340849 0,-0.373917 -0.73218,-0.483072 -1.627066,-0.242567 -0.894887,0.240505 -2.957839,0.441739 -4.584339,0.447185 -2.430637,0.0081 -3.100856,0.325936 -3.763558,1.784563 -1.268144,2.791226 -4.20315,4.3083 -8.217553,4.247567 -7.5506026,-0.114233 -9.1683051,-6.223635 -3.130834,-11.82388 1.07501,-0.997159 2.71323,-3.522104 3.640489,-5.610988 0.927259,-2.088884 2.494175,-4.8628 3.482037,-6.164256 1.62988,-2.147283 1.703244,-2.534082 0.792688,-4.179301 -1.91916,-3.467595 -0.910374,-7.3296379 1.553365,-5.946921 1.115576,0.626092 1.479159,0.402428 2.220628,-1.3660465 1.121342,-2.6745073 1.91571,-2.6619383 3.849019,0.060901 1.054291,1.4848451 2.160535,2.1783521 3.484159,2.1842271 1.066667,0.0047 3.652368,0.465915 5.746002,1.024847 14.055952,3.752478 21.974635,17.36915 20.949615,36.024172 -0.214228,3.89887 -0.603257,7.435699 -0.864508,7.859622 -0.313496,0.508696 -6.229948,0.770767 -17.400684,0.770767 -15.993823,0 -16.966896,-0.07723 -17.674265,-1.402738 z m 33.761317,-3.129803 c -0.190561,-1.695171 -0.574009,-3.76775 -0.852106,-4.605732 -0.332656,-1.002382 -0.09132,-1.939103 0.705466,-2.738162 1.215781,-1.219254 1.127095,-1.909982 -0.546564,-4.256905 -0.715148,-1.002831 -0.718548,-1.563211 -0.01633,-2.690856 1.009603,-1.621249 0.577206,-3.351957 -0.987926,-3.954271 -0.785418,-0.302254 -0.941827,-1.058764 -0.59843,-2.894458 0.384487,-2.055344 0.202824,-2.625915 -1.050172,-3.298413 -0.894669,-0.480181 -1.515079,-1.528923 -1.515079,-2.561093 0,-1.183808 -0.631937,-2.053264 -1.958056,-2.694009 -1.076929,-0.520344 -2.148382,-1.758487 -2.381004,-2.751429 -0.583355,-2.490039 -7.121324,-5.736332 -13.619456,-6.76246 -4.086605,-0.64532 -5.275752,-1.130944 -5.974207,-2.439747 -0.479616,-0.898732 -1.178946,-1.4438305 -1.554067,-1.211331 -0.732065,0.453734 -0.415304,4.874574 0.498777,6.961139 0.350043,0.79904 0.2458,1.269112 -0.281436,1.269112 -0.460574,0 -1.303992,-1.119885 -1.874262,-2.488633 -0.570271,-1.368747 -1.388849,-2.706798 -1.819064,-2.973445 -1.489273,-0.923051 -1.629797,0.383366 -0.347891,3.234249 l 1.287536,2.863404 -2.982236,4.478694 c -1.640231,2.463283 -2.982238,4.920129 -2.982238,5.459659 0,0.539529 -1.464359,2.634464 -3.254132,4.65541 -3.4636497,3.911027 -4.222901,6.993373 -2.1480062,8.720303 0.8457872,0.703947 1.5265822,0.728505 2.8925622,0.104345 0.982539,-0.448954 1.786436,-1.149619 1.786436,-1.557034 0,-0.407415 0.48812,-0.740754 1.084711,-0.740754 1.307577,0 1.397979,0.846166 0.216942,2.030578 -0.674931,0.676859 -0.587278,0.870248 0.39444,0.870248 0.694215,0 2.060951,-0.801023 3.037191,-1.780052 1.797019,-1.802154 2.37751,-4.021601 1.05184,-4.021601 -0.397727,0 -0.723141,-0.26784 -0.723141,-0.595201 0,-0.327362 2.705156,-0.452813 6.011457,-0.278781 4.865974,0.256129 6.234075,0.09317 7.179752,-0.85521 1.516923,-1.521258 1.994742,-1.47872 1.994742,0.177579 0,1.976203 -3.108422,6.296 -8.758047,12.171118 -2.739892,2.849251 -4.981623,5.351718 -4.981623,5.561039 0,0.20932 0.197523,0.896787 0.438939,1.527705 0.382253,0.998981 2.539573,1.147123 16.705047,1.147123 l 16.266109,0 -0.346475,-3.082128 z M 11.752068,38.730166 c 0,-0.337045 0.650826,-1.203482 1.446281,-1.925415 1.148076,-1.041963 1.446281,-1.095044 1.446281,-0.25744 0,1.137481 -1.372524,2.795663 -2.31405,2.795663 -0.318181,0 -0.578512,-0.275764 -0.578512,-0.612808 z m 9.88292,-10.748762 c -0.265151,-0.265909 -0.482094,-1.244938 -0.482094,-2.17562 0,-1.872136 1.894646,-2.278774 4.386383,-0.941426 1.644408,0.882574 1.947806,3.241787 0.337189,2.621969 -0.583853,-0.224686 -1.253885,-0.09643 -1.488958,0.285014 -0.492823,0.799683 -2.046357,0.918244 -2.75252,0.210063 z"
       id="path2960" />
    <path
       style="fill:#ffffff"
       d="m 28.636364,55.854325 c -3.115021,-0.07049 -5.39101,-0.20142 -5.864123,-0.337354 -0.850536,-0.244375 -1.230156,-0.69364 -1.407476,-1.6657 -0.134185,-0.735595 -0.254535,-0.586395 5.440444,-6.744569 5.87696,-6.354955 8.103378,-9.548771 8.103738,-11.624884 1.82e-4,-1.433196 -0.454676,-1.497325 -1.839727,-0.25934 -1.111465,0.993449 -1.520058,1.050627 -7.642259,1.069457 -3.067847,0.0094 -5.627686,0.06681 -5.68853,0.127496 -0.233387,0.232784 0.125469,0.668307 0.681177,0.826707 0.447443,0.127538 0.593728,0.280278 0.638612,0.666784 0.144157,1.241378 -1.661524,3.578727 -3.458324,4.476598 -1.766733,0.882847 -2.361922,0.682827 -1.452113,-0.487998 0.70024,-0.901135 0.803525,-1.251513 0.467868,-1.587169 -0.576825,-0.576826 -2.070196,-0.15358 -2.070196,0.586727 0,0.350313 -1.321802,1.304178 -2.221212,1.602913 -1.146305,0.380742 -1.793386,0.216083 -2.582244,-0.657089 -0.7633869,-0.844979 -0.9162251,-1.352911 -0.7724289,-2.567044 0.1982141,-1.673609 1.2933219,-3.511573 3.9367069,-6.607133 1.324276,-1.550805 2.115796,-2.793172 2.710343,-4.254143 0.558885,-1.373343 1.983844,-3.779853 4.23346,-7.149589 0.782456,-1.172053 1.422647,-2.259403 1.422647,-2.416334 0,-0.156931 -0.171506,-0.621508 -0.381124,-1.032394 -0.777163,-1.523366 -1.638305,-4.011826 -1.583505,-4.575886 0.04728,-0.486618 0.121714,-0.564268 0.500403,-0.522004 0.691428,0.07717 0.996307,0.46343 2.203531,2.791737 1.060836,2.045978 1.799993,2.977692 2.245991,2.831091 0.347535,-0.114235 0.319254,-0.799537 -0.0854,-2.06943 -0.540074,-1.694873 -0.730006,-5.670455 -0.288413,-6.036945 0.253354,-0.210265 0.373661,-0.157919 0.886286,0.385626 0.326227,0.345904 0.747371,0.855584 0.935876,1.132622 0.526062,0.773129 1.928607,1.30093 5.111809,1.923659 4.51338,0.882953 6.660129,1.546274 9.509453,2.938316 2.56223,1.251781 4.306792,2.730524 4.675116,3.962765 0.307329,1.028187 0.993669,1.77665 2.590284,2.824744 1.025974,0.673499 1.677916,1.545233 1.679012,2.245071 0.0015,0.931808 0.436111,1.861479 1.167813,2.497829 1.586482,1.37974 1.560205,1.343778 1.558767,2.133258 -7.27e-4,0.414504 -0.08102,1.244553 -0.178362,1.844553 -0.240992,1.485407 -0.05051,2.071285 0.87632,2.695425 C 53.531204,35.38474 54,36.117671 54,36.860496 c 0,0.263204 -0.252175,1.053109 -0.560385,1.755342 -0.343108,0.78174 -0.520577,1.435406 -0.457713,1.685877 0.05647,0.225 0.485918,1.036285 0.954325,1.802856 0.478186,0.782573 0.851651,1.616385 0.851651,1.901422 0,0.303709 -0.308731,0.945432 -0.768483,1.597363 -0.876777,1.243268 -0.949495,1.784269 -0.4981,3.705735 0.152698,0.65 0.40472,2.163636 0.560047,3.363636 0.155325,1.2 0.318151,2.447728 0.361831,2.772728 l 0.07942,0.590909 -10.39766,-0.03342 C 38.40622,55.98456 31.436364,55.917684 28.636364,55.854325 z M 13.65721,38.581842 c 0.71592,-0.752587 1.20312,-1.936484 1.00711,-2.447278 -0.100371,-0.261564 -0.166925,-0.264504 -0.62503,-0.02761 -0.560129,0.289654 -1.871294,1.63941 -2.213288,2.278434 -0.165573,0.309375 -0.165154,0.461398 0.0018,0.662596 0.399088,0.480871 1.097897,0.30281 1.829383,-0.466143 l 0,0 z M 24.357658,27.922584 c 0.473898,-0.398759 0.689575,-0.461026 1.309067,-0.377935 0.998561,0.133936 1.242366,0.0078 1.242366,-0.642641 0,-1.352929 -1.731904,-2.662274 -3.741939,-2.828962 -0.88905,-0.07373 -1.015542,-0.03445 -1.522913,0.472925 C 21.048407,25.141803 20.9601,25.70811 21.260915,27.004202 21.506858,28.063869 21.907193,28.4 22.92332,28.4 c 0.67057,0 0.995489,-0.108149 1.434338,-0.477416 l 0,0 z"
       id="path2962" />
  </g>
</svg>
