<?xml version="1.0" encoding="UTF-8" standalone="no"?>
<!-- Created with Inkscape (http://www.inkscape.org/) -->

<svg
   xmlns:dc="http://purl.org/dc/elements/1.1/"
   xmlns:cc="http://creativecommons.org/ns#"
   xmlns:rdf="http://www.w3.org/1999/02/22-rdf-syntax-ns#"
   xmlns:svg="http://www.w3.org/2000/svg"
   xmlns="http://www.w3.org/2000/svg"
   xmlns:sodipodi="http://sodipodi.sourceforge.net/DTD/sodipodi-0.dtd"
   xmlns:inkscape="http://www.inkscape.org/namespaces/inkscape"
   width="64px"
   height="64px"
   id="svg2816"
   version="1.1"
   inkscape:version="0.47 r22583"
   sodipodi:docname="wp.svg">
  <defs
     id="defs2818">
    <inkscape:perspective
       sodipodi:type="inkscape:persp3d"
       inkscape:vp_x="0 : 32 : 1"
       inkscape:vp_y="0 : 1000 : 0"
       inkscape:vp_z="64 : 32 : 1"
       inkscape:persp3d-origin="32 : 21.333333 : 1"
       id="perspective2824" />
    <inkscape:perspective
       id="perspective2838"
       inkscape:persp3d-origin="0.5 : 0.33333333 : 1"
       inkscape:vp_z="1 : 0.5 : 1"
       inkscape:vp_y="0 : 1000 : 0"
       inkscape:vp_x="0 : 0.5 : 1"
       sodipodi:type="inkscape:persp3d" />
    <inkscape:perspective
       id="perspective2870"
       inkscape:persp3d-origin="0.5 : 0.33333333 : 1"
       inkscape:vp_z="1 : 0.5 : 1"
       inkscape:vp_y="0 : 1000 : 0"
       inkscape:vp_x="0 : 0.5 : 1"
       sodipodi:type="inkscape:persp3d" />
    <inkscape:perspective
       id="perspective2900"
       inkscape:persp3d-origin="0.5 : 0.33333333 : 1"
       inkscape:vp_z="1 : 0.5 : 1"
       inkscape:vp_y="0 : 1000 : 0"
       inkscape:vp_x="0 : 0.5 : 1"
       sodipodi:type="inkscape:persp3d" />
    <inkscape:perspective
       id="perspective2922"
       inkscape:persp3d-origin="0.5 : 0.33333333 : 1"
       inkscape:vp_z="1 : 0.5 : 1"
       inkscape:vp_y="0 : 1000 : 0"
       inkscape:vp_x="0 : 0.5 : 1"
       sodipodi:type="inkscape:persp3d" />
    <inkscape:perspective
       id="perspective2954"
       inkscape:persp3d-origin="0.5 : 0.33333333 : 1"
       inkscape:vp_z="1 : 0.5 : 1"
       inkscape:vp_y="0 : 1000 : 0"
       inkscape:vp_x="0 : 0.5 : 1"
       sodipodi:type="inkscape:persp3d" />
    <inkscape:perspective
       id="perspective2972"
       inkscape:persp3d-origin="0.5 : 0.33333333 : 1"
       inkscape:vp_z="1 : 0.5 : 1"
       inkscape:vp_y="0 : 1000 : 0"
       inkscape:vp_x="0 : 0.5 : 1"
       sodipodi:type="inkscape:persp3d" />
  </defs>
  <sodipodi:namedview
     id="base"
     pagecolor="#ffffff"
     bordercolor="#666666"
     borderopacity="1.0"
     inkscape:pageopacity="0.0"
     inkscape:pageshadow="2"
     inkscape:zoom="5.5"
     inkscape:cx="32"
     inkscape:cy="32"
     inkscape:current-layer="layer1"
     showgrid="true"
     inkscape:document-units="px"
     inkscape:grid-bbox="true"
     inkscape:window-width="1365"
     inkscape:window-height="878"
     inkscape:window-x="-8"
     inkscape:window-y="-8"
     inkscape:window-maximized="1" />
  <metadata
     id="metadata2821">
    <rdf:RDF>
      <cc:Work
         rdf:about="">
        <dc:format>image/svg+xml</dc:format>
        <dc:type
           rdf:resource="http://purl.org/dc/dcmitype/StillImage" />
        <dc:title />
      </cc:Work>
    </rdf:RDF>
  </metadata>
  <g
     id="layer1"
     inkscape:label="Layer 1"
     inkscape:groupmode="layer">
    <text
       xml:space="preserve"
       style="font-size:64px;font-style:normal;font-weight:normal;fill:#000000;fill-opacity:1;stroke:none;font-family:babaschess fritzright;-inkscape-font-specification:babaschess fritzright"
       x="0"
       y="64"
       id="text2826"><tspan
         sodipodi:role="line"
         id="tspan2828"
         x="0"
         y="64" /></text>
    <path
       style="fill:#000000"
       d="m 15.406238,53.898359 c 0.283987,-2.425258 4.042626,-5.103589 8.058101,-5.742041 2.743004,-0.436132 2.834315,-0.539453 2.386652,-2.700561 -1.276984,-6.164674 -1.255907,-7.055966 0.249126,-10.534631 0.844935,-1.952945 1.536246,-4.548077 1.536246,-5.766959 l 0,-2.21615 -5.454546,0 c -4.306064,0 -5.454545,-0.223093 -5.454545,-1.059549 0,-1.904846 4.257788,-5.935174 7.618228,-7.211246 3.228221,-1.225863 3.281004,-1.298221 2.859397,-3.91982 -0.577589,-3.591523 1.407614,-6.1289442 4.795102,-6.1289442 3.387489,0 5.372691,2.5374212 4.795102,6.1289442 -0.421606,2.621599 -0.368823,2.693957 2.859397,3.91982 3.36044,1.276072 7.618229,5.3064 7.618229,7.211246 0,0.836456 -1.148481,1.059549 -5.454546,1.059549 l -5.454545,0 0,2.21615 c 0,1.218882 0.69131,3.814014 1.536245,5.766959 1.505033,3.478665 1.526111,4.369957 0.249127,10.534631 -0.447663,2.161108 -0.356353,2.264429 2.386652,2.700561 4.015475,0.638452 7.774114,3.316783 8.058101,5.742041 l 0.230126,1.965278 -16.823888,0 -16.823887,0 0.230126,-1.965278 z m 31.173104,-0.864323 c -0.701303,-1.302952 -5.176624,-3.346539 -8.397525,-3.834602 -1.837272,-0.278402 -2.256664,-2.840125 -1.056794,-6.455108 0.785361,-2.366146 0.704781,-3.245942 -0.632767,-6.908667 -0.843004,-2.308476 -1.6259,-5.173469 -1.739769,-6.36665 -0.186707,-1.956432 -0.456059,-2.169422 -2.743502,-2.169422 -2.459914,0 -2.550902,0.100332 -3.014707,3.324307 -0.263031,1.82837 -1.03423,4.393368 -1.713775,5.699996 -0.83294,1.601577 -1.075737,3.110328 -0.745126,4.630239 0.269725,1.240002 0.545971,3.517513 0.613879,5.061137 0.121555,2.763049 0.071,2.819928 -3.259349,3.66659 -3.665915,0.931972 -7.162635,2.898901 -7.162635,4.02903 0,0.437476 5.82495,0.70647 15.298316,0.70647 14.840851,0 15.276051,-0.04136 14.553754,-1.38332 z M 45.090908,24.894649 c 0,-1.112834 -3.257139,-3.561803 -6.735863,-5.064544 -3.845729,-1.661278 -4.680179,-2.892411 -3.476369,-5.12897 1.213373,-2.254327 -0.20892,-4.39535 -2.919857,-4.39535 -2.666708,0 -4.423996,2.836098 -2.893471,4.669789 1.423443,1.705401 0.353173,3.224425 -3.420395,4.854531 -3.478723,1.502741 -6.735863,3.95171 -6.735863,5.064544 0,0.328397 5.890909,0.597087 13.090909,0.597087 7.2,0 13.090909,-0.26869 13.090909,-0.597087 z"
       id="path2978" />
    <path
       style="fill:#ffffff"
       d="M 22.363636,54.213318 C 17.812424,54.049 16.909091,53.928727 16.909091,53.487085 c 0,-0.88314 3.376295,-2.69174 6.940478,-3.71785 2.457732,-0.707568 2.988843,-0.98344 3.266918,-1.696926 0.227607,-0.583994 0.08238,-3.139711 -0.327498,-5.763218 -0.394095,-2.522497 -0.261986,-4.211062 0.451462,-5.770423 0.803946,-1.75716 1.430123,-3.848457 1.849253,-6.176105 0.200694,-1.114563 0.48294,-2.206632 0.627212,-2.426819 0.521394,-0.795747 4.051633,-0.806232 4.54424,-0.0135 0.132212,0.212764 0.375767,1.150098 0.541233,2.082963 0.165467,0.932865 0.781782,3.182865 1.369589,5 1.64674,5.090694 1.646529,5.08822 0.717215,8.39479 -0.516266,1.836909 -0.56552,3.931418 -0.112111,4.767338 0.395883,0.72986 0.737882,0.9139 2.474082,1.33138 2.853383,0.686113 5.997749,2.139266 6.932398,3.203773 0.619694,0.705793 0.683145,1.055791 0.225529,1.244038 -0.974966,0.401067 -15.777351,0.565302 -24.045455,0.266789 z"
       id="path3025" />
    <path
       style="fill:#ffffff"
       d="m 24.5242,25.303878 c -2.16169,-0.07043 -4.308961,-0.184836 -4.771714,-0.25423 l -0.841369,-0.126171 0.256202,-0.489011 c 0.611148,-1.166498 2.82157,-2.710007 6.558794,-4.579921 2.820557,-1.41126 3.910251,-2.332823 3.910251,-3.30693 0,-0.362842 -0.247145,-1.121195 -0.568386,-1.744068 C 28.617854,13.930774 28.5242,13.570302 28.61786,13.071054 28.904408,11.54362 30.371477,10.4 32.044365,10.4 c 1.117514,0 1.93571,0.344112 2.547799,1.071539 0.722033,0.858088 0.806103,1.656573 0.304573,2.892824 -0.247998,0.611306 -0.42466,1.435279 -0.431167,2.011016 -0.01049,0.928186 0.02738,1.009454 0.782633,1.679641 0.436511,0.387344 1.819561,1.211226 3.073444,1.830849 3.608091,1.782986 5.899822,3.382128 6.506766,4.540342 0.245572,0.468621 0.236505,0.48365 -0.359235,0.595412 -0.864362,0.162155 -10.225984,0.467504 -13.378269,0.43636 -1.45,-0.01433 -4.405019,-0.08367 -6.566709,-0.154105 z"
       id="path3027" />
  </g>
</svg>
