<?xml version="1.0" encoding="UTF-8" standalone="no"?>
<!-- Created with Inkscape (http://www.inkscape.org/) -->

<svg
   xmlns:dc="http://purl.org/dc/elements/1.1/"
   xmlns:cc="http://creativecommons.org/ns#"
   xmlns:rdf="http://www.w3.org/1999/02/22-rdf-syntax-ns#"
   xmlns:svg="http://www.w3.org/2000/svg"
   xmlns="http://www.w3.org/2000/svg"
   xmlns:sodipodi="http://sodipodi.sourceforge.net/DTD/sodipodi-0.dtd"
   xmlns:inkscape="http://www.inkscape.org/namespaces/inkscape"
   width="64px"
   height="64px"
   id="svg2985"
   version="1.1"
   inkscape:version="0.47 r22583"
   sodipodi:docname="bb.svg">
  <defs
     id="defs2987">
    <inkscape:perspective
       sodipodi:type="inkscape:persp3d"
       inkscape:vp_x="0 : 32 : 1"
       inkscape:vp_y="0 : 1000 : 0"
       inkscape:vp_z="64 : 32 : 1"
       inkscape:persp3d-origin="32 : 21.333333 : 1"
       id="perspective12" />
    <filter
       id="filter2818"
       inkscape:label="Eroded metal"
       inkscape:menu="Materials"
       inkscape:menu-tooltip="Eroded metal texture with ridges, grooves, holes and bumps"
       color-interpolation-filters="sRGB">
      <feGaussianBlur
         id="feGaussianBlur2820"
         result="result0"
         in="SourceGraphic"
         stdDeviation="0.9" />
      <feTurbulence
         id="feTurbulence2822"
         type="turbulence"
         baseFrequency="0.01"
         seed="4"
         numOctaves="4"
         result="result1" />
      <feDisplacementMap
         id="feDisplacementMap2824"
         in2="result1"
         xChannelSelector="R"
         result="result91" />
      <feComposite
         id="feComposite2826"
         in2="result91"
         result="result2"
         operator="out"
         in="result0" />
      <feComposite
         id="feComposite2828"
         in2="result2"
         k1="0.1"
         k3="1.2"
         in="SourceAlpha"
         operator="arithmetic"
         result="result5" />
      <feBlend
         id="feBlend2830"
         in2="result5"
         result="fbSourceGraphic"
         mode="multiply" />
      <feGaussianBlur
         id="feGaussianBlur2832"
         stdDeviation="3"
         in="fbSourceGraphic"
         result="result0" />
      <feSpecularLighting
         id="feSpecularLighting2834"
         in="result0"
         result="result1"
         lighting-color="rgb(224,132,0)"
         surfaceScale="3"
         specularConstant="0.35"
         specularExponent="5">
        <feDistantLight
           azimuth="225"
           elevation="45"
           id="feDistantLight14" />
      </feSpecularLighting>
      <feComposite
         id="feComposite2838"
         in2="fbSourceGraphic"
         in="result1"
         result="result2"
         operator="in" />
      <feComposite
         id="feComposite2840"
         in2="result2"
         k1="-1"
         in="fbSourceGraphic"
         result="result4"
         operator="arithmetic"
         k2="2.5"
         k3="3.5" />
      <feBlend
         id="feBlend2842"
         in2="result4"
         mode="multiply" />
    </filter>
  </defs>
  <sodipodi:namedview
     id="base"
     pagecolor="#ffffff"
     bordercolor="#666666"
     borderopacity="1.0"
     inkscape:pageopacity="0.0"
     inkscape:pageshadow="2"
     inkscape:zoom="5.5"
     inkscape:cx="-2.1274885"
     inkscape:cy="32"
     inkscape:current-layer="layer1"
     showgrid="true"
     inkscape:document-units="px"
     inkscape:grid-bbox="true"
     inkscape:window-width="1270"
     inkscape:window-height="743"
     inkscape:window-x="0"
     inkscape:window-y="0"
     inkscape:window-maximized="1" />
  <metadata
     id="metadata2990">
    <rdf:RDF>
      <cc:Work
         rdf:about="">
        <dc:format>image/svg+xml</dc:format>
        <dc:type
           rdf:resource="http://purl.org/dc/dcmitype/StillImage" />
        <dc:title />
      </cc:Work>
    </rdf:RDF>
  </metadata>
  <g
     id="layer1"
     inkscape:label="Layer 1"
     inkscape:groupmode="layer">
    <path
       style="fill:#000000"
       d="M 2.0310639,60.8837 C 1.6690383,59.845195 1.764603,57.151578 2.205255,55.973828 2.9788786,53.906136 5.1597261,52.38398 8.1751831,51.807028 10.735347,51.317187 16.164243,51.512903 19.455978,52.213709 l 0.516147,0.109889 -0.28717,-1.233828 C 19.51791,50.372062 19.367231,48.505218 19.324743,46.626918 l -0.07304,-3.229023 -0.893354,-1.565587 C 15.80493,37.357482 14.473111,31.669293 15.103086,27.929095 15.862108,23.422748 18.751335,17.968402 23.508901,12.06042 25.256954,9.8896737 25.261504,9.8811372 24.80119,9.6347844 23.708122,9.0497923 23.277981,6.5502423 24.014533,5.063539 c 0.871241,-1.7585727 3.344491,-2.4325116 5.116318,-1.3941513 1.632608,0.9567715 2.274631,3.0013089 1.466612,4.6704539 -0.235667,0.4868252 -0.699066,1.0564543 -1.029772,1.2658434 l -0.601286,0.380707 1.466223,1.490201 c 0.806423,0.819611 1.578121,1.490201 1.714882,1.490201 0.344405,0 2.866296,-2.598715 3.033681,-3.1260974 0.09506,-0.2995095 0.01613,-0.5581876 -0.260429,-0.8534456 -0.862008,-0.9203089 -1.074864,-2.6512652 -0.471526,-3.8344797 0.188194,-0.3690656 0.675686,-0.937518 1.083316,-1.263227 1.01634,-0.8120856 2.860188,-0.9634192 3.991477,-0.3275992 2.056131,1.1556115 2.621804,4.2930165 1.002519,5.5602967 l -0.615623,0.4817967 0.792131,0.9475085 c 2.105793,2.51885 4.714394,6.97001 5.847626,9.978036 1.295496,3.438735 1.792146,7.065167 1.462426,10.678339 -0.360978,3.955751 -1.3989,8.356634 -2.576963,10.926552 -0.563056,1.228299 -0.589985,1.412318 -0.658658,4.501063 -0.04176,1.878153 -0.19138,3.73466 -0.358982,4.454233 l -0.287379,1.233828 0.516149,-0.109889 c 1.788445,-0.380757 4.988203,-0.687664 7.201601,-0.690745 4.338939,-0.0061 7.101022,0.792776 8.824267,2.552048 1.140644,1.164488 1.613884,2.503239 1.613884,4.565498 0,1.396691 -0.257962,2.859487 -0.504263,2.859487 -0.04099,0 -0.714907,-0.212203 -1.497522,-0.471562 -3.159192,-1.046963 -4.505916,-1.171271 -13.132533,-1.212188 l -7.991328,-0.0379 -0.306943,-0.460137 c -1.373583,-2.059152 -3.375967,-2.906369 -6.869176,-2.906369 -3.012859,0 -5.155453,0.838474 -6.437362,2.519169 l -0.646289,0.847344 -7.971198,0.0379 C 8.3257864,59.857164 6.9756981,59.981974 3.8180138,61.028438 3.0354004,61.287797 2.3615171,61.5 2.3204946,61.5 2.2794696,61.5 2.1492307,61.222667 2.031068,60.883704 z M 15.018013,57.76982 C 21.952044,57.490478 25.40588,56.973908 26.658892,56.028759 27.08216,55.709487 27.01282,55.683512 24.387548,55.177927 11.172338,52.632882 3.773205,53.507086 3.773205,57.613502 l 0,0.601288 3.1800991,-0.124095 c 1.7490544,-0.06826 5.3781729,-0.212648 8.0647089,-0.320875 z m 45.312029,-0.191587 c 0,-0.956568 -0.691252,-2.07474 -1.618548,-2.618171 -2.896551,-1.697492 -9.439938,-1.622446 -18.995796,0.217865 -2.625271,0.505585 -2.694611,0.53156 -2.271342,0.850832 1.272102,0.95955 4.71831,1.465576 11.926575,1.751248 2.852305,0.11304 5.802458,0.230487 6.555897,0.260992 0.753441,0.03051 2.052389,0.07272 2.886551,0.0938 l 1.516663,0.03833 0,-0.594891 z M 37.565941,53.85272 c 1.890848,-0.260302 3.194261,-0.796279 3.194261,-1.313514 0,-1.216159 -2.82275,-1.79941 -8.708578,-1.79941 -5.88583,0 -8.708579,0.583251 -8.708579,1.79941 0,0.491131 1.291511,1.059539 2.943425,1.295432 1.796127,0.256486 9.458454,0.26877 11.279471,0.01809 z M 24.321537,49.243401 c 0.827309,-0.156722 3.43172,-0.329367 5.968801,-0.395669 4.709036,-0.123064 8.325301,0.08967 10.636757,0.625736 0.693287,0.160784 1.280379,0.268584 1.30465,0.239554 0.02427,-0.02902 -0.01068,-0.636558 -0.07769,-1.350064 -0.11535,-1.228448 -0.165899,-1.33403 -0.952625,-1.989682 l -0.830811,-0.692395 0.988594,-0.608287 c 0.960374,-0.590925 0.986883,-0.631816 0.928661,-1.432473 -0.05413,-0.744259 -0.140858,-0.868705 -0.89441,-1.283257 -1.716536,-0.944325 -4.170888,-1.280834 -9.34184,-1.280834 -5.170954,0 -7.625306,0.336509 -9.341842,1.280834 -0.753552,0.414552 -0.840287,0.538998 -0.89441,1.283257 -0.05826,0.801093 -0.0321,0.841305 0.933145,1.435232 l 0.993077,0.611047 -0.883465,0.714882 c -0.809027,0.654648 -0.883755,0.789084 -0.886891,1.595525 -0.002,0.484354 -0.05992,1.091764 -0.128969,1.349801 -0.116921,0.436934 -0.08649,0.45905 0.442994,0.321996 0.312695,-0.08094 1.229018,-0.27228 2.036274,-0.425203 z m 6.353403,-3.183665 c -1.014352,-0.437715 -1.116896,-1.518467 -0.184387,-1.943346 0.276729,-0.126086 0.979212,-0.229249 1.561071,-0.229249 1.301516,0 2.026864,0.309668 2.183059,0.931998 0.202113,0.805281 -0.488513,1.2894 -1.934337,1.355944 -0.674968,0.03106 -1.4064,-0.02084 -1.625406,-0.115347 z m 11.151829,-6.820661 c 1.052872,-3.053848 0.309689,-6.824594 -2.357887,-11.963354 -1.549891,-2.985675 -3.455496,-5.855394 -5.917187,-8.910906 -2.138761,-2.654681 -6.021321,-6.76791 -6.388371,-6.76791 -0.34977,0 -2.209453,1.847264 -3.250733,3.229024 -2.760107,3.662613 -5.488725,9.371462 -6.347062,13.279398 -0.512518,2.333459 -0.337387,5.235472 0.434425,7.198649 0.586892,1.492815 2.044631,3.888644 2.759887,4.535941 0.361014,0.326714 0.445986,0.319958 1.88529,-0.149877 2.757694,-0.900202 4.577439,-1.131647 8.819398,-1.121698 4.265984,0.01 6.303908,0.305257 8.61073,1.247502 0.645805,0.263786 1.231996,0.451026 1.302647,0.416089 0.07065,-0.03494 0.272639,-0.481721 0.448863,-0.992858 z m 3.237191,-4.354061 c 0.539548,-1.907503 0.740931,-6.114382 0.403487,-8.428826 -0.624168,-4.280994 -3.155444,-9.679469 -6.984209,-14.895289 l -0.678019,-0.923648 -2.094004,2.16328 c -1.151703,1.189804 -2.122637,2.240169 -2.157632,2.334144 -0.035,0.09398 0.671596,0.987627 1.5702,1.985892 5.487993,6.096643 8.142657,11.549022 9.065629,18.619775 0.06943,0.531873 0.198451,0.877866 0.291906,0.782794 0.09211,-0.09371 0.354305,-0.830866 0.582642,-1.638122 z M 28.235505,7.6829368 c 0.242294,-0.2422941 0.391397,-0.6523273 0.391397,-1.0763412 0,-0.8864022 -0.569322,-1.4677385 -1.437407,-1.4677385 -0.847717,0 -1.38065,0.5800408 -1.38065,1.5026864 0,1.2580784 1.546359,1.9216937 2.42666,1.0413933 z m 10.567713,0 c 0.242296,-0.2422941 0.391396,-0.6523273 0.391396,-1.0763412 0,-1.4023062 -1.678773,-2.034101 -2.529874,-0.9521001 -0.538047,0.6840148 -0.512286,1.3524521 0.07475,1.9394866 0.593018,0.593019 1.519719,0.632963 2.063727,0.088955 z"
       id="path3146"
       inkscape:connector-curvature="0" />
    <path
       style="fill:#000000;filter:url(#filter2818)"
       d="m 4.605753,56.620127 c 0.00675,-0.691318 0.6508937,-1.87824 1.2513754,-2.305821 2.44039,-1.737711 8.5525576,-1.838493 17.1991766,-0.283593 1.4,0.251758 2.831818,0.522169 3.181818,0.600912 l 0.636364,0.143169 -0.470596,0.310676 c -0.667977,0.440979 -3.31372,0.965473 -6.074858,1.204282 C 18.422118,56.454681 6.6167966,57.023705 5.0108508,57.028099 4.7063121,57.028932 4.6027804,56.924666 4.605753,56.620127 z"
       id="path3148"
       inkscape:connector-curvature="0"
       transform="matrix(1.0299916,0,0,1.0299916,-0.9118563,-0.6257319)" />
    <path
       style="fill:#000000;filter:url(#filter2818)"
       d="m 56.419942,56.909804 c -0.55,-0.02868 -3.209091,-0.139197 -5.909091,-0.245591 -5.707974,-0.224924 -8.55122,-0.451579 -10.454546,-0.833404 -1.418754,-0.284615 -2.727272,-0.759848 -2.727272,-0.990502 0,-0.07353 1.125,-0.347081 2.5,-0.607899 9.247447,-1.754113 15.516445,-1.776395 18.057198,-0.06418 0.833336,0.561585 1.442802,1.512667 1.442802,2.251516 l 0,0.609476 -0.954546,-0.03363 c -0.525,-0.0185 -1.404545,-0.0571 -1.954545,-0.08578 z"
       id="path3150"
       inkscape:connector-curvature="0"
       transform="matrix(1.0299916,0,0,1.0299916,-0.9118563,-0.6257319)" />
    <path
       style="fill:#000000;filter:url(#filter2818)"
       d="m 27.508825,52.847664 c -2.701516,-0.179022 -4.38689,-0.98342 -3.613746,-1.724774 0.918238,-0.880482 6.34378,-1.385414 11.14035,-1.036786 3.258321,0.236825 4.679807,0.563371 5.10693,1.173175 0.261115,0.372794 0.252513,0.423649 -0.119074,0.703937 -0.220287,0.166163 -0.712806,0.395677 -1.094486,0.510031 -1.647111,0.493487 -6.983132,0.668434 -11.419974,0.374417 l 0,0 z"
       id="path3152"
       inkscape:connector-curvature="0"
       transform="matrix(1.0299916,0,0,1.0299916,-0.9118563,-0.6257319)" />
    <path
       style="fill:#000000;filter:url(#filter2818)"
       d="m 22.272934,47.635422 c 0.074,-1.162145 0.09585,-1.206734 0.958021,-1.954686 l 0.882293,-0.765412 -0.843309,-0.494212 c -0.977758,-0.573004 -1.189168,-0.909752 -1.045046,-1.664621 0.120337,-0.630292 1.164025,-1.237874 2.895223,-1.685452 1.381514,-0.357171 9.923959,-0.525913 12.08247,-0.238669 2.98233,0.396874 4.53581,1.112306 4.636325,2.135188 0.05645,0.574492 0.02786,0.608557 -1.416895,1.688083 l -0.452469,0.338088 0.802102,0.711803 c 0.756134,0.671012 0.806762,0.776225 0.883414,1.835927 0.09417,1.301871 0.23025,1.243865 -1.962394,0.836501 -3.33755,-0.620073 -13.430356,-0.50159 -16.406069,0.192597 l -1.089393,0.254138 0.07573,-1.189273 0,0 z M 33.80862,45.120438 c 0.676515,-0.443269 0.558233,-1.280017 -0.240362,-1.700364 -0.581709,-0.306188 -2.803319,-0.26666 -3.267019,0.05813 -0.754007,0.528127 -0.565136,1.52451 0.36543,1.927812 0.551223,0.238898 2.629845,0.04997 3.141951,-0.285576 z"
       id="path3154"
       inkscape:connector-curvature="0"
       transform="matrix(1.0299916,0,0,1.0299916,-0.9118563,-0.6257319)" />
    <path
       style="fill:#000000;filter:url(#filter2818)"
       d="m 39.60176,39.092586 c -2.626871,-0.913786 -3.536607,-1.02952 -8.181818,-1.040879 -4.578454,-0.0112 -5.395641,0.07798 -8.290338,0.904699 -0.859685,0.245523 -1.677867,0.39983 -1.818181,0.342905 -0.735723,-0.29848 -2.691137,-3.706985 -3.179843,-5.54282 -0.462217,-1.736327 -0.422261,-4.584547 0.09182,-6.545455 1.342947,-5.122513 5.851404,-12.980274 8.5501,-14.901915 l 0.516174,-0.367548 1.907191,1.952913 c 5.824637,5.964274 10.045857,12.330332 11.877925,17.9132 0.583329,1.777581 0.670958,2.273378 0.681871,3.857896 0.01244,1.804914 -0.207815,3.014678 -0.651184,3.576849 -0.210525,0.266938 -0.343755,0.253662 -1.503718,-0.149845 l 0,0 z"
       id="path3156"
       inkscape:connector-curvature="0"
       transform="matrix(1.0299916,0,0,1.0299916,-0.9118563,-0.6257319)" />
    <path
       style="fill:#000000;filter:url(#filter2818)"
       d="m 43.53354,33.3474 c -0.603053,-3.166585 -1.14523,-4.782129 -2.578023,-7.681818 -1.3936,-2.820368 -2.797425,-4.878448 -5.475155,-8.026857 -0.983231,-1.156059 -1.783638,-2.195677 -1.778681,-2.310262 0.01476,-0.341152 3.765573,-4.165832 3.964694,-4.042768 0.333456,0.206087 3.244923,4.713357 4.179804,6.470796 1.15703,2.175044 2.229853,4.886749 2.769387,7 0.687549,2.692999 0.579155,7.292056 -0.238903,10.136364 -0.107854,0.375 -0.246242,0.681818 -0.307527,0.681818 -0.06129,0 -0.302304,-1.002273 -0.535596,-2.227273 z"
       id="path3158"
       inkscape:connector-curvature="0"
       transform="matrix(1.0299916,0,0,1.0299916,-0.9118563,-0.6257319)" />
    <path
       style="fill:#000000;filter:url(#filter2818)"
       d="M 36.684404,7.8556646 C 36.139199,7.3104589 36.12009,6.864677 36.614956,6.2355562 37.341984,5.31129 38.783578,5.8388777 38.783578,7.0292183 c 0,1.1610192 -1.266126,1.659494 -2.099174,0.8264463 z"
       id="path3160"
       inkscape:connector-curvature="0"
       transform="matrix(1.0299916,0,0,1.0299916,-0.9118563,-0.6257319)" />
    <path
       style="fill:#000000;filter:url(#filter2818)"
       d="m 26.451635,7.8811363 c -0.77076,-0.8204367 -0.258115,-2.1279309 0.831943,-2.1218612 0.608864,0.00339 0.832613,0.1418586 1.124605,0.6959688 0.676749,1.2842576 -0.965343,2.4809813 -1.956548,1.4258924 l 0,0 z"
       id="path3162"
       inkscape:connector-curvature="0"
       transform="matrix(1.0299916,0,0,1.0299916,-0.9118563,-0.6257319)" />
  </g>
</svg>
