<?xml version="1.0" encoding="UTF-8" standalone="no"?>
<!-- Created with Inkscape (http://www.inkscape.org/) -->

<svg
   xmlns:dc="http://purl.org/dc/elements/1.1/"
   xmlns:cc="http://creativecommons.org/ns#"
   xmlns:rdf="http://www.w3.org/1999/02/22-rdf-syntax-ns#"
   xmlns:svg="http://www.w3.org/2000/svg"
   xmlns="http://www.w3.org/2000/svg"
   xmlns:sodipodi="http://sodipodi.sourceforge.net/DTD/sodipodi-0.dtd"
   xmlns:inkscape="http://www.inkscape.org/namespaces/inkscape"
   width="64px"
   height="64px"
   id="svg2985"
   version="1.1"
   inkscape:version="0.47 r22583"
   sodipodi:docname="wn.svg">
  <defs
     id="defs2987">
    <inkscape:perspective
       sodipodi:type="inkscape:persp3d"
       inkscape:vp_x="0 : 32 : 1"
       inkscape:vp_y="0 : 1000 : 0"
       inkscape:vp_z="64 : 32 : 1"
       inkscape:persp3d-origin="32 : 21.333333 : 1"
       id="perspective11" />
    <filter
       id="filter2817"
       inkscape:label="Eroded metal"
       inkscape:menu="Materials"
       inkscape:menu-tooltip="Eroded metal texture with ridges, grooves, holes and bumps"
       color-interpolation-filters="sRGB">
      <feGaussianBlur
         id="feGaussianBlur2819"
         result="result0"
         in="SourceGraphic"
         stdDeviation="0.9" />
      <feTurbulence
         id="feTurbulence2821"
         type="turbulence"
         baseFrequency="0.01"
         seed="4"
         numOctaves="4"
         result="result1" />
      <feDisplacementMap
         id="feDisplacementMap2823"
         in2="result1"
         xChannelSelector="R"
         result="result91" />
      <feComposite
         id="feComposite2825"
         in2="result91"
         result="result2"
         operator="out"
         in="result0" />
      <feComposite
         id="feComposite2827"
         in2="result2"
         k1="0.1"
         k3="1.2"
         in="SourceAlpha"
         operator="arithmetic"
         result="result5" />
      <feBlend
         id="feBlend2829"
         in2="result5"
         result="fbSourceGraphic"
         mode="multiply" />
      <feGaussianBlur
         id="feGaussianBlur2831"
         stdDeviation="3"
         in="fbSourceGraphic"
         result="result0" />
      <feSpecularLighting
         id="feSpecularLighting2833"
         in="result0"
         result="result1"
         lighting-color="rgb(240,248,255)"
         surfaceScale="3"
         specularConstant="0.35"
         specularExponent="5">
        <feDistantLight
           azimuth="225"
           elevation="45"
           id="feDistantLight14" />
      </feSpecularLighting>
      <feComposite
         id="feComposite2837"
         in2="fbSourceGraphic"
         in="result1"
         result="result2"
         operator="in" />
      <feComposite
         id="feComposite2839"
         in2="result2"
         k1="-1"
         in="fbSourceGraphic"
         result="result4"
         operator="arithmetic"
         k2="2.5"
         k3="3.5" />
      <feBlend
         id="feBlend2841"
         in2="result4"
         mode="multiply" />
    </filter>
  </defs>
  <sodipodi:namedview
     id="base"
     pagecolor="#ffffff"
     bordercolor="#666666"
     borderopacity="1.0"
     inkscape:pageopacity="0.0"
     inkscape:pageshadow="2"
     inkscape:zoom="5.5"
     inkscape:cx="-57.363638"
     inkscape:cy="32"
     inkscape:current-layer="layer1"
     showgrid="true"
     inkscape:document-units="px"
     inkscape:grid-bbox="true"
     inkscape:window-width="1270"
     inkscape:window-height="743"
     inkscape:window-x="0"
     inkscape:window-y="0"
     inkscape:window-maximized="1" />
  <metadata
     id="metadata2990">
    <rdf:RDF>
      <cc:Work
         rdf:about="">
        <dc:format>image/svg+xml</dc:format>
        <dc:type
           rdf:resource="http://purl.org/dc/dcmitype/StillImage" />
        <dc:title />
      </cc:Work>
    </rdf:RDF>
  </metadata>
  <g
     id="layer1"
     inkscape:label="Layer 1"
     inkscape:groupmode="layer">
    <path
       style="fill:#000000"
       d="m 19.626069,59.371635 c -1.071307,-1.266674 -1.542821,-2.624501 -1.547476,-4.456282 -0.0038,-1.488802 0.0636,-1.805357 0.628583,-2.953001 0.695412,-1.412581 1.443737,-2.177041 4.853261,-4.957895 3.079667,-2.511819 6.334481,-5.837582 7.037764,-7.191176 0.318243,-0.612517 0.523342,-1.16895 0.455777,-1.236516 -0.06757,-0.06757 -1.030781,-0.0173 -2.140476,0.111713 -1.109697,0.129008 -3.01579,0.190514 -4.235764,0.136677 l -2.218137,-0.09789 -0.409947,0.806289 c -1.885311,3.70806 -4.750003,5.992331 -7.514951,5.992331 -1.100278,0 -2.233486,-0.417029 -2.233486,-0.821937 0,-0.123633 -0.227468,-0.01129 -0.505484,0.24965 -0.666256,0.625335 -2.244982,0.62194 -3.8744343,-0.0083 -2.4962659,-0.965553 -3.3502156,-2.392666 -3.3502156,-5.598854 0,-1.922236 0.020651,-2.013487 0.8192686,-3.620443 0.8080478,-1.625931 1.3686005,-2.357841 4.4777983,-5.84663 2.039961,-2.289012 2.902555,-3.759698 3.316112,-5.653838 0.418282,-1.915775 0.896933,-2.722923 2.687521,-4.53196 l 1.45278,-1.467747 -0.342447,-2.360535 c -0.470542,-3.243554 -0.843445,-8.3988228 -0.634524,-8.7721435 0.139147,-0.2486405 0.52261,-0.022021 2.122494,1.2543603 l 1.952665,1.5578277 0.143807,-1.1073262 c 0.235968,-1.8169617 0.713493,-3.4120557 1.391215,-4.6471153 0.351333,-0.6402567 0.722101,-1.187288 0.82393,-1.2156292 0.101825,-0.028339 0.49337,0.4388661 0.870091,1.0382353 0.376722,0.5993673 1.464131,1.9157559 2.416466,2.9253053 l 1.731517,1.8355459 1.595377,0.00113 c 3.642993,0.00268 7.786106,0.9772457 11.184656,2.6310397 8.118237,3.950475 14.071822,11.856137 17.522636,23.268002 1.838054,6.078451 2.318865,9.91154 1.984836,15.823376 -0.249415,4.414311 -0.657413,7.220293 -1.253395,8.620152 l -0.395761,0.929573 -19.137065,0 -19.137066,0 -0.537926,-0.636024 z m 5.395623,-2.190842 c 9.167565,-0.943953 20.637184,-0.87768 28.818407,0.166519 l 1.909712,0.243744 0.211067,-0.797621 c 0.116089,-0.43869 0.498907,-1.823921 0.850708,-3.07829 l 0.63964,-2.280671 -1.312751,-1.43515 -1.312751,-1.435149 1.341051,-2.177452 c 0.737579,-1.197597 1.341051,-2.245393 1.341051,-2.328434 0,-0.08304 -0.66118,-0.879259 -1.469291,-1.769377 l -1.469289,-1.618394 1.184351,-2.006086 c 0.651394,-1.103348 1.114427,-2.068858 1.028967,-2.145578 -0.08546,-0.07672 -1.102083,-0.769471 -2.259157,-1.539444 -1.157073,-0.769974 -2.104158,-1.464033 -2.104633,-1.542352 -3.92e-4,-0.07832 0.362903,-1.04862 0.807506,-2.156227 0.444601,-1.107607 0.775232,-2.043738 0.734736,-2.080291 -0.0405,-0.03655 -0.998313,-0.660012 -2.128478,-1.385467 -1.130165,-0.725454 -2.081157,-1.342092 -2.113317,-1.370308 -0.03216,-0.02821 0.156603,-0.898296 0.419473,-1.933516 0.262871,-1.035218 0.465313,-1.89145 0.449872,-1.902739 -0.01544,-0.01129 -0.906358,-0.165399 -1.979812,-0.342474 l -1.951738,-0.321951 -0.367219,-1.878909 -0.367216,-1.878909 -1.927876,-0.245686 -1.927875,-0.245686 -0.430533,-1.450257 -0.430533,-1.450257 -0.704376,0.14179 c -0.387406,0.07798 -0.964594,0.145532 -1.282634,0.150108 -0.525688,0.0075 -0.602732,-0.07758 -0.847401,-0.936482 l -0.269139,-0.9448 -1.500996,0.128586 c -0.825549,0.07072 -1.638587,0.16633 -1.806753,0.212461 -0.215438,0.0591 -0.471758,-0.263434 -0.867707,-1.091856 -0.309072,-0.646652 -0.660298,-1.175731 -0.780504,-1.175731 -0.120205,0 -1.006678,0.174223 -1.969938,0.387163 -0.963262,0.21294 -1.979907,0.38907 -2.259215,0.3914 -0.719381,0.006 -2.785982,-1.372595 -4.327193,-2.8865984 L 23.277476,7.8811597 23.068301,8.4313311 c -0.803056,2.1121919 -0.651171,3.1703739 0.722103,5.0309569 1.06386,1.441368 1.467551,2.456918 1.303235,3.278492 l -0.116852,0.584265 -1.773697,-1.19263 -1.773693,-1.19263 -0.424523,0.532403 c -0.233488,0.292821 -0.804043,1.244684 -1.267901,2.115252 -0.495753,0.930429 -1.423066,2.212382 -2.249768,3.110167 -1.73402,1.88312 -2.442864,3.186775 -3.235229,5.949999 -0.72789,2.538378 -1.386688,3.496163 -4.9758984,7.234155 -2.5646279,2.670937 -2.8462726,3.22167 -2.8451169,5.563375 5.675e-4,1.133235 0.092216,1.631848 0.3896111,2.119623 0.4754481,0.779799 1.3755849,1.350349 2.404694,1.524216 0.7591162,0.128252 0.7939612,0.107357 1.9417302,-1.164356 1.15115,-1.275463 2.529857,-2.26972 3.14735,-2.26972 0.283826,0 0.286994,0.06773 0.03173,0.678663 -0.343884,0.823032 -0.371215,2.2866 -0.04873,2.609091 0.31619,0.31619 1.390818,0.296766 2.196079,-0.0397 0.908453,-0.379575 2.160966,-1.546586 3.258706,-3.036252 l 0.925507,-1.255938 -0.665621,-0.967642 C 19.546709,36.966679 19.346403,36.455666 19.346403,35.94502 l 0,-0.730464 1.027423,0.345262 c 1.423657,0.478418 3.724007,0.768458 6.080849,0.76671 3.552674,-0.0027 5.945431,-0.571878 7.211397,-1.715605 l 0.763119,-0.689431 -0.122948,0.860783 c -0.276052,1.932654 -1.117189,4.617626 -1.954431,6.23868 -1.54833,2.997854 -4.61433,6.261133 -9.874215,10.509566 -2.02198,1.633162 -2.394251,2.263386 -2.30262,3.898143 0.09017,1.60859 0.541743,2.309171 1.389773,2.156096 0.340614,-0.06148 1.896237,-0.243266 3.456942,-0.403967 z M 9.4624908,38.674649 c -0.2661412,-0.430626 0.1597612,-0.954716 1.1070042,-1.362208 1.215176,-0.522755 1.927422,-0.416564 1.927422,0.287363 0,0.363969 -0.189227,0.578079 -0.775002,0.876921 -0.822113,0.41941 -2.055749,0.527477 -2.2594242,0.197924 z M 20.172746,27.021179 c -0.874556,-0.612564 -0.254003,-2.921165 0.915414,-3.405554 0.973376,-0.403186 2.991557,-0.152686 4.79089,0.594651 l 1.542308,0.640584 -2.422957,1.227314 c -1.989464,1.007736 -2.59898,1.229133 -3.406833,1.237481 -0.588777,0.0061 -1.158541,-0.112169 -1.418822,-0.294476 z m 0.468952,-12.714834 c 0.406925,-0.406926 0.470613,-0.606592 0.358933,-1.125273 -0.32186,-1.494836 -0.985693,-2.0727 -1.956881,-1.703455 -0.645527,0.245429 -0.931826,0.883719 -0.775761,1.729517 0.27395,1.484668 1.445659,2.027259 2.373709,1.099211 z"
       id="path3200"
       inkscape:connector-curvature="0" />
    <path
       style="fill:#000000;filter:url(#filter2817)"
       d="m 21.059657,57.144437 c -0.194124,-0.07181 -0.45763,-0.38328 -0.58557,-0.692153 -0.303784,-0.733402 -0.169978,-2.559393 0.23257,-3.173758 0.170785,-0.260651 1.679924,-1.647149 3.35364,-3.081104 5.586496,-4.786229 7.673616,-7.436253 9.012754,-11.443538 0.436749,-1.306946 1.101315,-4.308237 0.980671,-4.42888 -0.02913,-0.02913 -0.405789,0.226253 -0.837032,0.567507 -1.65207,1.307329 -4.279817,1.846802 -8.105031,1.663949 -2.06479,-0.0987 -4.460276,-0.505749 -5.624149,-0.955673 -0.316978,-0.122534 -0.333248,-0.06642 -0.213084,0.734893 0.07155,0.477155 0.376123,1.267397 0.67682,1.756093 l 0.546722,0.888536 -0.591578,0.772953 c -1.587446,2.074149 -3.109666,3.319778 -4.167994,3.410655 -1.084616,0.09314 -1.251024,0.01913 -1.368815,-0.608751 -0.09899,-0.527673 0.07021,-1.54526 0.399724,-2.40396 0.07071,-0.184259 -0.03363,-0.261355 -0.353705,-0.261355 -0.526611,0 -2.22059,1.213276 -3.395492,2.431947 -0.924563,0.959006 -1.3159406,1.032011 -2.4887925,0.464244 -1.1932848,-0.57766 -1.5726269,-1.340756 -1.5643203,-3.146835 0.010313,-2.242303 0.1337825,-2.453005 3.7586758,-6.41425 2.289662,-2.502119 3.029024,-3.651399 3.759367,-5.843631 0.977494,-2.934091 1.396641,-3.691103 3.358174,-6.065107 0.606886,-0.734502 1.578636,-2.112732 2.159444,-3.062732 0.580808,-0.95 1.136212,-1.828036 1.234232,-1.951191 0.134218,-0.168638 0.57023,0.04458 1.76609,0.863636 0.87333,0.598156 1.682746,1.087555 1.798702,1.087555 0.267139,0 0.27794,-1.253898 0.01675,-1.942709 -0.106762,-0.28151 -0.618125,-1.166381 -1.136373,-1.966381 -0.914117,-1.411086 -0.941847,-1.492574 -0.928092,-2.727273 0.0078,-0.7 0.111354,-1.506428 0.230124,-1.7920616 l 0.215944,-0.5193341 1.226255,1.1556977 c 1.519898,1.432446 3.126193,2.511801 3.932875,2.642707 0.336901,0.05467 1.397391,-0.04191 2.356643,-0.214629 0.959253,-0.172717 1.860213,-0.269473 2.002133,-0.215013 0.14192,0.05446 0.487942,0.52143 0.768938,1.037712 l 0.510902,0.938694 1.746165,-0.12498 1.746168,-0.12498 0.216583,0.722888 c 0.306615,1.023391 0.503995,1.133087 1.737591,0.965684 0.721784,-0.09795 1.076337,-0.08029 1.120669,0.0558 0.03567,0.109495 0.222749,0.729583 0.415737,1.377972 l 0.350887,1.17889 1.704104,0.22823 c 0.937256,0.125527 1.789681,0.261052 1.894276,0.301167 0.104595,0.04012 0.337705,0.856245 0.518022,1.813621 0.368062,1.954181 0.198885,1.802939 2.382714,2.130117 0.8,0.119854 1.510322,0.268294 1.578493,0.329865 0.06817,0.06157 -0.03347,0.766493 -0.225854,1.566493 -0.192391,0.8 -0.349848,1.618182 -0.349906,1.818182 -7.6e-5,0.26311 0.539862,0.711144 1.953126,1.620675 1.074278,0.691372 1.977461,1.274692 2.007074,1.296267 0.02961,0.02157 -0.281362,0.950176 -0.691054,2.06356 -0.409693,1.113384 -0.70304,2.092058 -0.651884,2.174831 0.05116,0.08277 0.992096,0.756683 2.090978,1.49758 1.662387,1.120829 1.979973,1.408163 1.890835,1.710723 -0.05892,0.2 -0.512117,1.083284 -1.007099,1.962853 -0.494981,0.879569 -0.860496,1.697751 -0.812254,1.818182 0.04824,0.120431 0.672149,0.887971 1.386464,1.705645 l 1.298754,1.486679 -1.233836,2.058776 c -0.678611,1.132325 -1.262415,2.124053 -1.297342,2.203838 -0.03493,0.07978 0.504074,0.775238 1.197784,1.545455 l 1.261289,1.400391 -0.77962,2.793958 c -0.428791,1.536676 -0.82256,2.836896 -0.875042,2.88938 -0.05248,0.05248 -1.304293,-0.03748 -2.781802,-0.199917 -8.443167,-0.928236 -20.719022,-0.841392 -29.168145,0.206348 -0.664972,0.08246 -1.367869,0.09117 -1.561993,0.01936 l 0,0 z M 12.03174,38.837304 c 0.58501,-0.313089 0.839671,-0.714544 0.710812,-1.120546 -0.08915,-0.280881 -0.272946,-0.372361 -0.748134,-0.372361 -1.18678,0 -2.612981,0.914089 -2.3787139,1.52458 0.1812002,0.4722 1.5070159,0.45482 2.4160359,-0.03167 l 0,0 z M 24.876146,26.843985 c 1.275,-0.611045 2.318182,-1.179517 2.318182,-1.263272 0,-0.213414 -2.428186,-1.107743 -3.669115,-1.351379 -2.516443,-0.494061 -3.930486,0.513414 -3.752628,2.673668 0.129493,1.572815 1.737392,1.554222 5.103561,-0.05902 l 0,0 z"
       id="path3202"
       inkscape:connector-curvature="0"
       transform="matrix(1.0299979,0,0,1.0299979,-0.58152714,-1.4891001)" />
    <path
       style="fill:#000000;filter:url(#filter2817)"
       d="m 19.060031,15.429945 c -0.218364,-0.152948 -0.479471,-0.57668 -0.580237,-0.941626 -0.463378,-1.678214 1.326235,-2.611919 2.056519,-1.07296 0.427907,0.901748 0.372391,1.477644 -0.184687,1.915841 -0.572296,0.450169 -0.768456,0.465165 -1.291595,0.09874 z"
       id="path3204"
       inkscape:connector-curvature="0"
       transform="matrix(1.0299979,0,0,1.0299979,-0.58152714,-1.4891001)" />
  </g>
</svg>
