<?xml version="1.0" encoding="UTF-8" standalone="no"?>
<!-- Created with Inkscape (http://www.inkscape.org/) -->

<svg
   xmlns:dc="http://purl.org/dc/elements/1.1/"
   xmlns:cc="http://creativecommons.org/ns#"
   xmlns:rdf="http://www.w3.org/1999/02/22-rdf-syntax-ns#"
   xmlns:svg="http://www.w3.org/2000/svg"
   xmlns="http://www.w3.org/2000/svg"
   xmlns:sodipodi="http://sodipodi.sourceforge.net/DTD/sodipodi-0.dtd"
   xmlns:inkscape="http://www.inkscape.org/namespaces/inkscape"
   width="64px"
   height="64px"
   id="svg2985"
   version="1.1"
   inkscape:version="0.47 r22583"
   sodipodi:docname="wr.svg">
  <defs
     id="defs2987">
    <inkscape:perspective
       sodipodi:type="inkscape:persp3d"
       inkscape:vp_x="0 : 32 : 1"
       inkscape:vp_y="0 : 1000 : 0"
       inkscape:vp_z="64 : 32 : 1"
       inkscape:persp3d-origin="32 : 21.333333 : 1"
       id="perspective10" />
    <filter
       id="filter2816"
       inkscape:label="Eroded metal"
       inkscape:menu="Materials"
       inkscape:menu-tooltip="Eroded metal texture with ridges, grooves, holes and bumps"
       color-interpolation-filters="sRGB">
      <feGaussianBlur
         id="feGaussianBlur2818"
         result="result0"
         in="SourceGraphic"
         stdDeviation="0.9" />
      <feTurbulence
         id="feTurbulence2820"
         type="turbulence"
         baseFrequency="0.01"
         seed="4"
         numOctaves="4"
         result="result1" />
      <feDisplacementMap
         id="feDisplacementMap2822"
         in2="result1"
         xChannelSelector="R"
         result="result91" />
      <feComposite
         id="feComposite2824"
         in2="result91"
         result="result2"
         operator="out"
         in="result0" />
      <feComposite
         id="feComposite2826"
         in2="result2"
         k1="0.1"
         k3="1.2"
         in="SourceAlpha"
         operator="arithmetic"
         result="result5" />
      <feBlend
         id="feBlend2828"
         in2="result5"
         result="fbSourceGraphic"
         mode="multiply" />
      <feGaussianBlur
         id="feGaussianBlur2830"
         stdDeviation="3"
         in="fbSourceGraphic"
         result="result0" />
      <feSpecularLighting
         id="feSpecularLighting2832"
         in="result0"
         result="result1"
         lighting-color="rgb(240,248,255)"
         surfaceScale="3"
         specularConstant="0.35"
         specularExponent="5">
        <feDistantLight
           azimuth="225"
           elevation="45"
           id="feDistantLight14" />
      </feSpecularLighting>
      <feComposite
         id="feComposite2836"
         in2="fbSourceGraphic"
         in="result1"
         result="result2"
         operator="in" />
      <feComposite
         id="feComposite2838"
         in2="result2"
         k1="-1"
         in="fbSourceGraphic"
         result="result4"
         operator="arithmetic"
         k2="2.5"
         k3="3.5" />
      <feBlend
         id="feBlend2840"
         in2="result4"
         mode="multiply" />
    </filter>
  </defs>
  <sodipodi:namedview
     id="base"
     pagecolor="#ffffff"
     bordercolor="#666666"
     borderopacity="1.0"
     inkscape:pageopacity="0.0"
     inkscape:pageshadow="2"
     inkscape:zoom="5.5"
     inkscape:cx="-0.13567155"
     inkscape:cy="32"
     inkscape:current-layer="layer1"
     showgrid="true"
     inkscape:document-units="px"
     inkscape:grid-bbox="true"
     inkscape:window-width="1270"
     inkscape:window-height="743"
     inkscape:window-x="0"
     inkscape:window-y="0"
     inkscape:window-maximized="1" />
  <metadata
     id="metadata2990">
    <rdf:RDF>
      <cc:Work
         rdf:about="">
        <dc:format>image/svg+xml</dc:format>
        <dc:type
           rdf:resource="http://purl.org/dc/dcmitype/StillImage" />
        <dc:title />
      </cc:Work>
    </rdf:RDF>
  </metadata>
  <g
     id="layer1"
     inkscape:label="Layer 1"
     inkscape:groupmode="layer">
    <path
       style="fill:#000000"
       d="m 9.5346162,56.326564 0,-3.673434 L 11.295907,50.9 c 1.631476,-1.623916 1.761547,-1.811127 1.764783,-2.540006 0.0032,-0.731817 0.15322,-0.944346 2.143344,-3.037413 l 2.139851,-2.250538 0.0094,-10.766159 0.0094,-10.766161 -2.641935,-2.636497 -2.641936,-2.636497 0,-5.433365 0,-5.433364 3.913979,0 3.913978,0 0,2.544086 0,2.544086 3.424731,0 3.424731,0 0,-2.544086 0,-2.544086 5.186023,0 5.186021,0 0,2.544086 0,2.544086 3.424732,0 3.424731,0 0,-2.544086 0,-2.544086 3.913978,0 3.913979,0 0,5.433364 0,5.433365 -2.641936,2.636497 -2.641935,2.636497 0,10.769497 0,10.769498 2.152688,2.146013 c 2.120403,2.113831 2.152688,2.159592 2.152688,3.051488 0,0.890523 0.02909,0.932062 1.76129,2.515231 l 1.761291,1.609752 0,3.799399 0,3.799399 -22.407527,0 -22.4075278,0 0,-3.673436 z m 42.2553888,-1.365811 -0.01557,-2.495162 -1.843562,-1.636373 c -1.825046,-1.619939 -1.843561,-1.645447 -1.843561,-2.539757 0,-0.864863 -0.06448,-0.968238 -1.512075,-2.424379 l -1.512076,-1.520996 -13.014481,0 -13.014484,0 -1.618603,1.610195 c -1.510041,1.502197 -1.618604,1.664779 -1.618604,2.423995 0,0.770164 -0.09444,0.903674 -1.76129,2.489895 l -1.761291,1.676098 0,2.455823 0,2.455822 19.765592,0 19.765591,0 -0.01557,-2.495161 z m -7.812378,-22.945699 0,-9.980645 -12.035484,0 -12.035484,0 0,9.980645 0,9.980645 12.035484,0 12.035484,0 0,-9.980645 z m 3.070922,-14.342469 2.190274,-1.998391 0.01133,-3.962904 0.01133,-3.9629029 -1.369893,0 -1.369892,0 0,2.5440859 0,2.544086 -5.968818,0 -5.968817,0 0,-2.544086 0,-2.5440859 -2.641935,0 -2.641936,0 0,2.5440859 0,2.544086 -5.968817,0 -5.968817,0 0,-2.544086 0,-2.5440859 -1.369893,0 -1.369892,0 0,3.9134379 0,3.913438 2.103763,2.048815 2.103764,2.048815 13.013978,-9.59e-4 13.013979,-9.59e-4 2.190276,-1.998393 z"
       id="path3110"
       inkscape:connector-curvature="0" />
    <path
       style="fill:#000000;filter:url(#filter2816)"
       d="m 12.965263,53.72641 c 0,-2.112297 0.04686,-2.217521 1.642473,-3.688308 0.90336,-0.832688 1.741846,-1.940603 1.863303,-2.462034 0.121456,-0.521431 0.889141,-1.643511 1.705966,-2.493511 l 1.485136,-1.545454 12.627216,0 12.627215,0 1.297073,1.582906 c 0.71339,0.870598 1.297072,1.925156 1.297072,2.343461 0,0.461462 0.714944,1.376252 1.818004,2.326185 l 1.818004,1.56563 1.78e-4,2.272727 1.78e-4,2.272727 -19.090909,0 -19.090909,0 0,-2.174329 z"
       id="path3112"
       inkscape:connector-curvature="0"
       transform="matrix(1.0299943,0,0,1.0299943,-1.0176744,-0.2598189)" />
    <path
       style="fill:#000000;filter:url(#filter2816)"
       d="m 20.601627,31.355285 0,-9.636364 11.454545,0 11.454545,0 0,9.636364 0,9.636363 -11.454545,0 -11.454545,0 0,-9.636363 z"
       id="path3114"
       inkscape:connector-curvature="0"
       transform="matrix(1.0299943,0,0,1.0299943,-1.0176744,-0.2598189)" />
    <path
       style="fill:#000000;filter:url(#filter2816)"
       d="m 17.407386,17.252941 -1.896669,-1.920526 0,-3.715838 0,-3.7158378 1.09091,0 1.090909,0 0,2.5454548 0,2.545454 6,0 6,0 0,-2.545454 0,-2.5454548 2.363636,0 2.363636,0 0,2.5454548 0,2.545454 6,0 6,0 0,-2.545454 0,-2.5454548 1.090909,0 1.09091,0 0,3.7636488 0,3.763648 -2.153108,1.872715 -2.153107,1.872715 -12.495678,0 -12.495678,0 -1.89667,-1.920525 z"
       id="path3116"
       inkscape:connector-curvature="0"
       transform="matrix(1.0299943,0,0,1.0299943,-1.0176744,-0.2598189)" />
  </g>
</svg>
