<?xml version="1.0" encoding="UTF-8" standalone="no"?>
<!-- Created with Inkscape (http://www.inkscape.org/) -->

<svg
   xmlns:dc="http://purl.org/dc/elements/1.1/"
   xmlns:cc="http://creativecommons.org/ns#"
   xmlns:rdf="http://www.w3.org/1999/02/22-rdf-syntax-ns#"
   xmlns:svg="http://www.w3.org/2000/svg"
   xmlns="http://www.w3.org/2000/svg"
   xmlns:xlink="http://www.w3.org/1999/xlink"
   xmlns:sodipodi="http://sodipodi.sourceforge.net/DTD/sodipodi-0.dtd"
   xmlns:inkscape="http://www.inkscape.org/namespaces/inkscape"
   width="148"
   height="148"
   id="svg6917"
   version="1.1"
   inkscape:version="0.47 r22583"
   sodipodi:docname="bb.svg">
  <defs
     id="defs6919">
    <inkscape:perspective
       sodipodi:type="inkscape:persp3d"
       inkscape:vp_x="0 : 526.18109 : 1"
       inkscape:vp_y="0 : 1000 : 0"
       inkscape:vp_z="744.09448 : 526.18109 : 1"
       inkscape:persp3d-origin="372.04724 : 350.78739 : 1"
       id="perspective6925" />
    <inkscape:perspective
       id="perspective6876"
       inkscape:persp3d-origin="0.5 : 0.33333333 : 1"
       inkscape:vp_z="1 : 0.5 : 1"
       inkscape:vp_y="0 : 1000 : 0"
       inkscape:vp_x="0 : 0.5 : 1"
       sodipodi:type="inkscape:persp3d" />
    <linearGradient
       gradientTransform="matrix(0.13008373,0,0,0.15610047,21.339716,913.21444)"
       inkscape:collect="always"
       xlink:href="#linearGradient6437"
       id="linearGradient6443"
       x1="292.9035"
       y1="83.118973"
       x2="555.31616"
       y2="83.118973"
       gradientUnits="userSpaceOnUse" />
    <linearGradient
       id="linearGradient6437">
      <stop
         style="stop-color:#000000;stop-opacity:1;"
         offset="0"
         id="stop6439" />
      <stop
         style="stop-color:#6e14a0;stop-opacity:1;"
         offset="1"
         id="stop6441" />
    </linearGradient>
    <linearGradient
       gradientTransform="matrix(0.13008373,0,0,0.15610047,21.339716,913.21444)"
       inkscape:collect="always"
       xlink:href="#linearGradient6437"
       id="linearGradient6453"
       x1="107.07918"
       y1="428.36047"
       x2="733.44598"
       y2="428.36047"
       gradientUnits="userSpaceOnUse" />
    <linearGradient
       id="linearGradient6885">
      <stop
         style="stop-color:#000000;stop-opacity:1;"
         offset="0"
         id="stop6887" />
      <stop
         style="stop-color:#6e14a0;stop-opacity:1;"
         offset="1"
         id="stop6889" />
    </linearGradient>
    <linearGradient
       gradientTransform="matrix(0.13008373,0,0,0.15610047,21.339716,913.21444)"
       inkscape:collect="always"
       xlink:href="#linearGradient6437"
       id="linearGradient6483"
       x1="64.415253"
       y1="808.65967"
       x2="776.71869"
       y2="808.65967"
       gradientUnits="userSpaceOnUse" />
    <linearGradient
       id="linearGradient6892">
      <stop
         style="stop-color:#000000;stop-opacity:1;"
         offset="0"
         id="stop6894" />
      <stop
         style="stop-color:#6e14a0;stop-opacity:1;"
         offset="1"
         id="stop6896" />
    </linearGradient>
    <linearGradient
       gradientTransform="matrix(0.13008373,0,0,0.15610047,21.339716,913.21444)"
       inkscape:collect="always"
       xlink:href="#linearGradient6437"
       id="linearGradient6519"
       x1="83.67379"
       y1="628.08112"
       x2="754.914"
       y2="628.08112"
       gradientUnits="userSpaceOnUse" />
    <linearGradient
       id="linearGradient6899">
      <stop
         style="stop-color:#000000;stop-opacity:1;"
         offset="0"
         id="stop6901" />
      <stop
         style="stop-color:#6e14a0;stop-opacity:1;"
         offset="1"
         id="stop6903" />
    </linearGradient>
  </defs>
  <sodipodi:namedview
     id="base"
     pagecolor="#ffffff"
     bordercolor="#666666"
     borderopacity="1.0"
     inkscape:pageopacity="0.0"
     inkscape:pageshadow="2"
     inkscape:zoom="2.8284271"
     inkscape:cx="63.734097"
     inkscape:cy="76.853827"
     inkscape:document-units="px"
     inkscape:current-layer="layer1"
     showgrid="true"
     inkscape:window-width="1018"
     inkscape:window-height="730"
     inkscape:window-x="0"
     inkscape:window-y="6"
     inkscape:window-maximized="1">
    <inkscape:grid
       type="xygrid"
       id="grid3513" />
  </sodipodi:namedview>
  <metadata
     id="metadata6922">
    <rdf:RDF>
      <cc:Work
         rdf:about="">
        <dc:format>image/svg+xml</dc:format>
        <dc:type
           rdf:resource="http://purl.org/dc/dcmitype/StillImage" />
        <dc:title></dc:title>
      </cc:Work>
    </rdf:RDF>
  </metadata>
  <g
     inkscape:label="Camada 1"
     inkscape:groupmode="layer"
     id="layer1"
     transform="translate(0,-904.36218)">
    <path
       style="fill:none;stroke:#999999;stroke-width:2.2799933;stroke-linecap:round;stroke-linejoin:round;stroke-miterlimit:4;stroke-opacity:1;stroke-dasharray:none"
       d="m 36.949766,987.36218 c 0,59.31822 -13.008375,59.31822 -13.008375,59.31822"
       id="path6279" />
    <path
       style="fill:none;stroke:#999999;stroke-width:2.2799933;stroke-linecap:round;stroke-linejoin:round;stroke-miterlimit:4;stroke-opacity:1;stroke-dasharray:none"
       d="m 115,987.36218 c 0,59.31822 13.00837,59.31822 13.00837,59.31822"
       id="path6281" />
    <path
       style="fill:none;stroke:#999999;stroke-width:2.2799933;stroke-linecap:round;stroke-linejoin:round;stroke-miterlimit:4;stroke-opacity:1;stroke-dasharray:none"
       d="m 23.941391,1046.6804 c 52.033492,-15.6101 104.066979,0 104.066979,0"
       id="path6285" />
    <path
       style="fill:none;stroke:#999999;stroke-width:2.2799933;stroke-linecap:round;stroke-linejoin:round;stroke-miterlimit:4;stroke-opacity:1;stroke-dasharray:none"
       d="m 36.949766,987.36218 c 0,-56.19618 39.025117,-68.68422 39.025117,-68.68422"
       id="path6293" />
    <path
       style="fill:none;stroke:#999999;stroke-width:2.2799933;stroke-linecap:round;stroke-linejoin:round;stroke-miterlimit:4;stroke-opacity:1;stroke-dasharray:none"
       d="M 115,987.36218 C 115,931.166 75.974883,918.67796 75.974883,918.67796"
       id="path6295" />
    <path
       style="fill:none;stroke:#999999;stroke-width:2.2799933;stroke-linecap:round;stroke-linejoin:round;stroke-miterlimit:4;stroke-opacity:1;stroke-dasharray:none"
       d="m 120.20335,1040.4363 c 0,0 -41.626792,-15.61 -88.456934,0 44.228467,-37.4641 88.193284,-0.4705 88.193284,-0.4705"
       id="path6357" />
    <path
       style="fill:none;stroke:#999999;stroke-width:2.2799933;stroke-linecap:round;stroke-linejoin:round;stroke-miterlimit:4;stroke-opacity:1;stroke-dasharray:none"
       d="m 94.186608,934.28801 c 0,0 -18.211725,-15.61005 -36.423442,0 18.211717,-6.24402 35.71146,-0.27623 35.71146,-0.27623"
       id="path6361" />
    <path
       style="fill:none;stroke:#999999;stroke-width:2.2799933;stroke-linecap:round;stroke-linejoin:round;stroke-miterlimit:4;stroke-opacity:1;stroke-dasharray:none"
       d="m 117.60167,1034.1923 c 0,0 -41.626787,-115.51434 -83.253579,0 41.626792,-131.12439 83.483769,0.1526 83.483769,0.1526"
       id="path6433" />
    <path
       style="fill:url(#linearGradient6443);fill-opacity:1;stroke:#999999;stroke-width:0;stroke-linecap:round;stroke-linejoin:round;stroke-miterlimit:4;stroke-opacity:1;stroke-dasharray:none;stroke-dashoffset:0"
       d="m 91.228301,930.73733 c -4.86534,-2.98513 -9.20691,-4.31373 -14.802263,-4.52973 -5.817037,-0.22456 -9.729697,0.74595 -14.559532,3.6114 -1.27839,0.75845 -2.366475,1.32845 -2.417963,1.26665 -0.194025,-0.23282 3.780128,-3.59769 6.602805,-5.59052 2.110275,-1.48988 4.891755,-3.10264 7.362525,-4.26896 2.635515,-1.24408 2.713478,-1.23559 6.561233,0.71443 4.634917,2.34895 9.930082,6.22622 13.466422,9.86048 0.4695,0.4825 -0.280965,0.12181 -2.213227,-1.06375 z"
       id="path6435" />
    <path
       style="fill:url(#linearGradient6453);fill-opacity:1;stroke:#999999;stroke-width:0;stroke-linecap:round;stroke-linejoin:round;stroke-miterlimit:4;stroke-opacity:1;stroke-dasharray:none;stroke-dashoffset:0"
       d="m 35.269338,1026.9711 c -0.0087,-0.2604 0.141563,-1.3714 0.333968,-2.469 1.436655,-8.1956 2.14002,-17.8047 2.45895,-33.59341 0.118657,-5.87385 0.327082,-11.81796 0.46317,-13.20913 1.649347,-16.8604 6.512115,-29.77557 15.40323,-40.9099 l 2.49066,-3.11904 0.372142,0.93609 c 0.453945,1.14188 0.600668,1.14705 4.224495,0.14909 9.306398,-2.5629 20.754705,-2.4829 30.734265,0.21478 2.847788,0.76981 3.371723,0.67699 3.511722,-0.6221 0.07937,-0.73651 0.195968,-0.63645 2.46963,2.11943 8.41349,10.1979 13.60503,23.1577 15.39108,38.42119 0.44364,3.79128 0.81772,11.96103 0.8236,17.98691 0.01,10.15339 1.0372,23.80379 2.35262,31.26129 0.25173,1.4272 0.45431,2.7551 0.45017,2.951 -0.004,0.196 -1.1011,-2.2996 -2.43768,-5.5457 -8.33459,-20.2416 -17.09351,-34.09014 -26.201709,-41.427 -7.101113,-5.72008 -14.549903,-6.97244 -21.4728,-3.61021 -10.384155,5.04327 -20.257358,20.29051 -29.25441,45.17771 -2.289345,6.3327 -2.094458,5.845 -2.113103,5.288 z"
       id="path6445" />
    <path
       style="fill:url(#linearGradient6483);fill-opacity:1;stroke:#999999;stroke-width:0;stroke-linecap:round;stroke-linejoin:round;stroke-miterlimit:4;stroke-opacity:1;stroke-dasharray:none;stroke-dashoffset:0"
       d="m 119.2157,1043.1627 c -3.27689,-0.7585 -11.27358,-2.1604 -15.80878,-2.7714 -9.971954,-1.3433 -18.240832,-1.8741 -29.509732,-1.8943 -14.540265,-0.026 -26.948685,1.2708 -39.787335,4.1583 -2.36796,0.5325 -4.34127,0.9252 -4.385122,0.8725 -0.04387,-0.052 0.17313,-0.5421 0.482182,-1.088 0.47778,-0.8437 0.668003,-0.9736 1.270373,-0.8675 0.38964,0.068 2.426257,-0.3879 4.525815,-1.0145 7.923982,-2.3646 16.303042,-3.9937 25.728697,-5.0023 6.356985,-0.6802 21.697973,-0.6838 27.974175,-0.01 10.389517,1.121 18.168907,2.6043 26.230877,5.0013 2.06099,0.6128 4.08441,1.0801 4.49647,1.0386 0.64294,-0.065 0.85076,0.093 1.46525,1.1107 0.39381,0.6524 0.58363,1.1699 0.42181,1.15 -0.16183,-0.02 -1.55893,-0.329 -3.10468,-0.6868 z"
       id="path6475" />
    <path
       style="fill:url(#linearGradient6519);fill-opacity:1;stroke:#999999;stroke-width:0;stroke-linecap:round;stroke-linejoin:round;stroke-miterlimit:4;stroke-opacity:1;stroke-dasharray:none;stroke-dashoffset:0"
       d="m 32.230923,1038.1071 c 0.05227,-0.1538 0.300263,-0.94 0.551138,-1.7472 0.4107,-1.3215 0.831997,-1.9223 0.831997,-1.1866 0,0.4049 1.305465,0.3467 1.574753,-0.07 0.124785,-0.1932 1.254255,-3.0278 2.509935,-6.2991 5.533965,-14.4173 11.177887,-25.0477 17.340277,-32.6607 4.631528,-5.72184 9.338565,-9.43887 13.939875,-11.00803 2.514773,-0.8576 6.788355,-1.05221 9.383558,-0.42732 12.300105,2.96174 25.487954,19.49965 36.385524,45.62835 2.12324,5.0908 2.60748,5.7864 3.58935,5.1558 0.41955,-0.2695 0.51173,-0.167 0.87414,0.9718 0.22284,0.7002 0.36764,1.3155 0.32179,1.3673 -0.0458,0.052 -0.87379,-0.4703 -1.83988,-1.1603 -9.87279,-7.0509 -23.064272,-12.2556 -35.247737,-13.9067 -3.31032,-0.4486 -12.661905,-0.4464 -15.691687,0 -12.43392,1.8476 -23.294655,6.674 -33.937523,15.0812 -0.37428,0.2957 -0.637762,0.4118 -0.58551,0.258 l 0,0 z"
       id="path6511" />
  </g>
</svg>
