<?xml version="1.0" encoding="UTF-8" standalone="no"?>
<!-- Created with Inkscape (http://www.inkscape.org/) -->

<svg
   xmlns:dc="http://purl.org/dc/elements/1.1/"
   xmlns:cc="http://creativecommons.org/ns#"
   xmlns:rdf="http://www.w3.org/1999/02/22-rdf-syntax-ns#"
   xmlns:svg="http://www.w3.org/2000/svg"
   xmlns="http://www.w3.org/2000/svg"
   xmlns:xlink="http://www.w3.org/1999/xlink"
   xmlns:sodipodi="http://sodipodi.sourceforge.net/DTD/sodipodi-0.dtd"
   xmlns:inkscape="http://www.inkscape.org/namespaces/inkscape"
   width="148"
   height="148"
   id="svg3721"
   version="1.1"
   inkscape:version="0.47 r22583"
   sodipodi:docname="br.svg">
  <defs
     id="defs3723">
    <inkscape:perspective
       sodipodi:type="inkscape:persp3d"
       inkscape:vp_x="0 : 526.18109 : 1"
       inkscape:vp_y="0 : 1000 : 0"
       inkscape:vp_z="744.09448 : 526.18109 : 1"
       inkscape:persp3d-origin="372.04724 : 350.78739 : 1"
       id="perspective3729" />
    <inkscape:perspective
       id="perspective3739"
       inkscape:persp3d-origin="0.5 : 0.33333333 : 1"
       inkscape:vp_z="1 : 0.5 : 1"
       inkscape:vp_y="0 : 1000 : 0"
       inkscape:vp_x="0 : 0.5 : 1"
       sodipodi:type="inkscape:persp3d" />
    <linearGradient
       inkscape:collect="always"
       xlink:href="#linearGradient7743"
       id="linearGradient7749"
       x1="19.5"
       y1="805"
       x2="860.5"
       y2="805"
       gradientUnits="userSpaceOnUse" />
    <linearGradient
       id="linearGradient7743">
      <stop
         id="stop7751"
         offset="0"
         style="stop-color:#000000;stop-opacity:1;" />
      <stop
         style="stop-color:#6e14a0;stop-opacity:1;"
         offset="1"
         id="stop7747" />
    </linearGradient>
    <linearGradient
       gradientTransform="matrix(0.12704438,0,0,0.15245326,18.100463,912.045)"
       inkscape:collect="always"
       xlink:href="#linearGradient7743"
       id="linearGradient3721"
       x1="8"
       y1="65"
       x2="868"
       y2="65"
       gradientUnits="userSpaceOnUse" />
    <linearGradient
       id="linearGradient3748">
      <stop
         id="stop3750"
         offset="0"
         style="stop-color:#000000;stop-opacity:1;" />
      <stop
         style="stop-color:#6e14a0;stop-opacity:1;"
         offset="1"
         id="stop3752" />
    </linearGradient>
    <linearGradient
       gradientTransform="matrix(0.12704438,0,0,0.15245326,18.100463,912.045)"
       inkscape:collect="always"
       xlink:href="#linearGradient7743"
       id="linearGradient7827"
       x1="87.149239"
       y1="440.42035"
       x2="294.40662"
       y2="440.42035"
       gradientUnits="userSpaceOnUse" />
    <linearGradient
       id="linearGradient3755">
      <stop
         id="stop3757"
         offset="0"
         style="stop-color:#000000;stop-opacity:1;" />
      <stop
         style="stop-color:#6e14a0;stop-opacity:1;"
         offset="1"
         id="stop3759" />
    </linearGradient>
    <linearGradient
       gradientTransform="matrix(0.12704438,0,0,0.15245326,18.100463,912.045)"
       inkscape:collect="always"
       xlink:href="#linearGradient7743"
       id="linearGradient7837"
       x1="576.14551"
       y1="436.59244"
       x2="783.43933"
       y2="436.59244"
       gradientUnits="userSpaceOnUse" />
    <linearGradient
       id="linearGradient3762">
      <stop
         id="stop3764"
         offset="0"
         style="stop-color:#000000;stop-opacity:1;" />
      <stop
         style="stop-color:#6e14a0;stop-opacity:1;"
         offset="1"
         id="stop3766" />
    </linearGradient>
    <linearGradient
       inkscape:collect="always"
       xlink:href="#linearGradient7743"
       id="linearGradient7847"
       x1="57.251827"
       y1="434.42041"
       x2="821.25183"
       y2="434.42041"
       gradientUnits="userSpaceOnUse"
       gradientTransform="matrix(0.12704438,0,0,0.15245326,18.100463,912.045)" />
    <linearGradient
       id="linearGradient3769">
      <stop
         id="stop3771"
         offset="0"
         style="stop-color:#000000;stop-opacity:1;" />
      <stop
         style="stop-color:#6e14a0;stop-opacity:1;"
         offset="1"
         id="stop3773" />
    </linearGradient>
    <linearGradient
       gradientTransform="matrix(0.12704438,0,0,0.15245326,18.100463,912.045)"
       inkscape:collect="always"
       xlink:href="#linearGradient7743"
       id="linearGradient7857"
       x1="141.25183"
       y1="190.33438"
       x2="734.18958"
       y2="190.33438"
       gradientUnits="userSpaceOnUse" />
    <linearGradient
       id="linearGradient3776">
      <stop
         id="stop3778"
         offset="0"
         style="stop-color:#000000;stop-opacity:1;" />
      <stop
         style="stop-color:#6e14a0;stop-opacity:1;"
         offset="1"
         id="stop3780" />
    </linearGradient>
    <linearGradient
       gradientTransform="matrix(0.12704438,0,0,0.15245326,18.100463,912.045)"
       inkscape:collect="always"
       xlink:href="#linearGradient7743"
       id="linearGradient7875"
       x1="148.22263"
       y1="688.75262"
       x2="730.29272"
       y2="688.75262"
       gradientUnits="userSpaceOnUse" />
    <linearGradient
       id="linearGradient3783">
      <stop
         id="stop3785"
         offset="0"
         style="stop-color:#000000;stop-opacity:1;" />
      <stop
         style="stop-color:#6e14a0;stop-opacity:1;"
         offset="1"
         id="stop3787" />
    </linearGradient>
    <linearGradient
       gradientTransform="matrix(0.12704438,0,0,0.15245326,18.100463,912.045)"
       y2="805"
       x2="860.5"
       y1="805"
       x1="19.5"
       gradientUnits="userSpaceOnUse"
       id="linearGradient3805"
       xlink:href="#linearGradient7743"
       inkscape:collect="always" />
  </defs>
  <sodipodi:namedview
     id="base"
     pagecolor="#ffffff"
     bordercolor="#666666"
     borderopacity="1.0"
     inkscape:pageopacity="0.0"
     inkscape:pageshadow="2"
     inkscape:zoom="2.8008057"
     inkscape:cx="62.057409"
     inkscape:cy="67.30705"
     inkscape:document-units="px"
     inkscape:current-layer="layer1"
     showgrid="true"
     inkscape:window-width="1018"
     inkscape:window-height="730"
     inkscape:window-x="0"
     inkscape:window-y="6"
     inkscape:window-maximized="1">
    <inkscape:grid
       type="xygrid"
       id="grid3333" />
  </sodipodi:namedview>
  <metadata
     id="metadata3726">
    <rdf:RDF>
      <cc:Work
         rdf:about="">
        <dc:format>image/svg+xml</dc:format>
        <dc:type
           rdf:resource="http://purl.org/dc/dcmitype/StillImage" />
        <dc:title></dc:title>
      </cc:Work>
    </rdf:RDF>
  </metadata>
  <g
     inkscape:label="Camada 1"
     inkscape:groupmode="layer"
     id="layer1"
     transform="translate(0,-904.36218)">
    <path
       style="fill:url(#linearGradient3805);fill-opacity:1;stroke:#999999;stroke-width:2.22672248;stroke-linecap:round;stroke-linejoin:round;stroke-miterlimit:4;stroke-opacity:1;stroke-dasharray:none"
       d="m 20.641359,1027.1473 c 12.704437,15.2453 12.704437,15.2453 12.704437,15.2453 l 83.849294,0 10.16355,-15.2453 -106.717281,0 z"
       id="path7741" />
    <path
       style="fill:none;stroke:#000000;stroke-width:2.22672248;stroke-linecap:round;stroke-linejoin:round;stroke-miterlimit:4;stroke-opacity:1;stroke-dasharray:none"
       d="M 20.895444,1027.1473 C 71.459109,978.36216 20.641359,929.57712 20.641359,929.57712"
       id="path7793" />
    <path
       style="fill:none;stroke:#000000;stroke-width:2.22672248;stroke-linecap:round;stroke-linejoin:round;stroke-miterlimit:4;stroke-opacity:1;stroke-dasharray:none"
       d="m 127.35864,1027.1473 c -55.899531,-45.73607 0,-97.57018 0,-97.57018"
       id="path7795" />
    <path
       style="fill:none;stroke:#999999;stroke-width:2.22672248;stroke-linecap:round;stroke-linejoin:round;stroke-miterlimit:4;stroke-opacity:1;stroke-dasharray:none"
       d="m 20.641359,1027.1473 c 81.308401,-45.73607 0,-97.57018 0,-97.57018"
       id="path7838" />
    <path
       style="fill:none;stroke:#999999;stroke-width:2.22672248;stroke-linecap:round;stroke-linejoin:round;stroke-miterlimit:4;stroke-opacity:1;stroke-dasharray:none"
       d="m 127.35864,1027.1473 c -83.849294,-45.73607 0,-97.57018 0,-97.57018"
       id="path7840" />
    <path
       style="fill:none;stroke:#999999;stroke-width:2.22672248;stroke-linecap:round;stroke-linejoin:round;stroke-miterlimit:4;stroke-opacity:1;stroke-dasharray:none"
       d="m 20.641359,1027.1473 c 94.012841,-45.73607 0,-97.57018 0,-97.57018"
       id="path7846" />
    <path
       style="fill:none;stroke:#999999;stroke-width:2.22672248;stroke-linecap:round;stroke-linejoin:round;stroke-miterlimit:4;stroke-opacity:1;stroke-dasharray:none"
       d="m 127.35864,1027.1473 c -96.553731,-45.73607 0,-97.57018 0,-97.57018"
       id="path7852" />
    <path
       style="fill:none;stroke:#999999;stroke-width:2.22672248;stroke-linecap:round;stroke-linejoin:round;stroke-miterlimit:4;stroke-opacity:1;stroke-dasharray:none"
       d="m 33.345796,1027.1473 c 40.6542,-45.73607 81.308404,0 81.308404,0"
       id="path7866" />
    <path
       style="fill:none;stroke:#999999;stroke-width:2.22672248;stroke-linecap:round;stroke-linejoin:round;stroke-miterlimit:4;stroke-opacity:1;stroke-dasharray:none"
       d="m 33.345796,929.57712 c 40.6542,51.83411 81.308404,0 81.308404,0"
       id="path7868" />
    <path
       style="fill:url(#linearGradient3721);fill-opacity:1;fill-rule:nonzero;stroke:#999999;stroke-width:2.22672248;stroke-linecap:round;stroke-linejoin:round;stroke-miterlimit:4;stroke-opacity:1;stroke-dasharray:none"
       d="M 20.641359,929.57712 C 33.853974,914.6367 33.345796,914.3318 33.345796,914.3318 c 81.308404,0 81.308404,0 81.308404,0 l 12.70444,15.24532 -106.717281,0 z"
       id="path3609"
       sodipodi:nodetypes="ccccc" />
    <path
       style="fill:none;stroke:#999999;stroke-width:0;stroke-linecap:round;stroke-linejoin:round;stroke-miterlimit:4;stroke-opacity:1;stroke-dasharray:none;stroke-dashoffset:0"
       d="m 69.077259,951.08886 c -10.71513,-1.03524 -21.80178,-7.43307 -30.998828,-17.88861 l -2.03271,-2.31088 37.826813,-0.0143 c 35.363096,-0.0134 37.804106,0.019 37.478096,0.49688 -0.71682,1.05069 -5.45804,5.38635 -8.56545,7.83278 -11.257316,8.86269 -22.812829,12.93673 -33.707921,11.88411 z"
       id="path7769" />
    <path
       style="fill:url(#linearGradient7827);fill-opacity:1;stroke:#999999;stroke-width:0;stroke-linecap:round;stroke-linejoin:round;stroke-miterlimit:4;stroke-opacity:1;stroke-dasharray:none;stroke-dashoffset:0"
       d="m 30.725416,1017.9879 c 6.64131,-8.5617 10.898333,-17.8132 12.848708,-27.92311 0.6513,-3.37602 0.93918,-12.66078 0.50052,-16.14293 -1.532805,-12.16779 -5.665748,-22.49563 -13.907018,-34.75233 -0.366465,-0.54502 -0.564592,-0.99095 -0.44028,-0.99095 0.124313,0 1.825485,1.48676 3.780375,3.30388 9.05988,8.42144 15.027938,16.34489 18.64017,24.74752 2.48352,5.77705 3.390915,10.03289 3.354218,15.73189 -0.07634,11.85965 -6.552915,22.92923 -19.456388,33.25413 -3.071955,2.4581 -6.550185,4.9825 -6.864997,4.9825 -0.09352,0 0.601597,-0.9947 1.544692,-2.2106 z"
       id="path7819" />
    <path
       style="fill:url(#linearGradient7837);fill-opacity:1;fill-rule:nonzero;stroke:#999999;stroke-width:0;stroke-linecap:round;stroke-linejoin:round;stroke-miterlimit:4;stroke-opacity:1;stroke-dasharray:none;stroke-dashoffset:0"
       d="m 115.32141,1018.1598 c -1.86979,-1.2013 -8.11714,-6.3643 -10.56495,-8.7312 -7.453023,-7.2066 -12.029114,-15.38795 -13.228011,-23.64941 -0.608602,-4.19381 0.006,-10.2125 1.54701,-15.15575 2.26396,-7.26117 7.853841,-15.99293 14.934061,-23.32797 3.10134,-3.21296 9.42885,-8.96497 9.61553,-8.74098 0.0721,0.0865 -0.4218,0.89491 -1.09756,1.79638 -7.15491,9.54475 -12.40509,21.26075 -14.32968,31.97724 -0.77609,4.32147 -0.84922,13.75511 -0.13591,17.53213 1.8008,9.53522 5.55995,17.58826 12.01052,25.72916 1.34424,1.6965 2.3467,3.0791 2.22768,3.0724 -0.11904,-0.01 -0.55944,-0.2326 -0.97869,-0.502 z"
       id="path7829" />
    <path
       style="fill:url(#linearGradient7847);fill-opacity:1;fill-rule:nonzero;stroke:#999999;stroke-width:0;stroke-linecap:round;stroke-linejoin:round;stroke-miterlimit:4;stroke-opacity:1;stroke-dasharray:none;stroke-dashoffset:0"
       d="m 28.296009,1024.6598 c 5.35128,-2.8392 12.994552,-7.8896 17.278042,-11.4168 12.905393,-10.627 19.074975,-22.62011 17.805608,-34.61263 -1.661573,-15.69785 -13.907183,-31.52565 -35.80035,-46.27296 l -2.205315,-1.4855 3.693832,-0.005 3.69384,-0.005 1.260893,1.554 c 1.729252,2.13123 5.920612,6.48457 8.375377,8.69906 9.458985,8.53309 19.091745,12.65391 29.728388,12.71762 6.473632,0.0388 11.534437,-1.02478 18.005647,-3.78395 7.454223,-3.17832 17.123819,-10.28843 22.974939,-16.89359 l 2.03135,-2.29314 3.64882,0.0119 3.64882,0.0119 -1.4796,0.97903 c -18.27339,12.09127 -29.684659,24.02604 -34.706321,36.29854 -2.08596,5.09789 -2.58105,7.33691 -2.74152,12.39836 -0.158828,5.00969 0.34506,8.02394 2.073172,12.40162 1.602128,4.0586 3.425183,7.07114 6.617708,10.93564 4.19605,5.0793 8.471751,8.8565 15.307611,13.5229 2.90444,1.9827 11.88195,7.3236 13.53147,8.0501 0.20961,0.092 -1.05585,0.1787 -2.81214,0.192 l -3.19326,0.024 -2.14311,-2.0582 c -8.21468,-7.8889 -19.405952,-14.3253 -28.948461,-16.6488 -4.969913,-1.2101 -8.000475,-1.518 -13.085565,-1.3295 -6.45471,0.2393 -11.27481,1.3921 -17.150993,4.1019 -6.255045,2.8844 -13.323442,8.1361 -18.980955,14.1024 l -1.72728,1.8215 -3.303157,0 -3.30315,0 1.90566,-1.011 0,1e-4 z"
       id="path7839" />
    <path
       style="fill:url(#linearGradient7857);fill-opacity:1;fill-rule:nonzero;stroke:#999999;stroke-width:0;stroke-linecap:round;stroke-linejoin:round;stroke-miterlimit:4;stroke-opacity:1;stroke-dasharray:none;stroke-dashoffset:0"
       d="m 69.077259,951.08886 c -10.71513,-1.03524 -21.80178,-7.43307 -30.998828,-17.88861 l -2.03271,-2.31088 37.826813,-0.0143 c 35.363096,-0.0134 37.804106,0.019 37.478096,0.49688 -0.71682,1.05069 -5.45804,5.38635 -8.56545,7.83278 -11.257316,8.86269 -22.812829,12.93673 -33.707921,11.88411 z"
       id="path7849" />
    <path
       style="fill:url(#linearGradient7875);fill-opacity:1;fill-rule:nonzero;stroke:#000000;stroke-width:0;stroke-linecap:round;stroke-linejoin:round;stroke-miterlimit:4;stroke-opacity:1;stroke-dasharray:none;stroke-dashoffset:0"
       d="m 36.947401,1025.2116 c 0.533513,-0.7714 4.509773,-4.3734 6.95595,-6.3012 6.20862,-4.8929 12.485985,-7.987 19.79478,-9.7569 3.860993,-0.935 13.361243,-1.0044 17.321303,-0.1265 6.386633,1.4158 11.312362,3.4015 17.53858,7.0702 3.925806,2.3133 11.462426,7.8969 12.306596,9.1175 0.29458,0.4259 -3.3252,0.4721 -36.959661,0.4721 -33.738128,0 -37.254953,-0.045 -36.957548,-0.4752 z"
       id="path7859" />
  </g>
</svg>
