<?xml version="1.0" encoding="UTF-8" standalone="no"?>
<!-- Created with Inkscape (http://www.inkscape.org/) -->

<svg
   xmlns:dc="http://purl.org/dc/elements/1.1/"
   xmlns:cc="http://creativecommons.org/ns#"
   xmlns:rdf="http://www.w3.org/1999/02/22-rdf-syntax-ns#"
   xmlns:svg="http://www.w3.org/2000/svg"
   xmlns="http://www.w3.org/2000/svg"
   xmlns:xlink="http://www.w3.org/1999/xlink"
   xmlns:sodipodi="http://sodipodi.sourceforge.net/DTD/sodipodi-0.dtd"
   xmlns:inkscape="http://www.inkscape.org/namespaces/inkscape"
   width="148"
   height="148"
   id="svg4209"
   version="1.1"
   inkscape:version="0.47 r22583"
   sodipodi:docname="wp.svg">
  <defs
     id="defs4211">
    <inkscape:perspective
       sodipodi:type="inkscape:persp3d"
       inkscape:vp_x="0 : 526.18109 : 1"
       inkscape:vp_y="0 : 1000 : 0"
       inkscape:vp_z="744.09448 : 526.18109 : 1"
       inkscape:persp3d-origin="372.04724 : 350.78739 : 1"
       id="perspective4217" />
    <inkscape:perspective
       id="perspective4166"
       inkscape:persp3d-origin="0.5 : 0.33333333 : 1"
       inkscape:vp_z="1 : 0.5 : 1"
       inkscape:vp_y="0 : 1000 : 0"
       inkscape:vp_x="0 : 0.5 : 1"
       sodipodi:type="inkscape:persp3d" />
    <linearGradient
       inkscape:collect="always"
       xlink:href="#linearGradient4560"
       id="linearGradient4697"
       x1="252"
       y1="345"
       x2="628"
       y2="345"
       gradientUnits="userSpaceOnUse" />
    <linearGradient
       id="linearGradient4560">
      <stop
         style="stop-color:#f4d7d7;stop-opacity:1;"
         offset="0"
         id="stop4562" />
      <stop
         style="stop-color:#ffffff;stop-opacity:1;"
         offset="1"
         id="stop4564" />
    </linearGradient>
    <linearGradient
       y2="345"
       x2="628"
       y1="345"
       x1="252"
       gradientUnits="userSpaceOnUse"
       id="linearGradient4718"
       xlink:href="#linearGradient4560"
       inkscape:collect="always" />
    <linearGradient
       id="linearGradient4175">
      <stop
         style="stop-color:#f4d7d7;stop-opacity:1;"
         offset="0"
         id="stop4177" />
      <stop
         style="stop-color:#ffffff;stop-opacity:1;"
         offset="1"
         id="stop4179" />
    </linearGradient>
    <linearGradient
       gradientTransform="matrix(0.12704439,0,0,0.12704439,21.396028,939.14817)"
       inkscape:collect="always"
       xlink:href="#linearGradient4560"
       id="linearGradient5297"
       x1="332"
       y1="555"
       x2="548"
       y2="555"
       gradientUnits="userSpaceOnUse" />
    <linearGradient
       id="linearGradient4182">
      <stop
         style="stop-color:#f4d7d7;stop-opacity:1;"
         offset="0"
         id="stop4184" />
      <stop
         style="stop-color:#ffffff;stop-opacity:1;"
         offset="1"
         id="stop4186" />
    </linearGradient>
    <linearGradient
       gradientTransform="matrix(0.12704439,0,0,0.12704439,21.396028,939.14817)"
       inkscape:collect="always"
       xlink:href="#linearGradient4560"
       id="linearGradient3649"
       x1="52.860348"
       y1="808.06042"
       x2="832.74225"
       y2="808.06042"
       gradientUnits="userSpaceOnUse" />
    <linearGradient
       id="linearGradient4189">
      <stop
         style="stop-color:#f4d7d7;stop-opacity:1;"
         offset="0"
         id="stop4191" />
      <stop
         style="stop-color:#ffffff;stop-opacity:1;"
         offset="1"
         id="stop4193" />
    </linearGradient>
    <linearGradient
       gradientTransform="matrix(0.12704439,0,0,0.12704439,21.396028,939.14817)"
       inkscape:collect="always"
       xlink:href="#linearGradient4560"
       id="linearGradient3661"
       x1="69.235588"
       y1="575.89954"
       x2="804.3111"
       y2="575.89954"
       gradientUnits="userSpaceOnUse" />
    <linearGradient
       id="linearGradient4196">
      <stop
         style="stop-color:#f4d7d7;stop-opacity:1;"
         offset="0"
         id="stop4198" />
      <stop
         style="stop-color:#ffffff;stop-opacity:1;"
         offset="1"
         id="stop4200" />
    </linearGradient>
  </defs>
  <sodipodi:namedview
     id="base"
     pagecolor="#ffffff"
     bordercolor="#666666"
     borderopacity="1.0"
     inkscape:pageopacity="0.0"
     inkscape:pageshadow="2"
     inkscape:zoom="2.8284271"
     inkscape:cx="66.675847"
     inkscape:cy="76.012506"
     inkscape:document-units="px"
     inkscape:current-layer="layer1"
     showgrid="true"
     borderlayer="true"
     inkscape:window-width="1018"
     inkscape:window-height="730"
     inkscape:window-x="0"
     inkscape:window-y="6"
     inkscape:window-maximized="1">
    <inkscape:grid
       type="xygrid"
       id="grid3398" />
  </sodipodi:namedview>
  <metadata
     id="metadata4214">
    <rdf:RDF>
      <cc:Work
         rdf:about="">
        <dc:format>image/svg+xml</dc:format>
        <dc:type
           rdf:resource="http://purl.org/dc/dcmitype/StillImage" />
        <dc:title></dc:title>
      </cc:Work>
    </rdf:RDF>
  </metadata>
  <g
     inkscape:label="Camada 1"
     inkscape:groupmode="layer"
     id="layer1"
     transform="translate(0,-904.36218)">
    <path
       style="fill:none;stroke:#000000;stroke-width:2.03271008;stroke-linecap:round;stroke-linejoin:round;stroke-miterlimit:4;stroke-opacity:1;stroke-dasharray:none"
       d="m 23.93692,1035.0667 c 0,0 53.358643,0 53.358643,-94.01286 0,94.01286 53.358657,94.01286 53.358657,94.01286"
       id="path4657" />
    <path
       sodipodi:type="arc"
       style="fill:url(#linearGradient4697);fill-opacity:1;fill-rule:evenodd;stroke:#000000;stroke-width:16;stroke-linecap:round;stroke-linejoin:round;stroke-miterlimit:4;stroke-opacity:1;stroke-dasharray:none;stroke-dashoffset:0"
       id="path4681"
       sodipodi:cx="440"
       sodipodi:cy="345"
       sodipodi:rx="180"
       sodipodi:ry="170"
       d="m 313.35921,224.19189 a 180,170 0 1 1 -0.56549,0.53111"
       transform="matrix(0.12704439,0,0,0.12704439,21.396032,918.82108)"
       sodipodi:start="3.9319943"
       sodipodi:end="10.210749"
       sodipodi:open="true" />
    <path
       sodipodi:type="arc"
       style="fill:url(#linearGradient4718);fill-opacity:1;fill-rule:evenodd;stroke:#000000;stroke-width:23.2969265;stroke-linecap:round;stroke-linejoin:round;stroke-miterlimit:4;stroke-opacity:1;stroke-dasharray:none;stroke-dashoffset:0"
       id="path4681-2"
       sodipodi:cx="440"
       sodipodi:cy="345"
       sodipodi:rx="180"
       sodipodi:ry="170"
       d="m 313.35921,224.19189 a 180,170 0 1 1 -0.56549,0.53111"
       transform="matrix(0.11984728,0,0,0.06352219,24.562762,940.73623)"
       sodipodi:start="3.9319943"
       sodipodi:end="10.210749"
       sodipodi:open="true" />
    <path
       style="fill:url(#linearGradient5297);fill-opacity:1;fill-rule:evenodd;stroke:#000000;stroke-width:2.03271008;stroke-linecap:round;stroke-linejoin:round;stroke-miterlimit:4;stroke-opacity:1;stroke-dasharray:none"
       d="m 64.591125,1022.3622 c 0,0 12.704438,0 12.704438,-25.40883 C 77.295563,1022.3622 90,1022.3622 90,1022.3622"
       id="path4739" />
    <path
       style="fill:none;stroke:#000000;stroke-width:2.03271008;stroke-linecap:round;stroke-linejoin:round;stroke-miterlimit:4;stroke-opacity:1;stroke-dasharray:none"
       d="m 130.65422,1035.0667 c 0,0 -53.358657,12.7044 -106.7173,0 l 12.704435,12.7044 81.308425,0 0,0 12.70444,-12.4503"
       id="path3639" />
    <path
       style="fill:url(#linearGradient3649);fill-opacity:1;fill-rule:evenodd;stroke:#000000;stroke-width:0;stroke-linecap:round;stroke-linejoin:round;stroke-miterlimit:4;stroke-opacity:1;stroke-dasharray:none;stroke-dashoffset:0"
       d="m 32.518227,1041.9042 c -2.582519,-2.5853 -4.5612,-4.7006 -4.397066,-4.7006 0.164133,0 1.134863,0.1767 2.157178,0.3926 3.476928,0.7345 12.769764,2.1677 17.358174,2.6771 15.668422,1.7397 34.328257,1.964 50.436616,0.6063 8.816051,-0.7431 19.853411,-2.1785 26.399301,-3.4332 1.4531,-0.2785 2.67631,-0.4721 2.71825,-0.4302 0.0419,0.042 -2.13828,2.2166 -4.84493,4.8325 l -4.92117,4.7562 -40.105437,0 -40.105425,0 -4.695491,-4.7007 z"
       id="path3641" />
    <path
       style="fill:url(#linearGradient3661);fill-opacity:1;stroke:#000000;stroke-width:0;stroke-linecap:round;stroke-linejoin:round;stroke-miterlimit:4;stroke-opacity:1;stroke-dasharray:none;stroke-dashoffset:0"
       d="m 64.533413,1039.3427 c -0.628868,-0.051 -3.25869,-0.2178 -5.844045,-0.3711 -7.717163,-0.4575 -16.316528,-1.5272 -26.762541,-3.3291 l -1.734802,-0.2991 2.071253,-0.598 c 10.21535,-2.9492 19.395687,-9.358 26.506467,-18.5041 5.973135,-7.6828 10.41684,-16.8342 14.003648,-28.83908 l 0.645285,-2.15976 3.8988,0 3.8988,0 0.723112,2.54088 c 4.249125,14.93066 11.390933,27.29416 20.66756,35.77846 5.18831,4.7451 11.6965,8.5882 17.95305,10.6014 1.39749,0.4496 2.71239,0.8772 2.92202,0.9501 0.4775,0.1662 -0.64957,0.3824 -6.8604,1.316 -14.41682,2.1671 -22.994275,2.8119 -38.875592,2.9221 -6.63807,0.046 -12.583748,0.042 -13.212615,-0.01 l 0,0 z m 2.923582,-16.5121 c 0.588668,-0.246 1.84281,-0.3644 3.865133,-0.365 1.646535,0 4.794555,-0.076 6.995602,-0.1668 l 4.001895,-0.166 0,-1.2336 0,-1.2335 1.333965,1.0845 c 1.55955,1.2679 3.985538,2.4163 5.560523,2.6322 0.891322,0.1222 1.19601,0.058 1.542787,-0.3252 0.716775,-0.792 0.100988,-1.6341 -1.449832,-1.9827 -6.25806,-1.4064 -10.197383,-9.0547 -10.722548,-20.8181 -0.13203,-2.95733 -0.23412,-3.61079 -0.625185,-4.00186 -0.25707,-0.25706 -0.57357,-0.4674 -0.703335,-0.4674 -0.429157,0 -1.034467,0.78946 -1.036732,1.35212 -0.0076,1.89115 -0.577313,8.00484 -0.913073,9.79874 -0.875415,4.6771 -2.579587,8.5107 -4.895032,11.0117 -1.636118,1.7671 -2.923703,2.571 -4.972515,3.1046 -1.531913,0.3988 -1.910715,0.6879 -1.917698,1.4631 -0.009,0.9976 1.928843,1.1518 3.936045,0.3132 l 0,0 z"
       id="path3653" />
  </g>
</svg>
