<?xml version="1.0" encoding="UTF-8" standalone="no"?>
<!-- Created with Inkscape (http://www.inkscape.org/) -->

<svg
   xmlns:dc="http://purl.org/dc/elements/1.1/"
   xmlns:cc="http://creativecommons.org/ns#"
   xmlns:rdf="http://www.w3.org/1999/02/22-rdf-syntax-ns#"
   xmlns:svg="http://www.w3.org/2000/svg"
   xmlns="http://www.w3.org/2000/svg"
   xmlns:xlink="http://www.w3.org/1999/xlink"
   xmlns:sodipodi="http://sodipodi.sourceforge.net/DTD/sodipodi-0.dtd"
   xmlns:inkscape="http://www.inkscape.org/namespaces/inkscape"
   width="148"
   height="148"
   id="svg3961"
   version="1.1"
   inkscape:version="0.47 r22583"
   sodipodi:docname="Novo documento 6">
  <defs
     id="defs3963">
    <inkscape:perspective
       sodipodi:type="inkscape:persp3d"
       inkscape:vp_x="0 : 526.18109 : 1"
       inkscape:vp_y="0 : 1000 : 0"
       inkscape:vp_z="744.09448 : 526.18109 : 1"
       inkscape:persp3d-origin="372.04724 : 350.78739 : 1"
       id="perspective3969" />
    <inkscape:perspective
       id="perspective3979"
       inkscape:persp3d-origin="0.5 : 0.33333333 : 1"
       inkscape:vp_z="1 : 0.5 : 1"
       inkscape:vp_y="0 : 1000 : 0"
       inkscape:vp_x="0 : 0.5 : 1"
       sodipodi:type="inkscape:persp3d" />
    <linearGradient
       inkscape:collect="always"
       xlink:href="#linearGradient3673"
       id="linearGradient3746"
       x1="632"
       y1="355"
       x2="788"
       y2="355"
       gradientUnits="userSpaceOnUse" />
    <linearGradient
       id="linearGradient3673">
      <stop
         id="stop3681"
         offset="0"
         style="stop-color:#f4d7d7;stop-opacity:1;" />
      <stop
         style="stop-color:#ffffff;stop-opacity:1;"
         offset="1"
         id="stop3677" />
    </linearGradient>
    <linearGradient
       gradientTransform="matrix(0.17172897,0,0,0.17172897,-1.1169268,903.21626)"
       inkscape:collect="always"
       xlink:href="#linearGradient3673"
       id="linearGradient3754"
       x1="532"
       y1="355"
       x2="868"
       y2="355"
       gradientUnits="userSpaceOnUse" />
    <linearGradient
       id="linearGradient3988">
      <stop
         id="stop3990"
         offset="0"
         style="stop-color:#f4d7d7;stop-opacity:1;" />
      <stop
         style="stop-color:#ffffff;stop-opacity:1;"
         offset="1"
         id="stop3992" />
    </linearGradient>
    <linearGradient
       gradientTransform="matrix(0.17172897,0,0,0.17172897,-1.1169268,903.21626)"
       inkscape:collect="always"
       xlink:href="#linearGradient3673"
       id="linearGradient3730"
       x1="92"
       y1="355"
       x2="248"
       y2="355"
       gradientUnits="userSpaceOnUse" />
    <linearGradient
       id="linearGradient3995">
      <stop
         id="stop3997"
         offset="0"
         style="stop-color:#f4d7d7;stop-opacity:1;" />
      <stop
         style="stop-color:#ffffff;stop-opacity:1;"
         offset="1"
         id="stop3999" />
    </linearGradient>
    <linearGradient
       gradientTransform="matrix(0.17172897,0,0,0.17172897,-1.1169268,903.21626)"
       inkscape:collect="always"
       xlink:href="#linearGradient3673"
       id="linearGradient3738"
       x1="12"
       y1="355"
       x2="348"
       y2="355"
       gradientUnits="userSpaceOnUse" />
    <linearGradient
       id="linearGradient4002">
      <stop
         id="stop4004"
         offset="0"
         style="stop-color:#f4d7d7;stop-opacity:1;" />
      <stop
         style="stop-color:#ffffff;stop-opacity:1;"
         offset="1"
         id="stop4006" />
    </linearGradient>
    <linearGradient
       gradientTransform="matrix(0.17172897,0,0,0.17172897,-1.1169268,903.21626)"
       inkscape:collect="always"
       xlink:href="#linearGradient3673"
       id="linearGradient3768"
       x1="110.80314"
       y1="733.52069"
       x2="430.77362"
       y2="733.52069"
       gradientUnits="userSpaceOnUse" />
    <linearGradient
       id="linearGradient4009">
      <stop
         id="stop4011"
         offset="0"
         style="stop-color:#f4d7d7;stop-opacity:1;" />
      <stop
         style="stop-color:#ffffff;stop-opacity:1;"
         offset="1"
         id="stop4013" />
    </linearGradient>
    <linearGradient
       gradientTransform="matrix(0.17172897,0,0,0.17172897,-1.1169268,903.21626)"
       inkscape:collect="always"
       xlink:href="#linearGradient3673"
       id="linearGradient3778"
       x1="448.73547"
       y1="710.88916"
       x2="772.97772"
       y2="710.88916"
       gradientUnits="userSpaceOnUse" />
    <linearGradient
       id="linearGradient4016">
      <stop
         id="stop4018"
         offset="0"
         style="stop-color:#f4d7d7;stop-opacity:1;" />
      <stop
         style="stop-color:#ffffff;stop-opacity:1;"
         offset="1"
         id="stop4020" />
    </linearGradient>
    <linearGradient
       gradientTransform="matrix(0.17172897,0,0,0.17172897,-1.1169268,903.21626)"
       inkscape:collect="always"
       xlink:href="#linearGradient3673"
       id="linearGradient3788"
       x1="305.8031"
       y1="803.10114"
       x2="573.8031"
       y2="803.10114"
       gradientUnits="userSpaceOnUse" />
    <linearGradient
       id="linearGradient4023">
      <stop
         id="stop4025"
         offset="0"
         style="stop-color:#f4d7d7;stop-opacity:1;" />
      <stop
         style="stop-color:#ffffff;stop-opacity:1;"
         offset="1"
         id="stop4027" />
    </linearGradient>
    <linearGradient
       gradientTransform="matrix(0.17172897,0,0,0.17172897,-1.1169268,903.21626)"
       inkscape:collect="always"
       xlink:href="#linearGradient3673"
       id="linearGradient3798"
       x1="232.83846"
       y1="364.74335"
       x2="646.85376"
       y2="364.74335"
       gradientUnits="userSpaceOnUse" />
    <linearGradient
       id="linearGradient4030">
      <stop
         id="stop4032"
         offset="0"
         style="stop-color:#f4d7d7;stop-opacity:1;" />
      <stop
         style="stop-color:#ffffff;stop-opacity:1;"
         offset="1"
         id="stop4034" />
    </linearGradient>
    <linearGradient
       gradientTransform="matrix(0.17172897,0,0,0.17172897,-1.1169268,903.21626)"
       y2="355"
       x2="788"
       y1="355"
       x1="632"
       gradientUnits="userSpaceOnUse"
       id="linearGradient4048"
       xlink:href="#linearGradient3673"
       inkscape:collect="always" />
  </defs>
  <sodipodi:namedview
     id="base"
     pagecolor="#ffffff"
     bordercolor="#666666"
     borderopacity="1.0"
     inkscape:pageopacity="0.0"
     inkscape:pageshadow="2"
     inkscape:zoom="2.7671875"
     inkscape:cx="93.421795"
     inkscape:cy="72.252964"
     inkscape:document-units="px"
     inkscape:current-layer="layer1"
     showgrid="false"
     inkscape:window-width="1018"
     inkscape:window-height="730"
     inkscape:window-x="0"
     inkscape:window-y="6"
     inkscape:window-maximized="1" />
  <metadata
     id="metadata3966">
    <rdf:RDF>
      <cc:Work
         rdf:about="">
        <dc:format>image/svg+xml</dc:format>
        <dc:type
           rdf:resource="http://purl.org/dc/dcmitype/StillImage" />
        <dc:title></dc:title>
      </cc:Work>
    </rdf:RDF>
  </metadata>
  <g
     inkscape:label="Camada 1"
     inkscape:groupmode="layer"
     id="layer1"
     transform="translate(0,-904.36218)">
    <path
       style="fill:url(#linearGradient4048);fill-opacity:1;stroke:#000000;stroke-width:2.7476635;stroke-linecap:round;stroke-linejoin:round;stroke-miterlimit:4;stroke-opacity:1;stroke-dasharray:none"
       d="m 108.78961,998.52583 c 0,0 20.60748,-17.17289 20.60748,-75.56074 -3.43458,78.99531 3.43458,82.42991 3.43458,82.42991"
       id="path3680" />
    <path
       style="fill:url(#linearGradient3754);fill-opacity:1;stroke:#000000;stroke-width:2.7476635;stroke-linecap:round;stroke-linejoin:round;stroke-miterlimit:4;stroke-opacity:1;stroke-dasharray:none"
       d="m 91.616717,1022.5678 c 0,0 41.214953,-17.1728 54.953273,-116.77561 -13.73832,106.47191 -13.73832,106.47191 -13.73832,106.47191"
       id="path2892" />
    <path
       style="fill:url(#linearGradient3730);fill-opacity:1;stroke:#000000;stroke-width:2.7476635;stroke-linecap:round;stroke-linejoin:round;stroke-miterlimit:4;stroke-opacity:1;stroke-dasharray:none"
       d="m 40.098026,998.52583 c 0,0 -20.607477,-17.17289 -20.607477,-75.56074 0,82.42991 -3.434579,82.42991 -3.434579,82.42991"
       id="path3674" />
    <path
       style="fill:url(#linearGradient3738);fill-opacity:1;stroke:#000000;stroke-width:2.7476635;stroke-linecap:round;stroke-linejoin:round;stroke-miterlimit:4;stroke-opacity:1;stroke-dasharray:none"
       d="m 57.270922,1022.5678 c 0,0 -41.214952,-17.1728 -54.9532704,-116.77561 L 16.05597,1015.6987"
       id="path2884" />
    <path
       style="fill:none;stroke:#000000;stroke-width:2.7476635;stroke-linecap:round;stroke-linejoin:round;stroke-miterlimit:4;stroke-opacity:1;stroke-dasharray:none"
       d="m 43.532605,1043.1753 c 0,0 30.911214,6.8692 30.911214,-18.2032 0,25.0724 30.911211,18.2032 30.911211,18.2032"
       id="path5419" />
    <path
       style="fill:none;stroke:#000000;stroke-width:2.7476635;stroke-linecap:round;stroke-linejoin:round;stroke-miterlimit:4;stroke-opacity:1;stroke-dasharray:none"
       d="m 16.05597,1005.395 c 58.387849,44.6495 116.7757,0 116.7757,0"
       id="path5391" />
    <path
       style="fill:none;stroke:#000000;stroke-width:2.7476635;stroke-linecap:round;stroke-linejoin:round;stroke-miterlimit:4;stroke-opacity:1;stroke-dasharray:none"
       d="m 57.270922,1022.5678 c 0,0 -54.9532704,-41.21486 17.172897,-116.77561 72.126171,75.56075 17.172898,116.77561 17.172898,116.77561"
       id="path3666" />
    <path
       sodipodi:type="arc"
       style="fill:none;stroke:#000000;stroke-width:17.78216743;stroke-linecap:round;stroke-linejoin:round;stroke-miterlimit:4;stroke-opacity:1;stroke-dasharray:none;stroke-dashoffset:0"
       id="path2899"
       sodipodi:cx="440"
       sodipodi:cy="645"
       sodipodi:rx="420"
       sodipodi:ry="210"
       d="M 860,645 A 420,210 0 0 1 20.079156,649.07691"
       transform="matrix(0.13903179,0,0,0.17172897,13.264328,903.21626)"
       sodipodi:start="0"
       sodipodi:end="3.1221776"
       sodipodi:open="true" />
    <path
       style="fill:url(#linearGradient3768);fill-opacity:1;stroke:#000000;stroke-width:0;stroke-linecap:round;stroke-linejoin:round;stroke-miterlimit:4;stroke-opacity:0;stroke-dasharray:none;stroke-dashoffset:0"
       d="m 38.870382,1040.7851 c -8.863432,-4.3139 -15.622875,-10.407 -18.785745,-16.9339 -1.282781,-2.6471 -2.162506,-5.4613 -2.169385,-6.9398 l -0.0041,-0.8762 8.844042,1.447 c 7.24949,1.1861 9.401362,1.671 11.935163,2.6899 9.584371,3.8538 19.003435,5.8821 30.481892,6.5639 2.43862,0.1449 3.690449,0.3539 3.687097,0.6156 -0.01467,1.1447 -1.132202,4.9233 -1.910021,6.4583 -2.000018,3.9468 -6.523706,6.9837 -11.949046,8.0218 -3.12679,0.5982 -9.876412,0.6727 -13.268294,0.1465 -1.639125,-0.2543 -2.567669,-0.2573 -3.030199,-0.01 -0.534106,0.2858 -1.296942,0.05 -3.831428,-1.1833 l 0,0 z"
       id="path3760" />
    <path
       style="fill:url(#linearGradient3778);fill-opacity:1;stroke:#000000;stroke-width:0;stroke-linecap:round;stroke-linejoin:round;stroke-miterlimit:4;stroke-opacity:0;stroke-dasharray:none;stroke-dashoffset:0"
       d="m 89.522156,1041.7854 c -3.514722,-0.736 -6.944598,-2.4681 -9.04332,-4.5668 -2.473505,-2.4735 -3.659225,-5.0235 -4.339712,-9.3328 l -0.19517,-1.236 3.46476,-0.227 c 11.059428,-0.7248 24.731436,-4.2905 36.044516,-9.4006 1.22786,-0.5546 4.89816,-1.6912 8.15621,-2.5257 l 5.92374,-1.5173 0.001,-1.7291 c 6.9e-4,-1.562 0.1019,-1.7887 1.04622,-2.3465 l 1.04531,-0.6175 -0.20164,3.8921 c -0.26904,5.1931 -0.90475,8.0361 -2.56294,11.462 -3.26851,6.7527 -9.68301,12.5888 -18.85186,17.152 -2.61024,1.299 -3.27606,1.5053 -3.85641,1.1947 -0.50392,-0.2697 -1.36697,-0.2721 -3.06477,-0.01 -3.306636,0.513 -10.697029,0.4079 -13.565964,-0.1928 z"
       id="path3770" />
    <path
       style="fill:url(#linearGradient3788);fill-opacity:1;stroke:#000000;stroke-width:0;stroke-linecap:round;stroke-linejoin:round;stroke-miterlimit:4;stroke-opacity:0;stroke-dasharray:none;stroke-dashoffset:0"
       d="m 66.510473,1048.1452 c -3.951617,-0.3696 -9.246248,-1.2042 -12.536215,-1.9761 l -2.575934,-0.6043 3.778037,-0.2148 c 4.394265,-0.2498 8.777865,-1.3985 11.760483,-3.0818 2.524019,-1.4244 5.573336,-4.5283 6.625096,-6.7436 l 0.825295,-1.7383 1.021135,1.903 c 3.034547,5.6552 9.633681,9.1501 18.235281,9.6572 l 3.778038,0.2228 -1.889019,0.446 c -9.271218,2.1887 -19.985669,2.975 -29.022197,2.1299 l 0,0 z"
       id="path3780" />
    <path
       style="fill:url(#linearGradient3798);fill-opacity:1;stroke:#000000;stroke-width:0;stroke-linecap:round;stroke-linejoin:round;stroke-miterlimit:4;stroke-opacity:0;stroke-dasharray:none;stroke-dashoffset:0"
       d="m 67.197389,1023.5847 c -3.893997,-0.2824 -8.414719,-0.9124 -8.414719,-1.1726 0,-0.1531 -1.512519,-1.7994 -3.361154,-3.6584 -10.830281,-10.891 -16.532641,-24.47833 -16.553245,-39.44232 -0.0068,-4.94061 0.370902,-8.63036 1.387836,-13.55759 3.537612,-17.14034 14.74536,-36.5295 31.90776,-55.19974 l 2.278747,-2.47896 2.740427,2.99414 c 16.509618,18.03811 27.245529,36.44263 31.197929,53.48245 1.63264,7.03876 2.0497,16.30507 1.03993,23.10551 -1.74038,11.72085 -8.00008,23.64671 -16.737732,31.88851 l -2.592108,2.445 -3.719031,0.5406 c -2.045468,0.2972 -4.414534,0.6204 -5.264593,0.718 -2.18545,0.2511 -11.856989,0.4843 -13.910047,0.3354 l 0,0 z"
       id="path3790" />
  </g>
</svg>
