<?xml version="1.0" encoding="UTF-8" standalone="no"?>
<!-- Created with Inkscape (http://www.inkscape.org/) -->

<svg
   xmlns:dc="http://purl.org/dc/elements/1.1/"
   xmlns:cc="http://creativecommons.org/ns#"
   xmlns:rdf="http://www.w3.org/1999/02/22-rdf-syntax-ns#"
   xmlns:svg="http://www.w3.org/2000/svg"
   xmlns="http://www.w3.org/2000/svg"
   xmlns:sodipodi="http://sodipodi.sourceforge.net/DTD/sodipodi-0.dtd"
   xmlns:inkscape="http://www.inkscape.org/namespaces/inkscape"
   width="64px"
   height="64px"
   id="svg2985"
   version="1.1"
   inkscape:version="0.48.1 "
   sodipodi:docname="bb.svg">
  <defs
     id="defs2987" />
  <sodipodi:namedview
     id="base"
     pagecolor="#ffffff"
     bordercolor="#666666"
     borderopacity="1.0"
     inkscape:pageopacity="0.0"
     inkscape:pageshadow="2"
     inkscape:zoom="5.5"
     inkscape:cx="10.272727"
     inkscape:cy="32"
     inkscape:current-layer="layer1"
     showgrid="true"
     inkscape:document-units="px"
     inkscape:grid-bbox="true"
     inkscape:window-width="1365"
     inkscape:window-height="878"
     inkscape:window-x="-8"
     inkscape:window-y="-8"
     inkscape:window-maximized="1" />
  <metadata
     id="metadata2990">
    <rdf:RDF>
      <cc:Work
         rdf:about="">
        <dc:format>image/svg+xml</dc:format>
        <dc:type
           rdf:resource="http://purl.org/dc/dcmitype/StillImage" />
        <dc:title></dc:title>
      </cc:Work>
    </rdf:RDF>
  </metadata>
  <g
     id="layer1"
     inkscape:label="Layer 1"
     inkscape:groupmode="layer">
    <text
       xml:space="preserve"
       style="font-size:64px;font-style:normal;font-variant:normal;font-weight:normal;font-stretch:normal;line-height:125%;letter-spacing:0px;word-spacing:0px;fill:#000000;fill-opacity:1;stroke:none;font-family:Chess-7;-inkscape-font-specification:Chess-7"
       x="-0.76855469"
       y="65.599609"
       id="text3145"
       sodipodi:linespacing="125%"><tspan
         sodipodi:role="line"
         id="tspan3147"
         x="-0.76855469"
         y="65.599609">b</tspan></text>
    <path
       style="fill:#ffffff;fill-opacity:1;fill-rule:evenodd"
       d="m 12.227709,60.463636 c 0.312731,-1.023962 0.631406,-1.58552 1.058603,-1.86543 0.413864,-0.271174 1.132436,-0.296393 6.878823,-0.241415 7.210449,0.06898 7.163983,0.07627 7.990039,-1.252383 0.355282,-0.571445 0.421915,-0.906711 0.398371,-2.004408 l -0.02827,-1.318182 1.279854,0 1.279854,0 -0.08545,1.774511 c -0.08891,1.846401 -0.17608,2.121379 -1.120024,3.533168 -1.113059,1.664721 -1.800505,1.780993 -10.537216,1.782216 l -7.239525,0.001 0.124941,-0.409091 z"
       id="path3149"
       inkscape:connector-curvature="0" />
    <path
       style="fill:#ffffff;fill-opacity:1;fill-rule:evenodd"
       d="m 37.127273,60.78068 c -0.1,-0.03484 -0.650981,-0.193923 -1.224401,-0.353526 C 34.943589,60.160151 34.807,60.053776 34.193309,59.095756 33.379755,57.825731 33.041369,56.62822 33.038522,55.009091 l -0.0022,-1.227273 1.181818,0 1.181818,0 6.73e-4,1.409091 c 7.82e-4,1.627468 0.335319,2.368411 1.309461,2.900264 0.551211,0.300945 1.114759,0.322127 7.070453,0.265764 l 6.471504,-0.06125 0.48931,0.424882 c 0.269121,0.233685 0.605303,0.813518 0.747072,1.288518 l 0.257763,0.863636 -7.218576,-0.01435 c -3.97021,-0.0079 -7.300387,-0.04286 -7.400387,-0.07769 z"
       id="path3151"
       inkscape:connector-curvature="0" />
    <path
       style="fill:#ffffff;fill-opacity:1;fill-rule:evenodd"
       d="m 22.809091,51.655615 c -0.575,-0.04057 -1.045455,-0.11702 -1.045455,-0.169891 0,-0.05287 0.480271,-0.68388 1.067268,-1.402246 1.035033,-1.266669 3.344632,-4.445953 3.674587,-5.058262 0.127198,-0.236043 -0.75014,-1.507549 -4.014544,-5.818181 -2.297523,-3.03387 -4.42379,-5.81744 -4.72504,-6.185715 -0.301249,-0.368275 -0.547725,-0.756676 -0.547725,-0.863113 0,-0.106438 0.272916,-0.500576 0.606481,-0.875865 C 18.158227,30.907054 19.442062,29.25 20.677628,27.6 c 4.068149,-5.432689 9.132004,-12.074555 9.928833,-13.022882 0.430699,-0.512586 0.936099,-0.971987 1.123111,-1.020892 0.786874,-0.205772 1.324763,0.36241 4.688806,4.952865 5.102342,6.962472 8.46188,11.443585 9.31152,12.420149 0.748584,0.860411 0.971862,1.609896 0.556144,1.866824 -0.197515,0.122071 -6.091226,7.977312 -7.864415,10.481827 -0.524778,0.741216 -0.813262,1.314464 -0.731991,1.454545 0.44068,0.759584 2.548299,3.569535 3.766031,5.021011 0.783924,0.934398 1.371684,1.75258 1.306135,1.818182 -0.129009,0.129118 -18.232975,0.205322 -19.952711,0.08399 l 0,0 z M 33.53903,39.1 l 0.04812,-5.5 1.724606,0 1.724608,0 0,-1.545455 0,-1.545454 -1.727273,0 -1.727273,0 0,-2.181818 0,-2.181818 -1.545454,0 -1.545455,0 0,2.181818 0,2.181818 -1.727273,0 -1.727272,0 0,1.545454 0,1.545455 1.727272,0 1.727273,0 0,5.424242 c 0,2.983334 0.05769,5.481927 0.128189,5.552433 0.0705,0.0705 0.745504,0.104594 1.5,0.07576 L 33.490909,44.6 33.53903,39.1 z"
       id="path3153"
       inkscape:connector-curvature="0" />
    <path
       style="fill:#ffffff;fill-opacity:1;fill-rule:evenodd"
       d="M 30.415854,8.877498 28.99819,7.420714 29.91016,6.3739933 C 30.411743,5.7982969 31.095332,5.079411 31.429247,4.776469 l 0.607117,-0.5508038 1.571579,1.6001455 1.571579,1.6001455 -1.540486,1.4052036 c -0.847267,0.7728622 -1.600118,1.4272352 -1.673002,1.4541632 -0.07288,0.02693 -0.770465,-0.6065937 -1.55018,-1.407825 l 0,0 z"
       id="path3155"
       inkscape:connector-curvature="0" />
  </g>
</svg>
