<?xml version="1.0" encoding="UTF-8" standalone="no"?>
<!-- Created with Inkscape (http://www.inkscape.org/) -->

<svg
   xmlns:dc="http://purl.org/dc/elements/1.1/"
   xmlns:cc="http://creativecommons.org/ns#"
   xmlns:rdf="http://www.w3.org/1999/02/22-rdf-syntax-ns#"
   xmlns:svg="http://www.w3.org/2000/svg"
   xmlns="http://www.w3.org/2000/svg"
   xmlns:sodipodi="http://sodipodi.sourceforge.net/DTD/sodipodi-0.dtd"
   xmlns:inkscape="http://www.inkscape.org/namespaces/inkscape"
   width="64px"
   height="64px"
   id="svg2985"
   version="1.1"
   inkscape:version="0.48.1 "
   sodipodi:docname="br.svg">
  <defs
     id="defs2987" />
  <sodipodi:namedview
     id="base"
     pagecolor="#ffffff"
     bordercolor="#666666"
     borderopacity="1.0"
     inkscape:pageopacity="0.0"
     inkscape:pageshadow="2"
     inkscape:zoom="5.5"
     inkscape:cx="10.272727"
     inkscape:cy="32"
     inkscape:current-layer="layer1"
     showgrid="true"
     inkscape:document-units="px"
     inkscape:grid-bbox="true"
     inkscape:window-width="1365"
     inkscape:window-height="878"
     inkscape:window-x="-8"
     inkscape:window-y="-8"
     inkscape:window-maximized="1" />
  <metadata
     id="metadata2990">
    <rdf:RDF>
      <cc:Work
         rdf:about="">
        <dc:format>image/svg+xml</dc:format>
        <dc:type
           rdf:resource="http://purl.org/dc/dcmitype/StillImage" />
        <dc:title></dc:title>
      </cc:Work>
    </rdf:RDF>
  </metadata>
  <g
     id="layer1"
     inkscape:label="Layer 1"
     inkscape:groupmode="layer">
    <path
       style="fill:#000000"
       d="m 11.315365,57.090249 c -1.9271707,-4.952317 0.828887,-10.763636 8.13616,-17.155602 2.921521,-2.555571 5.493628,-5.109292 5.715792,-5.674935 0.222165,-0.565642 -0.184771,-1.81953 -0.904302,-2.786416 -1.770344,-2.378941 -7.908305,-2.60139 -9.354423,-0.339018 -0.515037,0.805747 -1.377528,1.464995 -1.916647,1.464995 -1.15951,0 -4.5991912,-3.643614 -4.6332616,-4.90796 C 8.3456523,27.20774 7.751333,26.492966 7.0379733,26.102928 5.8295388,25.4422 5.8551412,25.195271 7.4128396,22.487435 c 0.9195362,-1.598483 1.6718839,-3.432014 1.6718839,-4.074514 0,-0.675389 0.8697484,-1.360744 2.0617645,-1.624656 8.898556,-1.970135 19.323707,-6.551618 22.52613,-9.8994323 2.140222,-2.2373881 2.216491,-2.2560492 4.501759,-1.1014578 1.630573,0.8238178 4.350423,1.1744892 9.109478,1.1744892 3.731654,0 6.784825,0.2259733 6.784825,0.5021629 0,0.2761896 -0.709653,1.2401879 -1.577005,2.1422189 l -1.577006,1.6400551 2.664558,3.409444 c 4.45181,5.696328 4.626379,15.154706 0.456406,24.728726 -1.218883,2.798487 -2.216151,6.220458 -2.216151,7.604381 0,2.868508 2.089865,7.289335 4.418617,9.346989 0.868585,0.767469 1.579244,1.673935 1.579244,2.014368 0,0.340433 -10.29843,0.618969 -22.885401,0.618969 l -22.885401,0 -0.731176,-1.878929 z m 37.050023,-3.431677 c -1.218982,-3.611999 -0.433415,-8.959405 2.180613,-14.843579 3.867632,-8.706036 4.768664,-12.863968 3.662937,-16.903117 -1.409779,-5.149833 -4.961055,-9.154737 -7.016985,-7.913312 -0.416928,0.251752 0.189134,1.40011 1.37969,2.614215 1.954692,1.993357 2.12324,2.612064 2.12324,7.793996 0,5.737292 0.04015,5.60824 -4.988418,16.03424 -1.650661,3.422407 -2.592571,10.051038 -1.8429,12.969299 0.390817,1.521344 0.939133,1.896377 2.772596,1.896377 2.035063,0 2.224503,-0.180554 1.729227,-1.648119 z M 13.583119,21.288793 c 0,-0.580534 -0.299152,-1.236152 -0.664783,-1.45693 -0.825568,-0.4985 -2.505828,1.368049 -1.827821,2.03047 0.892008,0.871502 2.492604,0.503211 2.492604,-0.57354 z m 21.286977,-2.790095 c 0.947634,-1.476954 -0.108469,-3.706478 -1.921298,-4.056024 -1.35493,-0.261256 -6.075291,4.029026 -5.088498,4.624877 0.394609,0.238276 1.031539,0.243586 1.415399,0.0118 0.38386,-0.231785 0.921765,-0.06758 1.195343,0.364907 0.719154,1.136865 3.437887,0.552483 4.399054,-0.945562 z m -4.043127,-0.872392 c 0,-0.177661 0.33738,-0.526737 0.749733,-0.775727 0.412353,-0.24899 0.749732,-0.103631 0.749732,0.323019 0,0.426649 -0.337379,0.775727 -0.749732,0.775727 -0.412353,0 -0.749733,-0.145358 -0.749733,-0.323019 z"
       id="path3021"
       inkscape:connector-curvature="0" />
    <path
       style="fill:#ffffff;fill-opacity:1;fill-rule:evenodd"
       d="m 11.581818,22.092768 c -0.695641,-0.350683 -0.674591,-0.945449 0.05944,-1.679481 0.347308,-0.347308 0.749698,-0.631469 0.894199,-0.631469 0.569775,0 0.988194,0.859715 0.89282,1.834452 -0.02771,0.283163 -0.740678,0.713623 -1.173196,0.708322 -0.120294,-0.0015 -0.423263,-0.105795 -0.673263,-0.231824 z"
       id="path3023"
       inkscape:connector-curvature="0" />
    <path
       style="fill:#ffffff;fill-opacity:1;fill-rule:evenodd"
       d="m 30.568969,19.407971 c -0.550283,-0.43731 -0.797651,-0.526956 -1.161364,-0.420879 -0.536735,0.156539 -1.424581,0.165629 -1.574094,0.01612 -0.424168,-0.424168 2.082442,-3.125101 3.723419,-4.012074 1.232799,-0.666346 1.92379,-0.566543 2.801144,0.404583 1.30141,1.440505 0.944041,3.222061 -0.822955,4.102592 -1.271629,0.63368 -2.086314,0.608867 -2.96615,-0.09034 z m 1.52194,-1.662516 c 0.272658,-0.272658 0.283173,-0.8111 0.01903,-0.974352 -0.438265,-0.270862 -1.417847,0.600762 -1.154341,1.027123 0.146966,0.237795 0.878762,0.20378 1.135314,-0.05277 z"
       id="path3025"
       inkscape:connector-curvature="0" />
    <path
       style="fill:#ffffff;fill-opacity:1;fill-rule:evenodd"
       d="m 44.993195,54.951747 c -0.717738,-0.38944 -1.072207,-1.217138 -1.210521,-2.826602 -0.23365,-2.718847 0.30354,-6.853478 1.277241,-9.830629 0.206696,-0.631983 1.153161,-2.785425 2.103256,-4.785425 3.478965,-7.323403 3.56329,-7.654988 3.475268,-13.66539 -0.07341,-5.01253 -0.08838,-5.071944 -1.754768,-6.96203 -0.577405,-0.654919 -1.188352,-1.393058 -1.357659,-1.640308 -0.441712,-0.645063 -0.396304,-1.2161 0.106742,-1.342357 2.04727,-0.513832 5.082023,3.207559 6.420265,7.872902 0.44482,1.550721 0.476663,1.87791 0.387931,3.986016 -0.137055,3.256173 -0.850593,5.710238 -3.443173,11.842076 -2.228506,5.270745 -2.977336,7.961293 -3.162716,11.363636 -0.0827,1.517817 -0.03644,2.328762 0.19186,3.363637 0.517226,2.344529 0.53873,2.568387 0.263458,2.742685 -0.417612,0.264424 -2.745827,0.180953 -3.297184,-0.118211 l 0,0 z"
       id="path3027"
       inkscape:connector-curvature="0" />
  </g>
</svg>
