<?xml version="1.0" encoding="UTF-8" standalone="no"?>
<!-- Created with Inkscape (http://www.inkscape.org/) -->

<svg
   xmlns:dc="http://purl.org/dc/elements/1.1/"
   xmlns:cc="http://creativecommons.org/ns#"
   xmlns:rdf="http://www.w3.org/1999/02/22-rdf-syntax-ns#"
   xmlns:svg="http://www.w3.org/2000/svg"
   xmlns="http://www.w3.org/2000/svg"
   xmlns:sodipodi="http://sodipodi.sourceforge.net/DTD/sodipodi-0.dtd"
   xmlns:inkscape="http://www.inkscape.org/namespaces/inkscape"
   width="64px"
   height="64px"
   id="svg2985"
   version="1.1"
   inkscape:version="0.48.1 "
   sodipodi:docname="wk.svg">
  <defs
     id="defs2987" />
  <sodipodi:namedview
     id="base"
     pagecolor="#ffffff"
     bordercolor="#666666"
     borderopacity="1.0"
     inkscape:pageopacity="0.0"
     inkscape:pageshadow="2"
     inkscape:zoom="7.7781746"
     inkscape:cx="50.362779"
     inkscape:cy="32.812069"
     inkscape:current-layer="layer1"
     showgrid="true"
     inkscape:document-units="px"
     inkscape:grid-bbox="true"
     inkscape:window-width="1365"
     inkscape:window-height="878"
     inkscape:window-x="-8"
     inkscape:window-y="-8"
     inkscape:window-maximized="1" />
  <metadata
     id="metadata2990">
    <rdf:RDF>
      <cc:Work
         rdf:about="">
        <dc:format>image/svg+xml</dc:format>
        <dc:type
           rdf:resource="http://purl.org/dc/dcmitype/StillImage" />
        <dc:title></dc:title>
      </cc:Work>
    </rdf:RDF>
  </metadata>
  <g
     id="layer1"
     inkscape:label="Layer 1"
     inkscape:groupmode="layer">
    <path
       style="fill:#000000"
       d="m 11.652345,56.596118 c 0,-1.860837 6.021988,-8.209458 9.446338,-9.958706 2.037337,-1.040727 2.298931,-1.457854 1.664808,-2.65464 -1.178021,-2.223286 -0.887804,-4.555975 1.104675,-8.879082 1.013407,-2.198803 1.842559,-4.805204 1.842559,-5.792002 0,-1.723126 -0.205111,-1.794178 -5.179403,-1.794178 l -5.179404,0 0,-2.139795 c 0,-1.593197 0.912171,-3.001605 3.570914,-5.513555 1.964002,-1.855567 4.211493,-3.580295 4.994424,-3.832727 1.092738,-0.352321 1.432684,-1.178076 1.462986,-3.553712 0.117805,-9.2355669 13.663809,-8.6459932 13.981985,0.60855 0.06855,1.993939 0.545204,2.760187 2.281533,3.667719 2.890871,1.510979 5.420984,3.937109 6.704666,6.429115 2.015928,3.913514 1.578006,4.334405 -4.509791,4.334405 -6.563657,0 -6.570473,0.0153 -3.329616,7.473551 2.406403,5.537903 2.616215,6.823554 1.467404,8.991711 -0.623429,1.176602 -0.40156,1.603119 1.294851,2.489209 3.934666,2.055202 9.076381,7.541181 9.076381,9.684092 l 0,2.002996 -20.347655,0 c -20.150512,0 -20.347655,-0.01514 -20.347655,-1.562951 z m 33.240161,-4.106397 c -0.986582,-1.062916 -3.23939,-2.598758 -5.006241,-3.412983 -2.962236,-1.365099 -3.165251,-1.636605 -2.606437,-3.485751 1.061158,-3.511425 0.617898,-8.615634 -1.062988,-12.240472 -0.894926,-1.929913 -1.627139,-4.03185 -1.627139,-4.670969 0,-1.428862 -4.366028,-1.639595 -4.720487,-0.227842 -0.238297,0.949098 -1.252266,3.860704 -3.144976,9.030789 -1.003996,2.742489 -0.815493,4.845722 0.786753,8.778235 0.353759,0.868256 -0.3166,1.543624 -2.535184,2.554127 -2.825567,1.286964 -6.66423,4.281109 -6.66423,5.198075 0,0.22515 6.384311,0.409363 14.187358,0.409363 l 14.187357,0 -1.793786,-1.932572 z M 41.651595,21.573149 C 40.499926,20.358977 38.414798,18.817791 37.017977,18.148291 35.125733,17.241333 34.608215,16.613352 34.987906,15.684907 36.142452,12.86174 36.0907,12.074066 34.665048,10.770895 33.626684,9.8217378 32.58523,9.5519508 31.258217,9.8883588 28.884803,10.490038 28.19419,12.16431 29.204382,14.867527 c 0.715439,1.914474 0.600304,2.150235 -1.473881,3.01803 -2.090925,0.874798 -6.459265,4.591903 -6.459265,5.496312 0,0.219376 5.056719,0.398866 11.237153,0.398866 l 11.237152,0 -2.093946,-2.207586 z"
       id="path3252"
       inkscape:connector-curvature="0" />
    <path
       style="fill:#ffffff;fill-opacity:1;fill-rule:evenodd"
       d="m 25.382625,54.299655 c -5.206132,-0.0869 -7.006786,-0.185808 -7.006786,-0.384888 0,-0.05612 0.22913,-0.391913 0.509177,-0.7462 0.810822,-1.025766 3.429399,-2.895998 5.790727,-4.135833 2.074751,-1.089364 2.958173,-1.771554 2.955663,-2.282396 -6.07e-4,-0.123541 -0.235633,-0.888854 -0.52228,-1.700697 -0.668855,-1.894334 -0.896462,-2.996731 -0.902987,-4.373538 -0.0073,-1.544847 0.0322,-1.696629 1.52307,-5.849787 0.533048,-1.484924 1.269435,-3.596238 1.636417,-4.691808 0.777707,-2.321729 0.88376,-2.435141 2.377069,-2.541987 1.587928,-0.113615 2.832318,0.412856 2.832318,1.198285 0,0.467396 0.596005,2.201632 1.521926,4.42845 0.882912,2.123384 1.213003,3.283664 1.513444,5.319808 0.298416,2.022428 0.188017,4.801087 -0.262733,6.612774 -0.181447,0.729288 -0.329905,1.491418 -0.329905,1.69362 0,0.63257 0.550671,1.094156 2.462798,2.064385 2.508029,1.272596 4.039835,2.341505 5.66893,3.955836 0.76014,0.753251 1.382073,1.413925 1.382073,1.468164 0,0.11518 -13.508329,0.09334 -21.148921,-0.03419 z"
       id="path3254"
       inkscape:connector-curvature="0" />
    <path
       style="fill:#ffffff;fill-opacity:1;fill-rule:evenodd"
       d="m 23.470938,23.567789 c -1.051428,-0.05431 -1.969745,-0.156805 -2.040704,-0.227765 -0.183533,-0.183533 0.197491,-0.674656 1.46531,-1.888721 1.530798,-1.465894 3.159884,-2.643637 4.877519,-3.526189 0.819767,-0.421211 1.568729,-0.860117 1.664361,-0.975346 0.256024,-0.308491 0.19397,-0.940255 -0.210231,-2.140318 -0.264597,-0.785581 -0.36145,-1.328114 -0.36648,-2.05287 -0.0062,-0.895271 0.02879,-1.035805 0.383838,-1.541167 0.534775,-0.761171 1.51815,-1.2527659 2.705055,-1.3522718 1.124184,-0.094247 1.793212,0.1651188 2.768177,1.0731578 1.167455,1.087315 1.266087,1.77593 0.550972,3.846692 -0.517304,1.497958 -0.508223,1.819619 0.06643,2.353094 0.197865,0.183686 0.874339,0.618162 1.503273,0.965502 2.339862,1.292231 3.939783,2.549923 5.779451,4.543208 l 0.978917,1.06066 -9.107103,-0.01946 c -5.008907,-0.0107 -9.967362,-0.0639 -11.01879,-0.118207 l 0,0 z"
       id="path3256"
       inkscape:connector-curvature="0" />
  </g>
</svg>
