<?xml version="1.0" encoding="UTF-8" standalone="no"?>
<!-- Created with Inkscape (http://www.inkscape.org/) -->

<svg
   xmlns:dc="http://purl.org/dc/elements/1.1/"
   xmlns:cc="http://creativecommons.org/ns#"
   xmlns:rdf="http://www.w3.org/1999/02/22-rdf-syntax-ns#"
   xmlns:svg="http://www.w3.org/2000/svg"
   xmlns="http://www.w3.org/2000/svg"
   xmlns:sodipodi="http://sodipodi.sourceforge.net/DTD/sodipodi-0.dtd"
   xmlns:inkscape="http://www.inkscape.org/namespaces/inkscape"
   width="64px"
   height="64px"
   id="svg2985"
   version="1.1"
   inkscape:version="0.48.1 "
   sodipodi:docname="wb.svg">
  <defs
     id="defs2987" />
  <sodipodi:namedview
     id="base"
     pagecolor="#ffffff"
     bordercolor="#666666"
     borderopacity="1.0"
     inkscape:pageopacity="0.0"
     inkscape:pageshadow="2"
     inkscape:zoom="7.7781746"
     inkscape:cx="50.362779"
     inkscape:cy="32.812069"
     inkscape:current-layer="layer1"
     showgrid="true"
     inkscape:document-units="px"
     inkscape:grid-bbox="true"
     inkscape:window-width="1365"
     inkscape:window-height="878"
     inkscape:window-x="-8"
     inkscape:window-y="-8"
     inkscape:window-maximized="1" />
  <metadata
     id="metadata2990">
    <rdf:RDF>
      <cc:Work
         rdf:about="">
        <dc:format>image/svg+xml</dc:format>
        <dc:type
           rdf:resource="http://purl.org/dc/dcmitype/StillImage" />
        <dc:title></dc:title>
      </cc:Work>
    </rdf:RDF>
  </metadata>
  <g
     id="layer1"
     inkscape:label="Layer 1"
     inkscape:groupmode="layer">
    <path
       style="fill:#000000"
       d="M 22.184769,57.776218 C 17.262534,56.676352 14.715566,54.471062 14.157483,50.825802 11.919466,36.20763 9.2112985,26.827393 7.228905,26.827393 c -1.3516207,0 -4.6313319,-3.395536 -4.6313319,-4.79489 0,-1.747914 2.7548575,-4.119553 4.7852048,-4.119553 2.27726,0 4.1471781,1.821651 4.1471781,4.040131 0,1.165111 0.93823,2.32504 2.961502,3.661289 1.628826,1.075741 3.290737,1.955893 3.693135,1.955893 0.736122,0 1.725656,-3.169351 2.619134,-8.388751 0.40201,-2.34841 0.165993,-3.192337 -1.418292,-5.071372 -2.488769,-2.951793 -2.39788,-4.5619318 0.38965,-6.9027718 2.768752,-2.3250718 3.62833,-2.3785102 6.169609,-0.3835545 2.004859,1.5738555 2.581632,4.5042313 1.287809,6.5429003 -0.424776,0.669315 -0.09777,1.908625 0.941855,3.569501 0.875901,1.399315 2.1279,3.580416 2.78222,4.84689 l 1.189674,2.30268 0.817902,-2.341523 c 0.449846,-1.287838 1.655513,-3.437483 2.679259,-4.776987 1.318582,-1.725277 1.65899,-2.754823 1.167375,-3.530657 -1.333957,-2.105159 -0.785546,-5.0191628 1.244519,-6.6128043 2.453727,-1.9262261 3.300425,-1.9262261 5.754153,0 2.406591,1.8892225 2.57863,4.9054443 0.434929,7.6252453 -1.19443,1.515422 -1.421927,2.546906 -1.04611,4.743121 0.861845,5.036491 1.872676,8.378083 2.534368,8.378083 0.35688,0 2.01879,-0.89511 3.693135,-1.989133 2.070834,-1.353091 3.044263,-2.523819 3.044263,-3.661289 0,-2.188401 1.882158,-4.006891 4.147178,-4.006891 2.030347,0 4.785204,2.371639 4.785204,4.119553 0,1.388321 -3.272146,4.791513 -4.618447,4.803413 -0.53036,0.0047 -1.561373,1.258281 -2.291139,2.785763 -1.419616,2.971419 -4.229921,15.527812 -4.246113,18.971559 -0.01274,2.710047 -1.725119,5.953784 -3.890512,7.369754 -3.888814,2.542931 -16.62879,3.498623 -24.171447,1.813226 z m 19.596506,-4.431606 c 1.298385,-1.30017 -1.958222,-1.980273 -9.534304,-1.991126 -7.900157,-0.01132 -10.295901,0.337572 -10.295901,1.499374 0,0.334907 0.586187,0.775383 1.302639,0.978837 2.071849,0.588352 17.868318,0.173067 18.527566,-0.487085 z M 21.612534,47.937289 C 23.558102,47.126012 26.780939,46.761077 32,46.761077 c 5.219062,0 8.441899,0.364935 10.387467,1.176212 3.352608,1.397996 3.38329,1.401321 3.38329,0.3667 0,-0.445231 -0.71248,-1.385284 -1.583289,-2.089007 -2.023148,-1.634955 -1.342437,-4.195628 1.29066,-4.855166 2.582187,-0.646786 1.884266,-2.066926 -1.625246,-3.307072 -3.95021,-1.395874 -19.744946,-1.393721 -23.762726,0.0033 -3.237095,1.125521 -3.998693,3.112393 -1.337832,3.490161 2.211676,0.313998 3.053054,3.06462 1.323497,4.326764 -0.722332,0.52712 -1.660099,1.073758 -2.083927,1.214751 -0.423829,0.140992 -0.52404,0.654485 -0.222694,1.141095 0.680646,1.099095 0.470301,1.115047 3.843334,-0.291465 z m 8.11055,-4.351807 c -1.154123,-0.855299 -1.279808,-1.341181 -0.624524,-2.414328 1.143155,-1.872127 3.922168,-2.128772 5.138105,-0.474509 0.847118,1.15249 0.820347,1.557612 -0.175755,2.659611 -1.428316,1.580162 -2.442579,1.63376 -4.337826,0.229226 z M 16.993952,32.355219 c -2.261382,-1.810129 -3.078367,-1.333687 -1.800187,1.049817 0.537671,1.002629 1.27336,1.331919 2.348719,1.051271 1.502125,-0.392026 1.479811,-0.477495 -0.548532,-2.101088 z m 32.181767,-1.634457 c -0.238354,-0.237875 -1.285713,0.366626 -2.327465,1.343335 -1.722254,1.614725 -1.772636,1.819612 -0.555339,2.258375 0.951329,0.342897 1.624881,-0.04586 2.327465,-1.343334 0.54379,-1.004231 0.793693,-2.020501 0.555339,-2.258376 z m -21.43656,1.600026 2.252354,-0.449566 -1.445667,-3.450503 c -0.795117,-1.897776 -2.094323,-4.286231 -2.887122,-5.307678 l -1.441455,-1.857175 -0.01656,2.438188 c -0.0091,1.341004 -0.518995,3.638297 -1.133097,5.105097 -0.614101,1.466799 -1.116547,2.960374 -1.116547,3.319056 0,0.757035 2.561143,0.846674 5.788089,0.202581 z m 14.309772,-0.202581 c 0,-0.358682 -0.502446,-1.852257 -1.116548,-3.319056 -0.614101,-1.4668 -1.116548,-3.541232 -1.116548,-4.60985 0,-2.995194 -1.611171,-1.888431 -3.884026,2.668057 -2.469822,4.951355 -2.47263,4.989569 -0.396074,5.388729 3.101575,0.596189 6.513196,0.529205 6.513196,-0.12788 z M 7.8081298,22.414013 c 0,-1.008263 -1.313457,-1.670736 -1.789242,-0.902445 -0.4448706,0.718369 0.199719,1.601473 1.1689379,1.601473 0.3411671,0 0.6203041,-0.314562 0.6203041,-0.699028 z m 49.8724712,0 c 0,-1.008263 -1.313457,-1.670736 -1.789242,-0.902445 -0.44487,0.718369 0.19972,1.601473 1.168938,1.601473 0.341167,0 0.620304,-0.314562 0.620304,-0.699028 z M 24.678548,11.548619 C 25.355926,9.7869442 23.76833,8.5444782 22.34562,9.7228502 c -0.881641,0.7302288 -0.956091,1.2004458 -0.312585,1.9742658 1.114672,1.3404 2.09416,1.285419 2.645513,-0.148497 z m 17.120401,0 c 0.620398,-1.6134858 -0.9546,-3.1308378 -2.081953,-2.0057498 -0.952812,0.9508988 -0.362543,3.1699888 0.843205,3.1699888 0.435098,0 0.992536,-0.523908 1.238748,-1.164239 z"
       id="path3194"
       inkscape:connector-curvature="0" />
    <path
       style="fill:#ffffff;fill-opacity:1;fill-rule:evenodd"
       d="m 24.260481,53.912197 c -1.12632,-0.131216 -1.666585,-0.316719 -2.020925,-0.693898 -0.593959,-0.63224 0.07912,-1.189594 1.793912,-1.48548 1.318154,-0.227446 8.102136,-0.381131 11.312934,-0.256284 4.874775,0.189549 6.902205,0.655996 6.626535,1.524554 -0.107202,0.337766 -0.623199,0.491394 -2.191047,0.652342 -3.403616,0.349399 -13.323824,0.514784 -15.521409,0.258766 z"
       id="path3198"
       inkscape:connector-curvature="0" />
    <path
       style="fill:#ffffff;fill-opacity:1;fill-rule:evenodd"
       d="m 18.41262,48.892615 c -0.342565,-0.126723 -0.8493,-1.070535 -0.747307,-1.391886 0.04045,-0.127453 0.548283,-0.485752 1.128512,-0.796219 1.316835,-0.704607 1.937784,-1.304555 2.126646,-2.054723 0.374257,-1.486562 -0.594366,-2.787761 -2.382435,-3.20044 -1.378845,-0.318233 -1.689859,-1.005227 -0.867279,-1.915724 0.523166,-0.579082 1.949766,-1.31935 3.115556,-1.616673 4.383412,-1.117946 18.08673,-1.110922 22.459391,0.01151 1.548393,0.397462 3.282968,1.345367 3.600723,1.96771 0.330725,0.64775 0.07779,0.895308 -1.513024,1.48085 -1.126308,0.414569 -1.550177,0.723577 -1.966127,1.43334 -0.681764,1.163344 -0.397681,2.251382 0.919718,3.52251 0.7842,0.756657 1.473162,1.718963 1.473162,2.057636 0,0.114063 -0.07346,0.307856 -0.163255,0.430652 -0.180809,0.24727 -0.449651,0.172711 -3.128955,-0.867773 -2.363016,-0.917656 -6.458795,-1.326993 -11.939421,-1.19324 -5.158176,0.125884 -7.119008,0.41708 -9.617547,1.42827 -1.849675,0.748587 -2.149734,0.833163 -2.498358,0.704198 l 0,0 z m 14.47415,-4.568156 c 0.915516,-0.456221 1.945372,-1.678951 1.945372,-2.309708 0,-0.726818 -0.714559,-1.680009 -1.60706,-2.143748 -0.685933,-0.356407 -1.849805,-0.360611 -2.637023,-0.0095 -1.122143,0.500457 -2.022931,1.741533 -1.867063,2.572379 0.09902,0.52783 1.2327,1.48575 2.289381,1.934451 0.86541,0.367481 1.06009,0.362931 1.876393,-0.04385 l 0,0 z"
       id="path3200"
       inkscape:connector-curvature="0" />
    <path
       style="fill:#ffffff;fill-opacity:1;fill-rule:evenodd"
       d="m 16.059666,34.267167 c -0.907362,-0.481535 -1.794525,-2.825364 -1.117958,-2.953576 0.327834,-0.06213 1.170174,0.405468 2.212765,1.228337 1.588324,1.253592 1.672722,1.471462 0.683772,1.765148 -0.867786,0.257705 -1.233233,0.249505 -1.778579,-0.03991 l 0,0 z"
       id="path3202"
       inkscape:connector-curvature="0" />
    <path
       style="fill:#ffffff;fill-opacity:1;fill-rule:evenodd"
       d="m 22.535764,32.564712 c -0.222271,-0.0644 -0.435381,-0.198536 -0.473579,-0.298077 -0.0948,-0.247054 0.159279,-1.13358 0.858834,-2.996589 0.951426,-2.533776 1.297932,-4.256077 1.401594,-6.966603 l 0.03149,-0.82347 0.726849,0.952035 c 0.867017,1.135629 1.836571,2.68119 2.465921,3.930911 0.465762,0.92488 2.215225,4.970791 2.292916,5.302733 0.0506,0.216195 -0.683771,0.392459 -3.235801,0.776658 -1.816686,0.273496 -3.384002,0.320652 -4.068227,0.122402 z"
       id="path3204"
       inkscape:connector-curvature="0" />
    <path
       style="fill:#ffffff;fill-opacity:1;fill-rule:evenodd"
       d="m 36.751965,32.387956 c -2.641361,-0.384417 -2.896152,-0.561092 -2.510325,-1.740689 0.272929,-0.834433 2.075679,-4.534227 2.787326,-5.720446 0.676103,-1.126971 1.580641,-2.207331 1.944897,-2.322941 0.463367,-0.147067 0.695343,0.298027 0.794917,1.525216 0.122576,1.51069 0.482778,2.933824 1.292011,5.104649 0.763158,2.047225 0.99477,2.814495 0.897236,2.972307 -0.23578,0.3815 -3.137886,0.482902 -5.206062,0.181904 l 0,0 z"
       id="path3206"
       inkscape:connector-curvature="0" />
    <path
       style="fill:#ffffff;fill-opacity:1;fill-rule:evenodd"
       d="m 46.018967,34.144762 c -0.691001,-0.337916 -0.639352,-0.571988 0.34182,-1.549135 1.535424,-1.529125 2.876801,-2.245028 2.866424,-1.529833 -0.0069,0.475741 -0.427879,1.552901 -0.885794,2.2665 -0.656916,1.023714 -1.376037,1.275286 -2.32245,0.812468 z"
       id="path3208"
       inkscape:connector-curvature="0" />
    <path
       style="fill:#ffffff;fill-opacity:1;fill-rule:evenodd"
       d="m 56.164021,22.686826 c -0.429298,-0.429298 -0.484039,-0.900606 -0.140693,-1.21133 0.344329,-0.311613 0.838981,-0.260701 1.225853,0.12617 0.365654,0.365655 0.459766,1.031586 0.184665,1.306687 -0.280156,0.280156 -0.871263,0.177035 -1.269825,-0.221527 z"
       id="path3210"
       inkscape:connector-curvature="0" />
    <path
       style="fill:#ffffff;fill-opacity:1;fill-rule:evenodd"
       d="m 39.9371,12.389736 c -0.430951,-0.338986 -0.649786,-1.031389 -0.574291,-1.817081 0.138747,-1.443969 1.452299,-1.8163227 2.246331,-0.6367695 0.35498,0.5273315 0.369382,1.0562175 0.04803,1.7638605 -0.415586,0.915154 -1.089927,1.18566 -1.720069,0.68999 z"
       id="path3212"
       inkscape:connector-curvature="0" />
    <path
       style="fill:#ffffff;fill-opacity:1;fill-rule:evenodd"
       d="m 22.939888,12.4127 c -0.670303,-0.40878 -1.221362,-1.139323 -1.221362,-1.619169 0,-0.664555 1.03043,-1.4873412 1.862696,-1.4873412 0.441015,0 1.071789,0.5849584 1.164674,1.0800802 0.112061,0.597334 -0.156725,1.468778 -0.585174,1.897227 -0.425603,0.425603 -0.689082,0.453488 -1.220834,0.129203 z"
       id="path3214"
       inkscape:connector-curvature="0" />
    <path
       style="fill:#ffffff;fill-opacity:1;fill-rule:evenodd"
       d="M 6.5517573,22.89817 C 6.377118,22.809801 6.1457012,22.579237 6.0374978,22.385806 5.8608846,22.07008 5.8608973,21.997954 6.0376225,21.680558 6.4805652,20.885042 7.704955,21.357523 7.704955,22.323967 c 0,0.704549 -0.4514058,0.929314 -1.1531977,0.574203 z"
       id="path3216"
       inkscape:connector-curvature="0" />
  </g>
</svg>
