<?xml version="1.0" encoding="UTF-8" standalone="no"?>
<!-- Created with Inkscape (http://www.inkscape.org/) -->
<svg
   xmlns:svg="http://www.w3.org/2000/svg"
   xmlns="http://www.w3.org/2000/svg"
   version="1.0"
   width="45"
   height="45"
   id="svg3128">
  <defs
     id="defs3130" />
  <g
     id="layer1">
    <rect
       width="25"
       height="5"
       rx="2.5"
       x="10"
       y="37.5"
       id="rect5206"
       style="fill:#000000;fill-opacity:1;stroke:#000000;stroke-width:1px;stroke-linecap:butt;stroke-linejoin:miter;stroke-opacity:1" />
    <rect
       width="20"
       height="5"
       rx="2.5"
       x="12.5"
       y="32.5"
       id="rect5208"
       style="fill:#000000;fill-opacity:1;stroke:#000000;stroke-width:1px;stroke-linecap:butt;stroke-linejoin:miter;stroke-opacity:1" />
    <path
       d="M 30,32.52049 C 30,32.52049 30.742934,27.033073 30,18.935355 C 29,8.0850322 23,7 23,7 L 24,11.340129 L 23.5,9.1700645 C 23.5,9.1700645 20.5,9.7125806 19.5,10.255097 C 18.5,10.797613 19,12.425161 17.5,13.510193 C 16,14.595226 15,15.137742 15,15.137742 C 15,15.137742 14,15.680258 15,17.307806 C 16,18.935355 16.5,20.020387 17.5,19.477871 C 18.5,18.935355 17.41886,17.307806 19,17.307806 C 21.5,17.307806 21.5,17.850322 21.5,17.850322 C 21.5,17.850322 22.5,18.935355 21,20.020387 C 19.5,21.105419 18,21.647935 16.5,24.903032 C 15,28.158129 15,32.498258 15,32.498258 L 30,32.520488 L 30,32.52049 z"
       id="path5325"
       style="fill:#000000;fill-opacity:1;stroke:#000000;stroke-width:1.04164886px;stroke-linecap:round;stroke-linejoin:round;stroke-opacity:1" />
    <path
       d="M 22,14 A 0.5,0.5 0 1 1 21,14 A 0.5,0.5 0 1 1 22,14 z"
       transform="translate(0,-1.5)"
       id="path5327"
       style="fill:#000000;fill-opacity:1;stroke:#ffffff;stroke-width:0.875;stroke-linecap:round;stroke-linejoin:round;stroke-miterlimit:4;stroke-dasharray:none;stroke-opacity:1" />
    <path
       d="M 25,20 L 27.5,17.5"
       id="path5329"
       style="fill:none;stroke:#ffffff;stroke-width:0.875;stroke-linecap:round;stroke-linejoin:round;stroke-miterlimit:4;stroke-dasharray:none;stroke-opacity:1" />
    <path
       d="M 28,22 L 24.5,25.5"
       id="path5331"
       style="fill:none;stroke:#ffffff;stroke-width:0.875;stroke-linecap:round;stroke-linejoin:round;stroke-miterlimit:4;stroke-dasharray:none;stroke-opacity:1" />
    <path
       d="M 28.5,26.5 L 24,31"
       id="path5333"
       style="fill:none;stroke:#ffffff;stroke-width:0.875;stroke-linecap:round;stroke-linejoin:round;stroke-miterlimit:4;stroke-dasharray:none;stroke-opacity:1" />
  </g>
</svg>
