<?xml version="1.0" encoding="UTF-8" standalone="no"?>
<!-- Created with Inkscape (http://www.inkscape.org/) -->
<svg
   xmlns:dc="http://purl.org/dc/elements/1.1/"
   xmlns:cc="http://creativecommons.org/ns#"
   xmlns:rdf="http://www.w3.org/1999/02/22-rdf-syntax-ns#"
   xmlns:svg="http://www.w3.org/2000/svg"
   xmlns="http://www.w3.org/2000/svg"
   xmlns:xlink="http://www.w3.org/1999/xlink"
   xmlns:sodipodi="http://sodipodi.sourceforge.net/DTD/sodipodi-0.dtd"
   xmlns:inkscape="http://www.inkscape.org/namespaces/inkscape"
   width="100"
   height="100"
   id="svg36220"
   sodipodi:version="0.32"
   inkscape:version="0.46"
   version="1.0"
   inkscape:export-filename="/home/maurizio/out/bk.png"
   inkscape:export-xdpi="90"
   inkscape:export-ydpi="90"
   sodipodi:docbase="/nfs/home/monge/chess_pieces/svg_fantasy"
   sodipodi:docname="bk.svg"
   inkscape:output_extension="org.inkscape.output.svg.inkscape">
  <defs
     id="defs36222">
    <inkscape:perspective
       sodipodi:type="inkscape:persp3d"
       inkscape:vp_x="0 : 437.5 : 1"
       inkscape:vp_y="0 : 1000 : 0"
       inkscape:vp_z="875 : 437.5 : 1"
       inkscape:persp3d-origin="437.5 : 291.66667 : 1"
       id="perspective4268" />
    <linearGradient
       id="linearGradient2266">
      <stop
         style="stop-color:#000000;stop-opacity:1"
         offset="0"
         id="stop2268" />
      <stop
         style="stop-color:#505090;stop-opacity:1"
         offset="1"
         id="stop2270" />
    </linearGradient>
    <linearGradient
       inkscape:collect="always"
       xlink:href="#linearGradient2266"
       id="linearGradient2272"
       x1="297.55386"
       y1="427.04959"
       x2="368.56238"
       y2="521.21625"
       gradientUnits="userSpaceOnUse"
       gradientTransform="matrix(0.1257597,0,0,0.1257597,-4.965612,-6.8401457)" />
    <linearGradient
       inkscape:collect="always"
       xlink:href="#linearGradient2266"
       id="linearGradient2274"
       x1="495.29623"
       y1="448.54721"
       x2="595.97144"
       y2="528.54724"
       gradientUnits="userSpaceOnUse"
       gradientTransform="matrix(0.1257597,0,0,0.1257597,-4.965612,-6.8401457)" />
    <linearGradient
       inkscape:collect="always"
       xlink:href="#linearGradient2266"
       id="linearGradient2302"
       x1="221.55104"
       y1="774.93707"
       x2="633.49097"
       y2="859.35083"
       gradientUnits="userSpaceOnUse"
       gradientTransform="matrix(0.1257597,0,0,0.1257597,-4.965612,-6.8401457)" />
    <linearGradient
       inkscape:collect="always"
       xlink:href="#linearGradient2266"
       id="linearGradient3316"
       x1="379.19693"
       y1="160.25282"
       x2="579.84833"
       y2="286.91949"
       gradientUnits="userSpaceOnUse" />
    <linearGradient
       inkscape:collect="always"
       xlink:href="#linearGradient2266"
       id="linearGradient3318"
       x1="368.46912"
       y1="319.27548"
       x2="494.5513"
       y2="319.27548"
       gradientUnits="userSpaceOnUse" />
    <linearGradient
       inkscape:collect="always"
       xlink:href="#linearGradient2266"
       id="linearGradient5306"
       gradientUnits="userSpaceOnUse"
       x1="129.96214"
       y1="428.65894"
       x2="812.36853"
       y2="836.31329"
       gradientTransform="matrix(0.1257597,0,0,0.1257597,-4.965612,-6.8401457)" />
    <linearGradient
       inkscape:collect="always"
       xlink:href="#linearGradient2266"
       id="linearGradient5309"
       gradientUnits="userSpaceOnUse"
       x1="129.96214"
       y1="428.65894"
       x2="812.36853"
       y2="836.31329"
       gradientTransform="matrix(0.1257597,0,0,0.1257597,-4.965612,-6.8401457)" />
    <linearGradient
       inkscape:collect="always"
       xlink:href="#linearGradient2266"
       id="linearGradient5312"
       gradientUnits="userSpaceOnUse"
       x1="129.96214"
       y1="428.65894"
       x2="812.36853"
       y2="836.31329"
       gradientTransform="matrix(0.1257597,0,0,0.1257597,-4.965612,-6.8401457)" />
    <linearGradient
       inkscape:collect="always"
       xlink:href="#linearGradient2266"
       id="linearGradient5315"
       gradientUnits="userSpaceOnUse"
       x1="129.96214"
       y1="428.65894"
       x2="812.36853"
       y2="836.31329"
       gradientTransform="matrix(0.1257597,0,0,0.1257597,-4.965612,-6.8401457)" />
    <linearGradient
       inkscape:collect="always"
       xlink:href="#linearGradient2266"
       id="linearGradient6193"
       gradientUnits="userSpaceOnUse"
       x1="379.19693"
       y1="160.25282"
       x2="579.84833"
       y2="286.91949" />
    <linearGradient
       inkscape:collect="always"
       xlink:href="#linearGradient2266"
       id="linearGradient6195"
       gradientUnits="userSpaceOnUse"
       x1="368.46912"
       y1="319.27548"
       x2="494.5513"
       y2="319.27548" />
    <linearGradient
       inkscape:collect="always"
       xlink:href="#linearGradient2266"
       id="linearGradient6198"
       gradientUnits="userSpaceOnUse"
       x1="368.46912"
       y1="319.27548"
       x2="494.5513"
       y2="319.27548"
       gradientTransform="matrix(0.1257597,0,0,0.1257597,-4.965612,-6.8401457)" />
    <linearGradient
       inkscape:collect="always"
       xlink:href="#linearGradient2266"
       id="linearGradient6201"
       gradientUnits="userSpaceOnUse"
       x1="379.19693"
       y1="160.25282"
       x2="579.84833"
       y2="286.91949"
       gradientTransform="matrix(0.1257597,0,0,0.1257597,-4.965612,-6.8401457)" />
  </defs>
  <sodipodi:namedview
     id="base"
     pagecolor="#ffffff"
     bordercolor="#666666"
     borderopacity="1.0"
     inkscape:pageopacity="0.0"
     inkscape:pageshadow="2"
     inkscape:zoom="1.2"
     inkscape:cx="242.94976"
     inkscape:cy="-162.51756"
     inkscape:current-layer="layer1"
     inkscape:document-units="px"
     inkscape:window-width="1100"
     inkscape:window-height="830"
     inkscape:window-x="412"
     inkscape:window-y="76"
     showgrid="false" />
  <metadata
     id="metadata36225">
    <rdf:RDF>
      <cc:Work
         rdf:about="">
        <dc:format>image/svg+xml</dc:format>
        <dc:type
           rdf:resource="http://purl.org/dc/dcmitype/StillImage" />
        <dc:creator>
          <cc:Agent>
            <dc:title>Maurizio Monge</dc:title>
          </cc:Agent>
        </dc:creator>
        <dc:rights>
          <cc:Agent>
            <dc:title>Maurizio Monge</dc:title>
          </cc:Agent>
        </dc:rights>
        <cc:license
           rdf:resource="http://creativecommons.org/licenses/GPL/2.0/" />
      </cc:Work>
      <cc:License
         rdf:about="http://creativecommons.org/licenses/GPL/2.0/">
        <cc:permits
           rdf:resource="http://web.resource.org/cc/Reproduction" />
        <cc:permits
           rdf:resource="http://web.resource.org/cc/Distribution" />
        <cc:requires
           rdf:resource="http://web.resource.org/cc/Notice" />
        <cc:permits
           rdf:resource="http://web.resource.org/cc/DerivativeWorks" />
        <cc:requires
           rdf:resource="http://web.resource.org/cc/ShareAlike" />
        <cc:requires
           rdf:resource="http://web.resource.org/cc/SourceCode" />
      </cc:License>
    </rdf:RDF>
  </metadata>
  <g
     id="layer1"
     inkscape:label="Layer 1"
     inkscape:groupmode="layer">
    <path
       style="fill:url(#linearGradient2272);fill-opacity:1;fill-rule:evenodd;stroke:#808080;stroke-width:2.01215506;stroke-linecap:round;stroke-linejoin:round;stroke-miterlimit:4;stroke-dasharray:none;stroke-opacity:1"
       d="M 31.332998,70.185804 C 34.249668,65.971564 30.446258,54.360344 31.335318,49.051674 C 32.778168,40.436114 44.098578,34.653394 45.609618,39.648404 C 47.402088,45.573704 40.124998,46.133014 38.100318,51.079174 C 36.240598,55.622324 36.638468,63.212744 40.259128,67.781274"
       id="path3299"
       sodipodi:nodetypes="csssc" />
    <path
       sodipodi:nodetypes="csssc"
       id="path3303"
       d="M 68.841548,70.793334 C 65.924878,66.579104 69.728288,54.967874 68.839248,49.659204 C 67.396378,41.043664 56.075968,35.260934 54.564928,40.255934 C 52.772468,46.181234 60.049548,46.740544 62.074228,51.686714 C 63.933948,56.229874 63.536098,63.820284 59.915428,68.388824"
       style="fill:url(#linearGradient2274);fill-opacity:1;fill-rule:evenodd;stroke:#808080;stroke-width:2.01215506;stroke-linecap:round;stroke-linejoin:round;stroke-miterlimit:4;stroke-dasharray:none;stroke-opacity:1" />
    <path
       style="fill:url(#linearGradient6201);fill-opacity:1;fill-rule:evenodd;stroke:#808080;stroke-width:2.01215506;stroke-linecap:round;stroke-linejoin:round;stroke-miterlimit:4;stroke-dasharray:none;stroke-opacity:1"
       d="M 45.491268,29.393144 C 46.152458,27.506684 47.868668,20.473634 47.241368,18.401654 C 44.435178,18.179594 38.572078,20.753624 34.772028,19.929014 C 33.701748,17.994104 33.033498,13.830514 34.570898,11.544964 C 38.011098,10.498134 45.603888,12.333294 47.702578,12.614494 C 48.446568,10.495084 45.879778,4.1084343 46.377018,1.7958343 C 48.735078,0.66860428 54.590948,0.78005428 56.331328,1.9258543 C 56.242688,4.3547343 52.697498,10.254264 52.611438,12.271334 C 54.973708,12.150224 62.331858,10.149124 64.843818,10.637854 C 65.927408,12.739344 66.162508,16.493844 64.414438,18.893444 C 61.736408,19.785494 54.646058,17.770434 51.691808,18.356444 C 50.446828,20.867484 52.382348,27.351154 52.858558,29.247914"
       id="path24710"
       sodipodi:nodetypes="cccccccccccc" />
    <path
       style="fill:url(#linearGradient6198);fill-opacity:1;fill-rule:evenodd;stroke:#808080;stroke-width:2.01215506;stroke-linecap:round;stroke-linejoin:round;stroke-miterlimit:4;stroke-dasharray:none;stroke-opacity:1"
       d="M 46.395868,39.921344 C 43.285178,37.227784 41.914558,37.205414 42.518358,30.463434 C 43.033978,24.706004 55.881188,25.003074 56.180158,30.213064 C 56.555038,36.745894 54.382988,37.235124 52.872728,40.398234"
       id="path3297"
       sodipodi:nodetypes="csss" />
    <path
       style="fill:url(#linearGradient5315);fill-opacity:1;fill-rule:evenodd;stroke:none;stroke-width:16;stroke-linecap:butt;stroke-linejoin:miter;stroke-miterlimit:4;stroke-dasharray:none;stroke-opacity:1"
       d="M 29.110448,97.578024 L 21.064948,72.898584 L 80.327088,72.638554 L 70.908948,98.334354 L 29.110448,97.578024 z"
       id="path25586"
       sodipodi:nodetypes="ccccc" />
    <path
       sodipodi:nodetypes="ccccc"
       id="path9792"
       d="M 75.955218,83.343294 C 64.174508,77.305034 37.329518,77.021334 24.694838,83.579154 C 26.464748,89.172044 27.172718,95.397214 27.172718,95.397214 C 38.700688,91.817614 62.118008,91.674774 73.436378,95.918204 C 73.436378,95.918204 74.603378,87.532604 75.955218,83.343294 z"
       style="fill:url(#linearGradient5312);fill-opacity:1;fill-rule:evenodd;stroke:#808080;stroke-width:2.01215506;stroke-linecap:round;stroke-linejoin:round;stroke-miterlimit:4;stroke-dasharray:none;stroke-opacity:1" />
    <path
       style="fill:url(#linearGradient5309);fill-opacity:1;fill-rule:evenodd;stroke:#808080;stroke-width:2.01215506;stroke-linecap:round;stroke-linejoin:round;stroke-miterlimit:4;stroke-dasharray:none;stroke-opacity:1"
       d="M 64.646298,65.349844 C 60.088648,63.424064 54.999998,57.951854 49.306368,57.776364 C 43.826438,57.903304 39.427198,62.626134 36.303208,65.121904 C 21.806528,58.523684 21.979748,45.894324 32.121698,43.577704 C 33.773548,43.200384 38.690348,43.636004 41.938818,43.487314 C 40.904408,40.630604 39.776798,38.604854 40.846278,34.802034 C 38.553908,33.326634 35.503018,32.268684 32.027378,32.062834 C 30.989648,32.001374 29.935858,31.975154 28.879458,31.988164 C 18.667638,32.113894 8.0723577,35.828344 6.5689077,45.224364 C 4.3745577,58.938234 16.515538,67.020434 20.885858,81.525684 C 34.758098,73.614354 66.745968,74.118104 80.036138,80.955834 C 83.563428,69.742844 97.623738,56.638874 94.478858,45.208644 C 91.566458,34.623434 77.407948,31.525824 68.065388,32.054974 C 64.278938,32.269424 60.643988,33.495204 57.914228,35.179314 C 58.442668,38.193914 57.371588,40.658594 56.483708,43.263304 C 60.802938,43.265174 68.380768,42.260774 71.354798,43.943194 C 77.923158,47.658954 78.423988,61.033504 64.646298,65.349844 z"
       id="path23833"
       sodipodi:nodetypes="cccsccscsccssccsc" />
    <path
       sodipodi:nodetypes="cssssc"
       id="path2408"
       d="M 36.344928,65.160804 C 41.123178,61.805764 43.387258,55.142654 43.196178,49.763444 C 42.920648,42.007084 38.772028,40.655104 41.141268,33.865654 C 42.747778,29.261914 56.127208,29.025294 57.638258,34.020304 C 59.430708,39.945594 54.828518,43.634524 55.545908,49.632804 C 56.382758,56.630084 56.434648,61.268354 64.637648,65.550504"
       style="fill:url(#linearGradient5306);fill-opacity:1;fill-rule:evenodd;stroke:#808080;stroke-width:2.01215506;stroke-linecap:round;stroke-linejoin:round;stroke-miterlimit:4;stroke-dasharray:none;stroke-opacity:1" />
    <path
       style="fill:url(#linearGradient2302);fill-opacity:1;fill-rule:evenodd;stroke:#808080;stroke-width:2.01215506;stroke-linecap:round;stroke-linejoin:round;stroke-miterlimit:4;stroke-dasharray:none;stroke-opacity:1"
       d="M 29.705258,97.877154 C 40.755018,99.195684 58.405038,99.412134 70.874738,98.173874 C 62.247998,94.655114 38.610428,94.693384 29.705258,97.877154 z"
       id="path8563"
       sodipodi:nodetypes="ccc" />
    <path
       sodipodi:type="arc"
       style="opacity:1;fill:#ffffff;fill-opacity:1;fill-rule:evenodd;stroke:#808080;stroke-width:16.55992508;stroke-linecap:round;stroke-linejoin:round;stroke-miterlimit:4;stroke-dasharray:none;stroke-dashoffset:0;stroke-opacity:1"
       id="path21809"
       sodipodi:cx="797.5"
       sodipodi:cy="915"
       sodipodi:rx="17.5"
       sodipodi:ry="16.666666"
       d="M 815,915 A 17.5,16.666666 0 1 1 780,915 A 17.5,16.666666 0 1 1 815,915 z"
       transform="matrix(0.1215075,0,0,0.1215075,-46.946902,-25.330246)" />
    <path
       d="M 815,915 A 17.5,16.666666 0 1 1 780,915 A 17.5,16.666666 0 1 1 815,915 z"
       sodipodi:ry="16.666666"
       sodipodi:rx="17.5"
       sodipodi:cy="915"
       sodipodi:cx="797.5"
       id="path21811"
       style="opacity:1;fill:#ffffff;fill-opacity:1;fill-rule:evenodd;stroke:#808080;stroke-width:18.08697128;stroke-linecap:round;stroke-linejoin:round;stroke-miterlimit:4;stroke-dasharray:none;stroke-dashoffset:0;stroke-opacity:1"
       sodipodi:type="arc"
       transform="matrix(0.1336346,-2.4201697e-2,1.6239851e-2,8.9671937e-2,-83.951742,24.543054)" />
    <path
       transform="matrix(0.1306622,2.1204718e-2,-1.4598436e-2,8.9953639e-2,-28.690392,-11.926506)"
       sodipodi:type="arc"
       style="opacity:1;fill:#ffffff;fill-opacity:1;fill-rule:evenodd;stroke:#808080;stroke-width:18.32027817;stroke-linecap:round;stroke-linejoin:round;stroke-miterlimit:4;stroke-dasharray:none;stroke-dashoffset:0;stroke-opacity:1"
       id="path21815"
       sodipodi:cx="797.5"
       sodipodi:cy="915"
       sodipodi:rx="17.5"
       sodipodi:ry="16.666666"
       d="M 815,915 A 17.5,16.666666 0 1 1 780,915 A 17.5,16.666666 0 1 1 815,915 z" />
  </g>
</svg>
