<?xml version="1.0" encoding="UTF-8" standalone="no"?>
<!-- Created with Inkscape (http://www.inkscape.org/) -->

<svg
   xmlns:dc="http://purl.org/dc/elements/1.1/"
   xmlns:cc="http://creativecommons.org/ns#"
   xmlns:rdf="http://www.w3.org/1999/02/22-rdf-syntax-ns#"
   xmlns:svg="http://www.w3.org/2000/svg"
   xmlns="http://www.w3.org/2000/svg"
   xmlns:sodipodi="http://sodipodi.sourceforge.net/DTD/sodipodi-0.dtd"
   xmlns:inkscape="http://www.inkscape.org/namespaces/inkscape"
   width="64px"
   height="64px"
   id="svg2816"
   version="1.1"
   inkscape:version="0.47 r22583"
   sodipodi:docname="wn.svg">
  <defs
     id="defs2818">
    <inkscape:perspective
       sodipodi:type="inkscape:persp3d"
       inkscape:vp_x="0 : 32 : 1"
       inkscape:vp_y="0 : 1000 : 0"
       inkscape:vp_z="64 : 32 : 1"
       inkscape:persp3d-origin="32 : 21.333333 : 1"
       id="perspective2824" />
  </defs>
  <sodipodi:namedview
     id="base"
     pagecolor="#ffffff"
     bordercolor="#666666"
     borderopacity="1.0"
     inkscape:pageopacity="0.0"
     inkscape:pageshadow="2"
     inkscape:zoom="5.5"
     inkscape:cx="49.921749"
     inkscape:cy="29.909092"
     inkscape:current-layer="layer1"
     showgrid="true"
     inkscape:document-units="px"
     inkscape:grid-bbox="true"
     inkscape:window-width="1365"
     inkscape:window-height="878"
     inkscape:window-x="-8"
     inkscape:window-y="-8"
     inkscape:window-maximized="1" />
  <metadata
     id="metadata2821">
    <rdf:RDF>
      <cc:Work
         rdf:about="">
        <dc:format>image/svg+xml</dc:format>
        <dc:type
           rdf:resource="http://purl.org/dc/dcmitype/StillImage" />
        <dc:title />
      </cc:Work>
    </rdf:RDF>
  </metadata>
  <g
     id="layer1"
     inkscape:label="Layer 1"
     inkscape:groupmode="layer">
    <text
       xml:space="preserve"
       style="font-size:144px;font-style:normal;font-weight:normal;fill:#000000;fill-opacity:1;stroke:none;font-family:Smart;-inkscape-font-specification:Smart;font-stretch:normal;font-variant:normal"
       x="0.90909094"
       y="47.272728"
       id="text2830"><tspan
         sodipodi:role="line"
         id="tspan2832"
         x="0.90909094"
         y="47.272728" /></text>
    <text
       xml:space="preserve"
       style="font-size:64px;font-style:normal;font-weight:normal;fill:#000000;fill-opacity:1;stroke:none;font-family:Smart;-inkscape-font-specification:Smart"
       x="0.36363634"
       y="50.909084"
       id="text2834"><tspan
         sodipodi:role="line"
         id="tspan2836"
         x="0.36363634"
         y="50.909084">B</tspan></text>
    <path
       style="fill:#ffffff"
       d="m 23.079123,54.875528 c 0.174659,-1.092256 0.909883,-3.124327 1.421941,-3.930075 0.254203,-0.4 2.098129,-2.49576 4.097612,-4.657243 3.807864,-4.116382 4.522093,-5.0134 5.239497,-6.580417 0.444129,-0.970107 1.844069,-6.718081 2.350241,-9.649792 0.323913,-1.876078 0.37504,-5.122509 0.08351,-5.302684 -0.306849,-0.189643 -0.959547,0.523602 -3.296794,3.602607 -1.196982,1.57686 -2.649664,3.283664 -3.228184,3.792899 -2.226393,1.959752 -4.200887,3.206474 -6.734289,4.252121 -1.35,0.557206 -2.755223,1.211133 -3.122717,1.453171 -0.55543,0.365818 -2.817945,3.443304 -3.731199,5.075198 -0.0998,0.178326 -0.312307,0.295368 -0.472247,0.260093 -0.251179,-0.0554 -0.220504,-0.23754 0.225143,-1.336862 0.469154,-1.157311 0.490451,-1.301581 0.234847,-1.590909 -0.531315,-0.601414 -1.545044,-0.262403 -2.888479,0.965969 -0.847945,0.775319 -2.047939,1.443122 -2.593186,1.443122 -1.2543057,0 -2.0327681,-1.181076 -2.157097,-3.272727 -0.1010131,-1.699398 0.4141968,-3.369929 1.906542,-6.181818 2.874786,-5.416697 3.424693,-6.584287 4.427006,-9.399642 0.598177,-1.680197 1.295526,-3.482342 1.549664,-4.004767 0.758399,-1.559024 2.271926,-2.58776 3.824636,-2.599584 1.674262,-0.01275 4.04322,-2.139188 6.752011,-6.060778 0.736063,-1.065621 0.980007,-1.1619666 1.680011,-0.66352 0.62658,0.446165 1.219421,1.52746 1.794896,3.273745 0.453138,1.375052 0.959182,2.267118 1.428582,2.518332 0.2381,0.127428 0.614863,0.07608 1.327911,-0.180965 1.382932,-0.498538 4.896402,-0.904836 5.77344,-0.667642 0.372131,0.100642 1.331145,0.651028 2.131145,1.22308 0.8,0.572051 2.037387,1.422782 2.749749,1.890513 1.423989,0.934979 1.813495,1.370566 4.095766,4.580319 2.069831,2.910983 2.876605,4.323203 3.895094,6.818181 3.16664,7.757279 4.259391,13.313053 4.259391,21.655628 l 0,3.980736 -16.568693,0 -16.568692,0 0.112941,-0.706289 0,0 z M 11.21576,39.729826 c 0.911913,-0.512523 1.61508,-1.859054 1.61508,-3.092798 0,-0.943636 -0.105808,-1.01606 -0.89113,-0.609953 -1.399284,0.723597 -2.5266136,3.15518 -1.799779,3.882015 0.280523,0.280523 0.248153,0.285916 1.075829,-0.179264 l 0,0 z m 6.764437,-13.55215 c 0.392897,-0.272277 1.031777,-0.997648 1.419734,-1.611934 0.387957,-0.614287 1.277712,-1.648507 1.977233,-2.298269 1.322159,-1.228107 1.532062,-1.714849 1.033528,-2.396635 -0.559136,-0.764664 -2.948937,-0.525611 -4.091376,0.409262 -0.823647,0.674001 -1.49788,2.669875 -1.622085,4.801717 -0.08452,1.45077 -0.06356,1.590909 0.23796,1.590909 0.181857,0 0.65211,-0.222772 1.045006,-0.49505 l 0,0 z"
       id="path2826" />
  </g>
</svg>
