<?xml version="1.0" encoding="UTF-8" standalone="no"?>
<!-- Created with Inkscape (http://www.inkscape.org/) -->

<svg
   xmlns:dc="http://purl.org/dc/elements/1.1/"
   xmlns:cc="http://creativecommons.org/ns#"
   xmlns:rdf="http://www.w3.org/1999/02/22-rdf-syntax-ns#"
   xmlns:svg="http://www.w3.org/2000/svg"
   xmlns="http://www.w3.org/2000/svg"
   xmlns:sodipodi="http://sodipodi.sourceforge.net/DTD/sodipodi-0.dtd"
   xmlns:inkscape="http://www.inkscape.org/namespaces/inkscape"
   width="64px"
   height="64px"
   id="svg2985"
   version="1.1"
   inkscape:version="0.48.1 "
   sodipodi:docname="bb.svg">
  <defs
     id="defs2987" />
  <sodipodi:namedview
     id="base"
     pagecolor="#ffffff"
     bordercolor="#666666"
     borderopacity="1.0"
     inkscape:pageopacity="0.0"
     inkscape:pageshadow="2"
     inkscape:zoom="5.5"
     inkscape:cx="10.272727"
     inkscape:cy="32"
     inkscape:current-layer="layer1"
     showgrid="true"
     inkscape:document-units="px"
     inkscape:grid-bbox="true"
     inkscape:window-width="1365"
     inkscape:window-height="878"
     inkscape:window-x="-8"
     inkscape:window-y="-8"
     inkscape:window-maximized="1" />
  <metadata
     id="metadata2990">
    <rdf:RDF>
      <cc:Work
         rdf:about="">
        <dc:format>image/svg+xml</dc:format>
        <dc:type
           rdf:resource="http://purl.org/dc/dcmitype/StillImage" />
        <dc:title></dc:title>
      </cc:Work>
    </rdf:RDF>
  </metadata>
  <g
     id="layer1"
     inkscape:label="Layer 1"
     inkscape:groupmode="layer">
    <path
       style="fill:#000000"
       d="M 21.4836,57.957462 C 15.541053,56.409409 14.769697,55.310772 13.281619,46.275433 12.607403,42.181726 11.885479,37.824825 11.677343,36.59343 10.913401,32.073737 7.9315321,26.734396 5.8834688,26.218904 3.3121137,25.571702 1.9781454,22.678436 3.1062807,20.195415 c 1.8601903,-4.094272 8.3308083,-2.647754 8.3308083,1.862366 0,1.221933 0.357228,2.221696 0.793839,2.221696 0.436612,0 1.891478,0.839588 3.233036,1.86575 1.341557,1.026163 2.631906,1.865751 2.867441,1.865751 0.391729,0 2.780102,-9.483703 2.780102,-11.039173 0,-0.36821 -0.8368,-1.645254 -1.859556,-2.837877 -2.318565,-2.703648 -2.360779,-4.7960734 -0.138992,-6.8892654 2.112503,-1.9902317 5.78675,-2.1171766 7.464604,-0.257901 1.450209,1.607016 1.623954,5.4062424 0.307607,6.7263294 -0.60523,0.606949 -0.663485,1.109019 -0.168857,1.455285 1.151329,0.805992 3.600825,4.739484 4.503679,7.232177 l 0.806159,2.225727 0.505504,-2.019807 c 0.278026,-1.110894 1.327852,-3.235048 2.332945,-4.720343 1.513899,-2.237194 1.749988,-3.267223 1.376016,-6.0034 -0.559788,-4.0957054 1.028124,-6.2607582 4.591822,-6.2607582 4.491971,0 6.48486,5.3294662 3.348837,8.9556022 -0.818605,0.946541 -1.488372,2.023096 -1.488372,2.392343 0,1.404331 2.368762,11.041061 2.713954,11.041061 0.199153,0 1.459735,-0.839588 2.801293,-1.865751 1.341557,-1.026162 2.82619,-1.86575 3.299183,-1.86575 0.472994,0 0.865116,-0.923547 0.871384,-2.052326 0.01575,-2.837315 0.80103,-3.819817 3.482963,-4.357728 2.644631,-0.530429 5.435874,1.611397 5.435874,4.171153 0,1.772901 -2.497339,4.477801 -4.134195,4.477801 -1.258374,0 -4.450025,6.367201 -5.050267,10.075053 -2.94705,18.204739 -2.992867,18.344493 -6.651552,20.28875 -1.835102,0.975189 -4.662987,1.318446 -12.070963,1.465207 -5.32093,0.105415 -10.67907,-0.07005 -11.906977,-0.389925 z m 1.116279,-5.691728 c 2.251163,-0.605954 6.43721,-1.101735 9.302326,-1.101735 2.865116,0 7.051163,0.495781 9.302326,1.101735 2.251162,0.605954 4.176744,1.10572 4.279069,1.110592 0.102326,0.0049 0.186047,-0.957904 0.186047,-2.139501 0,-3.319076 -2.996602,-4.201457 -14.139535,-4.163532 -10.913344,0.03714 -14.213474,1.109748 -13.583449,4.414879 0.198886,1.043357 0.406292,1.893026 0.460902,1.888154 0.05461,-0.0049 1.941152,-0.504638 4.192314,-1.110592 z m 24.48396,-9.515328 c 0.09137,-1.608604 -2.345903,-1.758453 -3.617112,-0.222388 -1.139197,1.376548 -0.352107,3.9652 1.307655,4.300731 1.251308,0.252959 2.153985,-1.341107 2.309457,-4.078343 z m -26.467343,2.301458 c 0.967759,-1.541219 -0.5059,-3.607483 -2.572855,-3.607483 -1.472482,0 -1.669821,0.769157 -0.918776,3.581065 0.515878,1.931448 2.287014,1.944848 3.491631,0.02642 z m 13.84023,-2.020948 c 0.575442,-1.078278 0.410279,-1.703736 -0.721026,-2.730462 -2.643995,-2.399581 -6.789896,0.725877 -4.289309,3.233568 1.351756,1.355596 4.169397,1.072666 5.010335,-0.503106 z m -8.880102,-5.666243 c 5.323392,-0.844989 7.32777,-0.842102 12.651162,0.01822 3.47907,0.562258 6.995349,1.118397 7.813954,1.235863 1.118995,0.16057 1.544261,-0.269256 1.713572,-1.731947 0.371676,-3.210934 -2.834266,-4.024877 -15.853107,-4.024877 -13.211594,0 -16,0.746287 -16,4.282235 0,1.970411 0.198489,2.175488 1.674419,1.729988 0.92093,-0.277976 4.52093,-0.957242 8,-1.509479 z"
       id="path3061"
       inkscape:connector-curvature="0" />
    <path
       style="fill:#ffffff;fill-opacity:1;fill-rule:evenodd"
       d="m 18.404206,53.009091 c -0.261719,-0.79003 -0.456864,-1.766371 -0.457737,-2.290129 -0.0027,-1.599491 1.657196,-2.641752 4.998986,-3.138963 2.12422,-0.316053 8.933537,-0.494531 13.010118,-0.341006 6.470294,0.243674 8.722247,0.907857 9.432316,2.781934 0.241156,0.636481 0.255998,2.973797 0.01981,3.119769 -0.09577,0.05919 -1.302584,-0.179132 -2.681818,-0.529595 -7.692492,-1.954661 -14.051919,-1.958913 -21.573101,-0.01443 -2.846865,0.736014 -2.651105,0.70664 -2.748575,0.412417 z"
       id="path3063"
       inkscape:connector-curvature="0" />
    <path
       style="fill:#ffffff;fill-opacity:1;fill-rule:evenodd"
       d="m 44.010538,46.368684 c -0.959837,-0.774202 -1.271432,-2.551713 -0.631324,-3.601418 0.65176,-1.068811 2.693213,-1.567407 3.367399,-0.82244 0.257781,0.284844 0.290462,0.545768 0.187881,1.5 -0.14409,1.340356 -0.714715,2.820145 -1.184416,3.071521 -0.502047,0.268687 -1.308198,0.200256 -1.73954,-0.147663 l 0,0 z"
       id="path3065"
       inkscape:connector-curvature="0" />
    <path
       style="fill:#ffffff;fill-opacity:1;fill-rule:evenodd"
       d="m 30.490909,44.123504 c -1.195539,-0.475325 -1.994121,-1.855258 -1.629165,-2.815164 0.426441,-1.121626 1.368386,-1.725733 2.706991,-1.736102 1.056607,-0.0082 1.76435,0.332829 2.551579,1.229433 0.512816,0.584066 0.579563,0.77106 0.496439,1.390796 -0.217771,1.623607 -2.367926,2.629954 -4.125844,1.931037 z"
       id="path3067"
       inkscape:connector-curvature="0" />
    <path
       style="fill:#ffffff;fill-opacity:1;fill-rule:evenodd"
       d="m 17.689273,45.981919 c -0.375643,-0.41508 -0.818522,-1.992911 -0.862522,-3.072874 -0.0409,-1.00396 0.297904,-1.355712 1.292598,-1.341984 1.492367,0.0206 2.845448,1.338574 2.679142,2.609638 -0.212892,1.627124 -2.217235,2.790851 -3.109218,1.80522 z"
       id="path3069"
       inkscape:connector-curvature="0" />
    <path
       style="fill:#ffffff;fill-opacity:1;fill-rule:evenodd"
       d="m 16.105066,38.554545 c -0.278599,-0.714265 -0.06042,-2.756264 0.354362,-3.3166 1.209018,-1.633277 3.7617,-2.099078 12.576936,-2.29498 5.611025,-0.124695 12.039405,0.121572 14.454545,0.553743 2.704535,0.483956 3.706376,1.029058 4.103644,2.232788 0.229925,0.696683 0.09493,1.752476 -0.303104,2.370504 -0.359945,0.558891 -0.736214,0.539899 -6.138742,-0.309861 -8.944567,-1.406883 -9.943029,-1.411204 -17.843616,-0.07722 -1.5,0.253268 -3.646338,0.658745 -4.769639,0.901059 -1.123302,0.242314 -2.086691,0.44057 -2.140864,0.44057 -0.05417,0 -0.186259,-0.225 -0.293522,-0.5 z"
       id="path3071"
       inkscape:connector-curvature="0" />
  </g>
</svg>
