<?xml version="1.0" encoding="UTF-8" standalone="no"?>
<!-- Created with Inkscape (http://www.inkscape.org/) -->

<svg
   xmlns:dc="http://purl.org/dc/elements/1.1/"
   xmlns:cc="http://creativecommons.org/ns#"
   xmlns:rdf="http://www.w3.org/1999/02/22-rdf-syntax-ns#"
   xmlns:svg="http://www.w3.org/2000/svg"
   xmlns="http://www.w3.org/2000/svg"
   xmlns:sodipodi="http://sodipodi.sourceforge.net/DTD/sodipodi-0.dtd"
   xmlns:inkscape="http://www.inkscape.org/namespaces/inkscape"
   width="64px"
   height="64px"
   id="svg2985"
   version="1.1"
   inkscape:version="0.48.1 "
   sodipodi:docname="wr.svg">
  <defs
     id="defs2987" />
  <sodipodi:namedview
     id="base"
     pagecolor="#ffffff"
     bordercolor="#666666"
     borderopacity="1.0"
     inkscape:pageopacity="0.0"
     inkscape:pageshadow="2"
     inkscape:zoom="7.7781746"
     inkscape:cx="30.489678"
     inkscape:cy="32.812069"
     inkscape:current-layer="layer1"
     showgrid="true"
     inkscape:document-units="px"
     inkscape:grid-bbox="true"
     inkscape:window-width="1365"
     inkscape:window-height="878"
     inkscape:window-x="-8"
     inkscape:window-y="-8"
     inkscape:window-maximized="1" />
  <metadata
     id="metadata2990">
    <rdf:RDF>
      <cc:Work
         rdf:about="">
        <dc:format>image/svg+xml</dc:format>
        <dc:type
           rdf:resource="http://purl.org/dc/dcmitype/StillImage" />
        <dc:title></dc:title>
      </cc:Work>
    </rdf:RDF>
  </metadata>
  <g
     id="layer1"
     inkscape:label="Layer 1"
     inkscape:groupmode="layer">
    <path
       style="fill:#000000"
       d="m 10.36156,59.157003 c -0.6901524,-2.086991 -0.6757834,-3.426528 0.06587,-6.141012 0.772053,-2.825732 2.174695,-4.677702 7.537593,-9.952216 3.623962,-3.564238 6.589023,-6.793031 6.589023,-7.175097 0,-1.651582 -2.843539,-3.714707 -5.68513,-4.124835 -2.65327,-0.382948 -3.345785,-0.17314 -5.053334,1.530985 l -1.978713,1.974748 -1.655087,-1.772967 C 9.2714893,32.521478 7.7687914,30.60904 6.8424581,29.246747 l -1.6842424,-2.476895 1.4564808,-2.75576 c 0.8010644,-1.515668 1.6304042,-3.341948 1.8429773,-4.058399 0.2125732,-0.716451 1.0565751,-1.302639 1.8755602,-1.302639 2.509001,0 11.954921,-3.472394 17.577188,-6.461512 1.230669,-0.654294 3.267338,-2.154477 4.52593,-3.3337396 2.268809,-2.125805 2.315702,-2.1344821 5.491681,-1.0161775 2.180948,0.7679407 4.466828,0.9797342 7.16212,0.6635904 2.177333,-0.2553895 4.82903,-0.2463663 5.892658,0.020053 l 1.933872,0.4843978 -1.589764,2.1459597 -1.589763,2.145961 2.661726,3.478969 c 1.740914,2.275437 2.844021,4.681774 3.188674,6.955833 0.733523,4.83988 -0.604655,13.089828 -2.952144,18.200136 -2.652461,5.774209 -2.600115,9.684108 0.188401,14.072327 1.19056,1.873556 2.533108,3.633726 2.98344,3.911489 2.608114,1.608672 -0.802799,1.905892 -21.872107,1.905892 l -22.690892,0 -0.882694,-2.66923 z M 45.280824,53.824308 C 44.551595,50.07959 45.07132,47.91214 49.483427,36.297866 c 2.183022,-5.746508 2.501717,-11.611156 0.845892,-15.566159 -1.437866,-3.434401 -2.834782,-4.481554 -5.191102,-3.891341 -1.063879,0.266482 -2.495977,0.269419 -3.182438,0.0066 -1.042891,-0.399392 -0.828548,-0.845854 1.303588,-2.71529 l 2.551699,-2.237328 -2.983441,0.304195 c -6.375045,0.650006 -12.104722,2.15341 -16.050111,4.211372 -2.263992,1.180925 -6.550808,2.699733 -9.526258,3.375129 -5.015335,1.138427 -5.488277,1.415172 -6.484362,3.79436 -0.752248,1.796776 -0.8659285,3.113723 -0.379091,4.391638 0.740334,1.943322 0.552183,1.929617 10.25499,0.746958 1.892592,-0.230685 2.958056,0.186646 4.827849,1.891014 3.34966,3.05331 7.050797,3.002843 10.643339,-0.145129 2.967807,-2.600546 3.666157,-2.504883 2.935094,0.402066 -0.578791,2.301462 -5.769531,5.651916 -8.756316,5.651916 -1.346206,0 -2.275169,0.596953 -2.960571,1.902467 -0.549342,1.046357 -3.580795,4.521358 -6.736562,7.722224 -5.025877,5.097705 -5.737757,6.154606 -5.737757,8.518645 l 0,2.698888 15.555744,0 15.555743,0 -0.688532,-3.535734 z M 28.842747,21.841725 c -1.128113,-0.170552 -2.051115,-0.434655 -2.051115,-0.586894 0,-0.15224 0.969961,-1.336643 2.155469,-2.632006 1.598352,-1.746463 2.552391,-2.229481 3.691148,-1.868778 1.910459,0.605141 2.779911,3.099841 1.58228,4.540006 -0.89538,1.076704 -1.482814,1.136528 -5.377782,0.547672 z m 3.169906,-2.444306 c 0,-0.409401 -0.335637,-0.744365 -0.74586,-0.744365 -0.410223,0 -0.74586,0.334964 -0.74586,0.744365 0,0.409401 0.335637,0.744365 0.74586,0.744365 0.410223,0 0.74586,-0.334964 0.74586,-0.744365 z"
       id="path3152"
       inkscape:connector-curvature="0" />
    <path
       style="fill:#ffffff;fill-opacity:1;fill-rule:evenodd"
       d="m 14.980121,55.171707 c 0.04083,-1.974555 0.06261,-2.128701 0.396969,-2.809536 0.57341,-1.167604 1.493599,-2.272829 4.576141,-5.496328 4.566191,-4.774992 5.987544,-6.391417 7.394312,-8.409139 1.023875,-1.46854 1.405532,-1.709688 2.989925,-1.889171 0.632492,-0.07165 1.574369,-0.274614 2.093061,-0.451032 2.664842,-0.906372 5.715014,-3.159316 6.446321,-4.761436 0.349582,-0.765853 0.566247,-2.160787 0.387497,-2.494786 -0.306173,-0.572089 -0.887215,-0.272444 -3.498782,1.804342 -2.533713,2.014873 -4.880755,2.596436 -7.223785,1.789949 -0.993409,-0.341938 -1.419426,-0.609133 -3.123593,-1.959107 -1.520112,-1.20417 -2.445732,-1.706418 -3.388078,-1.838395 -0.351601,-0.04924 -1.876544,0.07363 -3.887548,0.313238 -6.812178,0.81166 -7.180659,0.754085 -7.751995,-1.211244 -0.4499883,-1.547905 0.04918,-3.958996 1.153038,-5.569386 0.63289,-0.92331 1.51457,-1.302367 5.279628,-2.269846 4.547278,-1.168481 6.229059,-1.774752 11.187309,-4.032953 3.852641,-1.754659 8.731084,-2.955118 14.750351,-3.629681 1.32566,-0.148562 2.497649,-0.251382 2.604421,-0.228488 0.11832,0.02537 -0.514623,0.667192 -1.620809,1.643545 -2.603062,2.297538 -2.824049,2.658919 -1.915027,3.131677 0.395059,0.20546 0.636748,0.222618 1.992378,0.141444 2.94816,-0.176533 3.408274,-0.149995 4.000909,0.23076 1.328795,0.853723 2.599737,3.293185 3.214445,6.169845 0.315491,1.47641 0.314258,5.184309 -0.0023,6.980567 -0.488586,2.772208 -0.773914,3.70277 -2.980701,9.721184 -3.207644,8.747984 -3.479142,10.324937 -2.581701,14.995412 l 0.426143,2.217744 -15.480854,0 -15.480854,0 0.0432,-2.089179 4e-6,0 z M 32.986272,22.157019 c 2.329398,-0.646937 2.335561,-4.171144 0.0092,-5.264659 -1.380347,-0.64884 -2.488299,-0.0885 -4.613783,2.333404 -1.505532,1.715492 -1.70594,2.01705 -1.447255,2.177713 0.27793,0.172615 1.333642,0.386042 3.130972,0.632969 2.028021,0.278621 2.309887,0.290257 2.920859,0.120573 l 10e-7,0 z"
       id="path3154"
       inkscape:connector-curvature="0" />
    <path
       style="fill:#ffffff;fill-opacity:1;fill-rule:evenodd"
       d="m 30.845305,19.934906 c -0.490155,-0.35841 -0.164973,-1.243481 0.456864,-1.243481 0.546972,0 0.830287,0.807301 0.425405,1.212183 -0.246949,0.246949 -0.571599,0.258466 -0.882269,0.0313 z"
       id="path3156"
       inkscape:connector-curvature="0" />
  </g>
</svg>
