<?xml version="1.0" encoding="UTF-8" standalone="no"?>
<!-- Created with Inkscape (http://www.inkscape.org/) -->

<svg
   xmlns:dc="http://purl.org/dc/elements/1.1/"
   xmlns:cc="http://creativecommons.org/ns#"
   xmlns:rdf="http://www.w3.org/1999/02/22-rdf-syntax-ns#"
   xmlns:svg="http://www.w3.org/2000/svg"
   xmlns="http://www.w3.org/2000/svg"
   xmlns:sodipodi="http://sodipodi.sourceforge.net/DTD/sodipodi-0.dtd"
   xmlns:inkscape="http://www.inkscape.org/namespaces/inkscape"
   width="64px"
   height="64px"
   id="svg2985"
   version="1.1"
   inkscape:version="0.48.1 "
   sodipodi:docname="bp.svg">
  <defs
     id="defs2987" />
  <sodipodi:namedview
     id="base"
     pagecolor="#ffffff"
     bordercolor="#666666"
     borderopacity="1.0"
     inkscape:pageopacity="0.0"
     inkscape:pageshadow="2"
     inkscape:zoom="7.7781746"
     inkscape:cx="30.489678"
     inkscape:cy="32.812069"
     inkscape:current-layer="layer1"
     showgrid="true"
     inkscape:document-units="px"
     inkscape:grid-bbox="true"
     inkscape:window-width="1365"
     inkscape:window-height="878"
     inkscape:window-x="-8"
     inkscape:window-y="-8"
     inkscape:window-maximized="1" />
  <metadata
     id="metadata2990">
    <rdf:RDF>
      <cc:Work
         rdf:about="">
        <dc:format>image/svg+xml</dc:format>
        <dc:type
           rdf:resource="http://purl.org/dc/dcmitype/StillImage" />
        <dc:title></dc:title>
      </cc:Work>
    </rdf:RDF>
  </metadata>
  <g
     id="layer1"
     inkscape:label="Layer 1"
     inkscape:groupmode="layer">
    <path
       style="fill:#000000"
       d="m 8.5959144,55.044196 c 0,-3.468418 0.3454451,-4.862899 1.5099406,-6.09528 0.830468,-0.87888 1.509942,-2.139023 1.509942,-2.800317 0,-0.661293 1.189078,-2.338663 2.642397,-3.727487 l 2.642396,-2.525135 0,-9.75689 0,-9.75689 -2.642396,-2.525135 C 11.713269,15.425073 11.615797,15.13138 11.615797,9.895208 l 0,-5.436719 5.662279,0 5.662278,0 0,2.2330955 c 0,1.4887303 0.377486,2.2330955 1.132456,2.2330955 0.754971,0 1.132456,-0.7443652 1.132456,-2.2330955 l 0,-2.2330955 7.17222,0 7.17222,0 0,2.2330955 c 0,1.4887303 0.377485,2.2330955 1.132455,2.2330955 0.754971,0 1.132456,-0.7443652 1.132456,-2.2330955 l 0,-2.2330955 5.284794,0 5.284793,0 0,5.589514 c 0,5.195055 -0.159837,5.754418 -2.264911,7.926234 l -2.264912,2.33672 0,9.943452 c 0,9.651526 0.05485,9.990477 1.86833,11.545126 1.027581,0.880919 2.234038,2.694213 2.681015,4.029542 0.446977,1.335328 1.304912,2.830643 1.906523,3.322922 0.745898,0.610345 1.093837,2.405101 1.093837,5.642282 l 0,4.74723 -23.404085,0 -23.4040866,0 0,-4.497315 z m 42.2783486,-0.94561 c 0,-2.3235 -2.808233,-7.910655 -4.80126,-9.55241 -1.406438,-1.158552 -3.238743,-1.334381 -14.130143,-1.355934 -12.167632,-0.02408 -12.560213,0.02357 -14.177491,1.720904 -2.239809,2.350677 -4.639631,7.111917 -4.639631,9.205016 l 0,1.703523 18.874263,0 18.874262,0 0,-1.721099 z m -7.549705,-23.215134 0,-8.560199 -11.324557,0 -11.324558,0 0,8.560199 0,8.5602 11.324558,0 11.324557,0 0,-8.5602 z m 2.412343,-15.026567 c 1.59506,-1.506698 2.11748,-2.700411 2.11748,-4.838374 0,-2.026598 -0.323832,-2.8381962 -1.132456,-2.8381962 -0.75497,0 -1.132455,0.7443652 -1.132455,2.2330952 l 0,2.233096 -5.284794,0 -5.284793,0 0,-2.233096 c 0,-2.1090341 -0.167772,-2.2330952 -3.019882,-2.2330952 -2.852111,0 -3.019882,0.1240611 -3.019882,2.2330952 l 0,2.233096 -5.284794,0 -5.284794,0 0,-2.233096 c 0,-1.48873 -0.377485,-2.2330952 -1.132455,-2.2330952 -2.048052,0 -1.435172,5.1897482 0.896218,7.5890122 l 2.028675,2.087735 11.708226,0 c 11.6775,0 11.713783,-0.0053 13.825706,-2.000177 z"
       id="path3133"
       inkscape:connector-curvature="0" />
    <path
       style="fill:#ffffff;fill-opacity:1;fill-rule:evenodd"
       d="m 13.19512,54.400318 c 0.08557,-1.546502 0.333213,-2.377996 1.330135,-4.466093 1.302737,-2.728637 3.378012,-5.452193 4.583986,-6.015945 1.226627,-0.573406 1.900059,-0.606733 12.241821,-0.605818 10.266752,9.08e-4 11.671671,0.06224 13.358061,0.583108 1.355849,0.418779 2.506006,1.66107 3.982477,4.301493 1.420412,2.54017 2.13704,4.736641 2.13704,6.550046 l 0,0.970999 -18.853217,0 -18.853217,0 0.07291,-1.31779 z"
       id="path3135"
       inkscape:connector-curvature="0" />
    <path
       style="fill:#ffffff;fill-opacity:1;fill-rule:evenodd"
       d="m 20.744461,30.905088 0,-8.485282 11.249426,0 11.249426,0 0,8.485282 0,8.485281 -11.249426,0 -11.249426,0 0,-8.485281 z"
       id="path3137"
       inkscape:connector-curvature="0" />
    <path
       style="fill:#ffffff;fill-opacity:1;fill-rule:evenodd"
       d="m 18.819417,16.374747 c -1.468973,-1.599938 -2.153356,-2.809341 -2.518484,-4.450524 -0.284667,-1.279525 -0.216029,-2.7283911 0.152648,-3.2221938 0.223184,-0.2989298 0.364724,-0.3600759 0.833503,-0.3600759 0.52169,0 0.582056,0.035562 0.793141,0.4672513 0.165887,0.3392534 0.250569,0.9291686 0.309131,2.1534614 l 0.08066,1.68621 5.231545,0 5.231546,0 0.07676,-1.794761 c 0.04222,-0.987118 0.136667,-1.9066997 0.209889,-2.0435144 0.219915,-0.4109154 0.855054,-0.5329297 2.774137,-0.5329297 1.931461,0 2.55402,0.1216384 2.779572,0.5430857 0.07621,0.1424006 0.170355,1.0619824 0.209211,2.0435154 l 0.07065,1.784604 5.316363,0 5.316364,0 7.72e-4,-1.574919 c 0.001,-2.3173397 0.197102,-2.7962861 1.144613,-2.7962861 0.307875,0 0.435034,0.085453 0.599009,0.4025457 0.273334,0.5285687 0.409542,2.0279144 0.300011,3.3024504 -0.134098,1.560422 -0.600444,2.41864 -2.085963,3.838806 -1.049886,1.003697 -1.310353,1.184203 -2.067386,1.432719 -1.398888,0.459222 -3.284434,0.533088 -13.663071,0.535244 l -9.793856,0.002 -1.300757,-1.416724 z"
       id="path3139"
       inkscape:connector-curvature="0" />
  </g>
</svg>
