<?xml version="1.0" encoding="UTF-8" standalone="no"?>
<!-- Created with Inkscape (http://www.inkscape.org/) -->

<svg
   xmlns:dc="http://purl.org/dc/elements/1.1/"
   xmlns:cc="http://creativecommons.org/ns#"
   xmlns:rdf="http://www.w3.org/1999/02/22-rdf-syntax-ns#"
   xmlns:svg="http://www.w3.org/2000/svg"
   xmlns="http://www.w3.org/2000/svg"
   xmlns:sodipodi="http://sodipodi.sourceforge.net/DTD/sodipodi-0.dtd"
   xmlns:inkscape="http://www.inkscape.org/namespaces/inkscape"
   width="45"
   height="45"
   id="svg3128"
   sodipodi:version="0.32"
   inkscape:version="0.47 r22583"
   version="1.0"
   sodipodi:docname="bk.svg">
  <defs
     id="defs3130">
    <inkscape:perspective
       sodipodi:type="inkscape:persp3d"
       inkscape:vp_x="0 : 22.5 : 1"
       inkscape:vp_y="0 : 1000 : 0"
       inkscape:vp_z="45 : 22.5 : 1"
       inkscape:persp3d-origin="22.5 : 15 : 1"
       id="perspective15" />
  </defs>
  <sodipodi:namedview
     id="base"
     pagecolor="#ffffff"
     bordercolor="#666666"
     borderopacity="1.0"
     gridtolerance="10000"
     guidetolerance="10"
     objecttolerance="10"
     inkscape:pageopacity="0.0"
     inkscape:pageshadow="2"
     inkscape:zoom="11.313708"
     inkscape:cx="50.19508"
     inkscape:cy="20.61116"
     inkscape:document-units="px"
     inkscape:current-layer="layer1"
     height="45px"
     width="45px"
     inkscape:grid-points="true"
     showgrid="true"
     inkscape:window-width="1365"
     inkscape:window-height="878"
     inkscape:window-x="-8"
     inkscape:window-y="-8"
     inkscape:window-maximized="1">
    <inkscape:grid
       id="GridFromPre046Settings"
       type="xygrid"
       originx="0px"
       originy="0px"
       spacingx="0.5px"
       spacingy="0.5px"
       color="#0000ff"
       empcolor="#0000ff"
       opacity="0.2"
       empopacity="0.4"
       empspacing="5" />
  </sodipodi:namedview>
  <metadata
     id="metadata3133">
    <rdf:RDF>
      <cc:Work
         rdf:about="">
        <dc:format>image/svg+xml</dc:format>
        <dc:type
           rdf:resource="http://purl.org/dc/dcmitype/StillImage" />
      </cc:Work>
    </rdf:RDF>
  </metadata>
  <g
     inkscape:label="Layer 1"
     inkscape:groupmode="layer"
     id="layer1">
    <path
       style="fill:none;fill-opacity:0.75;fill-rule:evenodd;stroke:#303042;stroke-width:1.5;stroke-linecap:round;stroke-linejoin:miter;stroke-opacity:1;stroke-miterlimit:4;stroke-dasharray:none"
       d="M 22.5,11.625 L 22.5,6"
       id="path6570" />
    <path
       style="fill:#2B2B3C;fill-opacity:1;fill-rule:evenodd;stroke:#303042;stroke-width:1.5;stroke-linecap:butt;stroke-linejoin:miter;stroke-opacity:1;stroke-miterlimit:4;stroke-dasharray:none"
       d="M 22.5,25 C 22.5,25 27,17.5 25.5,14.5 C 25.5,14.5 24.5,12 22.5,12 C 20.5,12 19.5,14.5 19.5,14.5 C 18,17.5 22.5,25 22.5,25"
       id="path5683"
       sodipodi:nodetypes="ccccc" />
    <path
       style="fill:#2B2B3C;fill-opacity:1;fill-rule:evenodd;stroke:#303042;stroke-width:1.5;stroke-linecap:round;stroke-linejoin:round;stroke-opacity:1;stroke-miterlimit:4;stroke-dasharray:none"
       d="M 11.5,37 C 17,40.5 27,40.5 32.5,37 L 32.5,30 C 32.5,30 41.5,25.5 38.5,19.5 C 34.5,13 25,16 22.5,23.5 L 22.5,27 L 22.5,23.5 C 19,16 9.5,13 6.5,19.5 C 3.5,25.5 11.5,29.5 11.5,29.5 L 11.5,37 z "
       id="path5681"
       sodipodi:nodetypes="cccccccccc" />
    <path
       style="fill:none;fill-opacity:0.75;fill-rule:evenodd;stroke:#303042;stroke-width:1.5;stroke-linecap:round;stroke-linejoin:miter;stroke-opacity:1;stroke-miterlimit:4;stroke-dasharray:none"
       d="M 20,8 L 25,8"
       id="path6572" />
    <path
       style="fill:none;fill-opacity:0.75;fill-rule:evenodd;stroke:white;stroke-width:1.5;stroke-linecap:round;stroke-linejoin:miter;stroke-opacity:1;stroke-miterlimit:4;stroke-dasharray:none"
       d="M 11.5,29.5 C 17,27 27,27 32.5,30"
       id="path6574"
       sodipodi:nodetypes="cc" />
    <path
       style="fill:none;fill-opacity:0.75;fill-rule:evenodd;stroke:white;stroke-width:1.5;stroke-linecap:round;stroke-linejoin:round;stroke-opacity:1;stroke-miterlimit:4;stroke-dasharray:none"
       d="M 11.5,37 C 17,34.5 27,34.5 32.5,37"
       id="path6576"
       sodipodi:nodetypes="cc" />
    <path
       style="fill:none;fill-opacity:0.75;fill-rule:evenodd;stroke:white;stroke-width:1.5;stroke-linecap:round;stroke-linejoin:round;stroke-opacity:1;stroke-miterlimit:4;stroke-dasharray:none"
       d="M 11.5,33.5 C 17,31.5 27,31.5 32.5,33.5"
       id="path6578"
       sodipodi:nodetypes="cc" />
    <path
       style="fill:none;fill-opacity:1;fill-rule:evenodd;stroke:white;stroke-width:1.5;stroke-linecap:round;stroke-linejoin:round;stroke-miterlimit:4;stroke-dasharray:none;stroke-opacity:1"
       d="M 32,29.5 C 32,29.5 40.5,25.5 38.025969,19.846552 C 34.147406,13.996552 25,18 22.5,24.5 L 22.511718,26.596552 L 22.5,24.5 C 20,18 9.9063892,13.996552 6.9974672,19.846552 C 4.5,25.5 11.845671,28.846552 11.845671,28.846552"
       id="path5638"
       sodipodi:nodetypes="ccccccc" />
    <path
       style="fill:#000000"
       d="M 11.841286,27.976943 C 9.636836,26.75244 8.0818832,25.169953 7.5232028,23.582398 7.3490861,23.087625 7.2995376,22.773136 7.2979367,22.152615 c -0.00562,-2.177569 1.3009806,-3.799713 3.4117613,-4.235707 0.829098,-0.171255 1.38699,-0.175205 2.363184,-0.01673 3.024154,0.490935 6.094338,2.535932 7.843934,5.22471 0.709547,1.090432 0.798321,1.371896 0.831795,2.637297 l 0.02961,1.119454 -0.353553,1.77e-4 c -0.194455,8.8e-5 -0.98995,0.03989 -1.767767,0.08841 -2.693255,0.168016 -4.786958,0.542904 -7.071069,1.266109 -0.116226,0.0368 -0.371254,-0.05205 -0.74455,-0.259408 l 0,1.3e-5 z"
       id="path2821" />
    <path
       style="fill:#000000"
       d="M 10.773717,31.547321 10.773559,29.93079 10.353873,29.670013 C 9.0244077,28.843936 7.5686872,27.571192 6.7495966,26.518777 4.9088863,24.153723 4.635795,21.674705 5.9272468,19.053796 c 0.9157003,-1.858347 2.3084351,-3.052082 4.1876992,-3.589342 0.575699,-0.164586 0.919371,-0.200943 1.896366,-0.200617 1.264206,4.42e-4 1.822006,0.08632 2.957089,0.455386 1.000189,0.325205 1.875847,0.740893 2.848541,1.352242 0.727204,0.457057 0.837029,0.503062 0.79043,0.331106 -0.118098,-0.435794 -0.15553,-1.644387 -0.06735,-2.17458 0.249266,-1.498752 1.697415,-3.394152 2.859185,-3.742227 l 0.334825,-0.100316 0,-1.311834 0,-1.3118346 -0.8265,0 c -0.454574,0 -0.952968,-0.044087 -1.10754,-0.097971 -0.511196,-0.1782039 -0.653402,-0.8415137 -0.257366,-1.200468 0.143703,-0.1302478 0.363672,-0.1654873 1.18395,-0.1896718 l 1.007456,-0.029703 0.0088,-0.5890153 c 0.01425,-0.9530267 0.161343,-1.2441503 0.662563,-1.311378 0.26288,-0.035259 0.40006,-0.00436 0.561711,0.1265405 0.191583,0.1551342 0.217913,0.2574393 0.252513,0.9811293 l 0.03863,0.8079357 0.968259,0 c 0.952331,0 0.97251,0.00425 1.226625,0.2583659 0.31577,0.315769 0.330438,0.6202601 0.04582,0.9511471 C 25.2927,8.708484 25.256116,8.7167512 24.261524,8.7483238 l -1.024891,0.032534 0,1.2955398 0,1.295539 0.419844,0.149392 c 0.955763,0.340086 2.054145,1.563885 2.56072,2.853111 0.215915,0.549501 0.243252,0.734883 0.244362,1.657096 7.07e-4,0.571108 0.015,1.038461 0.0318,1.038563 0.0168,8.8e-5 0.136127,-0.07443 0.265165,-0.165636 0.435712,-0.307953 1.821018,-0.956657 2.532713,-1.186006 1.153848,-0.371836 1.701145,-0.454743 3.005204,-0.455242 1.008185,-3.54e-4 1.373951,0.03644 1.974298,0.198783 1.450202,0.392153 2.548726,1.029893 3.59507,2.087092 1.105228,1.116694 1.614491,2.05723 1.870461,3.454476 0.236114,1.288862 0.03189,2.457174 -0.679824,3.889088 -0.909463,1.829769 -2.823655,3.716107 -5.2795,5.202677 l -0.552427,0.334394 0,1.380287 c 0,1.371734 -0.0011,1.379142 -0.171964,1.195704 -0.09458,-0.10152 -0.482385,-0.287066 -0.861787,-0.412324 -4.79202,-1.582064 -12.667338,-1.813638 -18.368602,-0.54013 -1.418459,0.316845 -2.613968,0.705958 -2.852901,0.928557 l -0.195388,0.182032 -1.59e-4,-1.61653 10e-7,0 z m 22.036765,-0.879668 c 0.285904,-0.152273 0.408075,-0.349593 0.411224,-0.664173 0.0025,-0.2482 0.06594,-0.319209 0.545617,-0.610599 2.142449,-1.30147 3.937518,-3.084672 4.768273,-4.736753 0.530658,-1.055294 0.732581,-1.963458 0.674501,-3.033622 -0.06721,-1.238342 -0.339105,-1.993991 -1.012789,-2.814697 -1.386574,-1.689173 -3.197596,-2.536586 -5.406775,-2.529936 -2.173955,0.0065 -4.040984,0.616274 -6.163853,2.012978 -1.371045,0.902054 -3.128723,2.726285 -3.875457,4.022198 l -0.245239,0.425599 -0.44818,-0.690764 c -0.628318,-0.968405 -2.523012,-2.844251 -3.589432,-3.553727 -1.38571,-0.921894 -2.701241,-1.529599 -4.158963,-1.921218 -1.236441,-0.332172 -3.118582,-0.393819 -4.139736,-0.13559 -3.542567,0.89584 -5.3687593,4.580178 -3.9762611,8.022096 0.5585773,1.380667 2.0809234,3.080864 3.6723018,4.101325 l 0.8959533,0.574524 0.0061,0.369236 c 0.0048,0.289431 0.05644,0.408829 0.238995,0.552427 0.303384,0.238642 0.629478,0.231333 1.250277,-0.02802 1.389031,-0.58031 3.350843,-1.061892 5.499512,-1.35001 1.467303,-0.196752 5.739845,-0.226388 7.071068,-0.04905 3.063949,0.408168 4.960962,0.920793 7.071068,1.910796 0.550619,0.258334 0.641424,0.270981 0.911791,0.126982 l 0,0 z"
       id="path2823" />
    <path
       style="fill:#000000"
       d="M 31.059002,28.507101 C 29.4199,27.817949 26.510657,27.203289 23.97217,27.009804 l -0.811258,-0.06183 0.08919,-0.232162 c 0.05403,-0.14063 0.0653,-0.570539 0.02858,-1.090416 l -0.06061,-0.858253 0.357869,-0.732737 c 1.571508,-3.217664 4.796292,-5.665223 8.118712,-6.161971 1.88406,-0.281693 3.54974,0.195985 4.801693,1.377014 0.70913,0.668958 1.010773,1.217937 1.146345,2.086308 0.155311,0.994813 -0.106976,2.041924 -0.807101,3.222128 -0.388582,0.655035 -1.876746,2.145154 -2.788617,2.792279 -0.927442,0.658176 -2.154405,1.388313 -2.325056,1.383587 -0.07292,-0.002 -0.371232,-0.10401 -0.662913,-0.226645 z"
       id="path2825" />
    <path
       style="fill:#000000"
       d="m 10.773875,35.262878 0,-1.429621 0.198874,0.179013 c 0.327995,0.295239 0.470253,0.298742 1.334064,0.03284 2.697048,-0.830204 5.909095,-1.241703 9.692383,-1.241703 3.706918,0 7.125068,0.429999 9.545942,1.200868 0.860486,0.274001 1.185618,0.273199 1.462425,-0.0036 l 0.216954,-0.216953 -0.0027,1.476488 c -0.002,1.097841 -0.02709,1.4345 -0.09784,1.312762 -0.255349,-0.439357 -2.978663,-1.327241 -5.29116,-1.725082 -2.099133,-0.361133 -2.800874,-0.409347 -5.922019,-0.406882 -3.187225,0.0025 -3.964469,0.06393 -6.181384,0.488454 -2.147925,0.411309 -4.3247,1.132192 -4.773274,1.580766 l -0.182275,0.182275 0,-1.429621 z"
       id="path2827" />
    <path
       style="fill:#000000"
       d="m 19.833681,40.263189 c -1.970672,-0.195384 -3.836094,-0.578402 -5.391689,-1.107049 -1.24582,-0.423374 -3.177281,-1.342361 -2.914459,-1.386697 0.09593,-0.01618 0.572167,-0.182209 1.058303,-0.368947 1.561207,-0.599702 3.27312,-0.991363 5.656855,-1.294208 0.92932,-0.118066 1.864675,-0.157211 3.756505,-0.157211 1.89183,0 2.827184,0.03914 3.756505,0.157211 2.383735,0.302845 4.095647,0.694506 5.656854,1.294208 0.486136,0.186738 0.962065,0.352705 1.057621,0.368816 0.239255,0.04034 -1.489664,0.884443 -2.681507,1.309185 -2.33947,0.833726 -4.309116,1.153093 -7.347531,1.191359 -1.239647,0.01561 -2.413002,0.01261 -2.607457,-0.0067 z"
       id="path2829" />
  </g>
</svg>
