<?xml version="1.0" encoding="UTF-8" standalone="no"?>
<!-- Created with Inkscape (http://www.inkscape.org/) -->

<svg
   xmlns:dc="http://purl.org/dc/elements/1.1/"
   xmlns:cc="http://creativecommons.org/ns#"
   xmlns:rdf="http://www.w3.org/1999/02/22-rdf-syntax-ns#"
   xmlns:svg="http://www.w3.org/2000/svg"
   xmlns="http://www.w3.org/2000/svg"
   xmlns:sodipodi="http://sodipodi.sourceforge.net/DTD/sodipodi-0.dtd"
   xmlns:inkscape="http://www.inkscape.org/namespaces/inkscape"
   width="45"
   height="45"
   id="svg3128"
   sodipodi:version="0.32"
   inkscape:version="0.47 r22583"
   version="1.0"
   sodipodi:docname="br.svg">
  <defs
     id="defs3130">
    <inkscape:perspective
       sodipodi:type="inkscape:persp3d"
       inkscape:vp_x="0 : 22.5 : 1"
       inkscape:vp_y="0 : 1000 : 0"
       inkscape:vp_z="45 : 22.5 : 1"
       inkscape:persp3d-origin="22.5 : 15 : 1"
       id="perspective18" />
  </defs>
  <sodipodi:namedview
     id="base"
     pagecolor="#ffffff"
     bordercolor="#666666"
     borderopacity="1.0"
     gridtolerance="10000"
     guidetolerance="10"
     objecttolerance="10"
     inkscape:pageopacity="0.0"
     inkscape:pageshadow="2"
     inkscape:zoom="16"
     inkscape:cx="19.736579"
     inkscape:cy="22.06684"
     inkscape:document-units="px"
     inkscape:current-layer="layer1"
     height="45px"
     width="45px"
     inkscape:grid-points="true"
     showgrid="true"
     inkscape:window-width="1365"
     inkscape:window-height="878"
     inkscape:window-x="-8"
     inkscape:window-y="-8"
     inkscape:window-maximized="1">
    <inkscape:grid
       id="GridFromPre046Settings"
       type="xygrid"
       originx="0px"
       originy="0px"
       spacingx="0.5px"
       spacingy="0.5px"
       color="#0000ff"
       empcolor="#0000ff"
       opacity="0.2"
       empopacity="0.4"
       empspacing="5" />
  </sodipodi:namedview>
  <metadata
     id="metadata3133">
    <rdf:RDF>
      <cc:Work
         rdf:about="">
        <dc:format>image/svg+xml</dc:format>
        <dc:type
           rdf:resource="http://purl.org/dc/dcmitype/StillImage" />
      </cc:Work>
    </rdf:RDF>
  </metadata>
  <g
     inkscape:label="Layer 1"
     inkscape:groupmode="layer"
     id="layer1"
     style="display:inline">
    <path
       style="fill:#2B2B3C;fill-opacity:1;fill-rule:evenodd;stroke:#303042;stroke-width:1.5;stroke-linecap:butt;stroke-linejoin:round;stroke-opacity:1;stroke-miterlimit:4;stroke-dasharray:none"
       d="M 9,39 L 36,39 L 36,36 L 9,36 L 9,39 z "
       id="path3119"
       sodipodi:nodetypes="ccccc" />
    <path
       style="fill:#2B2B3C;fill-opacity:1;fill-rule:evenodd;stroke:#303042;stroke-width:1.5;stroke-linecap:butt;stroke-linejoin:round;stroke-opacity:1;stroke-miterlimit:4;stroke-dasharray:none"
       d="M 12.5,32 L 14,29.5 L 31,29.5 L 32.5,32 L 12.5,32 z "
       id="path3123"
       sodipodi:nodetypes="ccccc" />
    <path
       style="fill:#2B2B3C;fill-opacity:1;fill-rule:evenodd;stroke:#303042;stroke-width:1.5;stroke-linecap:butt;stroke-linejoin:round;stroke-opacity:1;stroke-miterlimit:4;stroke-dasharray:none"
       d="M 12,36 L 12,32 L 33,32 L 33,36 L 12,36 z "
       id="path3121"
       sodipodi:nodetypes="ccccc" />
    <path
       style="fill:#2B2B3C;fill-opacity:1;fill-rule:evenodd;stroke:#303042;stroke-width:1.5;stroke-linecap:butt;stroke-linejoin:miter;stroke-opacity:1;stroke-miterlimit:4;stroke-dasharray:none"
       d="M 14,29.5 L 14,16.5 L 31,16.5 L 31,29.5 L 14,29.5 z "
       id="path3125"
       sodipodi:nodetypes="ccccc" />
    <path
       style="fill:#2B2B3C;fill-opacity:1;fill-rule:evenodd;stroke:#303042;stroke-width:1.5;stroke-linecap:butt;stroke-linejoin:round;stroke-opacity:1;stroke-miterlimit:4;stroke-dasharray:none"
       d="M 14,16.5 L 11,14 L 34,14 L 31,16.5 L 14,16.5 z "
       id="path3127"
       sodipodi:nodetypes="ccccc" />
    <path
       style="fill:#2B2B3C;fill-opacity:1;fill-rule:evenodd;stroke:#303042;stroke-width:1.5;stroke-linecap:butt;stroke-linejoin:round;stroke-opacity:1;stroke-miterlimit:4;stroke-dasharray:none"
       d="M 11,14 L 11,9 L 15,9 L 15,11 L 20,11 L 20,9 L 25,9 L 25,11 L 30,11 L 30,9 L 34,9 L 34,14 L 11,14 z "
       id="path3129"
       sodipodi:nodetypes="ccccccccccccc" />
    <path
       style="fill:none;fill-opacity:0.75;fill-rule:evenodd;stroke:white;stroke-width:1px;stroke-linecap:round;stroke-linejoin:miter;stroke-opacity:1"
       d="M 12,35.5 L 33,35.5 L 33,35.5"
       id="path4967" />
    <path
       style="fill:none;fill-opacity:0.75;fill-rule:evenodd;stroke:white;stroke-width:1px;stroke-linecap:round;stroke-linejoin:miter;stroke-opacity:1"
       d="M 13,31.5 L 32,31.5"
       id="path4969" />
    <path
       style="fill:none;fill-opacity:0.75;fill-rule:evenodd;stroke:white;stroke-width:1px;stroke-linecap:round;stroke-linejoin:miter;stroke-opacity:1"
       d="M 14,29.5 L 31,29.5"
       id="path4971" />
    <path
       style="fill:none;fill-opacity:0.75;fill-rule:evenodd;stroke:white;stroke-width:1px;stroke-linecap:round;stroke-linejoin:miter;stroke-opacity:1"
       d="M 14,16.5 L 31,16.5"
       id="path5050" />
    <path
       style="fill:none;fill-opacity:0.75;fill-rule:evenodd;stroke:white;stroke-width:1px;stroke-linecap:round;stroke-linejoin:miter;stroke-opacity:1"
       d="M 11,14 L 34,14"
       id="path5052" />
    <path
       style="fill:#000000"
       d="m 8.7410218,39.648688 c -0.117869,-0.0601 -0.2725565,-0.188609 -0.34375,-0.28557 -0.1207247,-0.164418 -0.1308552,-0.275967 -0.150414,-1.65625 -0.024652,-1.739734 0.020768,-2.060671 0.3220452,-2.275567 0.1879459,-0.134059 0.2670594,-0.143012 1.433301,-0.162207 l 1.234375,-0.02032 0,-1.561382 c 0,-0.948418 0.02757,-1.670884 0.07023,-1.840311 0.07689,-0.305355 0.267772,-0.48258 0.59639,-0.553716 0.175378,-0.03796 0.262422,-0.151102 0.765625,-0.995151 l 0.56775,-0.952318 0,-6.261302 0,-6.261301 -1.359375,-1.13136 c -0.747656,-0.622249 -1.415625,-1.205793 -1.484375,-1.296766 -0.119321,-0.15789 -0.125917,-0.279043 -0.145176,-2.666832 -0.02282,-2.8289832 4.94e-4,-3.0682469 0.32125,-3.297037 0.196215,-0.1399575 0.228243,-0.1421462 2.350375,-0.1606151 2.28302,-0.019869 2.36698,-0.011002 2.639252,0.2787447 0.134774,0.1434228 0.148605,0.2198082 0.168851,0.9324746 l 0.02205,0.7762548 1.743574,0 1.743573,0 0,-0.5660738 c 0,-0.7564342 0.08769,-1.0862841 0.33586,-1.2633031 0.193691,-0.1381608 0.218462,-0.1395315 2.848066,-0.157589 2.810677,-0.019301 2.862773,-0.014682 3.138025,0.2782365 0.134774,0.1434228 0.148605,0.2198082 0.168851,0.9324746 l 0.02205,0.7762548 1.743574,0 1.743573,0 0,-0.5660738 c 0,-0.7564342 0.08769,-1.0862841 0.33586,-1.2633031 0.191669,-0.136719 0.23636,-0.1397297 2.346839,-0.1580972 2.282987,-0.019869 2.366963,-0.011 2.639252,0.2787215 l 0.146799,0.1561968 0.0181,2.7032018 c 0.01131,1.689804 -0.0052,2.764594 -0.04416,2.866963 -0.03684,0.0969 -0.650242,0.654002 -1.502474,1.364568 l -1.440212,1.200807 1.25e-4,6.224133 1.25e-4,6.224133 0.578011,0.959899 c 0.530236,0.880557 0.598246,0.966775 0.82281,1.043094 0.134639,0.04576 0.317451,0.155802 0.40625,0.244545 l 0.161452,0.161351 0.0192,1.779931 0.01919,1.77993 1.187034,0 c 1.25601,0 1.389653,0.02533 1.649724,0.312629 0.118617,0.131038 0.124852,0.226319 0.124852,1.908011 0,1.69861 -0.0053,1.777213 -0.130854,1.946598 -0.07197,0.09708 -0.226657,0.210081 -0.34375,0.251109 -0.162326,0.05687 -3.428525,0.07541 -13.744169,0.07803 -12.7628758,0.0032 -13.5434194,-0.0028 -13.7455572,-0.105847 z m 24.6140002,-3.79084 c 0.185606,-0.167977 0.175211,-0.499216 -0.02185,-0.696279 l -0.153409,-0.153409 -10.6632,0 c -6.706807,0 -10.704874,0.0223 -10.775519,0.06011 -0.06178,0.03306 -0.147714,0.145561 -0.190974,0.25 -0.09641,0.232748 -0.0018,0.514675 0.206585,0.615881 0.09442,0.04585 3.4063,0.06254 10.801494,0.05444 10.391576,-0.01138 10.668695,-0.01474 10.796875,-0.130745 l 0,0 z m -0.999999,-4 c 0.185605,-0.167977 0.175209,-0.499217 -0.02185,-0.696279 l -0.153409,-0.153409 -9.6632,0 c -6.066631,0 -9.705004,0.02237 -9.775519,0.06011 -0.06178,0.03306 -0.147714,0.145561 -0.190974,0.25 -0.0964,0.232742 -0.0018,0.514656 0.206585,0.61591 0.09432,0.04582 3.106773,0.06255 9.801495,0.05444 9.408169,-0.0114 9.668819,-0.01488 9.796875,-0.130774 l 0,0 z m -0.999998,-2 c 0.185603,-0.167978 0.175206,-0.499217 -0.02186,-0.696279 l -0.153409,-0.153409 -8.6632,0 c -5.426455,0 -8.705164,0.02246 -8.775519,0.06011 -0.06178,0.03306 -0.147714,0.145561 -0.190974,0.25 -0.0964,0.232736 -0.0019,0.514635 0.206585,0.615945 0.0942,0.04579 2.807253,0.06257 8.801497,0.05444 8.424754,-0.01142 8.668972,-0.01505 8.796875,-0.130809 z m 0,-13 c 0.185603,-0.167978 0.175206,-0.499217 -0.02186,-0.696279 l -0.153409,-0.153409 -8.6632,0 c -5.426455,0 -8.705164,0.02246 -8.775519,0.06011 -0.06178,0.03306 -0.147714,0.145561 -0.190974,0.25 -0.0964,0.232736 -0.0019,0.514635 0.206585,0.615945 0.0942,0.04579 2.807253,0.06257 8.801497,0.05444 8.424754,-0.01142 8.668972,-0.01505 8.796875,-0.130809 z m 2.999996,-2.5 c 0.185607,-0.167977 0.175212,-0.499216 -0.02185,-0.696279 l -0.153409,-0.153409 -11.6632,0 c -7.346984,0 -11.704766,0.02224 -11.775519,0.06011 -0.06178,0.03306 -0.147714,0.145562 -0.190974,0.25 -0.09641,0.232752 -0.0018,0.51469 0.206585,0.615858 0.0945,0.04587 3.705831,0.06253 11.801493,0.05444 11.374977,-0.01137 11.668592,-0.01462 11.796875,-0.130721 z"
       id="path2824" />
  </g>
</svg>
