<?xml version="1.0" encoding="UTF-8" standalone="no"?>
<!-- Created with Inkscape (http://www.inkscape.org/) -->

<svg
   xmlns:dc="http://purl.org/dc/elements/1.1/"
   xmlns:cc="http://creativecommons.org/ns#"
   xmlns:rdf="http://www.w3.org/1999/02/22-rdf-syntax-ns#"
   xmlns:svg="http://www.w3.org/2000/svg"
   xmlns="http://www.w3.org/2000/svg"
   xmlns:sodipodi="http://sodipodi.sourceforge.net/DTD/sodipodi-0.dtd"
   xmlns:inkscape="http://www.inkscape.org/namespaces/inkscape"
   width="45"
   height="45"
   id="svg3128"
   sodipodi:version="0.32"
   inkscape:version="0.47 r22583"
   version="1.0"
   sodipodi:docname="wb.svg">
  <defs
     id="defs3130">
    <inkscape:perspective
       sodipodi:type="inkscape:persp3d"
       inkscape:vp_x="0 : 22.5 : 1"
       inkscape:vp_y="0 : 1000 : 0"
       inkscape:vp_z="45 : 22.5 : 1"
       inkscape:persp3d-origin="22.5 : 15 : 1"
       id="perspective15" />
  </defs>
  <sodipodi:namedview
     id="base"
     pagecolor="#ffffff"
     bordercolor="#666666"
     borderopacity="1.0"
     gridtolerance="10000"
     guidetolerance="10"
     objecttolerance="10"
     inkscape:pageopacity="0.0"
     inkscape:pageshadow="2"
     inkscape:zoom="16"
     inkscape:cx="21.47589"
     inkscape:cy="21.674445"
     inkscape:document-units="px"
     inkscape:current-layer="layer1"
     height="45px"
     width="45px"
     inkscape:grid-points="true"
     showgrid="true"
     inkscape:window-width="1365"
     inkscape:window-height="878"
     inkscape:window-x="-8"
     inkscape:window-y="-8"
     inkscape:window-maximized="1">
    <inkscape:grid
       id="GridFromPre046Settings"
       type="xygrid"
       originx="0px"
       originy="0px"
       spacingx="0.5px"
       spacingy="0.5px"
       color="#0000ff"
       empcolor="#0000ff"
       opacity="0.2"
       empopacity="0.4"
       empspacing="5" />
  </sodipodi:namedview>
  <metadata
     id="metadata3133">
    <rdf:RDF>
      <cc:Work
         rdf:about="">
        <dc:format>image/svg+xml</dc:format>
        <dc:type
           rdf:resource="http://purl.org/dc/dcmitype/StillImage" />
      </cc:Work>
    </rdf:RDF>
  </metadata>
  <g
     inkscape:label="Layer 1"
     inkscape:groupmode="layer"
     id="layer1"
     style="display:inline">
    <path
       style="fill:white;fill-opacity:1;fill-rule:evenodd;stroke:#303042;stroke-width:1.5;stroke-linecap:butt;stroke-linejoin:round;stroke-miterlimit:4;stroke-dasharray:none;stroke-opacity:1"
       d="M 9,36 C 12.385255,35.027671 19.114744,36.430821 22.5,34 C 25.885256,36.430821 32.614745,35.027671 36,36 C 36,36 37.645898,36.541507 39,38 C 38.322949,38.972328 37.354102,38.986164 36,38.5 C 32.614745,37.527672 25.885256,38.958493 22.5,37.5 C 19.114744,38.958493 12.385255,37.527672 9,38.5 C 7.6458978,38.986164 6.6770511,38.972328 6,38 C 7.3541023,36.055343 9,36 9,36 z "
       id="path4582"
       sodipodi:nodetypes="ccccccccc" />
    <path
       style="fill:white;fill-opacity:1;fill-rule:evenodd;stroke:#303042;stroke-width:1.5;stroke-linecap:butt;stroke-linejoin:round;stroke-miterlimit:4;stroke-dasharray:none;stroke-opacity:1"
       d="M 15,32 C 17.5,34.5 27.5,34.5 30,32 C 30.5,30.5 30,30 30,30 C 30,27.5 27.5,26 27.5,26 C 33,24.5 33.5,14.5 22.5,10.5 C 11.5,14.5 12,24.5 17.5,26 C 17.5,26 15,27.5 15,30 C 15,30 14.5,30.5 15,32 z "
       id="path4584"
       sodipodi:nodetypes="cccccccc" />
    <path
       sodipodi:type="arc"
       style="opacity:1;fill:white;fill-opacity:1;stroke:#303042;stroke-width:1.5;stroke-linecap:butt;stroke-linejoin:round;stroke-miterlimit:4;stroke-dasharray:none;stroke-opacity:1"
       id="path4586"
       sodipodi:cx="22.5"
       sodipodi:cy="10"
       sodipodi:rx="2.5"
       sodipodi:ry="2.5"
       d="M 25 10 A 2.5 2.5 0 1 1  20,10 A 2.5 2.5 0 1 1  25 10 z"
       transform="translate(0,-2)" />
    <path
       style="fill:none;fill-opacity:0.75;fill-rule:evenodd;stroke:#303042;stroke-width:1.5;stroke-linecap:butt;stroke-linejoin:miter;stroke-miterlimit:4;stroke-dasharray:none;stroke-opacity:1"
       d="M 17.5,26 L 27.5,26"
       id="path4588"
       sodipodi:nodetypes="cc" />
    <path
       style="fill:none;fill-opacity:0.75;fill-rule:evenodd;stroke:#303042;stroke-width:1.5;stroke-linecap:butt;stroke-linejoin:miter;stroke-miterlimit:4;stroke-dasharray:none;stroke-opacity:1"
       d="M 15,30 L 30,30"
       id="path4590"
       sodipodi:nodetypes="cc" />
    <path
       style="fill:none;fill-opacity:0.75;fill-rule:evenodd;stroke:#303042;stroke-width:1.5;stroke-linecap:round;stroke-linejoin:miter;stroke-miterlimit:4;stroke-dasharray:none;stroke-opacity:1"
       d="M 22.5,15.5 L 22.5,20.5"
       id="path4592" />
    <path
       style="fill:none;fill-opacity:0.75;fill-rule:evenodd;stroke:#303042;stroke-width:1.5;stroke-linecap:round;stroke-linejoin:miter;stroke-miterlimit:4;stroke-dasharray:none;stroke-opacity:1"
       d="M 20,18 L 25,18"
       id="path4594" />
    <path
       style="fill:#000000"
       d="M 6.75714,39.438129 C 6.0019519,39.199294 5.28839,38.50439 5.28839,38.007783 c 0,-0.540212 1.1859791,-1.786416 2.1814223,-2.292196 0.4062333,-0.206405 0.7194238,-0.307871 1.3810777,-0.447433 1.176761,-0.248215 1.751191,-0.303962 3.78125,-0.366964 2.876102,-0.08926 4.924658,-0.181452 5.506545,-0.247818 0.577842,-0.0659 1.352423,-0.19617 1.324987,-0.22283 -0.01047,-0.01017 -0.28622,-0.06386 -0.612782,-0.119299 -1.858637,-0.315549 -3.464579,-0.952157 -4.189338,-1.660688 -0.312292,-0.3053 -0.363849,-0.392686 -0.460931,-0.78125 -0.172379,-0.689932 -0.19347,-1.190204 -0.06983,-1.65625 0.05928,-0.223437 0.144677,-0.609626 0.189773,-0.858196 0.204878,-1.129279 0.648662,-1.987032 1.492052,-2.88386 0.170547,-0.181353 0.22975,-0.283316 0.175967,-0.303059 -0.04458,-0.01637 -0.297705,-0.190558 -0.5625,-0.387096 -1.308996,-0.971572 -2.15108,-2.484665 -2.393221,-4.30024 -0.08974,-0.67289 -0.03953,-1.993624 0.100472,-2.642549 0.240284,-1.113762 0.749665,-2.338783 1.384009,-3.328423 1.15465,-1.80137 3.09408,-3.493038 5.288346,-4.612759 0.351421,-0.179328 0.645362,-0.330931 0.653201,-0.336896 0.0078,-0.006 -0.128369,-0.162756 -0.302686,-0.348426 -1.189236,-1.2666954 -1.156061,-3.2627522 0.07468,-4.493496 1.464914,-1.4649147 3.951905,-1.157898 5.022314,0.62 0.335259,0.55685 0.439047,0.9483756 0.439047,1.65625 0,0.922254 -0.267344,1.6084052 -0.872857,2.240232 -0.159568,0.166502 -0.281041,0.310281 -0.269939,0.319508 0.0111,0.0092 0.303744,0.161462 0.650317,0.3383 0.748505,0.381922 1.924233,1.143289 2.619868,1.696549 3.285546,2.613097 4.845646,6.479961 3.967307,9.833363 -0.369825,1.411949 -1.319386,2.793325 -2.410941,3.507322 -0.202877,0.132704 -0.379489,0.249678 -0.392472,0.259942 -0.01298,0.01027 0.110473,0.167415 0.274348,0.349224 0.759597,0.84272 1.184476,1.650331 1.374054,2.61181 0.05761,0.292188 0.150366,0.685937 0.206121,0.875 0.196993,0.667992 0.061,1.912046 -0.261285,2.39029 -0.191331,0.283917 -0.659424,0.62041 -1.316332,0.946257 -0.770696,0.38229 -1.569039,0.635271 -2.736197,0.867053 -0.540593,0.107354 -0.976217,0.201869 -0.968054,0.210032 0.0082,0.0082 0.267653,0.05823 0.576646,0.111255 0.917289,0.15742 1.977968,0.221907 4.718055,0.28685 4.415676,0.104655 5.296227,0.25202 6.758944,1.131139 0.623028,0.37445 1.042279,0.687552 1.5497,1.157335 0.6258,0.57938 0.702168,0.86082 0.369757,1.362669 -0.216435,0.326756 -0.696897,0.716837 -1.084651,0.880614 -0.338883,0.143135 -1.181753,0.192178 -1.669258,0.09713 -0.216283,-0.04217 -0.632305,-0.146177 -0.924492,-0.231128 -1.044798,-0.303764 -1.6343,-0.336574 -5.96875,-0.332193 -3.819166,0.0039 -4.598076,-0.02277 -5.6875,-0.194409 -0.534119,-0.08415 -1.3884,-0.29394 -1.550723,-0.380813 -0.08614,-0.0461 -0.191086,-0.0371 -0.378013,0.03243 -0.559609,0.20816 -1.372045,0.364277 -2.508764,0.48208 -0.367194,0.03805 -2.264196,0.06287 -4.598914,0.06015 -4.692798,-0.0055 -4.737851,-0.0023 -6.5184751,0.462213 -0.6870542,0.179218 -1.4538914,0.209205 -1.8826109,0.07362 l 0,0 z m 1.4431273,-1.47999 c 2.0230597,-0.531637 1.9923707,-0.529209 6.4318727,-0.508853 4.819588,0.0221 5.74528,-0.04169 7.207337,-0.496649 0.553357,-0.172191 0.677488,-0.191336 0.875,-0.13495 0.126589,0.03614 0.47948,0.139905 0.7842,0.230588 1.192499,0.354882 1.598136,0.379266 6.383463,0.383722 4.816203,0.0045 5.078894,0.02107 6.411989,0.404729 0.73741,0.212225 1.202228,0.276424 1.462985,0.202062 l 0.187474,-0.05346 -0.437474,-0.32378 c -0.240611,-0.178079 -0.704662,-0.460671 -1.031224,-0.627982 -1.01977,-0.52247 -1.63764,-0.613393 -4.71875,-0.694392 -3.103576,-0.08159 -4.011603,-0.122576 -4.954022,-0.223614 -1.524574,-0.163451 -2.868867,-0.51363 -3.830162,-0.997731 l -0.451667,-0.227456 -0.562927,0.261547 c -1.846792,0.858056 -3.206613,1.046178 -8.576222,1.186456 -2.51904,0.06581 -2.943034,0.101496 -4.1117234,0.346074 -0.8306102,0.173827 -1.2717616,0.37257 -1.8211204,0.820434 -0.429749,0.350353 -0.4757048,0.436553 -0.2755155,0.516789 0.2307709,0.09249 0.4949874,0.07614 1.0264866,-0.06353 l 0,0 z M 24.94464,32.995841 c 1.783092,-0.20988 3.122981,-0.593954 4.066066,-1.165524 0.28153,-0.170625 0.3405,-0.239951 0.397852,-0.467715 0.03703,-0.14707 0.06733,-0.353383 0.06733,-0.458473 l 0,-0.191074 -6.96875,0 -6.96875,0 0,0.234787 c 0,0.322392 0.09823,0.636792 0.232024,0.742612 0.156349,0.123661 0.93132,0.518997 1.234278,0.629642 1.072635,0.391743 2.663166,0.687853 4.252448,0.791681 0.719012,0.04697 2.880934,-0.021 3.6875,-0.115936 l 0,0 z m 4.185685,-3.860911 c -0.237279,-0.804257 -1.167143,-2.003295 -1.822201,-2.349686 -0.09973,-0.05274 -1.404793,-0.07218 -4.84375,-0.07215 l -4.707234,4e-5 -0.357339,0.280526 c -0.650757,0.510873 -1.372032,1.512165 -1.51994,2.11002 l -0.04252,0.171875 6.667237,0 6.667238,0 -0.04149,-0.140625 z M 28.06964,24.995672 c 0.381029,-0.189473 0.627905,-0.375365 1.037547,-0.78125 1.002125,-0.992933 1.43362,-2.112388 1.435667,-3.724635 0.0019,-1.53219 -0.470486,-2.963845 -1.462838,-4.432982 -0.74123,-1.097363 -2.38263,-2.589948 -3.760376,-3.419449 -0.526823,-0.317184 -1.712291,-0.906217 -2.305211,-1.145408 l -0.500086,-0.20174 -0.403899,0.152027 c -0.222145,0.08362 -0.715953,0.303179 -1.097352,0.487919 -3.867931,1.873533 -6.187238,4.698082 -6.543004,7.96834 -0.256416,2.357017 0.935906,4.567727 2.834446,5.255405 0.312744,0.113281 0.553009,0.118024 5.296356,0.104535 l 4.96875,-0.01413 0.5,-0.248633 0,0 z M 23.230052,9.5803056 c 0.612677,-0.2635669 1.00365,-0.8813947 1.00365,-1.5860006 0,-1.7574394 -2.272114,-2.3937671 -3.226272,-0.903549 -0.490424,0.7659504 -0.253408,1.8322505 0.524826,2.3611162 0.506306,0.3440719 1.093308,0.3884769 1.697796,0.1284334 l 0,0 z"
       id="path2821" />
    <path
       style="fill:#000000"
       d="m 22.19464,21.15397 c -0.06875,-0.02814 -0.18125,-0.113595 -0.25,-0.189902 -0.111343,-0.123583 -0.128414,-0.252423 -0.15625,-1.179252 l -0.03125,-1.040511 -1.015087,-0.01717 -1.015088,-0.01717 -0.219287,-0.219288 c -0.247682,-0.247681 -0.288767,-0.52447 -0.124891,-0.841372 0.156528,-0.302693 0.293628,-0.339976 1.374353,-0.373749 l 1,-0.03125 0.03125,-1 c 0.03377,-1.080725 0.07106,-1.217825 0.373749,-1.374353 0.226213,-0.11698 0.383869,-0.119005 0.648738,-0.0083 0.34798,0.145395 0.415013,0.382873 0.415013,1.47026 l 0,0.943679 0.974732,0 c 1.068137,0 1.224571,0.0415 1.423047,0.37749 0.12764,0.216078 0.130161,0.449687 0.0074,0.687056 -0.167563,0.324031 -0.355584,0.372954 -1.433338,0.372954 l -0.971854,0 0,0.971854 c 0,1.051078 -0.04283,1.231479 -0.338357,1.425115 -0.166389,0.109023 -0.484587,0.129204 -0.692893,0.04395 z"
       id="path2823" />
  </g>
  <g
     inkscape:groupmode="layer"
     id="layer2"
     inkscape:label="Layer 1#1"
     style="display:inline" />
</svg>
