<?xml version="1.0" encoding="UTF-8" standalone="no"?>
<!-- Created with Inkscape (http://www.inkscape.org/) -->

<svg
   xmlns:dc="http://purl.org/dc/elements/1.1/"
   xmlns:cc="http://creativecommons.org/ns#"
   xmlns:rdf="http://www.w3.org/1999/02/22-rdf-syntax-ns#"
   xmlns:svg="http://www.w3.org/2000/svg"
   xmlns="http://www.w3.org/2000/svg"
   xmlns:sodipodi="http://sodipodi.sourceforge.net/DTD/sodipodi-0.dtd"
   xmlns:inkscape="http://www.inkscape.org/namespaces/inkscape"
   width="64px"
   height="64px"
   id="svg2985"
   version="1.1"
   inkscape:version="0.48.1 "
   sodipodi:docname="wq.svg">
  <defs
     id="defs2987" />
  <sodipodi:namedview
     id="base"
     pagecolor="#ffffff"
     bordercolor="#666666"
     borderopacity="1.0"
     inkscape:pageopacity="0.0"
     inkscape:pageshadow="2"
     inkscape:zoom="5.5"
     inkscape:cx="10.272727"
     inkscape:cy="32"
     inkscape:current-layer="layer1"
     showgrid="true"
     inkscape:document-units="px"
     inkscape:grid-bbox="true"
     inkscape:window-width="1365"
     inkscape:window-height="878"
     inkscape:window-x="-8"
     inkscape:window-y="-8"
     inkscape:window-maximized="1" />
  <metadata
     id="metadata2990">
    <rdf:RDF>
      <cc:Work
         rdf:about="">
        <dc:format>image/svg+xml</dc:format>
        <dc:type
           rdf:resource="http://purl.org/dc/dcmitype/StillImage" />
        <dc:title></dc:title>
      </cc:Work>
    </rdf:RDF>
  </metadata>
  <g
     id="layer1"
     inkscape:label="Layer 1"
     inkscape:groupmode="layer">
    <text
       xml:space="preserve"
       style="font-size:64px;font-style:normal;font-variant:normal;font-weight:normal;font-stretch:normal;line-height:125%;letter-spacing:0px;word-spacing:0px;fill:#000000;fill-opacity:1;stroke:none;font-family:Chess-7;-inkscape-font-specification:Chess-7"
       x="-0.73632813"
       y="61.183594"
       id="text3023"
       sodipodi:linespacing="125%"><tspan
         sodipodi:role="line"
         id="tspan3025"
         x="-0.73632813"
         y="61.183594">w</tspan></text>
    <path
       style="fill:#ffffff;fill-opacity:1;fill-rule:evenodd"
       d="m 17.763636,54.210279 c 0,-0.06435 0.298307,-1.081479 0.662903,-2.260293 l 0.662904,-2.143299 0.974098,0.840975 0.974098,0.840975 -1.500638,1.410417 c -1.407982,1.323332 -1.773365,1.593495 -1.773365,1.311225 z"
       id="path3027"
       inkscape:connector-curvature="0" />
    <path
       style="fill:#ffffff;fill-opacity:1;fill-rule:evenodd"
       d="m 23.675983,51.477408 c -0.06449,-0.582574 -0.132518,-1.216849 -0.151167,-1.409498 -0.02788,-0.288002 0.182879,-0.405299 1.185527,-0.6598 l 1.219434,-0.309527 0.104526,0.841618 c 0.05749,0.462889 0.142305,1.139074 0.188479,1.502633 l 0.08395,0.661015 -1.027326,0.128356 c -0.565029,0.0706 -1.130565,0.167973 -1.256746,0.216393 -0.161228,0.06187 -0.264273,-0.226801 -0.34668,-0.97119 z"
       id="path3029"
       inkscape:connector-curvature="0" />
    <path
       style="fill:#ffffff;fill-opacity:1;fill-rule:evenodd"
       d="m 30.248189,51.816903 -1.606357,-1.618772 1.568413,-1.435429 c 0.862628,-0.789486 1.656755,-1.435429 1.764729,-1.435429 0.107973,0 0.807137,0.671196 1.553698,1.491548 l 1.357383,1.491548 -1.515755,1.562653 -1.515755,1.562654 -1.606356,-1.618773 z"
       id="path3031"
       inkscape:connector-curvature="0" />
    <path
       style="fill:#ffffff;fill-opacity:1;fill-rule:evenodd"
       d="m 37.9,52.194824 c -0.774321,-0.081 -0.77176,-0.07107 -0.477598,-1.852288 l 0.204221,-1.236602 1.20487,0.307813 c 0.814444,0.20807 1.194174,0.391222 1.171859,0.565215 -0.01816,0.141571 -0.12623,0.727856 -0.240163,1.302856 -0.227966,1.150499 -0.116225,1.095744 -1.863189,0.913006 z"
       id="path3033"
       inkscape:connector-curvature="0" />
    <path
       style="fill:#ffffff;fill-opacity:1;fill-rule:evenodd"
       d="m 43.527684,52.904897 -1.41777,-1.213988 0.958133,-0.853576 c 0.526973,-0.469468 1.001334,-0.810701 1.054134,-0.758297 0.151762,0.150623 1.052048,4.067931 0.931502,4.053134 -0.05953,-0.0073 -0.746225,-0.559579 -1.525999,-1.227273 l 0,0 z"
       id="path3035"
       inkscape:connector-curvature="0" />
    <path
       style="fill:#ffffff;fill-opacity:1;fill-rule:evenodd"
       d="m 42.036364,43.685836 c -4.423622,-2.1527 -8.08592,-2.90676 -11.986031,-2.467901 -2.563142,0.288418 -4.194582,0.737339 -7.627122,2.098745 l -2.885881,1.144592 -0.532246,-1.173846 c -0.401692,-0.885911 -0.482781,-1.233449 -0.330582,-1.416837 0.31554,-0.380202 3.032457,-1.660494 4.596737,-2.166118 3.731074,-1.205999 8.519806,-1.648681 12.102881,-1.118821 2.694905,0.39852 4.490125,0.973855 7.4351,2.382816 2.286469,1.093914 2.400838,1.174104 2.244747,1.573905 -0.351878,0.901281 -0.916302,2.147763 -0.965687,2.132639 -0.02855,-0.0087 -0.951916,-0.453873 -2.051916,-0.989174 z"
       id="path3037"
       inkscape:connector-curvature="0" />
    <path
       style="fill:#ffffff;fill-opacity:1;fill-rule:evenodd"
       d="m 57.510749,17.010873 -0.461061,-0.589127 0.575007,-0.593257 0.575008,-0.593257 0.588471,0.570369 0.588472,0.570369 -0.488323,0.61201 c -0.268578,0.336605 -0.584666,0.612012 -0.702418,0.612015 -0.117752,3e-6 -0.421572,-0.265102 -0.675156,-0.589122 l 0,0 z"
       id="path3039"
       inkscape:connector-curvature="0" />
    <path
       style="fill:#ffffff;fill-opacity:1;fill-rule:evenodd"
       d="M 44.127273,12.236364 43.510485,11.6 l 0.626576,-0.646948 0.626575,-0.646948 0.597071,0.651001 0.59707,0.651001 -0.482286,0.632311 c -0.265258,0.347771 -0.538344,0.63231 -0.606859,0.63231 -0.06851,0 -0.402126,-0.286363 -0.741359,-0.636363 z"
       id="path3041"
       inkscape:connector-curvature="0" />
    <path
       style="fill:#ffffff;fill-opacity:1;fill-rule:evenodd"
       d="M 31.163728,10.182788 30.49002,9.4928489 31.225705,8.7744724 31.961389,8.056096 l 0.609209,0.7256376 0.60921,0.7256376 -0.571722,0.6672878 c -0.314447,0.367008 -0.616481,0.674214 -0.671186,0.682678 -0.05471,0.0085 -0.402633,-0.295082 -0.773172,-0.674549 z"
       id="path3043"
       inkscape:connector-curvature="0" />
    <path
       style="fill:#ffffff;fill-opacity:1;fill-rule:evenodd"
       d="m 18.088992,12.070132 -0.492826,-0.594523 0.589771,-0.571629 0.589771,-0.571629 0.571967,0.571968 0.571967,0.571967 -0.463219,0.607311 c -0.25477,0.334022 -0.555781,0.601405 -0.668912,0.594185 -0.113131,-0.0072 -0.427465,-0.280662 -0.698519,-0.60765 z"
       id="path3045"
       inkscape:connector-curvature="0" />
    <path
       style="fill:#ffffff;fill-opacity:1;fill-rule:evenodd"
       d="M 5.0469813,18.977792 4.4212354,18.328985 4.9446343,17.782674 C 5.5911205,17.107888 5.750695,17.10409 6.3683524,17.748785 l 0.4909309,0.512422 -0.593278,0.682696 -0.593278,0.682696 -0.625746,-0.648807 z"
       id="path3047"
       inkscape:connector-curvature="0" />
  </g>
</svg>
