<?xml version="1.0" encoding="UTF-8" standalone="no"?>
<!-- Created with Inkscape (http://www.inkscape.org/) -->

<svg
   xmlns:dc="http://purl.org/dc/elements/1.1/"
   xmlns:cc="http://creativecommons.org/ns#"
   xmlns:rdf="http://www.w3.org/1999/02/22-rdf-syntax-ns#"
   xmlns:svg="http://www.w3.org/2000/svg"
   xmlns="http://www.w3.org/2000/svg"
   xmlns:sodipodi="http://sodipodi.sourceforge.net/DTD/sodipodi-0.dtd"
   xmlns:inkscape="http://www.inkscape.org/namespaces/inkscape"
   version="1.0"
   width="504"
   height="504"
   id="svg2482"
   inkscape:version="0.47 r22583"
   sodipodi:docname="bp.svg">
  <metadata
     id="metadata8">
    <rdf:RDF>
      <cc:Work
         rdf:about="">
        <dc:format>image/svg+xml</dc:format>
        <dc:type
           rdf:resource="http://purl.org/dc/dcmitype/StillImage" />
      </cc:Work>
    </rdf:RDF>
  </metadata>
  <sodipodi:namedview
     pagecolor="#ffffff"
     bordercolor="#666666"
     borderopacity="1"
     objecttolerance="10"
     gridtolerance="10"
     guidetolerance="10"
     inkscape:pageopacity="0"
     inkscape:pageshadow="2"
     inkscape:window-width="1365"
     inkscape:window-height="878"
     id="namedview6"
     showgrid="false"
     inkscape:zoom="0.46825397"
     inkscape:cx="252"
     inkscape:cy="252"
     inkscape:window-x="-8"
     inkscape:window-y="-8"
     inkscape:window-maximized="1"
     inkscape:current-layer="svg2482" />
  <defs
     id="defs2484">
    <inkscape:perspective
       sodipodi:type="inkscape:persp3d"
       inkscape:vp_x="0 : 252 : 1"
       inkscape:vp_y="0 : 1000 : 0"
       inkscape:vp_z="504 : 252 : 1"
       inkscape:persp3d-origin="252 : 168 : 1"
       id="perspective10" />
  </defs>
  <g
     transform="translate(-458.89205,-202.88635)"
     id="layer1">
    <path
       d="M 559.7643,645.58857 C 557.54417,632.24111 558.01404,605.65397 560.70939,592.11081 C 568.94055,550.75233 593.07722,514.73528 627.39205,492.60608 C 638.36181,485.53182 648.76757,480.57915 663.89205,475.23374 C 664.82397,474.90437 662.36231,473.13097 657.39205,470.5511 C 645.43427,464.34427 634.66548,453.25161 628.52592,440.81684 C 622.51621,428.64507 620.52765,419.41391 621.20638,406.83857 C 622.18076,388.78573 628.87146,373.90025 641.89205,360.81711 C 653.53396,349.11928 671.91876,340.83857 686.24836,340.83857 L 691.28474,340.83857 L 685.83839,338.14146 C 678.7442,334.62831 669.97765,325.80248 666.5032,318.6755 C 658.52054,302.30106 661.5911,283.00909 674.18431,270.41587 C 693.49329,251.10689 728.29081,251.10689 747.59979,270.41587 C 760.193,283.00909 763.26356,302.30106 755.2809,318.6755 C 751.80645,325.80248 743.0399,334.62831 735.94571,338.14146 L 730.49936,340.83857 L 735.53574,340.83857 C 749.86534,340.83857 768.25014,349.11928 779.89205,360.81711 C 792.91264,373.90025 799.60334,388.78573 800.57772,406.83857 C 801.25645,419.41391 799.26789,428.64507 793.25818,440.81684 C 787.11862,453.25161 776.34983,464.34427 764.39205,470.5511 C 759.42179,473.13097 756.96013,474.90437 757.89205,475.23374 C 773.01653,480.57915 783.42229,485.53182 794.39205,492.60608 C 828.70688,514.73528 852.84355,550.75233 861.07471,592.11081 C 863.77006,605.65397 864.23993,632.24111 862.0198,645.58857 L 860.64755,653.83857 L 710.89205,653.83857 L 561.13655,653.83857 L 559.7643,645.58857 z"
       id="path2505"
       style="fill:#2B2B3C" />
  </g>
  <path
     style="fill:#000000"
     d="m 101.28114,441.10763 c -2.642065,-17.61853 0.36386,-51.64678 6.15537,-69.68109 13.72831,-42.74898 47.36826,-79.04884 87.43637,-94.34998 5.57924,-2.13057 10.14407,-4.4857 10.14407,-5.23359 0,-0.7479 -3.39751,-3.18951 -7.55002,-5.42577 -10.35744,-5.57786 -23.77549,-20.61882 -29.20847,-32.74123 -6.6917,-14.93097 -6.34074,-38.37558 0.80688,-53.90077 9.75209,-21.18231 31.23765,-37.67012 52.16195,-40.02859 5.17923,-0.58378 9.41678,-1.89744 9.41678,-2.91926 0,-1.02182 -0.92758,-1.85786 -2.06129,-1.85786 -3.96952,0 -17.82225,-13.87919 -20.68055,-20.72007 -7.93505,-18.991263 -0.39587,-41.935636 17.40119,-52.957895 9.1391,-5.660125 12.25036,-6.406779 26.69658,-6.406779 14.44622,0 17.55748,0.746654 26.69658,6.406779 17.79706,11.022259 25.33624,33.966632 17.40119,52.957895 -2.8583,6.84088 -16.71103,20.72007 -20.68055,20.72007 -1.13371,0 -2.06129,0.83604 -2.06129,1.85786 0,1.02182 4.23755,2.33548 9.41678,2.91926 20.9243,2.35847 42.40986,18.84628 52.16194,40.02859 7.14764,15.52519 7.49858,38.9698 0.80689,53.90077 -5.43297,12.12241 -18.85103,27.16337 -29.20847,32.74123 -4.15251,2.23626 -7.55002,4.67787 -7.55002,5.42577 0,0.74789 4.56483,3.10302 10.14407,5.23359 40.06811,15.30114 73.70806,51.601 87.43637,94.34998 5.7915,18.03431 8.79743,52.06256 6.15538,69.68109 l -1.48906,9.92966 -149.22981,0 -149.22982,0 -1.48904,-9.92966 z"
     id="path2816" />
</svg>
