<?xml version="1.0" encoding="UTF-8" standalone="no"?>
<!-- Created with Inkscape (http://www.inkscape.org/) -->

<svg
   xmlns:dc="http://purl.org/dc/elements/1.1/"
   xmlns:cc="http://creativecommons.org/ns#"
   xmlns:rdf="http://www.w3.org/1999/02/22-rdf-syntax-ns#"
   xmlns:svg="http://www.w3.org/2000/svg"
   xmlns="http://www.w3.org/2000/svg"
   xmlns:sodipodi="http://sodipodi.sourceforge.net/DTD/sodipodi-0.dtd"
   xmlns:inkscape="http://www.inkscape.org/namespaces/inkscape"
   version="1.0"
   width="504"
   height="504"
   id="svg2535"
   inkscape:version="0.47 r22583"
   sodipodi:docname="wp.svg">
  <metadata
     id="metadata9">
    <rdf:RDF>
      <cc:Work
         rdf:about="">
        <dc:format>image/svg+xml</dc:format>
        <dc:type
           rdf:resource="http://purl.org/dc/dcmitype/StillImage" />
      </cc:Work>
    </rdf:RDF>
  </metadata>
  <sodipodi:namedview
     pagecolor="#ffffff"
     bordercolor="#666666"
     borderopacity="1"
     objecttolerance="10"
     gridtolerance="10"
     guidetolerance="10"
     inkscape:pageopacity="0"
     inkscape:pageshadow="2"
     inkscape:window-width="1365"
     inkscape:window-height="878"
     id="namedview7"
     showgrid="false"
     inkscape:zoom="0.46825397"
     inkscape:cx="252"
     inkscape:cy="252"
     inkscape:window-x="-8"
     inkscape:window-y="-8"
     inkscape:window-maximized="1"
     inkscape:current-layer="svg2535" />
  <defs
     id="defs2537">
    <inkscape:perspective
       sodipodi:type="inkscape:persp3d"
       inkscape:vp_x="0 : 252 : 1"
       inkscape:vp_y="0 : 1000 : 0"
       inkscape:vp_z="504 : 252 : 1"
       inkscape:persp3d-origin="252 : 168 : 1"
       id="perspective11" />
  </defs>
  <g
     transform="translate(-387.20628,-272.99048)"
     id="layer1">
    <path
       d="M 99.308296,458.99225 C 93.20617,456.53429 90.66176,444.65583 90.63509,418.50184 C 90.613006,396.84899 92.13361,387.43704 98.97361,366.88956 C 111.9515,327.90372 140.37363,294.11674 175.5579,275.8495 L 185.61578,270.62756 L 180.55791,266.50684 C 169.7689,257.71688 160.16519,242.55754 155.81169,227.44525 C 153.94942,220.98075 153.53481,217.17458 153.58478,207.00184 C 153.63813,196.14298 154.01095,193.38586 156.42445,186.00184 C 163.96438,162.93367 177.16948,147.42585 198,137.17628 L 207.5,132.50185 L 203.27267,126.19514 C 194.80836,113.56736 192.17441,98.40378 195.98936,84.26537 C 200.23481,68.531527 208.72247,58.19266 223.28703,51.01392 C 242.10176,41.7403 261.89824,41.7403 280.71297,51.01392 C 295.27752,58.19266 303.76519,68.53153 308.01064,84.26537 C 311.82558,98.403777 309.19164,113.56736 300.72733,126.19514 L 296.5,132.50185 L 306,137.17628 C 326.83052,147.42585 340.03562,162.93368 347.57555,186.00184 C 349.98904,193.38585 350.36187,196.14299 350.41522,207.00184 C 350.46519,217.17457 350.05058,220.98075 348.18831,227.44525 C 343.8348,242.55754 334.2311,257.71688 323.4421,266.50683 L 318.38422,270.62756 L 328.44211,275.84949 C 363.62637,294.11674 392.0485,327.90372 405.02639,366.88956 C 411.86638,387.43704 413.38699,396.84898 413.36491,418.50184 C 413.33774,445.1521 410.8001,456.60655 404.3826,459.04647 C 401.15245,460.27457 102.35996,460.22146 99.3083,458.99224 L 99.308296,458.99225 z"
       transform="translate(387.20628,272.99048)"
       id="path2558"
       style="fill:#2B2B3C" />
    <path
       d="M 394.73096,439.25183 C 395.15393,437.73934 395.47068,428.17684 395.43485,418.00184 C 395.36225,397.38373 393.67741,386.75053 387.87862,370.31343 C 373.67894,330.06339 340.61981,296.66908 301,282.55401 C 291.04034,279.00574 289.22073,277.69535 288.43461,273.50499 C 287.45622,268.28966 289.6906,265.80495 299.70157,260.97576 C 330.94441,245.90449 342.32469,207.10472 324.51351,176.38227 C 319.68336,168.05078 308.39676,157.79084 298.86695,153.06863 C 290.90864,149.12513 286.76722,148.07103 272.89635,146.45841 C 267.75805,145.86104 264.36743,143.31399 263.35834,139.29346 C 262.31009,135.11687 264.86967,131.83525 271.96028,128.265 C 280.00696,124.21335 285.32204,119.0798 288.79855,112.00184 C 291.15828,107.19757 291.5,105.30013 291.5,97.00184 C 291.5,88.637751 291.16762,86.82501 288.72022,81.8413 C 285.27265,74.820909 279.73018,69.71802 271.12338,65.64005 C 264.79804,62.643057 263.93752,62.50184 252,62.50184 C 240.06248,62.501841 239.20196,62.64306 232.87662,65.64005 C 224.26982,69.718017 218.72736,74.82091 215.27978,81.8413 C 212.83237,86.825009 212.5,88.63775 212.5,97.00184 C 212.5,105.30013 212.84172,107.19757 215.20145,112.00184 C 218.67796,119.0798 223.99305,124.21335 232.03972,128.265 C 239.13033,131.83525 241.68991,135.11687 240.64166,139.29346 C 239.63257,143.31399 236.24194,145.86103 231.10365,146.45841 C 217.23278,148.07104 213.09137,149.12513 205.13305,153.06863 C 195.60323,157.79084 184.31663,168.05077 179.48649,176.38227 C 172.21273,188.92875 169.50743,204.22421 171.9748,218.85244 C 174.92123,236.3208 187.69396,252.96592 204.29843,260.97576 C 214.3094,265.80494 216.54379,268.28967 215.56539,273.50499 C 214.77928,277.69534 212.95966,279.00575 203,282.55401 C 163.38019,296.66907 130.32105,330.06338 116.12138,370.31343 C 110.32259,386.75054 108.63776,397.38372 108.56515,418.00184 C 108.52932,428.17685 108.84607,437.73934 109.26905,439.25184 L 110.0381,442.00183 L 252,442.00183 L 393.96191,442.00183 L 394.73096,439.25183 z"
       transform="translate(387.20628,272.99048)"
       id="path2384"
       style="fill:#ffffff" />
  </g>
  <path
     style="fill:#000000"
     d="m 108.5515,458.05248 c -14.974899,-1.24396 -15.653195,-2.92705 -15.653195,-38.84087 0,-28.57708 0.512061,-32.73655 6.146213,-49.92568 C 111.8151,330.32442 139.84431,295.8893 173.3032,278.0559 l 12.7271,-6.78347 -9.87639,-10.55865 c -5.43201,-5.80726 -12.45196,-16.05381 -15.59989,-22.77012 -4.833,-10.3115 -5.71127,-15.03578 -5.64484,-30.364 0.0648,-14.94663 1.06039,-20.27411 5.63734,-30.16533 7.13658,-15.42281 18.35201,-27.74815 34.08697,-37.46033 6.88548,-4.24995 12.51905,-7.95006 12.51905,-8.22246 0,-0.2724 -2.58273,-5.11628 -5.7394,-10.76418 -10.76384,-19.25861 -6.03337,-47.983611 10.14366,-61.595684 8.75976,-7.370853 28.0567,-14.0971 40.4432,-14.0971 12.3865,0 31.68344,6.726247 40.4432,14.0971 16.17704,13.612073 20.9075,42.337074 10.14366,61.595684 -3.15667,5.6479 -5.7394,10.49178 -5.7394,10.76418 0,0.2724 5.63356,3.97251 12.51904,8.22246 15.73496,9.71218 26.95039,22.03752 34.08697,37.46033 4.57696,9.89122 5.57257,15.2187 5.63735,30.16533 0.0664,15.32822 -0.81185,20.0525 -5.64485,30.364 -3.14792,6.71631 -10.16788,16.96286 -15.59989,22.77012 l -9.87639,10.55865 12.72711,6.78347 c 33.45888,17.8334 61.48811,52.26852 74.25868,91.23003 5.64326,17.21689 6.14621,21.32302 6.14621,50.17717 0,27.31799 -0.49834,31.92402 -3.81237,35.23729 -3.57911,3.57827 -12.53,3.82277 -146.28813,3.99605 -78.36167,0.10144 -146.96403,-0.18836 -152.44969,-0.64396 l 0,0 z m 286.06154,-44.92197 c -0.81552,-25.03823 -1.7674,-31.45199 -6.46103,-43.53415 -14.11255,-36.32807 -41.43491,-65.85615 -76.30761,-82.46788 -11.71005,-5.57813 -21.81345,-11.46512 -22.452,-13.08222 -1.55738,-3.94397 1.72724,-7.54609 12.79596,-14.03279 27.33632,-16.02014 38.81447,-52.45724 24.97527,-79.28332 -8.72287,-16.90853 -28.27117,-30.88241 -47.29496,-33.80828 -17.86973,-2.74837 -19.86751,-9.87368 -5.59001,-19.93739 11.92538,-8.40578 16.41535,-15.23485 17.73928,-26.98076 C 293.47931,87.038513 287.86732,76.155543 275.7612,68.47807 267.64994,63.334062 263.86469,62.359322 252,62.359322 c -11.86469,0 -15.64994,0.97474 -23.7612,6.118748 -12.10612,7.677473 -17.71811,18.560443 -16.25674,31.52565 1.32393,11.74591 5.8139,18.57498 17.73928,26.98076 14.2775,10.06371 12.27972,17.18902 -5.59001,19.93739 -19.06523,2.93224 -38.57355,16.90157 -47.34178,33.90006 -6.09114,11.80855 -7.39467,31.96026 -2.93576,45.38478 4.30579,12.96354 15.5102,26.51195 27.95785,33.80676 11.06872,6.4867 14.35334,10.08882 12.79596,14.03279 -0.63855,1.6171 -10.74195,7.50409 -22.45201,13.08222 -34.87269,16.61173 -62.19504,46.13981 -76.3076,82.46788 -4.69362,12.08216 -5.6455,18.49592 -6.46102,43.53415 l -0.95642,29.36441 143.56945,0 143.56944,0 -0.9564,-29.36441 z"
     id="path2817" />
</svg>
