<?xml version="1.0" encoding="UTF-8" standalone="no"?>
<!-- Created with Inkscape (http://www.inkscape.org/) -->

<svg
   xmlns:dc="http://purl.org/dc/elements/1.1/"
   xmlns:cc="http://creativecommons.org/ns#"
   xmlns:rdf="http://www.w3.org/1999/02/22-rdf-syntax-ns#"
   xmlns:svg="http://www.w3.org/2000/svg"
   xmlns="http://www.w3.org/2000/svg"
   xmlns:sodipodi="http://sodipodi.sourceforge.net/DTD/sodipodi-0.dtd"
   xmlns:inkscape="http://www.inkscape.org/namespaces/inkscape"
   width="64px"
   height="64px"
   id="svg2985"
   version="1.1"
   inkscape:version="0.48.1 "
   sodipodi:docname="wr.svg">
  <defs
     id="defs2987" />
  <sodipodi:namedview
     id="base"
     pagecolor="#ffffff"
     bordercolor="#666666"
     borderopacity="1.0"
     inkscape:pageopacity="0.0"
     inkscape:pageshadow="2"
     inkscape:zoom="5.5"
     inkscape:cx="32"
     inkscape:cy="40.377571"
     inkscape:current-layer="layer1"
     showgrid="true"
     inkscape:document-units="px"
     inkscape:grid-bbox="true"
     inkscape:window-width="1365"
     inkscape:window-height="878"
     inkscape:window-x="-8"
     inkscape:window-y="-8"
     inkscape:window-maximized="1" />
  <metadata
     id="metadata2990">
    <rdf:RDF>
      <cc:Work
         rdf:about="">
        <dc:format>image/svg+xml</dc:format>
        <dc:type
           rdf:resource="http://purl.org/dc/dcmitype/StillImage" />
        <dc:title></dc:title>
      </cc:Work>
    </rdf:RDF>
  </metadata>
  <g
     id="layer1"
     inkscape:label="Layer 1"
     inkscape:groupmode="layer">
    <path
       style="fill:#000000"
       d="m 12.917116,54.560349 0,-2.148205 19.173797,0 19.173797,0 0,2.148205 0,2.148204 -19.173797,0 -19.173797,0 0,-2.148204 z m 0,-8.801048 c 0,-4.470086 0.182302,-5.429077 1.607957,-8.458555 2.065373,-4.388862 3.793112,-11.121446 3.793112,-14.78085 l 0,-2.867873 -2.141424,0 c -2.799516,0 -3.259645,-0.909717 -3.259645,-6.444614 0,-6.2239447 0.185587,-6.4446136 5.420072,-6.4446136 4.228572,0 4.301853,0.022871 4.301853,1.3426279 0,1.2829556 0.144029,1.3426279 3.240642,1.3426279 3.096613,0 3.240641,-0.059672 3.240641,-1.3426279 0,-1.2693935 0.162032,-1.3426279 2.970589,-1.3426279 2.808556,0 2.970588,0.073234 2.970588,1.3426279 0,1.2829556 0.144029,1.3426279 3.240642,1.3426279 3.096613,0 3.240641,-0.059672 3.240641,-1.3426279 0,-1.3197565 0.07328,-1.3426279 4.301853,-1.3426279 5.234485,0 5.420073,0.2206689 5.420073,6.4446136 0,5.574923 -0.45071,6.444614 -3.339868,6.444614 l -2.221648,0 0.324915,4.430672 c 0.326484,4.45206 1.922262,10.011651 4.081808,14.220759 0.940768,1.833625 1.154793,3.200321 1.154793,7.374155 l 0,5.123381 -19.173797,0 -19.173797,0 0,-5.041689 z m 25.385027,-19.780115 0,-7.938316 -6.21123,0 -6.21123,0 0,7.905931 0,7.905932 3.089323,3.104236 3.089325,3.104237 3.121905,-3.071852 3.121907,-3.071852 0,-7.938316 z m -8.53576,9.087491 -1.726273,-1.770984 0,-6.553309 0,-6.55331 4.050803,0 4.050802,0 0,6.607788 0,6.607788 -1.781061,1.716505 c -0.979583,0.944078 -2.025622,1.716505 -2.32453,1.716505 -0.298908,0 -1.320292,-0.796942 -2.269741,-1.770983 z m 3.575645,-4.812486 c 0.09766,-0.841331 0.50273,-1.472298 0.945187,-1.472298 0.425858,0 0.774286,-0.483346 0.774286,-1.074102 0,-0.590757 -0.348428,-1.074103 -0.774286,-1.074103 -0.443172,0 -0.847368,-0.631572 -0.945187,-1.47689 -0.122916,-1.062212 -0.474202,-1.476891 -1.251115,-1.476891 -0.776913,0 -1.1282,0.414679 -1.251116,1.476891 -0.09782,0.845318 -0.502015,1.47689 -0.945187,1.47689 -0.425857,0 -0.774286,0.483346 -0.774286,1.074103 0,0.596723 0.360072,1.074102 0.810161,1.074102 0.488668,0 0.81016,0.49727 0.81016,1.253119 0,0.689216 0.170434,1.42259 0.378743,1.629719 0.800338,0.795811 2.059272,-0.0031 2.22264,-1.41054 z"
       id="path3059"
       inkscape:connector-curvature="0" />
    <path
       style="fill:#ffffff"
       d="m 31.203313,31.54061 c -0.142789,-0.225 -0.315423,-0.83452 -0.383632,-1.354489 -0.122929,-0.937119 -0.31373,-1.223108 -1.066345,-1.598327 -0.299999,-0.149566 -0.3897,-0.35989 -0.3897,-0.91374 0,-0.605764 0.07911,-0.757368 0.500614,-0.95939 0.551631,-0.26439 0.930346,-0.891185 1.110863,-1.838543 0.161873,-0.849513 0.422362,-1.108238 1.115796,-1.108238 0.693434,0 0.953924,0.258725 1.115796,1.108238 0.180608,0.947831 0.559393,1.574347 1.110864,1.837384 0.393625,0.187749 0.512668,0.384146 0.557023,0.918974 0.05074,0.611861 -0.0086,0.718574 -0.59108,1.062223 -0.532218,0.314017 -0.698583,0.564935 -0.934475,1.409423 -0.301951,1.08097 -0.938635,1.845576 -1.536803,1.845576 -0.192118,0 -0.466133,-0.184091 -0.608921,-0.409091 z"
       id="path3061"
       inkscape:connector-curvature="0" />
    <path
       style="fill:#ffffff"
       d="M 29.035374,36.894212 26,33.854894 l 0,-7.861687 0,-7.861687 6.090909,0 6.090909,0 -0.01712,7.954545 -0.01712,7.954545 -3.038412,2.94646 -3.038412,2.946462 -3.035375,-3.03932 z m 3.805929,-0.444511 c 0.301573,-0.225 1.17656,-0.980059 1.944415,-1.677909 l 1.3961,-1.268819 0,-6.685727 0,-6.685726 -4.090909,0 -4.090909,0 0,6.6089 0,6.608901 1.80834,1.754736 c 0.994587,0.965104 1.960509,1.754735 2.146494,1.754735 0.185985,0 0.584897,-0.184091 0.886469,-0.409091 z"
       id="path3063"
       inkscape:connector-curvature="0" />
  </g>
</svg>
