<?xml version="1.0" encoding="UTF-8" standalone="no"?>
<!-- Created with Inkscape (http://www.inkscape.org/) -->

<svg
   xmlns:dc="http://purl.org/dc/elements/1.1/"
   xmlns:cc="http://creativecommons.org/ns#"
   xmlns:rdf="http://www.w3.org/1999/02/22-rdf-syntax-ns#"
   xmlns:svg="http://www.w3.org/2000/svg"
   xmlns="http://www.w3.org/2000/svg"
   xmlns:sodipodi="http://sodipodi.sourceforge.net/DTD/sodipodi-0.dtd"
   xmlns:inkscape="http://www.inkscape.org/namespaces/inkscape"
   width="64px"
   height="64px"
   id="svg2985"
   version="1.1"
   inkscape:version="0.48.1 "
   sodipodi:docname="wp.svg">
  <defs
     id="defs2987" />
  <sodipodi:namedview
     id="base"
     pagecolor="#ffffff"
     bordercolor="#666666"
     borderopacity="1.0"
     inkscape:pageopacity="0.0"
     inkscape:pageshadow="2"
     inkscape:zoom="5.5"
     inkscape:cx="32"
     inkscape:cy="17.590577"
     inkscape:current-layer="layer1"
     showgrid="true"
     inkscape:document-units="px"
     inkscape:grid-bbox="true"
     inkscape:window-width="1365"
     inkscape:window-height="878"
     inkscape:window-x="-8"
     inkscape:window-y="-8"
     inkscape:window-maximized="1" />
  <metadata
     id="metadata2990">
    <rdf:RDF>
      <cc:Work
         rdf:about="">
        <dc:format>image/svg+xml</dc:format>
        <dc:type
           rdf:resource="http://purl.org/dc/dcmitype/StillImage" />
        <dc:title></dc:title>
      </cc:Work>
    </rdf:RDF>
  </metadata>
  <g
     id="layer1"
     inkscape:label="Layer 1"
     inkscape:groupmode="layer">
    <path
       style="fill:#000000"
       d="m 16.919411,54.378534 0,-2.148205 14.726891,0 14.726892,0 0,2.148205 0,2.148205 -14.726892,0 -14.726891,0 0,-2.148205 z M 12.282256,41.345931 C 9.5845526,36.255669 7.215323,31.223117 7.0173014,30.162481 6.4219826,26.97385 7.6089862,23.795757 10.412845,21.071222 c 2.683141,-2.607231 5.469456,-3.74922 9.147639,-3.74922 1.236977,0 2.775423,-0.290774 3.41877,-0.646164 0.643347,-0.35539 2.495142,-0.916833 4.1151,-1.247649 2.767696,-0.565201 2.955502,-0.70441 3.113189,-2.307618 0.155615,-1.582134 0.04858,-1.706132 -1.47269,-1.706132 -1.37849,0 -1.640499,-0.20762 -1.640499,-1.299957 0,-1.0077244 0.361159,-1.3795061 1.60657,-1.6538249 1.245411,-0.2743187 1.60657,-0.6461005 1.60657,-1.6538249 0,-1.0285863 0.279481,-1.2999566 1.338808,-1.2999566 1.052256,0 1.338808,0.2730008 1.338808,1.2754966 0,0.9875775 0.362653,1.3482342 1.60657,1.5977273 1.276066,0.2559414 1.60657,0.6011987 1.60657,1.6782845 0,1.154926 -0.243317,1.356055 -1.640499,1.356055 -1.521273,0 -1.628305,0.123998 -1.47269,1.706132 0.157687,1.603208 0.345493,1.742417 3.113189,2.307618 1.619958,0.330816 3.471753,0.892259 4.1151,1.247649 0.643347,0.35539 2.330245,0.648525 3.748664,0.65141 7.090096,0.01442 13.373988,6.618316 12.21329,12.835233 -0.198021,1.060636 -2.567253,6.093188 -5.264956,11.18345 l -4.904916,9.255021 -14.45913,0 -14.45913,0 -4.904916,-9.255021 z m 36.001118,-1.870567 c 4.815041,-9.199905 5.376388,-11.637429 3.358897,-14.585265 -1.714452,-2.505051 -3.673179,-3.856713 -6.2822,-4.335168 -4.485483,-0.822568 -8.17784,0.6759 -10.682235,4.335168 -0.992055,1.449532 -1.205001,2.344003 -1.023602,4.299612 0.381709,4.115095 2.977181,6.578251 8.160101,7.744103 2.073191,0.466346 2.722124,0.85985 2.849627,1.727972 0.474647,3.231731 -7.877546,1.246331 -11.636265,-2.766057 l -1.277952,-1.364199 -2.012554,1.82341 c -2.543242,2.304221 -3.508331,2.815059 -6.653858,3.521997 -3.170632,0.712581 -4.67745,0.301551 -4.454691,-1.215151 0.127503,-0.868122 0.776436,-1.261626 2.849627,-1.727972 5.18292,-1.165852 7.778392,-3.629008 8.160101,-7.744103 0.512723,-5.527507 -5.293773,-9.810654 -11.705837,-8.63478 -2.596799,0.476213 -4.574068,1.833722 -6.234475,4.280326 -1.9739319,2.908582 -1.602588,4.592189 3.082413,13.975109 l 4.287341,8.586503 12.534804,0 12.534805,0 4.145953,-7.921505 z M 35.886028,19.066603 c 0.853672,-0.453236 0.562267,-0.609083 -1.730072,-0.925259 -1.516162,-0.209121 -3.731254,-0.215092 -4.922428,-0.01327 l -2.165771,0.366949 2.289272,2.05491 2.289273,2.05491 1.60657,-1.496599 c 0.883614,-0.823129 2.068534,-1.741867 2.633156,-2.04164 z"
       id="path3104"
       inkscape:connector-curvature="0" />
    <path
       style="fill:#ffffff"
       d="M 16.480461,42.054877 C 11.585659,32.257865 10.710023,30.13164 10.706493,28.034494 c -0.0015,-0.869703 0.111525,-1.388558 0.45533,-2.090909 0.630218,-1.287457 2.254866,-3.208933 3.296696,-3.899013 3.301366,-2.186734 7.987025,-2.136433 11.48323,0.123274 5.222022,3.375155 4.729778,10.730475 -0.901034,13.463652 -0.622393,0.302108 -2.031624,0.805952 -3.131624,1.119654 -2.417747,0.689501 -2.962658,0.954564 -3.189629,1.551543 -0.264095,0.69462 -0.214928,0.955064 0.272273,1.442264 0.380237,0.380238 0.615673,0.445815 1.59091,0.443126 2.434806,-0.0067 5.60882,-0.987877 7.30226,-2.257297 0.586699,-0.439795 1.694084,-1.368861 2.460859,-2.064593 l 1.394134,-1.264966 1.278586,1.295006 c 1.586847,1.607228 3.663907,2.868877 6.091256,3.699957 3.043845,1.042156 5.221111,0.877036 5.546813,-0.420658 0.28286,-1.127007 -0.512708,-1.69184 -3.564311,-2.530574 -4.450675,-1.223269 -6.663075,-3.314702 -7.283831,-6.885577 -0.411689,-2.368221 0.10628,-4.039721 1.862014,-6.008758 1.164495,-1.30597 2.665588,-2.30553 4.29495,-2.859957 0.963821,-0.327962 1.612909,-0.413519 3.125534,-0.41198 3.149916,0.0032 5.151329,0.798485 7.127364,2.832122 1.698092,1.747594 2.391171,3.189834 2.371652,4.935217 -0.02658,2.377053 -1.035656,4.832106 -5.526243,13.445214 l -2.914913,5.590909 -12.528324,0 -12.528323,0 -2.611661,-5.227273 0,0 z"
       id="path3106"
       inkscape:connector-curvature="0" />
    <path
       style="fill:#ffffff"
       d="m 29.382975,20.509557 c -1.259887,-1.126098 -1.999981,-1.909058 -1.870301,-1.978628 0.547518,-0.293729 3.521469,-0.55114 5.080598,-0.439753 1.884477,0.134631 3.590938,0.426491 3.583858,0.612955 -0.0026,0.06791 -0.415647,0.402286 -0.917929,0.743058 -0.502283,0.340771 -1.473717,1.138498 -2.158742,1.772727 -0.685026,0.634229 -1.332595,1.153143 -1.439043,1.153143 -0.106447,0 -1.131746,-0.838576 -2.278441,-1.863502 z"
       id="path3108"
       inkscape:connector-curvature="0" />
  </g>
</svg>
