<?xml version="1.0" encoding="UTF-8" standalone="no"?>
<!-- Created with Inkscape (http://www.inkscape.org/) -->

<svg
   xmlns:dc="http://purl.org/dc/elements/1.1/"
   xmlns:cc="http://creativecommons.org/ns#"
   xmlns:rdf="http://www.w3.org/1999/02/22-rdf-syntax-ns#"
   xmlns:svg="http://www.w3.org/2000/svg"
   xmlns="http://www.w3.org/2000/svg"
   xmlns:sodipodi="http://sodipodi.sourceforge.net/DTD/sodipodi-0.dtd"
   xmlns:inkscape="http://www.inkscape.org/namespaces/inkscape"
   width="64px"
   height="64px"
   id="svg2985"
   version="1.1"
   inkscape:version="0.48.1 "
   sodipodi:docname="bp.svg">
  <defs
     id="defs2987" />
  <sodipodi:namedview
     id="base"
     pagecolor="#ffffff"
     bordercolor="#666666"
     borderopacity="1.0"
     inkscape:pageopacity="0.0"
     inkscape:pageshadow="2"
     inkscape:zoom="5.5"
     inkscape:cx="32"
     inkscape:cy="17.590577"
     inkscape:current-layer="layer1"
     showgrid="true"
     inkscape:document-units="px"
     inkscape:grid-bbox="true"
     inkscape:window-width="1365"
     inkscape:window-height="878"
     inkscape:window-x="-8"
     inkscape:window-y="-8"
     inkscape:window-maximized="1" />
  <metadata
     id="metadata2990">
    <rdf:RDF>
      <cc:Work
         rdf:about="">
        <dc:format>image/svg+xml</dc:format>
        <dc:type
           rdf:resource="http://purl.org/dc/dcmitype/StillImage" />
        <dc:title></dc:title>
      </cc:Work>
    </rdf:RDF>
  </metadata>
  <g
     id="layer1"
     inkscape:label="Layer 1"
     inkscape:groupmode="layer">
    <path
       style="fill:#000000"
       d="m 17.370894,54.378534 0,-2.148205 14.810925,0 14.810925,0 0,2.148205 0,2.148205 -14.810925,0 -14.810925,0 0,-2.148205 z m -1.160973,-6.310352 c -0.950095,-1.928056 -1.303448,-3.691571 -1.447017,-7.221783 -0.165097,-4.059589 -0.01739,-5.046666 1.12883,-7.543223 1.646883,-3.587058 4.173059,-6.49188 7.167384,-8.241693 l 2.309015,-1.349334 -0.886509,-1.540269 c -3.426434,-5.953281 10.244355,-9.921937 15.17298,-4.404745 1.251351,1.400786 1.300357,3.566756 0.110363,4.877953 -0.854089,0.941081 -0.77969,1.061083 1.474548,2.378408 2.767227,1.617102 5.251361,4.289807 6.957025,7.485134 1.02125,1.913169 1.211145,3.10683 1.21511,7.638047 0.004,4.551004 -0.187545,5.759779 -1.255148,7.921505 l -1.259848,2.550994 -14.714835,0 -14.714836,0 -1.257062,-2.550994 z M 46.16401,44.614137 c 1.048629,-3.521099 1.043619,-5.430643 -0.02365,-9.014334 -1.081146,-3.630285 -5.31986,-8.066711 -8.818197,-9.229515 -3.523847,-1.171283 -3.965662,-2.314555 -1.648402,-4.265528 1.543938,-1.29989 1.772463,-1.744377 1.290407,-2.509883 -1.331385,-2.114243 -8.273047,-2.075735 -9.575551,0.05312 -0.487333,0.796513 -0.329516,1.180346 0.888504,2.160969 2.384296,1.919585 1.953993,3.128846 -1.710151,4.805954 -7.598268,3.477787 -11.314567,12.489351 -7.880966,19.110366 l 0.866868,1.671581 12.891203,0 12.891202,0 0.828733,-2.782731 z"
       id="path3089"
       inkscape:connector-curvature="0" />
    <path
       style="fill:#ffffff"
       d="m 18.772043,45.692445 c -0.84066,-1.799086 -1.318149,-3.708993 -1.316124,-5.26437 0.0046,-3.556683 1.509584,-7.253338 4.072202,-10.002651 1.477675,-1.585327 2.802511,-2.55701 5.290061,-3.87992 1.938477,-1.030907 3.000751,-1.949957 2.998802,-2.594482 -0.0017,-0.547121 -0.544219,-1.318893 -1.627027,-2.314371 -1.373423,-1.262654 -1.208422,-2.131624 0.548249,-2.887323 2.452873,-1.055198 7.100419,-0.628696 8.058776,0.739547 0.512725,0.73202 0.354807,1.105539 -1.062722,2.513608 -2.316658,2.301195 -2.055125,3.020534 1.626567,4.473826 1.748315,0.690121 2.981671,1.51722 4.675273,3.135278 1.710845,1.634533 3.294595,3.932746 3.879538,5.629688 0.539638,1.565502 0.993453,3.789366 0.993453,4.868286 0,1.014442 -0.569335,3.841853 -1.151398,5.718044 l -0.423051,1.363636 -12.909326,0.04666 -12.909326,0.04666 -0.743947,-1.59211 0,0 z"
       id="path3091"
       inkscape:connector-curvature="0" />
  </g>
</svg>
