<?xml version="1.0" encoding="UTF-8" standalone="no"?>
<!-- Created with Inkscape (http://www.inkscape.org/) -->

<svg
   xmlns:dc="http://purl.org/dc/elements/1.1/"
   xmlns:cc="http://creativecommons.org/ns#"
   xmlns:rdf="http://www.w3.org/1999/02/22-rdf-syntax-ns#"
   xmlns:svg="http://www.w3.org/2000/svg"
   xmlns="http://www.w3.org/2000/svg"
   xmlns:sodipodi="http://sodipodi.sourceforge.net/DTD/sodipodi-0.dtd"
   xmlns:inkscape="http://www.inkscape.org/namespaces/inkscape"
   width="64px"
   height="64px"
   id="svg2985"
   version="1.1"
   inkscape:version="0.48.1 "
   sodipodi:docname="bq.svg">
  <defs
     id="defs2987" />
  <sodipodi:namedview
     id="base"
     pagecolor="#ffffff"
     bordercolor="#666666"
     borderopacity="1.0"
     inkscape:pageopacity="0.0"
     inkscape:pageshadow="2"
     inkscape:zoom="5.5"
     inkscape:cx="32"
     inkscape:cy="41.38288"
     inkscape:current-layer="layer1"
     showgrid="true"
     inkscape:document-units="px"
     inkscape:grid-bbox="true"
     inkscape:window-width="1365"
     inkscape:window-height="878"
     inkscape:window-x="-8"
     inkscape:window-y="-8"
     inkscape:window-maximized="1" />
  <metadata
     id="metadata2990">
    <rdf:RDF>
      <cc:Work
         rdf:about="">
        <dc:format>image/svg+xml</dc:format>
        <dc:type
           rdf:resource="http://purl.org/dc/dcmitype/StillImage" />
        <dc:title></dc:title>
      </cc:Work>
    </rdf:RDF>
  </metadata>
  <g
     id="layer1"
     inkscape:label="Layer 1"
     inkscape:groupmode="layer">
    <path
       style="fill:#000000"
       d="m 13.098929,55.315125 0,-2.142093 19.173797,0 19.173797,0 0,2.142093 0,2.142093 -19.173797,0 -19.173797,0 0,-2.142093 z m 0,-8.776009 c 0,-4.45737 0.182302,-5.413632 1.607958,-8.434492 2.065373,-4.376375 3.793111,-11.089806 3.793111,-14.738799 l 0,-2.859714 -2.141424,0 c -2.799516,0 -3.259645,-0.907129 -3.259645,-6.42628 0,-6.2062379 0.185588,-6.4262791 5.420073,-6.4262791 4.228571,0 4.301852,0.022806 4.301852,1.3388083 0,1.2793058 0.144029,1.3388078 3.240642,1.3388078 3.096613,0 3.240642,-0.0595 3.240642,-1.3388078 0,-1.2657822 0.162032,-1.3388083 2.970588,-1.3388083 2.808556,0 2.970588,0.073026 2.970588,1.3388083 0,1.2793058 0.144029,1.3388078 3.240642,1.3388078 3.096613,0 3.240642,-0.0595 3.240642,-1.3388078 0,-1.3160019 0.07328,-1.3388083 4.301852,-1.3388083 5.234485,0 5.420073,0.2200412 5.420073,6.4262791 0,5.559063 -0.45071,6.42628 -3.339868,6.42628 l -2.221648,0 0.324915,4.418067 c 0.326484,4.439394 1.922263,9.983168 4.081808,14.180302 0.940769,1.828409 1.154793,3.191216 1.154793,7.353177 l 0,5.108805 -19.173797,0 -19.173797,0 0,-5.027346 z m 35.106952,-1.684498 c 0,-2.62468 -0.32195,-4.129716 -1.288761,-6.024637 -2.330934,-4.568559 -3.625879,-9.731339 -3.958023,-15.780134 l -0.316114,-5.756876 2.781449,0 2.781449,0 0,-3.480901 0,-3.480902 -1.620321,0 c -1.440285,0 -1.620321,0.178508 -1.620321,1.60657 l 0,1.60657 -12.692513,0 -12.692514,0 0,-1.60657 c 0,-1.428062 -0.180035,-1.60657 -1.62032,-1.60657 l -1.620321,0 0,3.480902 0,3.480901 2.781449,0 2.781449,0 -0.316115,5.756876 c -0.332143,6.048795 -1.627088,11.211575 -3.958022,15.780134 -0.966811,1.894921 -1.288761,3.399957 -1.288761,6.024637 l 0,3.498704 15.933155,0 15.933155,0 0,-3.498704 z m -19.055061,-7.092792 -3.089324,-3.095405 0,-7.88344 0,-7.88344 6.21123,0 6.21123,0 0,7.915732 0,7.915733 -3.121906,3.063112 -3.121906,3.063113 -3.089324,-3.095405 z m 5.391648,-1.830591 1.78106,-1.711622 0,-6.58899 0,-6.588989 -4.050802,0 -4.050802,0 0,6.534666 0,6.534666 1.726272,1.765945 c 0.949449,0.97127 1.970833,1.765945 2.269741,1.765945 0.298909,0 1.344947,-0.770229 2.324531,-1.711621 z m -3.079903,-4.714658 c 0,-1.249554 -0.240047,-1.60657 -1.080213,-1.60657 -0.720143,0 -1.080214,-0.357016 -1.080214,-1.071047 0,-0.71403 0.360071,-1.071046 1.080214,-1.071046 0.840166,0 1.080213,-0.357016 1.080213,-1.60657 0,-1.071047 0.270054,-1.60657 0.810161,-1.60657 0.540107,0 0.81016,0.535523 0.81016,1.60657 0,1.249554 0.240048,1.60657 1.080214,1.60657 0.720143,0 1.080214,0.357016 1.080214,1.071046 0,0.714031 -0.360071,1.071047 -1.080214,1.071047 -0.840166,0 -1.080214,0.357016 -1.080214,1.60657 0,1.071046 -0.270053,1.60657 -0.81016,1.60657 -0.540107,0 -0.810161,-0.535524 -0.810161,-1.60657 z"
       id="path3042"
       inkscape:connector-curvature="0" />
    <path
       style="fill:#ffffff"
       d="m 16.417028,45.171666 c 0.119076,-3.497786 0.25581,-4.10107 1.581918,-6.979613 2.325914,-5.048795 3.390744,-9.850463 3.724081,-16.793115 0.05762,-1.2 0.149392,-2.611363 0.203947,-3.136363 l 0.09919,-0.954546 -2.831265,0 -2.831265,0 0,-3.454545 0,-3.454546 1.237977,0 c 1.683284,0 1.829702,0.140656 1.892662,1.818182 l 0.05118,1.363636 12.727272,0 12.727273,0 0.05118,-1.363636 c 0.06296,-1.677526 0.209376,-1.818182 1.892662,-1.818182 l 1.237976,0 0,3.454546 0,3.454545 -2.831265,0 -2.831264,0 0.09919,0.954546 c 0.05456,0.525 0.146333,1.936363 0.203947,3.136363 0.333338,6.942652 1.398168,11.74432 3.724082,16.793115 1.326107,2.878543 1.462842,3.481827 1.581916,6.979613 l 0.103679,3.045454 -15.959377,0 -15.959376,0 0.103677,-3.045454 z m 22.08485,-18.409018 -0.04733,-7.909164 -6.181818,0 -6.181818,0 -0.04742,7.905231 -0.04742,7.905231 3.136404,3.14025 3.136405,3.14025 3.140163,-3.136317 3.140164,-3.136318 -0.04733,-7.909163 0,0 z"
       id="path3044"
       inkscape:connector-curvature="0" />
    <path
       style="fill:#ffffff"
       d="m 30.082749,35.826763 -1.719113,-1.663085 0,-6.518734 0,-6.518733 3.911331,0 3.911332,0 -0.04769,6.673217 -0.04769,6.673216 -1.715124,1.508602 c -1.114449,0.980256 -1.865509,1.508601 -2.144523,1.508601 -0.29473,0 -0.968558,-0.521585 -2.148513,-1.663084 z m 2.903822,-3.660346 c 0.04498,-0.222113 0.120405,-0.754778 0.167621,-1.1837 0.104402,-0.948432 0.378256,-1.311051 0.990118,-1.311051 0.625981,0 1.128417,-0.4925 1.128417,-1.106102 0,-0.64586 -0.390327,-1.030137 -1.200792,-1.182181 -0.7283,-0.13663 -0.981026,-0.575453 -0.981026,-1.703411 0,-0.911981 -0.55842,-1.642693 -1.034064,-1.353109 -0.359559,0.218908 -0.502775,0.605293 -0.727543,1.962847 -0.142021,0.857776 -0.177143,0.899465 -0.948185,1.125442 -0.87982,0.257857 -1.101415,0.488608 -1.105606,1.151288 -0.0038,0.600393 0.495928,1.105226 1.094042,1.105226 0.687485,0 0.921022,0.360643 1.074069,1.658642 0.08933,0.757661 0.238247,1.197692 0.460247,1.360022 0.418528,0.306036 0.968538,0.03989 1.082702,-0.523913 l 0,0 z"
       id="path3046"
       inkscape:connector-curvature="0" />
  </g>
</svg>
