<?xml version="1.0" encoding="UTF-8" standalone="no"?>
<!-- Created with Inkscape (http://www.inkscape.org/) -->

<svg
   xmlns:dc="http://purl.org/dc/elements/1.1/"
   xmlns:cc="http://creativecommons.org/ns#"
   xmlns:rdf="http://www.w3.org/1999/02/22-rdf-syntax-ns#"
   xmlns:svg="http://www.w3.org/2000/svg"
   xmlns="http://www.w3.org/2000/svg"
   xmlns:sodipodi="http://sodipodi.sourceforge.net/DTD/sodipodi-0.dtd"
   xmlns:inkscape="http://www.inkscape.org/namespaces/inkscape"
   width="64px"
   height="64px"
   id="svg2985"
   version="1.1"
   inkscape:version="0.48.1 "
   sodipodi:docname="wk.svg">
  <defs
     id="defs2987" />
  <sodipodi:namedview
     id="base"
     pagecolor="#ffffff"
     bordercolor="#666666"
     borderopacity="1.0"
     inkscape:pageopacity="0.0"
     inkscape:pageshadow="2"
     inkscape:zoom="5.5"
     inkscape:cx="32"
     inkscape:cy="47.749834"
     inkscape:current-layer="layer1"
     showgrid="true"
     inkscape:document-units="px"
     inkscape:grid-bbox="true"
     inkscape:window-width="1365"
     inkscape:window-height="878"
     inkscape:window-x="-8"
     inkscape:window-y="-8"
     inkscape:window-maximized="1" />
  <metadata
     id="metadata2990">
    <rdf:RDF>
      <cc:Work
         rdf:about="">
        <dc:format>image/svg+xml</dc:format>
        <dc:type
           rdf:resource="http://purl.org/dc/dcmitype/StillImage" />
        <dc:title></dc:title>
      </cc:Work>
    </rdf:RDF>
  </metadata>
  <g
     id="layer1"
     inkscape:label="Layer 1"
     inkscape:groupmode="layer">
    <path
       style="fill:#000000"
       d="m 20.996834,56.875593 c -1.675693,-0.264949 -3.911168,-0.842918 -4.967724,-1.284374 -1.654084,-0.69112 -1.920731,-1.048985 -1.919002,-2.575468 0.0011,-0.975052 0.48445,-2.564099 1.074102,-3.531218 0.589652,-0.967118 1.072095,-2.124631 1.072095,-2.57225 0,-0.447621 -1.549439,-2.46361 -3.443198,-4.479979 C 8.3255759,37.654234 6.9082302,34.922616 6.9349715,31.103511 7.0053435,21.05342 18.04015,18.111633 26.4006,25.914136 c 1.781567,1.662671 1.812466,1.670188 1.463137,0.355914 -1.365664,-5.138018 -0.805137,-8.691421 1.539539,-9.759727 1.104443,-0.503218 1.353411,-0.995973 1.353411,-2.678655 0,-1.841433 -0.143618,-2.062 -1.342628,-2.062 -0.738445,0 -1.342628,-0.241673 -1.342628,-0.537052 0,-0.295378 0.604183,-0.537051 1.342628,-0.537051 1.208365,0 1.342628,-0.21482 1.342628,-2.1482046 0,-1.5514813 0.223772,-2.1482048 0.805577,-2.1482048 0.581805,0 0.805577,0.5967235 0.805577,2.1482048 0,2.0288606 0.08951,2.1482046 1.611153,2.1482046 0.886135,0 1.611154,0.241673 1.611154,0.537051 0,0.295379 -0.725019,0.537052 -1.611154,0.537052 -1.517044,0 -1.611153,0.123366 -1.611153,2.112014 0,1.649598 0.238302,2.187648 1.08841,2.457462 1.993607,0.632746 2.846161,2.676805 2.525255,6.054477 -0.160466,1.688969 -0.481132,3.554198 -0.712592,4.144954 -0.315083,0.80419 0.102185,0.617743 1.660495,-0.741954 8.695387,-7.587125 19.142577,-4.711495 19.279976,5.30689 0.05285,3.853375 -1.433669,6.71373 -5.903811,11.360119 -1.890543,1.965083 -3.437351,3.882583 -3.437351,4.261113 0,0.378528 0.500314,1.721745 1.111808,2.984924 0.611495,1.263179 1.034422,2.970774 0.93984,3.794655 -0.147762,1.287104 -0.587757,1.639598 -3.12575,2.504137 -2.339723,0.797 -4.907608,1.041794 -12.352178,1.177517 -5.169118,0.09424 -10.769417,-0.04543 -12.445109,-0.310383 z m 10.56543,-5.051385 c 9.606318,-0.0088 12.247529,0.151959 14.128091,0.859996 2.287583,0.861281 2.311158,0.858151 2.148205,-0.285218 -0.275515,-1.933176 -4.868698,-2.539916 -17.88745,-2.362855 -11.756656,0.159895 -14.267562,0.611296 -14.657298,2.635029 -0.157174,0.816143 0.005,0.817918 2.141638,0.02345 1.857,-0.690489 4.635616,-0.861688 14.126814,-0.870398 z m 0,-4.846899 c 8.570602,-0.02034 10.535298,0.125048 12.273821,0.90829 1.821582,0.820662 2.030934,0.831104 1.745416,0.08705 -0.178438,-0.465001 -0.324432,-1.047337 -0.324432,-1.29408 0,-0.946772 -5.757838,-1.611224 -13.855502,-1.59892 -9.119228,0.01386 -12.315805,0.477145 -13.385466,1.939994 -1.142299,1.562187 -0.784982,1.795372 1.328248,0.866813 1.631323,-0.716807 3.952543,-0.889533 12.217915,-0.909152 z m -13.0094,-4.060845 c 1.528389,-0.676078 4.274506,-1.206981 7.385328,-1.427793 l 4.952231,-0.35152 -0.277815,-3.063787 c -0.362362,-3.996195 -1.893413,-7.362936 -4.775788,-10.501835 -2.886229,-3.143097 -5.741133,-4.496583 -9.517125,-4.511992 -5.084302,-0.02075 -8.1330703,3.034705 -8.1073633,8.125138 0.016036,3.175992 1.4307495,6.046493 4.7904583,9.72002 1.553333,1.698424 2.890107,3.088044 2.970609,3.088044 0.0805,0 1.241262,-0.484323 2.579465,-1.076275 z m -4.274546,-3.891448 c -2.773928,-2.875788 -3.930127,-5.160347 -3.927569,-7.760573 0.0046,-4.657372 4.013712,-7.503278 8.624199,-6.121943 4.436803,1.329298 8.326215,6.249823 8.922974,11.288522 0.280473,2.368153 0.204748,2.595425 -0.969493,2.909719 -0.70055,0.187507 -2.361257,0.35483 -3.690459,0.371828 -1.329201,0.017 -3.383422,0.379169 -4.564935,0.804824 -1.181512,0.425655 -2.158304,0.777557 -2.170649,0.782004 -0.01235,0.0045 -1.013175,-1.019024 -2.224068,-2.274381 z m 35.783594,1.943012 c 3.632208,-3.974216 4.862079,-6.470794 4.862079,-9.869792 0,-5.255733 -2.804999,-8.054089 -8.055768,-8.036691 -5.143332,0.01704 -9.920121,3.267364 -12.608028,8.579017 -1.170534,2.313126 -1.428664,3.229101 -2.133764,7.571655 l -0.313799,1.932618 5.493428,0.360005 c 3.72199,0.243917 6.106147,0.680491 7.393533,1.353867 1.045058,0.546623 2.057109,1.0254 2.249003,1.063946 0.191895,0.03855 1.592887,-1.291034 3.113316,-2.954625 z M 44.182967,40.685882 C 43.444522,40.381448 41.148628,39.973839 39.080981,39.780085 L 35.321622,39.427804 35.15414,37.400429 c -0.203373,-2.461814 1.745304,-6.961559 3.981287,-9.193301 1.776934,-1.773563 5.270774,-3.519038 7.078731,-3.536437 2.154942,-0.02074 4.850678,1.459714 5.720381,3.141535 1.810688,3.501483 0.795877,7.185955 -3.088329,11.21279 -2.347756,2.433966 -2.583944,2.518087 -4.663243,1.660866 z M 33.686687,27.642781 c 0.751525,-2.593357 1.36641,-5.534015 1.36641,-6.534796 0,-3.497247 -3.601194,-5.200073 -5.975669,-2.825598 -0.970359,0.970359 -1.095516,1.556171 -0.831864,3.893622 0.469745,4.164602 3.04857,12.015583 3.614568,11.004201 0.253079,-0.452229 1.075029,-2.944072 1.826555,-5.537429 z m -2.86833,-2.627087 c -0.333909,-0.837585 -0.665639,-2.287623 -0.737177,-3.222307 -0.114272,-1.493027 0.0493,-1.720065 1.346821,-1.869361 1.352334,-0.155603 1.474848,-0.01972 1.452668,1.611154 -0.01332,0.979598 -0.346194,2.506107 -0.739714,3.392242 l -0.715491,1.611153 -0.607107,-1.522881 z"
       id="path3178"
       inkscape:connector-curvature="0" />
    <path
       style="fill:#ffffff"
       d="m 30.923133,31.825527 c -1.120314,-2.505533 -2.45723,-7.731419 -2.673783,-10.451586 -0.105908,-1.330326 -0.07594,-1.550207 0.303185,-2.224774 1.433355,-2.550311 4.957467,-2.370399 6.106354,0.311741 0.444058,1.036676 0.231341,3.264768 -0.627343,6.571076 -0.887033,3.415463 -2.053455,6.946697 -2.32444,7.037025 -0.109119,0.03637 -0.461907,-0.523194 -0.783973,-1.243482 z m 0.780403,-5.748088 c 0.878511,-1.700377 1.472294,-5.0255 1.041252,-5.830908 -0.241186,-0.450661 -1.036948,-0.52913 -1.99148,-0.196379 -0.696388,0.242763 -0.840377,0.700047 -0.66801,2.121492 0.112579,0.928402 1.13598,4.405795 1.29663,4.405795 0.0348,0 0.179527,-0.225 0.321608,-0.5 z"
       id="path3180"
       inkscape:connector-curvature="0" />
    <path
       style="fill:#ffffff"
       d="M 46.545455,43.667551 C 46.082887,43.367266 43.581157,42.3503 42.909091,42.189351 41.297095,41.803306 34.567483,41.123986 32.346214,41.123084 l -0.471968,-1.91e-4 0.411837,-2.438294 c 0.226511,-1.341061 0.543327,-2.951549 0.704037,-3.578861 0.848587,-3.312357 3.350427,-7.137866 5.998785,-9.172608 4.456991,-3.42432 10.941493,-3.729065 13.875875,-0.65211 1.03536,1.085666 1.62806,2.463871 1.876689,4.363863 0.422346,3.227515 -0.356869,5.738774 -2.777422,8.951088 -1.221149,1.620587 -4.660707,5.26038 -4.964047,5.253031 -0.1,-0.0024 -0.304545,-0.08408 -0.454545,-0.181451 z m 0.571811,-2.93359 c 0.849322,-0.593241 3.097725,-3.116072 3.989083,-4.47597 2.507695,-3.825853 2.182722,-8.085932 -0.780571,-10.232529 -1.946849,-1.410291 -4.25726,-1.705427 -6.416687,-0.819679 -3.810876,1.563135 -6.074738,3.764462 -7.701638,7.488898 -0.859015,1.966526 -1.173687,3.53564 -1.048351,5.227608 0.0585,0.789667 0.128725,1.458128 0.156065,1.485469 0.02734,0.02734 1.276704,0.181049 2.776362,0.341576 3.299304,0.353163 5.32801,0.711297 6.647042,1.173422 1.073084,0.375957 1.633883,0.331446 2.378695,-0.188795 l 0,0 z"
       id="path3182"
       inkscape:connector-curvature="0" />
    <path
       style="fill:#ffffff"
       d="M 13.996402,41.872575 C 9.7207758,37.296926 8.3505791,34.663973 8.3513244,31.025067 c 8.874e-4,-4.332722 2.1897136,-7.031756 6.2720876,-7.734091 2.368913,-0.407549 5.382932,0.09846 7.376588,1.238425 2.132199,1.219182 4.304331,3.373341 5.928887,5.879833 1.575102,2.430187 2.301351,4.698039 2.683202,8.378812 0.128036,1.234166 0.226786,2.256206 0.219442,2.2712 -0.0073,0.01499 -1.363349,0.121962 -3.013349,0.237705 -5.112433,0.358626 -7.37748,0.788482 -10.105742,1.917849 -0.844184,0.349451 -1.609858,0.635366 -1.701499,0.635366 -0.09164,0 -0.998183,-0.889916 -2.014539,-1.977591 z m 3.418529,-0.851476 c 1.512169,-0.634443 3.377741,-1.011465 6.280174,-1.269189 1.682307,-0.149382 3.339126,-0.388756 3.681817,-0.531942 C 27.995898,38.961344 28,38.951849 28,37.777484 28,31.166276 21.924161,24.43378 16.287161,24.798757 c -3.347186,0.216719 -5.730165,2.61707 -5.898016,5.941014 -0.117532,2.327474 0.414279,3.941679 2.013895,6.112771 0.922837,1.252527 3.918915,4.452169 4.168918,4.452169 0.09185,0 0.471185,-0.127625 0.842973,-0.283612 z"
       id="path3184"
       inkscape:connector-curvature="0" />
    <path
       style="fill:#ffffff"
       d="m 17.454545,48.224195 c 0,-0.459527 0.849093,-1.519695 1.471396,-1.837171 1.344614,-0.685971 2.874342,-0.907541 7.762738,-1.124379 7.387601,-0.327697 16.393063,0.191129 18.032454,1.038892 0.360871,0.186613 0.544467,0.453628 0.631725,0.91876 0.06766,0.360631 0.172518,0.784708 0.233027,0.942395 0.135157,0.352213 -0.24274,0.280476 -1.954965,-0.371115 -1.739305,-0.661897 -4.278736,-0.850604 -11.435225,-0.849763 -8.012366,9.46e-4 -10.717638,0.193632 -12.853206,0.9155 -1.749038,0.591213 -1.887944,0.618206 -1.887944,0.366881 z"
       id="path3186"
       inkscape:connector-curvature="0" />
    <path
       style="fill:#ffffff"
       d="m 15.342374,53.042138 c -0.16971,-0.442256 0.462523,-1.359622 1.194325,-1.73296 1.355563,-0.691557 3.417027,-0.90295 11.008756,-1.128894 10.14176,-0.301838 16.753938,0.04535 19.037856,0.999634 0.734534,0.306908 1.234871,0.926372 1.234871,1.528885 0,0.539113 -0.348062,0.534209 -2.074082,-0.02922 -2.177947,-0.710954 -4.179935,-0.829417 -14.016827,-0.829417 -10.795571,0 -12.090793,0.0977 -15.417198,1.162881 -0.732024,0.23441 -0.887124,0.239072 -0.967701,0.02909 z"
       id="path3188"
       inkscape:connector-curvature="0" />
  </g>
</svg>
