<?xml version="1.0" encoding="UTF-8" standalone="no"?>
<!-- Created with Inkscape (http://www.inkscape.org/) -->

<svg
   xmlns:dc="http://purl.org/dc/elements/1.1/"
   xmlns:cc="http://creativecommons.org/ns#"
   xmlns:rdf="http://www.w3.org/1999/02/22-rdf-syntax-ns#"
   xmlns:svg="http://www.w3.org/2000/svg"
   xmlns="http://www.w3.org/2000/svg"
   xmlns:sodipodi="http://sodipodi.sourceforge.net/DTD/sodipodi-0.dtd"
   xmlns:inkscape="http://www.inkscape.org/namespaces/inkscape"
   width="64px"
   height="64px"
   id="svg2985"
   version="1.1"
   inkscape:version="0.48.1 "
   sodipodi:docname="bk.svg">
  <defs
     id="defs2987" />
  <sodipodi:namedview
     id="base"
     pagecolor="#ffffff"
     bordercolor="#666666"
     borderopacity="1.0"
     inkscape:pageopacity="0.0"
     inkscape:pageshadow="2"
     inkscape:zoom="5.5"
     inkscape:cx="32"
     inkscape:cy="47.606768"
     inkscape:current-layer="layer1"
     showgrid="true"
     inkscape:document-units="px"
     inkscape:grid-bbox="true"
     inkscape:window-width="1365"
     inkscape:window-height="878"
     inkscape:window-x="-8"
     inkscape:window-y="-8"
     inkscape:window-maximized="1" />
  <metadata
     id="metadata2990">
    <rdf:RDF>
      <cc:Work
         rdf:about="">
        <dc:format>image/svg+xml</dc:format>
        <dc:type
           rdf:resource="http://purl.org/dc/dcmitype/StillImage" />
        <dc:title></dc:title>
      </cc:Work>
    </rdf:RDF>
  </metadata>
  <g
     id="layer1"
     inkscape:label="Layer 1"
     inkscape:groupmode="layer">
    <path
       style="fill:#000000"
       d="M 7.7408005,52.242789 C 5.858071,48.1906 5.9346117,47.921228 9.4526745,46.218162 12.137968,44.918234 15.206509,44.81658 18.344157,45.923607 c 2.941959,1.037983 6.105226,1.032112 6.972543,-0.01294 0.815261,-0.982329 0.831793,-0.967678 -2.013754,-1.784755 -2.896978,-0.831846 -3.378566,-2.326473 -1.800193,-5.586956 1.427517,-2.948858 1.416025,-3.139352 -0.283863,-4.705153 -1.872913,-1.725178 -3.383978,-5.107851 -3.398495,-7.607876 -0.02456,-4.229124 1.964537,-6.728153 8.499926,-10.679008 l 3.298341,-1.993954 -1.085305,-1.085304 c -2.501771,-2.5017693 -0.51381,-6.9760589 3.099516,-6.9760589 3.603525,0 5.447323,4.7345299 2.744645,7.0477349 -1.001264,0.856973 -0.868198,0.996947 3.669784,3.860318 5.446954,3.436912 7.073018,5.659055 7.073018,9.665827 0,3.097016 -0.99318,5.537869 -3.15194,7.746249 -1.906174,1.949989 -2.021862,2.532381 -0.776409,3.90859 0.514179,0.568162 0.910742,1.94565 0.937165,3.255307 0.04539,2.249652 0.02222,2.278192 -2.53917,3.12804 -2.401212,0.796701 -2.522221,0.920429 -1.702199,1.74045 1.098961,1.09896 3.719392,1.130065 6.69703,0.07949 3.024945,-1.067263 6.216584,-0.996953 8.836134,0.194654 3.63005,1.651273 3.78774,2.170012 1.840454,6.054392 -0.934799,1.864705 -1.792514,3.491732 -1.906035,3.61562 -0.113522,0.123887 -0.747671,-0.267725 -1.40922,-0.870247 -2.723377,-2.480375 -5.070451,-2.872194 -8.967903,-1.497093 -3.53,1.245456 -6.994369,1.043172 -9.334753,-0.545055 l -1.986889,-1.348339 -1.637162,1.165763 c -2.268106,1.615036 -6.19571,1.900277 -10.059082,0.730542 -3.717248,-1.125493 -6.260475,-0.799744 -8.505647,1.089444 -0.861168,0.724627 -1.6740019,1.3175 -1.8062981,1.3175 -0.1322962,0 -0.9907143,-1.614598 -1.9075954,-3.587999 z m 5.4790935,-0.122124 c 2.412134,-1.137733 2.852699,-1.187636 5.087471,-0.576256 1.345656,0.368139 4.038459,0.778629 5.984006,0.912201 3.139393,0.215534 3.702618,0.100707 5.006274,-1.02065 1.091004,-0.938443 1.542166,-1.913392 1.753638,-3.789573 l 0.284725,-2.526065 -2.21174,0 c -1.5216,0 -2.211739,0.230191 -2.211739,0.737713 0,2.171194 -4.786544,2.748485 -9.582074,1.155665 -2.903844,-0.964502 -4.947302,-0.794943 -7.8224315,0.64908 -0.8836134,0.443792 -1.6728724,0.862631 -1.7539094,0.930754 -0.3292574,0.276789 2.0520555,5.16887 2.4233999,4.978544 0.220855,-0.113197 1.589927,-0.766333 3.04238,-1.451413 z m 40.99344,-0.552729 c 1.400832,-2.745866 1.369643,-3.06133 -0.390761,-3.952435 -2.527636,-1.279473 -5.104979,-1.480479 -7.991557,-0.623257 -4.942216,1.46768 -8.936711,1.121439 -9.555524,-0.828269 -0.243594,-0.767496 -0.817653,-1.043653 -2.169486,-1.043653 -1.824504,0 -1.838244,0.0182 -1.838244,2.435425 0,3.535855 1.765057,5.064677 5.835074,5.054107 1.650583,-0.0043 4.06881,-0.379586 5.373839,-0.834001 2.761099,-0.961421 5.523593,-0.65529 7.834761,0.868226 0.865684,0.570657 1.62932,1.039146 1.696968,1.041087 0.06765,0.0019 0.609866,-0.950813 1.20493,-2.11723 z m -14.562479,-8.64809 c 1.397187,-0.531219 1.41187,-0.5763 0.381994,-1.172772 -2.714844,-1.572355 -19.149389,-0.835043 -17.527979,0.786368 1.433477,1.433477 13.666911,1.709172 17.145985,0.386404 z m -8.454139,-3.337271 c 3.387184,-0.02141 7.032421,0.224238 8.100525,0.545873 1.785445,0.537648 1.92059,0.502888 1.676332,-0.431154 -0.7434,-2.842765 -6.922265,-5.232063 -11.541485,-4.462965 -4.063578,0.676584 -7.339268,2.916158 -7.339268,5.017823 0,0.377413 0.475671,0.365594 1.472689,-0.03659 0.809979,-0.326736 4.244022,-0.61158 7.631207,-0.632985 z M 26.644768,34.69306 c 2.811167,-1.012759 7.066709,-1.017619 9.918839,-0.01133 l 2.288411,0.807398 1.929223,-2.217293 c 2.436179,-2.799944 3.213432,-4.490438 3.243879,-7.055305 0.04181,-3.522351 -2.342425,-6.659742 -6.732259,-8.858909 -1.212456,-0.607402 -2.934142,-1.718349 -3.825969,-2.468772 -1.884143,-1.585403 -2.42066,-1.670331 -3.364857,-0.532644 -0.379665,0.45747 -2.312522,1.77919 -4.295236,2.937158 -5.906964,3.449853 -7.79585,6.749924 -6.444726,11.259575 0.534566,1.784221 4.090874,6.809603 4.87284,6.885758 0.147269,0.01434 1.231704,-0.321196 2.409855,-0.74564 z m 4.551948,-7.245007 c 0,-2.142093 0,-2.142093 -2.142094,-2.142093 -1.178151,0 -2.142093,-0.240986 -2.142093,-0.535523 0,-0.294538 0.963942,-0.535524 2.142093,-0.535524 2.142094,0 2.142094,0 2.142094,-2.142093 0,-1.178151 0.240985,-2.142093 0.535523,-2.142093 0.294538,0 0.535523,0.963942 0.535523,2.142093 0,2.142093 0,2.142093 2.142093,2.142093 1.178151,0 2.142093,0.240986 2.142093,0.535524 0,0.294537 -0.963942,0.535523 -2.142093,0.535523 -2.142093,0 -2.142093,0 -2.142093,2.142093 0,1.178151 -0.240985,2.142093 -0.535523,2.142093 -0.294538,0 -0.535523,-0.963942 -0.535523,-2.142093 z m 2.570511,-15.63728 c 1.046471,-1.046471 0.794159,-4.0583011 -0.393213,-4.6937632 -2.199705,-1.1772468 -4.854915,0.079537 -4.854915,2.2979642 0,2.419557 3.586921,4.057006 5.248128,2.395799 z"
       id="path3201"
       inkscape:connector-curvature="0" />
    <path
       style="fill:#ffffff"
       d="M 9.8602542,53.220504 C 9.3975764,52.649856 7.8181818,49.24556 7.8181818,48.818932 c 0,-0.273937 2.6535332,-1.598299 3.9875452,-1.990159 1.598869,-0.46966 3.161965,-0.372417 5.969883,0.371396 2.13227,0.564836 2.802614,0.664454 4.588026,0.681818 1.330892,0.01294 2.34042,-0.06796 2.777347,-0.222562 0.88081,-0.311677 1.768108,-1.058181 1.768108,-1.487551 0,-0.736266 0.465084,-0.905915 2.483514,-0.905915 l 1.912086,0 -0.09931,0.681818 c -0.05462,0.375 -0.153325,1.131818 -0.219342,1.681818 -0.235418,1.961335 -0.932902,3.189 -2.458618,4.327499 -0.999584,0.745895 -4.783502,0.604095 -9.52742,-0.357035 -3.265187,-0.661535 -3.464633,-0.635864 -6.58562,0.84765 -1.157158,0.550037 -2.163758,1.000068 -2.236889,1.000068 -0.07313,0 -0.2158877,-0.102273 -0.3172368,-0.227273 z"
       id="path3203"
       inkscape:connector-curvature="0" />
    <path
       style="fill:#ffffff"
       d="m 51.454545,52.686826 c -2.857166,-1.642088 -4.57885,-1.823541 -8.363636,-0.881466 -5.370083,1.336674 -8.971654,0.796062 -10.16666,-1.526062 -0.3763,-0.731223 -0.472285,-1.215791 -0.531155,-2.681478 -0.09084,-2.261616 -0.04007,-2.331861 1.685327,-2.331861 1.437494,0 1.660975,0.110512 2.260786,1.117966 1.032563,1.734311 4.312478,2.023515 8.938496,0.788143 3.318326,-0.886154 5.93117,-0.763801 8.223921,0.385106 1.266321,0.634558 1.589285,0.943302 1.589285,1.519309 0,0.458004 -1.00742,2.728553 -1.745889,3.934925 L 53,53.575039 51.454545,52.686826 z"
       id="path3205"
       inkscape:connector-curvature="0" />
    <path
       style="fill:#ffffff"
       d="m 26.208197,43.443074 c -1.836893,-0.253179 -3.042877,-0.537162 -3.404696,-0.80173 -1.230772,-0.899963 3.008462,-1.626842 9.469226,-1.623639 4.159481,0.0021 6.587358,0.23918 7.65321,0.747449 1.128772,0.538274 0.727488,0.88593 -1.65321,1.432275 -1.478335,0.339262 -10.110174,0.515015 -12.06453,0.245645 z"
       id="path3207"
       inkscape:connector-curvature="0" />
    <path
       style="fill:#ffffff"
       d="m 22.23306,40.228151 c -0.168225,-0.438388 0.52968,-1.68978 1.340372,-2.40338 3.299239,-2.904106 9.434473,-3.43418 13.972023,-1.20716 2.040675,1.001559 3.363636,2.325683 3.363636,3.366591 0,0.448836 -0.166151,0.456525 -1.761445,0.08152 -2.800331,-0.65828 -12.781911,-0.60807 -15.482291,0.07788 -1.121187,0.284805 -1.350262,0.298328 -1.432295,0.08455 z"
       id="path3209"
       inkscape:connector-curvature="0" />
    <path
       style="fill:#ffffff"
       d="m 23.939225,35.235561 c -0.691976,-0.387249 -3.413204,-4.292786 -4.286073,-6.15142 -0.41565,-0.885059 -0.469728,-1.229884 -0.470482,-3 -7.8e-4,-1.830461 0.04297,-2.089299 0.516123,-3.053426 0.592173,-1.206654 2.089898,-2.899749 3.445264,-3.89468 0.511215,-0.375265 2.073578,-1.4062 3.471919,-2.290965 1.398341,-0.884766 2.976282,-1.97931 3.506536,-2.43232 0.729864,-0.623542 1.064012,-0.798044 1.375339,-0.718244 0.226182,0.05798 1.147604,0.644392 2.047604,1.303145 0.9,0.658754 2.372727,1.616766 3.272727,2.128915 2.545489,1.448524 3.559254,2.186168 4.74168,3.450186 1.903963,2.035342 2.625351,4.211048 2.264854,6.830799 -0.263167,1.91244 -0.986327,3.259402 -3.146518,5.860722 l -1.776345,2.139091 -1.888886,-0.612502 c -3.643585,-1.181494 -6.938604,-1.187265 -10.792356,-0.0189 -1.251517,0.379429 -2.114124,0.553207 -2.281386,0.459602 l 0,0 z m 8.234847,-6.476172 c 0.103145,-0.371387 0.187993,-1.176594 0.18855,-1.789349 6.19e-4,-0.672343 0.09113,-1.185916 0.228287,-1.295217 0.125,-0.09961 0.921251,-0.239637 1.769448,-0.311164 1.531384,-0.129139 2.185098,-0.320907 2.185098,-0.641006 0,-0.26504 -1.26487,-0.545484 -2.46525,-0.546589 -1.527242,-0.0014 -1.657578,-0.148792 -1.769534,-2.001014 -0.10283,-1.701249 -0.23133,-2.181818 -0.583398,-2.181818 -0.352069,0 -0.480569,0.480569 -0.583399,2.181818 -0.111955,1.852222 -0.242292,1.999608 -1.769534,2.001014 -1.200379,0.0011 -2.465249,0.281549 -2.465249,0.546589 0,0.324673 0.675911,0.520169 2.236128,0.646764 0.868347,0.07046 1.650555,0.219184 1.738241,0.330505 0.08769,0.11132 0.202692,0.86699 0.255569,1.679265 0.14321,2.199916 0.627887,2.846219 1.035043,1.380202 z"
       id="path3211"
       inkscape:connector-curvature="0" />
    <path
       style="fill:#ffffff"
       d="m 30.732706,12.154579 c -1.491343,-0.59519 -2.373527,-2.067078 -2.021801,-3.3732905 0.225107,-0.8359845 0.746111,-1.3829802 1.694828,-1.7793791 1.327286,-0.5545756 3.005037,-0.1396347 3.548019,0.8774952 0.373855,0.700315 0.420867,2.7749974 0.07746,3.4181274 -0.497747,0.932163 -2.080104,1.343306 -3.298501,0.857047 l 0,0 z"
       id="path3213"
       inkscape:connector-curvature="0" />
  </g>
</svg>
