<?xml version="1.0" encoding="UTF-8" standalone="no"?>
<!-- Created with Inkscape (http://www.inkscape.org/) -->

<svg
   xmlns:dc="http://purl.org/dc/elements/1.1/"
   xmlns:cc="http://creativecommons.org/ns#"
   xmlns:rdf="http://www.w3.org/1999/02/22-rdf-syntax-ns#"
   xmlns:svg="http://www.w3.org/2000/svg"
   xmlns="http://www.w3.org/2000/svg"
   xmlns:sodipodi="http://sodipodi.sourceforge.net/DTD/sodipodi-0.dtd"
   xmlns:inkscape="http://www.inkscape.org/namespaces/inkscape"
   width="64px"
   height="64px"
   id="svg2985"
   version="1.1"
   inkscape:version="0.48.1 "
   sodipodi:docname="bp.svg">
  <defs
     id="defs2987" />
  <sodipodi:namedview
     id="base"
     pagecolor="#ffffff"
     bordercolor="#666666"
     borderopacity="1.0"
     inkscape:pageopacity="0.0"
     inkscape:pageshadow="2"
     inkscape:zoom="5.5"
     inkscape:cx="32"
     inkscape:cy="57.132714"
     inkscape:current-layer="layer1"
     showgrid="true"
     inkscape:document-units="px"
     inkscape:grid-bbox="true"
     inkscape:window-width="1365"
     inkscape:window-height="878"
     inkscape:window-x="-8"
     inkscape:window-y="-8"
     inkscape:window-maximized="1" />
  <metadata
     id="metadata2990">
    <rdf:RDF>
      <cc:Work
         rdf:about="">
        <dc:format>image/svg+xml</dc:format>
        <dc:type
           rdf:resource="http://purl.org/dc/dcmitype/StillImage" />
        <dc:title></dc:title>
      </cc:Work>
    </rdf:RDF>
  </metadata>
  <g
     id="layer1"
     inkscape:label="Layer 1"
     inkscape:groupmode="layer">
    <path
       style="fill:#000000"
       d="m 21.484494,55.983314 c -1.670925,-0.264949 -3.900041,-0.842918 -4.953591,-1.284374 -1.649378,-0.69112 -1.915267,-1.048983 -1.913543,-2.575468 0.0011,-0.975051 0.483072,-2.564099 1.071047,-3.531217 0.587975,-0.967118 1.069045,-2.117455 1.069045,-2.556303 0,-0.438848 -1.644569,-2.576637 -3.654598,-4.750641 -4.5015431,-4.868772 -5.6765513,-7.174195 -5.6441404,-11.074079 0.082741,-9.956012 10.3192004,-12.913 18.9763454,-5.481663 2.148868,1.844599 2.268966,1.884626 1.911043,0.636934 -0.210059,-0.732248 -0.526482,-2.592211 -0.703162,-4.133252 -0.355523,-3.100941 0.531453,-5.163527 2.488327,-5.786386 0.84769,-0.269814 1.085314,-0.807863 1.085314,-2.457462 0,-1.894781 -0.137705,-2.112014 -1.338809,-2.112014 -0.736344,0 -1.338808,-0.241673 -1.338808,-0.537051 0,-0.295378 0.602464,-0.5370515 1.338808,-0.5370515 1.204928,0 1.338809,-0.2148205 1.338809,-2.1482048 0,-1.5514812 0.223135,-2.1482047 0.803285,-2.1482047 0.58015,0 0.803285,0.5967235 0.803285,2.1482047 0,2.0288602 0.08925,2.1482048 1.606569,2.1482048 0.883614,0 1.60657,0.2416735 1.60657,0.5370515 0,0.295378 -0.722956,0.537051 -1.60657,0.537051 -1.512728,0 -1.606569,0.123366 -1.606569,2.112014 0,1.649599 0.237624,2.187648 1.085313,2.457462 1.956874,0.622859 2.84385,2.685445 2.488327,5.786386 -0.17668,1.541041 -0.494032,3.404567 -0.705226,4.141169 -0.346749,1.209391 -0.138028,1.122155 2.152167,-0.899506 8.196796,-7.235695 18.665169,-4.030187 18.733363,5.736318 0.02666,3.819105 -1.386647,6.550723 -5.861413,11.328793 -1.888372,2.016369 -3.433403,4.024386 -3.433403,4.462261 0,0.437875 0.498198,1.642928 1.107105,2.677894 0.680792,1.157147 1.041667,2.564886 0.937166,3.655793 -0.155709,1.625483 -0.416577,1.85829 -3.115317,2.780208 -2.333066,0.797 -4.893645,1.041793 -12.317036,1.177517 -5.154412,0.09424 -10.738778,-0.04543 -12.409703,-0.310384 z M 44.594816,54.20596 c 7.399524,-1.647864 1.159815,-3.224124 -12.57495,-3.176653 -12.920888,0.04466 -19.484079,1.365744 -14.125608,2.843299 5.695037,1.570365 20.325708,1.753027 26.700558,0.333354 z M 33.894197,49.703454 c 5.743487,0.137722 11.225907,0.504067 12.183155,0.8141 2.799821,0.906804 1.946509,-1.855011 -1.086922,-3.517914 -1.491411,-0.817579 -3.245042,-0.945398 -12.970564,-0.945398 -9.725523,0 -11.479154,0.127819 -12.970565,0.945398 -1.612679,0.884058 -2.827373,2.38462 -2.827373,3.492772 0,0.264495 1.626652,0.138841 3.614783,-0.279231 2.687932,-0.565229 6.292346,-0.695925 14.057486,-0.509727 z m -7.765088,-5.024886 c 5.504097,-0.450849 16.146615,0.01101 18.743316,0.813411 0.803325,0.248234 1.22764,-0.01325 1.697516,-1.04611 0.549682,-1.208283 0.479435,-1.473687 -0.573118,-2.165314 -3.750487,-2.464425 -24.679914,-2.331678 -28.568327,0.181197 -1.152852,0.745027 0.396445,3.44502 1.738811,3.030262 0.589075,-0.182009 3.721886,-0.54806 6.961802,-0.813446 z M 18.09626,40.725613 c 1.428171,-0.650437 3.993727,-1.070567 7.697839,-1.260584 l 5.555747,-0.285003 -0.288112,-2.799503 c -0.548702,-5.331576 -4.554001,-11.10226 -9.16266,-13.201217 -3.006566,-1.369303 -7.563824,-1.339709 -9.859677,0.06403 -3.2172239,1.967083 -4.2725353,7.249213 -2.3041326,11.532833 1.0412516,2.265961 5.3105486,7.426176 5.8828186,7.110447 0.184846,-0.101982 1.300026,-0.624432 2.478177,-1.161001 z m 33.092284,-1.518774 c 3.23677,-3.830468 4.126585,-5.77019 4.126585,-8.995607 0,-5.261132 -2.795066,-8.059371 -8.03285,-8.041966 -1.710074,0.0057 -3.866492,0.429297 -5.141622,1.01004 -4.60717,2.098278 -8.613949,7.869553 -9.162234,13.197077 l -0.287685,2.795364 5.737823,0.325857 c 4.241639,0.240886 6.248804,0.60369 7.697414,1.391342 1.077774,0.586017 2.121695,1.081669 2.319824,1.101449 0.198128,0.01978 1.432364,-1.23282 2.742745,-2.783556 z M 33.624349,28.288463 c 2.069593,-6.804492 2.283951,-9.483662 0.872066,-10.899575 -1.362962,-1.366851 -3.122034,-1.460598 -4.834594,-0.257651 -1.139517,0.800426 -1.22907,1.165883 -0.954106,3.893621 0.280098,2.778673 2.8077,11.87163 3.3,11.87163 0.118304,0 0.845789,-2.073611 1.616634,-4.608025 z"
       id="path3153"
       inkscape:connector-curvature="0" />
    <path
       style="fill:#ffffff"
       d="m 25.727273,54.893625 c -5.514914,-0.439721 -9.545455,-1.284558 -9.545455,-2.000813 0,-1.054005 6.294596,-1.725871 16.181818,-1.727199 6.566124,-8.82e-4 10.368537,0.220503 13.07618,0.761323 2.682129,0.535725 2.866884,1.126112 0.566768,1.811116 -3.195079,0.951536 -6.817897,1.274497 -13.915675,1.240532 -3.1,-0.01483 -5.963636,-0.05307 -6.363636,-0.08496 l 0,0 z"
       id="path3155"
       inkscape:connector-curvature="0" />
    <path
       style="fill:#ffffff"
       d="m 16.416325,50.342338 c -0.302685,-0.788783 1.864349,-3.092831 3.379843,-3.593539 1.308887,-0.432447 5.360124,-0.642389 12.294741,-0.637136 7.061604,0.0053 10.795846,0.197604 12.065849,0.621203 1.612506,0.537837 3.479606,2.305618 3.479606,3.29451 0,0.535735 -0.468795,0.680609 -1.478795,0.457 -3.840662,-0.850301 -21.167209,-1.18335 -25.339387,-0.487071 -3.137527,0.52361 -4.298413,0.614604 -4.401857,0.345033 z"
       id="path3157"
       inkscape:connector-curvature="0" />
    <path
       style="fill:#ffffff"
       d="M 44.090909,45.275012 C 43.490909,45.139755 41.2,44.893996 39,44.72888 34.249882,44.372371 26.935901,44.458592 23.090909,44.916425 c -5.049044,0.601202 -4.965623,0.608682 -5.645413,-0.506198 -0.43908,-0.720106 -0.453589,-1.437061 -0.0364,-1.798969 1.353317,-1.174005 7.258394,-1.962154 14.701117,-1.962154 5.005621,0 8.257297,0.223445 10.865812,0.746664 1.861069,0.373296 3.424404,1.026469 3.719691,1.554116 0.2861,0.511233 -0.404493,2.275837 -0.976584,2.495369 -0.343747,0.131908 -0.239558,0.142801 -1.628218,-0.170241 l 0,0 z"
       id="path3159"
       inkscape:connector-curvature="0" />
    <path
       style="fill:#ffffff"
       d="M 14.114499,40.60365 C 12.648741,39.054685 10.398656,36.028591 9.8897214,34.921831 8.9069546,32.784649 8.5759898,29.541521 9.1450881,27.62516 c 0.6518055,-2.194868 1.9953529,-3.967601 3.4965559,-4.613505 1.766456,-0.760032 4.724528,-0.948801 7.085629,-0.452169 3.343953,0.703365 6.621136,3.356041 8.968491,7.259436 1.396538,2.322291 2.164669,4.834232 2.483765,8.122401 l 0.11658,1.201309 -2.784418,0.125564 c -6.394179,0.288345 -8.594353,0.63392 -11.137771,1.749375 -0.906005,0.397344 -1.768066,0.722442 -1.915691,0.722442 -0.147625,0 -0.752303,-0.511363 -1.34373,-1.136363 z"
       id="path3161"
       inkscape:connector-curvature="0" />
    <path
       style="fill:#ffffff"
       d="M 47.181818,41.339706 C 44.66531,40.03721 42.827046,39.684453 36.828678,39.352974 l -4.104853,-0.226841 0.10211,-0.920332 c 0.60732,-5.47386 2.041025,-8.651941 5.425918,-12.02759 2.721243,-2.713809 4.81165,-3.669789 8.404524,-3.843534 5.192798,-0.251115 7.965187,1.920271 8.479587,6.641366 0.368076,3.37815 -0.455606,5.755408 -3.164709,9.133776 -1.640316,2.045546 -3.28011,3.815449 -3.523678,3.803267 -0.09617,-0.0048 -0.665759,-0.262831 -1.265759,-0.57338 z"
       id="path3163"
       inkscape:connector-curvature="0" />
    <path
       style="fill:#ffffff"
       d="m 31.563154,31.877539 c -1.39494,-3.7747 -2.835881,-10.053585 -2.835881,-12.35732 0,-1.375854 0.02846,-1.479082 0.539461,-1.956425 1.291276,-1.206233 2.986554,-1.488357 4.347449,-0.723491 2.169083,1.219092 2.217694,3.50297 0.221761,10.418915 -0.974681,3.377287 -1.585997,5.144501 -1.832233,5.296683 -0.08501,0.05254 -0.283262,-0.252723 -0.440557,-0.678362 z"
       id="path3165"
       inkscape:connector-curvature="0" />
  </g>
</svg>
