<?xml version="1.0" encoding="UTF-8" standalone="no"?>
<!-- Created with Inkscape (http://www.inkscape.org/) -->

<svg
   xmlns:dc="http://purl.org/dc/elements/1.1/"
   xmlns:cc="http://creativecommons.org/ns#"
   xmlns:rdf="http://www.w3.org/1999/02/22-rdf-syntax-ns#"
   xmlns:svg="http://www.w3.org/2000/svg"
   xmlns="http://www.w3.org/2000/svg"
   xmlns:sodipodi="http://sodipodi.sourceforge.net/DTD/sodipodi-0.dtd"
   xmlns:inkscape="http://www.inkscape.org/namespaces/inkscape"
   width="64px"
   height="64px"
   id="svg2985"
   version="1.1"
   inkscape:version="0.48.1 "
   sodipodi:docname="New document 2">
  <defs
     id="defs2987" />
  <sodipodi:namedview
     id="base"
     pagecolor="#ffffff"
     bordercolor="#666666"
     borderopacity="1.0"
     inkscape:pageopacity="0.0"
     inkscape:pageshadow="2"
     inkscape:zoom="5.5"
     inkscape:cx="32"
     inkscape:cy="41.717983"
     inkscape:current-layer="layer1"
     showgrid="true"
     inkscape:document-units="px"
     inkscape:grid-bbox="true"
     inkscape:window-width="1365"
     inkscape:window-height="878"
     inkscape:window-x="-8"
     inkscape:window-y="-8"
     inkscape:window-maximized="1" />
  <metadata
     id="metadata2990">
    <rdf:RDF>
      <cc:Work
         rdf:about="">
        <dc:format>image/svg+xml</dc:format>
        <dc:type
           rdf:resource="http://purl.org/dc/dcmitype/StillImage" />
        <dc:title></dc:title>
      </cc:Work>
    </rdf:RDF>
  </metadata>
  <g
     id="layer1"
     inkscape:label="Layer 1"
     inkscape:groupmode="layer">
    <path
       style="fill:#000000"
       d="M 21.225285,57.509936 C 14.87817,56.600988 13.425049,55.204837 15.223892,51.743834 16.66298,48.975007 16.663347,48.993973 15.093954,45.022277 14.384494,43.226832 12.541999,37.229563 10.99952,31.695012 8.3041747,22.023876 8.1250925,21.590821 6.3986902,20.569312 4.9241685,19.696841 4.6023678,19.181365 4.6023678,17.691877 c 0,-3.33801 3.6268588,-4.831297 5.8698952,-2.416812 1.366914,1.471397 1.380184,2.608659 0.05022,4.304256 l -1.0416859,1.328068 4.1825319,6.817135 c 2.300393,3.749424 4.335557,6.970596 4.522588,7.15816 0.18703,0.187564 0.340055,-4.142018 0.340055,-9.621293 0,-9.490544 -0.05042,-9.97554 -1.064598,-10.241511 -1.429106,-0.374786 -2.268796,-2.681268 -1.609367,-4.420648 1.055405,-2.7838442 5.363572,-2.7838442 6.418977,0 0.609096,1.606616 -0.05157,3.714585 -1.401676,4.472299 -0.84926,0.476626 -0.661784,1.277192 2.179621,9.307481 1.709841,4.832301 3.286732,8.982688 3.5042,9.223083 0.217469,0.240395 1.241454,-3.988884 2.275522,-9.398396 L 30.708777,14.368222 29.437085,13.1855 c -1.663486,-1.547104 -1.703132,-4.0923557 -0.08149,-5.2314397 1.62342,-1.140331 3.416635,-1.0495087 4.700553,0.2380726 1.458769,1.4629307 1.351132,3.5503301 -0.2603,5.0480161 l -1.331346,1.237371 2.018831,10.11192 2.01883,10.11192 3.349199,-9.450528 3.349198,-9.450528 -1.359066,-1.362944 C 40.230613,12.821883 40.120883,11.444145 41.470023,9.7732745 42.732912,8.209224 45.66182,8.1015496 46.740582,9.579515 c 1.142237,1.564929 0.692439,4.67583 -0.76904,5.318845 -1.186845,0.522183 -1.204927,0.678673 -1.204927,10.427744 0,5.443683 0.142381,9.754819 0.316402,9.580301 0.174022,-0.174518 2.201046,-3.406068 4.504499,-7.181223 l 4.188095,-6.863918 -1.023596,-1.305005 c -0.562979,-0.717753 -1.023597,-1.75576 -1.023597,-2.306682 0,-1.489582 1.932167,-3.149881 3.665662,-3.149881 3.54458,0 4.574617,4.894057 1.356373,6.444614 -1.346867,0.648926 -1.802287,1.327748 -2.341993,3.490833 -1.710213,6.854371 -5.414389,19.249132 -6.403003,21.425468 -1.358536,2.990678 -1.358418,3.354692 0.0021,6.439115 1.216113,2.757072 1.108073,3.213995 -1.021027,4.318135 -3.361676,1.743354 -17.617246,2.458352 -25.761232,1.292075 z m 24.325784,-2.032841 c 1.924264,-0.612383 2.033851,-0.741275 1.169261,-1.375286 -3.313406,-2.429732 -25.530681,-2.55221 -29.97805,-0.165261 -1.308358,0.70221 -0.924241,0.991557 2.436873,1.835662 3.651955,0.917144 23.251884,0.697812 26.371916,-0.295115 z M 25.464636,51.07115 c 6.485029,-0.63641 16.978087,-0.03316 20.094996,1.155266 1.593229,0.607473 1.582935,0.639056 0.500769,-1.536385 -1.060202,-2.13129 -3.217918,-3.062934 -8.93138,-3.856334 -4.970122,-0.690175 -11.560318,-0.324093 -15.812164,0.878359 -2.171725,0.614179 -3.07658,1.203033 -3.880542,2.525345 -1.380725,2.270945 -1.325896,2.607662 0.322291,1.979235 0.7561,-0.288289 4.223813,-0.803757 7.70603,-1.145486 z M 24.796251,45.722475 C 30.386198,44.924457 39.61283,45.45873 43.08401,46.781438 l 2.692806,1.026105 0.538282,-1.54852 c 0.490658,-1.411518 0.398381,-1.621071 -1.043003,-2.368566 -0.869707,-0.451026 -3.327359,-1.047497 -5.461449,-1.325491 -7.716399,-1.005166 -18.568957,-0.345007 -21.790152,1.325491 -1.456612,0.755392 -1.537424,0.946224 -1.024978,2.420422 0.543079,1.562322 0.59283,1.581435 2.092307,0.803813 0.8448,-0.43811 3.413593,-1.064607 5.708428,-1.392217 z m 6.582282,-4.501694 c 10.197504,0 11.16063,0.08445 13.543109,1.187548 l 2.564883,1.187547 0.535131,-1.411514 c 1.088353,-2.870754 -2.403549,-3.648837 -16.375362,-3.648837 -13.922637,0 -17.46237,0.781629 -16.38687,3.618479 l 0.523621,1.381156 2.30863,-1.157189 c 2.138598,-1.071962 3.117186,-1.15719 13.286858,-1.15719 z m -14.59301,-2.755226 c 0.66271,-0.178106 1.204927,-0.523908 1.204927,-0.768448 0,-0.659359 -6.565235,-11.284899 -6.816773,-11.032643 -0.236585,0.23726 0.429713,2.951262 2.090339,8.514491 1.090596,3.653583 1.328801,3.875899 3.521507,3.2866 z m 32.470656,-0.601344 c 1.514849,-5.129534 3.018852,-11.043181 2.851315,-11.211197 -0.240054,-0.240739 -6.805356,10.483008 -6.805356,11.115851 0,0.436368 1.224706,0.865675 2.77541,0.972887 0.495593,0.03426 1.025977,-0.360629 1.178631,-0.877541 z M 25.774284,36.547538 c 0.210298,-0.210898 -5.462656,-16.5397 -5.897851,-16.976137 -0.153677,-0.154116 -0.279413,3.82806 -0.279413,8.849279 l 0,9.129488 2.995201,-0.407618 c 1.647361,-0.224189 3.079289,-0.491944 3.182063,-0.595012 z m 17.905,-8.081723 c -0.01058,-6.019194 -0.19195,-8.962764 -0.517798,-8.403742 -0.907735,1.557299 -5.875008,16.252978 -5.590197,16.538601 0.153196,0.153633 1.413091,0.438279 2.799767,0.632547 1.386675,0.194267 2.701966,0.385504 2.92287,0.424971 0.220903,0.03947 0.394314,-4.097103 0.385358,-9.192377 z M 33.612353,27.161394 c -1.301599,-6.532703 -2.023257,-9.171309 -2.313416,-8.458556 -0.231939,0.569743 -1.042849,4.419318 -1.802021,8.554612 -0.759173,4.135294 -1.506068,7.941645 -1.659767,8.458557 -0.248524,0.835817 0.160301,0.939839 3.693728,0.939839 l 3.973183,0 -1.891707,-9.494452 z M 9.8648288,17.963757 c 0.1889952,-1.337004 -0.7196501,-2.789959 -1.7447772,-2.789959 -1.5072228,0 -2.6086564,1.427716 -2.2394684,2.902874 0.3153306,1.259961 0.5998696,1.436085 2.0871801,1.291925 1.3290263,-0.128818 1.7620157,-0.449461 1.8970655,-1.40484 z M 57.520429,17.729332 c 0.131149,-1.142516 -0.135225,-1.611366 -1.189071,-2.0929 -1.655013,-0.756228 -2.99637,0.107912 -2.99637,1.930347 0,1.618407 0.484206,1.981898 2.390608,1.794619 1.326068,-0.130269 1.656978,-0.43117 1.794833,-1.632066 z M 20.646716,13.319919 c 1.422594,-1.719012 -0.666852,-4.3596595 -2.522385,-3.187797 -1.854158,1.170994 -1.193589,3.967574 0.937166,3.967574 0.516946,0 1.230295,-0.3509 1.585219,-0.779777 z m 25.169595,0 c 0.832523,-1.005991 0.541735,-2.436386 -0.648054,-3.187797 -1.717074,-1.0844182 -3.67704,1.093652 -2.873595,3.193368 0.383925,1.003349 2.68972,0.999701 3.521649,-0.0056 z M 33.955024,10.712864 c 0.210854,-1.0651295 -2.14414,-2.6534026 -3.283933,-2.2147752 -1.750927,0.6738108 -1.689535,3.7163072 0.08363,4.1447182 1.139465,0.275303 2.983942,-0.83701 3.200299,-1.929943 z"
       id="path3017"
       inkscape:connector-curvature="0" />
    <path
       style="fill:#ffffff"
       d="m 22.909091,56.12133 c -2.581029,-0.147266 -5.693313,-0.774138 -6.533763,-1.316021 -0.220509,-0.142174 -0.222756,-0.214429 -0.01447,-0.465394 1.542287,-1.858342 16.139805,-2.687427 25.564442,-1.451965 2.903493,0.380615 5.165613,1.143 5.165613,1.740927 0,0.282432 -1.231774,0.728972 -2.727273,0.988685 -2.312954,0.401675 -7.780914,0.629629 -14.259349,0.594459 -3.407358,-0.0185 -6.645196,-0.05931 -7.195196,-0.09069 z"
       id="path3019"
       inkscape:connector-curvature="0" />
    <path
       style="fill:#ffffff"
       d="m 16.545455,52.225649 c 0,-0.504456 1.233461,-2.438207 1.967206,-3.084076 0.962669,-0.847374 2.701916,-1.450684 5.847288,-2.028306 1.790738,-0.328855 2.819935,-0.386402 7.094596,-0.396694 4.471493,-0.01076 5.230622,0.03167 7.181819,0.401438 5.170621,0.979883 6.709631,1.866186 7.808887,4.497078 0.157738,0.377519 0.246136,0.727056 0.196442,0.77675 -0.04969,0.04969 -0.684858,-0.08531 -1.411477,-0.3 -5.691936,-1.681796 -19.946987,-1.693575 -27.017299,-0.02232 -1.781194,0.421031 -1.667462,0.410382 -1.667462,0.156134 z"
       id="path3021"
       inkscape:connector-curvature="0" />
    <path
       style="fill:#ffffff"
       d="m 44.218665,47.15713 c -3.414361,-1.342819 -6.186254,-1.706 -13.036847,-1.708122 -5.143631,-0.0016 -5.589275,0.02516 -7.818182,0.469402 -2.16826,0.432151 -3.373392,0.781251 -4.953891,1.435037 -0.740714,0.306401 -0.965575,0.108063 -1.399789,-1.234685 -0.232984,-0.720472 -0.258236,-1.033604 -0.106252,-1.317588 0.414072,-0.773701 2.70147,-1.56614 6.096296,-2.11198 2.521133,-0.405362 11.67788,-0.568697 14.78026,-0.263644 4.422475,0.434856 8.089275,1.4452 8.646049,2.382319 0.181204,0.304986 -0.494556,2.902386 -0.749724,2.881699 -0.07212,-0.0058 -0.728185,-0.245444 -1.45792,-0.532438 l 0,0 z"
       id="path3023"
       inkscape:connector-curvature="0" />
    <path
       style="fill:#ffffff"
       d="m 45.346915,42.581138 c -1.109199,-0.485464 -2.500108,-0.982674 -3.09091,-1.10491 -1.58061,-0.327027 -19.87134,-0.319886 -21.619641,0.0084 -0.7,0.131458 -2.038722,0.60107 -2.974937,1.043582 -0.936216,0.442512 -1.768596,0.763538 -1.849735,0.713392 -0.266005,-0.1644 -0.750234,-1.889495 -0.633561,-2.257098 0.315391,-0.993711 1.940184,-1.626201 5.185505,-2.018585 0.85,-0.102771 4.818182,-0.235471 8.818182,-0.294888 12.759393,-0.18953 18.110915,0.41254 18.81692,2.116991 0.180071,0.434729 0.163373,0.69975 -0.09407,1.493069 -0.172151,0.530487 -0.364309,1.013605 -0.427016,1.073595 -0.06271,0.05999 -1.02154,-0.288124 -2.130736,-0.773589 z"
       id="path3025"
       inkscape:connector-curvature="0" />
    <path
       style="fill:#ffffff"
       d="m 28.545455,36.478225 c -0.25,-0.04485 -0.517298,-0.141459 -0.593994,-0.214688 -0.0767,-0.07323 0.474939,-3.277665 1.225857,-7.120968 1.515965,-7.758921 2.095263,-10.351461 2.313014,-10.351461 0.08032,0 0.146032,0.02889 0.146032,0.0642 0,0.03531 0.243212,0.996673 0.540473,2.136364 0.29726,1.13969 1.114445,4.935801 1.815967,8.435801 0.701522,3.5 1.318959,6.547727 1.372082,6.772727 l 0.09659,0.409091 -3.230736,-0.02476 c -1.776906,-0.01362 -3.435282,-0.06146 -3.685282,-0.106305 z"
       id="path3027"
       inkscape:connector-curvature="0" />
    <path
       style="fill:#ffffff"
       d="m 19.65772,30.461495 c 0.01174,-3.868713 0.07311,-7.852205 0.136363,-8.852205 l 0.115008,-1.818182 0.518821,1.272727 c 1.258411,3.087029 5.208452,14.657048 5.208452,15.256017 0,0.159191 -0.03913,0.289438 -0.08696,0.289438 -0.04783,0 -1.091009,0.156402 -2.318182,0.347561 -1.227173,0.191158 -2.538041,0.39056 -2.913041,0.443114 l -0.681818,0.09555 0.02136,-7.034024 z"
       id="path3029"
       inkscape:connector-curvature="0" />
    <path
       style="fill:#ffffff"
       d="m 14.569356,38.229423 c -0.217245,-0.233186 -0.631489,-1.163564 -0.920541,-2.067508 -0.990278,-3.096869 -2.402403,-8.453925 -2.337342,-8.866973 0.05168,-0.328111 0.360924,0.03521 1.505582,1.768893 2.338315,3.541572 5.015335,8.152163 4.960708,8.543752 -0.06336,0.454173 -0.782935,0.80533 -1.928198,0.940969 -0.768483,0.09101 -0.937304,0.04893 -1.280209,-0.319133 l 0,0 z"
       id="path3031"
       inkscape:connector-curvature="0" />
    <path
       style="fill:#ffffff"
       d="m 40.350307,37.160212 c -2.75585,-0.464761 -2.760563,-0.466849 -2.61327,-1.157571 0.366408,-1.718248 4.293114,-13.293583 5.18651,-15.289047 l 0.320361,-0.715548 0.144431,0.714713 c 0.182621,0.903688 0.193662,15.632446 0.01222,16.305622 -0.161403,0.59884 -0.301691,0.605363 -3.050255,0.141831 l 0,0 z"
       id="path3033"
       inkscape:connector-curvature="0" />
    <path
       style="fill:#ffffff"
       d="M 46.272727,38.33132 C 45.872727,38.187215 45.525,38.068079 45.5,38.066573 c -0.158512,-0.0095 0.01088,-0.673098 0.333021,-1.304552 1.136035,-2.226812 5.938656,-9.896205 6.097559,-9.737302 0.203461,0.20346 -2.511155,10.476942 -2.952955,11.17548 -0.210251,0.332432 -0.419786,0.407596 -1.11818,0.40111 -0.472695,-0.0044 -1.186718,-0.125884 -1.586718,-0.269989 z"
       id="path3035"
       inkscape:connector-curvature="0" />
    <path
       style="fill:#ffffff"
       d="m 53.818182,18.972926 c -0.657032,-0.657032 -0.445917,-2.612032 0.34788,-3.22149 0.626766,-0.481215 2.214396,-0.216233 2.917586,0.486957 0.422399,0.422399 0.500136,1.524685 0.160149,2.270875 -0.380775,0.83571 -2.734928,1.154345 -3.425615,0.463658 z"
       id="path3037"
       inkscape:connector-curvature="0" />
    <path
       style="fill:#ffffff"
       d="m 42.965277,13.797281 c -1.386655,-0.603061 -0.749301,-3.472451 0.849297,-3.8235623 0.697736,-0.1532484 1.655728,0.3053583 2.057051,0.9847443 0.697001,1.179928 0.172751,2.560801 -1.107168,2.916278 -0.86319,0.239736 -1.092534,0.229863 -1.79918,-0.07746 z"
       id="path3039"
       inkscape:connector-curvature="0" />
    <path
       style="fill:#ffffff"
       d="m 30.318178,12.412906 c -0.453488,-0.264132 -0.863747,-1.138913 -0.862953,-1.840041 8.81e-4,-0.7778097 0.594368,-1.7404853 1.219539,-1.9781749 1.043046,-0.3965654 3.143418,0.9137184 3.143418,1.9609709 0,1.240788 -2.385277,2.506514 -3.500004,1.857245 z"
       id="path3041"
       inkscape:connector-curvature="0" />
    <path
       style="fill:#ffffff"
       d="m 18.184348,13.745371 c -1.243872,-0.623863 -1.426097,-2.160066 -0.380284,-3.20588 1.080068,-1.0800674 2.658882,-0.5819058 3.129027,0.987299 0.265673,0.886735 -0.169457,1.846625 -1.020073,2.250269 -0.763665,0.362382 -0.949767,0.358971 -1.72867,-0.03169 z"
       id="path3043"
       inkscape:connector-curvature="0" />
    <path
       style="fill:#ffffff"
       d="M 6.505387,19.143196 C 6.1045418,18.909567 5.7850111,17.729689 5.9284108,17.012691 c 0.2211865,-1.105933 1.7592197,-2.050657 2.6246027,-1.61214 0.973589,0.493348 1.5121075,1.991809 1.0857425,3.021145 -0.1626316,0.392627 -0.4114062,0.597176 -0.8869385,0.729262 -0.8352286,0.231997 -1.8410297,0.228521 -2.2464305,-0.0078 l 0,0 z"
       id="path3045"
       inkscape:connector-curvature="0" />
  </g>
</svg>
