<?xml version="1.0" encoding="UTF-8" standalone="no"?>
<!-- Created with Inkscape (http://www.inkscape.org/) -->

<svg
   xmlns:dc="http://purl.org/dc/elements/1.1/"
   xmlns:cc="http://creativecommons.org/ns#"
   xmlns:rdf="http://www.w3.org/1999/02/22-rdf-syntax-ns#"
   xmlns:svg="http://www.w3.org/2000/svg"
   xmlns="http://www.w3.org/2000/svg"
   xmlns:sodipodi="http://sodipodi.sourceforge.net/DTD/sodipodi-0.dtd"
   xmlns:inkscape="http://www.inkscape.org/namespaces/inkscape"
   width="64px"
   height="64px"
   id="svg2985"
   version="1.1"
   inkscape:version="0.48.1 "
   sodipodi:docname="bq.svg">
  <defs
     id="defs2987" />
  <sodipodi:namedview
     id="base"
     pagecolor="#ffffff"
     bordercolor="#666666"
     borderopacity="1.0"
     inkscape:pageopacity="0.0"
     inkscape:pageshadow="2"
     inkscape:zoom="5.5"
     inkscape:cx="32"
     inkscape:cy="39.531683"
     inkscape:current-layer="layer1"
     showgrid="true"
     inkscape:document-units="px"
     inkscape:grid-bbox="true"
     inkscape:window-width="1365"
     inkscape:window-height="878"
     inkscape:window-x="-8"
     inkscape:window-y="-8"
     inkscape:window-maximized="1" />
  <metadata
     id="metadata2990">
    <rdf:RDF>
      <cc:Work
         rdf:about="">
        <dc:format>image/svg+xml</dc:format>
        <dc:type
           rdf:resource="http://purl.org/dc/dcmitype/StillImage" />
        <dc:title></dc:title>
      </cc:Work>
    </rdf:RDF>
  </metadata>
  <g
     id="layer1"
     inkscape:label="Layer 1"
     inkscape:groupmode="layer">
    <path
       style="fill:#000000"
       d="m 12.4534,53.659661 0,-2.685256 1.874332,0 1.874331,0 0,-2.576262 c 0,-2.297995 0.231373,-2.802836 2.142093,-4.673928 l 2.142094,-2.097666 0,-8.911883 0,-8.911883 -2.142094,-2.097666 -2.142093,-2.097666 0,-4.992992 0,-4.9929928 3.480902,0 3.480901,0 0,2.1482048 0,2.148204 2.409855,0 2.409855,0 0,-2.148204 0,-2.1482048 4.016424,0 4.016425,0 0,2.1482048 0,2.148204 2.409855,0 2.409855,0 0,-2.148204 0,-2.1482048 3.480901,0 3.480902,0 0,5.0566958 0,5.056696 -2.142094,2.035632 -2.142093,2.035632 0,8.910214 0,8.910213 2.142093,2.097666 c 1.910721,1.871092 2.142094,2.375933 2.142094,4.673928 l 0,2.576262 1.874331,0 1.874332,0 0,2.685256 0,2.685256 -19.546601,0 -19.5466,0 0,-2.685256 z m 38.022154,0 0,-1.611153 -18.475554,0 -18.475553,0 0,1.611153 0,1.611154 18.475553,0 18.475554,0 0,-1.611154 z m -3.748663,-4.83346 0,-2.148205 -14.726891,0 -14.72689,0 0,2.148205 0,2.148204 14.72689,0 14.726891,0 0,-2.148204 z m -2.409855,-4.833461 -1.539191,-1.611153 -10.777845,0 -10.777844,0 -1.539191,1.611153 -1.539192,1.611154 13.856227,0 13.856228,0 -1.539192,-1.611154 z m -1.874331,-11.009548 0,-8.324293 -10.442705,0 -10.442704,0 0,8.324293 0,8.324293 10.442704,0 10.442705,0 0,-8.324293 z m 1.874331,-11.5466 1.539192,-1.611154 -13.856228,0 -13.856227,0 1.539192,1.611154 1.539191,1.611153 10.777844,0 10.777845,0 1.539191,-1.611153 z m 2.409855,-6.71314 0,-4.027884 -2.409855,0 -2.409855,0 0,2.148205 0,2.148205 -3.480901,0 -3.480901,0 0,-2.148205 0,-2.148205 -2.945379,0 -2.945378,0 0,2.148205 0,2.148205 -3.480901,0 -3.480901,0 0,-2.148205 0,-2.148205 -2.409855,0 -2.409855,0 0,4.027884 0,4.027884 14.72689,0 14.726891,0 0,-4.027884 z"
       id="path3077"
       inkscape:connector-curvature="0" />
    <path
       style="fill:#ffffff"
       d="m 13.636364,53.613772 0,-1.545455 18.363636,0 18.363636,0 0,1.545455 0,1.545455 -18.363636,0 -18.363636,0 0,-1.545455 z"
       id="path3079"
       inkscape:connector-curvature="0" />
    <path
       style="fill:#ffffff"
       d="m 17.272727,48.886499 0,-2.090909 14.727273,0 14.727273,0 0,2.090909 0,2.090909 -14.727273,0 -14.727273,0 0,-2.090909 z"
       id="path3081"
       inkscape:connector-curvature="0" />
    <path
       style="fill:#ffffff"
       d="m 19.753645,43.988456 1.428173,-1.534407 10.818182,0 10.818182,0 1.428173,1.534407 1.428172,1.534407 -13.674527,0 -13.674528,0 1.428173,-1.534407 z"
       id="path3083"
       inkscape:connector-curvature="0" />
    <path
       style="fill:#ffffff"
       d="m 21.636364,32.977408 0,-8.181818 10.363636,0 10.363636,0 0,8.181818 0,8.181819 -10.363636,0 -10.363636,0 0,-8.181819 z"
       id="path3085"
       inkscape:connector-curvature="0" />
    <path
       style="fill:#ffffff"
       d="m 19.753653,21.431954 -1.414417,-1.545455 13.660764,0 13.660764,0 -1.414417,1.545455 -1.414416,1.545454 -10.831931,0 -10.83193,0 -1.414417,-1.545454 z"
       id="path3087"
       inkscape:connector-curvature="0" />
    <path
       style="fill:#ffffff"
       d="m 17.272727,14.704681 0,-3.909091 2.363637,0 2.363636,0 0,2.090909 0,2.090909 3.545455,0 3.545454,0 0,-2.090909 0,-2.090909 2.909091,0 2.909091,0 0,2.090909 0,2.090909 3.545454,0 3.545455,0 0,-2.090909 0,-2.090909 2.363636,0 2.363637,0 0,3.909091 0,3.909091 -14.727273,0 -14.727273,0 0,-3.909091 z"
       id="path3089"
       inkscape:connector-curvature="0" />
  </g>
</svg>
