<?xml version="1.0" encoding="UTF-8" standalone="no"?>
<!-- Created with Inkscape (http://www.inkscape.org/) -->

<svg
   xmlns:dc="http://purl.org/dc/elements/1.1/"
   xmlns:cc="http://creativecommons.org/ns#"
   xmlns:rdf="http://www.w3.org/1999/02/22-rdf-syntax-ns#"
   xmlns:svg="http://www.w3.org/2000/svg"
   xmlns="http://www.w3.org/2000/svg"
   xmlns:sodipodi="http://sodipodi.sourceforge.net/DTD/sodipodi-0.dtd"
   xmlns:inkscape="http://www.inkscape.org/namespaces/inkscape"
   width="64px"
   height="64px"
   id="svg2985"
   version="1.1"
   inkscape:version="0.48.1 "
   sodipodi:docname="wk.svg">
  <defs
     id="defs2987" />
  <sodipodi:namedview
     id="base"
     pagecolor="#ffffff"
     bordercolor="#666666"
     borderopacity="1.0"
     inkscape:pageopacity="0.0"
     inkscape:pageshadow="2"
     inkscape:zoom="5.5"
     inkscape:cx="10.272727"
     inkscape:cy="32"
     inkscape:current-layer="layer1"
     showgrid="true"
     inkscape:document-units="px"
     inkscape:grid-bbox="true"
     inkscape:window-width="1365"
     inkscape:window-height="878"
     inkscape:window-x="-8"
     inkscape:window-y="-8"
     inkscape:window-maximized="1" />
  <metadata
     id="metadata2990">
    <rdf:RDF>
      <cc:Work
         rdf:about="">
        <dc:format>image/svg+xml</dc:format>
        <dc:type
           rdf:resource="http://purl.org/dc/dcmitype/StillImage" />
        <dc:title></dc:title>
      </cc:Work>
    </rdf:RDF>
  </metadata>
  <g
     id="layer1"
     inkscape:label="Layer 1"
     inkscape:groupmode="layer">
    <text
       xml:space="preserve"
       style="font-size:64px;font-style:normal;font-variant:normal;font-weight:normal;font-stretch:normal;line-height:125%;letter-spacing:0px;word-spacing:0px;fill:#000000;fill-opacity:1;stroke:none;font-family:Traveller Standard;-inkscape-font-specification:Traveller Standard"
       x="-2.4375"
       y="64.078125"
       id="text3107"
       sodipodi:linespacing="125%"><tspan
         sodipodi:role="line"
         id="tspan3109"
         x="-2.4375"
         y="64.078125">b</tspan></text>
    <path
       style="fill:#ffffff;fill-opacity:1;fill-rule:evenodd"
       d="m 26.218182,47.248578 c -0.7,-0.0714 -1.461471,-0.192168 -1.692158,-0.26837 -0.605482,-0.200006 -0.42352,-0.690607 0.3288,-0.886503 0.922784,-0.240283 13.23554,-0.06493 13.863358,0.197435 0.56756,0.237184 0.654097,0.652639 0.181818,0.872882 -0.402774,0.187829 -10.978087,0.258341 -12.681818,0.08456 z"
       id="path3111"
       inkscape:connector-curvature="0" />
    <path
       style="fill:#ffffff;fill-opacity:1;fill-rule:evenodd"
       d="m 38.089233,43.220418 c -4.222455,-1.104313 -8.9839,-1.059243 -13.663892,0.129338 -0.586062,0.148843 -1.096805,0.239386 -1.134985,0.201206 -0.116553,-0.116553 1.15564,-3.133016 1.31983,-3.129414 0.0844,0.0019 0.971632,0.124578 1.971632,0.272727 2.50056,0.370455 7.76237,0.336128 10.411502,-0.06792 1.126326,-0.171789 2.152661,-0.352557 2.280745,-0.401707 0.163721,-0.06283 0.351986,0.414862 0.633952,1.608536 0.220591,0.933845 0.401074,1.754316 0.401074,1.823268 0,0.153408 0.136278,0.180177 -2.219858,-0.436032 z"
       id="path3113"
       inkscape:connector-curvature="0" />
    <path
       style="fill:#ffffff;fill-opacity:1;fill-rule:evenodd"
       d="m 29.036364,28.054545 0,-2.090909 -3,0 -3,0 0,-2.090909 0,-2.090909 2.994567,0 2.994568,0 0.05089,-2.318182 0.05089,-2.318181 2.136363,-0.05122 2.136364,-0.05122 0,2.343506 0,2.343505 1.11758,0.11681 c 0.614669,0.06425 1.955153,0.11681 2.978853,0.11681 l 1.861273,0 0.08319,1.863637 c 0.04575,1.025 0.05044,1.925 0.01042,2 -0.04002,0.075 -1.417945,0.136363 -3.062043,0.136363 l -2.98927,0 0,2.090909 0,2.09091 -2.181818,0 -2.181818,0 0,-2.09091 z"
       id="path3115"
       inkscape:connector-curvature="0" />
  </g>
</svg>
