<?xml version="1.0" encoding="UTF-8" standalone="no"?>
<!-- Created with Inkscape (http://www.inkscape.org/) -->

<svg
   xmlns:dc="http://purl.org/dc/elements/1.1/"
   xmlns:cc="http://creativecommons.org/ns#"
   xmlns:rdf="http://www.w3.org/1999/02/22-rdf-syntax-ns#"
   xmlns:svg="http://www.w3.org/2000/svg"
   xmlns="http://www.w3.org/2000/svg"
   xmlns:sodipodi="http://sodipodi.sourceforge.net/DTD/sodipodi-0.dtd"
   xmlns:inkscape="http://www.inkscape.org/namespaces/inkscape"
   width="64px"
   height="64px"
   id="svg2985"
   version="1.1"
   inkscape:version="0.48.1 "
   sodipodi:docname="wp.svg">
  <defs
     id="defs2987" />
  <sodipodi:namedview
     id="base"
     pagecolor="#ffffff"
     bordercolor="#666666"
     borderopacity="1.0"
     inkscape:pageopacity="0.0"
     inkscape:pageshadow="2"
     inkscape:zoom="5.5"
     inkscape:cx="10.272727"
     inkscape:cy="32"
     inkscape:current-layer="layer1"
     showgrid="true"
     inkscape:document-units="px"
     inkscape:grid-bbox="true"
     inkscape:window-width="1365"
     inkscape:window-height="878"
     inkscape:window-x="-8"
     inkscape:window-y="-8"
     inkscape:window-maximized="1" />
  <metadata
     id="metadata2990">
    <rdf:RDF>
      <cc:Work
         rdf:about="">
        <dc:format>image/svg+xml</dc:format>
        <dc:type
           rdf:resource="http://purl.org/dc/dcmitype/StillImage" />
        <dc:title></dc:title>
      </cc:Work>
    </rdf:RDF>
  </metadata>
  <g
     id="layer1"
     inkscape:label="Layer 1"
     inkscape:groupmode="layer">
    <text
       xml:space="preserve"
       style="font-size:64px;font-style:normal;font-variant:normal;font-weight:normal;font-stretch:normal;line-height:125%;letter-spacing:0px;word-spacing:0px;fill:#000000;fill-opacity:1;stroke:none;font-family:Traveller Standard;-inkscape-font-specification:Traveller Standard"
       x="-1.1875"
       y="64.078125"
       id="text3077"
       sodipodi:linespacing="125%"><tspan
         sodipodi:role="line"
         id="tspan3079"
         x="-1.1875"
         y="64.078125">k</tspan></text>
    <path
       style="fill:#ffffff;fill-opacity:1;fill-rule:evenodd"
       d="m 31.069233,27.906542 c -1.147797,-3.172093 -2.335824,-8.850587 -2.523268,-12.060644 -0.09882,-1.692408 -0.07442,-1.898918 0.295059,-2.496747 0.768063,-1.242751 2.119427,-1.881525 3.305067,-1.562265 1.556149,0.419027 2.314437,2.238912 2.077251,4.985386 -0.279991,3.242131 -1.537526,9.704886 -2.338662,12.018912 l -0.242204,0.699591 -0.573243,-1.584233 z m 0.940622,-3.717638 c 0.255643,-1.141297 0.865012,-5.206409 1.123964,-7.497995 0.181852,-1.609286 -0.850285,-4 -1.72691,-4 -0.446899,0 -1.168172,0.877795 -1.556254,1.893974 -0.299515,0.784269 -0.295962,0.930217 0.0876,3.59809 0.770355,5.358176 1.26007,7.563128 1.629102,7.335053 0.09242,-0.05712 0.291545,-0.655225 0.442495,-1.329122 z"
       id="path3081"
       inkscape:connector-curvature="0" />
    <path
       style="fill:#ffffff;fill-opacity:1;fill-rule:evenodd"
       d="m 40.309091,42.939425 c -0.85,-0.140385 -2.731818,-0.315096 -4.181818,-0.388245 l -2.636364,-0.132998 0.02,-3.454546 c 0.02406,-4.156456 0.262903,-5.479075 1.905665,-10.552811 1.196176,-3.694436 1.890362,-5.24126 3.269277,-7.28478 1.828538,-2.709849 3.331698,-3.526614 6.745757,-3.665407 1.827518,-0.07429 2.305733,-0.03064 3.440786,0.314125 1.145248,0.347858 1.46463,0.547611 2.433364,1.521916 1.227389,1.234448 1.9381,2.70751 2.638525,5.468769 0.501885,1.978561 0.46412,2.582259 -0.28872,4.615219 -1.181947,3.191714 -2.519259,5.392738 -6.118038,10.069424 -3.122741,4.058065 -2.811944,3.790033 -4.366197,3.765427 -0.724229,-0.01146 -2.012234,-0.135705 -2.862234,-0.276093 z m 3.450134,-1.754367 c 1.19186,-0.603067 5.231352,-6.302723 7.120855,-10.047407 1.073776,-2.128047 1.158953,-2.386204 1.216065,-3.685716 0.0737,-1.676974 -0.482101,-4.622368 -1.098153,-5.819473 -0.812385,-1.578619 -2.59342,-2.497811 -5.234385,-2.701468 -1.579079,-0.121769 -2.876276,0.183436 -3.855914,0.907221 -0.482247,0.356299 -2.753122,3.722988 -3.457162,5.125421 -0.311842,0.621185 -1.9424,5.996508 -2.481884,8.181819 -0.50374,2.040527 -1.285868,7.502243 -1.083119,7.563585 0.03296,0.01 1.287199,0.164127 2.787199,0.342569 3.314184,0.394256 5.477324,0.441684 6.086498,0.133449 l 0,0 z"
       id="path3083"
       inkscape:connector-curvature="0" />
    <path
       style="fill:#ffffff;fill-opacity:1;fill-rule:evenodd"
       d="m 21.835129,42.930336 -2.201234,-0.06838 -3.353366,-3.403704 c -3.062175,-3.108142 -3.41892,-3.537904 -4.108291,-4.949158 -0.916461,-1.876146 -1.410099,-3.615834 -1.696484,-5.978783 -0.188007,-1.551241 -0.175538,-1.963579 0.09634,-3.185604 0.171764,-0.772045 0.676652,-2.131551 1.121973,-3.021124 1.038808,-2.07512 2.284794,-3.447312 3.8137,-4.19999 1.045145,-0.514523 1.337377,-0.575318 2.734569,-0.568892 1.460892,0.0067 1.664756,0.05694 3.082026,0.759224 3.067439,1.519976 4.242421,3.376835 5.976303,9.444536 1.722713,6.028607 1.992233,7.57412 2.000934,11.473938 l 0.0075,3.359668 -0.727272,0.126349 c -1.0896,0.189296 -4.264663,0.289029 -6.746689,0.211923 l 3e-6,0 z m 3.880486,-1.63012 2.224706,-0.30614 0.104706,-0.560674 C 28.181382,39.703253 27.866193,37.175473 27.283653,34.327273 26.621505,31.08985 25.127067,25.128796 24.674035,23.917959 24.08996,22.356877 22.948943,21.213292 21.003979,20.23964 c -2.388088,-1.19548 -3.342024,-1.101691 -5.17121,0.508422 -1.241989,1.093243 -2.171193,2.346427 -2.619907,3.533377 -1.120462,2.963876 0.235197,8.603347 3.004938,12.500379 1.08829,1.531227 4.03467,4.331509 4.818564,4.579633 0.94008,0.29756 2.190841,0.281193 4.679251,-0.06124 l 0,0 z"
       id="path3085"
       inkscape:connector-curvature="0" />
    <path
       style="fill:#ffffff;fill-opacity:1;fill-rule:evenodd"
       d="m 42.581818,51.204756 c -5.901527,-1.548863 -12.947364,-1.88574 -18.545454,-0.886701 -2.044673,0.364894 -3.900203,0.78677 -4.539609,1.032133 -0.214069,0.08215 -0.278573,-0.02639 -0.278573,-0.468739 0,-0.3166 0.07325,-0.530369 0.162766,-0.475042 0.181606,0.112239 0.382688,-0.30343 0.382688,-0.791078 0,-0.264533 0.377784,-0.38612 2.227273,-0.716831 3.474364,-0.62126 4.555797,-0.741956 7.772727,-0.867499 4.265391,-0.16646 9.597737,0.280799 13.667929,1.14642 1.537684,0.327024 1.597702,0.395633 1.602317,1.831672 0.0029,0.901622 0.183031,0.887248 -2.452064,0.195665 z"
       id="path3087"
       inkscape:connector-curvature="0" />
    <path
       style="fill:#ffffff;fill-opacity:1;fill-rule:evenodd"
       d="m 18.214545,56.372727 c 0.07071,-0.475 0.141363,-0.873993 0.157008,-0.88665 0.01565,-0.01266 1.092083,-0.233688 2.392083,-0.491177 4.387144,-0.868956 7.115418,-1.081268 12.545455,-0.976276 4.989302,0.09647 6.902145,0.287521 10.590909,1.057799 l 1.863636,0.38916 0,0.815118 c 0,0.939293 0.288544,0.912335 -2.818181,0.263296 -3.05474,-0.638179 -6.566742,-0.954711 -10.565346,-0.952239 -4.23309,0.0026 -7.415813,0.312037 -11.392008,1.107517 -1.476545,0.295399 -2.733562,0.537089 -2.793372,0.537089 -0.05981,0 -0.05089,-0.388637 0.01982,-0.863637 z"
       id="path3089"
       inkscape:connector-curvature="0" />
  </g>
</svg>
