<?xml version="1.0" encoding="UTF-8" standalone="no"?>
<!-- Created with Inkscape (http://www.inkscape.org/) -->

<svg
   xmlns:dc="http://purl.org/dc/elements/1.1/"
   xmlns:cc="http://creativecommons.org/ns#"
   xmlns:rdf="http://www.w3.org/1999/02/22-rdf-syntax-ns#"
   xmlns:svg="http://www.w3.org/2000/svg"
   xmlns="http://www.w3.org/2000/svg"
   xmlns:sodipodi="http://sodipodi.sourceforge.net/DTD/sodipodi-0.dtd"
   xmlns:inkscape="http://www.inkscape.org/namespaces/inkscape"
   width="64px"
   height="64px"
   id="svg2985"
   version="1.1"
   inkscape:version="0.48.1 "
   sodipodi:docname="bb.svg">
  <defs
     id="defs2987" />
  <sodipodi:namedview
     id="base"
     pagecolor="#ffffff"
     bordercolor="#666666"
     borderopacity="1.0"
     inkscape:pageopacity="0.0"
     inkscape:pageshadow="2"
     inkscape:zoom="5.5"
     inkscape:cx="36.311688"
     inkscape:cy="15.872316"
     inkscape:current-layer="layer1"
     showgrid="true"
     inkscape:document-units="px"
     inkscape:grid-bbox="true"
     inkscape:window-width="1365"
     inkscape:window-height="878"
     inkscape:window-x="-8"
     inkscape:window-y="-8"
     inkscape:window-maximized="1" />
  <metadata
     id="metadata2990">
    <rdf:RDF>
      <cc:Work
         rdf:about="">
        <dc:format>image/svg+xml</dc:format>
        <dc:type
           rdf:resource="http://purl.org/dc/dcmitype/StillImage" />
        <dc:title />
      </cc:Work>
    </rdf:RDF>
  </metadata>
  <g
     id="layer1"
     inkscape:label="Layer 1"
     inkscape:groupmode="layer">
    <text
       xml:space="preserve"
       style="font-size:64px;font-style:normal;font-variant:normal;font-weight:bold;font-stretch:normal;line-height:125%;letter-spacing:0px;word-spacing:0px;fill:#000000;fill-opacity:1;stroke:none;font-family:ChessmasterX;-inkscape-font-specification:ChessmasterX Bold"
       x="0.15625"
       y="51.328125"
       id="text3115"
       sodipodi:linespacing="125%"><tspan
         sodipodi:role="line"
         id="tspan3117"
         x="0.15625"
         y="51.328125">ž</tspan></text>
    <path
       style="fill:#ffffff;fill-opacity:1;fill-rule:evenodd"
       d="m 23.438961,45.032249 0,-0.71994 1.227273,-0.287565 c 2.270678,-0.53205 3.396887,-0.678095 6.045454,-0.783966 3.376422,-0.134965 5.781288,0.106506 9.409091,0.944762 0.341309,0.07886 0.409091,0.216485 0.409091,0.830588 0,0.615689 -0.05203,0.720654 -0.318182,0.641849 -0.932402,-0.276081 -4.450403,-0.853638 -6.210928,-1.019661 -2.770084,-0.261227 -7.148805,0.177596 -10.243617,1.026587 -0.264156,0.07246 -0.318182,-0.03496 -0.318182,-0.632654 z"
       id="path3119"
       inkscape:connector-curvature="0" />
    <path
       style="fill:#ffffff;fill-opacity:1;fill-rule:evenodd"
       d="m 39.714947,41.549203 c -0.388797,-0.398164 -0.671311,-0.752298 -0.627808,-0.786964 0.0435,-0.03467 0.385913,-0.291334 0.760913,-0.570372 l 0.681818,-0.507342 0,1.294307 c 0,0.711869 -0.0243,1.294307 -0.05401,1.294307 -0.02971,0 -0.372117,-0.325771 -0.760914,-0.723936 z"
       id="path3121"
       inkscape:connector-curvature="0" />
    <path
       style="fill:#ffffff;fill-opacity:1;fill-rule:evenodd"
       d="m 30.669229,40.949326 c -1.380953,-0.873362 -1.433587,-0.648782 0.424237,-1.810145 l 0.836323,-0.522803 1.205926,0.768813 1.205925,0.768813 -1.172903,0.78684 c -0.645097,0.432762 -1.195927,0.785921 -1.224067,0.784799 -0.02814,-0.0011 -0.602088,-0.350466 -1.275441,-0.776317 z"
       id="path3123"
       inkscape:connector-curvature="0" />
    <path
       style="fill:#ffffff;fill-opacity:1;fill-rule:evenodd"
       d="m 23.438961,41.003064 c 0,-1.423698 0.02252,-1.433755 1.145529,-0.511641 l 0.509166,0.418079 -0.827347,0.690868 -0.827348,0.690867 0,-1.288173 z"
       id="path3125"
       inkscape:connector-curvature="0" />
    <path
       style="fill:#ffffff;fill-opacity:1;fill-rule:evenodd"
       d="m 31.075325,30.18223 0,-1.909091 -1.818182,0 -1.818182,0 0,-0.909091 0,-0.909091 1.818182,0 1.818182,0 0,-1.818182 0,-1.818182 0.811821,0 0.811821,0 0.05181,1.863637 0.05181,1.863636 1.863637,0.05182 1.863636,0.05181 0,0.811821 0,0.811822 -1.909091,0 -1.909091,0 0,1.909091 0,1.909091 -0.818182,0 -0.818181,0 0,-1.909091 z"
       id="path3127"
       inkscape:connector-curvature="0" />
    <path
       style="fill:#ffffff;fill-opacity:0.38624339;fill-rule:evenodd"
       d="m 23.402597,37.469691 c 0,-0.614308 0.06156,-0.690409 0.822284,-1.016493 1.748131,-0.749336 3.601176,-0.995964 7.450443,-0.991606 3.889746,0.0044 6.036376,0.274294 7.987272,1.004218 0.967363,0.361937 1.012728,0.40778 1.012728,1.023406 0,0.573458 -0.04509,0.634711 -0.409091,0.555721 -0.225,-0.04883 -1.268181,-0.280041 -2.318181,-0.513809 -1.678943,-0.373795 -2.391306,-0.425509 -5.909091,-0.428978 -3.551382,-0.0035 -4.214114,0.04417 -5.909091,0.425033 -1.05,0.235938 -2.093182,0.468927 -2.318182,0.517754 -0.365771,0.07937 -0.409091,0.01846 -0.409091,-0.575246 z"
       id="path3009"
       inkscape:connector-curvature="0" />
    <path
       style="fill:#ffffff"
       d="m 23.402597,37.497057 c 0,-0.582786 0.06937,-0.66343 0.863636,-1.004016 1.770798,-0.759328 3.552096,-1.005852 7.318182,-1.012806 3.713023,-0.0069 5.763613,0.239513 7.818182,0.93932 0.955582,0.32548 1.002571,0.371249 1.057874,1.030406 0.04839,0.576713 0.0091,0.671066 -0.239852,0.575548 -0.835606,-0.320652 -4.229275,-0.881348 -6.136613,-1.013881 -3.294754,-0.228937 -6.671246,0.100061 -10.181409,0.992055 -0.474118,0.120481 -0.5,0.09426 -0.5,-0.506626 z"
       id="path2998"
       inkscape:connector-curvature="0" />
  </g>
</svg>
