<?xml version="1.0" encoding="UTF-8" standalone="no"?>
<!-- Created with Inkscape (http://www.inkscape.org/) -->

<svg
   xmlns:dc="http://purl.org/dc/elements/1.1/"
   xmlns:cc="http://creativecommons.org/ns#"
   xmlns:rdf="http://www.w3.org/1999/02/22-rdf-syntax-ns#"
   xmlns:svg="http://www.w3.org/2000/svg"
   xmlns="http://www.w3.org/2000/svg"
   xmlns:sodipodi="http://sodipodi.sourceforge.net/DTD/sodipodi-0.dtd"
   xmlns:inkscape="http://www.inkscape.org/namespaces/inkscape"
   width="64px"
   height="64px"
   id="svg2985"
   version="1.1"
   inkscape:version="0.48.1 "
   sodipodi:docname="wk.svg">
  <defs
     id="defs2987" />
  <sodipodi:namedview
     id="base"
     pagecolor="#ffffff"
     bordercolor="#666666"
     borderopacity="1.0"
     inkscape:pageopacity="0.0"
     inkscape:pageshadow="2"
     inkscape:zoom="5.5"
     inkscape:cx="36.311688"
     inkscape:cy="15.872316"
     inkscape:current-layer="layer1"
     showgrid="true"
     inkscape:document-units="px"
     inkscape:grid-bbox="true"
     inkscape:window-width="1365"
     inkscape:window-height="878"
     inkscape:window-x="-8"
     inkscape:window-y="-8"
     inkscape:window-maximized="1" />
  <metadata
     id="metadata2990">
    <rdf:RDF>
      <cc:Work
         rdf:about="">
        <dc:format>image/svg+xml</dc:format>
        <dc:type
           rdf:resource="http://purl.org/dc/dcmitype/StillImage" />
        <dc:title></dc:title>
      </cc:Work>
    </rdf:RDF>
  </metadata>
  <g
     id="layer1"
     inkscape:label="Layer 1"
     inkscape:groupmode="layer">
    <text
       xml:space="preserve"
       style="font-size:64px;font-style:normal;font-variant:normal;font-weight:bold;font-stretch:normal;line-height:125%;letter-spacing:0px;word-spacing:0px;fill:#000000;fill-opacity:1;stroke:none;font-family:ChessmasterX;-inkscape-font-specification:ChessmasterX Bold"
       x="0.25"
       y="50.953125"
       id="text3049"
       sodipodi:linespacing="125%"><tspan
         sodipodi:role="line"
         id="tspan3051"
         x="0.25"
         y="50.953125">³</tspan></text>
    <path
       style="fill:#ffffff;fill-opacity:1;fill-rule:evenodd"
       d="m 16.711688,50.127321 0,-1.30806 0.863637,-0.544412 c 2.878657,-1.814627 8.324353,-2.910801 14.460597,-2.910801 5.90937,0 9.91335,0.797845 13.81213,2.752247 l 1.409091,0.706357 0,1.179486 0,1.179487 -0.916344,-0.658328 c -1.66736,-1.197878 -5.117216,-2.293479 -9.436414,-2.996802 -5.068914,-0.825405 -11.132699,-0.261923 -16.162005,1.501869 -1.786571,0.626555 -2.58973,1.059553 -3.439783,1.854449 l -0.590909,0.552568 0,-1.30806 z"
       id="path3053"
       inkscape:connector-curvature="0" />
    <path
       style="fill:#ffffff;fill-opacity:1;fill-rule:evenodd"
       d="m 30.297997,41.562952 c -0.87753,-0.574458 -1.680995,-1.129954 -1.785477,-1.234437 -0.236096,-0.236095 3.227154,-2.8457 3.591187,-2.706007 0.133121,0.05108 1.020572,0.640949 1.972113,1.310814 l 1.730075,1.217936 -1.865285,1.24243 c -1.025907,0.683337 -1.906194,1.235974 -1.956194,1.228082 -0.05,-0.0079 -0.808889,-0.48436 -1.686419,-1.058818 z"
       id="path3055"
       inkscape:connector-curvature="0" />
    <path
       style="fill:#ffffff;fill-opacity:1;fill-rule:evenodd"
       d="m 16.52987,43.818593 c 0,-1.25 0.02613,-2.272727 0.05807,-2.272727 0.151235,0 2.032837,1.490214 2.032837,1.609991 0,0.221297 -1.805368,2.930546 -1.954545,2.933115 -0.075,0.0013 -0.136364,-1.020379 -0.136364,-2.270379 z"
       id="path3057"
       inkscape:connector-curvature="0" />
    <path
       style="fill:#ffffff;fill-opacity:1;fill-rule:evenodd"
       d="m 46.263691,44.531044 c -0.570631,-0.758151 -1.01009,-1.399746 -0.976575,-1.425764 0.03352,-0.02602 0.53139,-0.390112 1.10639,-0.809096 l 1.045455,-0.761789 0,2.187554 c 0,1.203154 -0.031,2.187553 -0.06888,2.187553 -0.03788,0 -0.535759,-0.620306 -1.10639,-1.378458 z"
       id="path3059"
       inkscape:connector-curvature="0" />
    <path
       style="fill:#ffffff;fill-opacity:1;fill-rule:evenodd"
       d="M 46.893506,37.701778 C 44.016626,36.422392 38.872005,35.13602 35.681279,34.89825 l -1.666772,-0.124206 0.09489,-0.659544 c 0.561073,-3.899649 2.217737,-7.34513 4.905423,-10.202157 1.512013,-1.607279 2.387867,-2.278187 4.052007,-3.103853 2.244779,-1.113751 5.439913,-1.413066 7.684283,-0.71985 1.494723,0.461673 3.528482,1.885747 4.412034,3.089385 2.606568,3.550856 1.404337,8.718426 -2.97068,12.768919 -1.240866,1.148823 -3.082758,2.150646 -3.918911,2.131533 -0.309028,-0.0071 -0.930051,-0.176578 -1.380051,-0.376699 z m 2.454546,-1.785491 c 1.497006,-0.587068 3.367787,-2.572749 4.460127,-4.734057 0.91096,-1.80243 1.137206,-3.794818 0.607464,-5.349523 -0.429711,-1.261133 -2.152487,-3.035949 -3.673771,-3.784746 -1.098339,-0.540617 -1.34965,-0.592076 -2.84475,-0.582496 -4.772537,0.03058 -8.463691,3.184655 -10.901743,9.315493 -0.369555,0.929301 -0.686839,1.902108 -0.705077,2.161794 -0.03242,0.461704 0.0091,0.479397 1.875932,0.799311 2.415644,0.413963 6.383251,1.432448 8.272727,2.123609 1.47909,0.541044 1.650886,0.544033 2.909091,0.05061 l 0,0 z"
       id="path3061"
       inkscape:connector-curvature="0" />
    <path
       style="fill:#ffffff;fill-opacity:1;fill-rule:evenodd"
       d="M 14.847418,37.815081 C 13.02128,37.144465 10.362051,34.68195 9.0166796,32.415664 7.6771962,30.159296 7.2240568,27.261127 7.8751754,25.114881 c 0.7300028,-2.406267 3.1524426,-4.592177 5.7532896,-5.191532 1.185012,-0.273081 3.727915,-0.231186 5.062488,0.08341 3.698336,0.871789 7.252603,4.135651 9.488384,8.713127 0.785313,1.607827 1.805079,4.840983 1.805079,5.72298 0,0.254862 -0.350693,0.343044 -2.136364,0.537192 -2.548669,0.277104 -6.831722,1.336257 -9.570111,2.366585 -2.149552,0.808776 -2.407753,0.844034 -3.430523,0.468442 z m 10.099804,-4.002992 c 1.220455,-0.259838 2.400974,-0.508878 2.623372,-0.553423 l 0.404362,-0.08099 -0.472528,-1.315905 c -1.719569,-4.788703 -4.818926,-8.355426 -8.356337,-9.616428 -0.652705,-0.232674 -1.709655,-0.415537 -2.70713,-0.468361 -1.999516,-0.10589 -3.173757,0.270854 -4.861372,1.559724 -2.6761489,2.043836 -2.9820359,4.842255 -0.917193,8.390978 1.006395,1.729632 3.170623,3.854646 4.383789,4.304359 l 0.968859,0.35915 3.357583,-1.053336 c 1.84667,-0.579335 4.356138,-1.26593 5.576595,-1.525768 z"
       id="path3063"
       inkscape:connector-curvature="0" />
    <path
       style="fill:#ffffff;fill-opacity:1;fill-rule:evenodd"
       d="m 31.44072,30.978489 c -0.685633,-2.093417 -1.836882,-4.451869 -3.237621,-6.632603 -0.520276,-0.809989 -0.945956,-1.620983 -0.945956,-1.802208 0,-0.60634 0.895089,-1.865654 1.796244,-2.527163 2.357089,-1.730262 4.376172,-1.570425 6.504935,0.514952 1.613856,1.580965 1.619706,1.712787 0.180784,4.073661 -1.443351,2.368138 -2.13939,3.827314 -3.021694,6.334677 l -0.667802,1.897781 -0.60889,-1.859097 z m 2.060075,-5.693623 c 1.334099,-2.46118 1.365327,-2.547434 1.090633,-3.012453 -0.429046,-0.726318 -1.871601,-1.635638 -2.594793,-1.635638 -1.03639,0 -2.739492,1.23719 -2.739492,1.990057 0,0.101568 0.450088,0.983601 1.000197,1.960073 0.550108,0.976472 1.131851,2.17178 1.292762,2.656238 0.160912,0.484459 0.356624,0.812123 0.434917,0.728142 0.07829,-0.08398 0.760392,-1.292869 1.515776,-2.686419 l 0,0 z"
       id="path3065"
       inkscape:connector-curvature="0" />
    <path
       style="fill:#ffffff;fill-opacity:1;fill-rule:evenodd"
       d="m 27.802597,14.867846 c 0,-0.378341 0.355337,-0.853395 1.495986,-2 L 30.794569,11.364048 29.298583,9.86025 c -1.140649,-1.1466059 -1.495986,-1.6216589 -1.495986,-2 0,-0.4335567 0.07108,-0.4962022 0.562982,-0.4962022 0.452873,0 0.866473,0.2839483 2.11471,1.4518088 l 1.551727,1.4518084 1.533736,-1.4518084 c 1.304536,-1.2348523 1.627028,-1.4518088 2.158018,-1.4518088 0.559,0 0.624282,0.052003 0.624282,0.4972983 0,0.3906231 -0.341265,0.8163997 -1.590909,1.984884 l -1.590909,1.4875859 1.590909,1.609622 c 1.81665,1.838018 2.041859,2.42061 0.935722,2.42061 -0.561449,0 -0.873189,-0.197917 -2.178924,-1.383353 l -1.523736,-1.383354 -1.523737,1.383354 c -1.21728,1.10513 -1.63839,1.383353 -2.093804,1.383353 -0.499621,0 -0.570067,-0.06132 -0.570067,-0.496202 z"
       id="path3067"
       inkscape:connector-curvature="0" />
  </g>
</svg>
