<?xml version="1.0" encoding="UTF-8" standalone="no"?>
<!-- Created with Inkscape (http://www.inkscape.org/) -->

<svg
   xmlns:dc="http://purl.org/dc/elements/1.1/"
   xmlns:cc="http://creativecommons.org/ns#"
   xmlns:rdf="http://www.w3.org/1999/02/22-rdf-syntax-ns#"
   xmlns:svg="http://www.w3.org/2000/svg"
   xmlns="http://www.w3.org/2000/svg"
   xmlns:sodipodi="http://sodipodi.sourceforge.net/DTD/sodipodi-0.dtd"
   xmlns:inkscape="http://www.inkscape.org/namespaces/inkscape"
   width="64px"
   height="64px"
   id="svg2985"
   version="1.1"
   inkscape:version="0.48.1 "
   sodipodi:docname="bq.svg">
  <defs
     id="defs2987" />
  <sodipodi:namedview
     id="base"
     pagecolor="#ffffff"
     bordercolor="#666666"
     borderopacity="1.0"
     inkscape:pageopacity="0.0"
     inkscape:pageshadow="2"
     inkscape:zoom="5.5"
     inkscape:cx="-13.046698"
     inkscape:cy="6.3770474"
     inkscape:current-layer="layer1"
     showgrid="true"
     inkscape:document-units="px"
     inkscape:grid-bbox="true"
     inkscape:window-width="1365"
     inkscape:window-height="878"
     inkscape:window-x="-8"
     inkscape:window-y="-8"
     inkscape:window-maximized="1" />
  <metadata
     id="metadata2990">
    <rdf:RDF>
      <cc:Work
         rdf:about="">
        <dc:format>image/svg+xml</dc:format>
        <dc:type
           rdf:resource="http://purl.org/dc/dcmitype/StillImage" />
        <dc:title />
      </cc:Work>
    </rdf:RDF>
  </metadata>
  <g
     id="layer1"
     inkscape:label="Layer 1"
     inkscape:groupmode="layer">
    <path
       style="fill:#ffffff;fill-opacity:1;fill-rule:evenodd"
       d="m 16.348052,50.56575 0,-1.197644 1.409091,-0.706357 c 4.243491,-2.1272 9.36373,-3.079569 15.486336,-2.880473 5.317246,0.172907 9.296666,1.144492 12.86818,3.141796 l 1.145484,0.640591 0,1.092741 c 0,0.825917 -0.0555,1.059348 -0.227273,0.955986 -0.125,-0.07522 -0.662102,-0.413211 -1.19356,-0.751101 -1.893476,-1.203836 -4.903798,-2.25899 -8.263573,-2.896484 -1.299467,-0.246565 -2.624961,-0.317859 -5.861049,-0.315248 -3.841445,0.0031 -4.369033,0.0432 -6.481946,0.492693 -3.278112,0.697369 -6.128295,1.808503 -8.290781,3.232131 l -0.590909,0.389013 0,-1.197644 z"
       id="path3017"
       inkscape:connector-curvature="0" />
    <path
       style="fill:#ffffff;fill-opacity:1;fill-rule:evenodd"
       d="m 29.741304,42.516341 -1.788566,-1.372179 1.33402,-0.853794 c 0.733712,-0.469586 1.595822,-1.008053 1.9158,-1.196592 l 0.58178,-0.342799 1.848537,1.230764 c 1.016696,0.67692 1.777623,1.292344 1.690948,1.367607 -0.27948,0.242688 -3.675551,2.560515 -3.735753,2.549663 -0.03201,-0.0058 -0.863055,-0.627972 -1.846766,-1.38267 z"
       id="path3019"
       inkscape:connector-curvature="0" />
    <path
       style="fill:#ffffff;fill-opacity:1;fill-rule:evenodd"
       d="m 16.348052,45.034335 0,-2.220622 0.590909,0.252547 c 1.235064,0.52785 1.590909,0.724826 1.590909,0.880638 0,0.15163 -1.686706,2.763449 -2.024789,3.135332 -0.08902,0.09792 -0.157029,-0.789071 -0.157029,-2.047895 z"
       id="path3021"
       inkscape:connector-curvature="0" />
    <path
       style="fill:#ffffff;fill-opacity:1;fill-rule:evenodd"
       d="m 46.120779,45.822272 c -0.575,-0.839968 -1.045454,-1.595078 -1.045454,-1.678024 0,-0.08294 0.490909,-0.420688 1.090909,-0.75054 l 1.090909,-0.59973 0,2.285035 c 0,1.256769 -0.02045,2.281758 -0.04545,2.277753 -0.025,-0.004 -0.515909,-0.694527 -1.090909,-1.534494 l 0,0 z"
       id="path3023"
       inkscape:connector-curvature="0" />
    <path
       style="fill:#ffffff;fill-opacity:1;fill-rule:evenodd"
       d="m 45.984416,40.59397 c -2.14086,-1.365918 -5.17254,-2.456777 -8.818182,-3.172958 -2.34846,-0.461351 -8.960845,-0.463655 -11.272728,-0.0039 -3.403303,0.67676 -7.098587,2.081493 -8.760596,3.330271 -0.318327,0.239181 -0.62905,0.434875 -0.690494,0.434875 -0.06144,0 -0.08736,-0.511364 -0.05759,-1.136364 l 0.05413,-1.136364 1.545455,-0.763959 c 6.522681,-3.224335 15.569404,-3.841331 23.375612,-1.594243 1.844357,0.530915 5.668649,2.297808 5.818471,2.68824 0.05461,0.142319 0.07419,0.674944 0.04352,1.18361 l -0.05578,0.924848 -1.181818,-0.754028 z"
       id="path3025"
       inkscape:connector-curvature="0" />
    <path
       style="fill:#000000"
       d="M 29.779587,58.97041 C 27.042704,58.733373 26.064907,58.606539 24.195598,58.246108 21.432167,57.713277 19.140606,57.047831 17.626365,56.33847 L 16.777283,55.94071 16.20685,55.533667 C 15.524523,55.046771 15.205303,54.684998 14.92118,54.0766 l -0.212005,-0.453979 0,-7.611458 0,-7.611462 -0.583169,-1.468168 c -0.944309,-2.37738 -3.903713,-9.443428 -5.6154351,-13.407885 -0.873265,-2.022489 -1.681597,-3.901972 -1.796326,-4.176629 -0.11473,-0.274659 -0.217515,-0.51206 -0.228428,-0.527558 -0.01075,-0.01549 -0.298606,-0.06767 -0.639471,-0.115943 l -0.619694,-0.08777 -0.472731,-0.21641 -0.472695,-0.216408 -0.412946,-0.380648 -0.412947,-0.380649 -0.268526,-0.537352 -0.26853,-0.537354 -0.0607,-0.485376 -0.0606,-0.485372 0.10891,-0.534182 0.10889,-0.53418 0.23418,-0.434768 0.234152,-0.434768 0.399069,-0.367835 0.399028,-0.367833 0.515306,-0.239588 0.515264,-0.239591 0.77177,0 0.771769,0 0.515271,0.239591 0.5153,0.239588 0.402648,0.371129 0.40261,0.371131 0.303727,0.567665 0.303727,0.567668 0.03751,0.837176 0.03751,0.837179 -0.06368,0.424722 -0.06368,0.424723 -0.454873,0.48095 -0.454844,0.480951 5.6081071,6.29262 c 3.084469,3.460943 5.621478,6.309649 5.637829,6.330456 0.01645,0.02083 0.04609,0.02083 0.06621,0 0.02005,-0.02083 -0.244483,-3.77637 -0.587851,-8.345693 -0.343386,-4.569324 -0.62536,-8.394102 -0.626651,-8.499505 l -0.0036,-0.191645 -0.456524,-0.05407 -0.456489,-0.05407 -0.53111,-0.283083 -0.531116,-0.283079 -0.387227,-0.379171 -0.38719,-0.37917 -0.236795,-0.499378 -0.23683,-0.499382 0,-0.771767 0,-0.771768 0.244879,-0.499382 0.244881,-0.499378 0.462034,-0.464278 0.461992,-0.4642759 0.432413,-0.235334 0.432377,-0.235332 0.517233,-0.08112 0.517268,-0.08111 0.522066,0.081 0.522093,0.081 0.37793,0.181896 0.377923,0.181896 0.413198,0.3637199 0.413199,0.363716 0.291105,0.591269 0.291062,0.591269 0.04082,0.705513 0.04083,0.705515 -0.153583,0.537064 -0.153549,0.53706 -0.583594,0.549465 -0.583596,0.549463 0,0.100421 c 0,0.05522 1.373901,2.933632 3.053139,6.396453 1.6792,3.462817 3.29801,6.806759 3.597302,7.430985 l 0.544171,1.134953 0.03289,-0.0908 c 0.03592,-0.09924 3.032597,-16.380659 3.032597,-16.476474 0,-0.03241 -0.155409,-0.127454 -0.3453,-0.211247 -0.18993,-0.0838 -0.515085,-0.297657 -0.722583,-0.475265 L 29.151256,10.622941 28.852355,10.016342 28.55346,9.409744 28.52339,8.544714 28.49332,7.6796871 l 0.194003,-0.517688 0.194009,-0.517689 0.397994,-0.442695 0.398032,-0.442692 0.530829,-0.282922 0.530791,-0.282922 0.558482,-0.08994 0.55848,-0.08994 0.6188,0.08578 0.618829,0.08578 0.561561,0.27418 0.56156,0.274187 0.415059,0.461642 0.415061,0.461646 0.193288,0.636366 0.193296,0.636372 -0.04934,0.6531639 -0.04941,0.653166 -0.2085,0.447855 -0.208457,0.447854 -0.485929,0.477781 -0.485967,0.477777 -0.457166,0.231675 -0.457202,0.231675 0.04868,0.198511 c 0.02683,0.109181 0.788482,3.833588 1.692761,8.276462 0.904249,4.442874 1.658276,8.09211 1.675586,8.109419 0.01717,0.01732 0.343232,-0.614687 0.724335,-1.404425 0.381073,-0.789742 1.99327,-4.132481 3.582638,-7.428312 l 2.889798,-5.99242 -0.532906,-0.513426 -0.532934,-0.513427 -0.201309,-0.44007 -0.201302,-0.440071 0,-0.907962 0,-0.907962 0.242948,-0.519388 0.242946,-0.519386 0.417779,-0.406039 0.417779,-0.4060369 0.488469,-0.238976 0.488433,-0.238976 0.507359,-0.06885 0.507365,-0.06885 0.500168,0.06787 0.500132,0.06787 0.396847,0.192101 0.396813,0.1921 0.424046,0.4285029 0.424069,0.428502 0.288566,0.584149 0.288595,0.584154 0.03541,0.628772 0.03541,0.628768 -0.152402,0.557606 -0.152435,0.557605 -0.24796,0.362166 -0.247953,0.362171 -0.450301,0.340544 -0.4503,0.340548 -0.402034,0.137151 -0.402076,0.137154 -0.278903,0.0015 c -0.153396,7.16e-4 -0.323187,0.03141 -0.377316,0.06809 l -0.09841,0.0667 -0.63096,8.240763 -0.63096,8.240763 0.05748,-0.02368 c 0.08267,-0.03409 11.252658,-12.13231 11.252658,-12.187762 0,-0.02543 -0.179376,-0.308299 -0.398637,-0.628553 l -0.398643,-0.582278 -0.111326,-0.337323 -0.111332,-0.337319 0.03995,-0.783711 0.03988,-0.783708 0.244196,-0.47586 0.244166,-0.475859 0.504603,-0.496606 0.504603,-0.496606 0.476056,-0.225202 0.476057,-0.225206 0.455522,-0.06043 0.455522,-0.06043 0.537521,0.108763 0.537551,0.108762 0.363186,0.211422 0.363188,0.211426 0.379892,0.393131 0.379894,0.393133 0.225524,0.453979 0.225561,0.453985 0.101028,0.56087 0.101029,0.560872 -0.09842,0.61605 -0.09842,0.616051 -0.240692,0.442223 -0.240694,0.442221 -0.276539,0.233978 c -0.152108,0.128685 -0.52803,0.352047 -0.835373,0.496358 l -0.558767,0.262384 -0.771698,0.105228 -0.771669,0.105226 -1.838107,4.316602 c -2.552538,5.994358 -4.692202,11.083949 -5.5172,13.123842 l -0.697719,1.725127 -0.04544,7.853884 -0.04536,7.853879 -0.178373,0.363183 -0.178373,0.363187 -0.457202,0.459449 -0.457203,0.459446 -0.644131,0.382359 -0.644122,0.382357 -0.899272,0.367301 c -2.243013,0.916152 -6.1433,1.804874 -9.752192,2.222131 l -1.225757,0.141723 -2.269915,0.03023 c -1.248439,0.01663 -2.453761,0.01431 -2.67846,-0.0051 z M 17.185692,51.685468 c 2.321318,-1.55782 5.589175,-2.759347 9.168093,-3.37093 l 1.068601,-0.182612 1.292076,-0.103201 1.292117,-0.103196 2.814657,0.05233 2.814699,0.05234 1.044158,0.144304 c 3.80995,0.526552 7.408652,1.768198 9.8514,3.398996 0.349557,0.233374 0.686663,0.455228 0.749051,0.493014 l 0.113519,0.0687 0,-1.142621 0,-1.142617 -0.567462,-0.366163 c -0.312137,-0.201387 -1.098649,-0.624705 -1.747857,-0.940704 l -1.180352,-0.57454 -1.044166,-0.362822 c -2.402027,-0.834657 -4.82492,-1.323507 -7.787865,-1.571305 l -1.295942,-0.108384 -2.608312,0.05123 -2.608269,0.05123 -1.375834,0.186295 c -2.733161,0.370076 -4.869746,0.875728 -6.977421,1.651314 l -0.998763,0.367518 -1.38467,0.678289 -1.384627,0.67829 0,1.267126 0,1.267124 0.04948,0 c 0.02719,0 0.343865,-0.197553 0.703655,-0.439012 z m 0.506782,-5.708052 c 0.655359,-0.958896 1.191554,-1.767908 1.191554,-1.797805 0,-0.06087 -2.243264,-1.134761 -2.370407,-1.134761 l -0.0811,0 0,2.375837 c 0,1.30671 0.01536,2.358813 0.03434,2.338007 0.01897,-0.02083 0.570433,-0.822382 1.225755,-1.781278 z m 29.660873,-2.912761 c -0.02431,-0.02411 -0.555365,0.257783 -1.180534,0.626446 l -1.136672,0.670296 0.03289,0.0919 c 0.01788,0.05056 0.538408,0.818958 1.156241,1.707565 l 1.123402,1.615655 0.02431,-2.33401 c 0.0132,-1.283709 0.0043,-2.353746 -0.01969,-2.377862 z m -13.54429,-0.204779 c 1.029741,-0.713498 1.871307,-1.321274 1.870131,-1.350613 0,-0.02933 -0.852658,-0.616951 -1.892208,-1.305796 l -1.890096,-1.252454 -1.853131,1.189057 c -1.019196,0.653982 -1.887953,1.223837 -1.930558,1.266348 l -0.07746,0.07729 1.802594,1.36733 1.802584,1.367326 0.14793,-0.03063 c 0.08135,-0.01685 0.990462,-0.614383 2.020209,-1.327876 z m 13.585006,-2.263011 0,-1.176839 -0.794454,-0.470175 c -2.576938,-1.525054 -5.949007,-2.613448 -9.828717,-3.172376 l -1.225756,-0.176589 -1.747741,-0.109707 -1.747713,-0.109711 -1.974915,0.109797 -1.974914,0.109794 -1.225757,0.175081 c -3.57992,0.511355 -6.210086,1.321746 -9.182408,2.829248 l -1.237736,0.627753 -0.04118,1.202182 c -0.02251,0.661202 -0.03007,1.216525 -0.01681,1.234047 0.01357,0.01753 0.463319,-0.261578 0.999658,-0.620225 l 0.975184,-0.652094 1.005594,-0.482066 c 2.268414,-1.087427 5.218875,-1.952561 7.906142,-2.318251 l 0.726368,-0.09885 2.633102,-0.05243 2.633066,-0.05243 1.443019,0.105782 1.443012,0.105788 1.051458,0.179756 c 1.385808,0.236917 3.31773,0.737782 4.77899,1.238992 l 1.180316,0.404861 1.271152,0.619552 1.271152,0.619554 0.817173,0.548955 c 0.449442,0.301929 0.8274,0.550867 0.839849,0.5532 0.01255,0.0025 0.02294,-0.525336 0.02294,-1.172597 z"
       id="path3776"
       inkscape:connector-curvature="0" />
    <path
       style="fill:#ffffff;fill-opacity:0.38624339;fill-rule:evenodd"
       d="m 16.444211,50.799813 0,-1.150413 1.772727,-0.839624 c 4.031267,-1.909344 7.908017,-2.687239 13.59091,-2.727105 5.777327,-0.04053 9.223398,0.635851 13.318181,2.61403 l 2.227273,1.07599 0,1.088767 c 0,0.598822 -0.03415,1.088767 -0.07588,1.088767 -0.04174,0 -0.686924,-0.361256 -1.433749,-0.80279 -2.24021,-1.324449 -5.200233,-2.329396 -8.581275,-2.9134 -2.21566,-0.382709 -8.347446,-0.38722 -10.567093,-0.0078 -3.353842,0.573334 -6.439788,1.628253 -8.828266,3.017907 -0.667447,0.388332 -1.260629,0.706057 -1.318182,0.706057 -0.05755,0 -0.104641,-0.517685 -0.104641,-1.150412 z"
       id="path3853"
       inkscape:connector-curvature="0" />
    <path
       style="fill:#ffffff;fill-opacity:0.38624339;fill-rule:evenodd"
       d="m 16.444211,45.341547 0,-2.305647 1.136364,0.569621 c 0.625,0.313291 1.156127,0.586505 1.180283,0.607143 0.03863,0.03301 -2.05159,3.163694 -2.242506,3.358773 -0.04078,0.04167 -0.07414,-0.961783 -0.07414,-2.22989 z"
       id="path3855"
       inkscape:connector-curvature="0" />
    <path
       style="fill:#ffffff;fill-opacity:0.38624339;fill-rule:evenodd"
       d="m 29.851401,42.797245 -1.73905,-1.334798 1.88333,-1.221984 1.883331,-1.221984 1.69169,1.126485 c 0.93043,0.619567 1.761168,1.189141 1.846084,1.26572 0.137726,0.124206 -3.39514,2.721359 -3.701821,2.721359 -0.06848,0 -0.907087,-0.600659 -1.863564,-1.334798 z"
       id="path3857"
       inkscape:connector-curvature="0" />
    <path
       style="fill:#ffffff;fill-opacity:0.38624339;fill-rule:evenodd"
       d="m 46.189415,46.014211 c -1.025639,-1.504622 -1.057726,-1.585503 -0.727273,-1.83326 0.526575,-0.394799 1.734413,-0.993533 1.823851,-0.904096 0.0436,0.0436 0.05612,1.031505 0.02784,2.195347 l -0.05143,2.116076 -1.072978,-1.574067 z"
       id="path3859"
       inkscape:connector-curvature="0" />
    <path
       style="fill:#ffffff;fill-opacity:0.38624339;fill-rule:evenodd"
       d="m 16.444211,40.438797 0,-1.158967 1.954546,-0.917351 c 6.057941,-2.843249 13.139533,-3.600147 20.228527,-2.162076 2.865154,0.581225 4.704764,1.195146 6.953291,2.320478 l 1.772727,0.887205 0,1.089251 c 0,0.599089 -0.04662,1.089252 -0.103604,1.089252 -0.05698,0 -0.469192,-0.25153 -0.91602,-0.558956 -1.644298,-1.131307 -4.617001,-2.275725 -8.052656,-3.100076 -1.26536,-0.30361 -2.38204,-0.393247 -5.846822,-0.46933 -3.875251,-0.0851 -4.478334,-0.05662 -6.338458,0.299256 -3.485736,0.666892 -6.352065,1.722431 -8.606076,3.169228 l -1.045455,0.671052 0,-1.158966 z"
       id="path3861"
       inkscape:connector-curvature="0" />
  </g>
</svg>
