<?xml version="1.0" encoding="UTF-8" standalone="no"?>
<!-- Created with Inkscape (http://www.inkscape.org/) -->

<svg
   xmlns:dc="http://purl.org/dc/elements/1.1/"
   xmlns:cc="http://creativecommons.org/ns#"
   xmlns:rdf="http://www.w3.org/1999/02/22-rdf-syntax-ns#"
   xmlns:svg="http://www.w3.org/2000/svg"
   xmlns="http://www.w3.org/2000/svg"
   xmlns:sodipodi="http://sodipodi.sourceforge.net/DTD/sodipodi-0.dtd"
   xmlns:inkscape="http://www.inkscape.org/namespaces/inkscape"
   width="64px"
   height="64px"
   id="svg2985"
   version="1.1"
   inkscape:version="0.48.1 "
   sodipodi:docname="wn.svg">
  <defs
     id="defs2987" />
  <sodipodi:namedview
     id="base"
     pagecolor="#ffffff"
     bordercolor="#666666"
     borderopacity="1.0"
     inkscape:pageopacity="0.0"
     inkscape:pageshadow="2"
     inkscape:zoom="5.5"
     inkscape:cx="36.311688"
     inkscape:cy="15.872316"
     inkscape:current-layer="layer1"
     showgrid="true"
     inkscape:document-units="px"
     inkscape:grid-bbox="true"
     inkscape:window-width="1365"
     inkscape:window-height="878"
     inkscape:window-x="-8"
     inkscape:window-y="-8"
     inkscape:window-maximized="1" />
  <metadata
     id="metadata2990">
    <rdf:RDF>
      <cc:Work
         rdf:about="">
        <dc:format>image/svg+xml</dc:format>
        <dc:type
           rdf:resource="http://purl.org/dc/dcmitype/StillImage" />
        <dc:title></dc:title>
      </cc:Work>
    </rdf:RDF>
  </metadata>
  <g
     id="layer1"
     inkscape:label="Layer 1"
     inkscape:groupmode="layer">
    <text
       xml:space="preserve"
       style="font-size:64px;font-style:normal;font-variant:normal;font-weight:bold;font-stretch:normal;line-height:125%;letter-spacing:0px;word-spacing:0px;fill:#000000;fill-opacity:1;stroke:none;font-family:ChessmasterX;-inkscape-font-specification:ChessmasterX Bold"
       x="0.15625"
       y="51.328125"
       id="text3099"
       sodipodi:linespacing="125%"><tspan
         sodipodi:role="line"
         id="tspan3101"
         x="0.15625"
         y="51.328125">†</tspan></text>
    <path
       style="fill:#ffffff;fill-opacity:1;fill-rule:evenodd"
       d="m 52.01655,55.812166 c -0.951636,-0.676967 -1.949494,-0.727881 -5.759407,-0.293861 -3.934123,0.448168 -6.449239,0.493754 -7.9359,0.143834 -2.787701,-0.65615 -4.229992,-2.58533 -4.470692,-5.979909 -0.09905,-1.396902 -0.09611,-1.409091 0.340062,-1.409091 0.328869,0 0.737183,0.362439 1.61689,1.43523 1.405242,1.713676 1.922025,2.093783 3.351476,2.465098 1.36505,0.354585 2.551793,0.353073 5.189073,-0.0066 5.369416,-0.732312 8.653314,-0.247667 10.622794,1.567736 0.697266,0.642717 1.740842,2.102156 1.740842,2.434563 0,0.05719 -0.920454,0.09698 -2.045454,0.08842 -1.845022,-0.01404 -2.104664,-0.05769 -2.649684,-0.445402 l 0,0 z"
       id="path3103"
       inkscape:connector-curvature="0" />
    <path
       style="fill:#ffffff;fill-opacity:1;fill-rule:evenodd"
       d="m 7.4406672,56.136775 c 9.384e-4,-0.075 0.2425072,-0.556207 0.5368194,-1.06935 1.0782906,-1.880032 2.7038844,-2.803955 5.5572704,-3.15853 1.311549,-0.162979 2.1911,-0.131178 5.328433,0.192653 2.066674,0.213319 4.253506,0.349855 4.859626,0.303414 2.001338,-0.153344 3.528756,-1.130462 5.108787,-3.268187 0.51436,-0.695911 0.744063,-0.863636 1.182769,-0.863636 l 0.544442,0 -0.128504,1.227272 c -0.284185,2.714092 -1.196033,4.526407 -2.729602,5.425138 -1.828643,1.071657 -3.873085,1.204364 -9.4597,0.614043 -3.859216,-0.407792 -5.27958,-0.325784 -6.243339,0.360473 -0.452662,0.322324 -0.798362,0.373074 -2.5413207,0.373074 -1.109563,0 -2.0166195,-0.06136 -2.0156811,-0.136364 z"
       id="path3105"
       inkscape:connector-curvature="0" />
    <path
       style="fill:#ffffff;fill-opacity:1;fill-rule:evenodd"
       d="m 27.98822,46.443987 c -0.747907,-0.09309 -1.803405,-0.298211 -2.34555,-0.455817 -0.97237,-0.282676 -0.980987,-0.291289 -0.63628,-0.635996 0.819338,-0.819338 12.620752,-0.865943 13.858819,-0.05473 0.539291,0.353357 0.420948,0.443731 -1.153521,0.880907 -1.304756,0.362286 -7.571556,0.53349 -9.723468,0.265636 z"
       id="path3107"
       inkscape:connector-curvature="0" />
    <path
       style="fill:#ffffff;fill-opacity:1;fill-rule:evenodd"
       d="m 23.620779,43.365946 c 0,-0.632744 0.125168,-0.906478 0.727273,-1.590505 0.4,-0.454424 0.727273,-0.87721 0.727273,-0.939524 0,-0.06232 -0.327273,-0.315565 -0.727273,-0.562778 -0.657991,-0.406661 -0.727273,-0.520809 -0.727273,-1.198254 l 0,-0.748774 1.318182,-0.383908 c 2.434651,-0.709069 3.726605,-0.851416 7.590909,-0.836366 3.647202,0.0142 4.525603,0.112875 7.045455,0.79142 l 0.772727,0.20808 0,0.874469 c 0,0.844343 -0.02506,0.885768 -0.727273,1.202424 -0.4,0.180375 -0.726403,0.376891 -0.72534,0.436704 0.0011,0.05981 0.327466,0.517841 0.72534,1.017841 0.589793,0.74118 0.723765,1.054079 0.725341,1.694071 0.0016,0.664185 -0.04703,0.769891 -0.31625,0.68693 -2.163927,-0.666823 -2.917586,-0.738657 -7.772727,-0.74085 -3.994269,-0.0018 -5.205709,0.05805 -6.500795,0.321191 -0.875437,0.177874 -1.714073,0.370366 -1.863636,0.427758 -0.214787,0.08242 -0.271933,-0.05626 -0.271933,-0.659929 z m 9.638543,-2.301301 c 0.698801,-0.464672 1.270548,-0.861759 1.270548,-0.882415 0,-0.02066 -0.572727,-0.418396 -1.272727,-0.883865 l -1.272727,-0.846306 -1.274906,0.847755 c -0.701199,0.466265 -1.235003,0.887658 -1.186233,0.936429 0.104201,0.1042 2.347933,1.64713 2.417863,1.662672 0.0262,0.0058 0.61938,-0.369598 1.318182,-0.83427 l 0,0 z"
       id="path3109"
       inkscape:connector-curvature="0" />
    <path
       style="fill:#ffffff;fill-opacity:1;fill-rule:evenodd"
       d="m 23.438961,36.319299 c -1.231602,-0.391018 -3.014515,-2.509817 -3.66737,-4.358271 -0.284443,-0.805355 -0.352528,-1.351296 -0.290826,-2.332005 0.170369,-2.707911 2.065995,-5.106367 8.211328,-10.389447 1.789222,-1.538176 3.467108,-2.949049 3.728635,-3.135273 l 0.475505,-0.338589 3.635,2.904267 c 1.99925,1.597346 4.230388,3.409117 4.958086,4.026156 2.354047,1.99608 3.954322,4.340638 4.162513,6.098489 0.296453,2.503073 -1.520027,6.242447 -3.534418,7.275891 -0.588177,0.301753 -0.689684,0.297987 -2.554575,-0.09475 -2.99743,-0.63124 -6.094302,-0.850528 -8.752239,-0.619735 -1.863939,0.161847 -5.611811,0.783013 -5.996762,0.993893 -0.05618,0.03078 -0.224877,0.01699 -0.374877,-0.03063 z m 9.454545,-6.04616 0,-2 1.909091,0 1.909091,0 0,-0.909091 0,-0.909091 -1.909091,0 -1.909091,0 0,-1.818182 0,-1.818182 -0.902506,0 -0.902507,0 -0.05204,1.772728 -0.05204,1.772727 -1.863637,0.05182 -1.863636,0.05181 0,0.90273 0,0.902731 1.909091,0 1.909091,0 0,2 0,2 0.909091,0 0.90909,0 0,-2 z"
       id="path3111"
       inkscape:connector-curvature="0" />
    <path
       style="fill:#ffffff;fill-opacity:1;fill-rule:evenodd"
       d="m 30.699578,12.406611 c -2.279116,-1.535896 -0.418126,-5.0819879 2.153392,-4.1032608 1.00514,0.382559 1.548434,1.2905901 1.443782,2.4130568 -0.168869,1.811237 -2.082979,2.71062 -3.597174,1.690204 z"
       id="path3113"
       inkscape:connector-curvature="0" />
  </g>
</svg>
