<?xml version="1.0" encoding="UTF-8" standalone="no"?>
<!-- Created with Inkscape (http://www.inkscape.org/) -->

<svg
   xmlns:dc="http://purl.org/dc/elements/1.1/"
   xmlns:cc="http://creativecommons.org/ns#"
   xmlns:rdf="http://www.w3.org/1999/02/22-rdf-syntax-ns#"
   xmlns:svg="http://www.w3.org/2000/svg"
   xmlns="http://www.w3.org/2000/svg"
   xmlns:sodipodi="http://sodipodi.sourceforge.net/DTD/sodipodi-0.dtd"
   xmlns:inkscape="http://www.inkscape.org/namespaces/inkscape"
   version="1.0"
   width="504"
   height="504"
   id="svg2588"
   inkscape:version="0.47 r22583"
   sodipodi:docname="bq.svg">
  <metadata
     id="metadata11">
    <rdf:RDF>
      <cc:Work
         rdf:about="">
        <dc:format>image/svg+xml</dc:format>
        <dc:type
           rdf:resource="http://purl.org/dc/dcmitype/StillImage" />
      </cc:Work>
    </rdf:RDF>
  </metadata>
  <sodipodi:namedview
     pagecolor="#ffffff"
     bordercolor="#666666"
     borderopacity="1"
     objecttolerance="10"
     gridtolerance="10"
     guidetolerance="10"
     inkscape:pageopacity="0"
     inkscape:pageshadow="2"
     inkscape:window-width="1365"
     inkscape:window-height="878"
     id="namedview9"
     showgrid="false"
     inkscape:zoom="0.46825397"
     inkscape:cx="252"
     inkscape:cy="252"
     inkscape:window-x="-8"
     inkscape:window-y="-8"
     inkscape:window-maximized="1"
     inkscape:current-layer="svg2588" />
  <defs
     id="defs2590">
    <inkscape:perspective
       sodipodi:type="inkscape:persp3d"
       inkscape:vp_x="0 : 252 : 1"
       inkscape:vp_y="0 : 1000 : 0"
       inkscape:vp_z="504 : 252 : 1"
       inkscape:persp3d-origin="252 : 168 : 1"
       id="perspective13" />
  </defs>
  <g
     transform="translate(-520.30873,-156.5379)"
     id="layer1">
    <path
       d="M 180.91718,473.60516 C 160.21338,472.1534 140.96995,468.13268 125.52847,462.03224 C 116.18653,458.34154 104.52404,452.33246 103.50597,450.68519 C 103.18589,450.1673 107.21611,439.87545 112.46201,427.81443 C 117.7079,415.75343 122,405.36012 122,404.71823 C 122,403.46307 106.14791,366.7874 103.01481,360.79374 C 101.97455,358.80374 93.0391,347.32941 83.15825,335.29526 L 65.193077,313.41498 L 64.00872,303.79526 C 63.35732,298.50441 58.46398,259.30088 53.13461,216.6763 L 43.444859,139.17706 L 37.74865,138.46555 C 21.30339,136.41131 11.4813,121.78542 16.46687,106.77527 C 18.585801,100.39577 21.825,96.45096 27.8554,92.90592 C 31.799,90.587618 33.63196,90.17553 40,90.17553 C 46.36804,90.175531 48.201,90.58762 52.1446,92.90592 C 58.175,96.450958 61.4142,100.39577 63.53313,106.77527 C 67.151439,117.669 62.44006,129.85285 52.44663,135.44546 C 51.290761,136.09231 58.68831,152.07773 89.13038,214.71562 C 110.10275,257.86857 127.32264,293.25764 127.39678,293.358 C 127.60201,293.63576 138.09834,105.55849 138.04583,102.54425 C 138.00657,100.29092 137.38228,99.75742 133.69951,98.83009 C 127.7289,97.326667 121.65079,92.63951 118.31686,86.96769 C 115.89707,82.85104 115.5,81.10726 115.5,74.59711 C 115.5,67.910273 115.85637,66.43968 118.52914,62.09711 C 128.57861,45.769279 151.42139,45.76928 161.47086,62.09711 C 164.15079,66.451319 164.5,67.90139 164.5,74.67553 C 164.5,81.439711 164.14812,82.90614 161.48172,87.25395 C 159.68029,90.191328 156.43141,93.51716 153.42324,95.50328 L 148.38306,98.831032 L 179.938,190.25328 C 197.29323,240.53552 211.71954,281.67525 211.99648,281.67491 C 212.34354,281.6745 245.13129,95.11856 247.37692,80.36705 C 247.44462,79.92239 245.81159,78.9626 243.74797,78.23419 C 238.23148,76.286998 233.40925,72.22809 230.2723,66.89164 C 227.90133,62.85823 227.5,61.07848 227.5,54.59711 C 227.5,47.910269 227.85637,46.43968 230.52914,42.09711 C 240.57861,25.769279 263.42139,25.76928 273.47086,42.09711 C 276.14363,46.439679 276.5,47.91027 276.5,54.59711 C 276.5,61.078479 276.09868,62.85823 273.7277,66.89164 C 270.59076,72.22809 265.76852,76.287 260.25203,78.23419 C 258.1884,78.962598 256.55538,79.92239 256.62308,80.36705 C 258.86871,95.11856 291.65646,281.67449 292.00352,281.67491 C 292.28047,281.67526 306.70677,240.53552 324.06199,190.25328 L 355.61694,98.831032 L 350.57675,95.503281 C 347.56859,93.51716 344.31971,90.19133 342.51828,87.25395 C 339.85188,82.906138 339.5,81.43971 339.5,74.67553 C 339.5,67.901391 339.84921,66.45132 342.52914,62.09711 C 352.57861,45.769279 375.42139,45.76928 385.47086,62.09711 C 388.14363,66.439679 388.5,67.91027 388.5,74.59711 C 388.5,81.107263 388.10293,82.85104 385.68314,86.96769 C 382.34921,92.63951 376.2711,97.32667 370.30049,98.83009 C 366.61773,99.757417 365.99342,100.29092 365.95417,102.54425 C 365.90167,105.55849 376.39799,293.63576 376.60322,293.358 C 376.67737,293.25764 393.89725,257.86857 414.86962,214.71562 C 445.31168,152.07773 452.70924,136.09232 451.55337,135.44546 C 441.55993,129.85284 436.84856,117.669 440.46687,106.77527 C 442.58581,100.39577 445.825,96.45096 451.8554,92.90592 C 455.79899,90.587618 457.63196,90.17553 464,90.17553 C 470.36804,90.175531 472.201,90.58762 476.1446,92.90592 C 482.17498,96.450958 485.41417,100.39577 487.53317,106.77527 C 492.51867,121.78542 482.69657,136.41131 466.25135,138.46554 L 460.55515,139.17706 L 450.86539,216.6763 C 445.53602,259.30088 440.64268,298.50441 439.99128,303.79526 L 438.80692,313.41498 L 420.84174,335.29526 C 410.9609,347.32941 402.02545,358.80373 400.98519,360.79374 C 397.85208,366.78741 382,403.46307 382,404.71823 C 382,405.36012 386.2921,415.75342 391.53799,427.81443 C 396.78389,439.87546 400.81411,450.16729 400.49403,450.68519 C 398.19973,454.39747 374.15305,464.47229 358.69639,468.19715 C 336.30157,473.59402 331.82284,473.85976 259,474.11274 C 221.875,474.24172 186.73773,474.01329 180.91717,473.60515 L 180.91718,473.60516 z"
       transform="translate(520.30873,156.5379)"
       id="path2611"
       style="fill:#2B2B3C" />
    <path
       d="M 130.5036,361.67419 C 147.796,355.19385 164.93991,350.28921 183,346.65566 C 209.36559,341.35111 220.84015,340.29302 252,340.29302 C 283.15985,340.29301 294.63441,341.35112 321,346.65566 C 339.15046,350.30738 356.2157,355.19824 373.80033,361.78808 C 388.76178,367.39487 391.13188,367.47637 393.93605,362.4804 C 396.24835,358.36075 394.48783,354.66593 388.88802,351.88595 C 380.60569,347.77427 356.43256,339.828 339.79396,335.7476 C 306.8085,327.65834 286.3299,325.19742 252,325.19742 C 236.42773,325.19742 221.17014,325.73013 215,326.48925 C 180.5561,330.72691 150.47584,337.98526 122.25662,348.86814 C 111.77743,352.9095 109,355.12516 109,359.44349 C 109,362.10981 113.12469,366.67553 115.53343,366.67553 C 116.42682,366.67552 123.1634,364.42492 130.5036,361.67418 L 130.5036,361.67419 z"
       transform="translate(520.30873,156.5379)"
       id="path2388"
       style="fill:#ffffff" />
    <path
       d="M 154.00249,404.8801 C 173.95274,396.29104 194.6101,390.42685 217,386.99644 C 233.03452,384.53976 270.86949,384.53132 287,386.98084 C 310.33802,390.52488 332.84132,397.16163 355.4091,407.15631 C 365.68269,411.70621 367.75437,412.30852 370.19918,411.45625 C 375.70505,409.5369 376.6959,403.28032 372.10567,399.4179 C 365.18659,393.59588 331.58535,381.09938 310,376.32042 C 287.37605,371.31151 277.11179,370.23449 252,370.23449 C 226.88821,370.23448 216.62395,371.31152 194,376.32042 C 172.41465,381.09937 138.8134,393.59589 131.89433,399.4179 C 127.37377,403.22169 128.10559,408.97554 133.3927,411.1986 C 135.9433,412.27104 137.0137,412.26528 139.49304,411.16573 C 141.14687,410.43228 147.67612,407.60375 154.00248,404.8801 L 154.00249,404.8801 z"
       transform="translate(520.30873,156.5379)"
       id="path2386"
       style="fill:#ffffff" />
    <path
       d="M 121.79966,456.28506 C 126.99236,453.61117 156.60784,443.91402 169,440.82999 C 183.11784,437.31649 199.30278,434.41866 215.5,432.5044 C 229.85087,430.80835 274.14913,430.80834 288.5,432.5044 C 320.35874,436.26962 349.5282,443.44682 377.21026,454.33174 L 385.92053,457.75671 L 390.00897,455.67096 C 394.57758,453.34022 395.5051,451.82413 394.59086,448.18153 C 393.7759,444.93445 388.4142,442.25954 370,435.9134 C 291.80275,408.96403 212.19725,408.96402 134,435.9134 C 115.5858,442.25955 110.22411,444.93444 109.40914,448.18153 C 108.50916,451.76734 109.40732,453.31646 113.69951,455.58154 C 118.30965,458.01441 118.42222,458.02419 121.79966,456.28505 L 121.79966,456.28506 z"
       transform="translate(520.30873,156.5379)"
       id="path2384"
       style="fill:#ffffff" />
  </g>
  <path
     style="fill:#000000"
     d="m 105.93125,451.39225 c -0.7337,-1.18714 2.65457,-12.25852 7.52949,-24.60309 l 8.86348,-22.44465 -9.37397,-21.97532 C 105.67579,365.31575 99.568831,355.3732 85.68375,337.97745 75.842864,325.64839 67.024141,313.12832 66.086588,310.15507 c -0.937553,-2.97326 -6.272981,-42.67046 -11.856504,-88.216 l -10.151863,-82.81008 -5.488263,-1.10443 c -10.202064,-2.05299 -16.150142,-6.28566 -20.07333,-14.28423 -3.230611,-6.58654 -3.497203,-9.20777 -1.539718,-15.13901 5.264922,-15.952867 21.599743,-22.703212 34.958977,-14.446752 13.469246,8.324452 15.602447,25.119502 4.643401,36.558282 l -5.27704,5.50804 13.474254,28.73871 c 21.86545,46.63595 61.862038,128.1171 62.550698,127.42846 0.35009,-0.35009 2.57104,-35.67224 4.93545,-78.49365 2.36442,-42.82142 4.88683,-85.72456 5.60535,-95.34032 l 1.30641,-17.48319 -8.42891,-4.300113 c -20.7084,-10.564637 -18.87485,-38.685596 2.92101,-44.799016 12.8308,-3.598854 27.47838,5.234843 29.87652,18.018009 1.77421,9.45738 -0.58847,15.742903 -8.77116,23.334239 l -6.90738,6.408184 29.44609,84.355937 c 32.93015,94.33688 34.30831,98.03718 35.39497,95.03389 0.42499,-1.17457 8.53929,-46.34237 18.03176,-100.37288 16.17278,-92.054194 17.02063,-98.3717 13.4707,-100.372879 -2.08359,-1.174576 -6.46837,-4.704466 -9.74394,-7.844198 -8.57774,-8.222004 -8.45616,-22.391504 0.276,-32.164483 5.51342,-6.170574 7.50262,-6.97437 17.25993,-6.97437 9.75731,0 11.74651,0.803796 17.25993,6.97437 8.73216,9.772979 8.85374,23.942479 0.276,32.164483 -3.27557,3.139732 -7.66035,6.669622 -9.74394,7.844198 -3.54993,2.001179 -2.70208,8.318685 13.4707,100.372879 9.49248,54.03051 17.60677,99.19831 18.03176,100.37288 1.08667,3.00329 2.46481,-0.69701 35.39495,-95.03389 l 29.44612,-84.355937 -6.90739,-6.408184 c -8.18269,-7.591336 -10.54536,-13.876859 -8.77115,-23.334239 2.38095,-12.691611 17.03317,-21.575754 29.81367,-18.077052 21.80887,5.97025 23.69285,34.293126 2.98385,44.858059 l -8.42891,4.300113 1.30641,17.48319 c 0.71852,9.61576 3.24093,52.5189 5.60535,95.34032 2.3644,42.82141 4.58536,78.14356 4.93544,78.49365 0.68867,0.68864 40.68525,-80.79251 62.55072,-127.42846 l 13.47424,-28.73871 -5.27705,-5.50804 c -10.95903,-11.43878 -8.82583,-28.23383 4.64342,-36.558282 8.90259,-5.502106 20.11793,-4.444874 27.62081,2.603713 15.66128,14.712999 8.02848,36.778089 -14.27489,41.266279 l -5.48826,1.10443 -10.15186,82.81008 c -5.58353,45.54554 -10.91895,85.24274 -11.85651,88.216 -0.93755,2.97325 -9.75627,15.49332 -19.59717,27.82238 -13.88507,17.39575 -19.99203,27.3383 -27.26648,44.39174 l -9.37398,21.97532 8.86348,22.44465 c 4.87492,12.34457 8.26319,23.41595 7.52949,24.60309 -0.73369,1.18715 -2.426,-0.0314 -3.7607,-2.70768 -2.76986,-5.55427 -15.97998,-11.17289 -46.20636,-19.65282 C 313.17721,419.23378 290.26906,416.16722 252,416.16722 c -38.26906,0 -61.1772,3.06656 -96.10169,12.86453 -30.22639,8.47993 -43.43649,14.09855 -46.20637,19.65282 -1.33469,2.67637 -3.027,3.89483 -3.76069,2.70768 l 0,0 z m 56.17534,-48.411 c 32.088,-12.46678 53.83252,-16.38621 90.98799,-16.40048 37.05397,-0.0149 54.64929,3.33712 93.01382,17.71622 22.03537,8.25889 23.93263,8.63149 27.2189,5.3452 2.68442,-2.68442 2.98409,-4.40191 1.24823,-7.15381 -5.374,-8.51957 -45.55092,-23.41304 -78.89114,-29.24473 -39.34149,-6.88142 -86.04697,-3.30669 -125.80946,9.62913 -33.56559,10.9198 -45.77086,19.08952 -39.60979,26.51316 3.51607,4.23659 5.45693,3.8462 31.84145,-6.40469 l 0,0 z m 20.48663,-55.51697 c 36.62669,-7.58088 102.27074,-7.5758 138.81356,0.0107 9.39661,1.9508 27.45685,6.89148 40.13386,10.97926 25.73253,8.29759 32.12936,8.53626 33.16517,1.23736 0.57887,-4.07909 -1.24405,-5.70889 -11.41776,-10.2082 -18.05422,-7.98443 -53.92685,-17.50821 -80.79329,-21.44973 -32.53331,-4.77288 -92.04569,-3.17283 -120.96934,3.25236 -44.99751,9.99592 -72.61017,20.58992 -72.61017,27.85794 0,8.32437 5.95161,8.31047 31.75748,-0.0741 13.65966,-4.43815 32.52388,-9.66068 41.92049,-11.60557 z"
     id="path2819" />
  <path
     style="fill:#000000"
     d="m 201.81356,472.23513 c -43.23765,-1.28614 -48.41446,-1.86218 -64.93892,-7.22595 -12.91721,-4.19287 -17.11215,-6.37859 -14.94916,-7.78904 5.46517,-3.56375 49.65393,-16.64986 69.21011,-20.49596 27.01811,-5.31363 94.71071,-5.31363 121.72882,0 19.55618,3.8461 63.74493,16.93221 69.21011,20.49596 5.38498,3.51147 -30.29497,13.26011 -52.12537,14.24193 -41.34164,1.85934 -83.13956,2.11151 -128.13559,0.77306 l 0,0 z"
     id="path2821" />
</svg>
